%TF.GenerationSoftware,KiCad,Pcbnew,(5.1.7)-1*%
%TF.CreationDate,2020-10-28T17:30:21+01:00*%
%TF.ProjectId,Atmega_328_breakout,41746d65-6761-45f3-9332-385f62726561,rev?*%
%TF.SameCoordinates,Original*%
%TF.FileFunction,Legend,Top*%
%TF.FilePolarity,Positive*%
%FSLAX46Y46*%
G04 Gerber Fmt 4.6, Leading zero omitted, Abs format (unit mm)*
G04 Created by KiCad (PCBNEW (5.1.7)-1) date 2020-10-28 17:30:21*
%MOMM*%
%LPD*%
G01*
G04 APERTURE LIST*
%ADD10C,0.150000*%
%ADD11C,0.100000*%
%ADD12C,0.050000*%
%ADD13C,0.200000*%
%ADD14C,0.120000*%
%ADD15C,0.304800*%
%ADD16C,3.937000*%
%ADD17O,1.524000X2.540000*%
%ADD18O,0.800000X0.800000*%
%ADD19O,1.800000X1.150000*%
%ADD20O,2.000000X1.450000*%
%ADD21R,1.300000X0.450000*%
%ADD22R,0.300000X1.400000*%
%ADD23R,0.900000X0.800000*%
%ADD24R,1.500000X2.000000*%
%ADD25R,4.000000X2.000000*%
%ADD26R,0.600000X1.100000*%
%ADD27O,1.700000X1.700000*%
%ADD28R,1.700000X1.700000*%
%ADD29R,1.400000X1.200000*%
%ADD30R,1.700000X1.000000*%
%ADD31R,1.800000X4.400000*%
%ADD32O,1.800000X4.000000*%
%ADD33O,4.000000X1.800000*%
%ADD34C,3.000000*%
%ADD35R,3.000000X3.000000*%
%ADD36O,1.300000X2.000000*%
%ADD37R,1.300000X2.000000*%
%ADD38R,1.600000X0.550000*%
%ADD39R,0.550000X1.600000*%
%ADD40O,1.800000X1.800000*%
%ADD41R,1.800000X1.800000*%
G04 APERTURE END LIST*
D10*
X82806140Y-44541273D02*
X83472807Y-44541046D01*
X83044576Y-45541192D01*
X83758521Y-44540949D02*
X84377569Y-44540738D01*
X84044365Y-44921804D01*
X84187222Y-44921755D01*
X84282476Y-44969342D01*
X84330112Y-45016945D01*
X84377763Y-45112167D01*
X84377844Y-45350262D01*
X84330257Y-45445516D01*
X84282655Y-45493152D01*
X84187433Y-45540803D01*
X83901718Y-45540900D01*
X83806464Y-45493314D01*
X83758829Y-45445711D01*
X84806448Y-45445354D02*
X84854083Y-45492957D01*
X84806480Y-45540592D01*
X84758845Y-45492990D01*
X84806448Y-45445354D01*
X84806480Y-45540592D01*
X85758521Y-44540269D02*
X85282331Y-44540431D01*
X85234874Y-45016637D01*
X85282476Y-44969002D01*
X85377698Y-44921351D01*
X85615794Y-44921270D01*
X85711048Y-44968856D01*
X85758683Y-45016459D01*
X85806334Y-45111681D01*
X85806415Y-45349776D01*
X85758829Y-45445030D01*
X85711226Y-45492666D01*
X85616004Y-45540317D01*
X85377909Y-45540398D01*
X85282655Y-45492811D01*
X85235019Y-45445209D01*
X86425188Y-44540042D02*
X86520426Y-44540009D01*
X86615680Y-44587596D01*
X86663315Y-44635199D01*
X86710967Y-44730421D01*
X86758651Y-44920881D01*
X86758732Y-45158976D01*
X86711177Y-45349468D01*
X86663591Y-45444723D01*
X86615988Y-45492358D01*
X86520766Y-45540009D01*
X86425528Y-45540042D01*
X86330274Y-45492455D01*
X86282638Y-45444852D01*
X86234987Y-45349630D01*
X86187303Y-45159170D01*
X86187222Y-44921075D01*
X86234776Y-44730583D01*
X86282363Y-44635329D01*
X86329966Y-44587693D01*
X86425188Y-44540042D01*
X87377569Y-44539718D02*
X87472807Y-44539686D01*
X87568061Y-44587272D01*
X87615696Y-44634875D01*
X87663348Y-44730097D01*
X87711031Y-44920557D01*
X87711112Y-45158652D01*
X87663558Y-45349144D01*
X87615972Y-45444399D01*
X87568369Y-45492034D01*
X87473147Y-45539685D01*
X87377909Y-45539718D01*
X87282654Y-45492131D01*
X87235019Y-45444528D01*
X87187368Y-45349306D01*
X87139684Y-45158846D01*
X87139603Y-44920751D01*
X87187157Y-44730259D01*
X87234744Y-44635005D01*
X87282347Y-44587369D01*
X87377569Y-44539718D01*
X88901718Y-45539200D02*
X88901491Y-44872533D01*
X88901524Y-44967771D02*
X88949127Y-44920136D01*
X89044349Y-44872484D01*
X89187206Y-44872436D01*
X89282460Y-44920022D01*
X89330111Y-45015244D01*
X89330290Y-45539054D01*
X89330111Y-45015244D02*
X89377698Y-44919990D01*
X89472920Y-44872339D01*
X89615777Y-44872290D01*
X89711031Y-44919877D01*
X89758683Y-45015099D01*
X89758861Y-45538908D01*
X90235051Y-45538746D02*
X90234825Y-44872079D01*
X90234857Y-44967317D02*
X90282460Y-44919682D01*
X90377682Y-44872031D01*
X90520539Y-44871982D01*
X90615793Y-44919569D01*
X90663445Y-45014791D01*
X90663623Y-45538600D01*
X90663445Y-45014791D02*
X90711031Y-44919536D01*
X90806253Y-44871885D01*
X90949110Y-44871836D01*
X91044365Y-44919423D01*
X91092016Y-45014645D01*
X91092194Y-45538454D01*
X50247245Y-46399967D02*
X123747245Y-46374967D01*
X50250000Y-54500000D02*
X50247045Y-45813547D01*
X123750000Y-54475000D02*
X123747045Y-45788547D01*
X123747245Y-46374967D02*
X122620941Y-46961771D01*
X123747245Y-46374967D02*
X122620542Y-45788929D01*
X50247245Y-46399967D02*
X51373948Y-46986005D01*
X50247245Y-46399967D02*
X51373549Y-45813163D01*
X35972620Y-81583333D02*
X35972620Y-81392857D01*
X35925001Y-81297619D01*
X35877381Y-81250000D01*
X35734524Y-81154761D01*
X35544048Y-81107142D01*
X35163096Y-81107142D01*
X35067858Y-81154761D01*
X35020239Y-81202380D01*
X34972620Y-81297619D01*
X34972620Y-81488095D01*
X35020239Y-81583333D01*
X35067858Y-81630952D01*
X35163096Y-81678571D01*
X35401191Y-81678571D01*
X35496429Y-81630952D01*
X35544048Y-81583333D01*
X35591667Y-81488095D01*
X35591667Y-81297619D01*
X35544048Y-81202380D01*
X35496429Y-81154761D01*
X35401191Y-81107142D01*
X34972620Y-82630952D02*
X34972620Y-82059523D01*
X34972620Y-82345238D02*
X35972620Y-82345238D01*
X35829762Y-82250000D01*
X35734524Y-82154761D01*
X35686905Y-82059523D01*
X35067858Y-83059523D02*
X35020239Y-83107142D01*
X34972620Y-83059523D01*
X35020239Y-83011904D01*
X35067858Y-83059523D01*
X34972620Y-83059523D01*
X35972620Y-84011904D02*
X35972620Y-83535714D01*
X35496429Y-83488095D01*
X35544048Y-83535714D01*
X35591667Y-83630952D01*
X35591667Y-83869047D01*
X35544048Y-83964285D01*
X35496429Y-84011904D01*
X35401191Y-84059523D01*
X35163096Y-84059523D01*
X35067858Y-84011904D01*
X35020239Y-83964285D01*
X34972620Y-83869047D01*
X34972620Y-83630952D01*
X35020239Y-83535714D01*
X35067858Y-83488095D01*
X35972620Y-84678571D02*
X35972620Y-84773809D01*
X35925001Y-84869047D01*
X35877381Y-84916666D01*
X35782143Y-84964285D01*
X35591667Y-85011904D01*
X35353572Y-85011904D01*
X35163096Y-84964285D01*
X35067858Y-84916666D01*
X35020239Y-84869047D01*
X34972620Y-84773809D01*
X34972620Y-84678571D01*
X35020239Y-84583333D01*
X35067858Y-84535714D01*
X35163096Y-84488095D01*
X35353572Y-84440476D01*
X35591667Y-84440476D01*
X35782143Y-84488095D01*
X35877381Y-84535714D01*
X35925001Y-84583333D01*
X35972620Y-84678571D01*
X35972620Y-85630952D02*
X35972620Y-85726190D01*
X35925001Y-85821428D01*
X35877381Y-85869047D01*
X35782143Y-85916666D01*
X35591667Y-85964285D01*
X35353572Y-85964285D01*
X35163096Y-85916666D01*
X35067858Y-85869047D01*
X35020239Y-85821428D01*
X34972620Y-85726190D01*
X34972620Y-85630952D01*
X35020239Y-85535714D01*
X35067858Y-85488095D01*
X35163096Y-85440476D01*
X35353572Y-85392857D01*
X35591667Y-85392857D01*
X35782143Y-85440476D01*
X35877381Y-85488095D01*
X35925001Y-85535714D01*
X35972620Y-85630952D01*
X34972620Y-87154761D02*
X35639286Y-87154761D01*
X35544048Y-87154761D02*
X35591667Y-87202380D01*
X35639286Y-87297619D01*
X35639286Y-87440476D01*
X35591667Y-87535714D01*
X35496429Y-87583333D01*
X34972620Y-87583333D01*
X35496429Y-87583333D02*
X35591667Y-87630952D01*
X35639286Y-87726190D01*
X35639286Y-87869047D01*
X35591667Y-87964285D01*
X35496429Y-88011904D01*
X34972620Y-88011904D01*
X34972620Y-88488095D02*
X35639286Y-88488095D01*
X35544048Y-88488095D02*
X35591667Y-88535714D01*
X35639286Y-88630952D01*
X35639286Y-88773809D01*
X35591667Y-88869047D01*
X35496429Y-88916666D01*
X34972620Y-88916666D01*
X35496429Y-88916666D02*
X35591667Y-88964285D01*
X35639286Y-89059523D01*
X35639286Y-89202380D01*
X35591667Y-89297619D01*
X35496429Y-89345238D01*
X34972620Y-89345238D01*
X36725001Y-54500000D02*
X36725001Y-116000000D01*
X50250000Y-54500000D02*
X36138580Y-54500000D01*
X50250000Y-116000000D02*
X36138580Y-116000000D01*
X36725001Y-116000000D02*
X36138580Y-114873496D01*
X36725001Y-116000000D02*
X37311422Y-114873496D01*
X36725001Y-54500000D02*
X36138580Y-55626504D01*
X36725001Y-54500000D02*
X37311422Y-55626504D01*
X84925000Y-110900000D02*
X86775000Y-113100000D01*
X82350000Y-110875000D02*
X84200000Y-113125000D01*
X79900000Y-110950000D02*
X81650000Y-113075000D01*
X77325000Y-110900000D02*
X79175000Y-113150000D01*
X74725000Y-110900000D02*
X76600000Y-113150000D01*
X72325000Y-110925000D02*
X74050000Y-113125000D01*
D11*
X117377619Y-81202380D02*
X116901428Y-81202380D01*
X116853809Y-81678571D01*
X116901428Y-81630952D01*
X116996666Y-81583333D01*
X117234761Y-81583333D01*
X117330000Y-81630952D01*
X117377619Y-81678571D01*
X117425238Y-81773809D01*
X117425238Y-82011904D01*
X117377619Y-82107142D01*
X117330000Y-82154761D01*
X117234761Y-82202380D01*
X116996666Y-82202380D01*
X116901428Y-82154761D01*
X116853809Y-82107142D01*
X117853809Y-82107142D02*
X117901428Y-82154761D01*
X117853809Y-82202380D01*
X117806190Y-82154761D01*
X117853809Y-82107142D01*
X117853809Y-82202380D01*
X118520476Y-81202380D02*
X118615714Y-81202380D01*
X118710952Y-81250000D01*
X118758571Y-81297619D01*
X118806190Y-81392857D01*
X118853809Y-81583333D01*
X118853809Y-81821428D01*
X118806190Y-82011904D01*
X118758571Y-82107142D01*
X118710952Y-82154761D01*
X118615714Y-82202380D01*
X118520476Y-82202380D01*
X118425238Y-82154761D01*
X118377619Y-82107142D01*
X118330000Y-82011904D01*
X118282380Y-81821428D01*
X118282380Y-81583333D01*
X118330000Y-81392857D01*
X118377619Y-81297619D01*
X118425238Y-81250000D01*
X118520476Y-81202380D01*
X119425238Y-81630952D02*
X119330000Y-81583333D01*
X119282380Y-81535714D01*
X119234761Y-81440476D01*
X119234761Y-81392857D01*
X119282380Y-81297619D01*
X119330000Y-81250000D01*
X119425238Y-81202380D01*
X119615714Y-81202380D01*
X119710952Y-81250000D01*
X119758571Y-81297619D01*
X119806190Y-81392857D01*
X119806190Y-81440476D01*
X119758571Y-81535714D01*
X119710952Y-81583333D01*
X119615714Y-81630952D01*
X119425238Y-81630952D01*
X119330000Y-81678571D01*
X119282380Y-81726190D01*
X119234761Y-81821428D01*
X119234761Y-82011904D01*
X119282380Y-82107142D01*
X119330000Y-82154761D01*
X119425238Y-82202380D01*
X119615714Y-82202380D01*
X119710952Y-82154761D01*
X119758571Y-82107142D01*
X119806190Y-82011904D01*
X119806190Y-81821428D01*
X119758571Y-81726190D01*
X119710952Y-81678571D01*
X119615714Y-81630952D01*
D10*
X116800000Y-84300000D02*
X115600000Y-84300000D01*
X116600000Y-84300000D02*
X116800000Y-84300000D01*
X115800000Y-84300000D02*
X116600000Y-84300000D01*
X116200000Y-84300000D02*
X115800000Y-84300000D01*
X116200000Y-79100000D02*
X116200000Y-84300000D01*
X115600000Y-79100000D02*
X116200000Y-79100000D01*
X116800000Y-79100000D02*
X115600000Y-79100000D01*
D11*
X95079809Y-81397619D02*
X95127428Y-81350000D01*
X95222666Y-81302380D01*
X95460761Y-81302380D01*
X95556000Y-81350000D01*
X95603619Y-81397619D01*
X95651238Y-81492857D01*
X95651238Y-81588095D01*
X95603619Y-81730952D01*
X95032190Y-82302380D01*
X95651238Y-82302380D01*
X96079809Y-82207142D02*
X96127428Y-82254761D01*
X96079809Y-82302380D01*
X96032190Y-82254761D01*
X96079809Y-82207142D01*
X96079809Y-82302380D01*
X97032190Y-81302380D02*
X96556000Y-81302380D01*
X96508380Y-81778571D01*
X96556000Y-81730952D01*
X96651238Y-81683333D01*
X96889333Y-81683333D01*
X96984571Y-81730952D01*
X97032190Y-81778571D01*
X97079809Y-81873809D01*
X97079809Y-82111904D01*
X97032190Y-82207142D01*
X96984571Y-82254761D01*
X96889333Y-82302380D01*
X96651238Y-82302380D01*
X96556000Y-82254761D01*
X96508380Y-82207142D01*
X97936952Y-81635714D02*
X97936952Y-82302380D01*
X97698857Y-81254761D02*
X97460761Y-81969047D01*
X98079809Y-81969047D01*
X100159809Y-77079619D02*
X100207428Y-77032000D01*
X100302666Y-76984380D01*
X100540761Y-76984380D01*
X100636000Y-77032000D01*
X100683619Y-77079619D01*
X100731238Y-77174857D01*
X100731238Y-77270095D01*
X100683619Y-77412952D01*
X100112190Y-77984380D01*
X100731238Y-77984380D01*
X101159809Y-77889142D02*
X101207428Y-77936761D01*
X101159809Y-77984380D01*
X101112190Y-77936761D01*
X101159809Y-77889142D01*
X101159809Y-77984380D01*
X102112190Y-76984380D02*
X101636000Y-76984380D01*
X101588380Y-77460571D01*
X101636000Y-77412952D01*
X101731238Y-77365333D01*
X101969333Y-77365333D01*
X102064571Y-77412952D01*
X102112190Y-77460571D01*
X102159809Y-77555809D01*
X102159809Y-77793904D01*
X102112190Y-77889142D01*
X102064571Y-77936761D01*
X101969333Y-77984380D01*
X101731238Y-77984380D01*
X101636000Y-77936761D01*
X101588380Y-77889142D01*
X103016952Y-77317714D02*
X103016952Y-77984380D01*
X102778857Y-76936761D02*
X102540761Y-77651047D01*
X103159809Y-77651047D01*
D10*
X102906000Y-79310000D02*
X102906000Y-78294000D01*
X102906000Y-78802000D02*
X102906000Y-79310000D01*
X100366000Y-78802000D02*
X102906000Y-78802000D01*
X100366000Y-78294000D02*
X100366000Y-78802000D01*
X100366000Y-79310000D02*
X100366000Y-78294000D01*
X99096000Y-83120000D02*
X98080000Y-83120000D01*
X98588000Y-83120000D02*
X99096000Y-83120000D01*
X98588000Y-80580000D02*
X98588000Y-83120000D01*
X98080000Y-80580000D02*
X98588000Y-80580000D01*
X99096000Y-80580000D02*
X98080000Y-80580000D01*
D11*
X64409523Y-109226380D02*
X64409523Y-108226380D01*
X64980952Y-109226380D01*
X64980952Y-108226380D01*
X65457142Y-109226380D02*
X65457142Y-108226380D01*
X65838095Y-108226380D01*
X65933333Y-108274000D01*
X65980952Y-108321619D01*
X66028571Y-108416857D01*
X66028571Y-108559714D01*
X65980952Y-108654952D01*
X65933333Y-108702571D01*
X65838095Y-108750190D01*
X65457142Y-108750190D01*
X67028571Y-109131142D02*
X66980952Y-109178761D01*
X66838095Y-109226380D01*
X66742857Y-109226380D01*
X66600000Y-109178761D01*
X66504761Y-109083523D01*
X66457142Y-108988285D01*
X66409523Y-108797809D01*
X66409523Y-108654952D01*
X66457142Y-108464476D01*
X66504761Y-108369238D01*
X66600000Y-108274000D01*
X66742857Y-108226380D01*
X66838095Y-108226380D01*
X66980952Y-108274000D01*
X67028571Y-108321619D01*
X67980952Y-109226380D02*
X67409523Y-109226380D01*
X67695238Y-109226380D02*
X67695238Y-108226380D01*
X67600000Y-108369238D01*
X67504761Y-108464476D01*
X67409523Y-108512095D01*
X68314285Y-108226380D02*
X68980952Y-108226380D01*
X68552380Y-109226380D01*
X69266666Y-108226380D02*
X69933333Y-108226380D01*
X69504761Y-109226380D01*
X70219047Y-108226380D02*
X70885714Y-108226380D01*
X70457142Y-109226380D01*
D12*
X51520690Y-73773904D02*
X51787357Y-74573904D01*
X52054023Y-73773904D01*
X52777833Y-74497714D02*
X52739738Y-74535809D01*
X52625452Y-74573904D01*
X52549261Y-74573904D01*
X52434976Y-74535809D01*
X52358785Y-74459619D01*
X52320690Y-74383428D01*
X52282595Y-74231047D01*
X52282595Y-74116761D01*
X52320690Y-73964380D01*
X52358785Y-73888190D01*
X52434976Y-73812000D01*
X52549261Y-73773904D01*
X52625452Y-73773904D01*
X52739738Y-73812000D01*
X52777833Y-73850095D01*
X53577833Y-74497714D02*
X53539738Y-74535809D01*
X53425452Y-74573904D01*
X53349261Y-74573904D01*
X53234976Y-74535809D01*
X53158785Y-74459619D01*
X53120690Y-74383428D01*
X53082595Y-74231047D01*
X53082595Y-74116761D01*
X53120690Y-73964380D01*
X53158785Y-73888190D01*
X53234976Y-73812000D01*
X53349261Y-73773904D01*
X53425452Y-73773904D01*
X53539738Y-73812000D01*
X53577833Y-73850095D01*
X52054023Y-64414000D02*
X51977833Y-64375904D01*
X51863547Y-64375904D01*
X51749261Y-64414000D01*
X51673071Y-64490190D01*
X51634976Y-64566380D01*
X51596880Y-64718761D01*
X51596880Y-64833047D01*
X51634976Y-64985428D01*
X51673071Y-65061619D01*
X51749261Y-65137809D01*
X51863547Y-65175904D01*
X51939738Y-65175904D01*
X52054023Y-65137809D01*
X52092119Y-65099714D01*
X52092119Y-64833047D01*
X51939738Y-64833047D01*
X52434976Y-65175904D02*
X52434976Y-64375904D01*
X52892119Y-65175904D01*
X52892119Y-64375904D01*
X53273071Y-65175904D02*
X53273071Y-64375904D01*
X53463547Y-64375904D01*
X53577833Y-64414000D01*
X53654023Y-64490190D01*
X53692119Y-64566380D01*
X53730214Y-64718761D01*
X53730214Y-64833047D01*
X53692119Y-64985428D01*
X53654023Y-65061619D01*
X53577833Y-65137809D01*
X53463547Y-65175904D01*
X53273071Y-65175904D01*
D10*
X110327619Y-72737714D02*
X110280000Y-72690095D01*
X110232380Y-72594857D01*
X110232380Y-72356761D01*
X110280000Y-72261523D01*
X110327619Y-72213904D01*
X110422857Y-72166285D01*
X110518095Y-72166285D01*
X110660952Y-72213904D01*
X111232380Y-72785333D01*
X111232380Y-72166285D01*
X110232380Y-70245333D02*
X110232380Y-69626285D01*
X110613333Y-69959619D01*
X110613333Y-69816761D01*
X110660952Y-69721523D01*
X110708571Y-69673904D01*
X110803809Y-69626285D01*
X111041904Y-69626285D01*
X111137142Y-69673904D01*
X111184761Y-69721523D01*
X111232380Y-69816761D01*
X111232380Y-70102476D01*
X111184761Y-70197714D01*
X111137142Y-70245333D01*
X122678380Y-69229333D02*
X122678380Y-68610285D01*
X123059333Y-68943619D01*
X123059333Y-68800761D01*
X123106952Y-68705523D01*
X123154571Y-68657904D01*
X123249809Y-68610285D01*
X123487904Y-68610285D01*
X123583142Y-68657904D01*
X123630761Y-68705523D01*
X123678380Y-68800761D01*
X123678380Y-69086476D01*
X123630761Y-69181714D01*
X123583142Y-69229333D01*
X122773619Y-74261714D02*
X122726000Y-74214095D01*
X122678380Y-74118857D01*
X122678380Y-73880761D01*
X122726000Y-73785523D01*
X122773619Y-73737904D01*
X122868857Y-73690285D01*
X122964095Y-73690285D01*
X123106952Y-73737904D01*
X123678380Y-74309333D01*
X123678380Y-73690285D01*
X111232380Y-74706285D02*
X111232380Y-75277714D01*
X111232380Y-74992000D02*
X110232380Y-74992000D01*
X110375238Y-75087238D01*
X110470476Y-75182476D01*
X110518095Y-75277714D01*
X123678380Y-78770285D02*
X123678380Y-79341714D01*
X123678380Y-79056000D02*
X122678380Y-79056000D01*
X122821238Y-79151238D01*
X122916476Y-79246476D01*
X122964095Y-79341714D01*
X112812000Y-110552000D02*
X112812000Y-108012000D01*
X110272000Y-103186000D02*
X110272000Y-110552000D01*
X112812000Y-103186000D02*
X112812000Y-108266000D01*
X100366000Y-88200000D02*
X105446000Y-88200000D01*
X105446000Y-90740000D02*
X100366000Y-90740000D01*
X105446000Y-93280000D02*
X100112000Y-93280000D01*
X105446000Y-95820000D02*
X100366000Y-95820000D01*
X105446000Y-98360000D02*
X100366000Y-98360000D01*
X113066000Y-98360000D02*
X107986000Y-98360000D01*
X113066000Y-95820000D02*
X107986000Y-95820000D01*
X113066000Y-93280000D02*
X107986000Y-93280000D01*
X113066000Y-90740000D02*
X107986000Y-90740000D01*
X105446000Y-85660000D02*
X100366000Y-85660000D01*
X105700000Y-83120000D02*
X100366000Y-83120000D01*
X113066000Y-88200000D02*
X107986000Y-88200000D01*
X113066000Y-85660000D02*
X107986000Y-85660000D01*
X113066000Y-83120000D02*
X107986000Y-83120000D01*
X107986000Y-80580000D02*
X113066000Y-80580000D01*
X100366000Y-80580000D02*
X105446000Y-80580000D01*
D11*
X110032142Y-54622619D02*
X110508333Y-54622619D01*
X110508333Y-55622619D01*
X109698809Y-55146428D02*
X109365476Y-55146428D01*
X109222619Y-54622619D02*
X109698809Y-54622619D01*
X109698809Y-55622619D01*
X109222619Y-55622619D01*
X108794047Y-54622619D02*
X108794047Y-55622619D01*
X108555952Y-55622619D01*
X108413095Y-55575000D01*
X108317857Y-55479761D01*
X108270238Y-55384523D01*
X108222619Y-55194047D01*
X108222619Y-55051190D01*
X108270238Y-54860714D01*
X108317857Y-54765476D01*
X108413095Y-54670238D01*
X108555952Y-54622619D01*
X108794047Y-54622619D01*
X107794047Y-54717857D02*
X107746428Y-54670238D01*
X107794047Y-54622619D01*
X107841666Y-54670238D01*
X107794047Y-54717857D01*
X107794047Y-54622619D01*
X107794047Y-55241666D02*
X107746428Y-55194047D01*
X107794047Y-55146428D01*
X107841666Y-55194047D01*
X107794047Y-55241666D01*
X107794047Y-55146428D01*
X107317857Y-54622619D02*
X107317857Y-55622619D01*
X106936904Y-55622619D01*
X106841666Y-55575000D01*
X106794047Y-55527380D01*
X106746428Y-55432142D01*
X106746428Y-55289285D01*
X106794047Y-55194047D01*
X106841666Y-55146428D01*
X106936904Y-55098809D01*
X107317857Y-55098809D01*
X106317857Y-54622619D02*
X106317857Y-55622619D01*
X106079761Y-55622619D01*
X105936904Y-55575000D01*
X105841666Y-55479761D01*
X105794047Y-55384523D01*
X105746428Y-55194047D01*
X105746428Y-55051190D01*
X105794047Y-54860714D01*
X105841666Y-54765476D01*
X105936904Y-54670238D01*
X106079761Y-54622619D01*
X106317857Y-54622619D01*
X105413095Y-55622619D02*
X104746428Y-55622619D01*
X105175000Y-54622619D01*
X119947619Y-55146428D02*
X119804761Y-55098809D01*
X119757142Y-55051190D01*
X119709523Y-54955952D01*
X119709523Y-54813095D01*
X119757142Y-54717857D01*
X119804761Y-54670238D01*
X119900000Y-54622619D01*
X120280952Y-54622619D01*
X120280952Y-55622619D01*
X119947619Y-55622619D01*
X119852380Y-55575000D01*
X119804761Y-55527380D01*
X119757142Y-55432142D01*
X119757142Y-55336904D01*
X119804761Y-55241666D01*
X119852380Y-55194047D01*
X119947619Y-55146428D01*
X120280952Y-55146428D01*
X119423809Y-55622619D02*
X118852380Y-55622619D01*
X119138095Y-54622619D02*
X119138095Y-55622619D01*
X118519047Y-54622619D02*
X118519047Y-55622619D01*
X117947619Y-54622619D01*
X117947619Y-55622619D01*
X117471428Y-54717857D02*
X117423809Y-54670238D01*
X117471428Y-54622619D01*
X117519047Y-54670238D01*
X117471428Y-54717857D01*
X117471428Y-54622619D01*
X117471428Y-55241666D02*
X117423809Y-55194047D01*
X117471428Y-55146428D01*
X117519047Y-55194047D01*
X117471428Y-55241666D01*
X117471428Y-55146428D01*
X116995238Y-54622619D02*
X116995238Y-55622619D01*
X116614285Y-55622619D01*
X116519047Y-55575000D01*
X116471428Y-55527380D01*
X116423809Y-55432142D01*
X116423809Y-55289285D01*
X116471428Y-55194047D01*
X116519047Y-55146428D01*
X116614285Y-55098809D01*
X116995238Y-55098809D01*
X115995238Y-54622619D02*
X115995238Y-55622619D01*
X115757142Y-55622619D01*
X115614285Y-55575000D01*
X115519047Y-55479761D01*
X115471428Y-55384523D01*
X115423809Y-55194047D01*
X115423809Y-55051190D01*
X115471428Y-54860714D01*
X115519047Y-54765476D01*
X115614285Y-54670238D01*
X115757142Y-54622619D01*
X115995238Y-54622619D01*
X114566666Y-55622619D02*
X114757142Y-55622619D01*
X114852380Y-55575000D01*
X114900000Y-55527380D01*
X114995238Y-55384523D01*
X115042857Y-55194047D01*
X115042857Y-54813095D01*
X114995238Y-54717857D01*
X114947619Y-54670238D01*
X114852380Y-54622619D01*
X114661904Y-54622619D01*
X114566666Y-54670238D01*
X114519047Y-54717857D01*
X114471428Y-54813095D01*
X114471428Y-55051190D01*
X114519047Y-55146428D01*
X114566666Y-55194047D01*
X114661904Y-55241666D01*
X114852380Y-55241666D01*
X114947619Y-55194047D01*
X114995238Y-55146428D01*
X115042857Y-55051190D01*
X51746428Y-104377380D02*
X51746428Y-103377380D01*
X52317857Y-104377380D01*
X52317857Y-103377380D01*
X52794047Y-104377380D02*
X52794047Y-103377380D01*
X53175000Y-103377380D01*
X53270238Y-103425000D01*
X53317857Y-103472619D01*
X53365476Y-103567857D01*
X53365476Y-103710714D01*
X53317857Y-103805952D01*
X53270238Y-103853571D01*
X53175000Y-103901190D01*
X52794047Y-103901190D01*
X54365476Y-104282142D02*
X54317857Y-104329761D01*
X54175000Y-104377380D01*
X54079761Y-104377380D01*
X53936904Y-104329761D01*
X53841666Y-104234523D01*
X53794047Y-104139285D01*
X53746428Y-103948809D01*
X53746428Y-103805952D01*
X53794047Y-103615476D01*
X53841666Y-103520238D01*
X53936904Y-103425000D01*
X54079761Y-103377380D01*
X54175000Y-103377380D01*
X54317857Y-103425000D01*
X54365476Y-103472619D01*
X55317857Y-104377380D02*
X54746428Y-104377380D01*
X55032142Y-104377380D02*
X55032142Y-103377380D01*
X54936904Y-103520238D01*
X54841666Y-103615476D01*
X54746428Y-103663095D01*
X55651190Y-103377380D02*
X56317857Y-103377380D01*
X55889285Y-104377380D01*
X56603571Y-103377380D02*
X57270238Y-103377380D01*
X56841666Y-104377380D01*
X57555952Y-103377380D02*
X58222619Y-103377380D01*
X57794047Y-104377380D01*
X58603571Y-104282142D02*
X58651190Y-104329761D01*
X58603571Y-104377380D01*
X58555952Y-104329761D01*
X58603571Y-104282142D01*
X58603571Y-104377380D01*
X58603571Y-103758333D02*
X58651190Y-103805952D01*
X58603571Y-103853571D01*
X58555952Y-103805952D01*
X58603571Y-103758333D01*
X58603571Y-103853571D01*
X52984523Y-105977380D02*
X53175000Y-105977380D01*
X53270238Y-105929761D01*
X53317857Y-105882142D01*
X53413095Y-105739285D01*
X53460714Y-105548809D01*
X53460714Y-105167857D01*
X53413095Y-105072619D01*
X53365476Y-105025000D01*
X53270238Y-104977380D01*
X53079761Y-104977380D01*
X52984523Y-105025000D01*
X52936904Y-105072619D01*
X52889285Y-105167857D01*
X52889285Y-105405952D01*
X52936904Y-105501190D01*
X52984523Y-105548809D01*
X53079761Y-105596428D01*
X53270238Y-105596428D01*
X53365476Y-105548809D01*
X53413095Y-105501190D01*
X53460714Y-105405952D01*
X53889285Y-105596428D02*
X54651190Y-105596428D01*
X55079761Y-105072619D02*
X55127380Y-105025000D01*
X55222619Y-104977380D01*
X55460714Y-104977380D01*
X55555952Y-105025000D01*
X55603571Y-105072619D01*
X55651190Y-105167857D01*
X55651190Y-105263095D01*
X55603571Y-105405952D01*
X55032142Y-105977380D01*
X55651190Y-105977380D01*
X56270238Y-104977380D02*
X56365476Y-104977380D01*
X56460714Y-105025000D01*
X56508333Y-105072619D01*
X56555952Y-105167857D01*
X56603571Y-105358333D01*
X56603571Y-105596428D01*
X56555952Y-105786904D01*
X56508333Y-105882142D01*
X56460714Y-105929761D01*
X56365476Y-105977380D01*
X56270238Y-105977380D01*
X56175000Y-105929761D01*
X56127380Y-105882142D01*
X56079761Y-105786904D01*
X56032142Y-105596428D01*
X56032142Y-105358333D01*
X56079761Y-105167857D01*
X56127380Y-105072619D01*
X56175000Y-105025000D01*
X56270238Y-104977380D01*
X56889285Y-104977380D02*
X57222619Y-105977380D01*
X57555952Y-104977380D01*
D13*
X113750000Y-69900000D02*
X117700000Y-69900000D01*
X117250000Y-72400000D02*
X117850000Y-73000000D01*
X113850000Y-72400000D02*
X117250000Y-72400000D01*
X114600000Y-74950000D02*
X118800000Y-79150000D01*
X112950000Y-74950000D02*
X114600000Y-74950000D01*
D12*
X122750000Y-110305595D02*
X122702380Y-110400833D01*
X122702380Y-110543690D01*
X122750000Y-110686547D01*
X122845238Y-110781785D01*
X122940476Y-110829404D01*
X123130952Y-110877023D01*
X123273809Y-110877023D01*
X123464285Y-110829404D01*
X123559523Y-110781785D01*
X123654761Y-110686547D01*
X123702380Y-110543690D01*
X123702380Y-110448452D01*
X123654761Y-110305595D01*
X123607142Y-110257976D01*
X123273809Y-110257976D01*
X123273809Y-110448452D01*
X123702380Y-109829404D02*
X122702380Y-109829404D01*
X123702380Y-109257976D01*
X122702380Y-109257976D01*
X123702380Y-108781785D02*
X122702380Y-108781785D01*
X122702380Y-108543690D01*
X122750000Y-108400833D01*
X122845238Y-108305595D01*
X122940476Y-108257976D01*
X123130952Y-108210357D01*
X123273809Y-108210357D01*
X123464285Y-108257976D01*
X123559523Y-108305595D01*
X123654761Y-108400833D01*
X123702380Y-108543690D01*
X123702380Y-108781785D01*
X122702380Y-105638928D02*
X123702380Y-105305595D01*
X122702380Y-104972261D01*
X123702380Y-104638928D02*
X123035714Y-104638928D01*
X122702380Y-104638928D02*
X122750000Y-104686547D01*
X122797619Y-104638928D01*
X122750000Y-104591309D01*
X122702380Y-104638928D01*
X122797619Y-104638928D01*
X123035714Y-104162738D02*
X123702380Y-104162738D01*
X123130952Y-104162738D02*
X123083333Y-104115119D01*
X123035714Y-104019880D01*
X123035714Y-103877023D01*
X123083333Y-103781785D01*
X123178571Y-103734166D01*
X123702380Y-103734166D01*
X123321428Y-100972261D02*
X123321428Y-100210357D01*
X123702380Y-100591309D02*
X122940476Y-100591309D01*
X122702380Y-99257976D02*
X122702380Y-99734166D01*
X123178571Y-99781785D01*
X123130952Y-99734166D01*
X123083333Y-99638928D01*
X123083333Y-99400833D01*
X123130952Y-99305595D01*
X123178571Y-99257976D01*
X123273809Y-99210357D01*
X123511904Y-99210357D01*
X123607142Y-99257976D01*
X123654761Y-99305595D01*
X123702380Y-99400833D01*
X123702380Y-99638928D01*
X123654761Y-99734166D01*
X123607142Y-99781785D01*
X122702380Y-98924642D02*
X123702380Y-98591309D01*
X122702380Y-98257976D01*
X122702380Y-95781785D02*
X123702380Y-95448452D01*
X122702380Y-95115119D01*
X123607142Y-94210357D02*
X123654761Y-94257976D01*
X123702380Y-94400833D01*
X123702380Y-94496071D01*
X123654761Y-94638928D01*
X123559523Y-94734166D01*
X123464285Y-94781785D01*
X123273809Y-94829404D01*
X123130952Y-94829404D01*
X122940476Y-94781785D01*
X122845238Y-94734166D01*
X122750000Y-94638928D01*
X122702380Y-94496071D01*
X122702380Y-94400833D01*
X122750000Y-94257976D01*
X122797619Y-94210357D01*
X123607142Y-93210357D02*
X123654761Y-93257976D01*
X123702380Y-93400833D01*
X123702380Y-93496071D01*
X123654761Y-93638928D01*
X123559523Y-93734166D01*
X123464285Y-93781785D01*
X123273809Y-93829404D01*
X123130952Y-93829404D01*
X122940476Y-93781785D01*
X122845238Y-93734166D01*
X122750000Y-93638928D01*
X122702380Y-93496071D01*
X122702380Y-93400833D01*
X122750000Y-93257976D01*
X122797619Y-93210357D01*
X123321428Y-91257976D02*
X123321428Y-90496071D01*
X123702380Y-90877023D02*
X122940476Y-90877023D01*
X122702380Y-90115119D02*
X122702380Y-89496071D01*
X123083333Y-89829404D01*
X123083333Y-89686547D01*
X123130952Y-89591309D01*
X123178571Y-89543690D01*
X123273809Y-89496071D01*
X123511904Y-89496071D01*
X123607142Y-89543690D01*
X123654761Y-89591309D01*
X123702380Y-89686547D01*
X123702380Y-89972261D01*
X123654761Y-90067500D01*
X123607142Y-90115119D01*
X122702380Y-89210357D02*
X123702380Y-88877023D01*
X122702380Y-88543690D01*
X122702380Y-88305595D02*
X122702380Y-87686547D01*
X123083333Y-88019880D01*
X123083333Y-87877023D01*
X123130952Y-87781785D01*
X123178571Y-87734166D01*
X123273809Y-87686547D01*
X123511904Y-87686547D01*
X123607142Y-87734166D01*
X123654761Y-87781785D01*
X123702380Y-87877023D01*
X123702380Y-88162738D01*
X123654761Y-88257976D01*
X123607142Y-88305595D01*
X123416666Y-85781785D02*
X123416666Y-85305595D01*
X123702380Y-85877023D02*
X122702380Y-85543690D01*
X123702380Y-85210357D01*
X122750000Y-84353214D02*
X122702380Y-84448452D01*
X122702380Y-84591309D01*
X122750000Y-84734166D01*
X122845238Y-84829404D01*
X122940476Y-84877023D01*
X123130952Y-84924642D01*
X123273809Y-84924642D01*
X123464285Y-84877023D01*
X123559523Y-84829404D01*
X123654761Y-84734166D01*
X123702380Y-84591309D01*
X123702380Y-84496071D01*
X123654761Y-84353214D01*
X123607142Y-84305595D01*
X123273809Y-84305595D01*
X123273809Y-84496071D01*
X123702380Y-83877023D02*
X122702380Y-83877023D01*
X123702380Y-83305595D01*
X122702380Y-83305595D01*
X123702380Y-82829404D02*
X122702380Y-82829404D01*
X122702380Y-82591309D01*
X122750000Y-82448452D01*
X122845238Y-82353214D01*
X122940476Y-82305595D01*
X123130952Y-82257976D01*
X123273809Y-82257976D01*
X123464285Y-82305595D01*
X123559523Y-82353214D01*
X123654761Y-82448452D01*
X123702380Y-82591309D01*
X123702380Y-82829404D01*
X109862500Y-110835000D02*
X109802500Y-110805000D01*
X109712500Y-110805000D01*
X109622500Y-110835000D01*
X109562500Y-110895000D01*
X109532500Y-110955000D01*
X109502500Y-111075000D01*
X109502500Y-111165000D01*
X109532500Y-111285000D01*
X109562500Y-111345000D01*
X109622500Y-111405000D01*
X109712500Y-111435000D01*
X109772500Y-111435000D01*
X109862500Y-111405000D01*
X109892500Y-111375000D01*
X109892500Y-111165000D01*
X109772500Y-111165000D01*
X110162500Y-111435000D02*
X110162500Y-110805000D01*
X110522500Y-111435000D01*
X110522500Y-110805000D01*
X110822500Y-111435000D02*
X110822500Y-110805000D01*
X110972500Y-110805000D01*
X111062500Y-110835000D01*
X111122500Y-110895000D01*
X111152500Y-110955000D01*
X111182500Y-111075000D01*
X111182500Y-111165000D01*
X111152500Y-111285000D01*
X111122500Y-111345000D01*
X111062500Y-111405000D01*
X110972500Y-111435000D01*
X110822500Y-111435000D01*
X111842500Y-110805000D02*
X112052500Y-111435000D01*
X112262500Y-110805000D01*
X112832500Y-111375000D02*
X112802500Y-111405000D01*
X112712500Y-111435000D01*
X112652500Y-111435000D01*
X112562500Y-111405000D01*
X112502500Y-111345000D01*
X112472500Y-111285000D01*
X112442500Y-111165000D01*
X112442500Y-111075000D01*
X112472500Y-110955000D01*
X112502500Y-110895000D01*
X112562500Y-110835000D01*
X112652500Y-110805000D01*
X112712500Y-110805000D01*
X112802500Y-110835000D01*
X112832500Y-110865000D01*
X113462500Y-111375000D02*
X113432500Y-111405000D01*
X113342500Y-111435000D01*
X113282500Y-111435000D01*
X113192500Y-111405000D01*
X113132500Y-111345000D01*
X113102500Y-111285000D01*
X113072500Y-111165000D01*
X113072500Y-111075000D01*
X113102500Y-110955000D01*
X113132500Y-110895000D01*
X113192500Y-110835000D01*
X113282500Y-110805000D01*
X113342500Y-110805000D01*
X113432500Y-110835000D01*
X113462500Y-110865000D01*
X82317500Y-54765000D02*
X82317500Y-55395000D01*
X82077500Y-55395000D01*
X82017500Y-55365000D01*
X81987500Y-55335000D01*
X81957500Y-55275000D01*
X81957500Y-55185000D01*
X81987500Y-55125000D01*
X82017500Y-55095000D01*
X82077500Y-55065000D01*
X82317500Y-55065000D01*
X81477500Y-55095000D02*
X81387500Y-55065000D01*
X81357500Y-55035000D01*
X81327500Y-54975000D01*
X81327500Y-54885000D01*
X81357500Y-54825000D01*
X81387500Y-54795000D01*
X81447500Y-54765000D01*
X81687500Y-54765000D01*
X81687500Y-55395000D01*
X81477500Y-55395000D01*
X81417500Y-55365000D01*
X81387500Y-55335000D01*
X81357500Y-55275000D01*
X81357500Y-55215000D01*
X81387500Y-55155000D01*
X81417500Y-55125000D01*
X81477500Y-55095000D01*
X81687500Y-55095000D01*
X80937500Y-55395000D02*
X80877500Y-55395000D01*
X80817500Y-55365000D01*
X80787500Y-55335000D01*
X80757500Y-55275000D01*
X80727500Y-55155000D01*
X80727500Y-55005000D01*
X80757500Y-54885000D01*
X80787500Y-54825000D01*
X80817500Y-54795000D01*
X80877500Y-54765000D01*
X80937500Y-54765000D01*
X80997500Y-54795000D01*
X81027500Y-54825000D01*
X81057500Y-54885000D01*
X81087500Y-55005000D01*
X81087500Y-55155000D01*
X81057500Y-55275000D01*
X81027500Y-55335000D01*
X80997500Y-55365000D01*
X80937500Y-55395000D01*
X79977500Y-54765000D02*
X79977500Y-55395000D01*
X79737500Y-55395000D01*
X79677500Y-55365000D01*
X79647500Y-55335000D01*
X79617500Y-55275000D01*
X79617500Y-55185000D01*
X79647500Y-55125000D01*
X79677500Y-55095000D01*
X79737500Y-55065000D01*
X79977500Y-55065000D01*
X79137500Y-55095000D02*
X79047500Y-55065000D01*
X79017500Y-55035000D01*
X78987500Y-54975000D01*
X78987500Y-54885000D01*
X79017500Y-54825000D01*
X79047500Y-54795000D01*
X79107500Y-54765000D01*
X79347500Y-54765000D01*
X79347500Y-55395000D01*
X79137500Y-55395000D01*
X79077500Y-55365000D01*
X79047500Y-55335000D01*
X79017500Y-55275000D01*
X79017500Y-55215000D01*
X79047500Y-55155000D01*
X79077500Y-55125000D01*
X79137500Y-55095000D01*
X79347500Y-55095000D01*
X78387500Y-54765000D02*
X78747500Y-54765000D01*
X78567500Y-54765000D02*
X78567500Y-55395000D01*
X78627500Y-55305000D01*
X78687500Y-55245000D01*
X78747500Y-55215000D01*
X77157500Y-54765000D02*
X77157500Y-55395000D01*
X76917500Y-55395000D01*
X76857500Y-55365000D01*
X76827500Y-55335000D01*
X76797500Y-55275000D01*
X76797500Y-55185000D01*
X76827500Y-55125000D01*
X76857500Y-55095000D01*
X76917500Y-55065000D01*
X77157500Y-55065000D01*
X76317500Y-55095000D02*
X76227500Y-55065000D01*
X76197500Y-55035000D01*
X76167500Y-54975000D01*
X76167500Y-54885000D01*
X76197500Y-54825000D01*
X76227500Y-54795000D01*
X76287500Y-54765000D01*
X76527500Y-54765000D01*
X76527500Y-55395000D01*
X76317500Y-55395000D01*
X76257500Y-55365000D01*
X76227500Y-55335000D01*
X76197500Y-55275000D01*
X76197500Y-55215000D01*
X76227500Y-55155000D01*
X76257500Y-55125000D01*
X76317500Y-55095000D01*
X76527500Y-55095000D01*
X75927500Y-55335000D02*
X75897500Y-55365000D01*
X75837500Y-55395000D01*
X75687500Y-55395000D01*
X75627500Y-55365000D01*
X75597500Y-55335000D01*
X75567500Y-55275000D01*
X75567500Y-55215000D01*
X75597500Y-55125000D01*
X75957500Y-54765000D01*
X75567500Y-54765000D01*
X74817500Y-54765000D02*
X74817500Y-55395000D01*
X74577500Y-55395000D01*
X74517500Y-55365000D01*
X74487500Y-55335000D01*
X74457500Y-55275000D01*
X74457500Y-55185000D01*
X74487500Y-55125000D01*
X74517500Y-55095000D01*
X74577500Y-55065000D01*
X74817500Y-55065000D01*
X73977500Y-55095000D02*
X73887500Y-55065000D01*
X73857500Y-55035000D01*
X73827500Y-54975000D01*
X73827500Y-54885000D01*
X73857500Y-54825000D01*
X73887500Y-54795000D01*
X73947500Y-54765000D01*
X74187500Y-54765000D01*
X74187500Y-55395000D01*
X73977500Y-55395000D01*
X73917500Y-55365000D01*
X73887500Y-55335000D01*
X73857500Y-55275000D01*
X73857500Y-55215000D01*
X73887500Y-55155000D01*
X73917500Y-55125000D01*
X73977500Y-55095000D01*
X74187500Y-55095000D01*
X73617500Y-55395000D02*
X73227500Y-55395000D01*
X73437500Y-55155000D01*
X73347500Y-55155000D01*
X73287500Y-55125000D01*
X73257500Y-55095000D01*
X73227500Y-55035000D01*
X73227500Y-54885000D01*
X73257500Y-54825000D01*
X73287500Y-54795000D01*
X73347500Y-54765000D01*
X73527500Y-54765000D01*
X73587500Y-54795000D01*
X73617500Y-54825000D01*
X71997500Y-54765000D02*
X71997500Y-55395000D01*
X71757500Y-55395000D01*
X71697500Y-55365000D01*
X71667500Y-55335000D01*
X71637500Y-55275000D01*
X71637500Y-55185000D01*
X71667500Y-55125000D01*
X71697500Y-55095000D01*
X71757500Y-55065000D01*
X71997500Y-55065000D01*
X71157500Y-55095000D02*
X71067500Y-55065000D01*
X71037500Y-55035000D01*
X71007500Y-54975000D01*
X71007500Y-54885000D01*
X71037500Y-54825000D01*
X71067500Y-54795000D01*
X71127500Y-54765000D01*
X71367500Y-54765000D01*
X71367500Y-55395000D01*
X71157500Y-55395000D01*
X71097500Y-55365000D01*
X71067500Y-55335000D01*
X71037500Y-55275000D01*
X71037500Y-55215000D01*
X71067500Y-55155000D01*
X71097500Y-55125000D01*
X71157500Y-55095000D01*
X71367500Y-55095000D01*
X70467500Y-55185000D02*
X70467500Y-54765000D01*
X70617500Y-55425000D02*
X70767500Y-54975000D01*
X70377500Y-54975000D01*
X69657500Y-54765000D02*
X69657500Y-55395000D01*
X69417500Y-55395000D01*
X69357500Y-55365000D01*
X69327500Y-55335000D01*
X69297500Y-55275000D01*
X69297500Y-55185000D01*
X69327500Y-55125000D01*
X69357500Y-55095000D01*
X69417500Y-55065000D01*
X69657500Y-55065000D01*
X68817500Y-55095000D02*
X68727500Y-55065000D01*
X68697500Y-55035000D01*
X68667500Y-54975000D01*
X68667500Y-54885000D01*
X68697500Y-54825000D01*
X68727500Y-54795000D01*
X68787500Y-54765000D01*
X69027500Y-54765000D01*
X69027500Y-55395000D01*
X68817500Y-55395000D01*
X68757500Y-55365000D01*
X68727500Y-55335000D01*
X68697500Y-55275000D01*
X68697500Y-55215000D01*
X68727500Y-55155000D01*
X68757500Y-55125000D01*
X68817500Y-55095000D01*
X69027500Y-55095000D01*
X68097500Y-55395000D02*
X68397500Y-55395000D01*
X68427500Y-55095000D01*
X68397500Y-55125000D01*
X68337500Y-55155000D01*
X68187500Y-55155000D01*
X68127500Y-55125000D01*
X68097500Y-55095000D01*
X68067500Y-55035000D01*
X68067500Y-54885000D01*
X68097500Y-54825000D01*
X68127500Y-54795000D01*
X68187500Y-54765000D01*
X68337500Y-54765000D01*
X68397500Y-54795000D01*
X68427500Y-54825000D01*
X66507500Y-55365000D02*
X66567500Y-55395000D01*
X66657500Y-55395000D01*
X66747500Y-55365000D01*
X66807500Y-55305000D01*
X66837500Y-55245000D01*
X66867500Y-55125000D01*
X66867500Y-55035000D01*
X66837500Y-54915000D01*
X66807500Y-54855000D01*
X66747500Y-54795000D01*
X66657500Y-54765000D01*
X66597500Y-54765000D01*
X66507500Y-54795000D01*
X66477500Y-54825000D01*
X66477500Y-55035000D01*
X66597500Y-55035000D01*
X66207500Y-54765000D02*
X66207500Y-55395000D01*
X65847500Y-54765000D01*
X65847500Y-55395000D01*
X65547500Y-54765000D02*
X65547500Y-55395000D01*
X65397500Y-55395000D01*
X65307500Y-55365000D01*
X65247500Y-55305000D01*
X65217500Y-55245000D01*
X65187500Y-55125000D01*
X65187500Y-55035000D01*
X65217500Y-54915000D01*
X65247500Y-54855000D01*
X65307500Y-54795000D01*
X65397500Y-54765000D01*
X65547500Y-54765000D01*
X64467500Y-54945000D02*
X64167500Y-54945000D01*
X64527500Y-54765000D02*
X64317500Y-55395000D01*
X64107500Y-54765000D01*
X63537500Y-54765000D02*
X63747500Y-55065000D01*
X63897500Y-54765000D02*
X63897500Y-55395000D01*
X63657500Y-55395000D01*
X63597500Y-55365000D01*
X63567500Y-55335000D01*
X63537500Y-55275000D01*
X63537500Y-55185000D01*
X63567500Y-55125000D01*
X63597500Y-55095000D01*
X63657500Y-55065000D01*
X63897500Y-55065000D01*
X63267500Y-55095000D02*
X63057500Y-55095000D01*
X62967500Y-54765000D02*
X63267500Y-54765000D01*
X63267500Y-55395000D01*
X62967500Y-55395000D01*
X62487500Y-55095000D02*
X62697500Y-55095000D01*
X62697500Y-54765000D02*
X62697500Y-55395000D01*
X62397500Y-55395000D01*
X102767500Y-54665000D02*
X102767500Y-55295000D01*
X102527500Y-55295000D01*
X102467500Y-55265000D01*
X102437500Y-55235000D01*
X102407500Y-55175000D01*
X102407500Y-55085000D01*
X102437500Y-55025000D01*
X102467500Y-54995000D01*
X102527500Y-54965000D01*
X102767500Y-54965000D01*
X102137500Y-54665000D02*
X102137500Y-55295000D01*
X101987500Y-55295000D01*
X101897500Y-55265000D01*
X101837500Y-55205000D01*
X101807500Y-55145000D01*
X101777500Y-55025000D01*
X101777500Y-54935000D01*
X101807500Y-54815000D01*
X101837500Y-54755000D01*
X101897500Y-54695000D01*
X101987500Y-54665000D01*
X102137500Y-54665000D01*
X101387500Y-55295000D02*
X101327500Y-55295000D01*
X101267500Y-55265000D01*
X101237500Y-55235000D01*
X101207500Y-55175000D01*
X101177500Y-55055000D01*
X101177500Y-54905000D01*
X101207500Y-54785000D01*
X101237500Y-54725000D01*
X101267500Y-54695000D01*
X101327500Y-54665000D01*
X101387500Y-54665000D01*
X101447500Y-54695000D01*
X101477500Y-54725000D01*
X101507500Y-54785000D01*
X101537500Y-54905000D01*
X101537500Y-55055000D01*
X101507500Y-55175000D01*
X101477500Y-55235000D01*
X101447500Y-55265000D01*
X101387500Y-55295000D01*
X100427500Y-54665000D02*
X100427500Y-55295000D01*
X100187500Y-55295000D01*
X100127500Y-55265000D01*
X100097500Y-55235000D01*
X100067500Y-55175000D01*
X100067500Y-55085000D01*
X100097500Y-55025000D01*
X100127500Y-54995000D01*
X100187500Y-54965000D01*
X100427500Y-54965000D01*
X99797500Y-54665000D02*
X99797500Y-55295000D01*
X99647500Y-55295000D01*
X99557500Y-55265000D01*
X99497500Y-55205000D01*
X99467500Y-55145000D01*
X99437500Y-55025000D01*
X99437500Y-54935000D01*
X99467500Y-54815000D01*
X99497500Y-54755000D01*
X99557500Y-54695000D01*
X99647500Y-54665000D01*
X99797500Y-54665000D01*
X98837500Y-54665000D02*
X99197500Y-54665000D01*
X99017500Y-54665000D02*
X99017500Y-55295000D01*
X99077500Y-55205000D01*
X99137500Y-55145000D01*
X99197500Y-55115000D01*
X97607500Y-54665000D02*
X97607500Y-55295000D01*
X97367500Y-55295000D01*
X97307500Y-55265000D01*
X97277500Y-55235000D01*
X97247500Y-55175000D01*
X97247500Y-55085000D01*
X97277500Y-55025000D01*
X97307500Y-54995000D01*
X97367500Y-54965000D01*
X97607500Y-54965000D01*
X96977500Y-54665000D02*
X96977500Y-55295000D01*
X96827500Y-55295000D01*
X96737500Y-55265000D01*
X96677500Y-55205000D01*
X96647500Y-55145000D01*
X96617500Y-55025000D01*
X96617500Y-54935000D01*
X96647500Y-54815000D01*
X96677500Y-54755000D01*
X96737500Y-54695000D01*
X96827500Y-54665000D01*
X96977500Y-54665000D01*
X96377500Y-55235000D02*
X96347500Y-55265000D01*
X96287500Y-55295000D01*
X96137500Y-55295000D01*
X96077500Y-55265000D01*
X96047500Y-55235000D01*
X96017500Y-55175000D01*
X96017500Y-55115000D01*
X96047500Y-55025000D01*
X96407500Y-54665000D01*
X96017500Y-54665000D01*
X95267500Y-54665000D02*
X95267500Y-55295000D01*
X95027500Y-55295000D01*
X94967500Y-55265000D01*
X94937500Y-55235000D01*
X94907500Y-55175000D01*
X94907500Y-55085000D01*
X94937500Y-55025000D01*
X94967500Y-54995000D01*
X95027500Y-54965000D01*
X95267500Y-54965000D01*
X94637500Y-54665000D02*
X94637500Y-55295000D01*
X94487500Y-55295000D01*
X94397500Y-55265000D01*
X94337500Y-55205000D01*
X94307500Y-55145000D01*
X94277500Y-55025000D01*
X94277500Y-54935000D01*
X94307500Y-54815000D01*
X94337500Y-54755000D01*
X94397500Y-54695000D01*
X94487500Y-54665000D01*
X94637500Y-54665000D01*
X94067500Y-55295000D02*
X93677500Y-55295000D01*
X93887500Y-55055000D01*
X93797500Y-55055000D01*
X93737500Y-55025000D01*
X93707500Y-54995000D01*
X93677500Y-54935000D01*
X93677500Y-54785000D01*
X93707500Y-54725000D01*
X93737500Y-54695000D01*
X93797500Y-54665000D01*
X93977500Y-54665000D01*
X94037500Y-54695000D01*
X94067500Y-54725000D01*
X92447500Y-54665000D02*
X92447500Y-55295000D01*
X92207500Y-55295000D01*
X92147500Y-55265000D01*
X92117500Y-55235000D01*
X92087500Y-55175000D01*
X92087500Y-55085000D01*
X92117500Y-55025000D01*
X92147500Y-54995000D01*
X92207500Y-54965000D01*
X92447500Y-54965000D01*
X91817500Y-54665000D02*
X91817500Y-55295000D01*
X91667500Y-55295000D01*
X91577500Y-55265000D01*
X91517500Y-55205000D01*
X91487500Y-55145000D01*
X91457500Y-55025000D01*
X91457500Y-54935000D01*
X91487500Y-54815000D01*
X91517500Y-54755000D01*
X91577500Y-54695000D01*
X91667500Y-54665000D01*
X91817500Y-54665000D01*
X90917500Y-55085000D02*
X90917500Y-54665000D01*
X91067500Y-55325000D02*
X91217500Y-54875000D01*
X90827500Y-54875000D01*
X90107500Y-54665000D02*
X90107500Y-55295000D01*
X89867500Y-55295000D01*
X89807500Y-55265000D01*
X89777500Y-55235000D01*
X89747500Y-55175000D01*
X89747500Y-55085000D01*
X89777500Y-55025000D01*
X89807500Y-54995000D01*
X89867500Y-54965000D01*
X90107500Y-54965000D01*
X89477500Y-54665000D02*
X89477500Y-55295000D01*
X89327500Y-55295000D01*
X89237500Y-55265000D01*
X89177500Y-55205000D01*
X89147500Y-55145000D01*
X89117500Y-55025000D01*
X89117500Y-54935000D01*
X89147500Y-54815000D01*
X89177500Y-54755000D01*
X89237500Y-54695000D01*
X89327500Y-54665000D01*
X89477500Y-54665000D01*
X88547500Y-55295000D02*
X88847500Y-55295000D01*
X88877500Y-54995000D01*
X88847500Y-55025000D01*
X88787500Y-55055000D01*
X88637500Y-55055000D01*
X88577500Y-55025000D01*
X88547500Y-54995000D01*
X88517500Y-54935000D01*
X88517500Y-54785000D01*
X88547500Y-54725000D01*
X88577500Y-54695000D01*
X88637500Y-54665000D01*
X88787500Y-54665000D01*
X88847500Y-54695000D01*
X88877500Y-54725000D01*
X87287500Y-54665000D02*
X87287500Y-55295000D01*
X87047500Y-55295000D01*
X86987500Y-55265000D01*
X86957500Y-55235000D01*
X86927500Y-55175000D01*
X86927500Y-55085000D01*
X86957500Y-55025000D01*
X86987500Y-54995000D01*
X87047500Y-54965000D01*
X87287500Y-54965000D01*
X86657500Y-54665000D02*
X86657500Y-55295000D01*
X86507500Y-55295000D01*
X86417500Y-55265000D01*
X86357500Y-55205000D01*
X86327500Y-55145000D01*
X86297500Y-55025000D01*
X86297500Y-54935000D01*
X86327500Y-54815000D01*
X86357500Y-54755000D01*
X86417500Y-54695000D01*
X86507500Y-54665000D01*
X86657500Y-54665000D01*
X85757500Y-55295000D02*
X85877500Y-55295000D01*
X85937500Y-55265000D01*
X85967500Y-55235000D01*
X86027500Y-55145000D01*
X86057500Y-55025000D01*
X86057500Y-54785000D01*
X86027500Y-54725000D01*
X85997500Y-54695000D01*
X85937500Y-54665000D01*
X85817500Y-54665000D01*
X85757500Y-54695000D01*
X85727500Y-54725000D01*
X85697500Y-54785000D01*
X85697500Y-54935000D01*
X85727500Y-54995000D01*
X85757500Y-55025000D01*
X85817500Y-55055000D01*
X85937500Y-55055000D01*
X85997500Y-55025000D01*
X86027500Y-54995000D01*
X86057500Y-54935000D01*
X84947500Y-54665000D02*
X84947500Y-55295000D01*
X84707500Y-55295000D01*
X84647500Y-55265000D01*
X84617500Y-55235000D01*
X84587500Y-55175000D01*
X84587500Y-55085000D01*
X84617500Y-55025000D01*
X84647500Y-54995000D01*
X84707500Y-54965000D01*
X84947500Y-54965000D01*
X84317500Y-54665000D02*
X84317500Y-55295000D01*
X84167500Y-55295000D01*
X84077500Y-55265000D01*
X84017500Y-55205000D01*
X83987500Y-55145000D01*
X83957500Y-55025000D01*
X83957500Y-54935000D01*
X83987500Y-54815000D01*
X84017500Y-54755000D01*
X84077500Y-54695000D01*
X84167500Y-54665000D01*
X84317500Y-54665000D01*
X83747500Y-55295000D02*
X83327500Y-55295000D01*
X83597500Y-54665000D01*
X88582500Y-115385000D02*
X88582500Y-114755000D01*
X88822500Y-114755000D01*
X88882500Y-114785000D01*
X88912500Y-114815000D01*
X88942500Y-114875000D01*
X88942500Y-114965000D01*
X88912500Y-115025000D01*
X88882500Y-115055000D01*
X88822500Y-115085000D01*
X88582500Y-115085000D01*
X89572500Y-115325000D02*
X89542500Y-115355000D01*
X89452500Y-115385000D01*
X89392500Y-115385000D01*
X89302500Y-115355000D01*
X89242500Y-115295000D01*
X89212500Y-115235000D01*
X89182500Y-115115000D01*
X89182500Y-115025000D01*
X89212500Y-114905000D01*
X89242500Y-114845000D01*
X89302500Y-114785000D01*
X89392500Y-114755000D01*
X89452500Y-114755000D01*
X89542500Y-114785000D01*
X89572500Y-114815000D01*
X89962500Y-114755000D02*
X90022500Y-114755000D01*
X90082500Y-114785000D01*
X90112500Y-114815000D01*
X90142500Y-114875000D01*
X90172500Y-114995000D01*
X90172500Y-115145000D01*
X90142500Y-115265000D01*
X90112500Y-115325000D01*
X90082500Y-115355000D01*
X90022500Y-115385000D01*
X89962500Y-115385000D01*
X89902500Y-115355000D01*
X89872500Y-115325000D01*
X89842500Y-115265000D01*
X89812500Y-115145000D01*
X89812500Y-114995000D01*
X89842500Y-114875000D01*
X89872500Y-114815000D01*
X89902500Y-114785000D01*
X89962500Y-114755000D01*
X90922500Y-115385000D02*
X90922500Y-114755000D01*
X91162500Y-114755000D01*
X91222500Y-114785000D01*
X91252500Y-114815000D01*
X91282500Y-114875000D01*
X91282500Y-114965000D01*
X91252500Y-115025000D01*
X91222500Y-115055000D01*
X91162500Y-115085000D01*
X90922500Y-115085000D01*
X91912500Y-115325000D02*
X91882500Y-115355000D01*
X91792500Y-115385000D01*
X91732500Y-115385000D01*
X91642500Y-115355000D01*
X91582500Y-115295000D01*
X91552500Y-115235000D01*
X91522500Y-115115000D01*
X91522500Y-115025000D01*
X91552500Y-114905000D01*
X91582500Y-114845000D01*
X91642500Y-114785000D01*
X91732500Y-114755000D01*
X91792500Y-114755000D01*
X91882500Y-114785000D01*
X91912500Y-114815000D01*
X92512500Y-115385000D02*
X92152500Y-115385000D01*
X92332500Y-115385000D02*
X92332500Y-114755000D01*
X92272500Y-114845000D01*
X92212500Y-114905000D01*
X92152500Y-114935000D01*
X93742500Y-115385000D02*
X93742500Y-114755000D01*
X93982500Y-114755000D01*
X94042500Y-114785000D01*
X94072500Y-114815000D01*
X94102500Y-114875000D01*
X94102500Y-114965000D01*
X94072500Y-115025000D01*
X94042500Y-115055000D01*
X93982500Y-115085000D01*
X93742500Y-115085000D01*
X94732500Y-115325000D02*
X94702500Y-115355000D01*
X94612500Y-115385000D01*
X94552500Y-115385000D01*
X94462500Y-115355000D01*
X94402500Y-115295000D01*
X94372500Y-115235000D01*
X94342500Y-115115000D01*
X94342500Y-115025000D01*
X94372500Y-114905000D01*
X94402500Y-114845000D01*
X94462500Y-114785000D01*
X94552500Y-114755000D01*
X94612500Y-114755000D01*
X94702500Y-114785000D01*
X94732500Y-114815000D01*
X94972500Y-114815000D02*
X95002500Y-114785000D01*
X95062500Y-114755000D01*
X95212500Y-114755000D01*
X95272500Y-114785000D01*
X95302500Y-114815000D01*
X95332500Y-114875000D01*
X95332500Y-114935000D01*
X95302500Y-115025000D01*
X94942500Y-115385000D01*
X95332500Y-115385000D01*
X96082500Y-115385000D02*
X96082500Y-114755000D01*
X96322500Y-114755000D01*
X96382500Y-114785000D01*
X96412500Y-114815000D01*
X96442500Y-114875000D01*
X96442500Y-114965000D01*
X96412500Y-115025000D01*
X96382500Y-115055000D01*
X96322500Y-115085000D01*
X96082500Y-115085000D01*
X97072500Y-115325000D02*
X97042500Y-115355000D01*
X96952500Y-115385000D01*
X96892500Y-115385000D01*
X96802500Y-115355000D01*
X96742500Y-115295000D01*
X96712500Y-115235000D01*
X96682500Y-115115000D01*
X96682500Y-115025000D01*
X96712500Y-114905000D01*
X96742500Y-114845000D01*
X96802500Y-114785000D01*
X96892500Y-114755000D01*
X96952500Y-114755000D01*
X97042500Y-114785000D01*
X97072500Y-114815000D01*
X97282500Y-114755000D02*
X97672500Y-114755000D01*
X97462500Y-114995000D01*
X97552500Y-114995000D01*
X97612500Y-115025000D01*
X97642500Y-115055000D01*
X97672500Y-115115000D01*
X97672500Y-115265000D01*
X97642500Y-115325000D01*
X97612500Y-115355000D01*
X97552500Y-115385000D01*
X97372500Y-115385000D01*
X97312500Y-115355000D01*
X97282500Y-115325000D01*
X98902500Y-115385000D02*
X98902500Y-114755000D01*
X99142500Y-114755000D01*
X99202500Y-114785000D01*
X99232500Y-114815000D01*
X99262500Y-114875000D01*
X99262500Y-114965000D01*
X99232500Y-115025000D01*
X99202500Y-115055000D01*
X99142500Y-115085000D01*
X98902500Y-115085000D01*
X99892500Y-115325000D02*
X99862500Y-115355000D01*
X99772500Y-115385000D01*
X99712500Y-115385000D01*
X99622500Y-115355000D01*
X99562500Y-115295000D01*
X99532500Y-115235000D01*
X99502500Y-115115000D01*
X99502500Y-115025000D01*
X99532500Y-114905000D01*
X99562500Y-114845000D01*
X99622500Y-114785000D01*
X99712500Y-114755000D01*
X99772500Y-114755000D01*
X99862500Y-114785000D01*
X99892500Y-114815000D01*
X100432500Y-114965000D02*
X100432500Y-115385000D01*
X100282500Y-114725000D02*
X100132500Y-115175000D01*
X100522500Y-115175000D01*
X101242500Y-115385000D02*
X101242500Y-114755000D01*
X101482500Y-114755000D01*
X101542500Y-114785000D01*
X101572500Y-114815000D01*
X101602500Y-114875000D01*
X101602500Y-114965000D01*
X101572500Y-115025000D01*
X101542500Y-115055000D01*
X101482500Y-115085000D01*
X101242500Y-115085000D01*
X102232500Y-115325000D02*
X102202500Y-115355000D01*
X102112500Y-115385000D01*
X102052500Y-115385000D01*
X101962500Y-115355000D01*
X101902500Y-115295000D01*
X101872500Y-115235000D01*
X101842500Y-115115000D01*
X101842500Y-115025000D01*
X101872500Y-114905000D01*
X101902500Y-114845000D01*
X101962500Y-114785000D01*
X102052500Y-114755000D01*
X102112500Y-114755000D01*
X102202500Y-114785000D01*
X102232500Y-114815000D01*
X102802500Y-114755000D02*
X102502500Y-114755000D01*
X102472500Y-115055000D01*
X102502500Y-115025000D01*
X102562500Y-114995000D01*
X102712500Y-114995000D01*
X102772500Y-115025000D01*
X102802500Y-115055000D01*
X102832500Y-115115000D01*
X102832500Y-115265000D01*
X102802500Y-115325000D01*
X102772500Y-115355000D01*
X102712500Y-115385000D01*
X102562500Y-115385000D01*
X102502500Y-115355000D01*
X102472500Y-115325000D01*
X104062500Y-115385000D02*
X104062500Y-114755000D01*
X104302500Y-114755000D01*
X104362500Y-114785000D01*
X104392500Y-114815000D01*
X104422500Y-114875000D01*
X104422500Y-114965000D01*
X104392500Y-115025000D01*
X104362500Y-115055000D01*
X104302500Y-115085000D01*
X104062500Y-115085000D01*
X105052500Y-115325000D02*
X105022500Y-115355000D01*
X104932500Y-115385000D01*
X104872500Y-115385000D01*
X104782500Y-115355000D01*
X104722500Y-115295000D01*
X104692500Y-115235000D01*
X104662500Y-115115000D01*
X104662500Y-115025000D01*
X104692500Y-114905000D01*
X104722500Y-114845000D01*
X104782500Y-114785000D01*
X104872500Y-114755000D01*
X104932500Y-114755000D01*
X105022500Y-114785000D01*
X105052500Y-114815000D01*
X105592500Y-114755000D02*
X105472500Y-114755000D01*
X105412500Y-114785000D01*
X105382500Y-114815000D01*
X105322500Y-114905000D01*
X105292500Y-115025000D01*
X105292500Y-115265000D01*
X105322500Y-115325000D01*
X105352500Y-115355000D01*
X105412500Y-115385000D01*
X105532500Y-115385000D01*
X105592500Y-115355000D01*
X105622500Y-115325000D01*
X105652500Y-115265000D01*
X105652500Y-115115000D01*
X105622500Y-115055000D01*
X105592500Y-115025000D01*
X105532500Y-114995000D01*
X105412500Y-114995000D01*
X105352500Y-115025000D01*
X105322500Y-115055000D01*
X105292500Y-115115000D01*
X106402500Y-115385000D02*
X106402500Y-114755000D01*
X106642500Y-114755000D01*
X106702500Y-114785000D01*
X106732500Y-114815000D01*
X106762500Y-114875000D01*
X106762500Y-114965000D01*
X106732500Y-115025000D01*
X106702500Y-115055000D01*
X106642500Y-115085000D01*
X106402500Y-115085000D01*
X107392500Y-115325000D02*
X107362500Y-115355000D01*
X107272500Y-115385000D01*
X107212500Y-115385000D01*
X107122500Y-115355000D01*
X107062500Y-115295000D01*
X107032500Y-115235000D01*
X107002500Y-115115000D01*
X107002500Y-115025000D01*
X107032500Y-114905000D01*
X107062500Y-114845000D01*
X107122500Y-114785000D01*
X107212500Y-114755000D01*
X107272500Y-114755000D01*
X107362500Y-114785000D01*
X107392500Y-114815000D01*
X107602500Y-114755000D02*
X108022500Y-114755000D01*
X107752500Y-115385000D01*
X73182500Y-114531400D02*
X73812500Y-114531400D01*
X73692500Y-115335000D02*
X73482500Y-115035000D01*
X73332500Y-115335000D02*
X73332500Y-114705000D01*
X73572500Y-114705000D01*
X73632500Y-114735000D01*
X73662500Y-114765000D01*
X73692500Y-114825000D01*
X73692500Y-114915000D01*
X73662500Y-114975000D01*
X73632500Y-115005000D01*
X73572500Y-115035000D01*
X73332500Y-115035000D01*
X73812500Y-114531400D02*
X74412500Y-114531400D01*
X73932500Y-115305000D02*
X74022500Y-115335000D01*
X74172500Y-115335000D01*
X74232500Y-115305000D01*
X74262500Y-115275000D01*
X74292500Y-115215000D01*
X74292500Y-115155000D01*
X74262500Y-115095000D01*
X74232500Y-115065000D01*
X74172500Y-115035000D01*
X74052500Y-115005000D01*
X73992500Y-114975000D01*
X73962500Y-114945000D01*
X73932500Y-114885000D01*
X73932500Y-114825000D01*
X73962500Y-114765000D01*
X73992500Y-114735000D01*
X74052500Y-114705000D01*
X74202500Y-114705000D01*
X74292500Y-114735000D01*
X74412500Y-114531400D02*
X74892500Y-114531400D01*
X74472500Y-114705000D02*
X74832500Y-114705000D01*
X74652500Y-115335000D02*
X74652500Y-114705000D01*
X75522500Y-115095000D02*
X76002500Y-115095000D01*
X75762500Y-115335000D02*
X75762500Y-114855000D01*
X76242500Y-114705000D02*
X76632500Y-114705000D01*
X76422500Y-114945000D01*
X76512500Y-114945000D01*
X76572500Y-114975000D01*
X76602500Y-115005000D01*
X76632500Y-115065000D01*
X76632500Y-115215000D01*
X76602500Y-115275000D01*
X76572500Y-115305000D01*
X76512500Y-115335000D01*
X76332500Y-115335000D01*
X76272500Y-115305000D01*
X76242500Y-115275000D01*
X76812500Y-114705000D02*
X77022500Y-115335000D01*
X77232500Y-114705000D01*
X77382500Y-114705000D02*
X77772500Y-114705000D01*
X77562500Y-114945000D01*
X77652500Y-114945000D01*
X77712500Y-114975000D01*
X77742500Y-115005000D01*
X77772500Y-115065000D01*
X77772500Y-115215000D01*
X77742500Y-115275000D01*
X77712500Y-115305000D01*
X77652500Y-115335000D01*
X77472500Y-115335000D01*
X77412500Y-115305000D01*
X77382500Y-115275000D01*
X78522500Y-115095000D02*
X79002500Y-115095000D01*
X78762500Y-115335000D02*
X78762500Y-114855000D01*
X79602500Y-114705000D02*
X79302500Y-114705000D01*
X79272500Y-115005000D01*
X79302500Y-114975000D01*
X79362500Y-114945000D01*
X79512500Y-114945000D01*
X79572500Y-114975000D01*
X79602500Y-115005000D01*
X79632500Y-115065000D01*
X79632500Y-115215000D01*
X79602500Y-115275000D01*
X79572500Y-115305000D01*
X79512500Y-115335000D01*
X79362500Y-115335000D01*
X79302500Y-115305000D01*
X79272500Y-115275000D01*
X79812500Y-114705000D02*
X80022500Y-115335000D01*
X80232500Y-114705000D01*
X81252500Y-114735000D02*
X81192500Y-114705000D01*
X81102500Y-114705000D01*
X81012500Y-114735000D01*
X80952500Y-114795000D01*
X80922500Y-114855000D01*
X80892500Y-114975000D01*
X80892500Y-115065000D01*
X80922500Y-115185000D01*
X80952500Y-115245000D01*
X81012500Y-115305000D01*
X81102500Y-115335000D01*
X81162500Y-115335000D01*
X81252500Y-115305000D01*
X81282500Y-115275000D01*
X81282500Y-115065000D01*
X81162500Y-115065000D01*
X81552500Y-115335000D02*
X81552500Y-114705000D01*
X81912500Y-115335000D01*
X81912500Y-114705000D01*
X82212500Y-115335000D02*
X82212500Y-114705000D01*
X82362500Y-114705000D01*
X82452500Y-114735000D01*
X82512500Y-114795000D01*
X82542500Y-114855000D01*
X82572500Y-114975000D01*
X82572500Y-115065000D01*
X82542500Y-115185000D01*
X82512500Y-115245000D01*
X82452500Y-115305000D01*
X82362500Y-115335000D01*
X82212500Y-115335000D01*
X83292500Y-115155000D02*
X83592500Y-115155000D01*
X83232500Y-115335000D02*
X83442500Y-114705000D01*
X83652500Y-115335000D01*
X83862500Y-115335000D02*
X83862500Y-114705000D01*
X84222500Y-115335000D01*
X84222500Y-114705000D01*
X84852500Y-114735000D02*
X84792500Y-114705000D01*
X84702500Y-114705000D01*
X84612500Y-114735000D01*
X84552500Y-114795000D01*
X84522500Y-114855000D01*
X84492500Y-114975000D01*
X84492500Y-115065000D01*
X84522500Y-115185000D01*
X84552500Y-115245000D01*
X84612500Y-115305000D01*
X84702500Y-115335000D01*
X84762500Y-115335000D01*
X84852500Y-115305000D01*
X84882500Y-115275000D01*
X84882500Y-115065000D01*
X84762500Y-115065000D01*
X85152500Y-115335000D02*
X85152500Y-114705000D01*
X85302500Y-114705000D01*
X85392500Y-114735000D01*
X85452500Y-114795000D01*
X85482500Y-114855000D01*
X85512500Y-114975000D01*
X85512500Y-115065000D01*
X85482500Y-115185000D01*
X85452500Y-115245000D01*
X85392500Y-115305000D01*
X85302500Y-115335000D01*
X85152500Y-115335000D01*
X86172500Y-114705000D02*
X86382500Y-115335000D01*
X86592500Y-114705000D01*
X86802500Y-115335000D02*
X86802500Y-114915000D01*
X86802500Y-114705000D02*
X86772500Y-114735000D01*
X86802500Y-114765000D01*
X86832500Y-114735000D01*
X86802500Y-114705000D01*
X86802500Y-114765000D01*
X87102500Y-114915000D02*
X87102500Y-115335000D01*
X87102500Y-114975000D02*
X87132500Y-114945000D01*
X87192500Y-114915000D01*
X87282500Y-114915000D01*
X87342500Y-114945000D01*
X87372500Y-115005000D01*
X87372500Y-115335000D01*
X57022976Y-72461904D02*
X57022976Y-71661904D01*
X57289642Y-72233333D01*
X57556309Y-71661904D01*
X57556309Y-72461904D01*
X57937261Y-72461904D02*
X57937261Y-71661904D01*
X58280119Y-72423809D02*
X58394404Y-72461904D01*
X58584880Y-72461904D01*
X58661071Y-72423809D01*
X58699166Y-72385714D01*
X58737261Y-72309523D01*
X58737261Y-72233333D01*
X58699166Y-72157142D01*
X58661071Y-72119047D01*
X58584880Y-72080952D01*
X58432500Y-72042857D01*
X58356309Y-72004761D01*
X58318214Y-71966666D01*
X58280119Y-71890476D01*
X58280119Y-71814285D01*
X58318214Y-71738095D01*
X58356309Y-71700000D01*
X58432500Y-71661904D01*
X58622976Y-71661904D01*
X58737261Y-71700000D01*
X59232500Y-71661904D02*
X59384880Y-71661904D01*
X59461071Y-71700000D01*
X59537261Y-71776190D01*
X59575357Y-71928571D01*
X59575357Y-72195238D01*
X59537261Y-72347619D01*
X59461071Y-72423809D01*
X59384880Y-72461904D01*
X59232500Y-72461904D01*
X59156309Y-72423809D01*
X59080119Y-72347619D01*
X59042023Y-72195238D01*
X59042023Y-71928571D01*
X59080119Y-71776190D01*
X59156309Y-71700000D01*
X59232500Y-71661904D01*
X57084880Y-69923809D02*
X57199166Y-69961904D01*
X57389642Y-69961904D01*
X57465833Y-69923809D01*
X57503928Y-69885714D01*
X57542023Y-69809523D01*
X57542023Y-69733333D01*
X57503928Y-69657142D01*
X57465833Y-69619047D01*
X57389642Y-69580952D01*
X57237261Y-69542857D01*
X57161071Y-69504761D01*
X57122976Y-69466666D01*
X57084880Y-69390476D01*
X57084880Y-69314285D01*
X57122976Y-69238095D01*
X57161071Y-69200000D01*
X57237261Y-69161904D01*
X57427738Y-69161904D01*
X57542023Y-69200000D01*
X58342023Y-69885714D02*
X58303928Y-69923809D01*
X58189642Y-69961904D01*
X58113452Y-69961904D01*
X57999166Y-69923809D01*
X57922976Y-69847619D01*
X57884880Y-69771428D01*
X57846785Y-69619047D01*
X57846785Y-69504761D01*
X57884880Y-69352380D01*
X57922976Y-69276190D01*
X57999166Y-69200000D01*
X58113452Y-69161904D01*
X58189642Y-69161904D01*
X58303928Y-69200000D01*
X58342023Y-69238095D01*
X58684880Y-69961904D02*
X58684880Y-69161904D01*
X59142023Y-69961904D02*
X58799166Y-69504761D01*
X59142023Y-69161904D02*
X58684880Y-69619047D01*
X57032500Y-66459000D02*
X57832500Y-66459000D01*
X57680119Y-67461904D02*
X57413452Y-67080952D01*
X57222976Y-67461904D02*
X57222976Y-66661904D01*
X57527738Y-66661904D01*
X57603928Y-66700000D01*
X57642023Y-66738095D01*
X57680119Y-66814285D01*
X57680119Y-66928571D01*
X57642023Y-67004761D01*
X57603928Y-67042857D01*
X57527738Y-67080952D01*
X57222976Y-67080952D01*
X57832500Y-66459000D02*
X58594404Y-66459000D01*
X57984880Y-67423809D02*
X58099166Y-67461904D01*
X58289642Y-67461904D01*
X58365833Y-67423809D01*
X58403928Y-67385714D01*
X58442023Y-67309523D01*
X58442023Y-67233333D01*
X58403928Y-67157142D01*
X58365833Y-67119047D01*
X58289642Y-67080952D01*
X58137261Y-67042857D01*
X58061071Y-67004761D01*
X58022976Y-66966666D01*
X57984880Y-66890476D01*
X57984880Y-66814285D01*
X58022976Y-66738095D01*
X58061071Y-66700000D01*
X58137261Y-66661904D01*
X58327738Y-66661904D01*
X58442023Y-66700000D01*
X58594404Y-66459000D02*
X59203928Y-66459000D01*
X58670595Y-66661904D02*
X59127738Y-66661904D01*
X58899166Y-67461904D02*
X58899166Y-66661904D01*
X60408690Y-74061904D02*
X60865833Y-74061904D01*
X60637261Y-74861904D02*
X60637261Y-74061904D01*
X61056309Y-74061904D02*
X61589642Y-74861904D01*
X61589642Y-74061904D02*
X61056309Y-74861904D01*
X62465833Y-74823809D02*
X62580119Y-74861904D01*
X62770595Y-74861904D01*
X62846785Y-74823809D01*
X62884880Y-74785714D01*
X62922976Y-74709523D01*
X62922976Y-74633333D01*
X62884880Y-74557142D01*
X62846785Y-74519047D01*
X62770595Y-74480952D01*
X62618214Y-74442857D01*
X62542023Y-74404761D01*
X62503928Y-74366666D01*
X62465833Y-74290476D01*
X62465833Y-74214285D01*
X62503928Y-74138095D01*
X62542023Y-74100000D01*
X62618214Y-74061904D01*
X62808690Y-74061904D01*
X62922976Y-74100000D01*
X63722976Y-74785714D02*
X63684880Y-74823809D01*
X63570595Y-74861904D01*
X63494404Y-74861904D01*
X63380119Y-74823809D01*
X63303928Y-74747619D01*
X63265833Y-74671428D01*
X63227738Y-74519047D01*
X63227738Y-74404761D01*
X63265833Y-74252380D01*
X63303928Y-74176190D01*
X63380119Y-74100000D01*
X63494404Y-74061904D01*
X63570595Y-74061904D01*
X63684880Y-74100000D01*
X63722976Y-74138095D01*
X64446785Y-74861904D02*
X64065833Y-74861904D01*
X64065833Y-74061904D01*
X65742023Y-74100000D02*
X65665833Y-74061904D01*
X65551547Y-74061904D01*
X65437261Y-74100000D01*
X65361071Y-74176190D01*
X65322976Y-74252380D01*
X65284880Y-74404761D01*
X65284880Y-74519047D01*
X65322976Y-74671428D01*
X65361071Y-74747619D01*
X65437261Y-74823809D01*
X65551547Y-74861904D01*
X65627738Y-74861904D01*
X65742023Y-74823809D01*
X65780119Y-74785714D01*
X65780119Y-74519047D01*
X65627738Y-74519047D01*
X66122976Y-74861904D02*
X66122976Y-74061904D01*
X66580119Y-74861904D01*
X66580119Y-74061904D01*
X66961071Y-74861904D02*
X66961071Y-74061904D01*
X67151547Y-74061904D01*
X67265833Y-74100000D01*
X67342023Y-74176190D01*
X67380119Y-74252380D01*
X67418214Y-74404761D01*
X67418214Y-74519047D01*
X67380119Y-74671428D01*
X67342023Y-74747619D01*
X67265833Y-74823809D01*
X67151547Y-74861904D01*
X66961071Y-74861904D01*
X68180119Y-73859000D02*
X68942023Y-73859000D01*
X68332500Y-74823809D02*
X68446785Y-74861904D01*
X68637261Y-74861904D01*
X68713452Y-74823809D01*
X68751547Y-74785714D01*
X68789642Y-74709523D01*
X68789642Y-74633333D01*
X68751547Y-74557142D01*
X68713452Y-74519047D01*
X68637261Y-74480952D01*
X68484880Y-74442857D01*
X68408690Y-74404761D01*
X68370595Y-74366666D01*
X68332500Y-74290476D01*
X68332500Y-74214285D01*
X68370595Y-74138095D01*
X68408690Y-74100000D01*
X68484880Y-74061904D01*
X68675357Y-74061904D01*
X68789642Y-74100000D01*
X68942023Y-73859000D02*
X69703928Y-73859000D01*
X69094404Y-74823809D02*
X69208690Y-74861904D01*
X69399166Y-74861904D01*
X69475357Y-74823809D01*
X69513452Y-74785714D01*
X69551547Y-74709523D01*
X69551547Y-74633333D01*
X69513452Y-74557142D01*
X69475357Y-74519047D01*
X69399166Y-74480952D01*
X69246785Y-74442857D01*
X69170595Y-74404761D01*
X69132500Y-74366666D01*
X69094404Y-74290476D01*
X69094404Y-74214285D01*
X69132500Y-74138095D01*
X69170595Y-74100000D01*
X69246785Y-74061904D01*
X69437261Y-74061904D01*
X69551547Y-74100000D01*
X70503928Y-74861904D02*
X70503928Y-74061904D01*
X70770595Y-74633333D01*
X71037261Y-74061904D01*
X71037261Y-74861904D01*
X71570595Y-74061904D02*
X71722976Y-74061904D01*
X71799166Y-74100000D01*
X71875357Y-74176190D01*
X71913452Y-74328571D01*
X71913452Y-74595238D01*
X71875357Y-74747619D01*
X71799166Y-74823809D01*
X71722976Y-74861904D01*
X71570595Y-74861904D01*
X71494404Y-74823809D01*
X71418214Y-74747619D01*
X71380119Y-74595238D01*
X71380119Y-74328571D01*
X71418214Y-74176190D01*
X71494404Y-74100000D01*
X71570595Y-74061904D01*
X72218214Y-74823809D02*
X72332500Y-74861904D01*
X72522976Y-74861904D01*
X72599166Y-74823809D01*
X72637261Y-74785714D01*
X72675357Y-74709523D01*
X72675357Y-74633333D01*
X72637261Y-74557142D01*
X72599166Y-74519047D01*
X72522976Y-74480952D01*
X72370595Y-74442857D01*
X72294404Y-74404761D01*
X72256309Y-74366666D01*
X72218214Y-74290476D01*
X72218214Y-74214285D01*
X72256309Y-74138095D01*
X72294404Y-74100000D01*
X72370595Y-74061904D01*
X72561071Y-74061904D01*
X72675357Y-74100000D01*
X73018214Y-74861904D02*
X73018214Y-74061904D01*
X60580119Y-67461904D02*
X60313452Y-67080952D01*
X60122976Y-67461904D02*
X60122976Y-66661904D01*
X60427738Y-66661904D01*
X60503928Y-66700000D01*
X60542023Y-66738095D01*
X60580119Y-66814285D01*
X60580119Y-66928571D01*
X60542023Y-67004761D01*
X60503928Y-67042857D01*
X60427738Y-67080952D01*
X60122976Y-67080952D01*
X60846785Y-66661904D02*
X61380119Y-67461904D01*
X61380119Y-66661904D02*
X60846785Y-67461904D01*
X62256309Y-67423809D02*
X62370595Y-67461904D01*
X62561071Y-67461904D01*
X62637261Y-67423809D01*
X62675357Y-67385714D01*
X62713452Y-67309523D01*
X62713452Y-67233333D01*
X62675357Y-67157142D01*
X62637261Y-67119047D01*
X62561071Y-67080952D01*
X62408690Y-67042857D01*
X62332500Y-67004761D01*
X62294404Y-66966666D01*
X62256309Y-66890476D01*
X62256309Y-66814285D01*
X62294404Y-66738095D01*
X62332500Y-66700000D01*
X62408690Y-66661904D01*
X62599166Y-66661904D01*
X62713452Y-66700000D01*
X63056309Y-67461904D02*
X63056309Y-66661904D01*
X63246785Y-66661904D01*
X63361071Y-66700000D01*
X63437261Y-66776190D01*
X63475357Y-66852380D01*
X63513452Y-67004761D01*
X63513452Y-67119047D01*
X63475357Y-67271428D01*
X63437261Y-67347619D01*
X63361071Y-67423809D01*
X63246785Y-67461904D01*
X63056309Y-67461904D01*
X63818214Y-67233333D02*
X64199166Y-67233333D01*
X63742023Y-67461904D02*
X64008690Y-66661904D01*
X64275357Y-67461904D01*
X65570595Y-66700000D02*
X65494404Y-66661904D01*
X65380119Y-66661904D01*
X65265833Y-66700000D01*
X65189642Y-66776190D01*
X65151547Y-66852380D01*
X65113452Y-67004761D01*
X65113452Y-67119047D01*
X65151547Y-67271428D01*
X65189642Y-67347619D01*
X65265833Y-67423809D01*
X65380119Y-67461904D01*
X65456309Y-67461904D01*
X65570595Y-67423809D01*
X65608690Y-67385714D01*
X65608690Y-67119047D01*
X65456309Y-67119047D01*
X65951547Y-67461904D02*
X65951547Y-66661904D01*
X66408690Y-67461904D01*
X66408690Y-66661904D01*
X66789642Y-67461904D02*
X66789642Y-66661904D01*
X66980119Y-66661904D01*
X67094404Y-66700000D01*
X67170595Y-66776190D01*
X67208690Y-66852380D01*
X67246785Y-67004761D01*
X67246785Y-67119047D01*
X67208690Y-67271428D01*
X67170595Y-67347619D01*
X67094404Y-67423809D01*
X66980119Y-67461904D01*
X66789642Y-67461904D01*
X68161071Y-67423809D02*
X68275357Y-67461904D01*
X68465833Y-67461904D01*
X68542023Y-67423809D01*
X68580119Y-67385714D01*
X68618214Y-67309523D01*
X68618214Y-67233333D01*
X68580119Y-67157142D01*
X68542023Y-67119047D01*
X68465833Y-67080952D01*
X68313452Y-67042857D01*
X68237261Y-67004761D01*
X68199166Y-66966666D01*
X68161071Y-66890476D01*
X68161071Y-66814285D01*
X68199166Y-66738095D01*
X68237261Y-66700000D01*
X68313452Y-66661904D01*
X68503928Y-66661904D01*
X68618214Y-66700000D01*
X69418214Y-67385714D02*
X69380119Y-67423809D01*
X69265833Y-67461904D01*
X69189642Y-67461904D01*
X69075357Y-67423809D01*
X68999166Y-67347619D01*
X68961071Y-67271428D01*
X68922976Y-67119047D01*
X68922976Y-67004761D01*
X68961071Y-66852380D01*
X68999166Y-66776190D01*
X69075357Y-66700000D01*
X69189642Y-66661904D01*
X69265833Y-66661904D01*
X69380119Y-66700000D01*
X69418214Y-66738095D01*
X69761071Y-67461904D02*
X69761071Y-66661904D01*
X70218214Y-67461904D02*
X69875357Y-67004761D01*
X70218214Y-66661904D02*
X69761071Y-67119047D01*
X71170595Y-67461904D02*
X71170595Y-66661904D01*
X71437261Y-67233333D01*
X71703928Y-66661904D01*
X71703928Y-67461904D01*
X72084880Y-67461904D02*
X72084880Y-66661904D01*
X72427738Y-67423809D02*
X72542023Y-67461904D01*
X72732500Y-67461904D01*
X72808690Y-67423809D01*
X72846785Y-67385714D01*
X72884880Y-67309523D01*
X72884880Y-67233333D01*
X72846785Y-67157142D01*
X72808690Y-67119047D01*
X72732500Y-67080952D01*
X72580119Y-67042857D01*
X72503928Y-67004761D01*
X72465833Y-66966666D01*
X72427738Y-66890476D01*
X72427738Y-66814285D01*
X72465833Y-66738095D01*
X72503928Y-66700000D01*
X72580119Y-66661904D01*
X72770595Y-66661904D01*
X72884880Y-66700000D01*
X73380119Y-66661904D02*
X73532500Y-66661904D01*
X73608690Y-66700000D01*
X73684880Y-66776190D01*
X73722976Y-66928571D01*
X73722976Y-67195238D01*
X73684880Y-67347619D01*
X73608690Y-67423809D01*
X73532500Y-67461904D01*
X73380119Y-67461904D01*
X73303928Y-67423809D01*
X73227738Y-67347619D01*
X73189642Y-67195238D01*
X73189642Y-66928571D01*
X73227738Y-66776190D01*
X73303928Y-66700000D01*
X73380119Y-66661904D01*
D11*
X52228904Y-113063380D02*
X51895571Y-112587190D01*
X51657476Y-113063380D02*
X51657476Y-112063380D01*
X52038428Y-112063380D01*
X52133666Y-112111000D01*
X52181285Y-112158619D01*
X52228904Y-112253857D01*
X52228904Y-112396714D01*
X52181285Y-112491952D01*
X52133666Y-112539571D01*
X52038428Y-112587190D01*
X51657476Y-112587190D01*
X53038428Y-113015761D02*
X52943190Y-113063380D01*
X52752714Y-113063380D01*
X52657476Y-113015761D01*
X52609857Y-112920523D01*
X52609857Y-112539571D01*
X52657476Y-112444333D01*
X52752714Y-112396714D01*
X52943190Y-112396714D01*
X53038428Y-112444333D01*
X53086047Y-112539571D01*
X53086047Y-112634809D01*
X52609857Y-112730047D01*
X53467000Y-113015761D02*
X53562238Y-113063380D01*
X53752714Y-113063380D01*
X53847952Y-113015761D01*
X53895571Y-112920523D01*
X53895571Y-112872904D01*
X53847952Y-112777666D01*
X53752714Y-112730047D01*
X53609857Y-112730047D01*
X53514619Y-112682428D01*
X53467000Y-112587190D01*
X53467000Y-112539571D01*
X53514619Y-112444333D01*
X53609857Y-112396714D01*
X53752714Y-112396714D01*
X53847952Y-112444333D01*
X54705095Y-113015761D02*
X54609857Y-113063380D01*
X54419380Y-113063380D01*
X54324142Y-113015761D01*
X54276523Y-112920523D01*
X54276523Y-112539571D01*
X54324142Y-112444333D01*
X54419380Y-112396714D01*
X54609857Y-112396714D01*
X54705095Y-112444333D01*
X54752714Y-112539571D01*
X54752714Y-112634809D01*
X54276523Y-112730047D01*
X55038428Y-112396714D02*
X55419380Y-112396714D01*
X55181285Y-112063380D02*
X55181285Y-112920523D01*
X55228904Y-113015761D01*
X55324142Y-113063380D01*
X55419380Y-113063380D01*
X51609857Y-114139571D02*
X51752714Y-114187190D01*
X51800333Y-114234809D01*
X51847952Y-114330047D01*
X51847952Y-114472904D01*
X51800333Y-114568142D01*
X51752714Y-114615761D01*
X51657476Y-114663380D01*
X51276523Y-114663380D01*
X51276523Y-113663380D01*
X51609857Y-113663380D01*
X51705095Y-113711000D01*
X51752714Y-113758619D01*
X51800333Y-113853857D01*
X51800333Y-113949095D01*
X51752714Y-114044333D01*
X51705095Y-114091952D01*
X51609857Y-114139571D01*
X51276523Y-114139571D01*
X52705095Y-113996714D02*
X52705095Y-114663380D01*
X52276523Y-113996714D02*
X52276523Y-114520523D01*
X52324142Y-114615761D01*
X52419380Y-114663380D01*
X52562238Y-114663380D01*
X52657476Y-114615761D01*
X52705095Y-114568142D01*
X53038428Y-113996714D02*
X53419380Y-113996714D01*
X53181285Y-113663380D02*
X53181285Y-114520523D01*
X53228904Y-114615761D01*
X53324142Y-114663380D01*
X53419380Y-114663380D01*
X53609857Y-113996714D02*
X53990809Y-113996714D01*
X53752714Y-113663380D02*
X53752714Y-114520523D01*
X53800333Y-114615761D01*
X53895571Y-114663380D01*
X53990809Y-114663380D01*
X54467000Y-114663380D02*
X54371761Y-114615761D01*
X54324142Y-114568142D01*
X54276523Y-114472904D01*
X54276523Y-114187190D01*
X54324142Y-114091952D01*
X54371761Y-114044333D01*
X54467000Y-113996714D01*
X54609857Y-113996714D01*
X54705095Y-114044333D01*
X54752714Y-114091952D01*
X54800333Y-114187190D01*
X54800333Y-114472904D01*
X54752714Y-114568142D01*
X54705095Y-114615761D01*
X54609857Y-114663380D01*
X54467000Y-114663380D01*
X55228904Y-113996714D02*
X55228904Y-114663380D01*
X55228904Y-114091952D02*
X55276523Y-114044333D01*
X55371761Y-113996714D01*
X55514619Y-113996714D01*
X55609857Y-114044333D01*
X55657476Y-114139571D01*
X55657476Y-114663380D01*
D10*
%TO.C,J28*%
X56000000Y-82100000D02*
X56000000Y-83100000D01*
X56000000Y-78500000D02*
X56000000Y-77500000D01*
X56425000Y-78500000D02*
X56000000Y-78500000D01*
X56425000Y-79225000D02*
X56425000Y-78500000D01*
X52850000Y-84450000D02*
X54250000Y-84450000D01*
X50300000Y-84450000D02*
X50450000Y-84450000D01*
X50300000Y-84150000D02*
X50300000Y-84450000D01*
X49850000Y-84150000D02*
X50300000Y-84150000D01*
X50300000Y-76450000D02*
X49850000Y-76450000D01*
X50300000Y-76150000D02*
X50300000Y-76450000D01*
X50450000Y-76150000D02*
X50300000Y-76150000D01*
X54250000Y-76150000D02*
X52850000Y-76150000D01*
D14*
%TO.C,C14*%
X57440000Y-78492164D02*
X57440000Y-78707836D01*
X58160000Y-78492164D02*
X58160000Y-78707836D01*
D10*
%TO.C,U6*%
X58925000Y-85675000D02*
X59150000Y-85675000D01*
X58925000Y-82325000D02*
X59225000Y-82325000D01*
X62275000Y-82325000D02*
X61975000Y-82325000D01*
X62275000Y-85675000D02*
X61975000Y-85675000D01*
X58925000Y-85675000D02*
X58925000Y-82325000D01*
X62275000Y-85675000D02*
X62275000Y-82325000D01*
X59150000Y-85675000D02*
X59150000Y-86900000D01*
D14*
%TO.C,R13*%
X59620000Y-79753641D02*
X59620000Y-79446359D01*
X60380000Y-79753641D02*
X60380000Y-79446359D01*
%TO.C,R10*%
X60720000Y-79753641D02*
X60720000Y-79446359D01*
X61480000Y-79753641D02*
X61480000Y-79446359D01*
%TO.C,C16*%
X59260000Y-79492164D02*
X59260000Y-79707836D01*
X58540000Y-79492164D02*
X58540000Y-79707836D01*
%TO.C,C15*%
X63460000Y-81892164D02*
X63460000Y-82107836D01*
X62740000Y-81892164D02*
X62740000Y-82107836D01*
%TO.C,Q1*%
X67840000Y-84720000D02*
X67840000Y-85650000D01*
X67840000Y-87880000D02*
X67840000Y-86950000D01*
X67840000Y-87880000D02*
X70000000Y-87880000D01*
X67840000Y-84720000D02*
X69300000Y-84720000D01*
%TO.C,U3*%
X67600000Y-88370000D02*
X64150000Y-88370000D01*
X67600000Y-88370000D02*
X69550000Y-88370000D01*
X67600000Y-93490000D02*
X65650000Y-93490000D01*
X67600000Y-93490000D02*
X69550000Y-93490000D01*
%TO.C,U1*%
X67965000Y-105310000D02*
X69225000Y-105310000D01*
X74785000Y-105310000D02*
X73525000Y-105310000D01*
X67965000Y-101550000D02*
X67965000Y-105310000D01*
X74785000Y-99300000D02*
X74785000Y-105310000D01*
%TO.C,D2*%
X77972000Y-96858000D02*
X79072000Y-96858000D01*
X77972000Y-96858000D02*
X77972000Y-94358000D01*
X79072000Y-96858000D02*
X79072000Y-94358000D01*
%TO.C,J20*%
X87920000Y-113150000D02*
X87920000Y-111820000D01*
X87920000Y-111820000D02*
X89250000Y-111820000D01*
X90520000Y-111820000D02*
X108360000Y-111820000D01*
X108360000Y-114480000D02*
X108360000Y-111820000D01*
X90520000Y-114480000D02*
X108360000Y-114480000D01*
X90520000Y-114480000D02*
X90520000Y-111820000D01*
%TO.C,J10*%
X110272000Y-109596000D02*
X108942000Y-109596000D01*
X108942000Y-109596000D02*
X108942000Y-108266000D01*
X111542000Y-109596000D02*
X111542000Y-106996000D01*
X111542000Y-106996000D02*
X108942000Y-106996000D01*
X108942000Y-106996000D02*
X108942000Y-101856000D01*
X114142000Y-101856000D02*
X108942000Y-101856000D01*
X114142000Y-109596000D02*
X114142000Y-101856000D01*
X114142000Y-109596000D02*
X111542000Y-109596000D01*
%TO.C,J22*%
X82871000Y-57277000D02*
X82871000Y-55947000D01*
X82871000Y-55947000D02*
X84201000Y-55947000D01*
X85471000Y-55947000D02*
X103311000Y-55947000D01*
X103311000Y-58607000D02*
X103311000Y-55947000D01*
X85471000Y-58607000D02*
X103311000Y-58607000D01*
X85471000Y-58607000D02*
X85471000Y-55947000D01*
%TO.C,J21*%
X62551000Y-57277000D02*
X62551000Y-55947000D01*
X62551000Y-55947000D02*
X63881000Y-55947000D01*
X65151000Y-55947000D02*
X82991000Y-55947000D01*
X82991000Y-58607000D02*
X82991000Y-55947000D01*
X65151000Y-58607000D02*
X82991000Y-58607000D01*
X65151000Y-58607000D02*
X65151000Y-55947000D01*
%TO.C,J19*%
X88071000Y-113157000D02*
X88071000Y-114487000D01*
X88071000Y-114487000D02*
X86741000Y-114487000D01*
X85471000Y-114487000D02*
X72711000Y-114487000D01*
X72711000Y-111827000D02*
X72711000Y-114487000D01*
X85471000Y-111827000D02*
X72711000Y-111827000D01*
X85471000Y-111827000D02*
X85471000Y-114487000D01*
%TO.C,Y1*%
X81772000Y-80618000D02*
X85772000Y-80618000D01*
X81772000Y-77318000D02*
X81772000Y-80618000D01*
%TO.C,SW2*%
X115303000Y-62560000D02*
X115753000Y-63010000D01*
X118703000Y-62560000D02*
X118253000Y-63010000D01*
X118703000Y-57960000D02*
X118253000Y-57510000D01*
X115303000Y-57960000D02*
X115753000Y-57510000D01*
X119753000Y-59260000D02*
X119753000Y-61260000D01*
X115753000Y-63010000D02*
X118253000Y-63010000D01*
X114253000Y-59260000D02*
X114253000Y-61260000D01*
X115753000Y-57510000D02*
X118253000Y-57510000D01*
%TO.C,SW1*%
X61934000Y-109268000D02*
X61484000Y-108818000D01*
X58534000Y-109268000D02*
X58984000Y-108818000D01*
X58534000Y-113868000D02*
X58984000Y-114318000D01*
X61934000Y-113868000D02*
X61484000Y-114318000D01*
X57484000Y-112568000D02*
X57484000Y-110568000D01*
X61484000Y-108818000D02*
X58984000Y-108818000D01*
X62984000Y-112568000D02*
X62984000Y-110568000D01*
X61484000Y-114318000D02*
X58984000Y-114318000D01*
%TO.C,R12*%
X81061276Y-95932500D02*
X81570724Y-95932500D01*
X81061276Y-96977500D02*
X81570724Y-96977500D01*
%TO.C,R11*%
X83982276Y-100123500D02*
X84491724Y-100123500D01*
X83982276Y-101168500D02*
X84491724Y-101168500D01*
%TO.C,J1*%
X58844000Y-104484000D02*
X50344000Y-104484000D01*
X50344000Y-104484000D02*
X50344000Y-95284000D01*
X50344000Y-95284000D02*
X65044000Y-95284000D01*
X65044000Y-102384000D02*
X65044000Y-104484000D01*
X65044000Y-104484000D02*
X63244000Y-104484000D01*
X65344000Y-96684000D02*
X65344000Y-94984000D01*
X65344000Y-94984000D02*
X63744000Y-94984000D01*
X65044000Y-95284000D02*
X65044000Y-97384000D01*
%TO.C,F1*%
X77993000Y-101248064D02*
X77993000Y-100043936D01*
X79813000Y-101248064D02*
X79813000Y-100043936D01*
%TO.C,J27*%
X122555000Y-112141000D02*
X122555000Y-65933000D01*
X114935000Y-112141000D02*
X114935000Y-65933000D01*
X121285000Y-112141000D02*
X121285000Y-65933000D01*
X122555000Y-65913000D02*
X114935000Y-65913000D01*
X114935000Y-112141000D02*
X122555000Y-112141000D01*
%TO.C,J23*%
X88368000Y-70226000D02*
X88368000Y-68896000D01*
X89698000Y-70226000D02*
X88368000Y-70226000D01*
X90968000Y-70226000D02*
X90968000Y-67566000D01*
X90968000Y-67566000D02*
X91028000Y-67566000D01*
X90968000Y-70226000D02*
X91028000Y-70226000D01*
X91028000Y-70226000D02*
X91028000Y-67566000D01*
%TO.C,U2*%
X75350000Y-98750000D02*
X68250000Y-98750000D01*
X75350000Y-95750000D02*
X75350000Y-98750000D01*
X67250000Y-95750000D02*
X75350000Y-95750000D01*
X67250000Y-97750000D02*
X67250000Y-95750000D01*
X68250000Y-98750000D02*
X67250000Y-97750000D01*
%TO.C,U5*%
X83440000Y-103570000D02*
X84900000Y-103570000D01*
X83440000Y-106730000D02*
X85600000Y-106730000D01*
X83440000Y-106730000D02*
X83440000Y-105800000D01*
X83440000Y-103570000D02*
X83440000Y-104500000D01*
D10*
%TO.C,U4*%
X89887000Y-86545000D02*
X89887000Y-85120000D01*
X90112000Y-93795000D02*
X90112000Y-93470000D01*
X82862000Y-93795000D02*
X82862000Y-93470000D01*
X82862000Y-86545000D02*
X82862000Y-86870000D01*
X90112000Y-86545000D02*
X90112000Y-86870000D01*
X82862000Y-86545000D02*
X83187000Y-86545000D01*
X82862000Y-93795000D02*
X83187000Y-93795000D01*
X90112000Y-93795000D02*
X89787000Y-93795000D01*
X90112000Y-86545000D02*
X89887000Y-86545000D01*
D14*
%TO.C,J26*%
X72830000Y-68170000D02*
X72830000Y-69500000D01*
X71500000Y-68170000D02*
X72830000Y-68170000D01*
X72830000Y-70770000D02*
X72830000Y-73370000D01*
X70230000Y-70770000D02*
X72830000Y-70770000D01*
X70230000Y-68170000D02*
X70230000Y-70770000D01*
X72830000Y-73370000D02*
X60010000Y-73370000D01*
X70230000Y-68170000D02*
X60010000Y-68170000D01*
X60010000Y-68170000D02*
X60010000Y-73370000D01*
%TO.C,J25*%
X111570000Y-68570000D02*
X112900000Y-68570000D01*
X111570000Y-69900000D02*
X111570000Y-68570000D01*
X111570000Y-71170000D02*
X114230000Y-71170000D01*
X114230000Y-71170000D02*
X114230000Y-76310000D01*
X111570000Y-71170000D02*
X111570000Y-76310000D01*
X111570000Y-76310000D02*
X114230000Y-76310000D01*
%TO.C,J24*%
X93568000Y-71122000D02*
X93568000Y-72452000D01*
X92238000Y-71122000D02*
X93568000Y-71122000D01*
X90968000Y-71122000D02*
X90968000Y-73782000D01*
X90968000Y-73782000D02*
X85828000Y-73782000D01*
X90968000Y-71122000D02*
X85828000Y-71122000D01*
X85828000Y-71122000D02*
X85828000Y-73782000D01*
%TO.C,ISP1*%
X56380000Y-73380000D02*
X55050000Y-73380000D01*
X56380000Y-72050000D02*
X56380000Y-73380000D01*
X53780000Y-73380000D02*
X51180000Y-73380000D01*
X53780000Y-70780000D02*
X53780000Y-73380000D01*
X56380000Y-70780000D02*
X53780000Y-70780000D01*
X51180000Y-73380000D02*
X51180000Y-65640000D01*
X56380000Y-70780000D02*
X56380000Y-65640000D01*
X56380000Y-65640000D02*
X51180000Y-65640000D01*
%TO.C,D4*%
X109360000Y-56040000D02*
X106500000Y-56040000D01*
X109360000Y-57960000D02*
X109360000Y-56040000D01*
X106500000Y-57960000D02*
X109360000Y-57960000D01*
%TO.C,D3*%
X53030000Y-93935000D02*
X53030000Y-91075000D01*
X51110000Y-93935000D02*
X53030000Y-93935000D01*
X51110000Y-91075000D02*
X51110000Y-93935000D01*
%TO.C,D1*%
X56031134Y-89546150D02*
G75*
G03*
X57900000Y-89486761I968866J-1053850D01*
G01*
%TO.C,C13*%
X110103733Y-64810000D02*
X110396267Y-64810000D01*
X110103733Y-63790000D02*
X110396267Y-63790000D01*
%TO.C,C12*%
X85425767Y-81340000D02*
X85133233Y-81340000D01*
X85425767Y-82360000D02*
X85133233Y-82360000D01*
%TO.C,C11*%
X81677733Y-82360000D02*
X81970267Y-82360000D01*
X81677733Y-81340000D02*
X81970267Y-81340000D01*
%TO.C,C10*%
X91229233Y-75756000D02*
X91521767Y-75756000D01*
X91229233Y-74736000D02*
X91521767Y-74736000D01*
%TO.C,C9*%
X95403733Y-89110000D02*
X95696267Y-89110000D01*
X95403733Y-88090000D02*
X95696267Y-88090000D01*
%TO.C,C8*%
X80552000Y-100499733D02*
X80552000Y-100792267D01*
X81572000Y-100499733D02*
X81572000Y-100792267D01*
%TO.C,C7*%
X88890000Y-105003733D02*
X88890000Y-105296267D01*
X89910000Y-105003733D02*
X89910000Y-105296267D01*
%TO.C,C6*%
X81610000Y-105396267D02*
X81610000Y-105103733D01*
X80590000Y-105396267D02*
X80590000Y-105103733D01*
%TO.C,C5*%
X76285000Y-100792267D02*
X76285000Y-100499733D01*
X75265000Y-100792267D02*
X75265000Y-100499733D01*
%TO.C,C4*%
X86542267Y-95945000D02*
X86249733Y-95945000D01*
X86542267Y-96965000D02*
X86249733Y-96965000D01*
%TO.C,C3*%
X86894267Y-83316000D02*
X86601733Y-83316000D01*
X86894267Y-84336000D02*
X86601733Y-84336000D01*
%TO.C,C2*%
X67510000Y-100792267D02*
X67510000Y-100499733D01*
X66490000Y-100792267D02*
X66490000Y-100499733D01*
%TO.C,C1*%
X84366000Y-97490267D02*
X84366000Y-97197733D01*
X83346000Y-97490267D02*
X83346000Y-97197733D01*
%TO.C,R1*%
X61905276Y-91022500D02*
X62414724Y-91022500D01*
X61905276Y-89977500D02*
X62414724Y-89977500D01*
%TO.C,R2*%
X62432224Y-88447500D02*
X61922776Y-88447500D01*
X62432224Y-89492500D02*
X61922776Y-89492500D01*
%TO.C,R3*%
X86877500Y-105404724D02*
X86877500Y-104895276D01*
X87922500Y-105404724D02*
X87922500Y-104895276D01*
%TO.C,R4*%
X79425500Y-105091724D02*
X79425500Y-104582276D01*
X78380500Y-105091724D02*
X78380500Y-104582276D01*
%TO.C,R5*%
X51547500Y-87629276D02*
X51547500Y-88138724D01*
X52592500Y-87629276D02*
X52592500Y-88138724D01*
%TO.C,R6*%
X95804724Y-90622500D02*
X95295276Y-90622500D01*
X95804724Y-89577500D02*
X95295276Y-89577500D01*
%TO.C,R7*%
X66122500Y-111945276D02*
X66122500Y-112454724D01*
X65077500Y-111945276D02*
X65077500Y-112454724D01*
%TO.C,R8*%
X107795276Y-58877500D02*
X108304724Y-58877500D01*
X107795276Y-59922500D02*
X108304724Y-59922500D01*
%TO.C,R9*%
X110454724Y-65427500D02*
X109945276Y-65427500D01*
X110454724Y-66472500D02*
X109945276Y-66472500D01*
%TO.C,SHIELD1*%
D15*
X80529428Y-52912857D02*
X80747142Y-52985428D01*
X81110000Y-52985428D01*
X81255142Y-52912857D01*
X81327714Y-52840285D01*
X81400285Y-52695142D01*
X81400285Y-52550000D01*
X81327714Y-52404857D01*
X81255142Y-52332285D01*
X81110000Y-52259714D01*
X80819714Y-52187142D01*
X80674571Y-52114571D01*
X80602000Y-52042000D01*
X80529428Y-51896857D01*
X80529428Y-51751714D01*
X80602000Y-51606571D01*
X80674571Y-51534000D01*
X80819714Y-51461428D01*
X81182571Y-51461428D01*
X81400285Y-51534000D01*
X82053428Y-52985428D02*
X82053428Y-51461428D01*
X82053428Y-52187142D02*
X82924285Y-52187142D01*
X82924285Y-52985428D02*
X82924285Y-51461428D01*
X83650000Y-52985428D02*
X83650000Y-51461428D01*
X84375714Y-52187142D02*
X84883714Y-52187142D01*
X85101428Y-52985428D02*
X84375714Y-52985428D01*
X84375714Y-51461428D01*
X85101428Y-51461428D01*
X86480285Y-52985428D02*
X85754571Y-52985428D01*
X85754571Y-51461428D01*
X86988285Y-52985428D02*
X86988285Y-51461428D01*
X87351142Y-51461428D01*
X87568857Y-51534000D01*
X87714000Y-51679142D01*
X87786571Y-51824285D01*
X87859142Y-52114571D01*
X87859142Y-52332285D01*
X87786571Y-52622571D01*
X87714000Y-52767714D01*
X87568857Y-52912857D01*
X87351142Y-52985428D01*
X86988285Y-52985428D01*
X89310571Y-52985428D02*
X88439714Y-52985428D01*
X88875142Y-52985428D02*
X88875142Y-51461428D01*
X88730000Y-51679142D01*
X88584857Y-51824285D01*
X88439714Y-51896857D01*
%TO.C,J28*%
D10*
X52058476Y-79270380D02*
X52058476Y-79984666D01*
X52010857Y-80127523D01*
X51915619Y-80222761D01*
X51772761Y-80270380D01*
X51677523Y-80270380D01*
X52487047Y-79365619D02*
X52534666Y-79318000D01*
X52629904Y-79270380D01*
X52868000Y-79270380D01*
X52963238Y-79318000D01*
X53010857Y-79365619D01*
X53058476Y-79460857D01*
X53058476Y-79556095D01*
X53010857Y-79698952D01*
X52439428Y-80270380D01*
X53058476Y-80270380D01*
X53629904Y-79698952D02*
X53534666Y-79651333D01*
X53487047Y-79603714D01*
X53439428Y-79508476D01*
X53439428Y-79460857D01*
X53487047Y-79365619D01*
X53534666Y-79318000D01*
X53629904Y-79270380D01*
X53820380Y-79270380D01*
X53915619Y-79318000D01*
X53963238Y-79365619D01*
X54010857Y-79460857D01*
X54010857Y-79508476D01*
X53963238Y-79603714D01*
X53915619Y-79651333D01*
X53820380Y-79698952D01*
X53629904Y-79698952D01*
X53534666Y-79746571D01*
X53487047Y-79794190D01*
X53439428Y-79889428D01*
X53439428Y-80079904D01*
X53487047Y-80175142D01*
X53534666Y-80222761D01*
X53629904Y-80270380D01*
X53820380Y-80270380D01*
X53915619Y-80222761D01*
X53963238Y-80175142D01*
X54010857Y-80079904D01*
X54010857Y-79889428D01*
X53963238Y-79794190D01*
X53915619Y-79746571D01*
X53820380Y-79698952D01*
%TO.C,U6*%
X57452380Y-84761904D02*
X58261904Y-84761904D01*
X58357142Y-84714285D01*
X58404761Y-84666666D01*
X58452380Y-84571428D01*
X58452380Y-84380952D01*
X58404761Y-84285714D01*
X58357142Y-84238095D01*
X58261904Y-84190476D01*
X57452380Y-84190476D01*
X57452380Y-83285714D02*
X57452380Y-83476190D01*
X57500000Y-83571428D01*
X57547619Y-83619047D01*
X57690476Y-83714285D01*
X57880952Y-83761904D01*
X58261904Y-83761904D01*
X58357142Y-83714285D01*
X58404761Y-83666666D01*
X58452380Y-83571428D01*
X58452380Y-83380952D01*
X58404761Y-83285714D01*
X58357142Y-83238095D01*
X58261904Y-83190476D01*
X58023809Y-83190476D01*
X57928571Y-83238095D01*
X57880952Y-83285714D01*
X57833333Y-83380952D01*
X57833333Y-83571428D01*
X57880952Y-83666666D01*
X57928571Y-83714285D01*
X58023809Y-83761904D01*
%TO.C,C15*%
X64332142Y-82382142D02*
X64284523Y-82429761D01*
X64141666Y-82477380D01*
X64046428Y-82477380D01*
X63903571Y-82429761D01*
X63808333Y-82334523D01*
X63760714Y-82239285D01*
X63713095Y-82048809D01*
X63713095Y-81905952D01*
X63760714Y-81715476D01*
X63808333Y-81620238D01*
X63903571Y-81525000D01*
X64046428Y-81477380D01*
X64141666Y-81477380D01*
X64284523Y-81525000D01*
X64332142Y-81572619D01*
X65284523Y-82477380D02*
X64713095Y-82477380D01*
X64998809Y-82477380D02*
X64998809Y-81477380D01*
X64903571Y-81620238D01*
X64808333Y-81715476D01*
X64713095Y-81763095D01*
X66189285Y-81477380D02*
X65713095Y-81477380D01*
X65665476Y-81953571D01*
X65713095Y-81905952D01*
X65808333Y-81858333D01*
X66046428Y-81858333D01*
X66141666Y-81905952D01*
X66189285Y-81953571D01*
X66236904Y-82048809D01*
X66236904Y-82286904D01*
X66189285Y-82382142D01*
X66141666Y-82429761D01*
X66046428Y-82477380D01*
X65808333Y-82477380D01*
X65713095Y-82429761D01*
X65665476Y-82382142D01*
%TO.C,Q1*%
X68504761Y-89347619D02*
X68409523Y-89300000D01*
X68314285Y-89204761D01*
X68171428Y-89061904D01*
X68076190Y-89014285D01*
X67980952Y-89014285D01*
X68028571Y-89252380D02*
X67933333Y-89204761D01*
X67838095Y-89109523D01*
X67790476Y-88919047D01*
X67790476Y-88585714D01*
X67838095Y-88395238D01*
X67933333Y-88300000D01*
X68028571Y-88252380D01*
X68219047Y-88252380D01*
X68314285Y-88300000D01*
X68409523Y-88395238D01*
X68457142Y-88585714D01*
X68457142Y-88919047D01*
X68409523Y-89109523D01*
X68314285Y-89204761D01*
X68219047Y-89252380D01*
X68028571Y-89252380D01*
X69409523Y-89252380D02*
X68838095Y-89252380D01*
X69123809Y-89252380D02*
X69123809Y-88252380D01*
X69028571Y-88395238D01*
X68933333Y-88490476D01*
X68838095Y-88538095D01*
%TO.C,U3*%
X66938095Y-93752380D02*
X66938095Y-94561904D01*
X66985714Y-94657142D01*
X67033333Y-94704761D01*
X67128571Y-94752380D01*
X67319047Y-94752380D01*
X67414285Y-94704761D01*
X67461904Y-94657142D01*
X67509523Y-94561904D01*
X67509523Y-93752380D01*
X67890476Y-93752380D02*
X68509523Y-93752380D01*
X68176190Y-94133333D01*
X68319047Y-94133333D01*
X68414285Y-94180952D01*
X68461904Y-94228571D01*
X68509523Y-94323809D01*
X68509523Y-94561904D01*
X68461904Y-94657142D01*
X68414285Y-94704761D01*
X68319047Y-94752380D01*
X68033333Y-94752380D01*
X67938095Y-94704761D01*
X67890476Y-94657142D01*
%TO.C,U1*%
X66088095Y-105192380D02*
X66088095Y-106001904D01*
X66135714Y-106097142D01*
X66183333Y-106144761D01*
X66278571Y-106192380D01*
X66469047Y-106192380D01*
X66564285Y-106144761D01*
X66611904Y-106097142D01*
X66659523Y-106001904D01*
X66659523Y-105192380D01*
X67659523Y-106192380D02*
X67088095Y-106192380D01*
X67373809Y-106192380D02*
X67373809Y-105192380D01*
X67278571Y-105335238D01*
X67183333Y-105430476D01*
X67088095Y-105478095D01*
%TO.C,D2*%
X76005904Y-95764380D02*
X76005904Y-94764380D01*
X76244000Y-94764380D01*
X76386857Y-94812000D01*
X76482095Y-94907238D01*
X76529714Y-95002476D01*
X76577333Y-95192952D01*
X76577333Y-95335809D01*
X76529714Y-95526285D01*
X76482095Y-95621523D01*
X76386857Y-95716761D01*
X76244000Y-95764380D01*
X76005904Y-95764380D01*
X76958285Y-94859619D02*
X77005904Y-94812000D01*
X77101142Y-94764380D01*
X77339238Y-94764380D01*
X77434476Y-94812000D01*
X77482095Y-94859619D01*
X77529714Y-94954857D01*
X77529714Y-95050095D01*
X77482095Y-95192952D01*
X76910666Y-95764380D01*
X77529714Y-95764380D01*
%TO.C,J20*%
X85932380Y-113959523D02*
X86646666Y-113959523D01*
X86789523Y-114007142D01*
X86884761Y-114102380D01*
X86932380Y-114245238D01*
X86932380Y-114340476D01*
X86027619Y-113530952D02*
X85980000Y-113483333D01*
X85932380Y-113388095D01*
X85932380Y-113150000D01*
X85980000Y-113054761D01*
X86027619Y-113007142D01*
X86122857Y-112959523D01*
X86218095Y-112959523D01*
X86360952Y-113007142D01*
X86932380Y-113578571D01*
X86932380Y-112959523D01*
X85932380Y-112340476D02*
X85932380Y-112245238D01*
X85980000Y-112150000D01*
X86027619Y-112102380D01*
X86122857Y-112054761D01*
X86313333Y-112007142D01*
X86551428Y-112007142D01*
X86741904Y-112054761D01*
X86837142Y-112102380D01*
X86884761Y-112150000D01*
X86932380Y-112245238D01*
X86932380Y-112340476D01*
X86884761Y-112435714D01*
X86837142Y-112483333D01*
X86741904Y-112530952D01*
X86551428Y-112578571D01*
X86313333Y-112578571D01*
X86122857Y-112530952D01*
X86027619Y-112483333D01*
X85980000Y-112435714D01*
X85932380Y-112340476D01*
%TO.C,J10*%
X106668476Y-107972380D02*
X106668476Y-108686666D01*
X106620857Y-108829523D01*
X106525619Y-108924761D01*
X106382761Y-108972380D01*
X106287523Y-108972380D01*
X107668476Y-108972380D02*
X107097047Y-108972380D01*
X107382761Y-108972380D02*
X107382761Y-107972380D01*
X107287523Y-108115238D01*
X107192285Y-108210476D01*
X107097047Y-108258095D01*
X108287523Y-107972380D02*
X108382761Y-107972380D01*
X108478000Y-108020000D01*
X108525619Y-108067619D01*
X108573238Y-108162857D01*
X108620857Y-108353333D01*
X108620857Y-108591428D01*
X108573238Y-108781904D01*
X108525619Y-108877142D01*
X108478000Y-108924761D01*
X108382761Y-108972380D01*
X108287523Y-108972380D01*
X108192285Y-108924761D01*
X108144666Y-108877142D01*
X108097047Y-108781904D01*
X108049428Y-108591428D01*
X108049428Y-108353333D01*
X108097047Y-108162857D01*
X108144666Y-108067619D01*
X108192285Y-108020000D01*
X108287523Y-107972380D01*
%TO.C,J22*%
X80883380Y-58086523D02*
X81597666Y-58086523D01*
X81740523Y-58134142D01*
X81835761Y-58229380D01*
X81883380Y-58372238D01*
X81883380Y-58467476D01*
X80978619Y-57657952D02*
X80931000Y-57610333D01*
X80883380Y-57515095D01*
X80883380Y-57277000D01*
X80931000Y-57181761D01*
X80978619Y-57134142D01*
X81073857Y-57086523D01*
X81169095Y-57086523D01*
X81311952Y-57134142D01*
X81883380Y-57705571D01*
X81883380Y-57086523D01*
X80978619Y-56705571D02*
X80931000Y-56657952D01*
X80883380Y-56562714D01*
X80883380Y-56324619D01*
X80931000Y-56229380D01*
X80978619Y-56181761D01*
X81073857Y-56134142D01*
X81169095Y-56134142D01*
X81311952Y-56181761D01*
X81883380Y-56753190D01*
X81883380Y-56134142D01*
%TO.C,J21*%
X60301476Y-56729380D02*
X60301476Y-57443666D01*
X60253857Y-57586523D01*
X60158619Y-57681761D01*
X60015761Y-57729380D01*
X59920523Y-57729380D01*
X60730047Y-56824619D02*
X60777666Y-56777000D01*
X60872904Y-56729380D01*
X61111000Y-56729380D01*
X61206238Y-56777000D01*
X61253857Y-56824619D01*
X61301476Y-56919857D01*
X61301476Y-57015095D01*
X61253857Y-57157952D01*
X60682428Y-57729380D01*
X61301476Y-57729380D01*
X62253857Y-57729380D02*
X61682428Y-57729380D01*
X61968142Y-57729380D02*
X61968142Y-56729380D01*
X61872904Y-56872238D01*
X61777666Y-56967476D01*
X61682428Y-57015095D01*
%TO.C,J19*%
X88963380Y-113966523D02*
X89677666Y-113966523D01*
X89820523Y-114014142D01*
X89915761Y-114109380D01*
X89963380Y-114252238D01*
X89963380Y-114347476D01*
X89963380Y-112966523D02*
X89963380Y-113537952D01*
X89963380Y-113252238D02*
X88963380Y-113252238D01*
X89106238Y-113347476D01*
X89201476Y-113442714D01*
X89249095Y-113537952D01*
X89963380Y-112490333D02*
X89963380Y-112299857D01*
X89915761Y-112204619D01*
X89868142Y-112157000D01*
X89725285Y-112061761D01*
X89534809Y-112014142D01*
X89153857Y-112014142D01*
X89058619Y-112061761D01*
X89011000Y-112109380D01*
X88963380Y-112204619D01*
X88963380Y-112395095D01*
X89011000Y-112490333D01*
X89058619Y-112537952D01*
X89153857Y-112585571D01*
X89391952Y-112585571D01*
X89487190Y-112537952D01*
X89534809Y-112490333D01*
X89582428Y-112395095D01*
X89582428Y-112204619D01*
X89534809Y-112109380D01*
X89487190Y-112061761D01*
X89391952Y-112014142D01*
%TO.C,Y1*%
X83295809Y-76494190D02*
X83295809Y-76970380D01*
X82962476Y-75970380D02*
X83295809Y-76494190D01*
X83629142Y-75970380D01*
X84486285Y-76970380D02*
X83914857Y-76970380D01*
X84200571Y-76970380D02*
X84200571Y-75970380D01*
X84105333Y-76113238D01*
X84010095Y-76208476D01*
X83914857Y-76256095D01*
%TO.C,SW2*%
X115669666Y-56914761D02*
X115812523Y-56962380D01*
X116050619Y-56962380D01*
X116145857Y-56914761D01*
X116193476Y-56867142D01*
X116241095Y-56771904D01*
X116241095Y-56676666D01*
X116193476Y-56581428D01*
X116145857Y-56533809D01*
X116050619Y-56486190D01*
X115860142Y-56438571D01*
X115764904Y-56390952D01*
X115717285Y-56343333D01*
X115669666Y-56248095D01*
X115669666Y-56152857D01*
X115717285Y-56057619D01*
X115764904Y-56010000D01*
X115860142Y-55962380D01*
X116098238Y-55962380D01*
X116241095Y-56010000D01*
X116574428Y-55962380D02*
X116812523Y-56962380D01*
X117003000Y-56248095D01*
X117193476Y-56962380D01*
X117431571Y-55962380D01*
X117764904Y-56057619D02*
X117812523Y-56010000D01*
X117907761Y-55962380D01*
X118145857Y-55962380D01*
X118241095Y-56010000D01*
X118288714Y-56057619D01*
X118336333Y-56152857D01*
X118336333Y-56248095D01*
X118288714Y-56390952D01*
X117717285Y-56962380D01*
X118336333Y-56962380D01*
%TO.C,SW1*%
X58900666Y-115722761D02*
X59043523Y-115770380D01*
X59281619Y-115770380D01*
X59376857Y-115722761D01*
X59424476Y-115675142D01*
X59472095Y-115579904D01*
X59472095Y-115484666D01*
X59424476Y-115389428D01*
X59376857Y-115341809D01*
X59281619Y-115294190D01*
X59091142Y-115246571D01*
X58995904Y-115198952D01*
X58948285Y-115151333D01*
X58900666Y-115056095D01*
X58900666Y-114960857D01*
X58948285Y-114865619D01*
X58995904Y-114818000D01*
X59091142Y-114770380D01*
X59329238Y-114770380D01*
X59472095Y-114818000D01*
X59805428Y-114770380D02*
X60043523Y-115770380D01*
X60234000Y-115056095D01*
X60424476Y-115770380D01*
X60662571Y-114770380D01*
X61567333Y-115770380D02*
X60995904Y-115770380D01*
X61281619Y-115770380D02*
X61281619Y-114770380D01*
X61186380Y-114913238D01*
X61091142Y-115008476D01*
X60995904Y-115056095D01*
%TO.C,R12*%
X80673142Y-95477380D02*
X80339809Y-95001190D01*
X80101714Y-95477380D02*
X80101714Y-94477380D01*
X80482666Y-94477380D01*
X80577904Y-94525000D01*
X80625523Y-94572619D01*
X80673142Y-94667857D01*
X80673142Y-94810714D01*
X80625523Y-94905952D01*
X80577904Y-94953571D01*
X80482666Y-95001190D01*
X80101714Y-95001190D01*
X81625523Y-95477380D02*
X81054095Y-95477380D01*
X81339809Y-95477380D02*
X81339809Y-94477380D01*
X81244571Y-94620238D01*
X81149333Y-94715476D01*
X81054095Y-94763095D01*
X82006476Y-94572619D02*
X82054095Y-94525000D01*
X82149333Y-94477380D01*
X82387428Y-94477380D01*
X82482666Y-94525000D01*
X82530285Y-94572619D01*
X82577904Y-94667857D01*
X82577904Y-94763095D01*
X82530285Y-94905952D01*
X81958857Y-95477380D01*
X82577904Y-95477380D01*
%TO.C,R11*%
X83721142Y-102622380D02*
X83387809Y-102146190D01*
X83149714Y-102622380D02*
X83149714Y-101622380D01*
X83530666Y-101622380D01*
X83625904Y-101670000D01*
X83673523Y-101717619D01*
X83721142Y-101812857D01*
X83721142Y-101955714D01*
X83673523Y-102050952D01*
X83625904Y-102098571D01*
X83530666Y-102146190D01*
X83149714Y-102146190D01*
X84673523Y-102622380D02*
X84102095Y-102622380D01*
X84387809Y-102622380D02*
X84387809Y-101622380D01*
X84292571Y-101765238D01*
X84197333Y-101860476D01*
X84102095Y-101908095D01*
X85625904Y-102622380D02*
X85054476Y-102622380D01*
X85340190Y-102622380D02*
X85340190Y-101622380D01*
X85244952Y-101765238D01*
X85149714Y-101860476D01*
X85054476Y-101908095D01*
%TO.C,J1*%
X61424666Y-99336380D02*
X61424666Y-100050666D01*
X61377047Y-100193523D01*
X61281809Y-100288761D01*
X61138952Y-100336380D01*
X61043714Y-100336380D01*
X62424666Y-100336380D02*
X61853238Y-100336380D01*
X62138952Y-100336380D02*
X62138952Y-99336380D01*
X62043714Y-99479238D01*
X61948476Y-99574476D01*
X61853238Y-99622095D01*
%TO.C,F1*%
X78442666Y-97526571D02*
X78109333Y-97526571D01*
X78109333Y-98050380D02*
X78109333Y-97050380D01*
X78585523Y-97050380D01*
X79490285Y-98050380D02*
X78918857Y-98050380D01*
X79204571Y-98050380D02*
X79204571Y-97050380D01*
X79109333Y-97193238D01*
X79014095Y-97288476D01*
X78918857Y-97336095D01*
%TO.C,J27*%
X115590476Y-66552380D02*
X115590476Y-67266666D01*
X115542857Y-67409523D01*
X115447619Y-67504761D01*
X115304761Y-67552380D01*
X115209523Y-67552380D01*
X116019047Y-66647619D02*
X116066666Y-66600000D01*
X116161904Y-66552380D01*
X116400000Y-66552380D01*
X116495238Y-66600000D01*
X116542857Y-66647619D01*
X116590476Y-66742857D01*
X116590476Y-66838095D01*
X116542857Y-66980952D01*
X115971428Y-67552380D01*
X116590476Y-67552380D01*
X116923809Y-66552380D02*
X117590476Y-66552380D01*
X117161904Y-67552380D01*
%TO.C,J23*%
X88888476Y-66316380D02*
X88888476Y-67030666D01*
X88840857Y-67173523D01*
X88745619Y-67268761D01*
X88602761Y-67316380D01*
X88507523Y-67316380D01*
X89317047Y-66411619D02*
X89364666Y-66364000D01*
X89459904Y-66316380D01*
X89698000Y-66316380D01*
X89793238Y-66364000D01*
X89840857Y-66411619D01*
X89888476Y-66506857D01*
X89888476Y-66602095D01*
X89840857Y-66744952D01*
X89269428Y-67316380D01*
X89888476Y-67316380D01*
X90221809Y-66316380D02*
X90840857Y-66316380D01*
X90507523Y-66697333D01*
X90650380Y-66697333D01*
X90745619Y-66744952D01*
X90793238Y-66792571D01*
X90840857Y-66887809D01*
X90840857Y-67125904D01*
X90793238Y-67221142D01*
X90745619Y-67268761D01*
X90650380Y-67316380D01*
X90364666Y-67316380D01*
X90269428Y-67268761D01*
X90221809Y-67221142D01*
%TO.C,U2*%
X65568095Y-96542380D02*
X65568095Y-97351904D01*
X65615714Y-97447142D01*
X65663333Y-97494761D01*
X65758571Y-97542380D01*
X65949047Y-97542380D01*
X66044285Y-97494761D01*
X66091904Y-97447142D01*
X66139523Y-97351904D01*
X66139523Y-96542380D01*
X66568095Y-96637619D02*
X66615714Y-96590000D01*
X66710952Y-96542380D01*
X66949047Y-96542380D01*
X67044285Y-96590000D01*
X67091904Y-96637619D01*
X67139523Y-96732857D01*
X67139523Y-96828095D01*
X67091904Y-96970952D01*
X66520476Y-97542380D01*
X67139523Y-97542380D01*
%TO.C,U5*%
X83602095Y-106956380D02*
X83602095Y-107765904D01*
X83649714Y-107861142D01*
X83697333Y-107908761D01*
X83792571Y-107956380D01*
X83983047Y-107956380D01*
X84078285Y-107908761D01*
X84125904Y-107861142D01*
X84173523Y-107765904D01*
X84173523Y-106956380D01*
X85125904Y-106956380D02*
X84649714Y-106956380D01*
X84602095Y-107432571D01*
X84649714Y-107384952D01*
X84744952Y-107337333D01*
X84983047Y-107337333D01*
X85078285Y-107384952D01*
X85125904Y-107432571D01*
X85173523Y-107527809D01*
X85173523Y-107765904D01*
X85125904Y-107861142D01*
X85078285Y-107908761D01*
X84983047Y-107956380D01*
X84744952Y-107956380D01*
X84649714Y-107908761D01*
X84602095Y-107861142D01*
%TO.C,U4*%
X85634095Y-89684380D02*
X85634095Y-90493904D01*
X85681714Y-90589142D01*
X85729333Y-90636761D01*
X85824571Y-90684380D01*
X86015047Y-90684380D01*
X86110285Y-90636761D01*
X86157904Y-90589142D01*
X86205523Y-90493904D01*
X86205523Y-89684380D01*
X87110285Y-90017714D02*
X87110285Y-90684380D01*
X86872190Y-89636761D02*
X86634095Y-90351047D01*
X87253142Y-90351047D01*
%TO.C,J26*%
X73648476Y-70126380D02*
X73648476Y-70840666D01*
X73600857Y-70983523D01*
X73505619Y-71078761D01*
X73362761Y-71126380D01*
X73267523Y-71126380D01*
X74077047Y-70221619D02*
X74124666Y-70174000D01*
X74219904Y-70126380D01*
X74458000Y-70126380D01*
X74553238Y-70174000D01*
X74600857Y-70221619D01*
X74648476Y-70316857D01*
X74648476Y-70412095D01*
X74600857Y-70554952D01*
X74029428Y-71126380D01*
X74648476Y-71126380D01*
X75505619Y-70126380D02*
X75315142Y-70126380D01*
X75219904Y-70174000D01*
X75172285Y-70221619D01*
X75077047Y-70364476D01*
X75029428Y-70554952D01*
X75029428Y-70935904D01*
X75077047Y-71031142D01*
X75124666Y-71078761D01*
X75219904Y-71126380D01*
X75410380Y-71126380D01*
X75505619Y-71078761D01*
X75553238Y-71031142D01*
X75600857Y-70935904D01*
X75600857Y-70697809D01*
X75553238Y-70602571D01*
X75505619Y-70554952D01*
X75410380Y-70507333D01*
X75219904Y-70507333D01*
X75124666Y-70554952D01*
X75077047Y-70602571D01*
X75029428Y-70697809D01*
%TO.C,J25*%
X111748476Y-76730380D02*
X111748476Y-77444666D01*
X111700857Y-77587523D01*
X111605619Y-77682761D01*
X111462761Y-77730380D01*
X111367523Y-77730380D01*
X112177047Y-76825619D02*
X112224666Y-76778000D01*
X112319904Y-76730380D01*
X112558000Y-76730380D01*
X112653238Y-76778000D01*
X112700857Y-76825619D01*
X112748476Y-76920857D01*
X112748476Y-77016095D01*
X112700857Y-77158952D01*
X112129428Y-77730380D01*
X112748476Y-77730380D01*
X113653238Y-76730380D02*
X113177047Y-76730380D01*
X113129428Y-77206571D01*
X113177047Y-77158952D01*
X113272285Y-77111333D01*
X113510380Y-77111333D01*
X113605619Y-77158952D01*
X113653238Y-77206571D01*
X113700857Y-77301809D01*
X113700857Y-77539904D01*
X113653238Y-77635142D01*
X113605619Y-77682761D01*
X113510380Y-77730380D01*
X113272285Y-77730380D01*
X113177047Y-77682761D01*
X113129428Y-77635142D01*
%TO.C,J24*%
X83554476Y-71904380D02*
X83554476Y-72618666D01*
X83506857Y-72761523D01*
X83411619Y-72856761D01*
X83268761Y-72904380D01*
X83173523Y-72904380D01*
X83983047Y-71999619D02*
X84030666Y-71952000D01*
X84125904Y-71904380D01*
X84364000Y-71904380D01*
X84459238Y-71952000D01*
X84506857Y-71999619D01*
X84554476Y-72094857D01*
X84554476Y-72190095D01*
X84506857Y-72332952D01*
X83935428Y-72904380D01*
X84554476Y-72904380D01*
X85411619Y-72237714D02*
X85411619Y-72904380D01*
X85173523Y-71856761D02*
X84935428Y-72571047D01*
X85554476Y-72571047D01*
%TO.C,ISP1*%
X54717619Y-65284380D02*
X54717619Y-64284380D01*
X55146190Y-65236761D02*
X55289047Y-65284380D01*
X55527142Y-65284380D01*
X55622380Y-65236761D01*
X55670000Y-65189142D01*
X55717619Y-65093904D01*
X55717619Y-64998666D01*
X55670000Y-64903428D01*
X55622380Y-64855809D01*
X55527142Y-64808190D01*
X55336666Y-64760571D01*
X55241428Y-64712952D01*
X55193809Y-64665333D01*
X55146190Y-64570095D01*
X55146190Y-64474857D01*
X55193809Y-64379619D01*
X55241428Y-64332000D01*
X55336666Y-64284380D01*
X55574761Y-64284380D01*
X55717619Y-64332000D01*
X56146190Y-65284380D02*
X56146190Y-64284380D01*
X56527142Y-64284380D01*
X56622380Y-64332000D01*
X56670000Y-64379619D01*
X56717619Y-64474857D01*
X56717619Y-64617714D01*
X56670000Y-64712952D01*
X56622380Y-64760571D01*
X56527142Y-64808190D01*
X56146190Y-64808190D01*
X57670000Y-65284380D02*
X57098571Y-65284380D01*
X57384285Y-65284380D02*
X57384285Y-64284380D01*
X57289047Y-64427238D01*
X57193809Y-64522476D01*
X57098571Y-64570095D01*
%TO.C,D4*%
X109533904Y-57410380D02*
X109533904Y-56410380D01*
X109772000Y-56410380D01*
X109914857Y-56458000D01*
X110010095Y-56553238D01*
X110057714Y-56648476D01*
X110105333Y-56838952D01*
X110105333Y-56981809D01*
X110057714Y-57172285D01*
X110010095Y-57267523D01*
X109914857Y-57362761D01*
X109772000Y-57410380D01*
X109533904Y-57410380D01*
X110962476Y-56743714D02*
X110962476Y-57410380D01*
X110724380Y-56362761D02*
X110486285Y-57077047D01*
X111105333Y-57077047D01*
%TO.C,D3*%
X53399904Y-92716380D02*
X53399904Y-91716380D01*
X53638000Y-91716380D01*
X53780857Y-91764000D01*
X53876095Y-91859238D01*
X53923714Y-91954476D01*
X53971333Y-92144952D01*
X53971333Y-92287809D01*
X53923714Y-92478285D01*
X53876095Y-92573523D01*
X53780857Y-92668761D01*
X53638000Y-92716380D01*
X53399904Y-92716380D01*
X54304666Y-91716380D02*
X54923714Y-91716380D01*
X54590380Y-92097333D01*
X54733238Y-92097333D01*
X54828476Y-92144952D01*
X54876095Y-92192571D01*
X54923714Y-92287809D01*
X54923714Y-92525904D01*
X54876095Y-92621142D01*
X54828476Y-92668761D01*
X54733238Y-92716380D01*
X54447523Y-92716380D01*
X54352285Y-92668761D01*
X54304666Y-92621142D01*
%TO.C,D1*%
X58731904Y-89782380D02*
X58731904Y-88782380D01*
X58970000Y-88782380D01*
X59112857Y-88830000D01*
X59208095Y-88925238D01*
X59255714Y-89020476D01*
X59303333Y-89210952D01*
X59303333Y-89353809D01*
X59255714Y-89544285D01*
X59208095Y-89639523D01*
X59112857Y-89734761D01*
X58970000Y-89782380D01*
X58731904Y-89782380D01*
X60255714Y-89782380D02*
X59684285Y-89782380D01*
X59970000Y-89782380D02*
X59970000Y-88782380D01*
X59874761Y-88925238D01*
X59779523Y-89020476D01*
X59684285Y-89068095D01*
X57452380Y-86683904D02*
X56452380Y-86683904D01*
X57452380Y-86112476D02*
X56880952Y-86541047D01*
X56452380Y-86112476D02*
X57023809Y-86683904D01*
%TO.C,C13*%
X109607142Y-63227142D02*
X109559523Y-63274761D01*
X109416666Y-63322380D01*
X109321428Y-63322380D01*
X109178571Y-63274761D01*
X109083333Y-63179523D01*
X109035714Y-63084285D01*
X108988095Y-62893809D01*
X108988095Y-62750952D01*
X109035714Y-62560476D01*
X109083333Y-62465238D01*
X109178571Y-62370000D01*
X109321428Y-62322380D01*
X109416666Y-62322380D01*
X109559523Y-62370000D01*
X109607142Y-62417619D01*
X110559523Y-63322380D02*
X109988095Y-63322380D01*
X110273809Y-63322380D02*
X110273809Y-62322380D01*
X110178571Y-62465238D01*
X110083333Y-62560476D01*
X109988095Y-62608095D01*
X110892857Y-62322380D02*
X111511904Y-62322380D01*
X111178571Y-62703333D01*
X111321428Y-62703333D01*
X111416666Y-62750952D01*
X111464285Y-62798571D01*
X111511904Y-62893809D01*
X111511904Y-63131904D01*
X111464285Y-63227142D01*
X111416666Y-63274761D01*
X111321428Y-63322380D01*
X111035714Y-63322380D01*
X110940476Y-63274761D01*
X110892857Y-63227142D01*
%TO.C,C12*%
X87757142Y-82332142D02*
X87709523Y-82379761D01*
X87566666Y-82427380D01*
X87471428Y-82427380D01*
X87328571Y-82379761D01*
X87233333Y-82284523D01*
X87185714Y-82189285D01*
X87138095Y-81998809D01*
X87138095Y-81855952D01*
X87185714Y-81665476D01*
X87233333Y-81570238D01*
X87328571Y-81475000D01*
X87471428Y-81427380D01*
X87566666Y-81427380D01*
X87709523Y-81475000D01*
X87757142Y-81522619D01*
X88709523Y-82427380D02*
X88138095Y-82427380D01*
X88423809Y-82427380D02*
X88423809Y-81427380D01*
X88328571Y-81570238D01*
X88233333Y-81665476D01*
X88138095Y-81713095D01*
X89090476Y-81522619D02*
X89138095Y-81475000D01*
X89233333Y-81427380D01*
X89471428Y-81427380D01*
X89566666Y-81475000D01*
X89614285Y-81522619D01*
X89661904Y-81617857D01*
X89661904Y-81713095D01*
X89614285Y-81855952D01*
X89042857Y-82427380D01*
X89661904Y-82427380D01*
%TO.C,C11*%
X78133142Y-82207142D02*
X78085523Y-82254761D01*
X77942666Y-82302380D01*
X77847428Y-82302380D01*
X77704571Y-82254761D01*
X77609333Y-82159523D01*
X77561714Y-82064285D01*
X77514095Y-81873809D01*
X77514095Y-81730952D01*
X77561714Y-81540476D01*
X77609333Y-81445238D01*
X77704571Y-81350000D01*
X77847428Y-81302380D01*
X77942666Y-81302380D01*
X78085523Y-81350000D01*
X78133142Y-81397619D01*
X79085523Y-82302380D02*
X78514095Y-82302380D01*
X78799809Y-82302380D02*
X78799809Y-81302380D01*
X78704571Y-81445238D01*
X78609333Y-81540476D01*
X78514095Y-81588095D01*
X80037904Y-82302380D02*
X79466476Y-82302380D01*
X79752190Y-82302380D02*
X79752190Y-81302380D01*
X79656952Y-81445238D01*
X79561714Y-81540476D01*
X79466476Y-81588095D01*
%TO.C,C10*%
X90732642Y-77127142D02*
X90685023Y-77174761D01*
X90542166Y-77222380D01*
X90446928Y-77222380D01*
X90304071Y-77174761D01*
X90208833Y-77079523D01*
X90161214Y-76984285D01*
X90113595Y-76793809D01*
X90113595Y-76650952D01*
X90161214Y-76460476D01*
X90208833Y-76365238D01*
X90304071Y-76270000D01*
X90446928Y-76222380D01*
X90542166Y-76222380D01*
X90685023Y-76270000D01*
X90732642Y-76317619D01*
X91685023Y-77222380D02*
X91113595Y-77222380D01*
X91399309Y-77222380D02*
X91399309Y-76222380D01*
X91304071Y-76365238D01*
X91208833Y-76460476D01*
X91113595Y-76508095D01*
X92304071Y-76222380D02*
X92399309Y-76222380D01*
X92494547Y-76270000D01*
X92542166Y-76317619D01*
X92589785Y-76412857D01*
X92637404Y-76603333D01*
X92637404Y-76841428D01*
X92589785Y-77031904D01*
X92542166Y-77127142D01*
X92494547Y-77174761D01*
X92399309Y-77222380D01*
X92304071Y-77222380D01*
X92208833Y-77174761D01*
X92161214Y-77127142D01*
X92113595Y-77031904D01*
X92065976Y-76841428D01*
X92065976Y-76603333D01*
X92113595Y-76412857D01*
X92161214Y-76317619D01*
X92208833Y-76270000D01*
X92304071Y-76222380D01*
%TO.C,C9*%
X95383333Y-87527142D02*
X95335714Y-87574761D01*
X95192857Y-87622380D01*
X95097619Y-87622380D01*
X94954761Y-87574761D01*
X94859523Y-87479523D01*
X94811904Y-87384285D01*
X94764285Y-87193809D01*
X94764285Y-87050952D01*
X94811904Y-86860476D01*
X94859523Y-86765238D01*
X94954761Y-86670000D01*
X95097619Y-86622380D01*
X95192857Y-86622380D01*
X95335714Y-86670000D01*
X95383333Y-86717619D01*
X95859523Y-87622380D02*
X96050000Y-87622380D01*
X96145238Y-87574761D01*
X96192857Y-87527142D01*
X96288095Y-87384285D01*
X96335714Y-87193809D01*
X96335714Y-86812857D01*
X96288095Y-86717619D01*
X96240476Y-86670000D01*
X96145238Y-86622380D01*
X95954761Y-86622380D01*
X95859523Y-86670000D01*
X95811904Y-86717619D01*
X95764285Y-86812857D01*
X95764285Y-87050952D01*
X95811904Y-87146190D01*
X95859523Y-87193809D01*
X95954761Y-87241428D01*
X96145238Y-87241428D01*
X96240476Y-87193809D01*
X96288095Y-87146190D01*
X96335714Y-87050952D01*
%TO.C,C8*%
X80895333Y-103289142D02*
X80847714Y-103336761D01*
X80704857Y-103384380D01*
X80609619Y-103384380D01*
X80466761Y-103336761D01*
X80371523Y-103241523D01*
X80323904Y-103146285D01*
X80276285Y-102955809D01*
X80276285Y-102812952D01*
X80323904Y-102622476D01*
X80371523Y-102527238D01*
X80466761Y-102432000D01*
X80609619Y-102384380D01*
X80704857Y-102384380D01*
X80847714Y-102432000D01*
X80895333Y-102479619D01*
X81466761Y-102812952D02*
X81371523Y-102765333D01*
X81323904Y-102717714D01*
X81276285Y-102622476D01*
X81276285Y-102574857D01*
X81323904Y-102479619D01*
X81371523Y-102432000D01*
X81466761Y-102384380D01*
X81657238Y-102384380D01*
X81752476Y-102432000D01*
X81800095Y-102479619D01*
X81847714Y-102574857D01*
X81847714Y-102622476D01*
X81800095Y-102717714D01*
X81752476Y-102765333D01*
X81657238Y-102812952D01*
X81466761Y-102812952D01*
X81371523Y-102860571D01*
X81323904Y-102908190D01*
X81276285Y-103003428D01*
X81276285Y-103193904D01*
X81323904Y-103289142D01*
X81371523Y-103336761D01*
X81466761Y-103384380D01*
X81657238Y-103384380D01*
X81752476Y-103336761D01*
X81800095Y-103289142D01*
X81847714Y-103193904D01*
X81847714Y-103003428D01*
X81800095Y-102908190D01*
X81752476Y-102860571D01*
X81657238Y-102812952D01*
%TO.C,C7*%
X89531333Y-103289142D02*
X89483714Y-103336761D01*
X89340857Y-103384380D01*
X89245619Y-103384380D01*
X89102761Y-103336761D01*
X89007523Y-103241523D01*
X88959904Y-103146285D01*
X88912285Y-102955809D01*
X88912285Y-102812952D01*
X88959904Y-102622476D01*
X89007523Y-102527238D01*
X89102761Y-102432000D01*
X89245619Y-102384380D01*
X89340857Y-102384380D01*
X89483714Y-102432000D01*
X89531333Y-102479619D01*
X89864666Y-102384380D02*
X90531333Y-102384380D01*
X90102761Y-103384380D01*
%TO.C,C6*%
X80133333Y-107861142D02*
X80085714Y-107908761D01*
X79942857Y-107956380D01*
X79847619Y-107956380D01*
X79704761Y-107908761D01*
X79609523Y-107813523D01*
X79561904Y-107718285D01*
X79514285Y-107527809D01*
X79514285Y-107384952D01*
X79561904Y-107194476D01*
X79609523Y-107099238D01*
X79704761Y-107004000D01*
X79847619Y-106956380D01*
X79942857Y-106956380D01*
X80085714Y-107004000D01*
X80133333Y-107051619D01*
X80990476Y-106956380D02*
X80800000Y-106956380D01*
X80704761Y-107004000D01*
X80657142Y-107051619D01*
X80561904Y-107194476D01*
X80514285Y-107384952D01*
X80514285Y-107765904D01*
X80561904Y-107861142D01*
X80609523Y-107908761D01*
X80704761Y-107956380D01*
X80895238Y-107956380D01*
X80990476Y-107908761D01*
X81038095Y-107861142D01*
X81085714Y-107765904D01*
X81085714Y-107527809D01*
X81038095Y-107432571D01*
X80990476Y-107384952D01*
X80895238Y-107337333D01*
X80704761Y-107337333D01*
X80609523Y-107384952D01*
X80561904Y-107432571D01*
X80514285Y-107527809D01*
%TO.C,C5*%
X75803333Y-103537142D02*
X75755714Y-103584761D01*
X75612857Y-103632380D01*
X75517619Y-103632380D01*
X75374761Y-103584761D01*
X75279523Y-103489523D01*
X75231904Y-103394285D01*
X75184285Y-103203809D01*
X75184285Y-103060952D01*
X75231904Y-102870476D01*
X75279523Y-102775238D01*
X75374761Y-102680000D01*
X75517619Y-102632380D01*
X75612857Y-102632380D01*
X75755714Y-102680000D01*
X75803333Y-102727619D01*
X76708095Y-102632380D02*
X76231904Y-102632380D01*
X76184285Y-103108571D01*
X76231904Y-103060952D01*
X76327142Y-103013333D01*
X76565238Y-103013333D01*
X76660476Y-103060952D01*
X76708095Y-103108571D01*
X76755714Y-103203809D01*
X76755714Y-103441904D01*
X76708095Y-103537142D01*
X76660476Y-103584761D01*
X76565238Y-103632380D01*
X76327142Y-103632380D01*
X76231904Y-103584761D01*
X76184285Y-103537142D01*
%TO.C,C4*%
X86229333Y-98717142D02*
X86181714Y-98764761D01*
X86038857Y-98812380D01*
X85943619Y-98812380D01*
X85800761Y-98764761D01*
X85705523Y-98669523D01*
X85657904Y-98574285D01*
X85610285Y-98383809D01*
X85610285Y-98240952D01*
X85657904Y-98050476D01*
X85705523Y-97955238D01*
X85800761Y-97860000D01*
X85943619Y-97812380D01*
X86038857Y-97812380D01*
X86181714Y-97860000D01*
X86229333Y-97907619D01*
X87086476Y-98145714D02*
X87086476Y-98812380D01*
X86848380Y-97764761D02*
X86610285Y-98479047D01*
X87229333Y-98479047D01*
%TO.C,C3*%
X89208333Y-84257142D02*
X89160714Y-84304761D01*
X89017857Y-84352380D01*
X88922619Y-84352380D01*
X88779761Y-84304761D01*
X88684523Y-84209523D01*
X88636904Y-84114285D01*
X88589285Y-83923809D01*
X88589285Y-83780952D01*
X88636904Y-83590476D01*
X88684523Y-83495238D01*
X88779761Y-83400000D01*
X88922619Y-83352380D01*
X89017857Y-83352380D01*
X89160714Y-83400000D01*
X89208333Y-83447619D01*
X89541666Y-83352380D02*
X90160714Y-83352380D01*
X89827380Y-83733333D01*
X89970238Y-83733333D01*
X90065476Y-83780952D01*
X90113095Y-83828571D01*
X90160714Y-83923809D01*
X90160714Y-84161904D01*
X90113095Y-84257142D01*
X90065476Y-84304761D01*
X89970238Y-84352380D01*
X89684523Y-84352380D01*
X89589285Y-84304761D01*
X89541666Y-84257142D01*
%TO.C,C2*%
X66653333Y-103397142D02*
X66605714Y-103444761D01*
X66462857Y-103492380D01*
X66367619Y-103492380D01*
X66224761Y-103444761D01*
X66129523Y-103349523D01*
X66081904Y-103254285D01*
X66034285Y-103063809D01*
X66034285Y-102920952D01*
X66081904Y-102730476D01*
X66129523Y-102635238D01*
X66224761Y-102540000D01*
X66367619Y-102492380D01*
X66462857Y-102492380D01*
X66605714Y-102540000D01*
X66653333Y-102587619D01*
X67034285Y-102587619D02*
X67081904Y-102540000D01*
X67177142Y-102492380D01*
X67415238Y-102492380D01*
X67510476Y-102540000D01*
X67558095Y-102587619D01*
X67605714Y-102682857D01*
X67605714Y-102778095D01*
X67558095Y-102920952D01*
X66986666Y-103492380D01*
X67605714Y-103492380D01*
%TO.C,C1*%
X82165333Y-98717142D02*
X82117714Y-98764761D01*
X81974857Y-98812380D01*
X81879619Y-98812380D01*
X81736761Y-98764761D01*
X81641523Y-98669523D01*
X81593904Y-98574285D01*
X81546285Y-98383809D01*
X81546285Y-98240952D01*
X81593904Y-98050476D01*
X81641523Y-97955238D01*
X81736761Y-97860000D01*
X81879619Y-97812380D01*
X81974857Y-97812380D01*
X82117714Y-97860000D01*
X82165333Y-97907619D01*
X83117714Y-98812380D02*
X82546285Y-98812380D01*
X82832000Y-98812380D02*
X82832000Y-97812380D01*
X82736761Y-97955238D01*
X82641523Y-98050476D01*
X82546285Y-98098095D01*
%TO.C,R1*%
X61993333Y-89522380D02*
X61660000Y-89046190D01*
X61421904Y-89522380D02*
X61421904Y-88522380D01*
X61802857Y-88522380D01*
X61898095Y-88570000D01*
X61945714Y-88617619D01*
X61993333Y-88712857D01*
X61993333Y-88855714D01*
X61945714Y-88950952D01*
X61898095Y-88998571D01*
X61802857Y-89046190D01*
X61421904Y-89046190D01*
X62945714Y-89522380D02*
X62374285Y-89522380D01*
X62660000Y-89522380D02*
X62660000Y-88522380D01*
X62564761Y-88665238D01*
X62469523Y-88760476D01*
X62374285Y-88808095D01*
%TO.C,R2*%
X62010833Y-90852380D02*
X61677500Y-90376190D01*
X61439404Y-90852380D02*
X61439404Y-89852380D01*
X61820357Y-89852380D01*
X61915595Y-89900000D01*
X61963214Y-89947619D01*
X62010833Y-90042857D01*
X62010833Y-90185714D01*
X61963214Y-90280952D01*
X61915595Y-90328571D01*
X61820357Y-90376190D01*
X61439404Y-90376190D01*
X62391785Y-89947619D02*
X62439404Y-89900000D01*
X62534642Y-89852380D01*
X62772738Y-89852380D01*
X62867976Y-89900000D01*
X62915595Y-89947619D01*
X62963214Y-90042857D01*
X62963214Y-90138095D01*
X62915595Y-90280952D01*
X62344166Y-90852380D01*
X62963214Y-90852380D01*
%TO.C,R3*%
X86991333Y-103384380D02*
X86658000Y-102908190D01*
X86419904Y-103384380D02*
X86419904Y-102384380D01*
X86800857Y-102384380D01*
X86896095Y-102432000D01*
X86943714Y-102479619D01*
X86991333Y-102574857D01*
X86991333Y-102717714D01*
X86943714Y-102812952D01*
X86896095Y-102860571D01*
X86800857Y-102908190D01*
X86419904Y-102908190D01*
X87324666Y-102384380D02*
X87943714Y-102384380D01*
X87610380Y-102765333D01*
X87753238Y-102765333D01*
X87848476Y-102812952D01*
X87896095Y-102860571D01*
X87943714Y-102955809D01*
X87943714Y-103193904D01*
X87896095Y-103289142D01*
X87848476Y-103336761D01*
X87753238Y-103384380D01*
X87467523Y-103384380D01*
X87372285Y-103336761D01*
X87324666Y-103289142D01*
%TO.C,R4*%
X76831333Y-105162380D02*
X76498000Y-104686190D01*
X76259904Y-105162380D02*
X76259904Y-104162380D01*
X76640857Y-104162380D01*
X76736095Y-104210000D01*
X76783714Y-104257619D01*
X76831333Y-104352857D01*
X76831333Y-104495714D01*
X76783714Y-104590952D01*
X76736095Y-104638571D01*
X76640857Y-104686190D01*
X76259904Y-104686190D01*
X77688476Y-104495714D02*
X77688476Y-105162380D01*
X77450380Y-104114761D02*
X77212285Y-104829047D01*
X77831333Y-104829047D01*
%TO.C,R5*%
X53717333Y-88398380D02*
X53384000Y-87922190D01*
X53145904Y-88398380D02*
X53145904Y-87398380D01*
X53526857Y-87398380D01*
X53622095Y-87446000D01*
X53669714Y-87493619D01*
X53717333Y-87588857D01*
X53717333Y-87731714D01*
X53669714Y-87826952D01*
X53622095Y-87874571D01*
X53526857Y-87922190D01*
X53145904Y-87922190D01*
X54622095Y-87398380D02*
X54145904Y-87398380D01*
X54098285Y-87874571D01*
X54145904Y-87826952D01*
X54241142Y-87779333D01*
X54479238Y-87779333D01*
X54574476Y-87826952D01*
X54622095Y-87874571D01*
X54669714Y-87969809D01*
X54669714Y-88207904D01*
X54622095Y-88303142D01*
X54574476Y-88350761D01*
X54479238Y-88398380D01*
X54241142Y-88398380D01*
X54145904Y-88350761D01*
X54098285Y-88303142D01*
%TO.C,R6*%
X95383333Y-91982380D02*
X95050000Y-91506190D01*
X94811904Y-91982380D02*
X94811904Y-90982380D01*
X95192857Y-90982380D01*
X95288095Y-91030000D01*
X95335714Y-91077619D01*
X95383333Y-91172857D01*
X95383333Y-91315714D01*
X95335714Y-91410952D01*
X95288095Y-91458571D01*
X95192857Y-91506190D01*
X94811904Y-91506190D01*
X96240476Y-90982380D02*
X96050000Y-90982380D01*
X95954761Y-91030000D01*
X95907142Y-91077619D01*
X95811904Y-91220476D01*
X95764285Y-91410952D01*
X95764285Y-91791904D01*
X95811904Y-91887142D01*
X95859523Y-91934761D01*
X95954761Y-91982380D01*
X96145238Y-91982380D01*
X96240476Y-91934761D01*
X96288095Y-91887142D01*
X96335714Y-91791904D01*
X96335714Y-91553809D01*
X96288095Y-91458571D01*
X96240476Y-91410952D01*
X96145238Y-91363333D01*
X95954761Y-91363333D01*
X95859523Y-91410952D01*
X95811904Y-91458571D01*
X95764285Y-91553809D01*
%TO.C,R7*%
X67179333Y-112782380D02*
X66846000Y-112306190D01*
X66607904Y-112782380D02*
X66607904Y-111782380D01*
X66988857Y-111782380D01*
X67084095Y-111830000D01*
X67131714Y-111877619D01*
X67179333Y-111972857D01*
X67179333Y-112115714D01*
X67131714Y-112210952D01*
X67084095Y-112258571D01*
X66988857Y-112306190D01*
X66607904Y-112306190D01*
X67512666Y-111782380D02*
X68179333Y-111782380D01*
X67750761Y-112782380D01*
%TO.C,R8*%
X107819333Y-61474380D02*
X107486000Y-60998190D01*
X107247904Y-61474380D02*
X107247904Y-60474380D01*
X107628857Y-60474380D01*
X107724095Y-60522000D01*
X107771714Y-60569619D01*
X107819333Y-60664857D01*
X107819333Y-60807714D01*
X107771714Y-60902952D01*
X107724095Y-60950571D01*
X107628857Y-60998190D01*
X107247904Y-60998190D01*
X108390761Y-60902952D02*
X108295523Y-60855333D01*
X108247904Y-60807714D01*
X108200285Y-60712476D01*
X108200285Y-60664857D01*
X108247904Y-60569619D01*
X108295523Y-60522000D01*
X108390761Y-60474380D01*
X108581238Y-60474380D01*
X108676476Y-60522000D01*
X108724095Y-60569619D01*
X108771714Y-60664857D01*
X108771714Y-60712476D01*
X108724095Y-60807714D01*
X108676476Y-60855333D01*
X108581238Y-60902952D01*
X108390761Y-60902952D01*
X108295523Y-60950571D01*
X108247904Y-60998190D01*
X108200285Y-61093428D01*
X108200285Y-61283904D01*
X108247904Y-61379142D01*
X108295523Y-61426761D01*
X108390761Y-61474380D01*
X108581238Y-61474380D01*
X108676476Y-61426761D01*
X108724095Y-61379142D01*
X108771714Y-61283904D01*
X108771714Y-61093428D01*
X108724095Y-60998190D01*
X108676476Y-60950571D01*
X108581238Y-60902952D01*
%TO.C,R9*%
X110033333Y-67832380D02*
X109700000Y-67356190D01*
X109461904Y-67832380D02*
X109461904Y-66832380D01*
X109842857Y-66832380D01*
X109938095Y-66880000D01*
X109985714Y-66927619D01*
X110033333Y-67022857D01*
X110033333Y-67165714D01*
X109985714Y-67260952D01*
X109938095Y-67308571D01*
X109842857Y-67356190D01*
X109461904Y-67356190D01*
X110509523Y-67832380D02*
X110700000Y-67832380D01*
X110795238Y-67784761D01*
X110842857Y-67737142D01*
X110938095Y-67594285D01*
X110985714Y-67403809D01*
X110985714Y-67022857D01*
X110938095Y-66927619D01*
X110890476Y-66880000D01*
X110795238Y-66832380D01*
X110604761Y-66832380D01*
X110509523Y-66880000D01*
X110461904Y-66927619D01*
X110414285Y-67022857D01*
X110414285Y-67260952D01*
X110461904Y-67356190D01*
X110509523Y-67403809D01*
X110604761Y-67451428D01*
X110795238Y-67451428D01*
X110890476Y-67403809D01*
X110938095Y-67356190D01*
X110985714Y-67260952D01*
%TD*%
%LPC*%
D16*
%TO.C,SHIELD1*%
X53170000Y-109700000D03*
X54440000Y-61440000D03*
X105240000Y-76680000D03*
X105240000Y-104620000D03*
D17*
X77300000Y-109700000D03*
X63076000Y-61440000D03*
X65616000Y-61440000D03*
X68156000Y-61440000D03*
X70696000Y-61440000D03*
X73236000Y-61440000D03*
X75776000Y-61440000D03*
X78316000Y-61440000D03*
X80856000Y-61440000D03*
X84920000Y-61440000D03*
X87460000Y-61440000D03*
X90000000Y-61440000D03*
X92540000Y-61440000D03*
X95080000Y-61440000D03*
X97620000Y-61440000D03*
X100160000Y-61440000D03*
X102700000Y-61440000D03*
X72220000Y-109700000D03*
X74760000Y-109700000D03*
X79840000Y-109700000D03*
X82380000Y-109700000D03*
X84920000Y-109700000D03*
X95080000Y-109700000D03*
X92540000Y-109700000D03*
X90000000Y-109700000D03*
X97620000Y-109700000D03*
X100160000Y-109700000D03*
X102700000Y-109700000D03*
%TD*%
D18*
%TO.C,J28*%
X54400000Y-82800000D03*
X54400000Y-77800000D03*
D19*
X51650000Y-84175000D03*
X51650000Y-76425000D03*
D20*
X55450000Y-84025000D03*
X55450000Y-76575000D03*
D21*
X55500000Y-81600000D03*
X55500000Y-80950000D03*
X55500000Y-80300000D03*
X55500000Y-79650000D03*
X55500000Y-79000000D03*
%TD*%
%TO.C,C14*%
G36*
G01*
X57630000Y-78800000D02*
X57970000Y-78800000D01*
G75*
G02*
X58110000Y-78940000I0J-140000D01*
G01*
X58110000Y-79220000D01*
G75*
G02*
X57970000Y-79360000I-140000J0D01*
G01*
X57630000Y-79360000D01*
G75*
G02*
X57490000Y-79220000I0J140000D01*
G01*
X57490000Y-78940000D01*
G75*
G02*
X57630000Y-78800000I140000J0D01*
G01*
G37*
G36*
G01*
X57630000Y-77840000D02*
X57970000Y-77840000D01*
G75*
G02*
X58110000Y-77980000I0J-140000D01*
G01*
X58110000Y-78260000D01*
G75*
G02*
X57970000Y-78400000I-140000J0D01*
G01*
X57630000Y-78400000D01*
G75*
G02*
X57490000Y-78260000I0J140000D01*
G01*
X57490000Y-77980000D01*
G75*
G02*
X57630000Y-77840000I140000J0D01*
G01*
G37*
%TD*%
D22*
%TO.C,U6*%
X59600000Y-81800000D03*
X60100000Y-81800000D03*
X60600000Y-81800000D03*
X61100000Y-81800000D03*
X61600000Y-81800000D03*
X61600000Y-86200000D03*
X61100000Y-86200000D03*
X60600000Y-86200000D03*
X60100000Y-86200000D03*
X59600000Y-86200000D03*
%TD*%
%TO.C,R13*%
G36*
G01*
X60185000Y-79360000D02*
X59815000Y-79360000D01*
G75*
G02*
X59680000Y-79225000I0J135000D01*
G01*
X59680000Y-78955000D01*
G75*
G02*
X59815000Y-78820000I135000J0D01*
G01*
X60185000Y-78820000D01*
G75*
G02*
X60320000Y-78955000I0J-135000D01*
G01*
X60320000Y-79225000D01*
G75*
G02*
X60185000Y-79360000I-135000J0D01*
G01*
G37*
G36*
G01*
X60185000Y-80380000D02*
X59815000Y-80380000D01*
G75*
G02*
X59680000Y-80245000I0J135000D01*
G01*
X59680000Y-79975000D01*
G75*
G02*
X59815000Y-79840000I135000J0D01*
G01*
X60185000Y-79840000D01*
G75*
G02*
X60320000Y-79975000I0J-135000D01*
G01*
X60320000Y-80245000D01*
G75*
G02*
X60185000Y-80380000I-135000J0D01*
G01*
G37*
%TD*%
%TO.C,R10*%
G36*
G01*
X61285000Y-79360000D02*
X60915000Y-79360000D01*
G75*
G02*
X60780000Y-79225000I0J135000D01*
G01*
X60780000Y-78955000D01*
G75*
G02*
X60915000Y-78820000I135000J0D01*
G01*
X61285000Y-78820000D01*
G75*
G02*
X61420000Y-78955000I0J-135000D01*
G01*
X61420000Y-79225000D01*
G75*
G02*
X61285000Y-79360000I-135000J0D01*
G01*
G37*
G36*
G01*
X61285000Y-80380000D02*
X60915000Y-80380000D01*
G75*
G02*
X60780000Y-80245000I0J135000D01*
G01*
X60780000Y-79975000D01*
G75*
G02*
X60915000Y-79840000I135000J0D01*
G01*
X61285000Y-79840000D01*
G75*
G02*
X61420000Y-79975000I0J-135000D01*
G01*
X61420000Y-80245000D01*
G75*
G02*
X61285000Y-80380000I-135000J0D01*
G01*
G37*
%TD*%
%TO.C,C16*%
G36*
G01*
X58730000Y-79800000D02*
X59070000Y-79800000D01*
G75*
G02*
X59210000Y-79940000I0J-140000D01*
G01*
X59210000Y-80220000D01*
G75*
G02*
X59070000Y-80360000I-140000J0D01*
G01*
X58730000Y-80360000D01*
G75*
G02*
X58590000Y-80220000I0J140000D01*
G01*
X58590000Y-79940000D01*
G75*
G02*
X58730000Y-79800000I140000J0D01*
G01*
G37*
G36*
G01*
X58730000Y-78840000D02*
X59070000Y-78840000D01*
G75*
G02*
X59210000Y-78980000I0J-140000D01*
G01*
X59210000Y-79260000D01*
G75*
G02*
X59070000Y-79400000I-140000J0D01*
G01*
X58730000Y-79400000D01*
G75*
G02*
X58590000Y-79260000I0J140000D01*
G01*
X58590000Y-78980000D01*
G75*
G02*
X58730000Y-78840000I140000J0D01*
G01*
G37*
%TD*%
%TO.C,C15*%
G36*
G01*
X62930000Y-82200000D02*
X63270000Y-82200000D01*
G75*
G02*
X63410000Y-82340000I0J-140000D01*
G01*
X63410000Y-82620000D01*
G75*
G02*
X63270000Y-82760000I-140000J0D01*
G01*
X62930000Y-82760000D01*
G75*
G02*
X62790000Y-82620000I0J140000D01*
G01*
X62790000Y-82340000D01*
G75*
G02*
X62930000Y-82200000I140000J0D01*
G01*
G37*
G36*
G01*
X62930000Y-81240000D02*
X63270000Y-81240000D01*
G75*
G02*
X63410000Y-81380000I0J-140000D01*
G01*
X63410000Y-81660000D01*
G75*
G02*
X63270000Y-81800000I-140000J0D01*
G01*
X62930000Y-81800000D01*
G75*
G02*
X62790000Y-81660000I0J140000D01*
G01*
X62790000Y-81380000D01*
G75*
G02*
X62930000Y-81240000I140000J0D01*
G01*
G37*
%TD*%
D23*
%TO.C,Q1*%
X67600000Y-86300000D03*
X69600000Y-85350000D03*
X69600000Y-87250000D03*
%TD*%
%TO.C,U3*%
G36*
G01*
X69100000Y-89175000D02*
X69100000Y-88875000D01*
G75*
G02*
X69250000Y-88725000I150000J0D01*
G01*
X70900000Y-88725000D01*
G75*
G02*
X71050000Y-88875000I0J-150000D01*
G01*
X71050000Y-89175000D01*
G75*
G02*
X70900000Y-89325000I-150000J0D01*
G01*
X69250000Y-89325000D01*
G75*
G02*
X69100000Y-89175000I0J150000D01*
G01*
G37*
G36*
G01*
X69100000Y-90445000D02*
X69100000Y-90145000D01*
G75*
G02*
X69250000Y-89995000I150000J0D01*
G01*
X70900000Y-89995000D01*
G75*
G02*
X71050000Y-90145000I0J-150000D01*
G01*
X71050000Y-90445000D01*
G75*
G02*
X70900000Y-90595000I-150000J0D01*
G01*
X69250000Y-90595000D01*
G75*
G02*
X69100000Y-90445000I0J150000D01*
G01*
G37*
G36*
G01*
X69100000Y-91715000D02*
X69100000Y-91415000D01*
G75*
G02*
X69250000Y-91265000I150000J0D01*
G01*
X70900000Y-91265000D01*
G75*
G02*
X71050000Y-91415000I0J-150000D01*
G01*
X71050000Y-91715000D01*
G75*
G02*
X70900000Y-91865000I-150000J0D01*
G01*
X69250000Y-91865000D01*
G75*
G02*
X69100000Y-91715000I0J150000D01*
G01*
G37*
G36*
G01*
X69100000Y-92985000D02*
X69100000Y-92685000D01*
G75*
G02*
X69250000Y-92535000I150000J0D01*
G01*
X70900000Y-92535000D01*
G75*
G02*
X71050000Y-92685000I0J-150000D01*
G01*
X71050000Y-92985000D01*
G75*
G02*
X70900000Y-93135000I-150000J0D01*
G01*
X69250000Y-93135000D01*
G75*
G02*
X69100000Y-92985000I0J150000D01*
G01*
G37*
G36*
G01*
X64150000Y-92985000D02*
X64150000Y-92685000D01*
G75*
G02*
X64300000Y-92535000I150000J0D01*
G01*
X65950000Y-92535000D01*
G75*
G02*
X66100000Y-92685000I0J-150000D01*
G01*
X66100000Y-92985000D01*
G75*
G02*
X65950000Y-93135000I-150000J0D01*
G01*
X64300000Y-93135000D01*
G75*
G02*
X64150000Y-92985000I0J150000D01*
G01*
G37*
G36*
G01*
X64150000Y-91715000D02*
X64150000Y-91415000D01*
G75*
G02*
X64300000Y-91265000I150000J0D01*
G01*
X65950000Y-91265000D01*
G75*
G02*
X66100000Y-91415000I0J-150000D01*
G01*
X66100000Y-91715000D01*
G75*
G02*
X65950000Y-91865000I-150000J0D01*
G01*
X64300000Y-91865000D01*
G75*
G02*
X64150000Y-91715000I0J150000D01*
G01*
G37*
G36*
G01*
X64150000Y-90445000D02*
X64150000Y-90145000D01*
G75*
G02*
X64300000Y-89995000I150000J0D01*
G01*
X65950000Y-89995000D01*
G75*
G02*
X66100000Y-90145000I0J-150000D01*
G01*
X66100000Y-90445000D01*
G75*
G02*
X65950000Y-90595000I-150000J0D01*
G01*
X64300000Y-90595000D01*
G75*
G02*
X64150000Y-90445000I0J150000D01*
G01*
G37*
G36*
G01*
X64150000Y-89175000D02*
X64150000Y-88875000D01*
G75*
G02*
X64300000Y-88725000I150000J0D01*
G01*
X65950000Y-88725000D01*
G75*
G02*
X66100000Y-88875000I0J-150000D01*
G01*
X66100000Y-89175000D01*
G75*
G02*
X65950000Y-89325000I-150000J0D01*
G01*
X64300000Y-89325000D01*
G75*
G02*
X64150000Y-89175000I0J150000D01*
G01*
G37*
%TD*%
D24*
%TO.C,U1*%
X73675000Y-100250000D03*
X69075000Y-100250000D03*
X71375000Y-100250000D03*
D25*
X71375000Y-106550000D03*
%TD*%
D26*
%TO.C,D2*%
X78522000Y-96158000D03*
X78522000Y-93958000D03*
%TD*%
D27*
%TO.C,J20*%
X107030000Y-113150000D03*
X104490000Y-113150000D03*
X101950000Y-113150000D03*
X99410000Y-113150000D03*
X96870000Y-113150000D03*
X94330000Y-113150000D03*
X91790000Y-113150000D03*
D28*
X89250000Y-113150000D03*
%TD*%
D27*
%TO.C,J10*%
X112812000Y-103186000D03*
X110272000Y-103186000D03*
X112812000Y-105726000D03*
X110272000Y-105726000D03*
X112812000Y-108266000D03*
D28*
X110272000Y-108266000D03*
%TD*%
D27*
%TO.C,J22*%
X101981000Y-57277000D03*
X99441000Y-57277000D03*
X96901000Y-57277000D03*
X94361000Y-57277000D03*
X91821000Y-57277000D03*
X89281000Y-57277000D03*
X86741000Y-57277000D03*
D28*
X84201000Y-57277000D03*
%TD*%
D27*
%TO.C,J21*%
X81661000Y-57277000D03*
X79121000Y-57277000D03*
X76581000Y-57277000D03*
X74041000Y-57277000D03*
X71501000Y-57277000D03*
X68961000Y-57277000D03*
X66421000Y-57277000D03*
D28*
X63881000Y-57277000D03*
%TD*%
D27*
%TO.C,J19*%
X74041000Y-113157000D03*
X76581000Y-113157000D03*
X79121000Y-113157000D03*
X81661000Y-113157000D03*
X84201000Y-113157000D03*
D28*
X86741000Y-113157000D03*
%TD*%
D29*
%TO.C,Y1*%
X82672000Y-78118000D03*
X84872000Y-78118000D03*
X84872000Y-79818000D03*
X82672000Y-79818000D03*
%TD*%
D28*
%TO.C,J18*%
X113066000Y-98360000D03*
X110526000Y-98360000D03*
X107986000Y-98360000D03*
%TD*%
%TO.C,J17*%
X105446000Y-98360000D03*
X102906000Y-98360000D03*
X100366000Y-98360000D03*
%TD*%
%TO.C,J16*%
X113066000Y-95820000D03*
X110526000Y-95820000D03*
X107986000Y-95820000D03*
%TD*%
%TO.C,J15*%
X105446000Y-95820000D03*
X102906000Y-95820000D03*
X100366000Y-95820000D03*
%TD*%
%TO.C,J14*%
X113066000Y-93280000D03*
X110526000Y-93280000D03*
X107986000Y-93280000D03*
%TD*%
%TO.C,J13*%
X105446000Y-93280000D03*
X102906000Y-93280000D03*
X100366000Y-93280000D03*
%TD*%
%TO.C,J12*%
X113066000Y-90740000D03*
X110526000Y-90740000D03*
X107986000Y-90740000D03*
%TD*%
%TO.C,J11*%
X105446000Y-90740000D03*
X102906000Y-90740000D03*
X100366000Y-90740000D03*
%TD*%
%TO.C,J9*%
X105446000Y-88200000D03*
X102906000Y-88200000D03*
X100366000Y-88200000D03*
%TD*%
%TO.C,J8*%
X113066000Y-88200000D03*
X110526000Y-88200000D03*
X107986000Y-88200000D03*
%TD*%
%TO.C,J7*%
X105446000Y-85660000D03*
X102906000Y-85660000D03*
X100366000Y-85660000D03*
%TD*%
%TO.C,J6*%
X113066000Y-85660000D03*
X110526000Y-85660000D03*
X107986000Y-85660000D03*
%TD*%
%TO.C,J5*%
X105446000Y-83120000D03*
X102906000Y-83120000D03*
X100366000Y-83120000D03*
%TD*%
%TO.C,J4*%
X113066000Y-83120000D03*
X110526000Y-83120000D03*
X107986000Y-83120000D03*
%TD*%
%TO.C,J3*%
X105446000Y-80580000D03*
X102906000Y-80580000D03*
X100366000Y-80580000D03*
%TD*%
%TO.C,J2*%
X113066000Y-80580000D03*
X110526000Y-80580000D03*
X107986000Y-80580000D03*
%TD*%
D30*
%TO.C,SW2*%
X120153000Y-62160000D03*
X113853000Y-62160000D03*
X120153000Y-58360000D03*
X113853000Y-58360000D03*
%TD*%
%TO.C,SW1*%
X57084000Y-109668000D03*
X63384000Y-109668000D03*
X57084000Y-113468000D03*
X63384000Y-113468000D03*
%TD*%
%TO.C,R12*%
G36*
G01*
X81741000Y-96692500D02*
X81741000Y-96217500D01*
G75*
G02*
X81978500Y-95980000I237500J0D01*
G01*
X82478500Y-95980000D01*
G75*
G02*
X82716000Y-96217500I0J-237500D01*
G01*
X82716000Y-96692500D01*
G75*
G02*
X82478500Y-96930000I-237500J0D01*
G01*
X81978500Y-96930000D01*
G75*
G02*
X81741000Y-96692500I0J237500D01*
G01*
G37*
G36*
G01*
X79916000Y-96692500D02*
X79916000Y-96217500D01*
G75*
G02*
X80153500Y-95980000I237500J0D01*
G01*
X80653500Y-95980000D01*
G75*
G02*
X80891000Y-96217500I0J-237500D01*
G01*
X80891000Y-96692500D01*
G75*
G02*
X80653500Y-96930000I-237500J0D01*
G01*
X80153500Y-96930000D01*
G75*
G02*
X79916000Y-96692500I0J237500D01*
G01*
G37*
%TD*%
%TO.C,R11*%
G36*
G01*
X84662000Y-100883500D02*
X84662000Y-100408500D01*
G75*
G02*
X84899500Y-100171000I237500J0D01*
G01*
X85399500Y-100171000D01*
G75*
G02*
X85637000Y-100408500I0J-237500D01*
G01*
X85637000Y-100883500D01*
G75*
G02*
X85399500Y-101121000I-237500J0D01*
G01*
X84899500Y-101121000D01*
G75*
G02*
X84662000Y-100883500I0J237500D01*
G01*
G37*
G36*
G01*
X82837000Y-100883500D02*
X82837000Y-100408500D01*
G75*
G02*
X83074500Y-100171000I237500J0D01*
G01*
X83574500Y-100171000D01*
G75*
G02*
X83812000Y-100408500I0J-237500D01*
G01*
X83812000Y-100883500D01*
G75*
G02*
X83574500Y-101121000I-237500J0D01*
G01*
X83074500Y-101121000D01*
G75*
G02*
X82837000Y-100883500I0J237500D01*
G01*
G37*
%TD*%
D31*
%TO.C,J1*%
X64044000Y-99884000D03*
D32*
X58244000Y-99884000D03*
D33*
X61044000Y-104684000D03*
%TD*%
%TO.C,F1*%
G36*
G01*
X79528000Y-99871000D02*
X78278000Y-99871000D01*
G75*
G02*
X78028000Y-99621000I0J250000D01*
G01*
X78028000Y-98696000D01*
G75*
G02*
X78278000Y-98446000I250000J0D01*
G01*
X79528000Y-98446000D01*
G75*
G02*
X79778000Y-98696000I0J-250000D01*
G01*
X79778000Y-99621000D01*
G75*
G02*
X79528000Y-99871000I-250000J0D01*
G01*
G37*
G36*
G01*
X79528000Y-102846000D02*
X78278000Y-102846000D01*
G75*
G02*
X78028000Y-102596000I0J250000D01*
G01*
X78028000Y-101671000D01*
G75*
G02*
X78278000Y-101421000I250000J0D01*
G01*
X79528000Y-101421000D01*
G75*
G02*
X79778000Y-101671000I0J-250000D01*
G01*
X79778000Y-102596000D01*
G75*
G02*
X79528000Y-102846000I-250000J0D01*
G01*
G37*
%TD*%
D34*
%TO.C,J27*%
X118745000Y-68961000D03*
X118745000Y-74041000D03*
X118745000Y-79121000D03*
X118745000Y-84201000D03*
X118745000Y-89281000D03*
X118745000Y-94361000D03*
D35*
X118745000Y-109601000D03*
D34*
X118745000Y-99441000D03*
X118745000Y-104521000D03*
%TD*%
D28*
%TO.C,J23*%
X89698000Y-68896000D03*
%TD*%
D36*
%TO.C,U2*%
X73700000Y-97250000D03*
D37*
X71300000Y-97250000D03*
D36*
X68900000Y-97250000D03*
%TD*%
D23*
%TO.C,U5*%
X83200000Y-105150000D03*
X85200000Y-104200000D03*
X85200000Y-106100000D03*
%TD*%
D38*
%TO.C,U4*%
X90737000Y-87370000D03*
X90737000Y-88170000D03*
X90737000Y-88970000D03*
X90737000Y-89770000D03*
X90737000Y-90570000D03*
X90737000Y-91370000D03*
X90737000Y-92170000D03*
X90737000Y-92970000D03*
D39*
X89287000Y-94420000D03*
X88487000Y-94420000D03*
X87687000Y-94420000D03*
X86887000Y-94420000D03*
X86087000Y-94420000D03*
X85287000Y-94420000D03*
X84487000Y-94420000D03*
X83687000Y-94420000D03*
D38*
X82237000Y-92970000D03*
X82237000Y-92170000D03*
X82237000Y-91370000D03*
X82237000Y-90570000D03*
X82237000Y-89770000D03*
X82237000Y-88970000D03*
X82237000Y-88170000D03*
X82237000Y-87370000D03*
D39*
X83687000Y-85920000D03*
X84487000Y-85920000D03*
X85287000Y-85920000D03*
X86087000Y-85920000D03*
X86887000Y-85920000D03*
X87687000Y-85920000D03*
X88487000Y-85920000D03*
X89287000Y-85920000D03*
%TD*%
D27*
%TO.C,J26*%
X61340000Y-72040000D03*
X61340000Y-69500000D03*
X63880000Y-72040000D03*
X63880000Y-69500000D03*
X66420000Y-72040000D03*
X66420000Y-69500000D03*
X68960000Y-72040000D03*
X68960000Y-69500000D03*
X71500000Y-72040000D03*
D28*
X71500000Y-69500000D03*
%TD*%
D27*
%TO.C,J25*%
X112900000Y-74980000D03*
X112900000Y-72440000D03*
D28*
X112900000Y-69900000D03*
%TD*%
D27*
%TO.C,J24*%
X87158000Y-72452000D03*
X89698000Y-72452000D03*
D28*
X92238000Y-72452000D03*
%TD*%
D27*
%TO.C,ISP1*%
X52510000Y-66970000D03*
X55050000Y-66970000D03*
X52510000Y-69510000D03*
X55050000Y-69510000D03*
X52510000Y-72050000D03*
D28*
X55050000Y-72050000D03*
%TD*%
%TO.C,D4*%
G36*
G01*
X107050000Y-56549999D02*
X107050000Y-57450001D01*
G75*
G02*
X106800001Y-57700000I-249999J0D01*
G01*
X106149999Y-57700000D01*
G75*
G02*
X105900000Y-57450001I0J249999D01*
G01*
X105900000Y-56549999D01*
G75*
G02*
X106149999Y-56300000I249999J0D01*
G01*
X106800001Y-56300000D01*
G75*
G02*
X107050000Y-56549999I0J-249999D01*
G01*
G37*
G36*
G01*
X109100000Y-56549999D02*
X109100000Y-57450001D01*
G75*
G02*
X108850001Y-57700000I-249999J0D01*
G01*
X108199999Y-57700000D01*
G75*
G02*
X107950000Y-57450001I0J249999D01*
G01*
X107950000Y-56549999D01*
G75*
G02*
X108199999Y-56300000I249999J0D01*
G01*
X108850001Y-56300000D01*
G75*
G02*
X109100000Y-56549999I0J-249999D01*
G01*
G37*
%TD*%
%TO.C,D3*%
G36*
G01*
X52520001Y-91625000D02*
X51619999Y-91625000D01*
G75*
G02*
X51370000Y-91375001I0J249999D01*
G01*
X51370000Y-90724999D01*
G75*
G02*
X51619999Y-90475000I249999J0D01*
G01*
X52520001Y-90475000D01*
G75*
G02*
X52770000Y-90724999I0J-249999D01*
G01*
X52770000Y-91375001D01*
G75*
G02*
X52520001Y-91625000I-249999J0D01*
G01*
G37*
G36*
G01*
X52520001Y-93675000D02*
X51619999Y-93675000D01*
G75*
G02*
X51370000Y-93425001I0J249999D01*
G01*
X51370000Y-92774999D01*
G75*
G02*
X51619999Y-92525000I249999J0D01*
G01*
X52520001Y-92525000D01*
G75*
G02*
X52770000Y-92774999I0J-249999D01*
G01*
X52770000Y-93425001D01*
G75*
G02*
X52520001Y-93675000I-249999J0D01*
G01*
G37*
%TD*%
D40*
%TO.C,D1*%
X57000000Y-90600000D03*
D41*
X57000000Y-88060000D03*
%TD*%
%TO.C,C13*%
G36*
G01*
X110575000Y-64537500D02*
X110575000Y-64062500D01*
G75*
G02*
X110812500Y-63825000I237500J0D01*
G01*
X111412500Y-63825000D01*
G75*
G02*
X111650000Y-64062500I0J-237500D01*
G01*
X111650000Y-64537500D01*
G75*
G02*
X111412500Y-64775000I-237500J0D01*
G01*
X110812500Y-64775000D01*
G75*
G02*
X110575000Y-64537500I0J237500D01*
G01*
G37*
G36*
G01*
X108850000Y-64537500D02*
X108850000Y-64062500D01*
G75*
G02*
X109087500Y-63825000I237500J0D01*
G01*
X109687500Y-63825000D01*
G75*
G02*
X109925000Y-64062500I0J-237500D01*
G01*
X109925000Y-64537500D01*
G75*
G02*
X109687500Y-64775000I-237500J0D01*
G01*
X109087500Y-64775000D01*
G75*
G02*
X108850000Y-64537500I0J237500D01*
G01*
G37*
%TD*%
%TO.C,C12*%
G36*
G01*
X84954500Y-81612500D02*
X84954500Y-82087500D01*
G75*
G02*
X84717000Y-82325000I-237500J0D01*
G01*
X84117000Y-82325000D01*
G75*
G02*
X83879500Y-82087500I0J237500D01*
G01*
X83879500Y-81612500D01*
G75*
G02*
X84117000Y-81375000I237500J0D01*
G01*
X84717000Y-81375000D01*
G75*
G02*
X84954500Y-81612500I0J-237500D01*
G01*
G37*
G36*
G01*
X86679500Y-81612500D02*
X86679500Y-82087500D01*
G75*
G02*
X86442000Y-82325000I-237500J0D01*
G01*
X85842000Y-82325000D01*
G75*
G02*
X85604500Y-82087500I0J237500D01*
G01*
X85604500Y-81612500D01*
G75*
G02*
X85842000Y-81375000I237500J0D01*
G01*
X86442000Y-81375000D01*
G75*
G02*
X86679500Y-81612500I0J-237500D01*
G01*
G37*
%TD*%
%TO.C,C11*%
G36*
G01*
X82149000Y-82087500D02*
X82149000Y-81612500D01*
G75*
G02*
X82386500Y-81375000I237500J0D01*
G01*
X82986500Y-81375000D01*
G75*
G02*
X83224000Y-81612500I0J-237500D01*
G01*
X83224000Y-82087500D01*
G75*
G02*
X82986500Y-82325000I-237500J0D01*
G01*
X82386500Y-82325000D01*
G75*
G02*
X82149000Y-82087500I0J237500D01*
G01*
G37*
G36*
G01*
X80424000Y-82087500D02*
X80424000Y-81612500D01*
G75*
G02*
X80661500Y-81375000I237500J0D01*
G01*
X81261500Y-81375000D01*
G75*
G02*
X81499000Y-81612500I0J-237500D01*
G01*
X81499000Y-82087500D01*
G75*
G02*
X81261500Y-82325000I-237500J0D01*
G01*
X80661500Y-82325000D01*
G75*
G02*
X80424000Y-82087500I0J237500D01*
G01*
G37*
%TD*%
%TO.C,C10*%
G36*
G01*
X91700500Y-75483500D02*
X91700500Y-75008500D01*
G75*
G02*
X91938000Y-74771000I237500J0D01*
G01*
X92538000Y-74771000D01*
G75*
G02*
X92775500Y-75008500I0J-237500D01*
G01*
X92775500Y-75483500D01*
G75*
G02*
X92538000Y-75721000I-237500J0D01*
G01*
X91938000Y-75721000D01*
G75*
G02*
X91700500Y-75483500I0J237500D01*
G01*
G37*
G36*
G01*
X89975500Y-75483500D02*
X89975500Y-75008500D01*
G75*
G02*
X90213000Y-74771000I237500J0D01*
G01*
X90813000Y-74771000D01*
G75*
G02*
X91050500Y-75008500I0J-237500D01*
G01*
X91050500Y-75483500D01*
G75*
G02*
X90813000Y-75721000I-237500J0D01*
G01*
X90213000Y-75721000D01*
G75*
G02*
X89975500Y-75483500I0J237500D01*
G01*
G37*
%TD*%
%TO.C,C9*%
G36*
G01*
X95875000Y-88837500D02*
X95875000Y-88362500D01*
G75*
G02*
X96112500Y-88125000I237500J0D01*
G01*
X96712500Y-88125000D01*
G75*
G02*
X96950000Y-88362500I0J-237500D01*
G01*
X96950000Y-88837500D01*
G75*
G02*
X96712500Y-89075000I-237500J0D01*
G01*
X96112500Y-89075000D01*
G75*
G02*
X95875000Y-88837500I0J237500D01*
G01*
G37*
G36*
G01*
X94150000Y-88837500D02*
X94150000Y-88362500D01*
G75*
G02*
X94387500Y-88125000I237500J0D01*
G01*
X94987500Y-88125000D01*
G75*
G02*
X95225000Y-88362500I0J-237500D01*
G01*
X95225000Y-88837500D01*
G75*
G02*
X94987500Y-89075000I-237500J0D01*
G01*
X94387500Y-89075000D01*
G75*
G02*
X94150000Y-88837500I0J237500D01*
G01*
G37*
%TD*%
%TO.C,C8*%
G36*
G01*
X80824500Y-100971000D02*
X81299500Y-100971000D01*
G75*
G02*
X81537000Y-101208500I0J-237500D01*
G01*
X81537000Y-101808500D01*
G75*
G02*
X81299500Y-102046000I-237500J0D01*
G01*
X80824500Y-102046000D01*
G75*
G02*
X80587000Y-101808500I0J237500D01*
G01*
X80587000Y-101208500D01*
G75*
G02*
X80824500Y-100971000I237500J0D01*
G01*
G37*
G36*
G01*
X80824500Y-99246000D02*
X81299500Y-99246000D01*
G75*
G02*
X81537000Y-99483500I0J-237500D01*
G01*
X81537000Y-100083500D01*
G75*
G02*
X81299500Y-100321000I-237500J0D01*
G01*
X80824500Y-100321000D01*
G75*
G02*
X80587000Y-100083500I0J237500D01*
G01*
X80587000Y-99483500D01*
G75*
G02*
X80824500Y-99246000I237500J0D01*
G01*
G37*
%TD*%
%TO.C,C7*%
G36*
G01*
X89162500Y-105475000D02*
X89637500Y-105475000D01*
G75*
G02*
X89875000Y-105712500I0J-237500D01*
G01*
X89875000Y-106312500D01*
G75*
G02*
X89637500Y-106550000I-237500J0D01*
G01*
X89162500Y-106550000D01*
G75*
G02*
X88925000Y-106312500I0J237500D01*
G01*
X88925000Y-105712500D01*
G75*
G02*
X89162500Y-105475000I237500J0D01*
G01*
G37*
G36*
G01*
X89162500Y-103750000D02*
X89637500Y-103750000D01*
G75*
G02*
X89875000Y-103987500I0J-237500D01*
G01*
X89875000Y-104587500D01*
G75*
G02*
X89637500Y-104825000I-237500J0D01*
G01*
X89162500Y-104825000D01*
G75*
G02*
X88925000Y-104587500I0J237500D01*
G01*
X88925000Y-103987500D01*
G75*
G02*
X89162500Y-103750000I237500J0D01*
G01*
G37*
%TD*%
%TO.C,C6*%
G36*
G01*
X81337500Y-104925000D02*
X80862500Y-104925000D01*
G75*
G02*
X80625000Y-104687500I0J237500D01*
G01*
X80625000Y-104087500D01*
G75*
G02*
X80862500Y-103850000I237500J0D01*
G01*
X81337500Y-103850000D01*
G75*
G02*
X81575000Y-104087500I0J-237500D01*
G01*
X81575000Y-104687500D01*
G75*
G02*
X81337500Y-104925000I-237500J0D01*
G01*
G37*
G36*
G01*
X81337500Y-106650000D02*
X80862500Y-106650000D01*
G75*
G02*
X80625000Y-106412500I0J237500D01*
G01*
X80625000Y-105812500D01*
G75*
G02*
X80862500Y-105575000I237500J0D01*
G01*
X81337500Y-105575000D01*
G75*
G02*
X81575000Y-105812500I0J-237500D01*
G01*
X81575000Y-106412500D01*
G75*
G02*
X81337500Y-106650000I-237500J0D01*
G01*
G37*
%TD*%
%TO.C,C5*%
G36*
G01*
X76012500Y-100321000D02*
X75537500Y-100321000D01*
G75*
G02*
X75300000Y-100083500I0J237500D01*
G01*
X75300000Y-99483500D01*
G75*
G02*
X75537500Y-99246000I237500J0D01*
G01*
X76012500Y-99246000D01*
G75*
G02*
X76250000Y-99483500I0J-237500D01*
G01*
X76250000Y-100083500D01*
G75*
G02*
X76012500Y-100321000I-237500J0D01*
G01*
G37*
G36*
G01*
X76012500Y-102046000D02*
X75537500Y-102046000D01*
G75*
G02*
X75300000Y-101808500I0J237500D01*
G01*
X75300000Y-101208500D01*
G75*
G02*
X75537500Y-100971000I237500J0D01*
G01*
X76012500Y-100971000D01*
G75*
G02*
X76250000Y-101208500I0J-237500D01*
G01*
X76250000Y-101808500D01*
G75*
G02*
X76012500Y-102046000I-237500J0D01*
G01*
G37*
%TD*%
%TO.C,C4*%
G36*
G01*
X86071000Y-96217500D02*
X86071000Y-96692500D01*
G75*
G02*
X85833500Y-96930000I-237500J0D01*
G01*
X85233500Y-96930000D01*
G75*
G02*
X84996000Y-96692500I0J237500D01*
G01*
X84996000Y-96217500D01*
G75*
G02*
X85233500Y-95980000I237500J0D01*
G01*
X85833500Y-95980000D01*
G75*
G02*
X86071000Y-96217500I0J-237500D01*
G01*
G37*
G36*
G01*
X87796000Y-96217500D02*
X87796000Y-96692500D01*
G75*
G02*
X87558500Y-96930000I-237500J0D01*
G01*
X86958500Y-96930000D01*
G75*
G02*
X86721000Y-96692500I0J237500D01*
G01*
X86721000Y-96217500D01*
G75*
G02*
X86958500Y-95980000I237500J0D01*
G01*
X87558500Y-95980000D01*
G75*
G02*
X87796000Y-96217500I0J-237500D01*
G01*
G37*
%TD*%
%TO.C,C3*%
G36*
G01*
X86423000Y-83588500D02*
X86423000Y-84063500D01*
G75*
G02*
X86185500Y-84301000I-237500J0D01*
G01*
X85585500Y-84301000D01*
G75*
G02*
X85348000Y-84063500I0J237500D01*
G01*
X85348000Y-83588500D01*
G75*
G02*
X85585500Y-83351000I237500J0D01*
G01*
X86185500Y-83351000D01*
G75*
G02*
X86423000Y-83588500I0J-237500D01*
G01*
G37*
G36*
G01*
X88148000Y-83588500D02*
X88148000Y-84063500D01*
G75*
G02*
X87910500Y-84301000I-237500J0D01*
G01*
X87310500Y-84301000D01*
G75*
G02*
X87073000Y-84063500I0J237500D01*
G01*
X87073000Y-83588500D01*
G75*
G02*
X87310500Y-83351000I237500J0D01*
G01*
X87910500Y-83351000D01*
G75*
G02*
X88148000Y-83588500I0J-237500D01*
G01*
G37*
%TD*%
%TO.C,C2*%
G36*
G01*
X67237500Y-100321000D02*
X66762500Y-100321000D01*
G75*
G02*
X66525000Y-100083500I0J237500D01*
G01*
X66525000Y-99483500D01*
G75*
G02*
X66762500Y-99246000I237500J0D01*
G01*
X67237500Y-99246000D01*
G75*
G02*
X67475000Y-99483500I0J-237500D01*
G01*
X67475000Y-100083500D01*
G75*
G02*
X67237500Y-100321000I-237500J0D01*
G01*
G37*
G36*
G01*
X67237500Y-102046000D02*
X66762500Y-102046000D01*
G75*
G02*
X66525000Y-101808500I0J237500D01*
G01*
X66525000Y-101208500D01*
G75*
G02*
X66762500Y-100971000I237500J0D01*
G01*
X67237500Y-100971000D01*
G75*
G02*
X67475000Y-101208500I0J-237500D01*
G01*
X67475000Y-101808500D01*
G75*
G02*
X67237500Y-102046000I-237500J0D01*
G01*
G37*
%TD*%
%TO.C,C1*%
G36*
G01*
X84093500Y-97019000D02*
X83618500Y-97019000D01*
G75*
G02*
X83381000Y-96781500I0J237500D01*
G01*
X83381000Y-96181500D01*
G75*
G02*
X83618500Y-95944000I237500J0D01*
G01*
X84093500Y-95944000D01*
G75*
G02*
X84331000Y-96181500I0J-237500D01*
G01*
X84331000Y-96781500D01*
G75*
G02*
X84093500Y-97019000I-237500J0D01*
G01*
G37*
G36*
G01*
X84093500Y-98744000D02*
X83618500Y-98744000D01*
G75*
G02*
X83381000Y-98506500I0J237500D01*
G01*
X83381000Y-97906500D01*
G75*
G02*
X83618500Y-97669000I237500J0D01*
G01*
X84093500Y-97669000D01*
G75*
G02*
X84331000Y-97906500I0J-237500D01*
G01*
X84331000Y-98506500D01*
G75*
G02*
X84093500Y-98744000I-237500J0D01*
G01*
G37*
%TD*%
%TO.C,R1*%
G36*
G01*
X60760000Y-90737500D02*
X60760000Y-90262500D01*
G75*
G02*
X60997500Y-90025000I237500J0D01*
G01*
X61497500Y-90025000D01*
G75*
G02*
X61735000Y-90262500I0J-237500D01*
G01*
X61735000Y-90737500D01*
G75*
G02*
X61497500Y-90975000I-237500J0D01*
G01*
X60997500Y-90975000D01*
G75*
G02*
X60760000Y-90737500I0J237500D01*
G01*
G37*
G36*
G01*
X62585000Y-90737500D02*
X62585000Y-90262500D01*
G75*
G02*
X62822500Y-90025000I237500J0D01*
G01*
X63322500Y-90025000D01*
G75*
G02*
X63560000Y-90262500I0J-237500D01*
G01*
X63560000Y-90737500D01*
G75*
G02*
X63322500Y-90975000I-237500J0D01*
G01*
X62822500Y-90975000D01*
G75*
G02*
X62585000Y-90737500I0J237500D01*
G01*
G37*
%TD*%
%TO.C,R2*%
G36*
G01*
X63577500Y-88732500D02*
X63577500Y-89207500D01*
G75*
G02*
X63340000Y-89445000I-237500J0D01*
G01*
X62840000Y-89445000D01*
G75*
G02*
X62602500Y-89207500I0J237500D01*
G01*
X62602500Y-88732500D01*
G75*
G02*
X62840000Y-88495000I237500J0D01*
G01*
X63340000Y-88495000D01*
G75*
G02*
X63577500Y-88732500I0J-237500D01*
G01*
G37*
G36*
G01*
X61752500Y-88732500D02*
X61752500Y-89207500D01*
G75*
G02*
X61515000Y-89445000I-237500J0D01*
G01*
X61015000Y-89445000D01*
G75*
G02*
X60777500Y-89207500I0J237500D01*
G01*
X60777500Y-88732500D01*
G75*
G02*
X61015000Y-88495000I237500J0D01*
G01*
X61515000Y-88495000D01*
G75*
G02*
X61752500Y-88732500I0J-237500D01*
G01*
G37*
%TD*%
%TO.C,R3*%
G36*
G01*
X87637500Y-104725000D02*
X87162500Y-104725000D01*
G75*
G02*
X86925000Y-104487500I0J237500D01*
G01*
X86925000Y-103987500D01*
G75*
G02*
X87162500Y-103750000I237500J0D01*
G01*
X87637500Y-103750000D01*
G75*
G02*
X87875000Y-103987500I0J-237500D01*
G01*
X87875000Y-104487500D01*
G75*
G02*
X87637500Y-104725000I-237500J0D01*
G01*
G37*
G36*
G01*
X87637500Y-106550000D02*
X87162500Y-106550000D01*
G75*
G02*
X86925000Y-106312500I0J237500D01*
G01*
X86925000Y-105812500D01*
G75*
G02*
X87162500Y-105575000I237500J0D01*
G01*
X87637500Y-105575000D01*
G75*
G02*
X87875000Y-105812500I0J-237500D01*
G01*
X87875000Y-106312500D01*
G75*
G02*
X87637500Y-106550000I-237500J0D01*
G01*
G37*
%TD*%
%TO.C,R4*%
G36*
G01*
X79140500Y-106237000D02*
X78665500Y-106237000D01*
G75*
G02*
X78428000Y-105999500I0J237500D01*
G01*
X78428000Y-105499500D01*
G75*
G02*
X78665500Y-105262000I237500J0D01*
G01*
X79140500Y-105262000D01*
G75*
G02*
X79378000Y-105499500I0J-237500D01*
G01*
X79378000Y-105999500D01*
G75*
G02*
X79140500Y-106237000I-237500J0D01*
G01*
G37*
G36*
G01*
X79140500Y-104412000D02*
X78665500Y-104412000D01*
G75*
G02*
X78428000Y-104174500I0J237500D01*
G01*
X78428000Y-103674500D01*
G75*
G02*
X78665500Y-103437000I237500J0D01*
G01*
X79140500Y-103437000D01*
G75*
G02*
X79378000Y-103674500I0J-237500D01*
G01*
X79378000Y-104174500D01*
G75*
G02*
X79140500Y-104412000I-237500J0D01*
G01*
G37*
%TD*%
%TO.C,R5*%
G36*
G01*
X51832500Y-86484000D02*
X52307500Y-86484000D01*
G75*
G02*
X52545000Y-86721500I0J-237500D01*
G01*
X52545000Y-87221500D01*
G75*
G02*
X52307500Y-87459000I-237500J0D01*
G01*
X51832500Y-87459000D01*
G75*
G02*
X51595000Y-87221500I0J237500D01*
G01*
X51595000Y-86721500D01*
G75*
G02*
X51832500Y-86484000I237500J0D01*
G01*
G37*
G36*
G01*
X51832500Y-88309000D02*
X52307500Y-88309000D01*
G75*
G02*
X52545000Y-88546500I0J-237500D01*
G01*
X52545000Y-89046500D01*
G75*
G02*
X52307500Y-89284000I-237500J0D01*
G01*
X51832500Y-89284000D01*
G75*
G02*
X51595000Y-89046500I0J237500D01*
G01*
X51595000Y-88546500D01*
G75*
G02*
X51832500Y-88309000I237500J0D01*
G01*
G37*
%TD*%
%TO.C,R6*%
G36*
G01*
X95125000Y-89862500D02*
X95125000Y-90337500D01*
G75*
G02*
X94887500Y-90575000I-237500J0D01*
G01*
X94387500Y-90575000D01*
G75*
G02*
X94150000Y-90337500I0J237500D01*
G01*
X94150000Y-89862500D01*
G75*
G02*
X94387500Y-89625000I237500J0D01*
G01*
X94887500Y-89625000D01*
G75*
G02*
X95125000Y-89862500I0J-237500D01*
G01*
G37*
G36*
G01*
X96950000Y-89862500D02*
X96950000Y-90337500D01*
G75*
G02*
X96712500Y-90575000I-237500J0D01*
G01*
X96212500Y-90575000D01*
G75*
G02*
X95975000Y-90337500I0J237500D01*
G01*
X95975000Y-89862500D01*
G75*
G02*
X96212500Y-89625000I237500J0D01*
G01*
X96712500Y-89625000D01*
G75*
G02*
X96950000Y-89862500I0J-237500D01*
G01*
G37*
%TD*%
%TO.C,R7*%
G36*
G01*
X65362500Y-112625000D02*
X65837500Y-112625000D01*
G75*
G02*
X66075000Y-112862500I0J-237500D01*
G01*
X66075000Y-113362500D01*
G75*
G02*
X65837500Y-113600000I-237500J0D01*
G01*
X65362500Y-113600000D01*
G75*
G02*
X65125000Y-113362500I0J237500D01*
G01*
X65125000Y-112862500D01*
G75*
G02*
X65362500Y-112625000I237500J0D01*
G01*
G37*
G36*
G01*
X65362500Y-110800000D02*
X65837500Y-110800000D01*
G75*
G02*
X66075000Y-111037500I0J-237500D01*
G01*
X66075000Y-111537500D01*
G75*
G02*
X65837500Y-111775000I-237500J0D01*
G01*
X65362500Y-111775000D01*
G75*
G02*
X65125000Y-111537500I0J237500D01*
G01*
X65125000Y-111037500D01*
G75*
G02*
X65362500Y-110800000I237500J0D01*
G01*
G37*
%TD*%
%TO.C,R8*%
G36*
G01*
X108475000Y-59637500D02*
X108475000Y-59162500D01*
G75*
G02*
X108712500Y-58925000I237500J0D01*
G01*
X109212500Y-58925000D01*
G75*
G02*
X109450000Y-59162500I0J-237500D01*
G01*
X109450000Y-59637500D01*
G75*
G02*
X109212500Y-59875000I-237500J0D01*
G01*
X108712500Y-59875000D01*
G75*
G02*
X108475000Y-59637500I0J237500D01*
G01*
G37*
G36*
G01*
X106650000Y-59637500D02*
X106650000Y-59162500D01*
G75*
G02*
X106887500Y-58925000I237500J0D01*
G01*
X107387500Y-58925000D01*
G75*
G02*
X107625000Y-59162500I0J-237500D01*
G01*
X107625000Y-59637500D01*
G75*
G02*
X107387500Y-59875000I-237500J0D01*
G01*
X106887500Y-59875000D01*
G75*
G02*
X106650000Y-59637500I0J237500D01*
G01*
G37*
%TD*%
%TO.C,R9*%
G36*
G01*
X111600000Y-65712500D02*
X111600000Y-66187500D01*
G75*
G02*
X111362500Y-66425000I-237500J0D01*
G01*
X110862500Y-66425000D01*
G75*
G02*
X110625000Y-66187500I0J237500D01*
G01*
X110625000Y-65712500D01*
G75*
G02*
X110862500Y-65475000I237500J0D01*
G01*
X111362500Y-65475000D01*
G75*
G02*
X111600000Y-65712500I0J-237500D01*
G01*
G37*
G36*
G01*
X109775000Y-65712500D02*
X109775000Y-66187500D01*
G75*
G02*
X109537500Y-66425000I-237500J0D01*
G01*
X109037500Y-66425000D01*
G75*
G02*
X108800000Y-66187500I0J237500D01*
G01*
X108800000Y-65712500D01*
G75*
G02*
X109037500Y-65475000I237500J0D01*
G01*
X109537500Y-65475000D01*
G75*
G02*
X109775000Y-65712500I0J-237500D01*
G01*
G37*
%TD*%
M02*
