%TF.GenerationSoftware,KiCad,Pcbnew,(5.1.7)-1*%
%TF.CreationDate,2020-10-17T19:17:15+02:00*%
%TF.ProjectId,Atmega_328_breakout,41746d65-6761-45f3-9332-385f62726561,rev?*%
%TF.SameCoordinates,Original*%
%TF.FileFunction,Legend,Bot*%
%TF.FilePolarity,Positive*%
%FSLAX46Y46*%
G04 Gerber Fmt 4.6, Leading zero omitted, Abs format (unit mm)*
G04 Created by KiCad (PCBNEW (5.1.7)-1) date 2020-10-17 19:17:15*
%MOMM*%
%LPD*%
G01*
G04 APERTURE LIST*
%ADD10C,0.200000*%
%ADD11C,0.300000*%
%ADD12C,3.000000*%
%ADD13R,3.000000X3.000000*%
%ADD14R,1.700000X1.700000*%
%ADD15O,1.700000X1.700000*%
%ADD16O,2.000000X1.300000*%
%ADD17R,2.000000X1.300000*%
%ADD18C,1.500000*%
%ADD19C,2.000000*%
%ADD20O,0.800000X0.800000*%
%ADD21O,1.800000X1.150000*%
%ADD22O,2.000000X1.450000*%
%ADD23R,3.500000X3.500000*%
%ADD24O,1.800000X1.800000*%
%ADD25R,1.800000X1.800000*%
%ADD26C,1.524000*%
%ADD27C,3.937000*%
%ADD28O,1.524000X2.540000*%
G04 APERTURE END LIST*
D10*
X62740476Y-76357142D02*
X63026190Y-76452380D01*
X63121428Y-76547619D01*
X63216666Y-76738095D01*
X63216666Y-77023809D01*
X63121428Y-77214285D01*
X63026190Y-77309523D01*
X62835714Y-77404761D01*
X62073809Y-77404761D01*
X62073809Y-75404761D01*
X62740476Y-75404761D01*
X62930952Y-75500000D01*
X63026190Y-75595238D01*
X63121428Y-75785714D01*
X63121428Y-75976190D01*
X63026190Y-76166666D01*
X62930952Y-76261904D01*
X62740476Y-76357142D01*
X62073809Y-76357142D01*
X65216666Y-77404761D02*
X64550000Y-76452380D01*
X64073809Y-77404761D02*
X64073809Y-75404761D01*
X64835714Y-75404761D01*
X65026190Y-75500000D01*
X65121428Y-75595238D01*
X65216666Y-75785714D01*
X65216666Y-76071428D01*
X65121428Y-76261904D01*
X65026190Y-76357142D01*
X64835714Y-76452380D01*
X64073809Y-76452380D01*
X66073809Y-76357142D02*
X66740476Y-76357142D01*
X67026190Y-77404761D02*
X66073809Y-77404761D01*
X66073809Y-75404761D01*
X67026190Y-75404761D01*
X67788095Y-76833333D02*
X68740476Y-76833333D01*
X67597619Y-77404761D02*
X68264285Y-75404761D01*
X68930952Y-77404761D01*
X69597619Y-77404761D02*
X69597619Y-75404761D01*
X70740476Y-77404761D02*
X69883333Y-76261904D01*
X70740476Y-75404761D02*
X69597619Y-76547619D01*
X71978571Y-75404761D02*
X72359523Y-75404761D01*
X72550000Y-75500000D01*
X72740476Y-75690476D01*
X72835714Y-76071428D01*
X72835714Y-76738095D01*
X72740476Y-77119047D01*
X72550000Y-77309523D01*
X72359523Y-77404761D01*
X71978571Y-77404761D01*
X71788095Y-77309523D01*
X71597619Y-77119047D01*
X71502380Y-76738095D01*
X71502380Y-76071428D01*
X71597619Y-75690476D01*
X71788095Y-75500000D01*
X71978571Y-75404761D01*
X73692857Y-75404761D02*
X73692857Y-77023809D01*
X73788095Y-77214285D01*
X73883333Y-77309523D01*
X74073809Y-77404761D01*
X74454761Y-77404761D01*
X74645238Y-77309523D01*
X74740476Y-77214285D01*
X74835714Y-77023809D01*
X74835714Y-75404761D01*
X75502380Y-75404761D02*
X76645238Y-75404761D01*
X76073809Y-77404761D02*
X76073809Y-75404761D01*
X77978571Y-76357142D02*
X78264285Y-76452380D01*
X78359523Y-76547619D01*
X78454761Y-76738095D01*
X78454761Y-77023809D01*
X78359523Y-77214285D01*
X78264285Y-77309523D01*
X78073809Y-77404761D01*
X77311904Y-77404761D01*
X77311904Y-75404761D01*
X77978571Y-75404761D01*
X78169047Y-75500000D01*
X78264285Y-75595238D01*
X78359523Y-75785714D01*
X78359523Y-75976190D01*
X78264285Y-76166666D01*
X78169047Y-76261904D01*
X77978571Y-76357142D01*
X77311904Y-76357142D01*
X79692857Y-75404761D02*
X80073809Y-75404761D01*
X80264285Y-75500000D01*
X80454761Y-75690476D01*
X80550000Y-76071428D01*
X80550000Y-76738095D01*
X80454761Y-77119047D01*
X80264285Y-77309523D01*
X80073809Y-77404761D01*
X79692857Y-77404761D01*
X79502380Y-77309523D01*
X79311904Y-77119047D01*
X79216666Y-76738095D01*
X79216666Y-76071428D01*
X79311904Y-75690476D01*
X79502380Y-75500000D01*
X79692857Y-75404761D01*
X81407142Y-77404761D02*
X81407142Y-75404761D01*
X81883333Y-75404761D01*
X82169047Y-75500000D01*
X82359523Y-75690476D01*
X82454761Y-75880952D01*
X82550000Y-76261904D01*
X82550000Y-76547619D01*
X82454761Y-76928571D01*
X82359523Y-77119047D01*
X82169047Y-77309523D01*
X81883333Y-77404761D01*
X81407142Y-77404761D01*
X84454761Y-75500000D02*
X84264285Y-75404761D01*
X83978571Y-75404761D01*
X83692857Y-75500000D01*
X83502380Y-75690476D01*
X83407142Y-75880952D01*
X83311904Y-76261904D01*
X83311904Y-76547619D01*
X83407142Y-76928571D01*
X83502380Y-77119047D01*
X83692857Y-77309523D01*
X83978571Y-77404761D01*
X84169047Y-77404761D01*
X84454761Y-77309523D01*
X84550000Y-77214285D01*
X84550000Y-76547619D01*
X84169047Y-76547619D01*
X85407142Y-76357142D02*
X86073809Y-76357142D01*
X86359523Y-77404761D02*
X85407142Y-77404761D01*
X85407142Y-75404761D01*
X86359523Y-75404761D01*
X88359523Y-77404761D02*
X87692857Y-76452380D01*
X87216666Y-77404761D02*
X87216666Y-75404761D01*
X87978571Y-75404761D01*
X88169047Y-75500000D01*
X88264285Y-75595238D01*
X88359523Y-75785714D01*
X88359523Y-76071428D01*
X88264285Y-76261904D01*
X88169047Y-76357142D01*
X87978571Y-76452380D01*
X87216666Y-76452380D01*
X90740476Y-77404761D02*
X90740476Y-75404761D01*
X91216666Y-75404761D01*
X91502380Y-75500000D01*
X91692857Y-75690476D01*
X91788095Y-75880952D01*
X91883333Y-76261904D01*
X91883333Y-76547619D01*
X91788095Y-76928571D01*
X91692857Y-77119047D01*
X91502380Y-77309523D01*
X91216666Y-77404761D01*
X90740476Y-77404761D01*
X92740476Y-76357142D02*
X93407142Y-76357142D01*
X93692857Y-77404761D02*
X92740476Y-77404761D01*
X92740476Y-75404761D01*
X93692857Y-75404761D01*
X95502380Y-77404761D02*
X94550000Y-77404761D01*
X94550000Y-75404761D01*
X96169047Y-75404761D02*
X96169047Y-77023809D01*
X96264285Y-77214285D01*
X96359523Y-77309523D01*
X96550000Y-77404761D01*
X96930952Y-77404761D01*
X97121428Y-77309523D01*
X97216666Y-77214285D01*
X97311904Y-77023809D01*
X97311904Y-75404761D01*
X98073809Y-75404761D02*
X99407142Y-77404761D01*
X99407142Y-75404761D02*
X98073809Y-77404761D01*
X100169047Y-76357142D02*
X100835714Y-76357142D01*
X101121428Y-77404761D02*
X100169047Y-77404761D01*
X100169047Y-75404761D01*
X101121428Y-75404761D01*
D11*
X76164285Y-106628571D02*
X76164285Y-105128571D01*
X76664285Y-106200000D01*
X77164285Y-105128571D01*
X77164285Y-106628571D01*
X78521428Y-106628571D02*
X78521428Y-105842857D01*
X78450000Y-105700000D01*
X78307142Y-105628571D01*
X78021428Y-105628571D01*
X77878571Y-105700000D01*
X78521428Y-106557142D02*
X78378571Y-106628571D01*
X78021428Y-106628571D01*
X77878571Y-106557142D01*
X77807142Y-106414285D01*
X77807142Y-106271428D01*
X77878571Y-106128571D01*
X78021428Y-106057142D01*
X78378571Y-106057142D01*
X78521428Y-105985714D01*
X79878571Y-106628571D02*
X79878571Y-105128571D01*
X79878571Y-106557142D02*
X79735714Y-106628571D01*
X79450000Y-106628571D01*
X79307142Y-106557142D01*
X79235714Y-106485714D01*
X79164285Y-106342857D01*
X79164285Y-105914285D01*
X79235714Y-105771428D01*
X79307142Y-105700000D01*
X79450000Y-105628571D01*
X79735714Y-105628571D01*
X79878571Y-105700000D01*
X81164285Y-106557142D02*
X81021428Y-106628571D01*
X80735714Y-106628571D01*
X80592857Y-106557142D01*
X80521428Y-106414285D01*
X80521428Y-105842857D01*
X80592857Y-105700000D01*
X80735714Y-105628571D01*
X81021428Y-105628571D01*
X81164285Y-105700000D01*
X81235714Y-105842857D01*
X81235714Y-105985714D01*
X80521428Y-106128571D01*
X83021428Y-106628571D02*
X83021428Y-105128571D01*
X83021428Y-105700000D02*
X83164285Y-105628571D01*
X83450000Y-105628571D01*
X83592857Y-105700000D01*
X83664285Y-105771428D01*
X83735714Y-105914285D01*
X83735714Y-106342857D01*
X83664285Y-106485714D01*
X83592857Y-106557142D01*
X83450000Y-106628571D01*
X83164285Y-106628571D01*
X83021428Y-106557142D01*
X84235714Y-105628571D02*
X84592857Y-106628571D01*
X84950000Y-105628571D02*
X84592857Y-106628571D01*
X84450000Y-106985714D01*
X84378571Y-107057142D01*
X84235714Y-107128571D01*
X87092857Y-105128571D02*
X87092857Y-106200000D01*
X87021428Y-106414285D01*
X86878571Y-106557142D01*
X86664285Y-106628571D01*
X86521428Y-106628571D01*
X88592857Y-105628571D02*
X87664285Y-106628571D01*
X88021428Y-106628571D02*
X87878571Y-106557142D01*
X87807142Y-106485714D01*
X87735714Y-106342857D01*
X87735714Y-105914285D01*
X87807142Y-105771428D01*
X87878571Y-105700000D01*
X88021428Y-105628571D01*
X88235714Y-105628571D01*
X88378571Y-105700000D01*
X88450000Y-105771428D01*
X88521428Y-105914285D01*
X88521428Y-106342857D01*
X88450000Y-106485714D01*
X88378571Y-106557142D01*
X88235714Y-106628571D01*
X88021428Y-106628571D01*
X89164285Y-106628571D02*
X89164285Y-105628571D01*
X89164285Y-105914285D02*
X89235714Y-105771428D01*
X89307142Y-105700000D01*
X89450000Y-105628571D01*
X89592857Y-105628571D01*
X90735714Y-105628571D02*
X90735714Y-106842857D01*
X90664285Y-106985714D01*
X90592857Y-107057142D01*
X90450000Y-107128571D01*
X90235714Y-107128571D01*
X90092857Y-107057142D01*
X90735714Y-106557142D02*
X90592857Y-106628571D01*
X90307142Y-106628571D01*
X90164285Y-106557142D01*
X90092857Y-106485714D01*
X90021428Y-106342857D01*
X90021428Y-105914285D01*
X90092857Y-105771428D01*
X90164285Y-105700000D01*
X90307142Y-105628571D01*
X90592857Y-105628571D01*
X90735714Y-105700000D01*
X92021428Y-106557142D02*
X91878571Y-106628571D01*
X91592857Y-106628571D01*
X91449999Y-106557142D01*
X91378571Y-106414285D01*
X91378571Y-105842857D01*
X91449999Y-105700000D01*
X91592857Y-105628571D01*
X91878571Y-105628571D01*
X92021428Y-105700000D01*
X92092857Y-105842857D01*
X92092857Y-105985714D01*
X91378571Y-106128571D01*
X92735714Y-105628571D02*
X92735714Y-106628571D01*
X92735714Y-105771428D02*
X92807142Y-105700000D01*
X92950000Y-105628571D01*
X93164285Y-105628571D01*
X93307142Y-105700000D01*
X93378571Y-105842857D01*
X93378571Y-106628571D01*
X95164285Y-106557142D02*
X95378571Y-106628571D01*
X95735714Y-106628571D01*
X95878571Y-106557142D01*
X95949999Y-106485714D01*
X96021428Y-106342857D01*
X96021428Y-106200000D01*
X95949999Y-106057142D01*
X95878571Y-105985714D01*
X95735714Y-105914285D01*
X95449999Y-105842857D01*
X95307142Y-105771428D01*
X95235714Y-105700000D01*
X95164285Y-105557142D01*
X95164285Y-105414285D01*
X95235714Y-105271428D01*
X95307142Y-105200000D01*
X95449999Y-105128571D01*
X95807142Y-105128571D01*
X96021428Y-105200000D01*
X96449999Y-105628571D02*
X97021428Y-105628571D01*
X96664285Y-105128571D02*
X96664285Y-106414285D01*
X96735714Y-106557142D01*
X96878571Y-106628571D01*
X97021428Y-106628571D01*
X98092857Y-106557142D02*
X97950000Y-106628571D01*
X97664285Y-106628571D01*
X97521428Y-106557142D01*
X97450000Y-106414285D01*
X97450000Y-105842857D01*
X97521428Y-105700000D01*
X97664285Y-105628571D01*
X97950000Y-105628571D01*
X98092857Y-105700000D01*
X98164285Y-105842857D01*
X98164285Y-105985714D01*
X97450000Y-106128571D01*
X99378571Y-106557142D02*
X99235714Y-106628571D01*
X98950000Y-106628571D01*
X98807142Y-106557142D01*
X98735714Y-106414285D01*
X98735714Y-105842857D01*
X98807142Y-105700000D01*
X98950000Y-105628571D01*
X99235714Y-105628571D01*
X99378571Y-105700000D01*
X99450000Y-105842857D01*
X99450000Y-105985714D01*
X98735714Y-106128571D01*
X100092857Y-105628571D02*
X100092857Y-106628571D01*
X100092857Y-105771428D02*
X100164285Y-105700000D01*
X100307142Y-105628571D01*
X100521428Y-105628571D01*
X100664285Y-105700000D01*
X100735714Y-105842857D01*
X100735714Y-106628571D01*
%LPC*%
D12*
%TO.C,J27*%
X118745000Y-68961000D03*
X118745000Y-74041000D03*
X118745000Y-79121000D03*
X118745000Y-84201000D03*
X118745000Y-89281000D03*
X118745000Y-94361000D03*
D13*
X118745000Y-109601000D03*
D12*
X118745000Y-99441000D03*
X118745000Y-104521000D03*
%TD*%
D14*
%TO.C,J23*%
X90600000Y-65000000D03*
%TD*%
D15*
%TO.C,J10*%
X112750000Y-108650000D03*
X110210000Y-108650000D03*
X112750000Y-106110000D03*
X110210000Y-106110000D03*
X112750000Y-103570000D03*
D14*
X110210000Y-103570000D03*
%TD*%
D16*
%TO.C,U2*%
X71400000Y-103550000D03*
D17*
X71400000Y-101150000D03*
D16*
X71400000Y-98750000D03*
%TD*%
D18*
%TO.C,Y1*%
X84000000Y-79100000D03*
X88880000Y-79100000D03*
%TD*%
D19*
%TO.C,SW2*%
X120600000Y-57600000D03*
X120600000Y-62100000D03*
X114100000Y-57600000D03*
X114100000Y-62100000D03*
%TD*%
%TO.C,SW1*%
X56600000Y-113600000D03*
X56600000Y-109100000D03*
X63100000Y-113600000D03*
X63100000Y-109100000D03*
%TD*%
D20*
%TO.C,J28*%
X54400000Y-82800000D03*
X54400000Y-77800000D03*
D21*
X51650000Y-84175000D03*
X51650000Y-76425000D03*
D22*
X55450000Y-84025000D03*
X55450000Y-76575000D03*
%TD*%
D15*
%TO.C,J26*%
X61340000Y-72040000D03*
X61340000Y-69500000D03*
X63880000Y-72040000D03*
X63880000Y-69500000D03*
X66420000Y-72040000D03*
X66420000Y-69500000D03*
X68960000Y-72040000D03*
X68960000Y-69500000D03*
X71500000Y-72040000D03*
D14*
X71500000Y-69500000D03*
%TD*%
D15*
%TO.C,J25*%
X112900000Y-74980000D03*
X112900000Y-72440000D03*
D14*
X112900000Y-69900000D03*
%TD*%
D15*
%TO.C,J24*%
X88020000Y-68900000D03*
X90560000Y-68900000D03*
D14*
X93100000Y-68900000D03*
%TD*%
D15*
%TO.C,J22*%
X101981000Y-57277000D03*
X99441000Y-57277000D03*
X96901000Y-57277000D03*
X94361000Y-57277000D03*
X91821000Y-57277000D03*
X89281000Y-57277000D03*
X86741000Y-57277000D03*
D14*
X84201000Y-57277000D03*
%TD*%
D15*
%TO.C,J21*%
X81661000Y-57277000D03*
X79121000Y-57277000D03*
X76581000Y-57277000D03*
X74041000Y-57277000D03*
X71501000Y-57277000D03*
X68961000Y-57277000D03*
X66421000Y-57277000D03*
D14*
X63881000Y-57277000D03*
%TD*%
D15*
%TO.C,J20*%
X107030000Y-113150000D03*
X104490000Y-113150000D03*
X101950000Y-113150000D03*
X99410000Y-113150000D03*
X96870000Y-113150000D03*
X94330000Y-113150000D03*
X91790000Y-113150000D03*
D14*
X89250000Y-113150000D03*
%TD*%
D15*
%TO.C,J19*%
X74041000Y-113157000D03*
X76581000Y-113157000D03*
X79121000Y-113157000D03*
X81661000Y-113157000D03*
X84201000Y-113157000D03*
D14*
X86741000Y-113157000D03*
%TD*%
%TO.C,J1*%
G36*
G01*
X58194000Y-105777000D02*
X58194000Y-104027000D01*
G75*
G02*
X59069000Y-103152000I875000J0D01*
G01*
X60819000Y-103152000D01*
G75*
G02*
X61694000Y-104027000I0J-875000D01*
G01*
X61694000Y-105777000D01*
G75*
G02*
X60819000Y-106652000I-875000J0D01*
G01*
X59069000Y-106652000D01*
G75*
G02*
X58194000Y-105777000I0J875000D01*
G01*
G37*
G36*
G01*
X55444000Y-101202000D02*
X55444000Y-99202000D01*
G75*
G02*
X56194000Y-98452000I750000J0D01*
G01*
X57694000Y-98452000D01*
G75*
G02*
X58444000Y-99202000I0J-750000D01*
G01*
X58444000Y-101202000D01*
G75*
G02*
X57694000Y-101952000I-750000J0D01*
G01*
X56194000Y-101952000D01*
G75*
G02*
X55444000Y-101202000I0J750000D01*
G01*
G37*
D23*
X62944000Y-100202000D03*
%TD*%
D15*
%TO.C,ISP1*%
X52510000Y-66970000D03*
X55050000Y-66970000D03*
X52510000Y-69510000D03*
X55050000Y-69510000D03*
X52510000Y-72050000D03*
D14*
X55050000Y-72050000D03*
%TD*%
D24*
%TO.C,D1*%
X57000000Y-90600000D03*
D25*
X57000000Y-88060000D03*
%TD*%
D26*
%TO.C,F1*%
X69600000Y-111864000D03*
X69600000Y-107800000D03*
%TD*%
D14*
%TO.C,J2*%
X112247158Y-96311198D03*
X109707158Y-96311198D03*
%TD*%
%TO.C,J3*%
X101869158Y-96343198D03*
X99329158Y-96343198D03*
%TD*%
%TO.C,J4*%
X112247158Y-91231198D03*
X109707158Y-91231198D03*
%TD*%
%TO.C,J5*%
X112247158Y-93771198D03*
X109707158Y-93771198D03*
%TD*%
%TO.C,J6*%
X101869158Y-93803198D03*
X99329158Y-93803198D03*
%TD*%
%TO.C,J7*%
X101869158Y-91263198D03*
X99329158Y-91263198D03*
%TD*%
%TO.C,J8*%
X101869158Y-88723198D03*
X99329158Y-88723198D03*
%TD*%
%TO.C,J9*%
X101869158Y-86183198D03*
X99329158Y-86183198D03*
%TD*%
%TO.C,J11*%
X101869158Y-83643198D03*
X99329158Y-83643198D03*
%TD*%
%TO.C,J12*%
X101869158Y-81103198D03*
X99329158Y-81103198D03*
%TD*%
%TO.C,J13*%
X112247158Y-81071198D03*
X109707158Y-81071198D03*
%TD*%
%TO.C,J14*%
X112247158Y-98851198D03*
X109707158Y-98851198D03*
%TD*%
%TO.C,J15*%
X101869158Y-98883198D03*
X99329158Y-98883198D03*
%TD*%
%TO.C,J16*%
X112247158Y-83611198D03*
X109707158Y-83611198D03*
%TD*%
%TO.C,J17*%
X112247158Y-86151198D03*
X109707158Y-86151198D03*
%TD*%
%TO.C,J18*%
X112247158Y-88691198D03*
X109707158Y-88691198D03*
%TD*%
D27*
%TO.C,SHIELD1*%
X53194000Y-109604000D03*
X54464000Y-61344000D03*
X105264000Y-76584000D03*
X105264000Y-104524000D03*
D28*
X77324000Y-109604000D03*
X63100000Y-61344000D03*
X65640000Y-61344000D03*
X68180000Y-61344000D03*
X70720000Y-61344000D03*
X73260000Y-61344000D03*
X75800000Y-61344000D03*
X78340000Y-61344000D03*
X80880000Y-61344000D03*
X84944000Y-61344000D03*
X87484000Y-61344000D03*
X90024000Y-61344000D03*
X92564000Y-61344000D03*
X95104000Y-61344000D03*
X97644000Y-61344000D03*
X100184000Y-61344000D03*
X102724000Y-61344000D03*
X72244000Y-109604000D03*
X74784000Y-109604000D03*
X79864000Y-109604000D03*
X82404000Y-109604000D03*
X84944000Y-109604000D03*
X95104000Y-109604000D03*
X92564000Y-109604000D03*
X90024000Y-109604000D03*
X97644000Y-109604000D03*
X100184000Y-109604000D03*
X102724000Y-109604000D03*
%TD*%
M02*
