%TF.GenerationSoftware,KiCad,Pcbnew,(5.1.7)-1*%
%TF.CreationDate,2020-10-18T16:27:23+02:00*%
%TF.ProjectId,Atmega_328_breakout,41746d65-6761-45f3-9332-385f62726561,rev?*%
%TF.SameCoordinates,Original*%
%TF.FileFunction,Soldermask,Bot*%
%TF.FilePolarity,Negative*%
%FSLAX46Y46*%
G04 Gerber Fmt 4.6, Leading zero omitted, Abs format (unit mm)*
G04 Created by KiCad (PCBNEW (5.1.7)-1) date 2020-10-18 16:27:23*
%MOMM*%
%LPD*%
G01*
G04 APERTURE LIST*
%ADD10O,1.700000X1.700000*%
%ADD11R,1.700000X1.700000*%
%ADD12C,3.937000*%
%ADD13O,1.524000X2.540000*%
%ADD14R,1.800000X4.400000*%
%ADD15O,1.800000X4.000000*%
%ADD16O,4.000000X1.800000*%
%ADD17C,3.000000*%
%ADD18R,3.000000X3.000000*%
%ADD19O,1.300000X2.000000*%
%ADD20R,1.300000X2.000000*%
%ADD21O,0.800000X0.800000*%
%ADD22O,1.800000X1.150000*%
%ADD23O,2.000000X1.450000*%
%ADD24O,1.800000X1.800000*%
%ADD25R,1.800000X1.800000*%
G04 APERTURE END LIST*
D10*
%TO.C,J20*%
X107030000Y-113150000D03*
X104490000Y-113150000D03*
X101950000Y-113150000D03*
X99410000Y-113150000D03*
X96870000Y-113150000D03*
X94330000Y-113150000D03*
X91790000Y-113150000D03*
D11*
X89250000Y-113150000D03*
%TD*%
D10*
%TO.C,J10*%
X112812000Y-103186000D03*
X110272000Y-103186000D03*
X112812000Y-105726000D03*
X110272000Y-105726000D03*
X112812000Y-108266000D03*
D11*
X110272000Y-108266000D03*
%TD*%
D10*
%TO.C,J22*%
X101981000Y-57277000D03*
X99441000Y-57277000D03*
X96901000Y-57277000D03*
X94361000Y-57277000D03*
X91821000Y-57277000D03*
X89281000Y-57277000D03*
X86741000Y-57277000D03*
D11*
X84201000Y-57277000D03*
%TD*%
D10*
%TO.C,J21*%
X81661000Y-57277000D03*
X79121000Y-57277000D03*
X76581000Y-57277000D03*
X74041000Y-57277000D03*
X71501000Y-57277000D03*
X68961000Y-57277000D03*
X66421000Y-57277000D03*
D11*
X63881000Y-57277000D03*
%TD*%
D10*
%TO.C,J19*%
X74041000Y-113157000D03*
X76581000Y-113157000D03*
X79121000Y-113157000D03*
X81661000Y-113157000D03*
X84201000Y-113157000D03*
D11*
X86741000Y-113157000D03*
%TD*%
%TO.C,J18*%
X113066000Y-98360000D03*
X110526000Y-98360000D03*
X107986000Y-98360000D03*
%TD*%
%TO.C,J17*%
X105446000Y-98360000D03*
X102906000Y-98360000D03*
X100366000Y-98360000D03*
%TD*%
%TO.C,J16*%
X113066000Y-95820000D03*
X110526000Y-95820000D03*
X107986000Y-95820000D03*
%TD*%
%TO.C,J15*%
X105446000Y-95820000D03*
X102906000Y-95820000D03*
X100366000Y-95820000D03*
%TD*%
%TO.C,J14*%
X113066000Y-93280000D03*
X110526000Y-93280000D03*
X107986000Y-93280000D03*
%TD*%
%TO.C,J13*%
X105446000Y-93280000D03*
X102906000Y-93280000D03*
X100366000Y-93280000D03*
%TD*%
%TO.C,J12*%
X113066000Y-90740000D03*
X110526000Y-90740000D03*
X107986000Y-90740000D03*
%TD*%
%TO.C,J11*%
X105446000Y-90740000D03*
X102906000Y-90740000D03*
X100366000Y-90740000D03*
%TD*%
%TO.C,J9*%
X105446000Y-88200000D03*
X102906000Y-88200000D03*
X100366000Y-88200000D03*
%TD*%
%TO.C,J8*%
X113066000Y-88200000D03*
X110526000Y-88200000D03*
X107986000Y-88200000D03*
%TD*%
%TO.C,J7*%
X105446000Y-85660000D03*
X102906000Y-85660000D03*
X100366000Y-85660000D03*
%TD*%
%TO.C,J6*%
X113066000Y-85660000D03*
X110526000Y-85660000D03*
X107986000Y-85660000D03*
%TD*%
%TO.C,J5*%
X105446000Y-83120000D03*
X102906000Y-83120000D03*
X100366000Y-83120000D03*
%TD*%
%TO.C,J4*%
X113066000Y-83120000D03*
X110526000Y-83120000D03*
X107986000Y-83120000D03*
%TD*%
%TO.C,J3*%
X105446000Y-80580000D03*
X102906000Y-80580000D03*
X100366000Y-80580000D03*
%TD*%
%TO.C,J2*%
X113066000Y-80580000D03*
X110526000Y-80580000D03*
X107986000Y-80580000D03*
%TD*%
D12*
%TO.C,SHIELD1*%
X53249000Y-109663000D03*
X54519000Y-61403000D03*
X105319000Y-76643000D03*
X105319000Y-104583000D03*
D13*
X77379000Y-109663000D03*
X63155000Y-61403000D03*
X65695000Y-61403000D03*
X68235000Y-61403000D03*
X70775000Y-61403000D03*
X73315000Y-61403000D03*
X75855000Y-61403000D03*
X78395000Y-61403000D03*
X80935000Y-61403000D03*
X84999000Y-61403000D03*
X87539000Y-61403000D03*
X90079000Y-61403000D03*
X92619000Y-61403000D03*
X95159000Y-61403000D03*
X97699000Y-61403000D03*
X100239000Y-61403000D03*
X102779000Y-61403000D03*
X72299000Y-109663000D03*
X74839000Y-109663000D03*
X79919000Y-109663000D03*
X82459000Y-109663000D03*
X84999000Y-109663000D03*
X95159000Y-109663000D03*
X92619000Y-109663000D03*
X90079000Y-109663000D03*
X97699000Y-109663000D03*
X100239000Y-109663000D03*
X102779000Y-109663000D03*
%TD*%
D14*
%TO.C,J1*%
X64044000Y-99884000D03*
D15*
X58244000Y-99884000D03*
D16*
X61044000Y-104684000D03*
%TD*%
D17*
%TO.C,J27*%
X118745000Y-68961000D03*
X118745000Y-74041000D03*
X118745000Y-79121000D03*
X118745000Y-84201000D03*
X118745000Y-89281000D03*
X118745000Y-94361000D03*
D18*
X118745000Y-109601000D03*
D17*
X118745000Y-99441000D03*
X118745000Y-104521000D03*
%TD*%
D11*
%TO.C,J23*%
X89698000Y-68896000D03*
%TD*%
D19*
%TO.C,U2*%
X73700000Y-97250000D03*
D20*
X71300000Y-97250000D03*
D19*
X68900000Y-97250000D03*
%TD*%
D21*
%TO.C,J28*%
X54400000Y-82800000D03*
X54400000Y-77800000D03*
D22*
X51650000Y-84175000D03*
X51650000Y-76425000D03*
D23*
X55450000Y-84025000D03*
X55450000Y-76575000D03*
%TD*%
D10*
%TO.C,J26*%
X61340000Y-72040000D03*
X61340000Y-69500000D03*
X63880000Y-72040000D03*
X63880000Y-69500000D03*
X66420000Y-72040000D03*
X66420000Y-69500000D03*
X68960000Y-72040000D03*
X68960000Y-69500000D03*
X71500000Y-72040000D03*
D11*
X71500000Y-69500000D03*
%TD*%
D10*
%TO.C,J25*%
X112900000Y-74980000D03*
X112900000Y-72440000D03*
D11*
X112900000Y-69900000D03*
%TD*%
D10*
%TO.C,J24*%
X87158000Y-72452000D03*
X89698000Y-72452000D03*
D11*
X92238000Y-72452000D03*
%TD*%
D10*
%TO.C,ISP1*%
X52510000Y-66970000D03*
X55050000Y-66970000D03*
X52510000Y-69510000D03*
X55050000Y-69510000D03*
X52510000Y-72050000D03*
D11*
X55050000Y-72050000D03*
%TD*%
D24*
%TO.C,D1*%
X57000000Y-90600000D03*
D25*
X57000000Y-88060000D03*
%TD*%
M02*
