%TF.GenerationSoftware,KiCad,Pcbnew,(5.1.7)-1*%
%TF.CreationDate,2020-10-19T00:00:28+02:00*%
%TF.ProjectId,Atmega_328_breakout,41746d65-6761-45f3-9332-385f62726561,rev?*%
%TF.SameCoordinates,Original*%
%TF.FileFunction,Paste,Top*%
%TF.FilePolarity,Positive*%
%FSLAX46Y46*%
G04 Gerber Fmt 4.6, Leading zero omitted, Abs format (unit mm)*
G04 Created by KiCad (PCBNEW (5.1.7)-1) date 2020-10-19 00:00:28*
%MOMM*%
%LPD*%
G01*
G04 APERTURE LIST*
%ADD10R,0.900000X0.800000*%
%ADD11R,1.500000X2.000000*%
%ADD12R,4.000000X2.000000*%
%ADD13R,0.600000X1.100000*%
%ADD14R,1.400000X1.200000*%
%ADD15R,1.700000X1.000000*%
%ADD16R,1.600000X0.550000*%
%ADD17R,0.550000X1.600000*%
%ADD18R,1.300000X0.450000*%
G04 APERTURE END LIST*
D10*
%TO.C,Q1*%
X67600000Y-86300000D03*
X69600000Y-85350000D03*
X69600000Y-87250000D03*
%TD*%
%TO.C,U3*%
G36*
G01*
X69100000Y-89175000D02*
X69100000Y-88875000D01*
G75*
G02*
X69250000Y-88725000I150000J0D01*
G01*
X70900000Y-88725000D01*
G75*
G02*
X71050000Y-88875000I0J-150000D01*
G01*
X71050000Y-89175000D01*
G75*
G02*
X70900000Y-89325000I-150000J0D01*
G01*
X69250000Y-89325000D01*
G75*
G02*
X69100000Y-89175000I0J150000D01*
G01*
G37*
G36*
G01*
X69100000Y-90445000D02*
X69100000Y-90145000D01*
G75*
G02*
X69250000Y-89995000I150000J0D01*
G01*
X70900000Y-89995000D01*
G75*
G02*
X71050000Y-90145000I0J-150000D01*
G01*
X71050000Y-90445000D01*
G75*
G02*
X70900000Y-90595000I-150000J0D01*
G01*
X69250000Y-90595000D01*
G75*
G02*
X69100000Y-90445000I0J150000D01*
G01*
G37*
G36*
G01*
X69100000Y-91715000D02*
X69100000Y-91415000D01*
G75*
G02*
X69250000Y-91265000I150000J0D01*
G01*
X70900000Y-91265000D01*
G75*
G02*
X71050000Y-91415000I0J-150000D01*
G01*
X71050000Y-91715000D01*
G75*
G02*
X70900000Y-91865000I-150000J0D01*
G01*
X69250000Y-91865000D01*
G75*
G02*
X69100000Y-91715000I0J150000D01*
G01*
G37*
G36*
G01*
X69100000Y-92985000D02*
X69100000Y-92685000D01*
G75*
G02*
X69250000Y-92535000I150000J0D01*
G01*
X70900000Y-92535000D01*
G75*
G02*
X71050000Y-92685000I0J-150000D01*
G01*
X71050000Y-92985000D01*
G75*
G02*
X70900000Y-93135000I-150000J0D01*
G01*
X69250000Y-93135000D01*
G75*
G02*
X69100000Y-92985000I0J150000D01*
G01*
G37*
G36*
G01*
X64150000Y-92985000D02*
X64150000Y-92685000D01*
G75*
G02*
X64300000Y-92535000I150000J0D01*
G01*
X65950000Y-92535000D01*
G75*
G02*
X66100000Y-92685000I0J-150000D01*
G01*
X66100000Y-92985000D01*
G75*
G02*
X65950000Y-93135000I-150000J0D01*
G01*
X64300000Y-93135000D01*
G75*
G02*
X64150000Y-92985000I0J150000D01*
G01*
G37*
G36*
G01*
X64150000Y-91715000D02*
X64150000Y-91415000D01*
G75*
G02*
X64300000Y-91265000I150000J0D01*
G01*
X65950000Y-91265000D01*
G75*
G02*
X66100000Y-91415000I0J-150000D01*
G01*
X66100000Y-91715000D01*
G75*
G02*
X65950000Y-91865000I-150000J0D01*
G01*
X64300000Y-91865000D01*
G75*
G02*
X64150000Y-91715000I0J150000D01*
G01*
G37*
G36*
G01*
X64150000Y-90445000D02*
X64150000Y-90145000D01*
G75*
G02*
X64300000Y-89995000I150000J0D01*
G01*
X65950000Y-89995000D01*
G75*
G02*
X66100000Y-90145000I0J-150000D01*
G01*
X66100000Y-90445000D01*
G75*
G02*
X65950000Y-90595000I-150000J0D01*
G01*
X64300000Y-90595000D01*
G75*
G02*
X64150000Y-90445000I0J150000D01*
G01*
G37*
G36*
G01*
X64150000Y-89175000D02*
X64150000Y-88875000D01*
G75*
G02*
X64300000Y-88725000I150000J0D01*
G01*
X65950000Y-88725000D01*
G75*
G02*
X66100000Y-88875000I0J-150000D01*
G01*
X66100000Y-89175000D01*
G75*
G02*
X65950000Y-89325000I-150000J0D01*
G01*
X64300000Y-89325000D01*
G75*
G02*
X64150000Y-89175000I0J150000D01*
G01*
G37*
%TD*%
D11*
%TO.C,U1*%
X73675000Y-100250000D03*
X69075000Y-100250000D03*
X71375000Y-100250000D03*
D12*
X71375000Y-106550000D03*
%TD*%
D13*
%TO.C,D2*%
X78522000Y-96158000D03*
X78522000Y-93958000D03*
%TD*%
D14*
%TO.C,Y1*%
X82672000Y-78118000D03*
X84872000Y-78118000D03*
X84872000Y-79818000D03*
X82672000Y-79818000D03*
%TD*%
D15*
%TO.C,SW2*%
X120153000Y-62160000D03*
X113853000Y-62160000D03*
X120153000Y-58360000D03*
X113853000Y-58360000D03*
%TD*%
%TO.C,SW1*%
X57084000Y-109668000D03*
X63384000Y-109668000D03*
X57084000Y-113468000D03*
X63384000Y-113468000D03*
%TD*%
%TO.C,R12*%
G36*
G01*
X81741000Y-96692500D02*
X81741000Y-96217500D01*
G75*
G02*
X81978500Y-95980000I237500J0D01*
G01*
X82478500Y-95980000D01*
G75*
G02*
X82716000Y-96217500I0J-237500D01*
G01*
X82716000Y-96692500D01*
G75*
G02*
X82478500Y-96930000I-237500J0D01*
G01*
X81978500Y-96930000D01*
G75*
G02*
X81741000Y-96692500I0J237500D01*
G01*
G37*
G36*
G01*
X79916000Y-96692500D02*
X79916000Y-96217500D01*
G75*
G02*
X80153500Y-95980000I237500J0D01*
G01*
X80653500Y-95980000D01*
G75*
G02*
X80891000Y-96217500I0J-237500D01*
G01*
X80891000Y-96692500D01*
G75*
G02*
X80653500Y-96930000I-237500J0D01*
G01*
X80153500Y-96930000D01*
G75*
G02*
X79916000Y-96692500I0J237500D01*
G01*
G37*
%TD*%
%TO.C,R11*%
G36*
G01*
X84662000Y-100883500D02*
X84662000Y-100408500D01*
G75*
G02*
X84899500Y-100171000I237500J0D01*
G01*
X85399500Y-100171000D01*
G75*
G02*
X85637000Y-100408500I0J-237500D01*
G01*
X85637000Y-100883500D01*
G75*
G02*
X85399500Y-101121000I-237500J0D01*
G01*
X84899500Y-101121000D01*
G75*
G02*
X84662000Y-100883500I0J237500D01*
G01*
G37*
G36*
G01*
X82837000Y-100883500D02*
X82837000Y-100408500D01*
G75*
G02*
X83074500Y-100171000I237500J0D01*
G01*
X83574500Y-100171000D01*
G75*
G02*
X83812000Y-100408500I0J-237500D01*
G01*
X83812000Y-100883500D01*
G75*
G02*
X83574500Y-101121000I-237500J0D01*
G01*
X83074500Y-101121000D01*
G75*
G02*
X82837000Y-100883500I0J237500D01*
G01*
G37*
%TD*%
%TO.C,F1*%
G36*
G01*
X79528000Y-99871000D02*
X78278000Y-99871000D01*
G75*
G02*
X78028000Y-99621000I0J250000D01*
G01*
X78028000Y-98696000D01*
G75*
G02*
X78278000Y-98446000I250000J0D01*
G01*
X79528000Y-98446000D01*
G75*
G02*
X79778000Y-98696000I0J-250000D01*
G01*
X79778000Y-99621000D01*
G75*
G02*
X79528000Y-99871000I-250000J0D01*
G01*
G37*
G36*
G01*
X79528000Y-102846000D02*
X78278000Y-102846000D01*
G75*
G02*
X78028000Y-102596000I0J250000D01*
G01*
X78028000Y-101671000D01*
G75*
G02*
X78278000Y-101421000I250000J0D01*
G01*
X79528000Y-101421000D01*
G75*
G02*
X79778000Y-101671000I0J-250000D01*
G01*
X79778000Y-102596000D01*
G75*
G02*
X79528000Y-102846000I-250000J0D01*
G01*
G37*
%TD*%
%TO.C,U6*%
G36*
G01*
X63375000Y-82700000D02*
X63375000Y-82900000D01*
G75*
G02*
X63275000Y-83000000I-100000J0D01*
G01*
X62000000Y-83000000D01*
G75*
G02*
X61900000Y-82900000I0J100000D01*
G01*
X61900000Y-82700000D01*
G75*
G02*
X62000000Y-82600000I100000J0D01*
G01*
X63275000Y-82600000D01*
G75*
G02*
X63375000Y-82700000I0J-100000D01*
G01*
G37*
G36*
G01*
X63375000Y-82050000D02*
X63375000Y-82250000D01*
G75*
G02*
X63275000Y-82350000I-100000J0D01*
G01*
X62000000Y-82350000D01*
G75*
G02*
X61900000Y-82250000I0J100000D01*
G01*
X61900000Y-82050000D01*
G75*
G02*
X62000000Y-81950000I100000J0D01*
G01*
X63275000Y-81950000D01*
G75*
G02*
X63375000Y-82050000I0J-100000D01*
G01*
G37*
G36*
G01*
X63375000Y-81400000D02*
X63375000Y-81600000D01*
G75*
G02*
X63275000Y-81700000I-100000J0D01*
G01*
X62000000Y-81700000D01*
G75*
G02*
X61900000Y-81600000I0J100000D01*
G01*
X61900000Y-81400000D01*
G75*
G02*
X62000000Y-81300000I100000J0D01*
G01*
X63275000Y-81300000D01*
G75*
G02*
X63375000Y-81400000I0J-100000D01*
G01*
G37*
G36*
G01*
X63375000Y-80750000D02*
X63375000Y-80950000D01*
G75*
G02*
X63275000Y-81050000I-100000J0D01*
G01*
X62000000Y-81050000D01*
G75*
G02*
X61900000Y-80950000I0J100000D01*
G01*
X61900000Y-80750000D01*
G75*
G02*
X62000000Y-80650000I100000J0D01*
G01*
X63275000Y-80650000D01*
G75*
G02*
X63375000Y-80750000I0J-100000D01*
G01*
G37*
G36*
G01*
X63375000Y-80100000D02*
X63375000Y-80300000D01*
G75*
G02*
X63275000Y-80400000I-100000J0D01*
G01*
X62000000Y-80400000D01*
G75*
G02*
X61900000Y-80300000I0J100000D01*
G01*
X61900000Y-80100000D01*
G75*
G02*
X62000000Y-80000000I100000J0D01*
G01*
X63275000Y-80000000D01*
G75*
G02*
X63375000Y-80100000I0J-100000D01*
G01*
G37*
G36*
G01*
X63375000Y-79450000D02*
X63375000Y-79650000D01*
G75*
G02*
X63275000Y-79750000I-100000J0D01*
G01*
X62000000Y-79750000D01*
G75*
G02*
X61900000Y-79650000I0J100000D01*
G01*
X61900000Y-79450000D01*
G75*
G02*
X62000000Y-79350000I100000J0D01*
G01*
X63275000Y-79350000D01*
G75*
G02*
X63375000Y-79450000I0J-100000D01*
G01*
G37*
G36*
G01*
X63375000Y-78800000D02*
X63375000Y-79000000D01*
G75*
G02*
X63275000Y-79100000I-100000J0D01*
G01*
X62000000Y-79100000D01*
G75*
G02*
X61900000Y-79000000I0J100000D01*
G01*
X61900000Y-78800000D01*
G75*
G02*
X62000000Y-78700000I100000J0D01*
G01*
X63275000Y-78700000D01*
G75*
G02*
X63375000Y-78800000I0J-100000D01*
G01*
G37*
G36*
G01*
X69100000Y-78800000D02*
X69100000Y-79000000D01*
G75*
G02*
X69000000Y-79100000I-100000J0D01*
G01*
X67725000Y-79100000D01*
G75*
G02*
X67625000Y-79000000I0J100000D01*
G01*
X67625000Y-78800000D01*
G75*
G02*
X67725000Y-78700000I100000J0D01*
G01*
X69000000Y-78700000D01*
G75*
G02*
X69100000Y-78800000I0J-100000D01*
G01*
G37*
G36*
G01*
X69100000Y-79450000D02*
X69100000Y-79650000D01*
G75*
G02*
X69000000Y-79750000I-100000J0D01*
G01*
X67725000Y-79750000D01*
G75*
G02*
X67625000Y-79650000I0J100000D01*
G01*
X67625000Y-79450000D01*
G75*
G02*
X67725000Y-79350000I100000J0D01*
G01*
X69000000Y-79350000D01*
G75*
G02*
X69100000Y-79450000I0J-100000D01*
G01*
G37*
G36*
G01*
X69100000Y-80100000D02*
X69100000Y-80300000D01*
G75*
G02*
X69000000Y-80400000I-100000J0D01*
G01*
X67725000Y-80400000D01*
G75*
G02*
X67625000Y-80300000I0J100000D01*
G01*
X67625000Y-80100000D01*
G75*
G02*
X67725000Y-80000000I100000J0D01*
G01*
X69000000Y-80000000D01*
G75*
G02*
X69100000Y-80100000I0J-100000D01*
G01*
G37*
G36*
G01*
X69100000Y-80750000D02*
X69100000Y-80950000D01*
G75*
G02*
X69000000Y-81050000I-100000J0D01*
G01*
X67725000Y-81050000D01*
G75*
G02*
X67625000Y-80950000I0J100000D01*
G01*
X67625000Y-80750000D01*
G75*
G02*
X67725000Y-80650000I100000J0D01*
G01*
X69000000Y-80650000D01*
G75*
G02*
X69100000Y-80750000I0J-100000D01*
G01*
G37*
G36*
G01*
X69100000Y-81400000D02*
X69100000Y-81600000D01*
G75*
G02*
X69000000Y-81700000I-100000J0D01*
G01*
X67725000Y-81700000D01*
G75*
G02*
X67625000Y-81600000I0J100000D01*
G01*
X67625000Y-81400000D01*
G75*
G02*
X67725000Y-81300000I100000J0D01*
G01*
X69000000Y-81300000D01*
G75*
G02*
X69100000Y-81400000I0J-100000D01*
G01*
G37*
G36*
G01*
X69100000Y-82050000D02*
X69100000Y-82250000D01*
G75*
G02*
X69000000Y-82350000I-100000J0D01*
G01*
X67725000Y-82350000D01*
G75*
G02*
X67625000Y-82250000I0J100000D01*
G01*
X67625000Y-82050000D01*
G75*
G02*
X67725000Y-81950000I100000J0D01*
G01*
X69000000Y-81950000D01*
G75*
G02*
X69100000Y-82050000I0J-100000D01*
G01*
G37*
G36*
G01*
X69100000Y-82700000D02*
X69100000Y-82900000D01*
G75*
G02*
X69000000Y-83000000I-100000J0D01*
G01*
X67725000Y-83000000D01*
G75*
G02*
X67625000Y-82900000I0J100000D01*
G01*
X67625000Y-82700000D01*
G75*
G02*
X67725000Y-82600000I100000J0D01*
G01*
X69000000Y-82600000D01*
G75*
G02*
X69100000Y-82700000I0J-100000D01*
G01*
G37*
%TD*%
D10*
%TO.C,U5*%
X83200000Y-105150000D03*
X85200000Y-104200000D03*
X85200000Y-106100000D03*
%TD*%
D16*
%TO.C,U4*%
X90737000Y-87370000D03*
X90737000Y-88170000D03*
X90737000Y-88970000D03*
X90737000Y-89770000D03*
X90737000Y-90570000D03*
X90737000Y-91370000D03*
X90737000Y-92170000D03*
X90737000Y-92970000D03*
D17*
X89287000Y-94420000D03*
X88487000Y-94420000D03*
X87687000Y-94420000D03*
X86887000Y-94420000D03*
X86087000Y-94420000D03*
X85287000Y-94420000D03*
X84487000Y-94420000D03*
X83687000Y-94420000D03*
D16*
X82237000Y-92970000D03*
X82237000Y-92170000D03*
X82237000Y-91370000D03*
X82237000Y-90570000D03*
X82237000Y-89770000D03*
X82237000Y-88970000D03*
X82237000Y-88170000D03*
X82237000Y-87370000D03*
D17*
X83687000Y-85920000D03*
X84487000Y-85920000D03*
X85287000Y-85920000D03*
X86087000Y-85920000D03*
X86887000Y-85920000D03*
X87687000Y-85920000D03*
X88487000Y-85920000D03*
X89287000Y-85920000D03*
%TD*%
D18*
%TO.C,J28*%
X55500000Y-81600000D03*
X55500000Y-80950000D03*
X55500000Y-80300000D03*
X55500000Y-79650000D03*
X55500000Y-79000000D03*
%TD*%
%TO.C,D4*%
G36*
G01*
X107050000Y-56549999D02*
X107050000Y-57450001D01*
G75*
G02*
X106800001Y-57700000I-249999J0D01*
G01*
X106149999Y-57700000D01*
G75*
G02*
X105900000Y-57450001I0J249999D01*
G01*
X105900000Y-56549999D01*
G75*
G02*
X106149999Y-56300000I249999J0D01*
G01*
X106800001Y-56300000D01*
G75*
G02*
X107050000Y-56549999I0J-249999D01*
G01*
G37*
G36*
G01*
X109100000Y-56549999D02*
X109100000Y-57450001D01*
G75*
G02*
X108850001Y-57700000I-249999J0D01*
G01*
X108199999Y-57700000D01*
G75*
G02*
X107950000Y-57450001I0J249999D01*
G01*
X107950000Y-56549999D01*
G75*
G02*
X108199999Y-56300000I249999J0D01*
G01*
X108850001Y-56300000D01*
G75*
G02*
X109100000Y-56549999I0J-249999D01*
G01*
G37*
%TD*%
%TO.C,D3*%
G36*
G01*
X52520001Y-91625000D02*
X51619999Y-91625000D01*
G75*
G02*
X51370000Y-91375001I0J249999D01*
G01*
X51370000Y-90724999D01*
G75*
G02*
X51619999Y-90475000I249999J0D01*
G01*
X52520001Y-90475000D01*
G75*
G02*
X52770000Y-90724999I0J-249999D01*
G01*
X52770000Y-91375001D01*
G75*
G02*
X52520001Y-91625000I-249999J0D01*
G01*
G37*
G36*
G01*
X52520001Y-93675000D02*
X51619999Y-93675000D01*
G75*
G02*
X51370000Y-93425001I0J249999D01*
G01*
X51370000Y-92774999D01*
G75*
G02*
X51619999Y-92525000I249999J0D01*
G01*
X52520001Y-92525000D01*
G75*
G02*
X52770000Y-92774999I0J-249999D01*
G01*
X52770000Y-93425001D01*
G75*
G02*
X52520001Y-93675000I-249999J0D01*
G01*
G37*
%TD*%
%TO.C,C14*%
G36*
G01*
X59862500Y-78375000D02*
X60337500Y-78375000D01*
G75*
G02*
X60575000Y-78612500I0J-237500D01*
G01*
X60575000Y-79212500D01*
G75*
G02*
X60337500Y-79450000I-237500J0D01*
G01*
X59862500Y-79450000D01*
G75*
G02*
X59625000Y-79212500I0J237500D01*
G01*
X59625000Y-78612500D01*
G75*
G02*
X59862500Y-78375000I237500J0D01*
G01*
G37*
G36*
G01*
X59862500Y-76650000D02*
X60337500Y-76650000D01*
G75*
G02*
X60575000Y-76887500I0J-237500D01*
G01*
X60575000Y-77487500D01*
G75*
G02*
X60337500Y-77725000I-237500J0D01*
G01*
X59862500Y-77725000D01*
G75*
G02*
X59625000Y-77487500I0J237500D01*
G01*
X59625000Y-76887500D01*
G75*
G02*
X59862500Y-76650000I237500J0D01*
G01*
G37*
%TD*%
%TO.C,C13*%
G36*
G01*
X110575000Y-64537500D02*
X110575000Y-64062500D01*
G75*
G02*
X110812500Y-63825000I237500J0D01*
G01*
X111412500Y-63825000D01*
G75*
G02*
X111650000Y-64062500I0J-237500D01*
G01*
X111650000Y-64537500D01*
G75*
G02*
X111412500Y-64775000I-237500J0D01*
G01*
X110812500Y-64775000D01*
G75*
G02*
X110575000Y-64537500I0J237500D01*
G01*
G37*
G36*
G01*
X108850000Y-64537500D02*
X108850000Y-64062500D01*
G75*
G02*
X109087500Y-63825000I237500J0D01*
G01*
X109687500Y-63825000D01*
G75*
G02*
X109925000Y-64062500I0J-237500D01*
G01*
X109925000Y-64537500D01*
G75*
G02*
X109687500Y-64775000I-237500J0D01*
G01*
X109087500Y-64775000D01*
G75*
G02*
X108850000Y-64537500I0J237500D01*
G01*
G37*
%TD*%
%TO.C,C12*%
G36*
G01*
X84954500Y-81612500D02*
X84954500Y-82087500D01*
G75*
G02*
X84717000Y-82325000I-237500J0D01*
G01*
X84117000Y-82325000D01*
G75*
G02*
X83879500Y-82087500I0J237500D01*
G01*
X83879500Y-81612500D01*
G75*
G02*
X84117000Y-81375000I237500J0D01*
G01*
X84717000Y-81375000D01*
G75*
G02*
X84954500Y-81612500I0J-237500D01*
G01*
G37*
G36*
G01*
X86679500Y-81612500D02*
X86679500Y-82087500D01*
G75*
G02*
X86442000Y-82325000I-237500J0D01*
G01*
X85842000Y-82325000D01*
G75*
G02*
X85604500Y-82087500I0J237500D01*
G01*
X85604500Y-81612500D01*
G75*
G02*
X85842000Y-81375000I237500J0D01*
G01*
X86442000Y-81375000D01*
G75*
G02*
X86679500Y-81612500I0J-237500D01*
G01*
G37*
%TD*%
%TO.C,C11*%
G36*
G01*
X82149000Y-82087500D02*
X82149000Y-81612500D01*
G75*
G02*
X82386500Y-81375000I237500J0D01*
G01*
X82986500Y-81375000D01*
G75*
G02*
X83224000Y-81612500I0J-237500D01*
G01*
X83224000Y-82087500D01*
G75*
G02*
X82986500Y-82325000I-237500J0D01*
G01*
X82386500Y-82325000D01*
G75*
G02*
X82149000Y-82087500I0J237500D01*
G01*
G37*
G36*
G01*
X80424000Y-82087500D02*
X80424000Y-81612500D01*
G75*
G02*
X80661500Y-81375000I237500J0D01*
G01*
X81261500Y-81375000D01*
G75*
G02*
X81499000Y-81612500I0J-237500D01*
G01*
X81499000Y-82087500D01*
G75*
G02*
X81261500Y-82325000I-237500J0D01*
G01*
X80661500Y-82325000D01*
G75*
G02*
X80424000Y-82087500I0J237500D01*
G01*
G37*
%TD*%
%TO.C,C10*%
G36*
G01*
X91700500Y-75483500D02*
X91700500Y-75008500D01*
G75*
G02*
X91938000Y-74771000I237500J0D01*
G01*
X92538000Y-74771000D01*
G75*
G02*
X92775500Y-75008500I0J-237500D01*
G01*
X92775500Y-75483500D01*
G75*
G02*
X92538000Y-75721000I-237500J0D01*
G01*
X91938000Y-75721000D01*
G75*
G02*
X91700500Y-75483500I0J237500D01*
G01*
G37*
G36*
G01*
X89975500Y-75483500D02*
X89975500Y-75008500D01*
G75*
G02*
X90213000Y-74771000I237500J0D01*
G01*
X90813000Y-74771000D01*
G75*
G02*
X91050500Y-75008500I0J-237500D01*
G01*
X91050500Y-75483500D01*
G75*
G02*
X90813000Y-75721000I-237500J0D01*
G01*
X90213000Y-75721000D01*
G75*
G02*
X89975500Y-75483500I0J237500D01*
G01*
G37*
%TD*%
%TO.C,C9*%
G36*
G01*
X95875000Y-88837500D02*
X95875000Y-88362500D01*
G75*
G02*
X96112500Y-88125000I237500J0D01*
G01*
X96712500Y-88125000D01*
G75*
G02*
X96950000Y-88362500I0J-237500D01*
G01*
X96950000Y-88837500D01*
G75*
G02*
X96712500Y-89075000I-237500J0D01*
G01*
X96112500Y-89075000D01*
G75*
G02*
X95875000Y-88837500I0J237500D01*
G01*
G37*
G36*
G01*
X94150000Y-88837500D02*
X94150000Y-88362500D01*
G75*
G02*
X94387500Y-88125000I237500J0D01*
G01*
X94987500Y-88125000D01*
G75*
G02*
X95225000Y-88362500I0J-237500D01*
G01*
X95225000Y-88837500D01*
G75*
G02*
X94987500Y-89075000I-237500J0D01*
G01*
X94387500Y-89075000D01*
G75*
G02*
X94150000Y-88837500I0J237500D01*
G01*
G37*
%TD*%
%TO.C,C8*%
G36*
G01*
X80824500Y-100971000D02*
X81299500Y-100971000D01*
G75*
G02*
X81537000Y-101208500I0J-237500D01*
G01*
X81537000Y-101808500D01*
G75*
G02*
X81299500Y-102046000I-237500J0D01*
G01*
X80824500Y-102046000D01*
G75*
G02*
X80587000Y-101808500I0J237500D01*
G01*
X80587000Y-101208500D01*
G75*
G02*
X80824500Y-100971000I237500J0D01*
G01*
G37*
G36*
G01*
X80824500Y-99246000D02*
X81299500Y-99246000D01*
G75*
G02*
X81537000Y-99483500I0J-237500D01*
G01*
X81537000Y-100083500D01*
G75*
G02*
X81299500Y-100321000I-237500J0D01*
G01*
X80824500Y-100321000D01*
G75*
G02*
X80587000Y-100083500I0J237500D01*
G01*
X80587000Y-99483500D01*
G75*
G02*
X80824500Y-99246000I237500J0D01*
G01*
G37*
%TD*%
%TO.C,C7*%
G36*
G01*
X89162500Y-105475000D02*
X89637500Y-105475000D01*
G75*
G02*
X89875000Y-105712500I0J-237500D01*
G01*
X89875000Y-106312500D01*
G75*
G02*
X89637500Y-106550000I-237500J0D01*
G01*
X89162500Y-106550000D01*
G75*
G02*
X88925000Y-106312500I0J237500D01*
G01*
X88925000Y-105712500D01*
G75*
G02*
X89162500Y-105475000I237500J0D01*
G01*
G37*
G36*
G01*
X89162500Y-103750000D02*
X89637500Y-103750000D01*
G75*
G02*
X89875000Y-103987500I0J-237500D01*
G01*
X89875000Y-104587500D01*
G75*
G02*
X89637500Y-104825000I-237500J0D01*
G01*
X89162500Y-104825000D01*
G75*
G02*
X88925000Y-104587500I0J237500D01*
G01*
X88925000Y-103987500D01*
G75*
G02*
X89162500Y-103750000I237500J0D01*
G01*
G37*
%TD*%
%TO.C,C6*%
G36*
G01*
X81337500Y-104925000D02*
X80862500Y-104925000D01*
G75*
G02*
X80625000Y-104687500I0J237500D01*
G01*
X80625000Y-104087500D01*
G75*
G02*
X80862500Y-103850000I237500J0D01*
G01*
X81337500Y-103850000D01*
G75*
G02*
X81575000Y-104087500I0J-237500D01*
G01*
X81575000Y-104687500D01*
G75*
G02*
X81337500Y-104925000I-237500J0D01*
G01*
G37*
G36*
G01*
X81337500Y-106650000D02*
X80862500Y-106650000D01*
G75*
G02*
X80625000Y-106412500I0J237500D01*
G01*
X80625000Y-105812500D01*
G75*
G02*
X80862500Y-105575000I237500J0D01*
G01*
X81337500Y-105575000D01*
G75*
G02*
X81575000Y-105812500I0J-237500D01*
G01*
X81575000Y-106412500D01*
G75*
G02*
X81337500Y-106650000I-237500J0D01*
G01*
G37*
%TD*%
%TO.C,C5*%
G36*
G01*
X76012500Y-100321000D02*
X75537500Y-100321000D01*
G75*
G02*
X75300000Y-100083500I0J237500D01*
G01*
X75300000Y-99483500D01*
G75*
G02*
X75537500Y-99246000I237500J0D01*
G01*
X76012500Y-99246000D01*
G75*
G02*
X76250000Y-99483500I0J-237500D01*
G01*
X76250000Y-100083500D01*
G75*
G02*
X76012500Y-100321000I-237500J0D01*
G01*
G37*
G36*
G01*
X76012500Y-102046000D02*
X75537500Y-102046000D01*
G75*
G02*
X75300000Y-101808500I0J237500D01*
G01*
X75300000Y-101208500D01*
G75*
G02*
X75537500Y-100971000I237500J0D01*
G01*
X76012500Y-100971000D01*
G75*
G02*
X76250000Y-101208500I0J-237500D01*
G01*
X76250000Y-101808500D01*
G75*
G02*
X76012500Y-102046000I-237500J0D01*
G01*
G37*
%TD*%
%TO.C,C4*%
G36*
G01*
X86071000Y-96217500D02*
X86071000Y-96692500D01*
G75*
G02*
X85833500Y-96930000I-237500J0D01*
G01*
X85233500Y-96930000D01*
G75*
G02*
X84996000Y-96692500I0J237500D01*
G01*
X84996000Y-96217500D01*
G75*
G02*
X85233500Y-95980000I237500J0D01*
G01*
X85833500Y-95980000D01*
G75*
G02*
X86071000Y-96217500I0J-237500D01*
G01*
G37*
G36*
G01*
X87796000Y-96217500D02*
X87796000Y-96692500D01*
G75*
G02*
X87558500Y-96930000I-237500J0D01*
G01*
X86958500Y-96930000D01*
G75*
G02*
X86721000Y-96692500I0J237500D01*
G01*
X86721000Y-96217500D01*
G75*
G02*
X86958500Y-95980000I237500J0D01*
G01*
X87558500Y-95980000D01*
G75*
G02*
X87796000Y-96217500I0J-237500D01*
G01*
G37*
%TD*%
%TO.C,C3*%
G36*
G01*
X86423000Y-83588500D02*
X86423000Y-84063500D01*
G75*
G02*
X86185500Y-84301000I-237500J0D01*
G01*
X85585500Y-84301000D01*
G75*
G02*
X85348000Y-84063500I0J237500D01*
G01*
X85348000Y-83588500D01*
G75*
G02*
X85585500Y-83351000I237500J0D01*
G01*
X86185500Y-83351000D01*
G75*
G02*
X86423000Y-83588500I0J-237500D01*
G01*
G37*
G36*
G01*
X88148000Y-83588500D02*
X88148000Y-84063500D01*
G75*
G02*
X87910500Y-84301000I-237500J0D01*
G01*
X87310500Y-84301000D01*
G75*
G02*
X87073000Y-84063500I0J237500D01*
G01*
X87073000Y-83588500D01*
G75*
G02*
X87310500Y-83351000I237500J0D01*
G01*
X87910500Y-83351000D01*
G75*
G02*
X88148000Y-83588500I0J-237500D01*
G01*
G37*
%TD*%
%TO.C,C2*%
G36*
G01*
X67237500Y-100321000D02*
X66762500Y-100321000D01*
G75*
G02*
X66525000Y-100083500I0J237500D01*
G01*
X66525000Y-99483500D01*
G75*
G02*
X66762500Y-99246000I237500J0D01*
G01*
X67237500Y-99246000D01*
G75*
G02*
X67475000Y-99483500I0J-237500D01*
G01*
X67475000Y-100083500D01*
G75*
G02*
X67237500Y-100321000I-237500J0D01*
G01*
G37*
G36*
G01*
X67237500Y-102046000D02*
X66762500Y-102046000D01*
G75*
G02*
X66525000Y-101808500I0J237500D01*
G01*
X66525000Y-101208500D01*
G75*
G02*
X66762500Y-100971000I237500J0D01*
G01*
X67237500Y-100971000D01*
G75*
G02*
X67475000Y-101208500I0J-237500D01*
G01*
X67475000Y-101808500D01*
G75*
G02*
X67237500Y-102046000I-237500J0D01*
G01*
G37*
%TD*%
%TO.C,C1*%
G36*
G01*
X84093500Y-97019000D02*
X83618500Y-97019000D01*
G75*
G02*
X83381000Y-96781500I0J237500D01*
G01*
X83381000Y-96181500D01*
G75*
G02*
X83618500Y-95944000I237500J0D01*
G01*
X84093500Y-95944000D01*
G75*
G02*
X84331000Y-96181500I0J-237500D01*
G01*
X84331000Y-96781500D01*
G75*
G02*
X84093500Y-97019000I-237500J0D01*
G01*
G37*
G36*
G01*
X84093500Y-98744000D02*
X83618500Y-98744000D01*
G75*
G02*
X83381000Y-98506500I0J237500D01*
G01*
X83381000Y-97906500D01*
G75*
G02*
X83618500Y-97669000I237500J0D01*
G01*
X84093500Y-97669000D01*
G75*
G02*
X84331000Y-97906500I0J-237500D01*
G01*
X84331000Y-98506500D01*
G75*
G02*
X84093500Y-98744000I-237500J0D01*
G01*
G37*
%TD*%
%TO.C,R1*%
G36*
G01*
X60760000Y-90737500D02*
X60760000Y-90262500D01*
G75*
G02*
X60997500Y-90025000I237500J0D01*
G01*
X61497500Y-90025000D01*
G75*
G02*
X61735000Y-90262500I0J-237500D01*
G01*
X61735000Y-90737500D01*
G75*
G02*
X61497500Y-90975000I-237500J0D01*
G01*
X60997500Y-90975000D01*
G75*
G02*
X60760000Y-90737500I0J237500D01*
G01*
G37*
G36*
G01*
X62585000Y-90737500D02*
X62585000Y-90262500D01*
G75*
G02*
X62822500Y-90025000I237500J0D01*
G01*
X63322500Y-90025000D01*
G75*
G02*
X63560000Y-90262500I0J-237500D01*
G01*
X63560000Y-90737500D01*
G75*
G02*
X63322500Y-90975000I-237500J0D01*
G01*
X62822500Y-90975000D01*
G75*
G02*
X62585000Y-90737500I0J237500D01*
G01*
G37*
%TD*%
%TO.C,R2*%
G36*
G01*
X63577500Y-88732500D02*
X63577500Y-89207500D01*
G75*
G02*
X63340000Y-89445000I-237500J0D01*
G01*
X62840000Y-89445000D01*
G75*
G02*
X62602500Y-89207500I0J237500D01*
G01*
X62602500Y-88732500D01*
G75*
G02*
X62840000Y-88495000I237500J0D01*
G01*
X63340000Y-88495000D01*
G75*
G02*
X63577500Y-88732500I0J-237500D01*
G01*
G37*
G36*
G01*
X61752500Y-88732500D02*
X61752500Y-89207500D01*
G75*
G02*
X61515000Y-89445000I-237500J0D01*
G01*
X61015000Y-89445000D01*
G75*
G02*
X60777500Y-89207500I0J237500D01*
G01*
X60777500Y-88732500D01*
G75*
G02*
X61015000Y-88495000I237500J0D01*
G01*
X61515000Y-88495000D01*
G75*
G02*
X61752500Y-88732500I0J-237500D01*
G01*
G37*
%TD*%
%TO.C,R3*%
G36*
G01*
X87637500Y-104725000D02*
X87162500Y-104725000D01*
G75*
G02*
X86925000Y-104487500I0J237500D01*
G01*
X86925000Y-103987500D01*
G75*
G02*
X87162500Y-103750000I237500J0D01*
G01*
X87637500Y-103750000D01*
G75*
G02*
X87875000Y-103987500I0J-237500D01*
G01*
X87875000Y-104487500D01*
G75*
G02*
X87637500Y-104725000I-237500J0D01*
G01*
G37*
G36*
G01*
X87637500Y-106550000D02*
X87162500Y-106550000D01*
G75*
G02*
X86925000Y-106312500I0J237500D01*
G01*
X86925000Y-105812500D01*
G75*
G02*
X87162500Y-105575000I237500J0D01*
G01*
X87637500Y-105575000D01*
G75*
G02*
X87875000Y-105812500I0J-237500D01*
G01*
X87875000Y-106312500D01*
G75*
G02*
X87637500Y-106550000I-237500J0D01*
G01*
G37*
%TD*%
%TO.C,R4*%
G36*
G01*
X79140500Y-106237000D02*
X78665500Y-106237000D01*
G75*
G02*
X78428000Y-105999500I0J237500D01*
G01*
X78428000Y-105499500D01*
G75*
G02*
X78665500Y-105262000I237500J0D01*
G01*
X79140500Y-105262000D01*
G75*
G02*
X79378000Y-105499500I0J-237500D01*
G01*
X79378000Y-105999500D01*
G75*
G02*
X79140500Y-106237000I-237500J0D01*
G01*
G37*
G36*
G01*
X79140500Y-104412000D02*
X78665500Y-104412000D01*
G75*
G02*
X78428000Y-104174500I0J237500D01*
G01*
X78428000Y-103674500D01*
G75*
G02*
X78665500Y-103437000I237500J0D01*
G01*
X79140500Y-103437000D01*
G75*
G02*
X79378000Y-103674500I0J-237500D01*
G01*
X79378000Y-104174500D01*
G75*
G02*
X79140500Y-104412000I-237500J0D01*
G01*
G37*
%TD*%
%TO.C,R5*%
G36*
G01*
X51832500Y-86484000D02*
X52307500Y-86484000D01*
G75*
G02*
X52545000Y-86721500I0J-237500D01*
G01*
X52545000Y-87221500D01*
G75*
G02*
X52307500Y-87459000I-237500J0D01*
G01*
X51832500Y-87459000D01*
G75*
G02*
X51595000Y-87221500I0J237500D01*
G01*
X51595000Y-86721500D01*
G75*
G02*
X51832500Y-86484000I237500J0D01*
G01*
G37*
G36*
G01*
X51832500Y-88309000D02*
X52307500Y-88309000D01*
G75*
G02*
X52545000Y-88546500I0J-237500D01*
G01*
X52545000Y-89046500D01*
G75*
G02*
X52307500Y-89284000I-237500J0D01*
G01*
X51832500Y-89284000D01*
G75*
G02*
X51595000Y-89046500I0J237500D01*
G01*
X51595000Y-88546500D01*
G75*
G02*
X51832500Y-88309000I237500J0D01*
G01*
G37*
%TD*%
%TO.C,R6*%
G36*
G01*
X95125000Y-89862500D02*
X95125000Y-90337500D01*
G75*
G02*
X94887500Y-90575000I-237500J0D01*
G01*
X94387500Y-90575000D01*
G75*
G02*
X94150000Y-90337500I0J237500D01*
G01*
X94150000Y-89862500D01*
G75*
G02*
X94387500Y-89625000I237500J0D01*
G01*
X94887500Y-89625000D01*
G75*
G02*
X95125000Y-89862500I0J-237500D01*
G01*
G37*
G36*
G01*
X96950000Y-89862500D02*
X96950000Y-90337500D01*
G75*
G02*
X96712500Y-90575000I-237500J0D01*
G01*
X96212500Y-90575000D01*
G75*
G02*
X95975000Y-90337500I0J237500D01*
G01*
X95975000Y-89862500D01*
G75*
G02*
X96212500Y-89625000I237500J0D01*
G01*
X96712500Y-89625000D01*
G75*
G02*
X96950000Y-89862500I0J-237500D01*
G01*
G37*
%TD*%
%TO.C,R7*%
G36*
G01*
X65362500Y-112625000D02*
X65837500Y-112625000D01*
G75*
G02*
X66075000Y-112862500I0J-237500D01*
G01*
X66075000Y-113362500D01*
G75*
G02*
X65837500Y-113600000I-237500J0D01*
G01*
X65362500Y-113600000D01*
G75*
G02*
X65125000Y-113362500I0J237500D01*
G01*
X65125000Y-112862500D01*
G75*
G02*
X65362500Y-112625000I237500J0D01*
G01*
G37*
G36*
G01*
X65362500Y-110800000D02*
X65837500Y-110800000D01*
G75*
G02*
X66075000Y-111037500I0J-237500D01*
G01*
X66075000Y-111537500D01*
G75*
G02*
X65837500Y-111775000I-237500J0D01*
G01*
X65362500Y-111775000D01*
G75*
G02*
X65125000Y-111537500I0J237500D01*
G01*
X65125000Y-111037500D01*
G75*
G02*
X65362500Y-110800000I237500J0D01*
G01*
G37*
%TD*%
%TO.C,R8*%
G36*
G01*
X108475000Y-59637500D02*
X108475000Y-59162500D01*
G75*
G02*
X108712500Y-58925000I237500J0D01*
G01*
X109212500Y-58925000D01*
G75*
G02*
X109450000Y-59162500I0J-237500D01*
G01*
X109450000Y-59637500D01*
G75*
G02*
X109212500Y-59875000I-237500J0D01*
G01*
X108712500Y-59875000D01*
G75*
G02*
X108475000Y-59637500I0J237500D01*
G01*
G37*
G36*
G01*
X106650000Y-59637500D02*
X106650000Y-59162500D01*
G75*
G02*
X106887500Y-58925000I237500J0D01*
G01*
X107387500Y-58925000D01*
G75*
G02*
X107625000Y-59162500I0J-237500D01*
G01*
X107625000Y-59637500D01*
G75*
G02*
X107387500Y-59875000I-237500J0D01*
G01*
X106887500Y-59875000D01*
G75*
G02*
X106650000Y-59637500I0J237500D01*
G01*
G37*
%TD*%
%TO.C,R9*%
G36*
G01*
X111600000Y-65712500D02*
X111600000Y-66187500D01*
G75*
G02*
X111362500Y-66425000I-237500J0D01*
G01*
X110862500Y-66425000D01*
G75*
G02*
X110625000Y-66187500I0J237500D01*
G01*
X110625000Y-65712500D01*
G75*
G02*
X110862500Y-65475000I237500J0D01*
G01*
X111362500Y-65475000D01*
G75*
G02*
X111600000Y-65712500I0J-237500D01*
G01*
G37*
G36*
G01*
X109775000Y-65712500D02*
X109775000Y-66187500D01*
G75*
G02*
X109537500Y-66425000I-237500J0D01*
G01*
X109037500Y-66425000D01*
G75*
G02*
X108800000Y-66187500I0J237500D01*
G01*
X108800000Y-65712500D01*
G75*
G02*
X109037500Y-65475000I237500J0D01*
G01*
X109537500Y-65475000D01*
G75*
G02*
X109775000Y-65712500I0J-237500D01*
G01*
G37*
%TD*%
M02*
