M48
; DRILL file {KiCad (5.1.7)-1} date 10/19/20 00:00:23
; FORMAT={-:-/ absolute / inch / decimal}
; #@! TF.CreationDate,2020-10-19T00:00:23+02:00
; #@! TF.GenerationSoftware,Kicad,Pcbnew,(5.1.7)-1
FMAT,2
INCH
T1C0.0157
T2C0.0217
T3C0.0236
T4C0.0315
T5C0.0320
T6C0.0335
T7C0.0354
T8C0.0394
T9C0.0598
T10C0.1250
T11C0.0315
%
G90
G05
T1
X2.313Y-3.0374
X2.5Y-3.8051
X2.6083Y-3.7067
X2.626Y-3.5039
X2.6414Y-4.0424
X2.6969Y-3.6535
X2.7323Y-3.311
X2.7362Y-3.185
X2.7402Y-3.1339
X2.752Y-4.4803
X2.7559Y-3.1575
X2.8976Y-3.6378
X2.94Y-4.1398
X2.9488Y-3.5906
X2.9665Y-3.564
X2.9714Y-4.0524
X2.9803Y-2.8976
X2.9803Y-3.5236
X3.0514Y-3.6924
X3.1914Y-3.0524
X3.2402Y-4.0039
X3.2953Y-3.437
X3.3189Y-3.5276
X3.3514Y-3.8424
X3.3514Y-3.9074
X3.3694Y-3.6683
X3.3917Y-4.2224
X3.4114Y-3.1624
X3.4134Y-4.3661
X3.437Y-3.6024
X3.4409Y-4.2756
X3.4528Y-3.8976
X3.4814Y-4.0474
X3.4843Y-3.4724
X3.4921Y-3.5984
X3.5009Y-3.6665
X3.5059Y-3.2717
X3.5106Y-3.5343
X3.5118Y-3.5669
X3.5197Y-3.5
X3.5709Y-4.0827
X3.5814Y-4.0324
X3.5827Y-4.1772
X3.7992Y-3.3819
X3.8072Y-3.8496
X3.8386Y-3.8465
X3.8465Y-3.4331
X3.9814Y-4.0024
X4.1476Y-2.3357
X4.3164Y-3.9924
X4.4064Y-2.4474
X4.4714Y-3.9424
X4.5512Y-3.7598
T3
X3.1814Y-3.8624
T4
X2.7126Y-3.8287
X2.8071Y-3.8287
X2.9016Y-3.8287
T5
X2.4864Y-2.4174
X2.5864Y-2.4174
X2.6864Y-2.4174
X2.7864Y-2.4174
X2.8464Y-4.3174
X2.8864Y-2.4174
X2.9464Y-4.3174
X2.9864Y-2.4174
X3.0464Y-4.3174
X3.0864Y-2.4174
X3.1464Y-4.3174
X3.1864Y-2.4174
X3.2464Y-4.3174
X3.3464Y-2.4174
X3.3464Y-4.3174
X3.4464Y-2.4174
X3.5464Y-2.4174
X3.5464Y-4.3174
X3.6464Y-2.4174
X3.6464Y-4.3174
X3.7464Y-2.4174
X3.7464Y-4.3174
X3.8464Y-2.4174
X3.8464Y-4.3174
X3.9464Y-2.4174
X3.9464Y-4.3174
X4.0464Y-2.4174
X4.0464Y-4.3174
T7
X3.9514Y-3.8724
X4.0514Y-3.8724
X4.1514Y-3.8724
X3.9514Y-3.2724
X4.0514Y-3.2724
X4.1514Y-3.2724
X4.2514Y-3.1724
X4.3514Y-3.1724
X4.4514Y-3.1724
X3.9514Y-3.7724
X4.0514Y-3.7724
X4.1514Y-3.7724
X4.2514Y-3.4724
X4.3514Y-3.4724
X4.4514Y-3.4724
X4.2514Y-3.2724
X4.3514Y-3.2724
X4.4514Y-3.2724
X4.2514Y-3.6724
X4.3514Y-3.6724
X4.4514Y-3.6724
X2.2441Y-3.4669
X2.2441Y-3.5669
X3.9514Y-3.5724
X4.0514Y-3.5724
X4.1514Y-3.5724
X3.9514Y-3.6724
X4.0514Y-3.6724
X4.1514Y-3.6724
X3.9514Y-3.4724
X4.0514Y-3.4724
X4.1514Y-3.4724
X4.2514Y-3.5724
X4.3514Y-3.5724
X4.4514Y-3.5724
X4.2514Y-3.7724
X4.3514Y-3.7724
X4.4514Y-3.7724
X4.2514Y-3.3724
X4.3514Y-3.3724
X4.4514Y-3.3724
X3.9514Y-3.1724
X4.0514Y-3.1724
X4.1514Y-3.1724
X4.2514Y-3.8724
X4.3514Y-3.8724
X4.4514Y-3.8724
X3.9514Y-3.3724
X4.0514Y-3.3724
X4.1514Y-3.3724
T8
X2.2814Y-3.3124
X3.5138Y-4.4547
X3.6138Y-4.4547
X3.7138Y-4.4547
X3.8138Y-4.4547
X3.9138Y-4.4547
X4.0138Y-4.4547
X4.1138Y-4.4547
X4.2138Y-4.4547
X2.915Y-4.455
X3.015Y-4.455
X3.115Y-4.455
X3.215Y-4.455
X3.315Y-4.455
X3.415Y-4.455
X2.515Y-2.255
X2.615Y-2.255
X2.715Y-2.255
X2.815Y-2.255
X2.915Y-2.255
X3.015Y-2.255
X3.115Y-2.255
X3.215Y-2.255
X3.4314Y-2.8524
X3.5314Y-2.8524
X3.6314Y-2.8524
X2.0673Y-2.6366
X2.0673Y-2.7366
X2.0673Y-2.8366
X2.1673Y-2.6366
X2.1673Y-2.7366
X2.1673Y-2.8366
X2.415Y-2.7362
X2.415Y-2.8362
X2.515Y-2.7362
X2.515Y-2.8362
X2.615Y-2.7362
X2.615Y-2.8362
X2.715Y-2.7362
X2.715Y-2.8362
X2.815Y-2.7362
X2.815Y-2.8362
X3.315Y-2.255
X3.415Y-2.255
X3.515Y-2.255
X3.615Y-2.255
X3.715Y-2.255
X3.815Y-2.255
X3.915Y-2.255
X4.015Y-2.255
X4.3414Y-4.0624
X4.3414Y-4.1624
X4.3414Y-4.2624
X4.4414Y-4.0624
X4.4414Y-4.1624
X4.4414Y-4.2624
X4.4449Y-2.752
X4.4449Y-2.852
X4.4449Y-2.952
X3.5314Y-2.7124
T9
X4.675Y-2.715
X4.675Y-2.915
X4.675Y-3.115
X4.675Y-3.315
X4.675Y-3.515
X4.675Y-3.715
X4.675Y-3.915
X4.675Y-4.115
X4.675Y-4.315
T10
X2.0964Y-4.3174
X2.1464Y-2.4174
X4.1464Y-3.0174
X4.1464Y-4.1174
T11
X2.1417Y-3.063
X2.1417Y-3.2598
T2
G00X2.0463Y-3.0089
M15
G01X2.0207Y-3.0089
M16
G05
G00X2.0463Y-3.314
M15
G01X2.0207Y-3.314
M16
G05
T4
G00X2.2931Y-3.8891
M15
G01X2.2931Y-3.9757
M16
G05
G00X2.36Y-4.1214
M15
G01X2.4466Y-4.1214
M16
G05
G00X2.5214Y-3.8813
M15
G01X2.5214Y-3.9836
M16
G05
T6
G00X2.1939Y-3.0148
M15
G01X2.1722Y-3.0148
M16
G05
G00X2.1939Y-3.3081
M15
G01X2.1722Y-3.3081
M16
G05
T0
M30
