M48
;DRILL file {KiCad 4.0.7} date 02/06/18 23:35:03
;FORMAT={3:3/ absolute / metric / suppress trailing zeros}
FMAT,2
METRIC,LZ
T1C0.300
T2C0.400
T3C0.500
T4C0.550
T5C0.762
T6C0.800
T7C0.813
T8C0.850
T9C0.900
T10C1.000
T11C1.020
T12C1.100
T13C1.143
T14C1.520
T15C3.175
T16C0.800
%
G90
G05
M71
T1
X0606Y-0876
X0608Y-0842
X0612Y-0771
X0893Y-0831
T2
X0694Y-0841
X0695Y-0809
X0696Y-0796
X0699Y-1138
X07Y-0802
X0703Y-1062
X0736Y-0924
X074848Y-091426
X075348Y-090526
X0755Y-1036
X0757Y-0736
X0757Y-0895
X0775Y-1049
X0805Y-099875
X0816Y-0987
X0831Y-0962
X0837Y-0873
X0838Y-1007
X0843Y-0896
X085584Y-093175
X0864Y-0753
X086428Y-096184
X0867Y-1109
X0873Y-0915
X0874Y-1086
X0876Y-0824
X0887Y-0914
X088923Y-093128
X088978Y-0879
X08917Y-08977
X0892Y-0889
X0892Y-0906
X0909Y-1035
X091Y-1061
X09125Y-100029
X095525Y-098934
X096704Y-09778
X0975Y-0977
X0977Y-0872
X1004Y-1011
X10133Y-102975
X105348Y-059326
X1156Y-0955
T3
X0607Y-0942
X067Y-0928
X0836Y-1076
X0863Y-1074
X0864Y-0735
X0963Y-0851
X1054Y-06595
T5
X0696Y-1078
X0696Y-111864
T6
X084Y-0791
X08888Y-0791
T7
X0631Y-061344
X06564Y-061344
X06818Y-061344
X07072Y-061344
X072244Y-109604
X07326Y-061344
X074784Y-109604
X0758Y-061344
X077324Y-109604
X07834Y-061344
X079864Y-109604
X08088Y-061344
X082404Y-109604
X084944Y-061344
X084944Y-109604
X087484Y-061344
X090024Y-061344
X090024Y-109604
X092564Y-061344
X092564Y-109604
X095104Y-061344
X095104Y-109604
X097644Y-061344
X097644Y-109604
X100184Y-061344
X100184Y-109604
X102724Y-061344
X102724Y-109604
T9
X057Y-08806
X057Y-0906
T10
X05251Y-06697
X05251Y-06951
X05251Y-07205
X05505Y-06697
X05505Y-06951
X05505Y-07205
X06134Y-0695
X06134Y-07204
X06388Y-0695
X06388Y-07204
X063881Y-057277
X06642Y-0695
X06642Y-07204
X066421Y-057277
X06896Y-0695
X06896Y-07204
X068961Y-057277
X0715Y-0695
X0715Y-07204
X071501Y-057277
X074041Y-057277
X074041Y-113157
X076581Y-057277
X076581Y-113157
X079121Y-057277
X079121Y-113157
X081661Y-057277
X081661Y-113157
X084201Y-057277
X084201Y-113157
X086741Y-057277
X086741Y-113157
X08802Y-0679
X089281Y-057277
X089281Y-113157
X09056Y-0679
X0906Y-065
X091821Y-057277
X091821Y-113157
X0931Y-0679
X094361Y-057277
X094361Y-113157
X096901Y-057277
X096901Y-113157
X099329Y-081103
X099329Y-083643
X099329Y-086183
X099329Y-088723
X099329Y-091263
X099329Y-093803
X099329Y-096343
X099329Y-098883
X099441Y-057277
X099441Y-113157
X101869Y-081103
X101869Y-083643
X101869Y-086183
X101869Y-088723
X101869Y-091263
X101869Y-093803
X101869Y-096343
X101869Y-098883
X101981Y-057277
X101981Y-113157
X104521Y-113157
X107061Y-113157
X109707Y-081071
X109707Y-083611
X109707Y-086151
X109707Y-088691
X109707Y-091231
X109707Y-093771
X109707Y-096311
X109707Y-098851
X1101Y-1036
X1101Y-10614
X1101Y-10868
X112247Y-081071
X112247Y-083611
X112247Y-086151
X112247Y-088691
X112247Y-091231
X112247Y-093771
X112247Y-096311
X112247Y-098851
X11264Y-1036
X11264Y-10614
X11264Y-10868
X1129Y-0699
X1129Y-07244
X1129Y-07498
T12
X0566Y-1091
X0566Y-1136
X0631Y-1091
X0631Y-1136
X1141Y-0576
X1141Y-0621
X1206Y-0576
X1206Y-0621
T13
X0714Y-09872
X0714Y-10126
X0714Y-1038
T14
X118745Y-068961
X118745Y-074041
X118745Y-079121
X118745Y-084201
X118745Y-089281
X118745Y-094361
X118745Y-099441
X118745Y-104521
X118745Y-109601
T15
X053194Y-109604
X054464Y-061344
X105264Y-076584
X105264Y-104524
T16
X0544Y-0778
X0544Y-0828
T4
X051975Y-076425G85X051325Y-076425
G05
X051975Y-084175G85X051325Y-084175
G05
T8
X055725Y-076575G85X055175Y-076575
G05
X055725Y-084025G85X055175Y-084025
G05
T11
X056844Y-099442G85X056844Y-100962
G05
X058374Y-105282G85X059894Y-105282
G05
X062944Y-099442G85X062944Y-100962
G05
T0
M30
