G04 #@! TF.FileFunction,Soldermask,Top*
%FSLAX46Y46*%
G04 Gerber Fmt 4.6, Leading zero omitted, Abs format (unit mm)*
G04 Created by KiCad (PCBNEW 4.0.7) date 02/06/18 23:35:00*
%MOMM*%
%LPD*%
G01*
G04 APERTURE LIST*
%ADD10C,0.100000*%
%ADD11R,2.100000X2.100000*%
%ADD12O,2.100000X2.100000*%
%ADD13C,3.400000*%
%ADD14R,3.400000X3.400000*%
%ADD15R,1.200000X1.000000*%
%ADD16C,1.900000*%
%ADD17R,1.900000X1.700000*%
%ADD18R,1.700000X1.900000*%
%ADD19R,1.200000X1.300000*%
%ADD20R,1.300000X1.200000*%
%ADD21R,1.543000X0.908000*%
%ADD22R,0.950000X2.000000*%
%ADD23R,2.000000X0.950000*%
%ADD24R,1.797000X0.831800*%
%ADD25C,1.924000*%
%ADD26R,1.600000X1.150000*%
%ADD27R,1.150000X1.600000*%
%ADD28R,1.700000X0.850000*%
%ADD29O,2.400000X1.850000*%
%ADD30O,2.200000X1.550000*%
%ADD31O,1.200000X1.200000*%
%ADD32O,2.940000X2.432000*%
%ADD33R,2.200000X2.200000*%
%ADD34O,2.200000X2.200000*%
%ADD35R,1.600000X1.300000*%
%ADD36R,1.300000X1.600000*%
%ADD37C,1.100000*%
%ADD38C,0.900000*%
%ADD39C,2.400000*%
%ADD40C,5.200000*%
%ADD41R,5.200000X5.200000*%
%ADD42O,1.924000X2.940000*%
%ADD43C,4.337000*%
G04 APERTURE END LIST*
D10*
D11*
X110100000Y-103600000D03*
D12*
X112640000Y-103600000D03*
X110100000Y-106140000D03*
X112640000Y-106140000D03*
X110100000Y-108680000D03*
X112640000Y-108680000D03*
D13*
X118745000Y-104521000D03*
X118745000Y-99441000D03*
D14*
X118745000Y-109601000D03*
D13*
X118745000Y-94361000D03*
X118745000Y-89281000D03*
X118745000Y-84201000D03*
X118745000Y-79121000D03*
X118745000Y-74041000D03*
X118745000Y-68961000D03*
D15*
X78900000Y-100600000D03*
X78900000Y-98900000D03*
D11*
X71500000Y-69500000D03*
D12*
X71500000Y-72040000D03*
X68960000Y-69500000D03*
X68960000Y-72040000D03*
X66420000Y-69500000D03*
X66420000Y-72040000D03*
X63880000Y-69500000D03*
X63880000Y-72040000D03*
X61340000Y-69500000D03*
X61340000Y-72040000D03*
D16*
X88880000Y-79100000D03*
X84000000Y-79100000D03*
D17*
X108850000Y-57000000D03*
X106150000Y-57000000D03*
D18*
X52070000Y-93425000D03*
X52070000Y-90725000D03*
D11*
X86741000Y-113157000D03*
D12*
X84201000Y-113157000D03*
X81661000Y-113157000D03*
X79121000Y-113157000D03*
X76581000Y-113157000D03*
X74041000Y-113157000D03*
D11*
X89281000Y-113157000D03*
D12*
X91821000Y-113157000D03*
X94361000Y-113157000D03*
X96901000Y-113157000D03*
X99441000Y-113157000D03*
X101981000Y-113157000D03*
X104521000Y-113157000D03*
X107061000Y-113157000D03*
D11*
X63881000Y-57277000D03*
D12*
X66421000Y-57277000D03*
X68961000Y-57277000D03*
X71501000Y-57277000D03*
X74041000Y-57277000D03*
X76581000Y-57277000D03*
X79121000Y-57277000D03*
X81661000Y-57277000D03*
D11*
X84201000Y-57277000D03*
D12*
X86741000Y-57277000D03*
X89281000Y-57277000D03*
X91821000Y-57277000D03*
X94361000Y-57277000D03*
X96901000Y-57277000D03*
X99441000Y-57277000D03*
X101981000Y-57277000D03*
D19*
X69650000Y-85400000D03*
X67750000Y-85400000D03*
X68700000Y-87400000D03*
D20*
X85200000Y-106100000D03*
X85200000Y-104200000D03*
X83200000Y-105150000D03*
D21*
X70550000Y-89660000D03*
X70550000Y-90930000D03*
X70550000Y-92200000D03*
X70550000Y-93470000D03*
X64200000Y-93470000D03*
X64200000Y-92200000D03*
X64200000Y-90930000D03*
X64200000Y-89660000D03*
D22*
X89287000Y-85920000D03*
X88487000Y-85920000D03*
X87687000Y-85920000D03*
X86887000Y-85920000D03*
X86087000Y-85920000D03*
X85287000Y-85920000D03*
X84487000Y-85920000D03*
X83687000Y-85920000D03*
D23*
X82237000Y-87370000D03*
X82237000Y-88170000D03*
X82237000Y-88970000D03*
X82237000Y-89770000D03*
X82237000Y-90570000D03*
X82237000Y-91370000D03*
X82237000Y-92170000D03*
X82237000Y-92970000D03*
D22*
X83687000Y-94420000D03*
X84487000Y-94420000D03*
X85287000Y-94420000D03*
X86087000Y-94420000D03*
X86887000Y-94420000D03*
X87687000Y-94420000D03*
X88487000Y-94420000D03*
X89287000Y-94420000D03*
D23*
X90737000Y-92970000D03*
X90737000Y-92170000D03*
X90737000Y-91370000D03*
X90737000Y-90570000D03*
X90737000Y-89770000D03*
X90737000Y-88970000D03*
X90737000Y-88170000D03*
X90737000Y-87370000D03*
D24*
X68453000Y-82829400D03*
X68453000Y-82194400D03*
X68453000Y-81534000D03*
X68453000Y-80899000D03*
X68453000Y-80238600D03*
X68453000Y-79590900D03*
X68453000Y-78943200D03*
X62865000Y-78943200D03*
X62865000Y-79590900D03*
X62865000Y-80238600D03*
X62865000Y-80899000D03*
X62865000Y-81546700D03*
X62865000Y-82194400D03*
X62865000Y-82842100D03*
D25*
X69600000Y-107800000D03*
X69600000Y-111864000D03*
D11*
X93100000Y-67900000D03*
D12*
X90560000Y-67900000D03*
X88020000Y-67900000D03*
D26*
X78850000Y-97600000D03*
X80750000Y-97600000D03*
D27*
X66800000Y-98200000D03*
X66800000Y-96300000D03*
D26*
X88800000Y-97500000D03*
X86900000Y-97500000D03*
X68650000Y-105500000D03*
X66750000Y-105500000D03*
D27*
X81100000Y-106200000D03*
X81100000Y-104300000D03*
X89400000Y-104200000D03*
X89400000Y-106100000D03*
D26*
X109300000Y-64300000D03*
X111200000Y-64300000D03*
X94600000Y-88600000D03*
X96500000Y-88600000D03*
X87500000Y-75300000D03*
X89400000Y-75300000D03*
X85300000Y-75300000D03*
X83400000Y-75300000D03*
D27*
X60100000Y-77100000D03*
X60100000Y-79000000D03*
D26*
X87698000Y-83826000D03*
X85798000Y-83826000D03*
D11*
X90600000Y-65000000D03*
D26*
X62098000Y-85926000D03*
X63998000Y-85926000D03*
X64000000Y-87400000D03*
X62100000Y-87400000D03*
X107100000Y-59400000D03*
X109000000Y-59400000D03*
X111150000Y-65950000D03*
X109250000Y-65950000D03*
D27*
X52070000Y-86934000D03*
X52070000Y-88834000D03*
X87400000Y-106100000D03*
X87400000Y-104200000D03*
X78900000Y-104100000D03*
X78900000Y-102200000D03*
D26*
X96500000Y-90100000D03*
X94600000Y-90100000D03*
D27*
X65600000Y-111250000D03*
X65600000Y-113150000D03*
D20*
X66800000Y-100400000D03*
X66800000Y-102300000D03*
X68800000Y-101350000D03*
D28*
X55500000Y-79000000D03*
X55500000Y-79650000D03*
X55500000Y-80300000D03*
X55500000Y-80950000D03*
X55500000Y-81600000D03*
D29*
X55450000Y-76575000D03*
X55450000Y-84025000D03*
D30*
X51650000Y-76425000D03*
X51650000Y-84175000D03*
D31*
X54400000Y-77800000D03*
X54400000Y-82800000D03*
D11*
X112900000Y-69900000D03*
D12*
X112900000Y-72440000D03*
X112900000Y-74980000D03*
D32*
X71400000Y-101260000D03*
X71400000Y-103800000D03*
X71400000Y-98720000D03*
D11*
X109707158Y-96311198D03*
X112247158Y-96311198D03*
X99329158Y-96343198D03*
X101869158Y-96343198D03*
X109707158Y-91231198D03*
X112247158Y-91231198D03*
X109707158Y-93771198D03*
X112247158Y-93771198D03*
X99329158Y-93803198D03*
X101869158Y-93803198D03*
X99329158Y-91263198D03*
X101869158Y-91263198D03*
X99329158Y-88723198D03*
X101869158Y-88723198D03*
X99329158Y-86183198D03*
X101869158Y-86183198D03*
X99329158Y-83643198D03*
X101869158Y-83643198D03*
X99329158Y-81103198D03*
X101869158Y-81103198D03*
X109707158Y-81071198D03*
X112247158Y-81071198D03*
X109707158Y-98851198D03*
X112247158Y-98851198D03*
X99329158Y-98883198D03*
X101869158Y-98883198D03*
X109707158Y-83611198D03*
X112247158Y-83611198D03*
X109707158Y-86151198D03*
X112247158Y-86151198D03*
X109707158Y-88691198D03*
X112247158Y-88691198D03*
D33*
X57000000Y-88060000D03*
D34*
X57000000Y-90600000D03*
D35*
X83000000Y-102100000D03*
X80800000Y-102100000D03*
D36*
X84700000Y-97400000D03*
X84700000Y-99600000D03*
X82600000Y-97400000D03*
X82600000Y-99600000D03*
D26*
X87700000Y-102100000D03*
X89600000Y-102100000D03*
D37*
X86400000Y-73500000D03*
X60700000Y-94200000D03*
X86300000Y-107400000D03*
X83600000Y-107600000D03*
X67000000Y-92800000D03*
D38*
X60600000Y-87600000D03*
X60800000Y-84200000D03*
X61200000Y-77100000D03*
D37*
X96300000Y-85100000D03*
D38*
X89300000Y-83100000D03*
D37*
X105400000Y-65950000D03*
D39*
X63100000Y-109100000D03*
X63100000Y-113600000D03*
X56600000Y-109100000D03*
X56600000Y-113600000D03*
X114100000Y-62100000D03*
X114100000Y-57600000D03*
X120600000Y-62100000D03*
X120600000Y-57600000D03*
D40*
X56844000Y-100202000D03*
D41*
X62944000Y-100202000D03*
D40*
X59134000Y-105282000D03*
D42*
X102724000Y-109604000D03*
X100184000Y-109604000D03*
X97644000Y-109604000D03*
X90024000Y-109604000D03*
X92564000Y-109604000D03*
X95104000Y-109604000D03*
X84944000Y-109604000D03*
X82404000Y-109604000D03*
X79864000Y-109604000D03*
X74784000Y-109604000D03*
X72244000Y-109604000D03*
X102724000Y-61344000D03*
X100184000Y-61344000D03*
X97644000Y-61344000D03*
X95104000Y-61344000D03*
X92564000Y-61344000D03*
X90024000Y-61344000D03*
X87484000Y-61344000D03*
X84944000Y-61344000D03*
X80880000Y-61344000D03*
X78340000Y-61344000D03*
X75800000Y-61344000D03*
X73260000Y-61344000D03*
X70720000Y-61344000D03*
X68180000Y-61344000D03*
X65640000Y-61344000D03*
X63100000Y-61344000D03*
X77324000Y-109604000D03*
D43*
X105264000Y-104524000D03*
X105264000Y-76584000D03*
X54464000Y-61344000D03*
X53194000Y-109604000D03*
D26*
X89400000Y-70650000D03*
X91300000Y-70650000D03*
D11*
X55050000Y-72050000D03*
D12*
X52510000Y-72050000D03*
X55050000Y-69510000D03*
X52510000Y-69510000D03*
X55050000Y-66970000D03*
X52510000Y-66970000D03*
M02*
