%TF.GenerationSoftware,KiCad,Pcbnew,(5.1.7)-1*%
%TF.CreationDate,2020-10-18T16:27:18+02:00*%
%TF.ProjectId,Atmega_328_breakout,41746d65-6761-45f3-9332-385f62726561,rev?*%
%TF.SameCoordinates,Original*%
%TF.FileFunction,Copper,L2,Bot*%
%TF.FilePolarity,Positive*%
%FSLAX46Y46*%
G04 Gerber Fmt 4.6, Leading zero omitted, Abs format (unit mm)*
G04 Created by KiCad (PCBNEW (5.1.7)-1) date 2020-10-18 16:27:18*
%MOMM*%
%LPD*%
G01*
G04 APERTURE LIST*
%TA.AperFunction,ComponentPad*%
%ADD10O,1.700000X1.700000*%
%TD*%
%TA.AperFunction,ComponentPad*%
%ADD11R,1.700000X1.700000*%
%TD*%
%TA.AperFunction,ComponentPad*%
%ADD12C,3.937000*%
%TD*%
%TA.AperFunction,ComponentPad*%
%ADD13O,1.524000X2.540000*%
%TD*%
%TA.AperFunction,ComponentPad*%
%ADD14R,1.800000X4.400000*%
%TD*%
%TA.AperFunction,ComponentPad*%
%ADD15O,1.800000X4.000000*%
%TD*%
%TA.AperFunction,ComponentPad*%
%ADD16O,4.000000X1.800000*%
%TD*%
%TA.AperFunction,ComponentPad*%
%ADD17C,3.000000*%
%TD*%
%TA.AperFunction,ComponentPad*%
%ADD18R,3.000000X3.000000*%
%TD*%
%TA.AperFunction,ComponentPad*%
%ADD19O,1.300000X2.000000*%
%TD*%
%TA.AperFunction,ComponentPad*%
%ADD20R,1.300000X2.000000*%
%TD*%
%TA.AperFunction,ComponentPad*%
%ADD21O,1.800000X1.150000*%
%TD*%
%TA.AperFunction,ComponentPad*%
%ADD22O,2.000000X1.450000*%
%TD*%
%TA.AperFunction,ComponentPad*%
%ADD23O,1.800000X1.800000*%
%TD*%
%TA.AperFunction,ComponentPad*%
%ADD24R,1.800000X1.800000*%
%TD*%
%TA.AperFunction,ViaPad*%
%ADD25C,0.600000*%
%TD*%
%TA.AperFunction,ViaPad*%
%ADD26C,1.000000*%
%TD*%
%TA.AperFunction,ViaPad*%
%ADD27C,0.500000*%
%TD*%
%TA.AperFunction,ViaPad*%
%ADD28C,1.500000*%
%TD*%
%TA.AperFunction,Conductor*%
%ADD29C,0.250000*%
%TD*%
%TA.AperFunction,Conductor*%
%ADD30C,1.000000*%
%TD*%
%TA.AperFunction,Conductor*%
%ADD31C,0.350000*%
%TD*%
%TA.AperFunction,Conductor*%
%ADD32C,0.500000*%
%TD*%
%TA.AperFunction,Conductor*%
%ADD33C,0.160000*%
%TD*%
%TA.AperFunction,Conductor*%
%ADD34C,0.254000*%
%TD*%
%TA.AperFunction,Conductor*%
%ADD35C,0.100000*%
%TD*%
G04 APERTURE END LIST*
D10*
%TO.P,J20,8*%
%TO.N,ADC7*%
X107030000Y-113150000D03*
%TO.P,J20,7*%
%TO.N,ADC6*%
X104490000Y-113150000D03*
%TO.P,J20,6*%
%TO.N,PC5(SCL)*%
X101950000Y-113150000D03*
%TO.P,J20,5*%
%TO.N,PC4(SDA)*%
X99410000Y-113150000D03*
%TO.P,J20,4*%
%TO.N,PC3*%
X96870000Y-113150000D03*
%TO.P,J20,3*%
%TO.N,PC2*%
X94330000Y-113150000D03*
%TO.P,J20,2*%
%TO.N,PC1*%
X91790000Y-113150000D03*
D11*
%TO.P,J20,1*%
%TO.N,PC0*%
X89250000Y-113150000D03*
%TD*%
D10*
%TO.P,J10,6*%
%TO.N,VCC*%
X112812000Y-103186000D03*
%TO.P,J10,5*%
%TO.N,GND*%
X110272000Y-103186000D03*
%TO.P,J10,4*%
%TO.N,VCC*%
X112812000Y-105726000D03*
%TO.P,J10,3*%
%TO.N,GND*%
X110272000Y-105726000D03*
%TO.P,J10,2*%
%TO.N,VCC*%
X112812000Y-108266000D03*
D11*
%TO.P,J10,1*%
%TO.N,GND*%
X110272000Y-108266000D03*
%TD*%
D10*
%TO.P,J22,8*%
%TO.N,PD0(RX)*%
X101981000Y-57277000D03*
%TO.P,J22,7*%
%TO.N,PD1(TX)*%
X99441000Y-57277000D03*
%TO.P,J22,6*%
%TO.N,PD2*%
X96901000Y-57277000D03*
%TO.P,J22,5*%
%TO.N,PD3*%
X94361000Y-57277000D03*
%TO.P,J22,4*%
%TO.N,PD4*%
X91821000Y-57277000D03*
%TO.P,J22,3*%
%TO.N,PD5*%
X89281000Y-57277000D03*
%TO.P,J22,2*%
%TO.N,PD6*%
X86741000Y-57277000D03*
D11*
%TO.P,J22,1*%
%TO.N,PD7*%
X84201000Y-57277000D03*
%TD*%
D10*
%TO.P,J21,8*%
%TO.N,PB0*%
X81661000Y-57277000D03*
%TO.P,J21,7*%
%TO.N,PB1*%
X79121000Y-57277000D03*
%TO.P,J21,6*%
%TO.N,PB2*%
X76581000Y-57277000D03*
%TO.P,J21,5*%
%TO.N,PB3*%
X74041000Y-57277000D03*
%TO.P,J21,4*%
%TO.N,PB4*%
X71501000Y-57277000D03*
%TO.P,J21,3*%
%TO.N,PB5*%
X68961000Y-57277000D03*
%TO.P,J21,2*%
%TO.N,GND*%
X66421000Y-57277000D03*
D11*
%TO.P,J21,1*%
%TO.N,AREF*%
X63881000Y-57277000D03*
%TD*%
D10*
%TO.P,J19,6*%
%TO.N,~RESET*%
X74041000Y-113157000D03*
%TO.P,J19,5*%
%TO.N,+3V3*%
X76581000Y-113157000D03*
%TO.P,J19,4*%
%TO.N,+5V*%
X79121000Y-113157000D03*
%TO.P,J19,3*%
%TO.N,GND*%
X81661000Y-113157000D03*
%TO.P,J19,2*%
%TO.N,AGND*%
X84201000Y-113157000D03*
D11*
%TO.P,J19,1*%
%TO.N,V_supply*%
X86741000Y-113157000D03*
%TD*%
%TO.P,J18,3*%
%TO.N,Net-(J18-Pad1)*%
X113066000Y-98360000D03*
%TO.P,J18,2*%
X110526000Y-98360000D03*
%TO.P,J18,1*%
X107986000Y-98360000D03*
%TD*%
%TO.P,J17,3*%
%TO.N,Net-(J17-Pad1)*%
X105446000Y-98360000D03*
%TO.P,J17,2*%
X102906000Y-98360000D03*
%TO.P,J17,1*%
X100366000Y-98360000D03*
%TD*%
%TO.P,J16,3*%
%TO.N,Net-(J16-Pad1)*%
X113066000Y-95820000D03*
%TO.P,J16,2*%
X110526000Y-95820000D03*
%TO.P,J16,1*%
X107986000Y-95820000D03*
%TD*%
%TO.P,J15,3*%
%TO.N,Net-(J15-Pad1)*%
X105446000Y-95820000D03*
%TO.P,J15,2*%
X102906000Y-95820000D03*
%TO.P,J15,1*%
X100366000Y-95820000D03*
%TD*%
%TO.P,J14,3*%
%TO.N,Net-(J14-Pad1)*%
X113066000Y-93280000D03*
%TO.P,J14,2*%
X110526000Y-93280000D03*
%TO.P,J14,1*%
X107986000Y-93280000D03*
%TD*%
%TO.P,J13,3*%
%TO.N,Net-(J13-Pad1)*%
X105446000Y-93280000D03*
%TO.P,J13,2*%
X102906000Y-93280000D03*
%TO.P,J13,1*%
X100366000Y-93280000D03*
%TD*%
%TO.P,J12,3*%
%TO.N,Net-(J12-Pad1)*%
X113066000Y-90740000D03*
%TO.P,J12,2*%
X110526000Y-90740000D03*
%TO.P,J12,1*%
X107986000Y-90740000D03*
%TD*%
%TO.P,J11,3*%
%TO.N,Net-(J11-Pad1)*%
X105446000Y-90740000D03*
%TO.P,J11,2*%
X102906000Y-90740000D03*
%TO.P,J11,1*%
X100366000Y-90740000D03*
%TD*%
%TO.P,J9,3*%
%TO.N,Net-(J9-Pad1)*%
X105446000Y-88200000D03*
%TO.P,J9,2*%
X102906000Y-88200000D03*
%TO.P,J9,1*%
X100366000Y-88200000D03*
%TD*%
%TO.P,J8,3*%
%TO.N,Net-(J8-Pad1)*%
X113066000Y-88200000D03*
%TO.P,J8,2*%
X110526000Y-88200000D03*
%TO.P,J8,1*%
X107986000Y-88200000D03*
%TD*%
%TO.P,J7,3*%
%TO.N,Net-(J7-Pad1)*%
X105446000Y-85660000D03*
%TO.P,J7,2*%
X102906000Y-85660000D03*
%TO.P,J7,1*%
X100366000Y-85660000D03*
%TD*%
%TO.P,J6,3*%
%TO.N,Net-(J6-Pad1)*%
X113066000Y-85660000D03*
%TO.P,J6,2*%
X110526000Y-85660000D03*
%TO.P,J6,1*%
X107986000Y-85660000D03*
%TD*%
%TO.P,J5,3*%
%TO.N,Net-(J5-Pad1)*%
X105446000Y-83120000D03*
%TO.P,J5,2*%
X102906000Y-83120000D03*
%TO.P,J5,1*%
X100366000Y-83120000D03*
%TD*%
%TO.P,J4,3*%
%TO.N,Net-(J4-Pad1)*%
X113066000Y-83120000D03*
%TO.P,J4,2*%
X110526000Y-83120000D03*
%TO.P,J4,1*%
X107986000Y-83120000D03*
%TD*%
%TO.P,J3,3*%
%TO.N,Net-(J3-Pad1)*%
X105446000Y-80580000D03*
%TO.P,J3,2*%
X102906000Y-80580000D03*
%TO.P,J3,1*%
X100366000Y-80580000D03*
%TD*%
%TO.P,J2,3*%
%TO.N,Net-(J2-Pad1)*%
X113066000Y-80580000D03*
%TO.P,J2,2*%
X110526000Y-80580000D03*
%TO.P,J2,1*%
X107986000Y-80580000D03*
%TD*%
D12*
%TO.P,SHIELD1,GNDS*%
%TO.N,GND*%
X53249000Y-109663000D03*
X54519000Y-61403000D03*
X105319000Y-76643000D03*
X105319000Y-104583000D03*
D13*
%TO.P,SHIELD1,5V*%
%TO.N,+5V*%
X77379000Y-109663000D03*
%TO.P,SHIELD1,AREF*%
%TO.N,AREF*%
X63155000Y-61403000D03*
%TO.P,SHIELD1,GND3*%
%TO.N,GND*%
X65695000Y-61403000D03*
%TO.P,SHIELD1,13*%
%TO.N,PB5*%
X68235000Y-61403000D03*
%TO.P,SHIELD1,12*%
%TO.N,PB4*%
X70775000Y-61403000D03*
%TO.P,SHIELD1,11*%
%TO.N,PB3*%
X73315000Y-61403000D03*
%TO.P,SHIELD1,10*%
%TO.N,PB2*%
X75855000Y-61403000D03*
%TO.P,SHIELD1,9*%
%TO.N,PB1*%
X78395000Y-61403000D03*
%TO.P,SHIELD1,8*%
%TO.N,PB0*%
X80935000Y-61403000D03*
%TO.P,SHIELD1,7*%
%TO.N,PD7*%
X84999000Y-61403000D03*
%TO.P,SHIELD1,6*%
%TO.N,PD6*%
X87539000Y-61403000D03*
%TO.P,SHIELD1,5*%
%TO.N,PD5*%
X90079000Y-61403000D03*
%TO.P,SHIELD1,4*%
%TO.N,PD4*%
X92619000Y-61403000D03*
%TO.P,SHIELD1,3*%
%TO.N,PD3*%
X95159000Y-61403000D03*
%TO.P,SHIELD1,2*%
%TO.N,PD2*%
X97699000Y-61403000D03*
%TO.P,SHIELD1,1*%
%TO.N,PD1(TX)*%
X100239000Y-61403000D03*
%TO.P,SHIELD1,0*%
%TO.N,PD0(RX)*%
X102779000Y-61403000D03*
%TO.P,SHIELD1,RST*%
%TO.N,~RESET*%
X72299000Y-109663000D03*
%TO.P,SHIELD1,3V3*%
%TO.N,+3V3*%
X74839000Y-109663000D03*
%TO.P,SHIELD1,GND1*%
%TO.N,GND*%
X79919000Y-109663000D03*
%TO.P,SHIELD1,GND2*%
%TO.N,AGND*%
X82459000Y-109663000D03*
%TO.P,SHIELD1,V_IN*%
%TO.N,V_supply*%
X84999000Y-109663000D03*
%TO.P,SHIELD1,AD2*%
%TO.N,PC2*%
X95159000Y-109663000D03*
%TO.P,SHIELD1,AD1*%
%TO.N,PC1*%
X92619000Y-109663000D03*
%TO.P,SHIELD1,AD0*%
%TO.N,PC0*%
X90079000Y-109663000D03*
%TO.P,SHIELD1,AD3*%
%TO.N,PC3*%
X97699000Y-109663000D03*
%TO.P,SHIELD1,AD4*%
%TO.N,PC4(SDA)*%
X100239000Y-109663000D03*
%TO.P,SHIELD1,AD5*%
%TO.N,PC5(SCL)*%
X102779000Y-109663000D03*
%TD*%
D14*
%TO.P,J1,1*%
%TO.N,V_supply*%
X64044000Y-99884000D03*
D15*
%TO.P,J1,2*%
%TO.N,GND*%
X58244000Y-99884000D03*
D16*
%TO.P,J1,3*%
%TO.N,Net-(J1-Pad3)*%
X61044000Y-104684000D03*
%TD*%
D17*
%TO.P,J27,9*%
%TO.N,Net-(J25-Pad1)*%
X118745000Y-68961000D03*
%TO.P,J27,8*%
%TO.N,Net-(J25-Pad2)*%
X118745000Y-74041000D03*
%TO.P,J27,7*%
%TO.N,Net-(J25-Pad3)*%
X118745000Y-79121000D03*
%TO.P,J27,6*%
%TO.N,AGND*%
X118745000Y-84201000D03*
%TO.P,J27,5*%
%TO.N,+3V3*%
X118745000Y-89281000D03*
%TO.P,J27,4*%
%TO.N,VCC*%
X118745000Y-94361000D03*
D18*
%TO.P,J27,1*%
%TO.N,GND*%
X118745000Y-109601000D03*
D17*
%TO.P,J27,3*%
%TO.N,+5V*%
X118745000Y-99441000D03*
%TO.P,J27,2*%
%TO.N,V_supply*%
X118745000Y-104521000D03*
%TD*%
D11*
%TO.P,J23,1*%
%TO.N,Net-(J23-Pad1)*%
X89698000Y-68896000D03*
%TD*%
D19*
%TO.P,U2,3*%
%TO.N,+5V*%
X73700000Y-97250000D03*
D20*
%TO.P,U2,2*%
%TO.N,GND*%
X71300000Y-97250000D03*
D19*
%TO.P,U2,1*%
%TO.N,Net-(C2-Pad2)*%
X68900000Y-97250000D03*
%TD*%
D21*
%TO.P,J28,6*%
%TO.N,Net-(J28-Pad6)*%
X51650000Y-84175000D03*
X51650000Y-76425000D03*
D22*
X55450000Y-84025000D03*
X55450000Y-76575000D03*
%TD*%
D10*
%TO.P,J26,10*%
%TO.N,PD0(RX)*%
X61340000Y-72040000D03*
%TO.P,J26,9*%
%TO.N,PD1(TX)*%
X61340000Y-69500000D03*
%TO.P,J26,8*%
%TO.N,PC5(SCL)*%
X63880000Y-72040000D03*
%TO.P,J26,7*%
%TO.N,PC4(SDA)*%
X63880000Y-69500000D03*
%TO.P,J26,6*%
%TO.N,GND*%
X66420000Y-72040000D03*
%TO.P,J26,5*%
X66420000Y-69500000D03*
%TO.P,J26,4*%
%TO.N,PB2*%
X68960000Y-72040000D03*
%TO.P,J26,3*%
%TO.N,PB5*%
X68960000Y-69500000D03*
%TO.P,J26,2*%
%TO.N,PB3*%
X71500000Y-72040000D03*
D11*
%TO.P,J26,1*%
%TO.N,PB4*%
X71500000Y-69500000D03*
%TD*%
D10*
%TO.P,J25,3*%
%TO.N,Net-(J25-Pad3)*%
X112900000Y-74980000D03*
%TO.P,J25,2*%
%TO.N,Net-(J25-Pad2)*%
X112900000Y-72440000D03*
D11*
%TO.P,J25,1*%
%TO.N,Net-(J25-Pad1)*%
X112900000Y-69900000D03*
%TD*%
D10*
%TO.P,J24,3*%
%TO.N,GND*%
X87158000Y-72452000D03*
%TO.P,J24,2*%
%TO.N,Net-(J23-Pad1)*%
X89698000Y-72452000D03*
D11*
%TO.P,J24,1*%
%TO.N,VCC*%
X92238000Y-72452000D03*
%TD*%
D10*
%TO.P,ISP1,6*%
%TO.N,GND*%
X52510000Y-66970000D03*
%TO.P,ISP1,5*%
%TO.N,~RESET*%
X55050000Y-66970000D03*
%TO.P,ISP1,4*%
%TO.N,PB3*%
X52510000Y-69510000D03*
%TO.P,ISP1,3*%
%TO.N,PB5*%
X55050000Y-69510000D03*
%TO.P,ISP1,2*%
%TO.N,VCC*%
X52510000Y-72050000D03*
D11*
%TO.P,ISP1,1*%
%TO.N,PB4*%
X55050000Y-72050000D03*
%TD*%
D23*
%TO.P,D1,2*%
%TO.N,V_supply*%
X57000000Y-90600000D03*
D24*
%TO.P,D1,1*%
%TO.N,Net-(C2-Pad2)*%
X57000000Y-88060000D03*
%TD*%
D25*
%TO.N,GND*%
X67092000Y-102678000D03*
X77506000Y-93788000D03*
X81062000Y-77532000D03*
X90700000Y-103700000D03*
X86150000Y-107250000D03*
X89050000Y-83100000D03*
X66250000Y-94150000D03*
X63500000Y-96650000D03*
X96500000Y-85900000D03*
X58750000Y-77150000D03*
X86650000Y-80326000D03*
X75474000Y-102932000D03*
X82300000Y-101700000D03*
X87700000Y-99000000D03*
%TO.N,AREF*%
X85126000Y-99249000D03*
X85126000Y-97598000D03*
X84300000Y-89600000D03*
X75700000Y-89500000D03*
%TO.N,+3V3*%
X109637000Y-101408000D03*
X87400000Y-108600000D03*
X86700000Y-110900000D03*
X91000000Y-106100000D03*
D26*
%TO.N,VCC*%
X80808000Y-98106000D03*
D25*
X83699999Y-87300000D03*
X69400000Y-84100000D03*
X87300000Y-91500008D03*
X97700000Y-87200000D03*
%TO.N,AGND*%
X113574000Y-100138000D03*
X101128000Y-101662000D03*
X90968000Y-102424000D03*
X88428000Y-102805000D03*
X115600000Y-95500000D03*
%TO.N,PD6*%
X111923000Y-62165000D03*
%TO.N,V_supply*%
X69900000Y-113800000D03*
D27*
%TO.N,~RESET*%
X73600000Y-92400000D03*
X69500000Y-80900000D03*
X89170000Y-89770000D03*
D25*
X74675000Y-105150000D03*
%TO.N,ADC7*%
X88922583Y-93128048D03*
X97500000Y-97700000D03*
%TO.N,ADC6*%
X85583997Y-93175010D03*
X96704026Y-97780279D03*
D27*
%TO.N,PC5(SCL)*%
X89200000Y-90600006D03*
X75348000Y-90526000D03*
%TO.N,PC4(SDA)*%
X88700000Y-91400000D03*
X74848000Y-91426000D03*
D25*
%TO.N,PB2*%
X75700000Y-73600000D03*
%TO.N,PD0(RX)*%
X89400000Y-88900000D03*
D27*
X69600000Y-79600000D03*
D25*
%TO.N,PD1(TX)*%
X88500000Y-88200000D03*
D27*
X70000000Y-80200000D03*
D25*
%TO.N,PD7*%
X105348000Y-59326000D03*
D28*
%TO.N,Net-(J28-Pad6)*%
X57948000Y-84136000D03*
D25*
%TO.N,Net-(U3-Pad1)*%
X68500000Y-92800000D03*
X66700000Y-89000000D03*
%TD*%
D29*
%TO.N,GND*%
X66400000Y-73600000D02*
X66400000Y-74500000D01*
X66420000Y-72040000D02*
X66420000Y-73580000D01*
X66420000Y-73580000D02*
X66400000Y-73600000D01*
X66420000Y-72040000D02*
X66420000Y-70837919D01*
X66420000Y-70837919D02*
X66420000Y-69500000D01*
D30*
X79812000Y-109530000D02*
X79812000Y-111308000D01*
X79812000Y-111308000D02*
X81661000Y-113157000D01*
D29*
X80010000Y-109601000D02*
X80010000Y-111506000D01*
X80010000Y-111506000D02*
X81661000Y-113157000D01*
%TO.N,AREF*%
X84200000Y-89500000D02*
X84300000Y-89600000D01*
X75700000Y-89500000D02*
X84200000Y-89500000D01*
X85126000Y-97598000D02*
X85126000Y-99249000D01*
D31*
%TO.N,+5V*%
X77272000Y-109530000D02*
X77272000Y-111308000D01*
X77272000Y-111308000D02*
X79121000Y-113157000D01*
X77470000Y-109601000D02*
X77470000Y-111506000D01*
X77470000Y-111506000D02*
X79121000Y-113157000D01*
X77506000Y-109536000D02*
X77379000Y-109663000D01*
D29*
%TO.N,+3V3*%
X87400000Y-108600000D02*
X87400000Y-110200000D01*
X86700000Y-110900000D02*
X87400000Y-110200000D01*
D30*
X76581000Y-113157000D02*
X74732000Y-111308000D01*
X74732000Y-111308000D02*
X74732000Y-109530000D01*
D31*
X101030057Y-103275446D02*
X101330056Y-102975447D01*
X98205503Y-106100000D02*
X101030057Y-103275446D01*
X91000000Y-106100000D02*
X98205503Y-106100000D01*
D29*
X74930000Y-109601000D02*
X74930000Y-111506000D01*
X74930000Y-111506000D02*
X76581000Y-113157000D01*
D31*
X102897503Y-101408000D02*
X101330056Y-102975447D01*
X109637000Y-101408000D02*
X102897503Y-101408000D01*
D32*
%TO.N,VCC*%
X83400000Y-87000001D02*
X83699999Y-87300000D01*
X69400000Y-84100000D02*
X80499999Y-84100000D01*
X80499999Y-84100000D02*
X83400000Y-87000001D01*
X69400000Y-84100000D02*
X69824264Y-84100000D01*
X84800001Y-92199999D02*
X86600009Y-92199999D01*
X87000001Y-91800007D02*
X87300000Y-91500008D01*
X86600009Y-92199999D02*
X87000001Y-91800007D01*
X112750000Y-108650000D02*
X112750000Y-106110000D01*
X112750000Y-103570000D02*
X112750000Y-106110000D01*
X113227320Y-103092680D02*
X112750000Y-103570000D01*
X80808000Y-96192000D02*
X81756000Y-95244000D01*
X80808000Y-98106000D02*
X80808000Y-96192000D01*
X81756000Y-95244000D02*
X84800001Y-92199999D01*
X81600000Y-95400000D02*
X81756000Y-95244000D01*
X80808000Y-98106000D02*
X83094000Y-100392000D01*
X112750000Y-103570000D02*
X115860000Y-100460000D01*
X115860000Y-97246000D02*
X118745000Y-94361000D01*
X115860000Y-100460000D02*
X115860000Y-97246000D01*
X112750000Y-103570000D02*
X112750000Y-102150000D01*
X110992000Y-100392000D02*
X83094000Y-100392000D01*
X112750000Y-102150000D02*
X110992000Y-100392000D01*
X92521953Y-92378047D02*
X97700000Y-87200000D01*
X88178039Y-92378047D02*
X92521953Y-92378047D01*
X87300000Y-91500008D02*
X88178039Y-92378047D01*
D30*
%TO.N,Net-(J13-Pad1)*%
X105446000Y-93280000D02*
X100366000Y-93280000D01*
%TO.N,Net-(J14-Pad1)*%
X113066000Y-93280000D02*
X107986000Y-93280000D01*
%TO.N,Net-(J15-Pad1)*%
X100366000Y-95820000D02*
X105446000Y-95820000D01*
%TO.N,Net-(J16-Pad1)*%
X107986000Y-95820000D02*
X113066000Y-95820000D01*
%TO.N,Net-(J18-Pad1)*%
X113066000Y-98360000D02*
X107986000Y-98360000D01*
%TO.N,Net-(J25-Pad1)*%
X112900000Y-69900000D02*
X117806000Y-69900000D01*
D29*
X117806000Y-69900000D02*
X118745000Y-68961000D01*
D30*
%TO.N,AGND*%
X82352000Y-109530000D02*
X82352000Y-111308000D01*
X82352000Y-111308000D02*
X84201000Y-113157000D01*
D29*
X82550000Y-109601000D02*
X82550000Y-111506000D01*
X82550000Y-111506000D02*
X84201000Y-113157000D01*
D31*
X82459000Y-108774000D02*
X88428000Y-102805000D01*
X82459000Y-109663000D02*
X82459000Y-108774000D01*
X100366000Y-102424000D02*
X101128000Y-101662000D01*
X90968000Y-102424000D02*
X100366000Y-102424000D01*
X113574000Y-100138000D02*
X114336000Y-100138000D01*
X114336000Y-100138000D02*
X115098000Y-99376000D01*
X115098000Y-96002000D02*
X115600000Y-95500000D01*
X115098000Y-99376000D02*
X115098000Y-96002000D01*
D29*
%TO.N,PD6*%
X87432000Y-60762000D02*
X87432000Y-61270000D01*
X88519010Y-59674990D02*
X87432000Y-60762000D01*
X87432000Y-61270000D02*
X87432000Y-61778000D01*
X104096990Y-59674990D02*
X88519010Y-59674990D01*
X106587000Y-62165000D02*
X104096990Y-59674990D01*
X111923000Y-62165000D02*
X106587000Y-62165000D01*
D30*
%TO.N,V_supply*%
X84892000Y-111308000D02*
X86741000Y-113157000D01*
X84892000Y-109530000D02*
X84892000Y-111308000D01*
D32*
X69900000Y-113800000D02*
X71000000Y-114900000D01*
X84998000Y-114900000D02*
X86741000Y-113157000D01*
X71000000Y-114900000D02*
X84998000Y-114900000D01*
D29*
%TO.N,~RESET*%
X80300000Y-80900000D02*
X69600000Y-80900000D01*
X69600000Y-80900000D02*
X69500000Y-81000000D01*
X69500000Y-81000000D02*
X69500000Y-80900000D01*
X72192000Y-109530000D02*
X72192000Y-111308000D01*
X72192000Y-111308000D02*
X74041000Y-113157000D01*
X72192000Y-109022000D02*
X72192000Y-109530000D01*
X72390000Y-109601000D02*
X72390000Y-111506000D01*
X72390000Y-111506000D02*
X74041000Y-113157000D01*
X75646447Y-88500000D02*
X87900000Y-88500000D01*
X73600000Y-90546447D02*
X75646447Y-88500000D01*
X87900000Y-88500000D02*
X88212500Y-88812500D01*
X88212500Y-88812500D02*
X80300000Y-80900000D01*
X73600000Y-92400000D02*
X73600000Y-90546447D01*
X89170000Y-89770000D02*
X88212500Y-88812500D01*
X72299000Y-107526000D02*
X74675000Y-105150000D01*
X72299000Y-109663000D02*
X72299000Y-107526000D01*
%TO.N,PB3*%
X52608000Y-69596000D02*
X53850000Y-68354000D01*
X53850000Y-68354000D02*
X53850000Y-66614998D01*
X53850000Y-66614998D02*
X53874999Y-66589999D01*
X72578999Y-70675001D02*
X71288000Y-71966000D01*
X53874999Y-66589999D02*
X53874999Y-65825001D01*
X53874999Y-65825001D02*
X54650000Y-65050000D01*
X54650000Y-65050000D02*
X69335002Y-65050000D01*
X69335002Y-65050000D02*
X73200000Y-68914998D01*
X73200000Y-68914998D02*
X73200000Y-70085002D01*
X73200000Y-70085002D02*
X72610001Y-70675001D01*
X72610001Y-70675001D02*
X72578999Y-70675001D01*
X71288000Y-71966000D02*
X72254000Y-71000000D01*
%TO.N,PB5*%
X59504998Y-69596000D02*
X60775999Y-68324999D01*
X67646999Y-68324999D02*
X68748000Y-69426000D01*
X60775999Y-68324999D02*
X67646999Y-68324999D01*
X55148000Y-69596000D02*
X59504998Y-69596000D01*
D33*
%TO.N,PB4*%
X71500000Y-69500000D02*
X71500000Y-68490000D01*
X71500000Y-68490000D02*
X70929988Y-67919988D01*
X70929988Y-67919988D02*
X60608238Y-67919988D01*
X60608238Y-67919988D02*
X60148227Y-68379999D01*
X60148227Y-68379999D02*
X54507599Y-68379999D01*
X54507599Y-68379999D02*
X53919999Y-68967599D01*
X53919999Y-68967599D02*
X53919999Y-71929999D01*
X53919999Y-71929999D02*
X54040000Y-72050000D01*
X54040000Y-72050000D02*
X55050000Y-72050000D01*
D30*
%TO.N,Net-(J2-Pad1)*%
X113066000Y-80580000D02*
X107986000Y-80580000D01*
%TO.N,Net-(J3-Pad1)*%
X105446000Y-80580000D02*
X100366000Y-80580000D01*
%TO.N,Net-(J4-Pad1)*%
X107986000Y-83120000D02*
X113066000Y-83120000D01*
%TO.N,Net-(J5-Pad1)*%
X100366000Y-83120000D02*
X105446000Y-83120000D01*
%TO.N,Net-(J6-Pad1)*%
X107986000Y-85660000D02*
X113066000Y-85660000D01*
%TO.N,Net-(J7-Pad1)*%
X100366000Y-85660000D02*
X105446000Y-85660000D01*
%TO.N,Net-(J8-Pad1)*%
X113066000Y-88200000D02*
X107986000Y-88200000D01*
%TO.N,Net-(J9-Pad1)*%
X105446000Y-88200000D02*
X100366000Y-88200000D01*
%TO.N,Net-(J11-Pad1)*%
X100366000Y-90740000D02*
X105446000Y-90740000D01*
%TO.N,Net-(J12-Pad1)*%
X107986000Y-90740000D02*
X113066000Y-90740000D01*
%TO.N,Net-(J17-Pad1)*%
X105446000Y-98360000D02*
X100366000Y-98360000D01*
D31*
%TO.N,ADC7*%
X89346847Y-93128048D02*
X88922583Y-93128048D01*
X97500000Y-97275736D02*
X93352312Y-93128048D01*
X97500000Y-97700000D02*
X97500000Y-97275736D01*
X93352312Y-93128048D02*
X89346847Y-93128048D01*
%TO.N,ADC6*%
X96704026Y-97780279D02*
X90189266Y-97780279D01*
X85883996Y-93475009D02*
X85583997Y-93175010D01*
X90189266Y-97780279D02*
X85883996Y-93475009D01*
D29*
%TO.N,PC5(SCL)*%
X88846447Y-90600006D02*
X89200000Y-90600006D01*
X86618573Y-90020012D02*
X88012890Y-90020012D01*
X88592884Y-90600006D02*
X88846447Y-90600006D01*
X86112585Y-90526000D02*
X86618573Y-90020012D01*
X75348000Y-90526000D02*
X86112585Y-90526000D01*
X88012890Y-90020012D02*
X88592884Y-90600006D01*
X101981000Y-110490000D02*
X102870000Y-109601000D01*
%TO.N,PC4(SDA)*%
X87770023Y-90470023D02*
X88450001Y-91150001D01*
X86804973Y-90470023D02*
X87770023Y-90470023D01*
X85848996Y-91426000D02*
X86804973Y-90470023D01*
X88450001Y-91150001D02*
X88700000Y-91400000D01*
X74848000Y-91426000D02*
X85848996Y-91426000D01*
X99441000Y-110490000D02*
X100330000Y-109601000D01*
%TO.N,PC3*%
X96901000Y-110490000D02*
X97790000Y-109601000D01*
%TO.N,PC2*%
X94361000Y-110490000D02*
X95250000Y-109601000D01*
%TO.N,PC1*%
X91821000Y-110490000D02*
X92710000Y-109601000D01*
%TO.N,PC0*%
X89281000Y-110490000D02*
X90170000Y-109601000D01*
%TO.N,PB2*%
X68748000Y-71966000D02*
X70382000Y-73600000D01*
X75275736Y-73600000D02*
X75700000Y-73600000D01*
X70382000Y-73600000D02*
X75275736Y-73600000D01*
%TO.N,PD0(RX)*%
X69699999Y-79574999D02*
X69637499Y-79637499D01*
X80800001Y-79574999D02*
X69699999Y-79574999D01*
X89400000Y-88174998D02*
X80800001Y-79574999D01*
X69637499Y-79637499D02*
X69600000Y-79600000D01*
X89400000Y-88900000D02*
X89400000Y-88174998D01*
%TO.N,PD1(TX)*%
X80500000Y-80200000D02*
X80100000Y-80200000D01*
X88500000Y-88200000D02*
X80500000Y-80200000D01*
X80100000Y-80200000D02*
X80352826Y-80200000D01*
X70000000Y-80200000D02*
X80100000Y-80200000D01*
%TO.N,PD7*%
X84892000Y-61778000D02*
X84892000Y-61270000D01*
X105348000Y-59326000D02*
X104648000Y-58626000D01*
X104648000Y-58626000D02*
X87028000Y-58626000D01*
X87028000Y-58626000D02*
X84892000Y-60762000D01*
X84892000Y-60762000D02*
X84892000Y-61270000D01*
D30*
%TO.N,Net-(J25-Pad3)*%
X112900000Y-74980000D02*
X114504000Y-74980000D01*
D29*
X114504000Y-74980000D02*
X114554000Y-74930000D01*
D30*
X114554000Y-74930000D02*
X118745000Y-79121000D01*
%TO.N,Net-(J25-Pad2)*%
X117144000Y-72440000D02*
X118745000Y-74041000D01*
X112900000Y-72440000D02*
X117144000Y-72440000D01*
D31*
%TO.N,Net-(J28-Pad6)*%
X51650000Y-84175000D02*
X55300000Y-84175000D01*
X55300000Y-84175000D02*
X55450000Y-84025000D01*
X51650000Y-76425000D02*
X55300000Y-76425000D01*
X55300000Y-76425000D02*
X55450000Y-76575000D01*
D30*
X57837000Y-84025000D02*
X57948000Y-84136000D01*
D29*
%TO.N,Net-(U3-Pad1)*%
X66700000Y-91000000D02*
X68500000Y-92800000D01*
X66700000Y-89000000D02*
X66700000Y-91000000D01*
%TD*%
D34*
%TO.N,GND*%
X123290000Y-115290000D02*
X85859578Y-115290000D01*
X86504507Y-114645072D01*
X87591000Y-114645072D01*
X87715482Y-114632812D01*
X87835180Y-114596502D01*
X87945494Y-114537537D01*
X87999765Y-114492998D01*
X88045506Y-114530537D01*
X88155820Y-114589502D01*
X88275518Y-114625812D01*
X88400000Y-114638072D01*
X90100000Y-114638072D01*
X90224482Y-114625812D01*
X90344180Y-114589502D01*
X90454494Y-114530537D01*
X90551185Y-114451185D01*
X90630537Y-114354494D01*
X90689502Y-114244180D01*
X90711513Y-114171620D01*
X90843368Y-114303475D01*
X91086589Y-114465990D01*
X91356842Y-114577932D01*
X91643740Y-114635000D01*
X91936260Y-114635000D01*
X92223158Y-114577932D01*
X92493411Y-114465990D01*
X92736632Y-114303475D01*
X92943475Y-114096632D01*
X93060000Y-113922240D01*
X93176525Y-114096632D01*
X93383368Y-114303475D01*
X93626589Y-114465990D01*
X93896842Y-114577932D01*
X94183740Y-114635000D01*
X94476260Y-114635000D01*
X94763158Y-114577932D01*
X95033411Y-114465990D01*
X95276632Y-114303475D01*
X95483475Y-114096632D01*
X95600000Y-113922240D01*
X95716525Y-114096632D01*
X95923368Y-114303475D01*
X96166589Y-114465990D01*
X96436842Y-114577932D01*
X96723740Y-114635000D01*
X97016260Y-114635000D01*
X97303158Y-114577932D01*
X97573411Y-114465990D01*
X97816632Y-114303475D01*
X98023475Y-114096632D01*
X98140000Y-113922240D01*
X98256525Y-114096632D01*
X98463368Y-114303475D01*
X98706589Y-114465990D01*
X98976842Y-114577932D01*
X99263740Y-114635000D01*
X99556260Y-114635000D01*
X99843158Y-114577932D01*
X100113411Y-114465990D01*
X100356632Y-114303475D01*
X100563475Y-114096632D01*
X100680000Y-113922240D01*
X100796525Y-114096632D01*
X101003368Y-114303475D01*
X101246589Y-114465990D01*
X101516842Y-114577932D01*
X101803740Y-114635000D01*
X102096260Y-114635000D01*
X102383158Y-114577932D01*
X102653411Y-114465990D01*
X102896632Y-114303475D01*
X103103475Y-114096632D01*
X103220000Y-113922240D01*
X103336525Y-114096632D01*
X103543368Y-114303475D01*
X103786589Y-114465990D01*
X104056842Y-114577932D01*
X104343740Y-114635000D01*
X104636260Y-114635000D01*
X104923158Y-114577932D01*
X105193411Y-114465990D01*
X105436632Y-114303475D01*
X105643475Y-114096632D01*
X105760000Y-113922240D01*
X105876525Y-114096632D01*
X106083368Y-114303475D01*
X106326589Y-114465990D01*
X106596842Y-114577932D01*
X106883740Y-114635000D01*
X107176260Y-114635000D01*
X107463158Y-114577932D01*
X107733411Y-114465990D01*
X107976632Y-114303475D01*
X108183475Y-114096632D01*
X108345990Y-113853411D01*
X108457932Y-113583158D01*
X108515000Y-113296260D01*
X108515000Y-113003740D01*
X108457932Y-112716842D01*
X108345990Y-112446589D01*
X108183475Y-112203368D01*
X107976632Y-111996525D01*
X107733411Y-111834010D01*
X107463158Y-111722068D01*
X107176260Y-111665000D01*
X106883740Y-111665000D01*
X106596842Y-111722068D01*
X106326589Y-111834010D01*
X106083368Y-111996525D01*
X105876525Y-112203368D01*
X105760000Y-112377760D01*
X105643475Y-112203368D01*
X105436632Y-111996525D01*
X105193411Y-111834010D01*
X104923158Y-111722068D01*
X104636260Y-111665000D01*
X104343740Y-111665000D01*
X104056842Y-111722068D01*
X103786589Y-111834010D01*
X103543368Y-111996525D01*
X103336525Y-112203368D01*
X103220000Y-112377760D01*
X103103475Y-112203368D01*
X102896632Y-111996525D01*
X102653411Y-111834010D01*
X102383158Y-111722068D01*
X102096260Y-111665000D01*
X101803740Y-111665000D01*
X101516842Y-111722068D01*
X101246589Y-111834010D01*
X101003368Y-111996525D01*
X100796525Y-112203368D01*
X100680000Y-112377760D01*
X100563475Y-112203368D01*
X100356632Y-111996525D01*
X100113411Y-111834010D01*
X99843158Y-111722068D01*
X99556260Y-111665000D01*
X99263740Y-111665000D01*
X98976842Y-111722068D01*
X98706589Y-111834010D01*
X98463368Y-111996525D01*
X98256525Y-112203368D01*
X98140000Y-112377760D01*
X98023475Y-112203368D01*
X97816632Y-111996525D01*
X97573411Y-111834010D01*
X97303158Y-111722068D01*
X97016260Y-111665000D01*
X96723740Y-111665000D01*
X96436842Y-111722068D01*
X96166589Y-111834010D01*
X95923368Y-111996525D01*
X95716525Y-112203368D01*
X95600000Y-112377760D01*
X95483475Y-112203368D01*
X95276632Y-111996525D01*
X95033411Y-111834010D01*
X94763158Y-111722068D01*
X94476260Y-111665000D01*
X94183740Y-111665000D01*
X93896842Y-111722068D01*
X93626589Y-111834010D01*
X93383368Y-111996525D01*
X93176525Y-112203368D01*
X93060000Y-112377760D01*
X92943475Y-112203368D01*
X92736632Y-111996525D01*
X92493411Y-111834010D01*
X92223158Y-111722068D01*
X91936260Y-111665000D01*
X91643740Y-111665000D01*
X91356842Y-111722068D01*
X91086589Y-111834010D01*
X90843368Y-111996525D01*
X90711513Y-112128380D01*
X90689502Y-112055820D01*
X90630537Y-111945506D01*
X90551185Y-111848815D01*
X90454494Y-111769463D01*
X90344180Y-111710498D01*
X90224482Y-111674188D01*
X90100000Y-111661928D01*
X88400000Y-111661928D01*
X88275518Y-111674188D01*
X88155820Y-111710498D01*
X88045506Y-111769463D01*
X87991235Y-111814002D01*
X87945494Y-111776463D01*
X87835180Y-111717498D01*
X87715482Y-111681188D01*
X87591000Y-111668928D01*
X87232174Y-111668928D01*
X87296028Y-111626262D01*
X87426262Y-111496028D01*
X87528586Y-111342889D01*
X87599068Y-111172729D01*
X87623153Y-111051650D01*
X87911008Y-110763795D01*
X87940001Y-110740001D01*
X87963795Y-110711008D01*
X87963799Y-110711004D01*
X88034973Y-110624277D01*
X88046638Y-110602454D01*
X88105546Y-110492247D01*
X88106227Y-110490000D01*
X88517324Y-110490000D01*
X88531998Y-110638985D01*
X88575454Y-110782246D01*
X88646026Y-110914276D01*
X88740999Y-111030001D01*
X88856724Y-111124974D01*
X88988754Y-111195546D01*
X89132015Y-111239002D01*
X89184568Y-111244178D01*
X89299114Y-111338183D01*
X89541806Y-111467904D01*
X89805141Y-111547786D01*
X90079000Y-111574759D01*
X90352860Y-111547786D01*
X90616195Y-111467904D01*
X90858887Y-111338183D01*
X91071608Y-111163608D01*
X91231127Y-110969232D01*
X91280999Y-111030001D01*
X91396724Y-111124974D01*
X91528754Y-111195546D01*
X91672015Y-111239002D01*
X91724568Y-111244178D01*
X91839114Y-111338183D01*
X92081806Y-111467904D01*
X92345141Y-111547786D01*
X92619000Y-111574759D01*
X92892860Y-111547786D01*
X93156195Y-111467904D01*
X93398887Y-111338183D01*
X93611608Y-111163608D01*
X93771127Y-110969232D01*
X93820999Y-111030001D01*
X93936724Y-111124974D01*
X94068754Y-111195546D01*
X94212015Y-111239002D01*
X94264568Y-111244178D01*
X94379114Y-111338183D01*
X94621806Y-111467904D01*
X94885141Y-111547786D01*
X95159000Y-111574759D01*
X95432860Y-111547786D01*
X95696195Y-111467904D01*
X95938887Y-111338183D01*
X96151608Y-111163608D01*
X96311127Y-110969232D01*
X96360999Y-111030001D01*
X96476724Y-111124974D01*
X96608754Y-111195546D01*
X96752015Y-111239002D01*
X96804568Y-111244178D01*
X96919114Y-111338183D01*
X97161806Y-111467904D01*
X97425141Y-111547786D01*
X97699000Y-111574759D01*
X97972860Y-111547786D01*
X98236195Y-111467904D01*
X98478887Y-111338183D01*
X98691608Y-111163608D01*
X98851127Y-110969232D01*
X98900999Y-111030001D01*
X99016724Y-111124974D01*
X99148754Y-111195546D01*
X99292015Y-111239002D01*
X99344568Y-111244178D01*
X99459114Y-111338183D01*
X99701806Y-111467904D01*
X99965141Y-111547786D01*
X100239000Y-111574759D01*
X100512860Y-111547786D01*
X100776195Y-111467904D01*
X101018887Y-111338183D01*
X101231608Y-111163608D01*
X101391127Y-110969232D01*
X101440999Y-111030001D01*
X101556724Y-111124974D01*
X101688754Y-111195546D01*
X101832015Y-111239002D01*
X101884568Y-111244178D01*
X101999114Y-111338183D01*
X102241806Y-111467904D01*
X102505141Y-111547786D01*
X102779000Y-111574759D01*
X103052860Y-111547786D01*
X103316195Y-111467904D01*
X103558887Y-111338183D01*
X103771608Y-111163608D01*
X103822988Y-111101000D01*
X116606928Y-111101000D01*
X116619188Y-111225482D01*
X116655498Y-111345180D01*
X116714463Y-111455494D01*
X116793815Y-111552185D01*
X116890506Y-111631537D01*
X117000820Y-111690502D01*
X117120518Y-111726812D01*
X117245000Y-111739072D01*
X118459250Y-111736000D01*
X118618000Y-111577250D01*
X118618000Y-109728000D01*
X118872000Y-109728000D01*
X118872000Y-111577250D01*
X119030750Y-111736000D01*
X120245000Y-111739072D01*
X120369482Y-111726812D01*
X120489180Y-111690502D01*
X120599494Y-111631537D01*
X120696185Y-111552185D01*
X120775537Y-111455494D01*
X120834502Y-111345180D01*
X120870812Y-111225482D01*
X120883072Y-111101000D01*
X120880000Y-109886750D01*
X120721250Y-109728000D01*
X118872000Y-109728000D01*
X118618000Y-109728000D01*
X116768750Y-109728000D01*
X116610000Y-109886750D01*
X116606928Y-111101000D01*
X103822988Y-111101000D01*
X103946183Y-110950887D01*
X104075904Y-110708195D01*
X104155786Y-110444860D01*
X104176000Y-110239625D01*
X104176000Y-109116000D01*
X108783928Y-109116000D01*
X108796188Y-109240482D01*
X108832498Y-109360180D01*
X108891463Y-109470494D01*
X108970815Y-109567185D01*
X109067506Y-109646537D01*
X109177820Y-109705502D01*
X109297518Y-109741812D01*
X109422000Y-109754072D01*
X109986250Y-109751000D01*
X110145000Y-109592250D01*
X110145000Y-108393000D01*
X108945750Y-108393000D01*
X108787000Y-108551750D01*
X108783928Y-109116000D01*
X104176000Y-109116000D01*
X104176000Y-109086375D01*
X104155786Y-108881140D01*
X104075904Y-108617805D01*
X103946183Y-108375113D01*
X103771607Y-108162392D01*
X103558886Y-107987817D01*
X103316194Y-107858096D01*
X103052859Y-107778214D01*
X102779000Y-107751241D01*
X102505140Y-107778214D01*
X102241805Y-107858096D01*
X101999113Y-107987817D01*
X101786392Y-108162393D01*
X101611817Y-108375114D01*
X101509000Y-108567471D01*
X101406183Y-108375113D01*
X101231607Y-108162392D01*
X101018886Y-107987817D01*
X100776194Y-107858096D01*
X100512859Y-107778214D01*
X100239000Y-107751241D01*
X99965140Y-107778214D01*
X99701805Y-107858096D01*
X99459113Y-107987817D01*
X99246392Y-108162393D01*
X99071817Y-108375114D01*
X98969000Y-108567471D01*
X98866183Y-108375113D01*
X98691607Y-108162392D01*
X98478886Y-107987817D01*
X98236194Y-107858096D01*
X97972859Y-107778214D01*
X97699000Y-107751241D01*
X97425140Y-107778214D01*
X97161805Y-107858096D01*
X96919113Y-107987817D01*
X96706392Y-108162393D01*
X96531817Y-108375114D01*
X96429000Y-108567471D01*
X96326183Y-108375113D01*
X96151607Y-108162392D01*
X95938886Y-107987817D01*
X95696194Y-107858096D01*
X95432859Y-107778214D01*
X95159000Y-107751241D01*
X94885140Y-107778214D01*
X94621805Y-107858096D01*
X94379113Y-107987817D01*
X94166392Y-108162393D01*
X93991817Y-108375114D01*
X93889000Y-108567471D01*
X93786183Y-108375113D01*
X93611607Y-108162392D01*
X93398886Y-107987817D01*
X93156194Y-107858096D01*
X92892859Y-107778214D01*
X92619000Y-107751241D01*
X92345140Y-107778214D01*
X92081805Y-107858096D01*
X91839113Y-107987817D01*
X91626392Y-108162393D01*
X91451817Y-108375114D01*
X91349000Y-108567471D01*
X91246183Y-108375113D01*
X91071607Y-108162392D01*
X90858886Y-107987817D01*
X90616194Y-107858096D01*
X90352859Y-107778214D01*
X90079000Y-107751241D01*
X89805140Y-107778214D01*
X89541805Y-107858096D01*
X89299113Y-107987817D01*
X89086392Y-108162393D01*
X88911817Y-108375114D01*
X88782096Y-108617806D01*
X88702214Y-108881141D01*
X88682000Y-109086376D01*
X88682000Y-110021890D01*
X88646026Y-110065724D01*
X88575454Y-110197754D01*
X88531998Y-110341015D01*
X88517324Y-110490000D01*
X88106227Y-110490000D01*
X88149003Y-110348986D01*
X88160000Y-110237333D01*
X88160000Y-110237324D01*
X88163676Y-110200001D01*
X88160000Y-110162678D01*
X88160000Y-109145535D01*
X88228586Y-109042889D01*
X88299068Y-108872729D01*
X88335000Y-108692089D01*
X88335000Y-108507911D01*
X88299068Y-108327271D01*
X88228586Y-108157111D01*
X88126262Y-108003972D01*
X87996028Y-107873738D01*
X87842889Y-107771414D01*
X87672729Y-107700932D01*
X87492089Y-107665000D01*
X87307911Y-107665000D01*
X87127271Y-107700932D01*
X86957111Y-107771414D01*
X86803972Y-107873738D01*
X86673738Y-108003972D01*
X86571414Y-108157111D01*
X86500932Y-108327271D01*
X86465000Y-108507911D01*
X86465000Y-108692089D01*
X86500932Y-108872729D01*
X86571414Y-109042889D01*
X86640000Y-109145536D01*
X86640001Y-109885197D01*
X86548350Y-109976847D01*
X86427271Y-110000932D01*
X86396000Y-110013885D01*
X86396000Y-109086375D01*
X86375786Y-108881140D01*
X86295904Y-108617805D01*
X86166183Y-108375113D01*
X85991607Y-108162392D01*
X85778886Y-107987817D01*
X85536194Y-107858096D01*
X85272859Y-107778214D01*
X84999000Y-107751241D01*
X84725140Y-107778214D01*
X84545938Y-107832575D01*
X84962513Y-107416000D01*
X108783928Y-107416000D01*
X108787000Y-107980250D01*
X108945750Y-108139000D01*
X110145000Y-108139000D01*
X110145000Y-105853000D01*
X108951845Y-105853000D01*
X108830524Y-106082890D01*
X108875175Y-106230099D01*
X109000359Y-106492920D01*
X109174412Y-106726269D01*
X109258466Y-106802034D01*
X109177820Y-106826498D01*
X109067506Y-106885463D01*
X108970815Y-106964815D01*
X108891463Y-107061506D01*
X108832498Y-107171820D01*
X108796188Y-107291518D01*
X108783928Y-107416000D01*
X84962513Y-107416000D01*
X88667918Y-103710595D01*
X88700729Y-103704068D01*
X88870889Y-103633586D01*
X89024028Y-103531262D01*
X89154262Y-103401028D01*
X89256586Y-103247889D01*
X89327068Y-103077729D01*
X89363000Y-102897089D01*
X89363000Y-102712911D01*
X89327068Y-102532271D01*
X89256586Y-102362111D01*
X89154262Y-102208972D01*
X89024028Y-102078738D01*
X88870889Y-101976414D01*
X88700729Y-101905932D01*
X88520089Y-101870000D01*
X88335911Y-101870000D01*
X88155271Y-101905932D01*
X87985111Y-101976414D01*
X87831972Y-102078738D01*
X87701738Y-102208972D01*
X87599414Y-102362111D01*
X87528932Y-102532271D01*
X87522405Y-102565082D01*
X82322836Y-107764652D01*
X82185140Y-107778214D01*
X81921805Y-107858096D01*
X81679113Y-107987817D01*
X81466392Y-108162393D01*
X81291817Y-108375114D01*
X81187962Y-108569414D01*
X81161059Y-108503058D01*
X81010006Y-108273271D01*
X80817026Y-108077368D01*
X80589535Y-107922878D01*
X80336276Y-107815738D01*
X80262070Y-107800780D01*
X80046000Y-107923280D01*
X80046000Y-109536000D01*
X80066000Y-109536000D01*
X80066000Y-109790000D01*
X80046000Y-109790000D01*
X80046000Y-111402720D01*
X80262070Y-111525220D01*
X80336276Y-111510262D01*
X80589535Y-111403122D01*
X80817026Y-111248632D01*
X81010006Y-111052729D01*
X81161059Y-110822942D01*
X81187962Y-110756587D01*
X81217000Y-110810914D01*
X81217000Y-111252249D01*
X81211509Y-111308000D01*
X81233423Y-111530498D01*
X81290777Y-111719568D01*
X81156901Y-111760175D01*
X80894080Y-111885359D01*
X80660731Y-112059412D01*
X80465822Y-112275645D01*
X80396195Y-112392534D01*
X80274475Y-112210368D01*
X80067632Y-112003525D01*
X79824411Y-111841010D01*
X79554158Y-111729068D01*
X79267260Y-111672000D01*
X78974740Y-111672000D01*
X78813571Y-111704059D01*
X78317514Y-111208002D01*
X78371608Y-111163608D01*
X78546183Y-110950887D01*
X78650038Y-110756587D01*
X78676941Y-110822942D01*
X78827994Y-111052729D01*
X79020974Y-111248632D01*
X79248465Y-111403122D01*
X79501724Y-111510262D01*
X79575930Y-111525220D01*
X79792000Y-111402720D01*
X79792000Y-109790000D01*
X79772000Y-109790000D01*
X79772000Y-109536000D01*
X79792000Y-109536000D01*
X79792000Y-107923280D01*
X79575930Y-107800780D01*
X79501724Y-107815738D01*
X79248465Y-107922878D01*
X79020974Y-108077368D01*
X78827994Y-108273271D01*
X78676941Y-108503058D01*
X78650038Y-108569413D01*
X78546183Y-108375113D01*
X78371607Y-108162392D01*
X78158886Y-107987817D01*
X77916194Y-107858096D01*
X77652859Y-107778214D01*
X77379000Y-107751241D01*
X77105140Y-107778214D01*
X76841805Y-107858096D01*
X76599113Y-107987817D01*
X76386392Y-108162393D01*
X76211817Y-108375114D01*
X76109000Y-108567471D01*
X76006183Y-108375113D01*
X75831607Y-108162392D01*
X75618886Y-107987817D01*
X75376194Y-107858096D01*
X75112859Y-107778214D01*
X74839000Y-107751241D01*
X74565140Y-107778214D01*
X74301805Y-107858096D01*
X74059113Y-107987817D01*
X73846392Y-108162393D01*
X73671817Y-108375114D01*
X73569000Y-108567471D01*
X73466183Y-108375113D01*
X73291607Y-108162392D01*
X73078886Y-107987817D01*
X73059000Y-107977188D01*
X73059000Y-107840801D01*
X74826650Y-106073152D01*
X74947729Y-106049068D01*
X75117889Y-105978586D01*
X75271028Y-105876262D01*
X75401262Y-105746028D01*
X75503586Y-105592889D01*
X75574068Y-105422729D01*
X75610000Y-105242089D01*
X75610000Y-105057911D01*
X75574068Y-104877271D01*
X75503586Y-104707111D01*
X75401262Y-104553972D01*
X75271028Y-104423738D01*
X75117889Y-104321414D01*
X74947729Y-104250932D01*
X74767089Y-104215000D01*
X74582911Y-104215000D01*
X74402271Y-104250932D01*
X74232111Y-104321414D01*
X74078972Y-104423738D01*
X73948738Y-104553972D01*
X73846414Y-104707111D01*
X73775932Y-104877271D01*
X73751848Y-104998350D01*
X71787998Y-106962201D01*
X71759000Y-106985999D01*
X71735202Y-107014997D01*
X71735201Y-107014998D01*
X71664026Y-107101724D01*
X71593454Y-107233754D01*
X71549998Y-107377015D01*
X71535324Y-107526000D01*
X71539001Y-107563332D01*
X71539001Y-107977187D01*
X71519113Y-107987817D01*
X71306392Y-108162393D01*
X71131817Y-108375114D01*
X71002096Y-108617806D01*
X70922214Y-108881141D01*
X70902000Y-109086376D01*
X70902000Y-110239625D01*
X70922214Y-110444860D01*
X71002096Y-110708195D01*
X71131817Y-110950887D01*
X71306393Y-111163608D01*
X71432001Y-111266691D01*
X71432001Y-111270668D01*
X71428324Y-111308000D01*
X71432001Y-111345333D01*
X71442998Y-111456986D01*
X71446310Y-111467904D01*
X71486454Y-111600246D01*
X71557026Y-111732276D01*
X71626946Y-111817473D01*
X71652000Y-111848001D01*
X71680998Y-111871799D01*
X71826201Y-112017002D01*
X71850000Y-112046001D01*
X71878997Y-112069799D01*
X72599790Y-112790592D01*
X72556000Y-113010740D01*
X72556000Y-113303260D01*
X72613068Y-113590158D01*
X72725010Y-113860411D01*
X72828303Y-114015000D01*
X71366579Y-114015000D01*
X70742655Y-113391077D01*
X70728586Y-113357111D01*
X70626262Y-113203972D01*
X70496028Y-113073738D01*
X70342889Y-112971414D01*
X70172729Y-112900932D01*
X69992089Y-112865000D01*
X69807911Y-112865000D01*
X69627271Y-112900932D01*
X69457111Y-112971414D01*
X69303972Y-113073738D01*
X69173738Y-113203972D01*
X69071414Y-113357111D01*
X69000932Y-113527271D01*
X68965000Y-113707911D01*
X68965000Y-113892089D01*
X69000932Y-114072729D01*
X69071414Y-114242889D01*
X69173738Y-114396028D01*
X69303972Y-114526262D01*
X69457111Y-114628586D01*
X69491077Y-114642655D01*
X70138421Y-115290000D01*
X50958000Y-115290000D01*
X50958000Y-111488087D01*
X51603518Y-111488087D01*
X51815855Y-111851621D01*
X52270371Y-112089160D01*
X52762496Y-112233463D01*
X53273316Y-112278984D01*
X53783201Y-112223975D01*
X54272558Y-112070549D01*
X54682145Y-111851621D01*
X54894482Y-111488087D01*
X53249000Y-109842605D01*
X51603518Y-111488087D01*
X50958000Y-111488087D01*
X50958000Y-110904607D01*
X51060379Y-111096145D01*
X51423913Y-111308482D01*
X53069395Y-109663000D01*
X53428605Y-109663000D01*
X55074087Y-111308482D01*
X55437621Y-111096145D01*
X55675160Y-110641629D01*
X55819463Y-110149504D01*
X55864984Y-109638684D01*
X55809975Y-109128799D01*
X55656549Y-108639442D01*
X55437621Y-108229855D01*
X55074087Y-108017518D01*
X53428605Y-109663000D01*
X53069395Y-109663000D01*
X51423913Y-108017518D01*
X51060379Y-108229855D01*
X50958000Y-108425751D01*
X50958000Y-107837913D01*
X51603518Y-107837913D01*
X53249000Y-109483395D01*
X54894482Y-107837913D01*
X54682145Y-107474379D01*
X54227629Y-107236840D01*
X53735504Y-107092537D01*
X53224684Y-107047016D01*
X52714799Y-107102025D01*
X52225442Y-107255451D01*
X51815855Y-107474379D01*
X51603518Y-107837913D01*
X50958000Y-107837913D01*
X50958000Y-104684000D01*
X58401573Y-104684000D01*
X58431210Y-104984913D01*
X58518983Y-105274261D01*
X58661519Y-105540927D01*
X58853339Y-105774661D01*
X59087073Y-105966481D01*
X59353739Y-106109017D01*
X59643087Y-106196790D01*
X59868592Y-106219000D01*
X62219408Y-106219000D01*
X62444913Y-106196790D01*
X62734261Y-106109017D01*
X63000927Y-105966481D01*
X63234661Y-105774661D01*
X63426481Y-105540927D01*
X63569017Y-105274261D01*
X63656790Y-104984913D01*
X63686427Y-104684000D01*
X63656790Y-104383087D01*
X63569017Y-104093739D01*
X63426481Y-103827073D01*
X63234661Y-103593339D01*
X63000927Y-103401519D01*
X62734261Y-103258983D01*
X62444913Y-103171210D01*
X62219408Y-103149000D01*
X59868592Y-103149000D01*
X59643087Y-103171210D01*
X59353739Y-103258983D01*
X59087073Y-103401519D01*
X58853339Y-103593339D01*
X58661519Y-103827073D01*
X58518983Y-104093739D01*
X58431210Y-104383087D01*
X58401573Y-104684000D01*
X50958000Y-104684000D01*
X50958000Y-100011000D01*
X56709000Y-100011000D01*
X56709000Y-101111000D01*
X56763271Y-101408023D01*
X56874446Y-101688751D01*
X57038252Y-101942396D01*
X57248394Y-102159210D01*
X57496796Y-102330862D01*
X57773913Y-102450755D01*
X57879260Y-102475036D01*
X58117000Y-102354378D01*
X58117000Y-100011000D01*
X58371000Y-100011000D01*
X58371000Y-102354378D01*
X58608740Y-102475036D01*
X58714087Y-102450755D01*
X58991204Y-102330862D01*
X59239606Y-102159210D01*
X59449748Y-101942396D01*
X59613554Y-101688751D01*
X59724729Y-101408023D01*
X59779000Y-101111000D01*
X59779000Y-100011000D01*
X58371000Y-100011000D01*
X58117000Y-100011000D01*
X56709000Y-100011000D01*
X50958000Y-100011000D01*
X50958000Y-98657000D01*
X56709000Y-98657000D01*
X56709000Y-99757000D01*
X58117000Y-99757000D01*
X58117000Y-97413622D01*
X58371000Y-97413622D01*
X58371000Y-99757000D01*
X59779000Y-99757000D01*
X59779000Y-98657000D01*
X59724729Y-98359977D01*
X59613554Y-98079249D01*
X59449748Y-97825604D01*
X59312502Y-97684000D01*
X62505928Y-97684000D01*
X62505928Y-102084000D01*
X62518188Y-102208482D01*
X62554498Y-102328180D01*
X62613463Y-102438494D01*
X62692815Y-102535185D01*
X62789506Y-102614537D01*
X62899820Y-102673502D01*
X63019518Y-102709812D01*
X63144000Y-102722072D01*
X64944000Y-102722072D01*
X65068482Y-102709812D01*
X65188180Y-102673502D01*
X65298494Y-102614537D01*
X65395185Y-102535185D01*
X65474537Y-102438494D01*
X65533502Y-102328180D01*
X65569812Y-102208482D01*
X65582072Y-102084000D01*
X65582072Y-97684000D01*
X65569812Y-97559518D01*
X65533502Y-97439820D01*
X65474537Y-97329506D01*
X65395185Y-97232815D01*
X65298494Y-97153463D01*
X65188180Y-97094498D01*
X65068482Y-97058188D01*
X64944000Y-97045928D01*
X63144000Y-97045928D01*
X63019518Y-97058188D01*
X62899820Y-97094498D01*
X62789506Y-97153463D01*
X62692815Y-97232815D01*
X62613463Y-97329506D01*
X62554498Y-97439820D01*
X62518188Y-97559518D01*
X62505928Y-97684000D01*
X59312502Y-97684000D01*
X59239606Y-97608790D01*
X58991204Y-97437138D01*
X58714087Y-97317245D01*
X58608740Y-97292964D01*
X58371000Y-97413622D01*
X58117000Y-97413622D01*
X57879260Y-97292964D01*
X57773913Y-97317245D01*
X57496796Y-97437138D01*
X57248394Y-97608790D01*
X57038252Y-97825604D01*
X56874446Y-98079249D01*
X56763271Y-98359977D01*
X56709000Y-98657000D01*
X50958000Y-98657000D01*
X50958000Y-96836878D01*
X67615000Y-96836878D01*
X67615000Y-97663123D01*
X67633593Y-97851904D01*
X67707071Y-98094127D01*
X67826392Y-98317362D01*
X67986973Y-98513028D01*
X68182639Y-98673608D01*
X68405874Y-98792929D01*
X68648097Y-98866407D01*
X68900000Y-98891217D01*
X69151904Y-98866407D01*
X69394127Y-98792929D01*
X69617362Y-98673608D01*
X69813028Y-98513028D01*
X69973608Y-98317362D01*
X70011947Y-98245635D01*
X70011928Y-98250000D01*
X70024188Y-98374482D01*
X70060498Y-98494180D01*
X70119463Y-98604494D01*
X70198815Y-98701185D01*
X70295506Y-98780537D01*
X70405820Y-98839502D01*
X70525518Y-98875812D01*
X70650000Y-98888072D01*
X71014250Y-98885000D01*
X71173000Y-98726250D01*
X71173000Y-97377000D01*
X71153000Y-97377000D01*
X71153000Y-97123000D01*
X71173000Y-97123000D01*
X71173000Y-95773750D01*
X71427000Y-95773750D01*
X71427000Y-97123000D01*
X71447000Y-97123000D01*
X71447000Y-97377000D01*
X71427000Y-97377000D01*
X71427000Y-98726250D01*
X71585750Y-98885000D01*
X71950000Y-98888072D01*
X72074482Y-98875812D01*
X72194180Y-98839502D01*
X72304494Y-98780537D01*
X72401185Y-98701185D01*
X72480537Y-98604494D01*
X72539502Y-98494180D01*
X72575812Y-98374482D01*
X72588072Y-98250000D01*
X72588053Y-98245635D01*
X72626392Y-98317362D01*
X72786973Y-98513028D01*
X72982639Y-98673608D01*
X73205874Y-98792929D01*
X73448097Y-98866407D01*
X73700000Y-98891217D01*
X73951904Y-98866407D01*
X74194127Y-98792929D01*
X74417362Y-98673608D01*
X74613028Y-98513028D01*
X74773608Y-98317362D01*
X74892929Y-98094127D01*
X74966407Y-97851903D01*
X74985000Y-97663122D01*
X74985000Y-96836877D01*
X74966407Y-96648096D01*
X74892929Y-96405873D01*
X74773608Y-96182638D01*
X74613028Y-95986972D01*
X74417361Y-95826392D01*
X74194126Y-95707071D01*
X73951903Y-95633593D01*
X73700000Y-95608783D01*
X73448096Y-95633593D01*
X73205873Y-95707071D01*
X72982638Y-95826392D01*
X72786972Y-95986972D01*
X72626392Y-96182639D01*
X72588053Y-96254366D01*
X72588072Y-96250000D01*
X72575812Y-96125518D01*
X72539502Y-96005820D01*
X72480537Y-95895506D01*
X72401185Y-95798815D01*
X72304494Y-95719463D01*
X72194180Y-95660498D01*
X72074482Y-95624188D01*
X71950000Y-95611928D01*
X71585750Y-95615000D01*
X71427000Y-95773750D01*
X71173000Y-95773750D01*
X71014250Y-95615000D01*
X70650000Y-95611928D01*
X70525518Y-95624188D01*
X70405820Y-95660498D01*
X70295506Y-95719463D01*
X70198815Y-95798815D01*
X70119463Y-95895506D01*
X70060498Y-96005820D01*
X70024188Y-96125518D01*
X70011928Y-96250000D01*
X70011947Y-96254365D01*
X69973608Y-96182638D01*
X69813028Y-95986972D01*
X69617361Y-95826392D01*
X69394126Y-95707071D01*
X69151903Y-95633593D01*
X68900000Y-95608783D01*
X68648096Y-95633593D01*
X68405873Y-95707071D01*
X68182638Y-95826392D01*
X67986972Y-95986972D01*
X67826392Y-96182639D01*
X67707071Y-96405874D01*
X67633593Y-96648097D01*
X67615000Y-96836878D01*
X50958000Y-96836878D01*
X50958000Y-87160000D01*
X55461928Y-87160000D01*
X55461928Y-88960000D01*
X55474188Y-89084482D01*
X55510498Y-89204180D01*
X55569463Y-89314494D01*
X55648815Y-89411185D01*
X55745506Y-89490537D01*
X55855820Y-89549502D01*
X55874127Y-89555056D01*
X55807688Y-89621495D01*
X55639701Y-89872905D01*
X55523989Y-90152257D01*
X55465000Y-90448816D01*
X55465000Y-90751184D01*
X55523989Y-91047743D01*
X55639701Y-91327095D01*
X55807688Y-91578505D01*
X56021495Y-91792312D01*
X56272905Y-91960299D01*
X56552257Y-92076011D01*
X56848816Y-92135000D01*
X57151184Y-92135000D01*
X57447743Y-92076011D01*
X57727095Y-91960299D01*
X57978505Y-91792312D01*
X58192312Y-91578505D01*
X58360299Y-91327095D01*
X58476011Y-91047743D01*
X58535000Y-90751184D01*
X58535000Y-90448816D01*
X58476011Y-90152257D01*
X58360299Y-89872905D01*
X58192312Y-89621495D01*
X58125873Y-89555056D01*
X58144180Y-89549502D01*
X58254494Y-89490537D01*
X58351185Y-89411185D01*
X58430537Y-89314494D01*
X58489502Y-89204180D01*
X58525812Y-89084482D01*
X58538072Y-88960000D01*
X58538072Y-88907911D01*
X65765000Y-88907911D01*
X65765000Y-89092089D01*
X65800932Y-89272729D01*
X65871414Y-89442889D01*
X65940000Y-89545536D01*
X65940001Y-90962668D01*
X65936324Y-91000000D01*
X65940001Y-91037333D01*
X65950998Y-91148986D01*
X65958286Y-91173012D01*
X65994454Y-91292246D01*
X66065026Y-91424276D01*
X66136201Y-91511002D01*
X66160000Y-91540001D01*
X66188998Y-91563799D01*
X67576848Y-92951650D01*
X67600932Y-93072729D01*
X67671414Y-93242889D01*
X67773738Y-93396028D01*
X67903972Y-93526262D01*
X68057111Y-93628586D01*
X68227271Y-93699068D01*
X68407911Y-93735000D01*
X68592089Y-93735000D01*
X68772729Y-93699068D01*
X68942889Y-93628586D01*
X69096028Y-93526262D01*
X69226262Y-93396028D01*
X69328586Y-93242889D01*
X69399068Y-93072729D01*
X69435000Y-92892089D01*
X69435000Y-92707911D01*
X69399068Y-92527271D01*
X69328586Y-92357111D01*
X69226262Y-92203972D01*
X69096028Y-92073738D01*
X68942889Y-91971414D01*
X68772729Y-91900932D01*
X68651650Y-91876848D01*
X67460000Y-90685199D01*
X67460000Y-89545535D01*
X67528586Y-89442889D01*
X67599068Y-89272729D01*
X67635000Y-89092089D01*
X67635000Y-88907911D01*
X67599068Y-88727271D01*
X67528586Y-88557111D01*
X67426262Y-88403972D01*
X67296028Y-88273738D01*
X67142889Y-88171414D01*
X66972729Y-88100932D01*
X66792089Y-88065000D01*
X66607911Y-88065000D01*
X66427271Y-88100932D01*
X66257111Y-88171414D01*
X66103972Y-88273738D01*
X65973738Y-88403972D01*
X65871414Y-88557111D01*
X65800932Y-88727271D01*
X65765000Y-88907911D01*
X58538072Y-88907911D01*
X58538072Y-87160000D01*
X58525812Y-87035518D01*
X58489502Y-86915820D01*
X58430537Y-86805506D01*
X58351185Y-86708815D01*
X58254494Y-86629463D01*
X58144180Y-86570498D01*
X58024482Y-86534188D01*
X57900000Y-86521928D01*
X56100000Y-86521928D01*
X55975518Y-86534188D01*
X55855820Y-86570498D01*
X55745506Y-86629463D01*
X55648815Y-86708815D01*
X55569463Y-86805506D01*
X55510498Y-86915820D01*
X55474188Y-87035518D01*
X55461928Y-87160000D01*
X50958000Y-87160000D01*
X50958000Y-85328118D01*
X51087799Y-85367492D01*
X51265563Y-85385000D01*
X52034437Y-85385000D01*
X52212201Y-85367492D01*
X52440287Y-85298303D01*
X52650492Y-85185946D01*
X52834739Y-85034739D01*
X52875559Y-84985000D01*
X54203497Y-84985000D01*
X54208682Y-84991318D01*
X54415769Y-85161270D01*
X54652032Y-85287555D01*
X54908393Y-85365322D01*
X55108191Y-85385000D01*
X55791809Y-85385000D01*
X55991607Y-85365322D01*
X56247968Y-85287555D01*
X56484231Y-85161270D01*
X56691318Y-84991318D01*
X56780870Y-84882199D01*
X56872201Y-85018886D01*
X57065114Y-85211799D01*
X57291957Y-85363371D01*
X57544011Y-85467775D01*
X57811589Y-85521000D01*
X58084411Y-85521000D01*
X58351989Y-85467775D01*
X58604043Y-85363371D01*
X58830886Y-85211799D01*
X59023799Y-85018886D01*
X59175371Y-84792043D01*
X59279775Y-84539989D01*
X59333000Y-84272411D01*
X59333000Y-84007911D01*
X68465000Y-84007911D01*
X68465000Y-84192089D01*
X68500932Y-84372729D01*
X68571414Y-84542889D01*
X68673738Y-84696028D01*
X68803972Y-84826262D01*
X68957111Y-84928586D01*
X69127271Y-84999068D01*
X69307911Y-85035000D01*
X69492089Y-85035000D01*
X69672729Y-84999068D01*
X69706692Y-84985000D01*
X80133421Y-84985000D01*
X82804953Y-87656533D01*
X82804959Y-87656538D01*
X82857344Y-87708923D01*
X82870216Y-87740000D01*
X75683769Y-87740000D01*
X75646446Y-87736324D01*
X75609123Y-87740000D01*
X75609114Y-87740000D01*
X75497461Y-87750997D01*
X75355502Y-87794059D01*
X75354200Y-87794454D01*
X75222170Y-87865026D01*
X75170108Y-87907753D01*
X75106446Y-87959999D01*
X75082648Y-87988997D01*
X73088998Y-89982648D01*
X73060000Y-90006446D01*
X73036202Y-90035444D01*
X73036201Y-90035445D01*
X72965026Y-90122171D01*
X72894454Y-90254201D01*
X72870309Y-90333799D01*
X72850998Y-90397461D01*
X72840001Y-90509114D01*
X72836324Y-90546447D01*
X72840001Y-90583779D01*
X72840000Y-91944462D01*
X72815723Y-91980795D01*
X72749010Y-92141855D01*
X72715000Y-92312835D01*
X72715000Y-92487165D01*
X72749010Y-92658145D01*
X72815723Y-92819205D01*
X72912576Y-92964155D01*
X73035845Y-93087424D01*
X73180795Y-93184277D01*
X73341855Y-93250990D01*
X73512835Y-93285000D01*
X73687165Y-93285000D01*
X73858145Y-93250990D01*
X74019205Y-93184277D01*
X74164155Y-93087424D01*
X74287424Y-92964155D01*
X74384277Y-92819205D01*
X74450990Y-92658145D01*
X74485000Y-92487165D01*
X74485000Y-92312835D01*
X74467815Y-92226440D01*
X74589855Y-92276990D01*
X74760835Y-92311000D01*
X74935165Y-92311000D01*
X75106145Y-92276990D01*
X75267205Y-92210277D01*
X75303538Y-92186000D01*
X83562421Y-92186000D01*
X81160958Y-94587464D01*
X81160953Y-94587468D01*
X80212951Y-95535471D01*
X80179184Y-95563183D01*
X80151471Y-95596951D01*
X80151468Y-95596954D01*
X80068590Y-95697941D01*
X79986412Y-95851687D01*
X79935805Y-96018510D01*
X79918719Y-96192000D01*
X79923001Y-96235479D01*
X79923000Y-97387550D01*
X79802176Y-97568376D01*
X79716617Y-97774933D01*
X79673000Y-97994212D01*
X79673000Y-98217788D01*
X79716617Y-98437067D01*
X79802176Y-98643624D01*
X79926388Y-98829520D01*
X80084480Y-98987612D01*
X80270376Y-99111824D01*
X80476933Y-99197383D01*
X80690232Y-99239811D01*
X82437470Y-100987049D01*
X82465183Y-101020817D01*
X82498951Y-101048530D01*
X82498953Y-101048532D01*
X82557435Y-101096527D01*
X82599941Y-101131411D01*
X82753687Y-101213589D01*
X82920510Y-101264195D01*
X83050523Y-101277000D01*
X83050533Y-101277000D01*
X83093999Y-101281281D01*
X83137465Y-101277000D01*
X100275436Y-101277000D01*
X100228932Y-101389271D01*
X100222405Y-101422082D01*
X100030488Y-101614000D01*
X91438705Y-101614000D01*
X91410889Y-101595414D01*
X91240729Y-101524932D01*
X91060089Y-101489000D01*
X90875911Y-101489000D01*
X90695271Y-101524932D01*
X90525111Y-101595414D01*
X90371972Y-101697738D01*
X90241738Y-101827972D01*
X90139414Y-101981111D01*
X90068932Y-102151271D01*
X90033000Y-102331911D01*
X90033000Y-102516089D01*
X90068932Y-102696729D01*
X90139414Y-102866889D01*
X90241738Y-103020028D01*
X90371972Y-103150262D01*
X90525111Y-103252586D01*
X90695271Y-103323068D01*
X90875911Y-103359000D01*
X91060089Y-103359000D01*
X91240729Y-103323068D01*
X91410889Y-103252586D01*
X91438705Y-103234000D01*
X99925990Y-103234000D01*
X97869991Y-105290000D01*
X91470705Y-105290000D01*
X91442889Y-105271414D01*
X91272729Y-105200932D01*
X91092089Y-105165000D01*
X90907911Y-105165000D01*
X90727271Y-105200932D01*
X90557111Y-105271414D01*
X90403972Y-105373738D01*
X90273738Y-105503972D01*
X90171414Y-105657111D01*
X90100932Y-105827271D01*
X90065000Y-106007911D01*
X90065000Y-106192089D01*
X90100932Y-106372729D01*
X90171414Y-106542889D01*
X90273738Y-106696028D01*
X90403972Y-106826262D01*
X90557111Y-106928586D01*
X90727271Y-106999068D01*
X90907911Y-107035000D01*
X91092089Y-107035000D01*
X91272729Y-106999068D01*
X91442889Y-106928586D01*
X91470705Y-106910000D01*
X98165715Y-106910000D01*
X98205503Y-106913919D01*
X98245291Y-106910000D01*
X98245294Y-106910000D01*
X98364291Y-106898280D01*
X98516976Y-106851963D01*
X98657692Y-106776749D01*
X98781031Y-106675528D01*
X98806403Y-106644613D01*
X99042929Y-106408087D01*
X103673518Y-106408087D01*
X103885855Y-106771621D01*
X104340371Y-107009160D01*
X104832496Y-107153463D01*
X105343316Y-107198984D01*
X105853201Y-107143975D01*
X106342558Y-106990549D01*
X106752145Y-106771621D01*
X106964482Y-106408087D01*
X105319000Y-104762605D01*
X103673518Y-106408087D01*
X99042929Y-106408087D01*
X100843700Y-104607316D01*
X102703016Y-104607316D01*
X102758025Y-105117201D01*
X102911451Y-105606558D01*
X103130379Y-106016145D01*
X103493913Y-106228482D01*
X105139395Y-104583000D01*
X105498605Y-104583000D01*
X107144087Y-106228482D01*
X107507621Y-106016145D01*
X107745160Y-105561629D01*
X107889463Y-105069504D01*
X107934984Y-104558684D01*
X107879975Y-104048799D01*
X107726549Y-103559442D01*
X107717702Y-103542890D01*
X108830524Y-103542890D01*
X108875175Y-103690099D01*
X109000359Y-103952920D01*
X109174412Y-104186269D01*
X109390645Y-104381178D01*
X109516255Y-104456000D01*
X109390645Y-104530822D01*
X109174412Y-104725731D01*
X109000359Y-104959080D01*
X108875175Y-105221901D01*
X108830524Y-105369110D01*
X108951845Y-105599000D01*
X110145000Y-105599000D01*
X110145000Y-103313000D01*
X108951845Y-103313000D01*
X108830524Y-103542890D01*
X107717702Y-103542890D01*
X107507621Y-103149855D01*
X107144087Y-102937518D01*
X105498605Y-104583000D01*
X105139395Y-104583000D01*
X103493913Y-102937518D01*
X103130379Y-103149855D01*
X102892840Y-103604371D01*
X102748537Y-104096496D01*
X102703016Y-104607316D01*
X100843700Y-104607316D01*
X101630950Y-103820066D01*
X101630955Y-103820060D01*
X101930949Y-103520066D01*
X103233016Y-102218000D01*
X104215838Y-102218000D01*
X103885855Y-102394379D01*
X103673518Y-102757913D01*
X105319000Y-104403395D01*
X106964482Y-102757913D01*
X106752145Y-102394379D01*
X106414655Y-102218000D01*
X109150343Y-102218000D01*
X109000359Y-102419080D01*
X108875175Y-102681901D01*
X108830524Y-102829110D01*
X108951845Y-103059000D01*
X110145000Y-103059000D01*
X110145000Y-103039000D01*
X110399000Y-103039000D01*
X110399000Y-103059000D01*
X110419000Y-103059000D01*
X110419000Y-103313000D01*
X110399000Y-103313000D01*
X110399000Y-105599000D01*
X110419000Y-105599000D01*
X110419000Y-105853000D01*
X110399000Y-105853000D01*
X110399000Y-108139000D01*
X110419000Y-108139000D01*
X110419000Y-108393000D01*
X110399000Y-108393000D01*
X110399000Y-109592250D01*
X110557750Y-109751000D01*
X111122000Y-109754072D01*
X111246482Y-109741812D01*
X111366180Y-109705502D01*
X111476494Y-109646537D01*
X111573185Y-109567185D01*
X111652537Y-109470494D01*
X111711502Y-109360180D01*
X111733513Y-109287620D01*
X111865368Y-109419475D01*
X112108589Y-109581990D01*
X112378842Y-109693932D01*
X112665740Y-109751000D01*
X112958260Y-109751000D01*
X113245158Y-109693932D01*
X113515411Y-109581990D01*
X113758632Y-109419475D01*
X113965475Y-109212632D01*
X114127990Y-108969411D01*
X114239932Y-108699158D01*
X114297000Y-108412260D01*
X114297000Y-108119740D01*
X114293273Y-108101000D01*
X116606928Y-108101000D01*
X116610000Y-109315250D01*
X116768750Y-109474000D01*
X118618000Y-109474000D01*
X118618000Y-107624750D01*
X118872000Y-107624750D01*
X118872000Y-109474000D01*
X120721250Y-109474000D01*
X120880000Y-109315250D01*
X120883072Y-108101000D01*
X120870812Y-107976518D01*
X120834502Y-107856820D01*
X120775537Y-107746506D01*
X120696185Y-107649815D01*
X120599494Y-107570463D01*
X120489180Y-107511498D01*
X120369482Y-107475188D01*
X120245000Y-107462928D01*
X119030750Y-107466000D01*
X118872000Y-107624750D01*
X118618000Y-107624750D01*
X118459250Y-107466000D01*
X117245000Y-107462928D01*
X117120518Y-107475188D01*
X117000820Y-107511498D01*
X116890506Y-107570463D01*
X116793815Y-107649815D01*
X116714463Y-107746506D01*
X116655498Y-107856820D01*
X116619188Y-107976518D01*
X116606928Y-108101000D01*
X114293273Y-108101000D01*
X114239932Y-107832842D01*
X114127990Y-107562589D01*
X113965475Y-107319368D01*
X113758632Y-107112525D01*
X113635000Y-107029917D01*
X113635000Y-106962083D01*
X113758632Y-106879475D01*
X113965475Y-106672632D01*
X114127990Y-106429411D01*
X114239932Y-106159158D01*
X114297000Y-105872260D01*
X114297000Y-105579740D01*
X114239932Y-105292842D01*
X114127990Y-105022589D01*
X113965475Y-104779368D01*
X113758632Y-104572525D01*
X113635000Y-104489917D01*
X113635000Y-104422083D01*
X113758632Y-104339475D01*
X113787386Y-104310721D01*
X116610000Y-104310721D01*
X116610000Y-104731279D01*
X116692047Y-105143756D01*
X116852988Y-105532302D01*
X117086637Y-105881983D01*
X117384017Y-106179363D01*
X117733698Y-106413012D01*
X118122244Y-106573953D01*
X118534721Y-106656000D01*
X118955279Y-106656000D01*
X119367756Y-106573953D01*
X119756302Y-106413012D01*
X120105983Y-106179363D01*
X120403363Y-105881983D01*
X120637012Y-105532302D01*
X120797953Y-105143756D01*
X120880000Y-104731279D01*
X120880000Y-104310721D01*
X120797953Y-103898244D01*
X120637012Y-103509698D01*
X120403363Y-103160017D01*
X120105983Y-102862637D01*
X119756302Y-102628988D01*
X119367756Y-102468047D01*
X118955279Y-102386000D01*
X118534721Y-102386000D01*
X118122244Y-102468047D01*
X117733698Y-102628988D01*
X117384017Y-102862637D01*
X117086637Y-103160017D01*
X116852988Y-103509698D01*
X116692047Y-103898244D01*
X116610000Y-104310721D01*
X113787386Y-104310721D01*
X113965475Y-104132632D01*
X114127990Y-103889411D01*
X114239932Y-103619158D01*
X114297000Y-103332260D01*
X114297000Y-103274578D01*
X116455050Y-101116529D01*
X116488817Y-101088817D01*
X116521879Y-101048532D01*
X116599410Y-100954060D01*
X116599411Y-100954059D01*
X116681589Y-100800313D01*
X116732195Y-100633490D01*
X116745000Y-100503477D01*
X116745000Y-100503467D01*
X116749281Y-100460001D01*
X116745000Y-100416535D01*
X116745000Y-100191596D01*
X116852988Y-100452302D01*
X117086637Y-100801983D01*
X117384017Y-101099363D01*
X117733698Y-101333012D01*
X118122244Y-101493953D01*
X118534721Y-101576000D01*
X118955279Y-101576000D01*
X119367756Y-101493953D01*
X119756302Y-101333012D01*
X120105983Y-101099363D01*
X120403363Y-100801983D01*
X120637012Y-100452302D01*
X120797953Y-100063756D01*
X120880000Y-99651279D01*
X120880000Y-99230721D01*
X120797953Y-98818244D01*
X120637012Y-98429698D01*
X120403363Y-98080017D01*
X120105983Y-97782637D01*
X119756302Y-97548988D01*
X119367756Y-97388047D01*
X118955279Y-97306000D01*
X118534721Y-97306000D01*
X118122244Y-97388047D01*
X117733698Y-97548988D01*
X117384017Y-97782637D01*
X117086637Y-98080017D01*
X116852988Y-98429698D01*
X116745000Y-98690404D01*
X116745000Y-97612578D01*
X117995942Y-96361637D01*
X118122244Y-96413953D01*
X118534721Y-96496000D01*
X118955279Y-96496000D01*
X119367756Y-96413953D01*
X119756302Y-96253012D01*
X120105983Y-96019363D01*
X120403363Y-95721983D01*
X120637012Y-95372302D01*
X120797953Y-94983756D01*
X120880000Y-94571279D01*
X120880000Y-94150721D01*
X120797953Y-93738244D01*
X120637012Y-93349698D01*
X120403363Y-93000017D01*
X120105983Y-92702637D01*
X119756302Y-92468988D01*
X119367756Y-92308047D01*
X118955279Y-92226000D01*
X118534721Y-92226000D01*
X118122244Y-92308047D01*
X117733698Y-92468988D01*
X117384017Y-92702637D01*
X117086637Y-93000017D01*
X116852988Y-93349698D01*
X116692047Y-93738244D01*
X116610000Y-94150721D01*
X116610000Y-94571279D01*
X116692047Y-94983756D01*
X116744363Y-95110058D01*
X116520318Y-95334103D01*
X116499068Y-95227271D01*
X116428586Y-95057111D01*
X116326262Y-94903972D01*
X116196028Y-94773738D01*
X116042889Y-94671414D01*
X115872729Y-94600932D01*
X115692089Y-94565000D01*
X115507911Y-94565000D01*
X115327271Y-94600932D01*
X115157111Y-94671414D01*
X115003972Y-94773738D01*
X114873738Y-94903972D01*
X114771414Y-95057111D01*
X114700932Y-95227271D01*
X114694405Y-95260083D01*
X114554072Y-95400416D01*
X114554072Y-94970000D01*
X114541812Y-94845518D01*
X114505502Y-94725820D01*
X114446537Y-94615506D01*
X114392778Y-94550000D01*
X114446537Y-94484494D01*
X114505502Y-94374180D01*
X114541812Y-94254482D01*
X114554072Y-94130000D01*
X114554072Y-92430000D01*
X114541812Y-92305518D01*
X114505502Y-92185820D01*
X114446537Y-92075506D01*
X114392778Y-92010000D01*
X114446537Y-91944494D01*
X114505502Y-91834180D01*
X114541812Y-91714482D01*
X114554072Y-91590000D01*
X114554072Y-89890000D01*
X114541812Y-89765518D01*
X114505502Y-89645820D01*
X114446537Y-89535506D01*
X114392778Y-89470000D01*
X114446537Y-89404494D01*
X114505502Y-89294180D01*
X114541812Y-89174482D01*
X114552031Y-89070721D01*
X116610000Y-89070721D01*
X116610000Y-89491279D01*
X116692047Y-89903756D01*
X116852988Y-90292302D01*
X117086637Y-90641983D01*
X117384017Y-90939363D01*
X117733698Y-91173012D01*
X118122244Y-91333953D01*
X118534721Y-91416000D01*
X118955279Y-91416000D01*
X119367756Y-91333953D01*
X119756302Y-91173012D01*
X120105983Y-90939363D01*
X120403363Y-90641983D01*
X120637012Y-90292302D01*
X120797953Y-89903756D01*
X120880000Y-89491279D01*
X120880000Y-89070721D01*
X120797953Y-88658244D01*
X120637012Y-88269698D01*
X120403363Y-87920017D01*
X120105983Y-87622637D01*
X119756302Y-87388988D01*
X119367756Y-87228047D01*
X118955279Y-87146000D01*
X118534721Y-87146000D01*
X118122244Y-87228047D01*
X117733698Y-87388988D01*
X117384017Y-87622637D01*
X117086637Y-87920017D01*
X116852988Y-88269698D01*
X116692047Y-88658244D01*
X116610000Y-89070721D01*
X114552031Y-89070721D01*
X114554072Y-89050000D01*
X114554072Y-87350000D01*
X114541812Y-87225518D01*
X114505502Y-87105820D01*
X114446537Y-86995506D01*
X114392778Y-86930000D01*
X114446537Y-86864494D01*
X114505502Y-86754180D01*
X114541812Y-86634482D01*
X114554072Y-86510000D01*
X114554072Y-84810000D01*
X114541812Y-84685518D01*
X114505502Y-84565820D01*
X114446537Y-84455506D01*
X114392778Y-84390000D01*
X114446537Y-84324494D01*
X114505502Y-84214180D01*
X114541812Y-84094482D01*
X114552031Y-83990721D01*
X116610000Y-83990721D01*
X116610000Y-84411279D01*
X116692047Y-84823756D01*
X116852988Y-85212302D01*
X117086637Y-85561983D01*
X117384017Y-85859363D01*
X117733698Y-86093012D01*
X118122244Y-86253953D01*
X118534721Y-86336000D01*
X118955279Y-86336000D01*
X119367756Y-86253953D01*
X119756302Y-86093012D01*
X120105983Y-85859363D01*
X120403363Y-85561983D01*
X120637012Y-85212302D01*
X120797953Y-84823756D01*
X120880000Y-84411279D01*
X120880000Y-83990721D01*
X120797953Y-83578244D01*
X120637012Y-83189698D01*
X120403363Y-82840017D01*
X120105983Y-82542637D01*
X119756302Y-82308988D01*
X119367756Y-82148047D01*
X118955279Y-82066000D01*
X118534721Y-82066000D01*
X118122244Y-82148047D01*
X117733698Y-82308988D01*
X117384017Y-82542637D01*
X117086637Y-82840017D01*
X116852988Y-83189698D01*
X116692047Y-83578244D01*
X116610000Y-83990721D01*
X114552031Y-83990721D01*
X114554072Y-83970000D01*
X114554072Y-82270000D01*
X114541812Y-82145518D01*
X114505502Y-82025820D01*
X114446537Y-81915506D01*
X114392778Y-81850000D01*
X114446537Y-81784494D01*
X114505502Y-81674180D01*
X114541812Y-81554482D01*
X114554072Y-81430000D01*
X114554072Y-79730000D01*
X114541812Y-79605518D01*
X114505502Y-79485820D01*
X114446537Y-79375506D01*
X114367185Y-79278815D01*
X114270494Y-79199463D01*
X114160180Y-79140498D01*
X114040482Y-79104188D01*
X113916000Y-79091928D01*
X112216000Y-79091928D01*
X112091518Y-79104188D01*
X111971820Y-79140498D01*
X111861506Y-79199463D01*
X111796000Y-79253222D01*
X111730494Y-79199463D01*
X111620180Y-79140498D01*
X111500482Y-79104188D01*
X111376000Y-79091928D01*
X109676000Y-79091928D01*
X109551518Y-79104188D01*
X109431820Y-79140498D01*
X109321506Y-79199463D01*
X109256000Y-79253222D01*
X109190494Y-79199463D01*
X109080180Y-79140498D01*
X108960482Y-79104188D01*
X108836000Y-79091928D01*
X107136000Y-79091928D01*
X107011518Y-79104188D01*
X106891820Y-79140498D01*
X106781506Y-79199463D01*
X106716000Y-79253222D01*
X106650494Y-79199463D01*
X106540180Y-79140498D01*
X106420482Y-79104188D01*
X106296000Y-79091928D01*
X106210578Y-79091928D01*
X106342558Y-79050549D01*
X106752145Y-78831621D01*
X106964482Y-78468087D01*
X105319000Y-76822605D01*
X103673518Y-78468087D01*
X103885855Y-78831621D01*
X104340371Y-79069160D01*
X104465773Y-79105931D01*
X104351820Y-79140498D01*
X104241506Y-79199463D01*
X104176000Y-79253222D01*
X104110494Y-79199463D01*
X104000180Y-79140498D01*
X103880482Y-79104188D01*
X103756000Y-79091928D01*
X102056000Y-79091928D01*
X101931518Y-79104188D01*
X101811820Y-79140498D01*
X101701506Y-79199463D01*
X101636000Y-79253222D01*
X101570494Y-79199463D01*
X101460180Y-79140498D01*
X101340482Y-79104188D01*
X101216000Y-79091928D01*
X99516000Y-79091928D01*
X99391518Y-79104188D01*
X99271820Y-79140498D01*
X99161506Y-79199463D01*
X99064815Y-79278815D01*
X98985463Y-79375506D01*
X98926498Y-79485820D01*
X98890188Y-79605518D01*
X98877928Y-79730000D01*
X98877928Y-81430000D01*
X98890188Y-81554482D01*
X98926498Y-81674180D01*
X98985463Y-81784494D01*
X99039222Y-81850000D01*
X98985463Y-81915506D01*
X98926498Y-82025820D01*
X98890188Y-82145518D01*
X98877928Y-82270000D01*
X98877928Y-83970000D01*
X98890188Y-84094482D01*
X98926498Y-84214180D01*
X98985463Y-84324494D01*
X99039222Y-84390000D01*
X98985463Y-84455506D01*
X98926498Y-84565820D01*
X98890188Y-84685518D01*
X98877928Y-84810000D01*
X98877928Y-86510000D01*
X98890188Y-86634482D01*
X98926498Y-86754180D01*
X98985463Y-86864494D01*
X99039222Y-86930000D01*
X98985463Y-86995506D01*
X98926498Y-87105820D01*
X98890188Y-87225518D01*
X98877928Y-87350000D01*
X98877928Y-89050000D01*
X98890188Y-89174482D01*
X98926498Y-89294180D01*
X98985463Y-89404494D01*
X99039222Y-89470000D01*
X98985463Y-89535506D01*
X98926498Y-89645820D01*
X98890188Y-89765518D01*
X98877928Y-89890000D01*
X98877928Y-91590000D01*
X98890188Y-91714482D01*
X98926498Y-91834180D01*
X98985463Y-91944494D01*
X99039222Y-92010000D01*
X98985463Y-92075506D01*
X98926498Y-92185820D01*
X98890188Y-92305518D01*
X98877928Y-92430000D01*
X98877928Y-94130000D01*
X98890188Y-94254482D01*
X98926498Y-94374180D01*
X98985463Y-94484494D01*
X99039222Y-94550000D01*
X98985463Y-94615506D01*
X98926498Y-94725820D01*
X98890188Y-94845518D01*
X98877928Y-94970000D01*
X98877928Y-96670000D01*
X98890188Y-96794482D01*
X98926498Y-96914180D01*
X98985463Y-97024494D01*
X99039222Y-97090000D01*
X98985463Y-97155506D01*
X98926498Y-97265820D01*
X98890188Y-97385518D01*
X98877928Y-97510000D01*
X98877928Y-99210000D01*
X98890188Y-99334482D01*
X98926498Y-99454180D01*
X98954731Y-99507000D01*
X86027998Y-99507000D01*
X86061000Y-99341089D01*
X86061000Y-99156911D01*
X86025068Y-98976271D01*
X85954586Y-98806111D01*
X85886000Y-98703465D01*
X85886000Y-98143535D01*
X85954586Y-98040889D01*
X86025068Y-97870729D01*
X86061000Y-97690089D01*
X86061000Y-97505911D01*
X86025068Y-97325271D01*
X85954586Y-97155111D01*
X85852262Y-97001972D01*
X85722028Y-96871738D01*
X85568889Y-96769414D01*
X85398729Y-96698932D01*
X85218089Y-96663000D01*
X85033911Y-96663000D01*
X84853271Y-96698932D01*
X84683111Y-96769414D01*
X84529972Y-96871738D01*
X84399738Y-97001972D01*
X84297414Y-97155111D01*
X84226932Y-97325271D01*
X84191000Y-97505911D01*
X84191000Y-97690089D01*
X84226932Y-97870729D01*
X84297414Y-98040889D01*
X84366000Y-98143536D01*
X84366001Y-98703464D01*
X84297414Y-98806111D01*
X84226932Y-98976271D01*
X84191000Y-99156911D01*
X84191000Y-99341089D01*
X84224002Y-99507000D01*
X83460579Y-99507000D01*
X81941811Y-97988232D01*
X81899383Y-97774933D01*
X81813824Y-97568376D01*
X81693000Y-97387550D01*
X81693000Y-96558578D01*
X82412532Y-95839047D01*
X82412536Y-95839042D01*
X84719757Y-93531822D01*
X84755411Y-93617899D01*
X84857735Y-93771038D01*
X84987969Y-93901272D01*
X85141108Y-94003596D01*
X85311268Y-94074078D01*
X85344080Y-94080605D01*
X89588371Y-98324897D01*
X89613738Y-98355807D01*
X89681476Y-98411398D01*
X89737076Y-98457028D01*
X89806584Y-98494180D01*
X89877793Y-98532242D01*
X90030478Y-98578559D01*
X90149475Y-98590279D01*
X90149477Y-98590279D01*
X90189265Y-98594198D01*
X90229053Y-98590279D01*
X96233321Y-98590279D01*
X96261137Y-98608865D01*
X96431297Y-98679347D01*
X96611937Y-98715279D01*
X96796115Y-98715279D01*
X96976755Y-98679347D01*
X97146915Y-98608865D01*
X97186717Y-98582270D01*
X97227271Y-98599068D01*
X97407911Y-98635000D01*
X97592089Y-98635000D01*
X97772729Y-98599068D01*
X97942889Y-98528586D01*
X98096028Y-98426262D01*
X98226262Y-98296028D01*
X98328586Y-98142889D01*
X98399068Y-97972729D01*
X98435000Y-97792089D01*
X98435000Y-97607911D01*
X98399068Y-97427271D01*
X98328586Y-97257111D01*
X98309232Y-97228145D01*
X98298280Y-97116948D01*
X98251963Y-96964263D01*
X98251963Y-96964262D01*
X98176749Y-96823547D01*
X98158189Y-96800932D01*
X98075528Y-96700208D01*
X98044618Y-96674841D01*
X93953212Y-92583436D01*
X93927840Y-92552520D01*
X93804501Y-92451299D01*
X93736582Y-92414996D01*
X98108925Y-88042654D01*
X98142889Y-88028586D01*
X98296028Y-87926262D01*
X98426262Y-87796028D01*
X98528586Y-87642889D01*
X98599068Y-87472729D01*
X98635000Y-87292089D01*
X98635000Y-87107911D01*
X98599068Y-86927271D01*
X98528586Y-86757111D01*
X98426262Y-86603972D01*
X98296028Y-86473738D01*
X98142889Y-86371414D01*
X97972729Y-86300932D01*
X97792089Y-86265000D01*
X97607911Y-86265000D01*
X97427271Y-86300932D01*
X97257111Y-86371414D01*
X97103972Y-86473738D01*
X96973738Y-86603972D01*
X96871414Y-86757111D01*
X96857346Y-86791075D01*
X92155375Y-91493047D01*
X89583830Y-91493047D01*
X89585000Y-91487165D01*
X89585000Y-91398451D01*
X89619205Y-91384283D01*
X89764155Y-91287430D01*
X89887424Y-91164161D01*
X89984277Y-91019211D01*
X90050990Y-90858151D01*
X90085000Y-90687171D01*
X90085000Y-90512841D01*
X90050990Y-90341861D01*
X89984277Y-90180801D01*
X89967906Y-90156301D01*
X90020990Y-90028145D01*
X90055000Y-89857165D01*
X90055000Y-89682835D01*
X90035830Y-89586460D01*
X90126262Y-89496028D01*
X90228586Y-89342889D01*
X90299068Y-89172729D01*
X90335000Y-88992089D01*
X90335000Y-88807911D01*
X90299068Y-88627271D01*
X90228586Y-88457111D01*
X90160000Y-88354465D01*
X90160000Y-88212320D01*
X90163676Y-88174997D01*
X90160000Y-88137674D01*
X90160000Y-88137665D01*
X90149003Y-88026012D01*
X90105546Y-87882751D01*
X90034974Y-87750722D01*
X89940001Y-87634997D01*
X89911003Y-87611199D01*
X81363805Y-79064002D01*
X81340002Y-79034998D01*
X81224277Y-78940025D01*
X81092248Y-78869453D01*
X80948987Y-78825996D01*
X80837334Y-78814999D01*
X80837323Y-78814999D01*
X80800001Y-78811323D01*
X80762679Y-78814999D01*
X70017457Y-78814999D01*
X69858145Y-78749010D01*
X69687165Y-78715000D01*
X69512835Y-78715000D01*
X69341855Y-78749010D01*
X69180795Y-78815723D01*
X69035845Y-78912576D01*
X68912576Y-79035845D01*
X68815723Y-79180795D01*
X68749010Y-79341855D01*
X68715000Y-79512835D01*
X68715000Y-79687165D01*
X68749010Y-79858145D01*
X68815723Y-80019205D01*
X68912576Y-80164155D01*
X68950922Y-80202501D01*
X68935845Y-80212576D01*
X68812576Y-80335845D01*
X68715723Y-80480795D01*
X68649010Y-80641855D01*
X68615000Y-80812835D01*
X68615000Y-80987165D01*
X68649010Y-81158145D01*
X68715723Y-81319205D01*
X68812576Y-81464155D01*
X68935845Y-81587424D01*
X69080795Y-81684277D01*
X69241855Y-81750990D01*
X69412835Y-81785000D01*
X69587165Y-81785000D01*
X69758145Y-81750990D01*
X69919205Y-81684277D01*
X69955538Y-81660000D01*
X79985199Y-81660000D01*
X86065198Y-87740000D01*
X84529782Y-87740000D01*
X84599067Y-87572729D01*
X84634999Y-87392089D01*
X84634999Y-87207911D01*
X84599067Y-87027271D01*
X84528585Y-86857111D01*
X84426261Y-86703972D01*
X84296027Y-86573738D01*
X84142888Y-86471414D01*
X84108922Y-86457345D01*
X84056537Y-86404960D01*
X84056532Y-86404954D01*
X81156533Y-83504956D01*
X81128816Y-83471183D01*
X80994058Y-83360589D01*
X80840312Y-83278411D01*
X80673489Y-83227805D01*
X80543476Y-83215000D01*
X80543468Y-83215000D01*
X80499999Y-83210719D01*
X80456530Y-83215000D01*
X69706692Y-83215000D01*
X69672729Y-83200932D01*
X69492089Y-83165000D01*
X69307911Y-83165000D01*
X69127271Y-83200932D01*
X68957111Y-83271414D01*
X68803972Y-83373738D01*
X68673738Y-83503972D01*
X68571414Y-83657111D01*
X68500932Y-83827271D01*
X68465000Y-84007911D01*
X59333000Y-84007911D01*
X59333000Y-83999589D01*
X59279775Y-83732011D01*
X59175371Y-83479957D01*
X59023799Y-83253114D01*
X58830886Y-83060201D01*
X58604043Y-82908629D01*
X58351989Y-82804225D01*
X58084411Y-82751000D01*
X57811589Y-82751000D01*
X57544011Y-82804225D01*
X57291957Y-82908629D01*
X57065114Y-83060201D01*
X56872201Y-83253114D01*
X56862370Y-83267827D01*
X56861270Y-83265769D01*
X56691318Y-83058682D01*
X56484231Y-82888730D01*
X56247968Y-82762445D01*
X55991607Y-82684678D01*
X55791809Y-82665000D01*
X55428424Y-82665000D01*
X55395226Y-82498102D01*
X55317205Y-82309744D01*
X55203937Y-82140226D01*
X55059774Y-81996063D01*
X54890256Y-81882795D01*
X54701898Y-81804774D01*
X54501939Y-81765000D01*
X54298061Y-81765000D01*
X54098102Y-81804774D01*
X53909744Y-81882795D01*
X53740226Y-81996063D01*
X53596063Y-82140226D01*
X53482795Y-82309744D01*
X53404774Y-82498102D01*
X53365000Y-82698061D01*
X53365000Y-82901939D01*
X53404774Y-83101898D01*
X53482795Y-83290256D01*
X53532737Y-83365000D01*
X52875559Y-83365000D01*
X52834739Y-83315261D01*
X52650492Y-83164054D01*
X52440287Y-83051697D01*
X52212201Y-82982508D01*
X52034437Y-82965000D01*
X51265563Y-82965000D01*
X51087799Y-82982508D01*
X50958000Y-83021882D01*
X50958000Y-77578118D01*
X51087799Y-77617492D01*
X51265563Y-77635000D01*
X52034437Y-77635000D01*
X52212201Y-77617492D01*
X52440287Y-77548303D01*
X52650492Y-77435946D01*
X52834739Y-77284739D01*
X52875559Y-77235000D01*
X53532737Y-77235000D01*
X53482795Y-77309744D01*
X53404774Y-77498102D01*
X53365000Y-77698061D01*
X53365000Y-77901939D01*
X53404774Y-78101898D01*
X53482795Y-78290256D01*
X53596063Y-78459774D01*
X53740226Y-78603937D01*
X53909744Y-78717205D01*
X54098102Y-78795226D01*
X54298061Y-78835000D01*
X54501939Y-78835000D01*
X54701898Y-78795226D01*
X54890256Y-78717205D01*
X55059774Y-78603937D01*
X55203937Y-78459774D01*
X55317205Y-78290256D01*
X55395226Y-78101898D01*
X55428424Y-77935000D01*
X55791809Y-77935000D01*
X55991607Y-77915322D01*
X56247968Y-77837555D01*
X56484231Y-77711270D01*
X56691318Y-77541318D01*
X56861270Y-77334231D01*
X56987555Y-77097968D01*
X57065322Y-76841607D01*
X57082487Y-76667316D01*
X102703016Y-76667316D01*
X102758025Y-77177201D01*
X102911451Y-77666558D01*
X103130379Y-78076145D01*
X103493913Y-78288482D01*
X105139395Y-76643000D01*
X105498605Y-76643000D01*
X107144087Y-78288482D01*
X107507621Y-78076145D01*
X107745160Y-77621629D01*
X107889463Y-77129504D01*
X107934984Y-76618684D01*
X107879975Y-76108799D01*
X107726549Y-75619442D01*
X107507621Y-75209855D01*
X107144087Y-74997518D01*
X105498605Y-76643000D01*
X105139395Y-76643000D01*
X103493913Y-74997518D01*
X103130379Y-75209855D01*
X102892840Y-75664371D01*
X102748537Y-76156496D01*
X102703016Y-76667316D01*
X57082487Y-76667316D01*
X57091580Y-76575000D01*
X57065322Y-76308393D01*
X56987555Y-76052032D01*
X56861270Y-75815769D01*
X56691318Y-75608682D01*
X56484231Y-75438730D01*
X56247968Y-75312445D01*
X55991607Y-75234678D01*
X55791809Y-75215000D01*
X55108191Y-75215000D01*
X54908393Y-75234678D01*
X54652032Y-75312445D01*
X54415769Y-75438730D01*
X54208682Y-75608682D01*
X54203497Y-75615000D01*
X52875559Y-75615000D01*
X52834739Y-75565261D01*
X52650492Y-75414054D01*
X52440287Y-75301697D01*
X52212201Y-75232508D01*
X52034437Y-75215000D01*
X51265563Y-75215000D01*
X51087799Y-75232508D01*
X50958000Y-75271882D01*
X50958000Y-74817913D01*
X103673518Y-74817913D01*
X105319000Y-76463395D01*
X106964482Y-74817913D01*
X106752145Y-74454379D01*
X106297629Y-74216840D01*
X105805504Y-74072537D01*
X105294684Y-74027016D01*
X104784799Y-74082025D01*
X104295442Y-74235451D01*
X103885855Y-74454379D01*
X103673518Y-74817913D01*
X50958000Y-74817913D01*
X50958000Y-69363740D01*
X51025000Y-69363740D01*
X51025000Y-69656260D01*
X51082068Y-69943158D01*
X51194010Y-70213411D01*
X51356525Y-70456632D01*
X51563368Y-70663475D01*
X51737760Y-70780000D01*
X51563368Y-70896525D01*
X51356525Y-71103368D01*
X51194010Y-71346589D01*
X51082068Y-71616842D01*
X51025000Y-71903740D01*
X51025000Y-72196260D01*
X51082068Y-72483158D01*
X51194010Y-72753411D01*
X51356525Y-72996632D01*
X51563368Y-73203475D01*
X51806589Y-73365990D01*
X52076842Y-73477932D01*
X52363740Y-73535000D01*
X52656260Y-73535000D01*
X52943158Y-73477932D01*
X53213411Y-73365990D01*
X53456632Y-73203475D01*
X53588487Y-73071620D01*
X53610498Y-73144180D01*
X53669463Y-73254494D01*
X53748815Y-73351185D01*
X53845506Y-73430537D01*
X53955820Y-73489502D01*
X54075518Y-73525812D01*
X54200000Y-73538072D01*
X55900000Y-73538072D01*
X56024482Y-73525812D01*
X56144180Y-73489502D01*
X56254494Y-73430537D01*
X56351185Y-73351185D01*
X56430537Y-73254494D01*
X56489502Y-73144180D01*
X56525812Y-73024482D01*
X56538072Y-72900000D01*
X56538072Y-71200000D01*
X56525812Y-71075518D01*
X56489502Y-70955820D01*
X56430537Y-70845506D01*
X56351185Y-70748815D01*
X56254494Y-70669463D01*
X56144180Y-70610498D01*
X56071620Y-70588487D01*
X56203475Y-70456632D01*
X56270715Y-70356000D01*
X59467676Y-70356000D01*
X59504998Y-70359676D01*
X59542320Y-70356000D01*
X59542331Y-70356000D01*
X59653984Y-70345003D01*
X59797245Y-70301546D01*
X59929274Y-70230974D01*
X60008496Y-70165958D01*
X60024010Y-70203411D01*
X60186525Y-70446632D01*
X60393368Y-70653475D01*
X60567760Y-70770000D01*
X60393368Y-70886525D01*
X60186525Y-71093368D01*
X60024010Y-71336589D01*
X59912068Y-71606842D01*
X59855000Y-71893740D01*
X59855000Y-72186260D01*
X59912068Y-72473158D01*
X60024010Y-72743411D01*
X60186525Y-72986632D01*
X60393368Y-73193475D01*
X60636589Y-73355990D01*
X60906842Y-73467932D01*
X61193740Y-73525000D01*
X61486260Y-73525000D01*
X61773158Y-73467932D01*
X62043411Y-73355990D01*
X62286632Y-73193475D01*
X62493475Y-72986632D01*
X62610000Y-72812240D01*
X62726525Y-72986632D01*
X62933368Y-73193475D01*
X63176589Y-73355990D01*
X63446842Y-73467932D01*
X63733740Y-73525000D01*
X64026260Y-73525000D01*
X64313158Y-73467932D01*
X64583411Y-73355990D01*
X64826632Y-73193475D01*
X65033475Y-72986632D01*
X65155195Y-72804466D01*
X65224822Y-72921355D01*
X65419731Y-73137588D01*
X65653080Y-73311641D01*
X65915901Y-73436825D01*
X66063110Y-73481476D01*
X66293000Y-73360155D01*
X66293000Y-72167000D01*
X66273000Y-72167000D01*
X66273000Y-71913000D01*
X66293000Y-71913000D01*
X66293000Y-69627000D01*
X66273000Y-69627000D01*
X66273000Y-69373000D01*
X66293000Y-69373000D01*
X66293000Y-69353000D01*
X66547000Y-69353000D01*
X66547000Y-69373000D01*
X66567000Y-69373000D01*
X66567000Y-69627000D01*
X66547000Y-69627000D01*
X66547000Y-71913000D01*
X66567000Y-71913000D01*
X66567000Y-72167000D01*
X66547000Y-72167000D01*
X66547000Y-73360155D01*
X66776890Y-73481476D01*
X66924099Y-73436825D01*
X67186920Y-73311641D01*
X67420269Y-73137588D01*
X67615178Y-72921355D01*
X67684805Y-72804466D01*
X67806525Y-72986632D01*
X68013368Y-73193475D01*
X68256589Y-73355990D01*
X68526842Y-73467932D01*
X68813740Y-73525000D01*
X69106260Y-73525000D01*
X69211304Y-73504105D01*
X69818201Y-74111003D01*
X69841999Y-74140001D01*
X69870997Y-74163799D01*
X69957723Y-74234974D01*
X70035579Y-74276589D01*
X70089753Y-74305546D01*
X70233014Y-74349003D01*
X70344667Y-74360000D01*
X70344677Y-74360000D01*
X70382000Y-74363676D01*
X70419323Y-74360000D01*
X75154465Y-74360000D01*
X75257111Y-74428586D01*
X75427271Y-74499068D01*
X75607911Y-74535000D01*
X75792089Y-74535000D01*
X75972729Y-74499068D01*
X76142889Y-74428586D01*
X76296028Y-74326262D01*
X76426262Y-74196028D01*
X76528586Y-74042889D01*
X76599068Y-73872729D01*
X76635000Y-73692089D01*
X76635000Y-73507911D01*
X76599068Y-73327271D01*
X76528586Y-73157111D01*
X76426262Y-73003972D01*
X76296028Y-72873738D01*
X76198978Y-72808891D01*
X85716519Y-72808891D01*
X85813843Y-73083252D01*
X85962822Y-73333355D01*
X86157731Y-73549588D01*
X86391080Y-73723641D01*
X86653901Y-73848825D01*
X86801110Y-73893476D01*
X87031000Y-73772155D01*
X87031000Y-72579000D01*
X85837186Y-72579000D01*
X85716519Y-72808891D01*
X76198978Y-72808891D01*
X76142889Y-72771414D01*
X75972729Y-72700932D01*
X75792089Y-72665000D01*
X75607911Y-72665000D01*
X75427271Y-72700932D01*
X75257111Y-72771414D01*
X75154465Y-72840000D01*
X72751451Y-72840000D01*
X72815990Y-72743411D01*
X72927932Y-72473158D01*
X72985000Y-72186260D01*
X72985000Y-72095109D01*
X85716519Y-72095109D01*
X85837186Y-72325000D01*
X87031000Y-72325000D01*
X87031000Y-71131845D01*
X87285000Y-71131845D01*
X87285000Y-72325000D01*
X87305000Y-72325000D01*
X87305000Y-72579000D01*
X87285000Y-72579000D01*
X87285000Y-73772155D01*
X87514890Y-73893476D01*
X87662099Y-73848825D01*
X87924920Y-73723641D01*
X88158269Y-73549588D01*
X88353178Y-73333355D01*
X88422805Y-73216466D01*
X88544525Y-73398632D01*
X88751368Y-73605475D01*
X88994589Y-73767990D01*
X89264842Y-73879932D01*
X89551740Y-73937000D01*
X89844260Y-73937000D01*
X90131158Y-73879932D01*
X90401411Y-73767990D01*
X90644632Y-73605475D01*
X90776487Y-73473620D01*
X90798498Y-73546180D01*
X90857463Y-73656494D01*
X90936815Y-73753185D01*
X91033506Y-73832537D01*
X91143820Y-73891502D01*
X91263518Y-73927812D01*
X91388000Y-73940072D01*
X93088000Y-73940072D01*
X93212482Y-73927812D01*
X93332180Y-73891502D01*
X93442494Y-73832537D01*
X93539185Y-73753185D01*
X93618537Y-73656494D01*
X93677502Y-73546180D01*
X93713812Y-73426482D01*
X93726072Y-73302000D01*
X93726072Y-71602000D01*
X93713812Y-71477518D01*
X93677502Y-71357820D01*
X93618537Y-71247506D01*
X93539185Y-71150815D01*
X93442494Y-71071463D01*
X93332180Y-71012498D01*
X93212482Y-70976188D01*
X93088000Y-70963928D01*
X91388000Y-70963928D01*
X91263518Y-70976188D01*
X91143820Y-71012498D01*
X91033506Y-71071463D01*
X90936815Y-71150815D01*
X90857463Y-71247506D01*
X90798498Y-71357820D01*
X90776487Y-71430380D01*
X90644632Y-71298525D01*
X90401411Y-71136010D01*
X90131158Y-71024068D01*
X89844260Y-70967000D01*
X89551740Y-70967000D01*
X89264842Y-71024068D01*
X88994589Y-71136010D01*
X88751368Y-71298525D01*
X88544525Y-71505368D01*
X88422805Y-71687534D01*
X88353178Y-71570645D01*
X88158269Y-71354412D01*
X87924920Y-71180359D01*
X87662099Y-71055175D01*
X87514890Y-71010524D01*
X87285000Y-71131845D01*
X87031000Y-71131845D01*
X86801110Y-71010524D01*
X86653901Y-71055175D01*
X86391080Y-71180359D01*
X86157731Y-71354412D01*
X85962822Y-71570645D01*
X85813843Y-71820748D01*
X85716519Y-72095109D01*
X72985000Y-72095109D01*
X72985000Y-71893740D01*
X72927932Y-71606842D01*
X72867604Y-71461197D01*
X73001085Y-71327717D01*
X73034277Y-71309975D01*
X73150002Y-71215002D01*
X73173804Y-71185999D01*
X73711002Y-70648802D01*
X73740001Y-70625003D01*
X73834974Y-70509278D01*
X73905546Y-70377249D01*
X73949003Y-70233988D01*
X73960000Y-70122335D01*
X73963677Y-70085002D01*
X73960000Y-70047669D01*
X73960000Y-68952331D01*
X73963677Y-68914998D01*
X73955897Y-68836002D01*
X73949003Y-68766012D01*
X73905546Y-68622751D01*
X73834974Y-68490722D01*
X73740001Y-68374997D01*
X73711004Y-68351200D01*
X73405804Y-68046000D01*
X88209928Y-68046000D01*
X88209928Y-69746000D01*
X88222188Y-69870482D01*
X88258498Y-69990180D01*
X88317463Y-70100494D01*
X88396815Y-70197185D01*
X88493506Y-70276537D01*
X88603820Y-70335502D01*
X88723518Y-70371812D01*
X88848000Y-70384072D01*
X90548000Y-70384072D01*
X90672482Y-70371812D01*
X90792180Y-70335502D01*
X90902494Y-70276537D01*
X90999185Y-70197185D01*
X91078537Y-70100494D01*
X91137502Y-69990180D01*
X91173812Y-69870482D01*
X91186072Y-69746000D01*
X91186072Y-69050000D01*
X111411928Y-69050000D01*
X111411928Y-70750000D01*
X111424188Y-70874482D01*
X111460498Y-70994180D01*
X111519463Y-71104494D01*
X111598815Y-71201185D01*
X111695506Y-71280537D01*
X111805820Y-71339502D01*
X111878380Y-71361513D01*
X111746525Y-71493368D01*
X111584010Y-71736589D01*
X111472068Y-72006842D01*
X111415000Y-72293740D01*
X111415000Y-72586260D01*
X111472068Y-72873158D01*
X111584010Y-73143411D01*
X111746525Y-73386632D01*
X111953368Y-73593475D01*
X112127760Y-73710000D01*
X111953368Y-73826525D01*
X111746525Y-74033368D01*
X111584010Y-74276589D01*
X111472068Y-74546842D01*
X111415000Y-74833740D01*
X111415000Y-75126260D01*
X111472068Y-75413158D01*
X111584010Y-75683411D01*
X111746525Y-75926632D01*
X111953368Y-76133475D01*
X112196589Y-76295990D01*
X112466842Y-76407932D01*
X112753740Y-76465000D01*
X113046260Y-76465000D01*
X113333158Y-76407932D01*
X113603411Y-76295990D01*
X113846632Y-76133475D01*
X113865107Y-76115000D01*
X114133869Y-76115000D01*
X116663023Y-78644155D01*
X116610000Y-78910721D01*
X116610000Y-79331279D01*
X116692047Y-79743756D01*
X116852988Y-80132302D01*
X117086637Y-80481983D01*
X117384017Y-80779363D01*
X117733698Y-81013012D01*
X118122244Y-81173953D01*
X118534721Y-81256000D01*
X118955279Y-81256000D01*
X119367756Y-81173953D01*
X119756302Y-81013012D01*
X120105983Y-80779363D01*
X120403363Y-80481983D01*
X120637012Y-80132302D01*
X120797953Y-79743756D01*
X120880000Y-79331279D01*
X120880000Y-78910721D01*
X120797953Y-78498244D01*
X120637012Y-78109698D01*
X120403363Y-77760017D01*
X120105983Y-77462637D01*
X119756302Y-77228988D01*
X119367756Y-77068047D01*
X118955279Y-76986000D01*
X118534721Y-76986000D01*
X118268155Y-77039023D01*
X115317143Y-74088012D01*
X115187622Y-73981717D01*
X114990446Y-73876324D01*
X114776498Y-73811423D01*
X114554000Y-73789509D01*
X114331502Y-73811423D01*
X114220814Y-73845000D01*
X113865107Y-73845000D01*
X113846632Y-73826525D01*
X113672240Y-73710000D01*
X113846632Y-73593475D01*
X113865107Y-73575000D01*
X116660866Y-73575000D01*
X116610000Y-73830721D01*
X116610000Y-74251279D01*
X116692047Y-74663756D01*
X116852988Y-75052302D01*
X117086637Y-75401983D01*
X117384017Y-75699363D01*
X117733698Y-75933012D01*
X118122244Y-76093953D01*
X118534721Y-76176000D01*
X118955279Y-76176000D01*
X119367756Y-76093953D01*
X119756302Y-75933012D01*
X120105983Y-75699363D01*
X120403363Y-75401983D01*
X120637012Y-75052302D01*
X120797953Y-74663756D01*
X120880000Y-74251279D01*
X120880000Y-73830721D01*
X120797953Y-73418244D01*
X120637012Y-73029698D01*
X120403363Y-72680017D01*
X120105983Y-72382637D01*
X119756302Y-72148988D01*
X119367756Y-71988047D01*
X118955279Y-71906000D01*
X118534721Y-71906000D01*
X118268155Y-71959023D01*
X117985996Y-71676865D01*
X117950449Y-71633551D01*
X117777623Y-71491716D01*
X117580447Y-71386324D01*
X117366499Y-71321423D01*
X117199752Y-71305000D01*
X117199751Y-71305000D01*
X117144000Y-71299509D01*
X117088249Y-71305000D01*
X114058728Y-71305000D01*
X114104494Y-71280537D01*
X114201185Y-71201185D01*
X114280537Y-71104494D01*
X114317683Y-71035000D01*
X117861752Y-71035000D01*
X118028499Y-71018577D01*
X118089057Y-71000207D01*
X118122244Y-71013953D01*
X118534721Y-71096000D01*
X118955279Y-71096000D01*
X119367756Y-71013953D01*
X119756302Y-70853012D01*
X120105983Y-70619363D01*
X120403363Y-70321983D01*
X120637012Y-69972302D01*
X120797953Y-69583756D01*
X120880000Y-69171279D01*
X120880000Y-68750721D01*
X120797953Y-68338244D01*
X120637012Y-67949698D01*
X120403363Y-67600017D01*
X120105983Y-67302637D01*
X119756302Y-67068988D01*
X119367756Y-66908047D01*
X118955279Y-66826000D01*
X118534721Y-66826000D01*
X118122244Y-66908047D01*
X117733698Y-67068988D01*
X117384017Y-67302637D01*
X117086637Y-67600017D01*
X116852988Y-67949698D01*
X116692047Y-68338244D01*
X116610000Y-68750721D01*
X116610000Y-68765000D01*
X114317683Y-68765000D01*
X114280537Y-68695506D01*
X114201185Y-68598815D01*
X114104494Y-68519463D01*
X113994180Y-68460498D01*
X113874482Y-68424188D01*
X113750000Y-68411928D01*
X112050000Y-68411928D01*
X111925518Y-68424188D01*
X111805820Y-68460498D01*
X111695506Y-68519463D01*
X111598815Y-68598815D01*
X111519463Y-68695506D01*
X111460498Y-68805820D01*
X111424188Y-68925518D01*
X111411928Y-69050000D01*
X91186072Y-69050000D01*
X91186072Y-68046000D01*
X91173812Y-67921518D01*
X91137502Y-67801820D01*
X91078537Y-67691506D01*
X90999185Y-67594815D01*
X90902494Y-67515463D01*
X90792180Y-67456498D01*
X90672482Y-67420188D01*
X90548000Y-67407928D01*
X88848000Y-67407928D01*
X88723518Y-67420188D01*
X88603820Y-67456498D01*
X88493506Y-67515463D01*
X88396815Y-67594815D01*
X88317463Y-67691506D01*
X88258498Y-67801820D01*
X88222188Y-67921518D01*
X88209928Y-68046000D01*
X73405804Y-68046000D01*
X69898806Y-64539003D01*
X69875003Y-64509999D01*
X69759278Y-64415026D01*
X69627249Y-64344454D01*
X69483988Y-64300997D01*
X69372335Y-64290000D01*
X69372324Y-64290000D01*
X69335002Y-64286324D01*
X69297680Y-64290000D01*
X54687323Y-64290000D01*
X54650000Y-64286324D01*
X54612677Y-64290000D01*
X54612667Y-64290000D01*
X54501014Y-64300997D01*
X54357753Y-64344454D01*
X54225723Y-64415026D01*
X54142083Y-64483668D01*
X54109999Y-64509999D01*
X54086201Y-64538998D01*
X53363997Y-65261202D01*
X53334999Y-65285000D01*
X53311201Y-65313998D01*
X53311200Y-65313999D01*
X53240025Y-65400725D01*
X53169453Y-65532755D01*
X53154316Y-65582657D01*
X53141219Y-65625831D01*
X52866891Y-65528519D01*
X52637000Y-65649186D01*
X52637000Y-66843000D01*
X52657000Y-66843000D01*
X52657000Y-67097000D01*
X52637000Y-67097000D01*
X52637000Y-67117000D01*
X52383000Y-67117000D01*
X52383000Y-67097000D01*
X51189845Y-67097000D01*
X51068524Y-67326890D01*
X51113175Y-67474099D01*
X51238359Y-67736920D01*
X51412412Y-67970269D01*
X51628645Y-68165178D01*
X51745534Y-68234805D01*
X51563368Y-68356525D01*
X51356525Y-68563368D01*
X51194010Y-68806589D01*
X51082068Y-69076842D01*
X51025000Y-69363740D01*
X50958000Y-69363740D01*
X50958000Y-66613110D01*
X51068524Y-66613110D01*
X51189845Y-66843000D01*
X52383000Y-66843000D01*
X52383000Y-65649186D01*
X52153109Y-65528519D01*
X51878748Y-65625843D01*
X51628645Y-65774822D01*
X51412412Y-65969731D01*
X51238359Y-66203080D01*
X51113175Y-66465901D01*
X51068524Y-66613110D01*
X50958000Y-66613110D01*
X50958000Y-63228087D01*
X52873518Y-63228087D01*
X53085855Y-63591621D01*
X53540371Y-63829160D01*
X54032496Y-63973463D01*
X54543316Y-64018984D01*
X55053201Y-63963975D01*
X55542558Y-63810549D01*
X55952145Y-63591621D01*
X56164482Y-63228087D01*
X54519000Y-61582605D01*
X52873518Y-63228087D01*
X50958000Y-63228087D01*
X50958000Y-61427316D01*
X51903016Y-61427316D01*
X51958025Y-61937201D01*
X52111451Y-62426558D01*
X52330379Y-62836145D01*
X52693913Y-63048482D01*
X54339395Y-61403000D01*
X54698605Y-61403000D01*
X56344087Y-63048482D01*
X56707621Y-62836145D01*
X56945160Y-62381629D01*
X57089463Y-61889504D01*
X57134984Y-61378684D01*
X57079975Y-60868799D01*
X57066675Y-60826376D01*
X61758000Y-60826376D01*
X61758000Y-61979625D01*
X61778214Y-62184860D01*
X61858096Y-62448195D01*
X61987817Y-62690887D01*
X62162393Y-62903608D01*
X62375114Y-63078183D01*
X62617806Y-63207904D01*
X62881141Y-63287786D01*
X63155000Y-63314759D01*
X63428860Y-63287786D01*
X63692195Y-63207904D01*
X63934887Y-63078183D01*
X64147608Y-62903608D01*
X64322183Y-62690887D01*
X64426038Y-62496587D01*
X64452941Y-62562942D01*
X64603994Y-62792729D01*
X64796974Y-62988632D01*
X65024465Y-63143122D01*
X65277724Y-63250262D01*
X65351930Y-63265220D01*
X65568000Y-63142720D01*
X65568000Y-61530000D01*
X65548000Y-61530000D01*
X65548000Y-61276000D01*
X65568000Y-61276000D01*
X65568000Y-59663280D01*
X65822000Y-59663280D01*
X65822000Y-61276000D01*
X65842000Y-61276000D01*
X65842000Y-61530000D01*
X65822000Y-61530000D01*
X65822000Y-63142720D01*
X66038070Y-63265220D01*
X66112276Y-63250262D01*
X66365535Y-63143122D01*
X66593026Y-62988632D01*
X66786006Y-62792729D01*
X66937059Y-62562942D01*
X66963962Y-62496587D01*
X67067817Y-62690887D01*
X67242393Y-62903608D01*
X67455114Y-63078183D01*
X67697806Y-63207904D01*
X67961141Y-63287786D01*
X68235000Y-63314759D01*
X68508860Y-63287786D01*
X68772195Y-63207904D01*
X69014887Y-63078183D01*
X69227608Y-62903608D01*
X69402183Y-62690887D01*
X69505000Y-62498529D01*
X69607817Y-62690887D01*
X69782393Y-62903608D01*
X69995114Y-63078183D01*
X70237806Y-63207904D01*
X70501141Y-63287786D01*
X70775000Y-63314759D01*
X71048860Y-63287786D01*
X71312195Y-63207904D01*
X71554887Y-63078183D01*
X71767608Y-62903608D01*
X71942183Y-62690887D01*
X72045000Y-62498529D01*
X72147817Y-62690887D01*
X72322393Y-62903608D01*
X72535114Y-63078183D01*
X72777806Y-63207904D01*
X73041141Y-63287786D01*
X73315000Y-63314759D01*
X73588860Y-63287786D01*
X73852195Y-63207904D01*
X74094887Y-63078183D01*
X74307608Y-62903608D01*
X74482183Y-62690887D01*
X74585000Y-62498529D01*
X74687817Y-62690887D01*
X74862393Y-62903608D01*
X75075114Y-63078183D01*
X75317806Y-63207904D01*
X75581141Y-63287786D01*
X75855000Y-63314759D01*
X76128860Y-63287786D01*
X76392195Y-63207904D01*
X76634887Y-63078183D01*
X76847608Y-62903608D01*
X77022183Y-62690887D01*
X77125000Y-62498529D01*
X77227817Y-62690887D01*
X77402393Y-62903608D01*
X77615114Y-63078183D01*
X77857806Y-63207904D01*
X78121141Y-63287786D01*
X78395000Y-63314759D01*
X78668860Y-63287786D01*
X78932195Y-63207904D01*
X79174887Y-63078183D01*
X79387608Y-62903608D01*
X79562183Y-62690887D01*
X79665000Y-62498529D01*
X79767817Y-62690887D01*
X79942393Y-62903608D01*
X80155114Y-63078183D01*
X80397806Y-63207904D01*
X80661141Y-63287786D01*
X80935000Y-63314759D01*
X81208860Y-63287786D01*
X81472195Y-63207904D01*
X81714887Y-63078183D01*
X81927608Y-62903608D01*
X82102183Y-62690887D01*
X82231904Y-62448195D01*
X82311786Y-62184860D01*
X82332000Y-61979625D01*
X82332000Y-60826375D01*
X82311786Y-60621140D01*
X82231904Y-60357805D01*
X82102183Y-60115113D01*
X81927607Y-59902392D01*
X81714886Y-59727817D01*
X81472194Y-59598096D01*
X81208859Y-59518214D01*
X80935000Y-59491241D01*
X80661140Y-59518214D01*
X80397805Y-59598096D01*
X80155113Y-59727817D01*
X79942392Y-59902393D01*
X79767817Y-60115114D01*
X79665000Y-60307471D01*
X79562183Y-60115113D01*
X79387607Y-59902392D01*
X79174886Y-59727817D01*
X78932194Y-59598096D01*
X78668859Y-59518214D01*
X78395000Y-59491241D01*
X78121140Y-59518214D01*
X77857805Y-59598096D01*
X77615113Y-59727817D01*
X77402392Y-59902393D01*
X77227817Y-60115114D01*
X77125000Y-60307471D01*
X77022183Y-60115113D01*
X76847607Y-59902392D01*
X76634886Y-59727817D01*
X76392194Y-59598096D01*
X76128859Y-59518214D01*
X75855000Y-59491241D01*
X75581140Y-59518214D01*
X75317805Y-59598096D01*
X75075113Y-59727817D01*
X74862392Y-59902393D01*
X74687817Y-60115114D01*
X74585000Y-60307471D01*
X74482183Y-60115113D01*
X74307607Y-59902392D01*
X74094886Y-59727817D01*
X73852194Y-59598096D01*
X73588859Y-59518214D01*
X73315000Y-59491241D01*
X73041140Y-59518214D01*
X72777805Y-59598096D01*
X72535113Y-59727817D01*
X72322392Y-59902393D01*
X72147817Y-60115114D01*
X72045000Y-60307471D01*
X71942183Y-60115113D01*
X71767607Y-59902392D01*
X71554886Y-59727817D01*
X71312194Y-59598096D01*
X71048859Y-59518214D01*
X70775000Y-59491241D01*
X70501140Y-59518214D01*
X70237805Y-59598096D01*
X69995113Y-59727817D01*
X69782392Y-59902393D01*
X69607817Y-60115114D01*
X69505000Y-60307471D01*
X69402183Y-60115113D01*
X69227607Y-59902392D01*
X69014886Y-59727817D01*
X68772194Y-59598096D01*
X68508859Y-59518214D01*
X68235000Y-59491241D01*
X67961140Y-59518214D01*
X67697805Y-59598096D01*
X67455113Y-59727817D01*
X67242392Y-59902393D01*
X67067817Y-60115114D01*
X66963962Y-60309414D01*
X66937059Y-60243058D01*
X66786006Y-60013271D01*
X66593026Y-59817368D01*
X66365535Y-59662878D01*
X66112276Y-59555738D01*
X66038070Y-59540780D01*
X65822000Y-59663280D01*
X65568000Y-59663280D01*
X65351930Y-59540780D01*
X65277724Y-59555738D01*
X65024465Y-59662878D01*
X64796974Y-59817368D01*
X64603994Y-60013271D01*
X64452941Y-60243058D01*
X64426038Y-60309413D01*
X64322183Y-60115113D01*
X64147607Y-59902392D01*
X63934886Y-59727817D01*
X63692194Y-59598096D01*
X63428859Y-59518214D01*
X63155000Y-59491241D01*
X62881140Y-59518214D01*
X62617805Y-59598096D01*
X62375113Y-59727817D01*
X62162392Y-59902393D01*
X61987817Y-60115114D01*
X61858096Y-60357806D01*
X61778214Y-60621141D01*
X61758000Y-60826376D01*
X57066675Y-60826376D01*
X56926549Y-60379442D01*
X56707621Y-59969855D01*
X56344087Y-59757518D01*
X54698605Y-61403000D01*
X54339395Y-61403000D01*
X52693913Y-59757518D01*
X52330379Y-59969855D01*
X52092840Y-60424371D01*
X51948537Y-60916496D01*
X51903016Y-61427316D01*
X50958000Y-61427316D01*
X50958000Y-59577913D01*
X52873518Y-59577913D01*
X54519000Y-61223395D01*
X56164482Y-59577913D01*
X55952145Y-59214379D01*
X55497629Y-58976840D01*
X55005504Y-58832537D01*
X54494684Y-58787016D01*
X53984799Y-58842025D01*
X53495442Y-58995451D01*
X53085855Y-59214379D01*
X52873518Y-59577913D01*
X50958000Y-59577913D01*
X50958000Y-56427000D01*
X62392928Y-56427000D01*
X62392928Y-58127000D01*
X62405188Y-58251482D01*
X62441498Y-58371180D01*
X62500463Y-58481494D01*
X62579815Y-58578185D01*
X62676506Y-58657537D01*
X62786820Y-58716502D01*
X62906518Y-58752812D01*
X63031000Y-58765072D01*
X64731000Y-58765072D01*
X64855482Y-58752812D01*
X64975180Y-58716502D01*
X65085494Y-58657537D01*
X65182185Y-58578185D01*
X65261537Y-58481494D01*
X65320502Y-58371180D01*
X65344966Y-58290534D01*
X65420731Y-58374588D01*
X65654080Y-58548641D01*
X65916901Y-58673825D01*
X66064110Y-58718476D01*
X66294000Y-58597155D01*
X66294000Y-57404000D01*
X66274000Y-57404000D01*
X66274000Y-57150000D01*
X66294000Y-57150000D01*
X66294000Y-55956845D01*
X66548000Y-55956845D01*
X66548000Y-57150000D01*
X66568000Y-57150000D01*
X66568000Y-57404000D01*
X66548000Y-57404000D01*
X66548000Y-58597155D01*
X66777890Y-58718476D01*
X66925099Y-58673825D01*
X67187920Y-58548641D01*
X67421269Y-58374588D01*
X67616178Y-58158355D01*
X67685805Y-58041466D01*
X67807525Y-58223632D01*
X68014368Y-58430475D01*
X68257589Y-58592990D01*
X68527842Y-58704932D01*
X68814740Y-58762000D01*
X69107260Y-58762000D01*
X69394158Y-58704932D01*
X69664411Y-58592990D01*
X69907632Y-58430475D01*
X70114475Y-58223632D01*
X70231000Y-58049240D01*
X70347525Y-58223632D01*
X70554368Y-58430475D01*
X70797589Y-58592990D01*
X71067842Y-58704932D01*
X71354740Y-58762000D01*
X71647260Y-58762000D01*
X71934158Y-58704932D01*
X72204411Y-58592990D01*
X72447632Y-58430475D01*
X72654475Y-58223632D01*
X72771000Y-58049240D01*
X72887525Y-58223632D01*
X73094368Y-58430475D01*
X73337589Y-58592990D01*
X73607842Y-58704932D01*
X73894740Y-58762000D01*
X74187260Y-58762000D01*
X74474158Y-58704932D01*
X74744411Y-58592990D01*
X74987632Y-58430475D01*
X75194475Y-58223632D01*
X75311000Y-58049240D01*
X75427525Y-58223632D01*
X75634368Y-58430475D01*
X75877589Y-58592990D01*
X76147842Y-58704932D01*
X76434740Y-58762000D01*
X76727260Y-58762000D01*
X77014158Y-58704932D01*
X77284411Y-58592990D01*
X77527632Y-58430475D01*
X77734475Y-58223632D01*
X77851000Y-58049240D01*
X77967525Y-58223632D01*
X78174368Y-58430475D01*
X78417589Y-58592990D01*
X78687842Y-58704932D01*
X78974740Y-58762000D01*
X79267260Y-58762000D01*
X79554158Y-58704932D01*
X79824411Y-58592990D01*
X80067632Y-58430475D01*
X80274475Y-58223632D01*
X80391000Y-58049240D01*
X80507525Y-58223632D01*
X80714368Y-58430475D01*
X80957589Y-58592990D01*
X81227842Y-58704932D01*
X81514740Y-58762000D01*
X81807260Y-58762000D01*
X82094158Y-58704932D01*
X82364411Y-58592990D01*
X82607632Y-58430475D01*
X82739487Y-58298620D01*
X82761498Y-58371180D01*
X82820463Y-58481494D01*
X82899815Y-58578185D01*
X82996506Y-58657537D01*
X83106820Y-58716502D01*
X83226518Y-58752812D01*
X83351000Y-58765072D01*
X85051000Y-58765072D01*
X85175482Y-58752812D01*
X85295180Y-58716502D01*
X85405494Y-58657537D01*
X85502185Y-58578185D01*
X85581537Y-58481494D01*
X85640502Y-58371180D01*
X85662513Y-58298620D01*
X85794368Y-58430475D01*
X86006788Y-58572410D01*
X85079982Y-59499217D01*
X84999000Y-59491241D01*
X84725140Y-59518214D01*
X84461805Y-59598096D01*
X84219113Y-59727817D01*
X84006392Y-59902393D01*
X83831817Y-60115114D01*
X83702096Y-60357806D01*
X83622214Y-60621141D01*
X83602000Y-60826376D01*
X83602000Y-61979625D01*
X83622214Y-62184860D01*
X83702096Y-62448195D01*
X83831817Y-62690887D01*
X84006393Y-62903608D01*
X84219114Y-63078183D01*
X84461806Y-63207904D01*
X84725141Y-63287786D01*
X84999000Y-63314759D01*
X85272860Y-63287786D01*
X85536195Y-63207904D01*
X85778887Y-63078183D01*
X85991608Y-62903608D01*
X86166183Y-62690887D01*
X86269000Y-62498529D01*
X86371817Y-62690887D01*
X86546393Y-62903608D01*
X86759114Y-63078183D01*
X87001806Y-63207904D01*
X87265141Y-63287786D01*
X87539000Y-63314759D01*
X87812860Y-63287786D01*
X88076195Y-63207904D01*
X88318887Y-63078183D01*
X88531608Y-62903608D01*
X88706183Y-62690887D01*
X88809000Y-62498529D01*
X88911817Y-62690887D01*
X89086393Y-62903608D01*
X89299114Y-63078183D01*
X89541806Y-63207904D01*
X89805141Y-63287786D01*
X90079000Y-63314759D01*
X90352860Y-63287786D01*
X90616195Y-63207904D01*
X90858887Y-63078183D01*
X91071608Y-62903608D01*
X91246183Y-62690887D01*
X91349000Y-62498529D01*
X91451817Y-62690887D01*
X91626393Y-62903608D01*
X91839114Y-63078183D01*
X92081806Y-63207904D01*
X92345141Y-63287786D01*
X92619000Y-63314759D01*
X92892860Y-63287786D01*
X93156195Y-63207904D01*
X93398887Y-63078183D01*
X93611608Y-62903608D01*
X93786183Y-62690887D01*
X93889000Y-62498529D01*
X93991817Y-62690887D01*
X94166393Y-62903608D01*
X94379114Y-63078183D01*
X94621806Y-63207904D01*
X94885141Y-63287786D01*
X95159000Y-63314759D01*
X95432860Y-63287786D01*
X95696195Y-63207904D01*
X95938887Y-63078183D01*
X96151608Y-62903608D01*
X96326183Y-62690887D01*
X96429000Y-62498529D01*
X96531817Y-62690887D01*
X96706393Y-62903608D01*
X96919114Y-63078183D01*
X97161806Y-63207904D01*
X97425141Y-63287786D01*
X97699000Y-63314759D01*
X97972860Y-63287786D01*
X98236195Y-63207904D01*
X98478887Y-63078183D01*
X98691608Y-62903608D01*
X98866183Y-62690887D01*
X98969000Y-62498529D01*
X99071817Y-62690887D01*
X99246393Y-62903608D01*
X99459114Y-63078183D01*
X99701806Y-63207904D01*
X99965141Y-63287786D01*
X100239000Y-63314759D01*
X100512860Y-63287786D01*
X100776195Y-63207904D01*
X101018887Y-63078183D01*
X101231608Y-62903608D01*
X101406183Y-62690887D01*
X101509000Y-62498529D01*
X101611817Y-62690887D01*
X101786393Y-62903608D01*
X101999114Y-63078183D01*
X102241806Y-63207904D01*
X102505141Y-63287786D01*
X102779000Y-63314759D01*
X103052860Y-63287786D01*
X103316195Y-63207904D01*
X103558887Y-63078183D01*
X103771608Y-62903608D01*
X103946183Y-62690887D01*
X104075904Y-62448195D01*
X104155786Y-62184860D01*
X104176000Y-61979625D01*
X104176000Y-60828801D01*
X106023201Y-62676003D01*
X106046999Y-62705001D01*
X106075997Y-62728799D01*
X106162723Y-62799974D01*
X106230394Y-62836145D01*
X106294753Y-62870546D01*
X106438014Y-62914003D01*
X106549667Y-62925000D01*
X106549677Y-62925000D01*
X106587000Y-62928676D01*
X106624323Y-62925000D01*
X111377465Y-62925000D01*
X111480111Y-62993586D01*
X111650271Y-63064068D01*
X111830911Y-63100000D01*
X112015089Y-63100000D01*
X112195729Y-63064068D01*
X112365889Y-62993586D01*
X112519028Y-62891262D01*
X112649262Y-62761028D01*
X112751586Y-62607889D01*
X112822068Y-62437729D01*
X112858000Y-62257089D01*
X112858000Y-62072911D01*
X112822068Y-61892271D01*
X112751586Y-61722111D01*
X112649262Y-61568972D01*
X112519028Y-61438738D01*
X112365889Y-61336414D01*
X112195729Y-61265932D01*
X112015089Y-61230000D01*
X111830911Y-61230000D01*
X111650271Y-61265932D01*
X111480111Y-61336414D01*
X111377465Y-61405000D01*
X106901802Y-61405000D01*
X105692246Y-60195445D01*
X105790889Y-60154586D01*
X105944028Y-60052262D01*
X106074262Y-59922028D01*
X106176586Y-59768889D01*
X106247068Y-59598729D01*
X106283000Y-59418089D01*
X106283000Y-59233911D01*
X106247068Y-59053271D01*
X106176586Y-58883111D01*
X106074262Y-58729972D01*
X105944028Y-58599738D01*
X105790889Y-58497414D01*
X105620729Y-58426932D01*
X105499649Y-58402847D01*
X105211803Y-58115002D01*
X105188001Y-58085999D01*
X105072276Y-57991026D01*
X104940247Y-57920454D01*
X104796986Y-57876997D01*
X104685333Y-57866000D01*
X104685322Y-57866000D01*
X104648000Y-57862324D01*
X104610678Y-57866000D01*
X103344380Y-57866000D01*
X103408932Y-57710158D01*
X103466000Y-57423260D01*
X103466000Y-57130740D01*
X103408932Y-56843842D01*
X103296990Y-56573589D01*
X103134475Y-56330368D01*
X102927632Y-56123525D01*
X102684411Y-55961010D01*
X102414158Y-55849068D01*
X102127260Y-55792000D01*
X101834740Y-55792000D01*
X101547842Y-55849068D01*
X101277589Y-55961010D01*
X101034368Y-56123525D01*
X100827525Y-56330368D01*
X100711000Y-56504760D01*
X100594475Y-56330368D01*
X100387632Y-56123525D01*
X100144411Y-55961010D01*
X99874158Y-55849068D01*
X99587260Y-55792000D01*
X99294740Y-55792000D01*
X99007842Y-55849068D01*
X98737589Y-55961010D01*
X98494368Y-56123525D01*
X98287525Y-56330368D01*
X98171000Y-56504760D01*
X98054475Y-56330368D01*
X97847632Y-56123525D01*
X97604411Y-55961010D01*
X97334158Y-55849068D01*
X97047260Y-55792000D01*
X96754740Y-55792000D01*
X96467842Y-55849068D01*
X96197589Y-55961010D01*
X95954368Y-56123525D01*
X95747525Y-56330368D01*
X95631000Y-56504760D01*
X95514475Y-56330368D01*
X95307632Y-56123525D01*
X95064411Y-55961010D01*
X94794158Y-55849068D01*
X94507260Y-55792000D01*
X94214740Y-55792000D01*
X93927842Y-55849068D01*
X93657589Y-55961010D01*
X93414368Y-56123525D01*
X93207525Y-56330368D01*
X93091000Y-56504760D01*
X92974475Y-56330368D01*
X92767632Y-56123525D01*
X92524411Y-55961010D01*
X92254158Y-55849068D01*
X91967260Y-55792000D01*
X91674740Y-55792000D01*
X91387842Y-55849068D01*
X91117589Y-55961010D01*
X90874368Y-56123525D01*
X90667525Y-56330368D01*
X90551000Y-56504760D01*
X90434475Y-56330368D01*
X90227632Y-56123525D01*
X89984411Y-55961010D01*
X89714158Y-55849068D01*
X89427260Y-55792000D01*
X89134740Y-55792000D01*
X88847842Y-55849068D01*
X88577589Y-55961010D01*
X88334368Y-56123525D01*
X88127525Y-56330368D01*
X88011000Y-56504760D01*
X87894475Y-56330368D01*
X87687632Y-56123525D01*
X87444411Y-55961010D01*
X87174158Y-55849068D01*
X86887260Y-55792000D01*
X86594740Y-55792000D01*
X86307842Y-55849068D01*
X86037589Y-55961010D01*
X85794368Y-56123525D01*
X85662513Y-56255380D01*
X85640502Y-56182820D01*
X85581537Y-56072506D01*
X85502185Y-55975815D01*
X85405494Y-55896463D01*
X85295180Y-55837498D01*
X85175482Y-55801188D01*
X85051000Y-55788928D01*
X83351000Y-55788928D01*
X83226518Y-55801188D01*
X83106820Y-55837498D01*
X82996506Y-55896463D01*
X82899815Y-55975815D01*
X82820463Y-56072506D01*
X82761498Y-56182820D01*
X82739487Y-56255380D01*
X82607632Y-56123525D01*
X82364411Y-55961010D01*
X82094158Y-55849068D01*
X81807260Y-55792000D01*
X81514740Y-55792000D01*
X81227842Y-55849068D01*
X80957589Y-55961010D01*
X80714368Y-56123525D01*
X80507525Y-56330368D01*
X80391000Y-56504760D01*
X80274475Y-56330368D01*
X80067632Y-56123525D01*
X79824411Y-55961010D01*
X79554158Y-55849068D01*
X79267260Y-55792000D01*
X78974740Y-55792000D01*
X78687842Y-55849068D01*
X78417589Y-55961010D01*
X78174368Y-56123525D01*
X77967525Y-56330368D01*
X77851000Y-56504760D01*
X77734475Y-56330368D01*
X77527632Y-56123525D01*
X77284411Y-55961010D01*
X77014158Y-55849068D01*
X76727260Y-55792000D01*
X76434740Y-55792000D01*
X76147842Y-55849068D01*
X75877589Y-55961010D01*
X75634368Y-56123525D01*
X75427525Y-56330368D01*
X75311000Y-56504760D01*
X75194475Y-56330368D01*
X74987632Y-56123525D01*
X74744411Y-55961010D01*
X74474158Y-55849068D01*
X74187260Y-55792000D01*
X73894740Y-55792000D01*
X73607842Y-55849068D01*
X73337589Y-55961010D01*
X73094368Y-56123525D01*
X72887525Y-56330368D01*
X72771000Y-56504760D01*
X72654475Y-56330368D01*
X72447632Y-56123525D01*
X72204411Y-55961010D01*
X71934158Y-55849068D01*
X71647260Y-55792000D01*
X71354740Y-55792000D01*
X71067842Y-55849068D01*
X70797589Y-55961010D01*
X70554368Y-56123525D01*
X70347525Y-56330368D01*
X70231000Y-56504760D01*
X70114475Y-56330368D01*
X69907632Y-56123525D01*
X69664411Y-55961010D01*
X69394158Y-55849068D01*
X69107260Y-55792000D01*
X68814740Y-55792000D01*
X68527842Y-55849068D01*
X68257589Y-55961010D01*
X68014368Y-56123525D01*
X67807525Y-56330368D01*
X67685805Y-56512534D01*
X67616178Y-56395645D01*
X67421269Y-56179412D01*
X67187920Y-56005359D01*
X66925099Y-55880175D01*
X66777890Y-55835524D01*
X66548000Y-55956845D01*
X66294000Y-55956845D01*
X66064110Y-55835524D01*
X65916901Y-55880175D01*
X65654080Y-56005359D01*
X65420731Y-56179412D01*
X65344966Y-56263466D01*
X65320502Y-56182820D01*
X65261537Y-56072506D01*
X65182185Y-55975815D01*
X65085494Y-55896463D01*
X64975180Y-55837498D01*
X64855482Y-55801188D01*
X64731000Y-55788928D01*
X63031000Y-55788928D01*
X62906518Y-55801188D01*
X62786820Y-55837498D01*
X62676506Y-55896463D01*
X62579815Y-55975815D01*
X62500463Y-56072506D01*
X62441498Y-56182820D01*
X62405188Y-56302518D01*
X62392928Y-56427000D01*
X50958000Y-56427000D01*
X50958000Y-54710000D01*
X123290001Y-54710000D01*
X123290000Y-115290000D01*
%TA.AperFunction,Conductor*%
D35*
G36*
X123290000Y-115290000D02*
G01*
X85859578Y-115290000D01*
X86504507Y-114645072D01*
X87591000Y-114645072D01*
X87715482Y-114632812D01*
X87835180Y-114596502D01*
X87945494Y-114537537D01*
X87999765Y-114492998D01*
X88045506Y-114530537D01*
X88155820Y-114589502D01*
X88275518Y-114625812D01*
X88400000Y-114638072D01*
X90100000Y-114638072D01*
X90224482Y-114625812D01*
X90344180Y-114589502D01*
X90454494Y-114530537D01*
X90551185Y-114451185D01*
X90630537Y-114354494D01*
X90689502Y-114244180D01*
X90711513Y-114171620D01*
X90843368Y-114303475D01*
X91086589Y-114465990D01*
X91356842Y-114577932D01*
X91643740Y-114635000D01*
X91936260Y-114635000D01*
X92223158Y-114577932D01*
X92493411Y-114465990D01*
X92736632Y-114303475D01*
X92943475Y-114096632D01*
X93060000Y-113922240D01*
X93176525Y-114096632D01*
X93383368Y-114303475D01*
X93626589Y-114465990D01*
X93896842Y-114577932D01*
X94183740Y-114635000D01*
X94476260Y-114635000D01*
X94763158Y-114577932D01*
X95033411Y-114465990D01*
X95276632Y-114303475D01*
X95483475Y-114096632D01*
X95600000Y-113922240D01*
X95716525Y-114096632D01*
X95923368Y-114303475D01*
X96166589Y-114465990D01*
X96436842Y-114577932D01*
X96723740Y-114635000D01*
X97016260Y-114635000D01*
X97303158Y-114577932D01*
X97573411Y-114465990D01*
X97816632Y-114303475D01*
X98023475Y-114096632D01*
X98140000Y-113922240D01*
X98256525Y-114096632D01*
X98463368Y-114303475D01*
X98706589Y-114465990D01*
X98976842Y-114577932D01*
X99263740Y-114635000D01*
X99556260Y-114635000D01*
X99843158Y-114577932D01*
X100113411Y-114465990D01*
X100356632Y-114303475D01*
X100563475Y-114096632D01*
X100680000Y-113922240D01*
X100796525Y-114096632D01*
X101003368Y-114303475D01*
X101246589Y-114465990D01*
X101516842Y-114577932D01*
X101803740Y-114635000D01*
X102096260Y-114635000D01*
X102383158Y-114577932D01*
X102653411Y-114465990D01*
X102896632Y-114303475D01*
X103103475Y-114096632D01*
X103220000Y-113922240D01*
X103336525Y-114096632D01*
X103543368Y-114303475D01*
X103786589Y-114465990D01*
X104056842Y-114577932D01*
X104343740Y-114635000D01*
X104636260Y-114635000D01*
X104923158Y-114577932D01*
X105193411Y-114465990D01*
X105436632Y-114303475D01*
X105643475Y-114096632D01*
X105760000Y-113922240D01*
X105876525Y-114096632D01*
X106083368Y-114303475D01*
X106326589Y-114465990D01*
X106596842Y-114577932D01*
X106883740Y-114635000D01*
X107176260Y-114635000D01*
X107463158Y-114577932D01*
X107733411Y-114465990D01*
X107976632Y-114303475D01*
X108183475Y-114096632D01*
X108345990Y-113853411D01*
X108457932Y-113583158D01*
X108515000Y-113296260D01*
X108515000Y-113003740D01*
X108457932Y-112716842D01*
X108345990Y-112446589D01*
X108183475Y-112203368D01*
X107976632Y-111996525D01*
X107733411Y-111834010D01*
X107463158Y-111722068D01*
X107176260Y-111665000D01*
X106883740Y-111665000D01*
X106596842Y-111722068D01*
X106326589Y-111834010D01*
X106083368Y-111996525D01*
X105876525Y-112203368D01*
X105760000Y-112377760D01*
X105643475Y-112203368D01*
X105436632Y-111996525D01*
X105193411Y-111834010D01*
X104923158Y-111722068D01*
X104636260Y-111665000D01*
X104343740Y-111665000D01*
X104056842Y-111722068D01*
X103786589Y-111834010D01*
X103543368Y-111996525D01*
X103336525Y-112203368D01*
X103220000Y-112377760D01*
X103103475Y-112203368D01*
X102896632Y-111996525D01*
X102653411Y-111834010D01*
X102383158Y-111722068D01*
X102096260Y-111665000D01*
X101803740Y-111665000D01*
X101516842Y-111722068D01*
X101246589Y-111834010D01*
X101003368Y-111996525D01*
X100796525Y-112203368D01*
X100680000Y-112377760D01*
X100563475Y-112203368D01*
X100356632Y-111996525D01*
X100113411Y-111834010D01*
X99843158Y-111722068D01*
X99556260Y-111665000D01*
X99263740Y-111665000D01*
X98976842Y-111722068D01*
X98706589Y-111834010D01*
X98463368Y-111996525D01*
X98256525Y-112203368D01*
X98140000Y-112377760D01*
X98023475Y-112203368D01*
X97816632Y-111996525D01*
X97573411Y-111834010D01*
X97303158Y-111722068D01*
X97016260Y-111665000D01*
X96723740Y-111665000D01*
X96436842Y-111722068D01*
X96166589Y-111834010D01*
X95923368Y-111996525D01*
X95716525Y-112203368D01*
X95600000Y-112377760D01*
X95483475Y-112203368D01*
X95276632Y-111996525D01*
X95033411Y-111834010D01*
X94763158Y-111722068D01*
X94476260Y-111665000D01*
X94183740Y-111665000D01*
X93896842Y-111722068D01*
X93626589Y-111834010D01*
X93383368Y-111996525D01*
X93176525Y-112203368D01*
X93060000Y-112377760D01*
X92943475Y-112203368D01*
X92736632Y-111996525D01*
X92493411Y-111834010D01*
X92223158Y-111722068D01*
X91936260Y-111665000D01*
X91643740Y-111665000D01*
X91356842Y-111722068D01*
X91086589Y-111834010D01*
X90843368Y-111996525D01*
X90711513Y-112128380D01*
X90689502Y-112055820D01*
X90630537Y-111945506D01*
X90551185Y-111848815D01*
X90454494Y-111769463D01*
X90344180Y-111710498D01*
X90224482Y-111674188D01*
X90100000Y-111661928D01*
X88400000Y-111661928D01*
X88275518Y-111674188D01*
X88155820Y-111710498D01*
X88045506Y-111769463D01*
X87991235Y-111814002D01*
X87945494Y-111776463D01*
X87835180Y-111717498D01*
X87715482Y-111681188D01*
X87591000Y-111668928D01*
X87232174Y-111668928D01*
X87296028Y-111626262D01*
X87426262Y-111496028D01*
X87528586Y-111342889D01*
X87599068Y-111172729D01*
X87623153Y-111051650D01*
X87911008Y-110763795D01*
X87940001Y-110740001D01*
X87963795Y-110711008D01*
X87963799Y-110711004D01*
X88034973Y-110624277D01*
X88046638Y-110602454D01*
X88105546Y-110492247D01*
X88106227Y-110490000D01*
X88517324Y-110490000D01*
X88531998Y-110638985D01*
X88575454Y-110782246D01*
X88646026Y-110914276D01*
X88740999Y-111030001D01*
X88856724Y-111124974D01*
X88988754Y-111195546D01*
X89132015Y-111239002D01*
X89184568Y-111244178D01*
X89299114Y-111338183D01*
X89541806Y-111467904D01*
X89805141Y-111547786D01*
X90079000Y-111574759D01*
X90352860Y-111547786D01*
X90616195Y-111467904D01*
X90858887Y-111338183D01*
X91071608Y-111163608D01*
X91231127Y-110969232D01*
X91280999Y-111030001D01*
X91396724Y-111124974D01*
X91528754Y-111195546D01*
X91672015Y-111239002D01*
X91724568Y-111244178D01*
X91839114Y-111338183D01*
X92081806Y-111467904D01*
X92345141Y-111547786D01*
X92619000Y-111574759D01*
X92892860Y-111547786D01*
X93156195Y-111467904D01*
X93398887Y-111338183D01*
X93611608Y-111163608D01*
X93771127Y-110969232D01*
X93820999Y-111030001D01*
X93936724Y-111124974D01*
X94068754Y-111195546D01*
X94212015Y-111239002D01*
X94264568Y-111244178D01*
X94379114Y-111338183D01*
X94621806Y-111467904D01*
X94885141Y-111547786D01*
X95159000Y-111574759D01*
X95432860Y-111547786D01*
X95696195Y-111467904D01*
X95938887Y-111338183D01*
X96151608Y-111163608D01*
X96311127Y-110969232D01*
X96360999Y-111030001D01*
X96476724Y-111124974D01*
X96608754Y-111195546D01*
X96752015Y-111239002D01*
X96804568Y-111244178D01*
X96919114Y-111338183D01*
X97161806Y-111467904D01*
X97425141Y-111547786D01*
X97699000Y-111574759D01*
X97972860Y-111547786D01*
X98236195Y-111467904D01*
X98478887Y-111338183D01*
X98691608Y-111163608D01*
X98851127Y-110969232D01*
X98900999Y-111030001D01*
X99016724Y-111124974D01*
X99148754Y-111195546D01*
X99292015Y-111239002D01*
X99344568Y-111244178D01*
X99459114Y-111338183D01*
X99701806Y-111467904D01*
X99965141Y-111547786D01*
X100239000Y-111574759D01*
X100512860Y-111547786D01*
X100776195Y-111467904D01*
X101018887Y-111338183D01*
X101231608Y-111163608D01*
X101391127Y-110969232D01*
X101440999Y-111030001D01*
X101556724Y-111124974D01*
X101688754Y-111195546D01*
X101832015Y-111239002D01*
X101884568Y-111244178D01*
X101999114Y-111338183D01*
X102241806Y-111467904D01*
X102505141Y-111547786D01*
X102779000Y-111574759D01*
X103052860Y-111547786D01*
X103316195Y-111467904D01*
X103558887Y-111338183D01*
X103771608Y-111163608D01*
X103822988Y-111101000D01*
X116606928Y-111101000D01*
X116619188Y-111225482D01*
X116655498Y-111345180D01*
X116714463Y-111455494D01*
X116793815Y-111552185D01*
X116890506Y-111631537D01*
X117000820Y-111690502D01*
X117120518Y-111726812D01*
X117245000Y-111739072D01*
X118459250Y-111736000D01*
X118618000Y-111577250D01*
X118618000Y-109728000D01*
X118872000Y-109728000D01*
X118872000Y-111577250D01*
X119030750Y-111736000D01*
X120245000Y-111739072D01*
X120369482Y-111726812D01*
X120489180Y-111690502D01*
X120599494Y-111631537D01*
X120696185Y-111552185D01*
X120775537Y-111455494D01*
X120834502Y-111345180D01*
X120870812Y-111225482D01*
X120883072Y-111101000D01*
X120880000Y-109886750D01*
X120721250Y-109728000D01*
X118872000Y-109728000D01*
X118618000Y-109728000D01*
X116768750Y-109728000D01*
X116610000Y-109886750D01*
X116606928Y-111101000D01*
X103822988Y-111101000D01*
X103946183Y-110950887D01*
X104075904Y-110708195D01*
X104155786Y-110444860D01*
X104176000Y-110239625D01*
X104176000Y-109116000D01*
X108783928Y-109116000D01*
X108796188Y-109240482D01*
X108832498Y-109360180D01*
X108891463Y-109470494D01*
X108970815Y-109567185D01*
X109067506Y-109646537D01*
X109177820Y-109705502D01*
X109297518Y-109741812D01*
X109422000Y-109754072D01*
X109986250Y-109751000D01*
X110145000Y-109592250D01*
X110145000Y-108393000D01*
X108945750Y-108393000D01*
X108787000Y-108551750D01*
X108783928Y-109116000D01*
X104176000Y-109116000D01*
X104176000Y-109086375D01*
X104155786Y-108881140D01*
X104075904Y-108617805D01*
X103946183Y-108375113D01*
X103771607Y-108162392D01*
X103558886Y-107987817D01*
X103316194Y-107858096D01*
X103052859Y-107778214D01*
X102779000Y-107751241D01*
X102505140Y-107778214D01*
X102241805Y-107858096D01*
X101999113Y-107987817D01*
X101786392Y-108162393D01*
X101611817Y-108375114D01*
X101509000Y-108567471D01*
X101406183Y-108375113D01*
X101231607Y-108162392D01*
X101018886Y-107987817D01*
X100776194Y-107858096D01*
X100512859Y-107778214D01*
X100239000Y-107751241D01*
X99965140Y-107778214D01*
X99701805Y-107858096D01*
X99459113Y-107987817D01*
X99246392Y-108162393D01*
X99071817Y-108375114D01*
X98969000Y-108567471D01*
X98866183Y-108375113D01*
X98691607Y-108162392D01*
X98478886Y-107987817D01*
X98236194Y-107858096D01*
X97972859Y-107778214D01*
X97699000Y-107751241D01*
X97425140Y-107778214D01*
X97161805Y-107858096D01*
X96919113Y-107987817D01*
X96706392Y-108162393D01*
X96531817Y-108375114D01*
X96429000Y-108567471D01*
X96326183Y-108375113D01*
X96151607Y-108162392D01*
X95938886Y-107987817D01*
X95696194Y-107858096D01*
X95432859Y-107778214D01*
X95159000Y-107751241D01*
X94885140Y-107778214D01*
X94621805Y-107858096D01*
X94379113Y-107987817D01*
X94166392Y-108162393D01*
X93991817Y-108375114D01*
X93889000Y-108567471D01*
X93786183Y-108375113D01*
X93611607Y-108162392D01*
X93398886Y-107987817D01*
X93156194Y-107858096D01*
X92892859Y-107778214D01*
X92619000Y-107751241D01*
X92345140Y-107778214D01*
X92081805Y-107858096D01*
X91839113Y-107987817D01*
X91626392Y-108162393D01*
X91451817Y-108375114D01*
X91349000Y-108567471D01*
X91246183Y-108375113D01*
X91071607Y-108162392D01*
X90858886Y-107987817D01*
X90616194Y-107858096D01*
X90352859Y-107778214D01*
X90079000Y-107751241D01*
X89805140Y-107778214D01*
X89541805Y-107858096D01*
X89299113Y-107987817D01*
X89086392Y-108162393D01*
X88911817Y-108375114D01*
X88782096Y-108617806D01*
X88702214Y-108881141D01*
X88682000Y-109086376D01*
X88682000Y-110021890D01*
X88646026Y-110065724D01*
X88575454Y-110197754D01*
X88531998Y-110341015D01*
X88517324Y-110490000D01*
X88106227Y-110490000D01*
X88149003Y-110348986D01*
X88160000Y-110237333D01*
X88160000Y-110237324D01*
X88163676Y-110200001D01*
X88160000Y-110162678D01*
X88160000Y-109145535D01*
X88228586Y-109042889D01*
X88299068Y-108872729D01*
X88335000Y-108692089D01*
X88335000Y-108507911D01*
X88299068Y-108327271D01*
X88228586Y-108157111D01*
X88126262Y-108003972D01*
X87996028Y-107873738D01*
X87842889Y-107771414D01*
X87672729Y-107700932D01*
X87492089Y-107665000D01*
X87307911Y-107665000D01*
X87127271Y-107700932D01*
X86957111Y-107771414D01*
X86803972Y-107873738D01*
X86673738Y-108003972D01*
X86571414Y-108157111D01*
X86500932Y-108327271D01*
X86465000Y-108507911D01*
X86465000Y-108692089D01*
X86500932Y-108872729D01*
X86571414Y-109042889D01*
X86640000Y-109145536D01*
X86640001Y-109885197D01*
X86548350Y-109976847D01*
X86427271Y-110000932D01*
X86396000Y-110013885D01*
X86396000Y-109086375D01*
X86375786Y-108881140D01*
X86295904Y-108617805D01*
X86166183Y-108375113D01*
X85991607Y-108162392D01*
X85778886Y-107987817D01*
X85536194Y-107858096D01*
X85272859Y-107778214D01*
X84999000Y-107751241D01*
X84725140Y-107778214D01*
X84545938Y-107832575D01*
X84962513Y-107416000D01*
X108783928Y-107416000D01*
X108787000Y-107980250D01*
X108945750Y-108139000D01*
X110145000Y-108139000D01*
X110145000Y-105853000D01*
X108951845Y-105853000D01*
X108830524Y-106082890D01*
X108875175Y-106230099D01*
X109000359Y-106492920D01*
X109174412Y-106726269D01*
X109258466Y-106802034D01*
X109177820Y-106826498D01*
X109067506Y-106885463D01*
X108970815Y-106964815D01*
X108891463Y-107061506D01*
X108832498Y-107171820D01*
X108796188Y-107291518D01*
X108783928Y-107416000D01*
X84962513Y-107416000D01*
X88667918Y-103710595D01*
X88700729Y-103704068D01*
X88870889Y-103633586D01*
X89024028Y-103531262D01*
X89154262Y-103401028D01*
X89256586Y-103247889D01*
X89327068Y-103077729D01*
X89363000Y-102897089D01*
X89363000Y-102712911D01*
X89327068Y-102532271D01*
X89256586Y-102362111D01*
X89154262Y-102208972D01*
X89024028Y-102078738D01*
X88870889Y-101976414D01*
X88700729Y-101905932D01*
X88520089Y-101870000D01*
X88335911Y-101870000D01*
X88155271Y-101905932D01*
X87985111Y-101976414D01*
X87831972Y-102078738D01*
X87701738Y-102208972D01*
X87599414Y-102362111D01*
X87528932Y-102532271D01*
X87522405Y-102565082D01*
X82322836Y-107764652D01*
X82185140Y-107778214D01*
X81921805Y-107858096D01*
X81679113Y-107987817D01*
X81466392Y-108162393D01*
X81291817Y-108375114D01*
X81187962Y-108569414D01*
X81161059Y-108503058D01*
X81010006Y-108273271D01*
X80817026Y-108077368D01*
X80589535Y-107922878D01*
X80336276Y-107815738D01*
X80262070Y-107800780D01*
X80046000Y-107923280D01*
X80046000Y-109536000D01*
X80066000Y-109536000D01*
X80066000Y-109790000D01*
X80046000Y-109790000D01*
X80046000Y-111402720D01*
X80262070Y-111525220D01*
X80336276Y-111510262D01*
X80589535Y-111403122D01*
X80817026Y-111248632D01*
X81010006Y-111052729D01*
X81161059Y-110822942D01*
X81187962Y-110756587D01*
X81217000Y-110810914D01*
X81217000Y-111252249D01*
X81211509Y-111308000D01*
X81233423Y-111530498D01*
X81290777Y-111719568D01*
X81156901Y-111760175D01*
X80894080Y-111885359D01*
X80660731Y-112059412D01*
X80465822Y-112275645D01*
X80396195Y-112392534D01*
X80274475Y-112210368D01*
X80067632Y-112003525D01*
X79824411Y-111841010D01*
X79554158Y-111729068D01*
X79267260Y-111672000D01*
X78974740Y-111672000D01*
X78813571Y-111704059D01*
X78317514Y-111208002D01*
X78371608Y-111163608D01*
X78546183Y-110950887D01*
X78650038Y-110756587D01*
X78676941Y-110822942D01*
X78827994Y-111052729D01*
X79020974Y-111248632D01*
X79248465Y-111403122D01*
X79501724Y-111510262D01*
X79575930Y-111525220D01*
X79792000Y-111402720D01*
X79792000Y-109790000D01*
X79772000Y-109790000D01*
X79772000Y-109536000D01*
X79792000Y-109536000D01*
X79792000Y-107923280D01*
X79575930Y-107800780D01*
X79501724Y-107815738D01*
X79248465Y-107922878D01*
X79020974Y-108077368D01*
X78827994Y-108273271D01*
X78676941Y-108503058D01*
X78650038Y-108569413D01*
X78546183Y-108375113D01*
X78371607Y-108162392D01*
X78158886Y-107987817D01*
X77916194Y-107858096D01*
X77652859Y-107778214D01*
X77379000Y-107751241D01*
X77105140Y-107778214D01*
X76841805Y-107858096D01*
X76599113Y-107987817D01*
X76386392Y-108162393D01*
X76211817Y-108375114D01*
X76109000Y-108567471D01*
X76006183Y-108375113D01*
X75831607Y-108162392D01*
X75618886Y-107987817D01*
X75376194Y-107858096D01*
X75112859Y-107778214D01*
X74839000Y-107751241D01*
X74565140Y-107778214D01*
X74301805Y-107858096D01*
X74059113Y-107987817D01*
X73846392Y-108162393D01*
X73671817Y-108375114D01*
X73569000Y-108567471D01*
X73466183Y-108375113D01*
X73291607Y-108162392D01*
X73078886Y-107987817D01*
X73059000Y-107977188D01*
X73059000Y-107840801D01*
X74826650Y-106073152D01*
X74947729Y-106049068D01*
X75117889Y-105978586D01*
X75271028Y-105876262D01*
X75401262Y-105746028D01*
X75503586Y-105592889D01*
X75574068Y-105422729D01*
X75610000Y-105242089D01*
X75610000Y-105057911D01*
X75574068Y-104877271D01*
X75503586Y-104707111D01*
X75401262Y-104553972D01*
X75271028Y-104423738D01*
X75117889Y-104321414D01*
X74947729Y-104250932D01*
X74767089Y-104215000D01*
X74582911Y-104215000D01*
X74402271Y-104250932D01*
X74232111Y-104321414D01*
X74078972Y-104423738D01*
X73948738Y-104553972D01*
X73846414Y-104707111D01*
X73775932Y-104877271D01*
X73751848Y-104998350D01*
X71787998Y-106962201D01*
X71759000Y-106985999D01*
X71735202Y-107014997D01*
X71735201Y-107014998D01*
X71664026Y-107101724D01*
X71593454Y-107233754D01*
X71549998Y-107377015D01*
X71535324Y-107526000D01*
X71539001Y-107563332D01*
X71539001Y-107977187D01*
X71519113Y-107987817D01*
X71306392Y-108162393D01*
X71131817Y-108375114D01*
X71002096Y-108617806D01*
X70922214Y-108881141D01*
X70902000Y-109086376D01*
X70902000Y-110239625D01*
X70922214Y-110444860D01*
X71002096Y-110708195D01*
X71131817Y-110950887D01*
X71306393Y-111163608D01*
X71432001Y-111266691D01*
X71432001Y-111270668D01*
X71428324Y-111308000D01*
X71432001Y-111345333D01*
X71442998Y-111456986D01*
X71446310Y-111467904D01*
X71486454Y-111600246D01*
X71557026Y-111732276D01*
X71626946Y-111817473D01*
X71652000Y-111848001D01*
X71680998Y-111871799D01*
X71826201Y-112017002D01*
X71850000Y-112046001D01*
X71878997Y-112069799D01*
X72599790Y-112790592D01*
X72556000Y-113010740D01*
X72556000Y-113303260D01*
X72613068Y-113590158D01*
X72725010Y-113860411D01*
X72828303Y-114015000D01*
X71366579Y-114015000D01*
X70742655Y-113391077D01*
X70728586Y-113357111D01*
X70626262Y-113203972D01*
X70496028Y-113073738D01*
X70342889Y-112971414D01*
X70172729Y-112900932D01*
X69992089Y-112865000D01*
X69807911Y-112865000D01*
X69627271Y-112900932D01*
X69457111Y-112971414D01*
X69303972Y-113073738D01*
X69173738Y-113203972D01*
X69071414Y-113357111D01*
X69000932Y-113527271D01*
X68965000Y-113707911D01*
X68965000Y-113892089D01*
X69000932Y-114072729D01*
X69071414Y-114242889D01*
X69173738Y-114396028D01*
X69303972Y-114526262D01*
X69457111Y-114628586D01*
X69491077Y-114642655D01*
X70138421Y-115290000D01*
X50958000Y-115290000D01*
X50958000Y-111488087D01*
X51603518Y-111488087D01*
X51815855Y-111851621D01*
X52270371Y-112089160D01*
X52762496Y-112233463D01*
X53273316Y-112278984D01*
X53783201Y-112223975D01*
X54272558Y-112070549D01*
X54682145Y-111851621D01*
X54894482Y-111488087D01*
X53249000Y-109842605D01*
X51603518Y-111488087D01*
X50958000Y-111488087D01*
X50958000Y-110904607D01*
X51060379Y-111096145D01*
X51423913Y-111308482D01*
X53069395Y-109663000D01*
X53428605Y-109663000D01*
X55074087Y-111308482D01*
X55437621Y-111096145D01*
X55675160Y-110641629D01*
X55819463Y-110149504D01*
X55864984Y-109638684D01*
X55809975Y-109128799D01*
X55656549Y-108639442D01*
X55437621Y-108229855D01*
X55074087Y-108017518D01*
X53428605Y-109663000D01*
X53069395Y-109663000D01*
X51423913Y-108017518D01*
X51060379Y-108229855D01*
X50958000Y-108425751D01*
X50958000Y-107837913D01*
X51603518Y-107837913D01*
X53249000Y-109483395D01*
X54894482Y-107837913D01*
X54682145Y-107474379D01*
X54227629Y-107236840D01*
X53735504Y-107092537D01*
X53224684Y-107047016D01*
X52714799Y-107102025D01*
X52225442Y-107255451D01*
X51815855Y-107474379D01*
X51603518Y-107837913D01*
X50958000Y-107837913D01*
X50958000Y-104684000D01*
X58401573Y-104684000D01*
X58431210Y-104984913D01*
X58518983Y-105274261D01*
X58661519Y-105540927D01*
X58853339Y-105774661D01*
X59087073Y-105966481D01*
X59353739Y-106109017D01*
X59643087Y-106196790D01*
X59868592Y-106219000D01*
X62219408Y-106219000D01*
X62444913Y-106196790D01*
X62734261Y-106109017D01*
X63000927Y-105966481D01*
X63234661Y-105774661D01*
X63426481Y-105540927D01*
X63569017Y-105274261D01*
X63656790Y-104984913D01*
X63686427Y-104684000D01*
X63656790Y-104383087D01*
X63569017Y-104093739D01*
X63426481Y-103827073D01*
X63234661Y-103593339D01*
X63000927Y-103401519D01*
X62734261Y-103258983D01*
X62444913Y-103171210D01*
X62219408Y-103149000D01*
X59868592Y-103149000D01*
X59643087Y-103171210D01*
X59353739Y-103258983D01*
X59087073Y-103401519D01*
X58853339Y-103593339D01*
X58661519Y-103827073D01*
X58518983Y-104093739D01*
X58431210Y-104383087D01*
X58401573Y-104684000D01*
X50958000Y-104684000D01*
X50958000Y-100011000D01*
X56709000Y-100011000D01*
X56709000Y-101111000D01*
X56763271Y-101408023D01*
X56874446Y-101688751D01*
X57038252Y-101942396D01*
X57248394Y-102159210D01*
X57496796Y-102330862D01*
X57773913Y-102450755D01*
X57879260Y-102475036D01*
X58117000Y-102354378D01*
X58117000Y-100011000D01*
X58371000Y-100011000D01*
X58371000Y-102354378D01*
X58608740Y-102475036D01*
X58714087Y-102450755D01*
X58991204Y-102330862D01*
X59239606Y-102159210D01*
X59449748Y-101942396D01*
X59613554Y-101688751D01*
X59724729Y-101408023D01*
X59779000Y-101111000D01*
X59779000Y-100011000D01*
X58371000Y-100011000D01*
X58117000Y-100011000D01*
X56709000Y-100011000D01*
X50958000Y-100011000D01*
X50958000Y-98657000D01*
X56709000Y-98657000D01*
X56709000Y-99757000D01*
X58117000Y-99757000D01*
X58117000Y-97413622D01*
X58371000Y-97413622D01*
X58371000Y-99757000D01*
X59779000Y-99757000D01*
X59779000Y-98657000D01*
X59724729Y-98359977D01*
X59613554Y-98079249D01*
X59449748Y-97825604D01*
X59312502Y-97684000D01*
X62505928Y-97684000D01*
X62505928Y-102084000D01*
X62518188Y-102208482D01*
X62554498Y-102328180D01*
X62613463Y-102438494D01*
X62692815Y-102535185D01*
X62789506Y-102614537D01*
X62899820Y-102673502D01*
X63019518Y-102709812D01*
X63144000Y-102722072D01*
X64944000Y-102722072D01*
X65068482Y-102709812D01*
X65188180Y-102673502D01*
X65298494Y-102614537D01*
X65395185Y-102535185D01*
X65474537Y-102438494D01*
X65533502Y-102328180D01*
X65569812Y-102208482D01*
X65582072Y-102084000D01*
X65582072Y-97684000D01*
X65569812Y-97559518D01*
X65533502Y-97439820D01*
X65474537Y-97329506D01*
X65395185Y-97232815D01*
X65298494Y-97153463D01*
X65188180Y-97094498D01*
X65068482Y-97058188D01*
X64944000Y-97045928D01*
X63144000Y-97045928D01*
X63019518Y-97058188D01*
X62899820Y-97094498D01*
X62789506Y-97153463D01*
X62692815Y-97232815D01*
X62613463Y-97329506D01*
X62554498Y-97439820D01*
X62518188Y-97559518D01*
X62505928Y-97684000D01*
X59312502Y-97684000D01*
X59239606Y-97608790D01*
X58991204Y-97437138D01*
X58714087Y-97317245D01*
X58608740Y-97292964D01*
X58371000Y-97413622D01*
X58117000Y-97413622D01*
X57879260Y-97292964D01*
X57773913Y-97317245D01*
X57496796Y-97437138D01*
X57248394Y-97608790D01*
X57038252Y-97825604D01*
X56874446Y-98079249D01*
X56763271Y-98359977D01*
X56709000Y-98657000D01*
X50958000Y-98657000D01*
X50958000Y-96836878D01*
X67615000Y-96836878D01*
X67615000Y-97663123D01*
X67633593Y-97851904D01*
X67707071Y-98094127D01*
X67826392Y-98317362D01*
X67986973Y-98513028D01*
X68182639Y-98673608D01*
X68405874Y-98792929D01*
X68648097Y-98866407D01*
X68900000Y-98891217D01*
X69151904Y-98866407D01*
X69394127Y-98792929D01*
X69617362Y-98673608D01*
X69813028Y-98513028D01*
X69973608Y-98317362D01*
X70011947Y-98245635D01*
X70011928Y-98250000D01*
X70024188Y-98374482D01*
X70060498Y-98494180D01*
X70119463Y-98604494D01*
X70198815Y-98701185D01*
X70295506Y-98780537D01*
X70405820Y-98839502D01*
X70525518Y-98875812D01*
X70650000Y-98888072D01*
X71014250Y-98885000D01*
X71173000Y-98726250D01*
X71173000Y-97377000D01*
X71153000Y-97377000D01*
X71153000Y-97123000D01*
X71173000Y-97123000D01*
X71173000Y-95773750D01*
X71427000Y-95773750D01*
X71427000Y-97123000D01*
X71447000Y-97123000D01*
X71447000Y-97377000D01*
X71427000Y-97377000D01*
X71427000Y-98726250D01*
X71585750Y-98885000D01*
X71950000Y-98888072D01*
X72074482Y-98875812D01*
X72194180Y-98839502D01*
X72304494Y-98780537D01*
X72401185Y-98701185D01*
X72480537Y-98604494D01*
X72539502Y-98494180D01*
X72575812Y-98374482D01*
X72588072Y-98250000D01*
X72588053Y-98245635D01*
X72626392Y-98317362D01*
X72786973Y-98513028D01*
X72982639Y-98673608D01*
X73205874Y-98792929D01*
X73448097Y-98866407D01*
X73700000Y-98891217D01*
X73951904Y-98866407D01*
X74194127Y-98792929D01*
X74417362Y-98673608D01*
X74613028Y-98513028D01*
X74773608Y-98317362D01*
X74892929Y-98094127D01*
X74966407Y-97851903D01*
X74985000Y-97663122D01*
X74985000Y-96836877D01*
X74966407Y-96648096D01*
X74892929Y-96405873D01*
X74773608Y-96182638D01*
X74613028Y-95986972D01*
X74417361Y-95826392D01*
X74194126Y-95707071D01*
X73951903Y-95633593D01*
X73700000Y-95608783D01*
X73448096Y-95633593D01*
X73205873Y-95707071D01*
X72982638Y-95826392D01*
X72786972Y-95986972D01*
X72626392Y-96182639D01*
X72588053Y-96254366D01*
X72588072Y-96250000D01*
X72575812Y-96125518D01*
X72539502Y-96005820D01*
X72480537Y-95895506D01*
X72401185Y-95798815D01*
X72304494Y-95719463D01*
X72194180Y-95660498D01*
X72074482Y-95624188D01*
X71950000Y-95611928D01*
X71585750Y-95615000D01*
X71427000Y-95773750D01*
X71173000Y-95773750D01*
X71014250Y-95615000D01*
X70650000Y-95611928D01*
X70525518Y-95624188D01*
X70405820Y-95660498D01*
X70295506Y-95719463D01*
X70198815Y-95798815D01*
X70119463Y-95895506D01*
X70060498Y-96005820D01*
X70024188Y-96125518D01*
X70011928Y-96250000D01*
X70011947Y-96254365D01*
X69973608Y-96182638D01*
X69813028Y-95986972D01*
X69617361Y-95826392D01*
X69394126Y-95707071D01*
X69151903Y-95633593D01*
X68900000Y-95608783D01*
X68648096Y-95633593D01*
X68405873Y-95707071D01*
X68182638Y-95826392D01*
X67986972Y-95986972D01*
X67826392Y-96182639D01*
X67707071Y-96405874D01*
X67633593Y-96648097D01*
X67615000Y-96836878D01*
X50958000Y-96836878D01*
X50958000Y-87160000D01*
X55461928Y-87160000D01*
X55461928Y-88960000D01*
X55474188Y-89084482D01*
X55510498Y-89204180D01*
X55569463Y-89314494D01*
X55648815Y-89411185D01*
X55745506Y-89490537D01*
X55855820Y-89549502D01*
X55874127Y-89555056D01*
X55807688Y-89621495D01*
X55639701Y-89872905D01*
X55523989Y-90152257D01*
X55465000Y-90448816D01*
X55465000Y-90751184D01*
X55523989Y-91047743D01*
X55639701Y-91327095D01*
X55807688Y-91578505D01*
X56021495Y-91792312D01*
X56272905Y-91960299D01*
X56552257Y-92076011D01*
X56848816Y-92135000D01*
X57151184Y-92135000D01*
X57447743Y-92076011D01*
X57727095Y-91960299D01*
X57978505Y-91792312D01*
X58192312Y-91578505D01*
X58360299Y-91327095D01*
X58476011Y-91047743D01*
X58535000Y-90751184D01*
X58535000Y-90448816D01*
X58476011Y-90152257D01*
X58360299Y-89872905D01*
X58192312Y-89621495D01*
X58125873Y-89555056D01*
X58144180Y-89549502D01*
X58254494Y-89490537D01*
X58351185Y-89411185D01*
X58430537Y-89314494D01*
X58489502Y-89204180D01*
X58525812Y-89084482D01*
X58538072Y-88960000D01*
X58538072Y-88907911D01*
X65765000Y-88907911D01*
X65765000Y-89092089D01*
X65800932Y-89272729D01*
X65871414Y-89442889D01*
X65940000Y-89545536D01*
X65940001Y-90962668D01*
X65936324Y-91000000D01*
X65940001Y-91037333D01*
X65950998Y-91148986D01*
X65958286Y-91173012D01*
X65994454Y-91292246D01*
X66065026Y-91424276D01*
X66136201Y-91511002D01*
X66160000Y-91540001D01*
X66188998Y-91563799D01*
X67576848Y-92951650D01*
X67600932Y-93072729D01*
X67671414Y-93242889D01*
X67773738Y-93396028D01*
X67903972Y-93526262D01*
X68057111Y-93628586D01*
X68227271Y-93699068D01*
X68407911Y-93735000D01*
X68592089Y-93735000D01*
X68772729Y-93699068D01*
X68942889Y-93628586D01*
X69096028Y-93526262D01*
X69226262Y-93396028D01*
X69328586Y-93242889D01*
X69399068Y-93072729D01*
X69435000Y-92892089D01*
X69435000Y-92707911D01*
X69399068Y-92527271D01*
X69328586Y-92357111D01*
X69226262Y-92203972D01*
X69096028Y-92073738D01*
X68942889Y-91971414D01*
X68772729Y-91900932D01*
X68651650Y-91876848D01*
X67460000Y-90685199D01*
X67460000Y-89545535D01*
X67528586Y-89442889D01*
X67599068Y-89272729D01*
X67635000Y-89092089D01*
X67635000Y-88907911D01*
X67599068Y-88727271D01*
X67528586Y-88557111D01*
X67426262Y-88403972D01*
X67296028Y-88273738D01*
X67142889Y-88171414D01*
X66972729Y-88100932D01*
X66792089Y-88065000D01*
X66607911Y-88065000D01*
X66427271Y-88100932D01*
X66257111Y-88171414D01*
X66103972Y-88273738D01*
X65973738Y-88403972D01*
X65871414Y-88557111D01*
X65800932Y-88727271D01*
X65765000Y-88907911D01*
X58538072Y-88907911D01*
X58538072Y-87160000D01*
X58525812Y-87035518D01*
X58489502Y-86915820D01*
X58430537Y-86805506D01*
X58351185Y-86708815D01*
X58254494Y-86629463D01*
X58144180Y-86570498D01*
X58024482Y-86534188D01*
X57900000Y-86521928D01*
X56100000Y-86521928D01*
X55975518Y-86534188D01*
X55855820Y-86570498D01*
X55745506Y-86629463D01*
X55648815Y-86708815D01*
X55569463Y-86805506D01*
X55510498Y-86915820D01*
X55474188Y-87035518D01*
X55461928Y-87160000D01*
X50958000Y-87160000D01*
X50958000Y-85328118D01*
X51087799Y-85367492D01*
X51265563Y-85385000D01*
X52034437Y-85385000D01*
X52212201Y-85367492D01*
X52440287Y-85298303D01*
X52650492Y-85185946D01*
X52834739Y-85034739D01*
X52875559Y-84985000D01*
X54203497Y-84985000D01*
X54208682Y-84991318D01*
X54415769Y-85161270D01*
X54652032Y-85287555D01*
X54908393Y-85365322D01*
X55108191Y-85385000D01*
X55791809Y-85385000D01*
X55991607Y-85365322D01*
X56247968Y-85287555D01*
X56484231Y-85161270D01*
X56691318Y-84991318D01*
X56780870Y-84882199D01*
X56872201Y-85018886D01*
X57065114Y-85211799D01*
X57291957Y-85363371D01*
X57544011Y-85467775D01*
X57811589Y-85521000D01*
X58084411Y-85521000D01*
X58351989Y-85467775D01*
X58604043Y-85363371D01*
X58830886Y-85211799D01*
X59023799Y-85018886D01*
X59175371Y-84792043D01*
X59279775Y-84539989D01*
X59333000Y-84272411D01*
X59333000Y-84007911D01*
X68465000Y-84007911D01*
X68465000Y-84192089D01*
X68500932Y-84372729D01*
X68571414Y-84542889D01*
X68673738Y-84696028D01*
X68803972Y-84826262D01*
X68957111Y-84928586D01*
X69127271Y-84999068D01*
X69307911Y-85035000D01*
X69492089Y-85035000D01*
X69672729Y-84999068D01*
X69706692Y-84985000D01*
X80133421Y-84985000D01*
X82804953Y-87656533D01*
X82804959Y-87656538D01*
X82857344Y-87708923D01*
X82870216Y-87740000D01*
X75683769Y-87740000D01*
X75646446Y-87736324D01*
X75609123Y-87740000D01*
X75609114Y-87740000D01*
X75497461Y-87750997D01*
X75355502Y-87794059D01*
X75354200Y-87794454D01*
X75222170Y-87865026D01*
X75170108Y-87907753D01*
X75106446Y-87959999D01*
X75082648Y-87988997D01*
X73088998Y-89982648D01*
X73060000Y-90006446D01*
X73036202Y-90035444D01*
X73036201Y-90035445D01*
X72965026Y-90122171D01*
X72894454Y-90254201D01*
X72870309Y-90333799D01*
X72850998Y-90397461D01*
X72840001Y-90509114D01*
X72836324Y-90546447D01*
X72840001Y-90583779D01*
X72840000Y-91944462D01*
X72815723Y-91980795D01*
X72749010Y-92141855D01*
X72715000Y-92312835D01*
X72715000Y-92487165D01*
X72749010Y-92658145D01*
X72815723Y-92819205D01*
X72912576Y-92964155D01*
X73035845Y-93087424D01*
X73180795Y-93184277D01*
X73341855Y-93250990D01*
X73512835Y-93285000D01*
X73687165Y-93285000D01*
X73858145Y-93250990D01*
X74019205Y-93184277D01*
X74164155Y-93087424D01*
X74287424Y-92964155D01*
X74384277Y-92819205D01*
X74450990Y-92658145D01*
X74485000Y-92487165D01*
X74485000Y-92312835D01*
X74467815Y-92226440D01*
X74589855Y-92276990D01*
X74760835Y-92311000D01*
X74935165Y-92311000D01*
X75106145Y-92276990D01*
X75267205Y-92210277D01*
X75303538Y-92186000D01*
X83562421Y-92186000D01*
X81160958Y-94587464D01*
X81160953Y-94587468D01*
X80212951Y-95535471D01*
X80179184Y-95563183D01*
X80151471Y-95596951D01*
X80151468Y-95596954D01*
X80068590Y-95697941D01*
X79986412Y-95851687D01*
X79935805Y-96018510D01*
X79918719Y-96192000D01*
X79923001Y-96235479D01*
X79923000Y-97387550D01*
X79802176Y-97568376D01*
X79716617Y-97774933D01*
X79673000Y-97994212D01*
X79673000Y-98217788D01*
X79716617Y-98437067D01*
X79802176Y-98643624D01*
X79926388Y-98829520D01*
X80084480Y-98987612D01*
X80270376Y-99111824D01*
X80476933Y-99197383D01*
X80690232Y-99239811D01*
X82437470Y-100987049D01*
X82465183Y-101020817D01*
X82498951Y-101048530D01*
X82498953Y-101048532D01*
X82557435Y-101096527D01*
X82599941Y-101131411D01*
X82753687Y-101213589D01*
X82920510Y-101264195D01*
X83050523Y-101277000D01*
X83050533Y-101277000D01*
X83093999Y-101281281D01*
X83137465Y-101277000D01*
X100275436Y-101277000D01*
X100228932Y-101389271D01*
X100222405Y-101422082D01*
X100030488Y-101614000D01*
X91438705Y-101614000D01*
X91410889Y-101595414D01*
X91240729Y-101524932D01*
X91060089Y-101489000D01*
X90875911Y-101489000D01*
X90695271Y-101524932D01*
X90525111Y-101595414D01*
X90371972Y-101697738D01*
X90241738Y-101827972D01*
X90139414Y-101981111D01*
X90068932Y-102151271D01*
X90033000Y-102331911D01*
X90033000Y-102516089D01*
X90068932Y-102696729D01*
X90139414Y-102866889D01*
X90241738Y-103020028D01*
X90371972Y-103150262D01*
X90525111Y-103252586D01*
X90695271Y-103323068D01*
X90875911Y-103359000D01*
X91060089Y-103359000D01*
X91240729Y-103323068D01*
X91410889Y-103252586D01*
X91438705Y-103234000D01*
X99925990Y-103234000D01*
X97869991Y-105290000D01*
X91470705Y-105290000D01*
X91442889Y-105271414D01*
X91272729Y-105200932D01*
X91092089Y-105165000D01*
X90907911Y-105165000D01*
X90727271Y-105200932D01*
X90557111Y-105271414D01*
X90403972Y-105373738D01*
X90273738Y-105503972D01*
X90171414Y-105657111D01*
X90100932Y-105827271D01*
X90065000Y-106007911D01*
X90065000Y-106192089D01*
X90100932Y-106372729D01*
X90171414Y-106542889D01*
X90273738Y-106696028D01*
X90403972Y-106826262D01*
X90557111Y-106928586D01*
X90727271Y-106999068D01*
X90907911Y-107035000D01*
X91092089Y-107035000D01*
X91272729Y-106999068D01*
X91442889Y-106928586D01*
X91470705Y-106910000D01*
X98165715Y-106910000D01*
X98205503Y-106913919D01*
X98245291Y-106910000D01*
X98245294Y-106910000D01*
X98364291Y-106898280D01*
X98516976Y-106851963D01*
X98657692Y-106776749D01*
X98781031Y-106675528D01*
X98806403Y-106644613D01*
X99042929Y-106408087D01*
X103673518Y-106408087D01*
X103885855Y-106771621D01*
X104340371Y-107009160D01*
X104832496Y-107153463D01*
X105343316Y-107198984D01*
X105853201Y-107143975D01*
X106342558Y-106990549D01*
X106752145Y-106771621D01*
X106964482Y-106408087D01*
X105319000Y-104762605D01*
X103673518Y-106408087D01*
X99042929Y-106408087D01*
X100843700Y-104607316D01*
X102703016Y-104607316D01*
X102758025Y-105117201D01*
X102911451Y-105606558D01*
X103130379Y-106016145D01*
X103493913Y-106228482D01*
X105139395Y-104583000D01*
X105498605Y-104583000D01*
X107144087Y-106228482D01*
X107507621Y-106016145D01*
X107745160Y-105561629D01*
X107889463Y-105069504D01*
X107934984Y-104558684D01*
X107879975Y-104048799D01*
X107726549Y-103559442D01*
X107717702Y-103542890D01*
X108830524Y-103542890D01*
X108875175Y-103690099D01*
X109000359Y-103952920D01*
X109174412Y-104186269D01*
X109390645Y-104381178D01*
X109516255Y-104456000D01*
X109390645Y-104530822D01*
X109174412Y-104725731D01*
X109000359Y-104959080D01*
X108875175Y-105221901D01*
X108830524Y-105369110D01*
X108951845Y-105599000D01*
X110145000Y-105599000D01*
X110145000Y-103313000D01*
X108951845Y-103313000D01*
X108830524Y-103542890D01*
X107717702Y-103542890D01*
X107507621Y-103149855D01*
X107144087Y-102937518D01*
X105498605Y-104583000D01*
X105139395Y-104583000D01*
X103493913Y-102937518D01*
X103130379Y-103149855D01*
X102892840Y-103604371D01*
X102748537Y-104096496D01*
X102703016Y-104607316D01*
X100843700Y-104607316D01*
X101630950Y-103820066D01*
X101630955Y-103820060D01*
X101930949Y-103520066D01*
X103233016Y-102218000D01*
X104215838Y-102218000D01*
X103885855Y-102394379D01*
X103673518Y-102757913D01*
X105319000Y-104403395D01*
X106964482Y-102757913D01*
X106752145Y-102394379D01*
X106414655Y-102218000D01*
X109150343Y-102218000D01*
X109000359Y-102419080D01*
X108875175Y-102681901D01*
X108830524Y-102829110D01*
X108951845Y-103059000D01*
X110145000Y-103059000D01*
X110145000Y-103039000D01*
X110399000Y-103039000D01*
X110399000Y-103059000D01*
X110419000Y-103059000D01*
X110419000Y-103313000D01*
X110399000Y-103313000D01*
X110399000Y-105599000D01*
X110419000Y-105599000D01*
X110419000Y-105853000D01*
X110399000Y-105853000D01*
X110399000Y-108139000D01*
X110419000Y-108139000D01*
X110419000Y-108393000D01*
X110399000Y-108393000D01*
X110399000Y-109592250D01*
X110557750Y-109751000D01*
X111122000Y-109754072D01*
X111246482Y-109741812D01*
X111366180Y-109705502D01*
X111476494Y-109646537D01*
X111573185Y-109567185D01*
X111652537Y-109470494D01*
X111711502Y-109360180D01*
X111733513Y-109287620D01*
X111865368Y-109419475D01*
X112108589Y-109581990D01*
X112378842Y-109693932D01*
X112665740Y-109751000D01*
X112958260Y-109751000D01*
X113245158Y-109693932D01*
X113515411Y-109581990D01*
X113758632Y-109419475D01*
X113965475Y-109212632D01*
X114127990Y-108969411D01*
X114239932Y-108699158D01*
X114297000Y-108412260D01*
X114297000Y-108119740D01*
X114293273Y-108101000D01*
X116606928Y-108101000D01*
X116610000Y-109315250D01*
X116768750Y-109474000D01*
X118618000Y-109474000D01*
X118618000Y-107624750D01*
X118872000Y-107624750D01*
X118872000Y-109474000D01*
X120721250Y-109474000D01*
X120880000Y-109315250D01*
X120883072Y-108101000D01*
X120870812Y-107976518D01*
X120834502Y-107856820D01*
X120775537Y-107746506D01*
X120696185Y-107649815D01*
X120599494Y-107570463D01*
X120489180Y-107511498D01*
X120369482Y-107475188D01*
X120245000Y-107462928D01*
X119030750Y-107466000D01*
X118872000Y-107624750D01*
X118618000Y-107624750D01*
X118459250Y-107466000D01*
X117245000Y-107462928D01*
X117120518Y-107475188D01*
X117000820Y-107511498D01*
X116890506Y-107570463D01*
X116793815Y-107649815D01*
X116714463Y-107746506D01*
X116655498Y-107856820D01*
X116619188Y-107976518D01*
X116606928Y-108101000D01*
X114293273Y-108101000D01*
X114239932Y-107832842D01*
X114127990Y-107562589D01*
X113965475Y-107319368D01*
X113758632Y-107112525D01*
X113635000Y-107029917D01*
X113635000Y-106962083D01*
X113758632Y-106879475D01*
X113965475Y-106672632D01*
X114127990Y-106429411D01*
X114239932Y-106159158D01*
X114297000Y-105872260D01*
X114297000Y-105579740D01*
X114239932Y-105292842D01*
X114127990Y-105022589D01*
X113965475Y-104779368D01*
X113758632Y-104572525D01*
X113635000Y-104489917D01*
X113635000Y-104422083D01*
X113758632Y-104339475D01*
X113787386Y-104310721D01*
X116610000Y-104310721D01*
X116610000Y-104731279D01*
X116692047Y-105143756D01*
X116852988Y-105532302D01*
X117086637Y-105881983D01*
X117384017Y-106179363D01*
X117733698Y-106413012D01*
X118122244Y-106573953D01*
X118534721Y-106656000D01*
X118955279Y-106656000D01*
X119367756Y-106573953D01*
X119756302Y-106413012D01*
X120105983Y-106179363D01*
X120403363Y-105881983D01*
X120637012Y-105532302D01*
X120797953Y-105143756D01*
X120880000Y-104731279D01*
X120880000Y-104310721D01*
X120797953Y-103898244D01*
X120637012Y-103509698D01*
X120403363Y-103160017D01*
X120105983Y-102862637D01*
X119756302Y-102628988D01*
X119367756Y-102468047D01*
X118955279Y-102386000D01*
X118534721Y-102386000D01*
X118122244Y-102468047D01*
X117733698Y-102628988D01*
X117384017Y-102862637D01*
X117086637Y-103160017D01*
X116852988Y-103509698D01*
X116692047Y-103898244D01*
X116610000Y-104310721D01*
X113787386Y-104310721D01*
X113965475Y-104132632D01*
X114127990Y-103889411D01*
X114239932Y-103619158D01*
X114297000Y-103332260D01*
X114297000Y-103274578D01*
X116455050Y-101116529D01*
X116488817Y-101088817D01*
X116521879Y-101048532D01*
X116599410Y-100954060D01*
X116599411Y-100954059D01*
X116681589Y-100800313D01*
X116732195Y-100633490D01*
X116745000Y-100503477D01*
X116745000Y-100503467D01*
X116749281Y-100460001D01*
X116745000Y-100416535D01*
X116745000Y-100191596D01*
X116852988Y-100452302D01*
X117086637Y-100801983D01*
X117384017Y-101099363D01*
X117733698Y-101333012D01*
X118122244Y-101493953D01*
X118534721Y-101576000D01*
X118955279Y-101576000D01*
X119367756Y-101493953D01*
X119756302Y-101333012D01*
X120105983Y-101099363D01*
X120403363Y-100801983D01*
X120637012Y-100452302D01*
X120797953Y-100063756D01*
X120880000Y-99651279D01*
X120880000Y-99230721D01*
X120797953Y-98818244D01*
X120637012Y-98429698D01*
X120403363Y-98080017D01*
X120105983Y-97782637D01*
X119756302Y-97548988D01*
X119367756Y-97388047D01*
X118955279Y-97306000D01*
X118534721Y-97306000D01*
X118122244Y-97388047D01*
X117733698Y-97548988D01*
X117384017Y-97782637D01*
X117086637Y-98080017D01*
X116852988Y-98429698D01*
X116745000Y-98690404D01*
X116745000Y-97612578D01*
X117995942Y-96361637D01*
X118122244Y-96413953D01*
X118534721Y-96496000D01*
X118955279Y-96496000D01*
X119367756Y-96413953D01*
X119756302Y-96253012D01*
X120105983Y-96019363D01*
X120403363Y-95721983D01*
X120637012Y-95372302D01*
X120797953Y-94983756D01*
X120880000Y-94571279D01*
X120880000Y-94150721D01*
X120797953Y-93738244D01*
X120637012Y-93349698D01*
X120403363Y-93000017D01*
X120105983Y-92702637D01*
X119756302Y-92468988D01*
X119367756Y-92308047D01*
X118955279Y-92226000D01*
X118534721Y-92226000D01*
X118122244Y-92308047D01*
X117733698Y-92468988D01*
X117384017Y-92702637D01*
X117086637Y-93000017D01*
X116852988Y-93349698D01*
X116692047Y-93738244D01*
X116610000Y-94150721D01*
X116610000Y-94571279D01*
X116692047Y-94983756D01*
X116744363Y-95110058D01*
X116520318Y-95334103D01*
X116499068Y-95227271D01*
X116428586Y-95057111D01*
X116326262Y-94903972D01*
X116196028Y-94773738D01*
X116042889Y-94671414D01*
X115872729Y-94600932D01*
X115692089Y-94565000D01*
X115507911Y-94565000D01*
X115327271Y-94600932D01*
X115157111Y-94671414D01*
X115003972Y-94773738D01*
X114873738Y-94903972D01*
X114771414Y-95057111D01*
X114700932Y-95227271D01*
X114694405Y-95260083D01*
X114554072Y-95400416D01*
X114554072Y-94970000D01*
X114541812Y-94845518D01*
X114505502Y-94725820D01*
X114446537Y-94615506D01*
X114392778Y-94550000D01*
X114446537Y-94484494D01*
X114505502Y-94374180D01*
X114541812Y-94254482D01*
X114554072Y-94130000D01*
X114554072Y-92430000D01*
X114541812Y-92305518D01*
X114505502Y-92185820D01*
X114446537Y-92075506D01*
X114392778Y-92010000D01*
X114446537Y-91944494D01*
X114505502Y-91834180D01*
X114541812Y-91714482D01*
X114554072Y-91590000D01*
X114554072Y-89890000D01*
X114541812Y-89765518D01*
X114505502Y-89645820D01*
X114446537Y-89535506D01*
X114392778Y-89470000D01*
X114446537Y-89404494D01*
X114505502Y-89294180D01*
X114541812Y-89174482D01*
X114552031Y-89070721D01*
X116610000Y-89070721D01*
X116610000Y-89491279D01*
X116692047Y-89903756D01*
X116852988Y-90292302D01*
X117086637Y-90641983D01*
X117384017Y-90939363D01*
X117733698Y-91173012D01*
X118122244Y-91333953D01*
X118534721Y-91416000D01*
X118955279Y-91416000D01*
X119367756Y-91333953D01*
X119756302Y-91173012D01*
X120105983Y-90939363D01*
X120403363Y-90641983D01*
X120637012Y-90292302D01*
X120797953Y-89903756D01*
X120880000Y-89491279D01*
X120880000Y-89070721D01*
X120797953Y-88658244D01*
X120637012Y-88269698D01*
X120403363Y-87920017D01*
X120105983Y-87622637D01*
X119756302Y-87388988D01*
X119367756Y-87228047D01*
X118955279Y-87146000D01*
X118534721Y-87146000D01*
X118122244Y-87228047D01*
X117733698Y-87388988D01*
X117384017Y-87622637D01*
X117086637Y-87920017D01*
X116852988Y-88269698D01*
X116692047Y-88658244D01*
X116610000Y-89070721D01*
X114552031Y-89070721D01*
X114554072Y-89050000D01*
X114554072Y-87350000D01*
X114541812Y-87225518D01*
X114505502Y-87105820D01*
X114446537Y-86995506D01*
X114392778Y-86930000D01*
X114446537Y-86864494D01*
X114505502Y-86754180D01*
X114541812Y-86634482D01*
X114554072Y-86510000D01*
X114554072Y-84810000D01*
X114541812Y-84685518D01*
X114505502Y-84565820D01*
X114446537Y-84455506D01*
X114392778Y-84390000D01*
X114446537Y-84324494D01*
X114505502Y-84214180D01*
X114541812Y-84094482D01*
X114552031Y-83990721D01*
X116610000Y-83990721D01*
X116610000Y-84411279D01*
X116692047Y-84823756D01*
X116852988Y-85212302D01*
X117086637Y-85561983D01*
X117384017Y-85859363D01*
X117733698Y-86093012D01*
X118122244Y-86253953D01*
X118534721Y-86336000D01*
X118955279Y-86336000D01*
X119367756Y-86253953D01*
X119756302Y-86093012D01*
X120105983Y-85859363D01*
X120403363Y-85561983D01*
X120637012Y-85212302D01*
X120797953Y-84823756D01*
X120880000Y-84411279D01*
X120880000Y-83990721D01*
X120797953Y-83578244D01*
X120637012Y-83189698D01*
X120403363Y-82840017D01*
X120105983Y-82542637D01*
X119756302Y-82308988D01*
X119367756Y-82148047D01*
X118955279Y-82066000D01*
X118534721Y-82066000D01*
X118122244Y-82148047D01*
X117733698Y-82308988D01*
X117384017Y-82542637D01*
X117086637Y-82840017D01*
X116852988Y-83189698D01*
X116692047Y-83578244D01*
X116610000Y-83990721D01*
X114552031Y-83990721D01*
X114554072Y-83970000D01*
X114554072Y-82270000D01*
X114541812Y-82145518D01*
X114505502Y-82025820D01*
X114446537Y-81915506D01*
X114392778Y-81850000D01*
X114446537Y-81784494D01*
X114505502Y-81674180D01*
X114541812Y-81554482D01*
X114554072Y-81430000D01*
X114554072Y-79730000D01*
X114541812Y-79605518D01*
X114505502Y-79485820D01*
X114446537Y-79375506D01*
X114367185Y-79278815D01*
X114270494Y-79199463D01*
X114160180Y-79140498D01*
X114040482Y-79104188D01*
X113916000Y-79091928D01*
X112216000Y-79091928D01*
X112091518Y-79104188D01*
X111971820Y-79140498D01*
X111861506Y-79199463D01*
X111796000Y-79253222D01*
X111730494Y-79199463D01*
X111620180Y-79140498D01*
X111500482Y-79104188D01*
X111376000Y-79091928D01*
X109676000Y-79091928D01*
X109551518Y-79104188D01*
X109431820Y-79140498D01*
X109321506Y-79199463D01*
X109256000Y-79253222D01*
X109190494Y-79199463D01*
X109080180Y-79140498D01*
X108960482Y-79104188D01*
X108836000Y-79091928D01*
X107136000Y-79091928D01*
X107011518Y-79104188D01*
X106891820Y-79140498D01*
X106781506Y-79199463D01*
X106716000Y-79253222D01*
X106650494Y-79199463D01*
X106540180Y-79140498D01*
X106420482Y-79104188D01*
X106296000Y-79091928D01*
X106210578Y-79091928D01*
X106342558Y-79050549D01*
X106752145Y-78831621D01*
X106964482Y-78468087D01*
X105319000Y-76822605D01*
X103673518Y-78468087D01*
X103885855Y-78831621D01*
X104340371Y-79069160D01*
X104465773Y-79105931D01*
X104351820Y-79140498D01*
X104241506Y-79199463D01*
X104176000Y-79253222D01*
X104110494Y-79199463D01*
X104000180Y-79140498D01*
X103880482Y-79104188D01*
X103756000Y-79091928D01*
X102056000Y-79091928D01*
X101931518Y-79104188D01*
X101811820Y-79140498D01*
X101701506Y-79199463D01*
X101636000Y-79253222D01*
X101570494Y-79199463D01*
X101460180Y-79140498D01*
X101340482Y-79104188D01*
X101216000Y-79091928D01*
X99516000Y-79091928D01*
X99391518Y-79104188D01*
X99271820Y-79140498D01*
X99161506Y-79199463D01*
X99064815Y-79278815D01*
X98985463Y-79375506D01*
X98926498Y-79485820D01*
X98890188Y-79605518D01*
X98877928Y-79730000D01*
X98877928Y-81430000D01*
X98890188Y-81554482D01*
X98926498Y-81674180D01*
X98985463Y-81784494D01*
X99039222Y-81850000D01*
X98985463Y-81915506D01*
X98926498Y-82025820D01*
X98890188Y-82145518D01*
X98877928Y-82270000D01*
X98877928Y-83970000D01*
X98890188Y-84094482D01*
X98926498Y-84214180D01*
X98985463Y-84324494D01*
X99039222Y-84390000D01*
X98985463Y-84455506D01*
X98926498Y-84565820D01*
X98890188Y-84685518D01*
X98877928Y-84810000D01*
X98877928Y-86510000D01*
X98890188Y-86634482D01*
X98926498Y-86754180D01*
X98985463Y-86864494D01*
X99039222Y-86930000D01*
X98985463Y-86995506D01*
X98926498Y-87105820D01*
X98890188Y-87225518D01*
X98877928Y-87350000D01*
X98877928Y-89050000D01*
X98890188Y-89174482D01*
X98926498Y-89294180D01*
X98985463Y-89404494D01*
X99039222Y-89470000D01*
X98985463Y-89535506D01*
X98926498Y-89645820D01*
X98890188Y-89765518D01*
X98877928Y-89890000D01*
X98877928Y-91590000D01*
X98890188Y-91714482D01*
X98926498Y-91834180D01*
X98985463Y-91944494D01*
X99039222Y-92010000D01*
X98985463Y-92075506D01*
X98926498Y-92185820D01*
X98890188Y-92305518D01*
X98877928Y-92430000D01*
X98877928Y-94130000D01*
X98890188Y-94254482D01*
X98926498Y-94374180D01*
X98985463Y-94484494D01*
X99039222Y-94550000D01*
X98985463Y-94615506D01*
X98926498Y-94725820D01*
X98890188Y-94845518D01*
X98877928Y-94970000D01*
X98877928Y-96670000D01*
X98890188Y-96794482D01*
X98926498Y-96914180D01*
X98985463Y-97024494D01*
X99039222Y-97090000D01*
X98985463Y-97155506D01*
X98926498Y-97265820D01*
X98890188Y-97385518D01*
X98877928Y-97510000D01*
X98877928Y-99210000D01*
X98890188Y-99334482D01*
X98926498Y-99454180D01*
X98954731Y-99507000D01*
X86027998Y-99507000D01*
X86061000Y-99341089D01*
X86061000Y-99156911D01*
X86025068Y-98976271D01*
X85954586Y-98806111D01*
X85886000Y-98703465D01*
X85886000Y-98143535D01*
X85954586Y-98040889D01*
X86025068Y-97870729D01*
X86061000Y-97690089D01*
X86061000Y-97505911D01*
X86025068Y-97325271D01*
X85954586Y-97155111D01*
X85852262Y-97001972D01*
X85722028Y-96871738D01*
X85568889Y-96769414D01*
X85398729Y-96698932D01*
X85218089Y-96663000D01*
X85033911Y-96663000D01*
X84853271Y-96698932D01*
X84683111Y-96769414D01*
X84529972Y-96871738D01*
X84399738Y-97001972D01*
X84297414Y-97155111D01*
X84226932Y-97325271D01*
X84191000Y-97505911D01*
X84191000Y-97690089D01*
X84226932Y-97870729D01*
X84297414Y-98040889D01*
X84366000Y-98143536D01*
X84366001Y-98703464D01*
X84297414Y-98806111D01*
X84226932Y-98976271D01*
X84191000Y-99156911D01*
X84191000Y-99341089D01*
X84224002Y-99507000D01*
X83460579Y-99507000D01*
X81941811Y-97988232D01*
X81899383Y-97774933D01*
X81813824Y-97568376D01*
X81693000Y-97387550D01*
X81693000Y-96558578D01*
X82412532Y-95839047D01*
X82412536Y-95839042D01*
X84719757Y-93531822D01*
X84755411Y-93617899D01*
X84857735Y-93771038D01*
X84987969Y-93901272D01*
X85141108Y-94003596D01*
X85311268Y-94074078D01*
X85344080Y-94080605D01*
X89588371Y-98324897D01*
X89613738Y-98355807D01*
X89681476Y-98411398D01*
X89737076Y-98457028D01*
X89806584Y-98494180D01*
X89877793Y-98532242D01*
X90030478Y-98578559D01*
X90149475Y-98590279D01*
X90149477Y-98590279D01*
X90189265Y-98594198D01*
X90229053Y-98590279D01*
X96233321Y-98590279D01*
X96261137Y-98608865D01*
X96431297Y-98679347D01*
X96611937Y-98715279D01*
X96796115Y-98715279D01*
X96976755Y-98679347D01*
X97146915Y-98608865D01*
X97186717Y-98582270D01*
X97227271Y-98599068D01*
X97407911Y-98635000D01*
X97592089Y-98635000D01*
X97772729Y-98599068D01*
X97942889Y-98528586D01*
X98096028Y-98426262D01*
X98226262Y-98296028D01*
X98328586Y-98142889D01*
X98399068Y-97972729D01*
X98435000Y-97792089D01*
X98435000Y-97607911D01*
X98399068Y-97427271D01*
X98328586Y-97257111D01*
X98309232Y-97228145D01*
X98298280Y-97116948D01*
X98251963Y-96964263D01*
X98251963Y-96964262D01*
X98176749Y-96823547D01*
X98158189Y-96800932D01*
X98075528Y-96700208D01*
X98044618Y-96674841D01*
X93953212Y-92583436D01*
X93927840Y-92552520D01*
X93804501Y-92451299D01*
X93736582Y-92414996D01*
X98108925Y-88042654D01*
X98142889Y-88028586D01*
X98296028Y-87926262D01*
X98426262Y-87796028D01*
X98528586Y-87642889D01*
X98599068Y-87472729D01*
X98635000Y-87292089D01*
X98635000Y-87107911D01*
X98599068Y-86927271D01*
X98528586Y-86757111D01*
X98426262Y-86603972D01*
X98296028Y-86473738D01*
X98142889Y-86371414D01*
X97972729Y-86300932D01*
X97792089Y-86265000D01*
X97607911Y-86265000D01*
X97427271Y-86300932D01*
X97257111Y-86371414D01*
X97103972Y-86473738D01*
X96973738Y-86603972D01*
X96871414Y-86757111D01*
X96857346Y-86791075D01*
X92155375Y-91493047D01*
X89583830Y-91493047D01*
X89585000Y-91487165D01*
X89585000Y-91398451D01*
X89619205Y-91384283D01*
X89764155Y-91287430D01*
X89887424Y-91164161D01*
X89984277Y-91019211D01*
X90050990Y-90858151D01*
X90085000Y-90687171D01*
X90085000Y-90512841D01*
X90050990Y-90341861D01*
X89984277Y-90180801D01*
X89967906Y-90156301D01*
X90020990Y-90028145D01*
X90055000Y-89857165D01*
X90055000Y-89682835D01*
X90035830Y-89586460D01*
X90126262Y-89496028D01*
X90228586Y-89342889D01*
X90299068Y-89172729D01*
X90335000Y-88992089D01*
X90335000Y-88807911D01*
X90299068Y-88627271D01*
X90228586Y-88457111D01*
X90160000Y-88354465D01*
X90160000Y-88212320D01*
X90163676Y-88174997D01*
X90160000Y-88137674D01*
X90160000Y-88137665D01*
X90149003Y-88026012D01*
X90105546Y-87882751D01*
X90034974Y-87750722D01*
X89940001Y-87634997D01*
X89911003Y-87611199D01*
X81363805Y-79064002D01*
X81340002Y-79034998D01*
X81224277Y-78940025D01*
X81092248Y-78869453D01*
X80948987Y-78825996D01*
X80837334Y-78814999D01*
X80837323Y-78814999D01*
X80800001Y-78811323D01*
X80762679Y-78814999D01*
X70017457Y-78814999D01*
X69858145Y-78749010D01*
X69687165Y-78715000D01*
X69512835Y-78715000D01*
X69341855Y-78749010D01*
X69180795Y-78815723D01*
X69035845Y-78912576D01*
X68912576Y-79035845D01*
X68815723Y-79180795D01*
X68749010Y-79341855D01*
X68715000Y-79512835D01*
X68715000Y-79687165D01*
X68749010Y-79858145D01*
X68815723Y-80019205D01*
X68912576Y-80164155D01*
X68950922Y-80202501D01*
X68935845Y-80212576D01*
X68812576Y-80335845D01*
X68715723Y-80480795D01*
X68649010Y-80641855D01*
X68615000Y-80812835D01*
X68615000Y-80987165D01*
X68649010Y-81158145D01*
X68715723Y-81319205D01*
X68812576Y-81464155D01*
X68935845Y-81587424D01*
X69080795Y-81684277D01*
X69241855Y-81750990D01*
X69412835Y-81785000D01*
X69587165Y-81785000D01*
X69758145Y-81750990D01*
X69919205Y-81684277D01*
X69955538Y-81660000D01*
X79985199Y-81660000D01*
X86065198Y-87740000D01*
X84529782Y-87740000D01*
X84599067Y-87572729D01*
X84634999Y-87392089D01*
X84634999Y-87207911D01*
X84599067Y-87027271D01*
X84528585Y-86857111D01*
X84426261Y-86703972D01*
X84296027Y-86573738D01*
X84142888Y-86471414D01*
X84108922Y-86457345D01*
X84056537Y-86404960D01*
X84056532Y-86404954D01*
X81156533Y-83504956D01*
X81128816Y-83471183D01*
X80994058Y-83360589D01*
X80840312Y-83278411D01*
X80673489Y-83227805D01*
X80543476Y-83215000D01*
X80543468Y-83215000D01*
X80499999Y-83210719D01*
X80456530Y-83215000D01*
X69706692Y-83215000D01*
X69672729Y-83200932D01*
X69492089Y-83165000D01*
X69307911Y-83165000D01*
X69127271Y-83200932D01*
X68957111Y-83271414D01*
X68803972Y-83373738D01*
X68673738Y-83503972D01*
X68571414Y-83657111D01*
X68500932Y-83827271D01*
X68465000Y-84007911D01*
X59333000Y-84007911D01*
X59333000Y-83999589D01*
X59279775Y-83732011D01*
X59175371Y-83479957D01*
X59023799Y-83253114D01*
X58830886Y-83060201D01*
X58604043Y-82908629D01*
X58351989Y-82804225D01*
X58084411Y-82751000D01*
X57811589Y-82751000D01*
X57544011Y-82804225D01*
X57291957Y-82908629D01*
X57065114Y-83060201D01*
X56872201Y-83253114D01*
X56862370Y-83267827D01*
X56861270Y-83265769D01*
X56691318Y-83058682D01*
X56484231Y-82888730D01*
X56247968Y-82762445D01*
X55991607Y-82684678D01*
X55791809Y-82665000D01*
X55428424Y-82665000D01*
X55395226Y-82498102D01*
X55317205Y-82309744D01*
X55203937Y-82140226D01*
X55059774Y-81996063D01*
X54890256Y-81882795D01*
X54701898Y-81804774D01*
X54501939Y-81765000D01*
X54298061Y-81765000D01*
X54098102Y-81804774D01*
X53909744Y-81882795D01*
X53740226Y-81996063D01*
X53596063Y-82140226D01*
X53482795Y-82309744D01*
X53404774Y-82498102D01*
X53365000Y-82698061D01*
X53365000Y-82901939D01*
X53404774Y-83101898D01*
X53482795Y-83290256D01*
X53532737Y-83365000D01*
X52875559Y-83365000D01*
X52834739Y-83315261D01*
X52650492Y-83164054D01*
X52440287Y-83051697D01*
X52212201Y-82982508D01*
X52034437Y-82965000D01*
X51265563Y-82965000D01*
X51087799Y-82982508D01*
X50958000Y-83021882D01*
X50958000Y-77578118D01*
X51087799Y-77617492D01*
X51265563Y-77635000D01*
X52034437Y-77635000D01*
X52212201Y-77617492D01*
X52440287Y-77548303D01*
X52650492Y-77435946D01*
X52834739Y-77284739D01*
X52875559Y-77235000D01*
X53532737Y-77235000D01*
X53482795Y-77309744D01*
X53404774Y-77498102D01*
X53365000Y-77698061D01*
X53365000Y-77901939D01*
X53404774Y-78101898D01*
X53482795Y-78290256D01*
X53596063Y-78459774D01*
X53740226Y-78603937D01*
X53909744Y-78717205D01*
X54098102Y-78795226D01*
X54298061Y-78835000D01*
X54501939Y-78835000D01*
X54701898Y-78795226D01*
X54890256Y-78717205D01*
X55059774Y-78603937D01*
X55203937Y-78459774D01*
X55317205Y-78290256D01*
X55395226Y-78101898D01*
X55428424Y-77935000D01*
X55791809Y-77935000D01*
X55991607Y-77915322D01*
X56247968Y-77837555D01*
X56484231Y-77711270D01*
X56691318Y-77541318D01*
X56861270Y-77334231D01*
X56987555Y-77097968D01*
X57065322Y-76841607D01*
X57082487Y-76667316D01*
X102703016Y-76667316D01*
X102758025Y-77177201D01*
X102911451Y-77666558D01*
X103130379Y-78076145D01*
X103493913Y-78288482D01*
X105139395Y-76643000D01*
X105498605Y-76643000D01*
X107144087Y-78288482D01*
X107507621Y-78076145D01*
X107745160Y-77621629D01*
X107889463Y-77129504D01*
X107934984Y-76618684D01*
X107879975Y-76108799D01*
X107726549Y-75619442D01*
X107507621Y-75209855D01*
X107144087Y-74997518D01*
X105498605Y-76643000D01*
X105139395Y-76643000D01*
X103493913Y-74997518D01*
X103130379Y-75209855D01*
X102892840Y-75664371D01*
X102748537Y-76156496D01*
X102703016Y-76667316D01*
X57082487Y-76667316D01*
X57091580Y-76575000D01*
X57065322Y-76308393D01*
X56987555Y-76052032D01*
X56861270Y-75815769D01*
X56691318Y-75608682D01*
X56484231Y-75438730D01*
X56247968Y-75312445D01*
X55991607Y-75234678D01*
X55791809Y-75215000D01*
X55108191Y-75215000D01*
X54908393Y-75234678D01*
X54652032Y-75312445D01*
X54415769Y-75438730D01*
X54208682Y-75608682D01*
X54203497Y-75615000D01*
X52875559Y-75615000D01*
X52834739Y-75565261D01*
X52650492Y-75414054D01*
X52440287Y-75301697D01*
X52212201Y-75232508D01*
X52034437Y-75215000D01*
X51265563Y-75215000D01*
X51087799Y-75232508D01*
X50958000Y-75271882D01*
X50958000Y-74817913D01*
X103673518Y-74817913D01*
X105319000Y-76463395D01*
X106964482Y-74817913D01*
X106752145Y-74454379D01*
X106297629Y-74216840D01*
X105805504Y-74072537D01*
X105294684Y-74027016D01*
X104784799Y-74082025D01*
X104295442Y-74235451D01*
X103885855Y-74454379D01*
X103673518Y-74817913D01*
X50958000Y-74817913D01*
X50958000Y-69363740D01*
X51025000Y-69363740D01*
X51025000Y-69656260D01*
X51082068Y-69943158D01*
X51194010Y-70213411D01*
X51356525Y-70456632D01*
X51563368Y-70663475D01*
X51737760Y-70780000D01*
X51563368Y-70896525D01*
X51356525Y-71103368D01*
X51194010Y-71346589D01*
X51082068Y-71616842D01*
X51025000Y-71903740D01*
X51025000Y-72196260D01*
X51082068Y-72483158D01*
X51194010Y-72753411D01*
X51356525Y-72996632D01*
X51563368Y-73203475D01*
X51806589Y-73365990D01*
X52076842Y-73477932D01*
X52363740Y-73535000D01*
X52656260Y-73535000D01*
X52943158Y-73477932D01*
X53213411Y-73365990D01*
X53456632Y-73203475D01*
X53588487Y-73071620D01*
X53610498Y-73144180D01*
X53669463Y-73254494D01*
X53748815Y-73351185D01*
X53845506Y-73430537D01*
X53955820Y-73489502D01*
X54075518Y-73525812D01*
X54200000Y-73538072D01*
X55900000Y-73538072D01*
X56024482Y-73525812D01*
X56144180Y-73489502D01*
X56254494Y-73430537D01*
X56351185Y-73351185D01*
X56430537Y-73254494D01*
X56489502Y-73144180D01*
X56525812Y-73024482D01*
X56538072Y-72900000D01*
X56538072Y-71200000D01*
X56525812Y-71075518D01*
X56489502Y-70955820D01*
X56430537Y-70845506D01*
X56351185Y-70748815D01*
X56254494Y-70669463D01*
X56144180Y-70610498D01*
X56071620Y-70588487D01*
X56203475Y-70456632D01*
X56270715Y-70356000D01*
X59467676Y-70356000D01*
X59504998Y-70359676D01*
X59542320Y-70356000D01*
X59542331Y-70356000D01*
X59653984Y-70345003D01*
X59797245Y-70301546D01*
X59929274Y-70230974D01*
X60008496Y-70165958D01*
X60024010Y-70203411D01*
X60186525Y-70446632D01*
X60393368Y-70653475D01*
X60567760Y-70770000D01*
X60393368Y-70886525D01*
X60186525Y-71093368D01*
X60024010Y-71336589D01*
X59912068Y-71606842D01*
X59855000Y-71893740D01*
X59855000Y-72186260D01*
X59912068Y-72473158D01*
X60024010Y-72743411D01*
X60186525Y-72986632D01*
X60393368Y-73193475D01*
X60636589Y-73355990D01*
X60906842Y-73467932D01*
X61193740Y-73525000D01*
X61486260Y-73525000D01*
X61773158Y-73467932D01*
X62043411Y-73355990D01*
X62286632Y-73193475D01*
X62493475Y-72986632D01*
X62610000Y-72812240D01*
X62726525Y-72986632D01*
X62933368Y-73193475D01*
X63176589Y-73355990D01*
X63446842Y-73467932D01*
X63733740Y-73525000D01*
X64026260Y-73525000D01*
X64313158Y-73467932D01*
X64583411Y-73355990D01*
X64826632Y-73193475D01*
X65033475Y-72986632D01*
X65155195Y-72804466D01*
X65224822Y-72921355D01*
X65419731Y-73137588D01*
X65653080Y-73311641D01*
X65915901Y-73436825D01*
X66063110Y-73481476D01*
X66293000Y-73360155D01*
X66293000Y-72167000D01*
X66273000Y-72167000D01*
X66273000Y-71913000D01*
X66293000Y-71913000D01*
X66293000Y-69627000D01*
X66273000Y-69627000D01*
X66273000Y-69373000D01*
X66293000Y-69373000D01*
X66293000Y-69353000D01*
X66547000Y-69353000D01*
X66547000Y-69373000D01*
X66567000Y-69373000D01*
X66567000Y-69627000D01*
X66547000Y-69627000D01*
X66547000Y-71913000D01*
X66567000Y-71913000D01*
X66567000Y-72167000D01*
X66547000Y-72167000D01*
X66547000Y-73360155D01*
X66776890Y-73481476D01*
X66924099Y-73436825D01*
X67186920Y-73311641D01*
X67420269Y-73137588D01*
X67615178Y-72921355D01*
X67684805Y-72804466D01*
X67806525Y-72986632D01*
X68013368Y-73193475D01*
X68256589Y-73355990D01*
X68526842Y-73467932D01*
X68813740Y-73525000D01*
X69106260Y-73525000D01*
X69211304Y-73504105D01*
X69818201Y-74111003D01*
X69841999Y-74140001D01*
X69870997Y-74163799D01*
X69957723Y-74234974D01*
X70035579Y-74276589D01*
X70089753Y-74305546D01*
X70233014Y-74349003D01*
X70344667Y-74360000D01*
X70344677Y-74360000D01*
X70382000Y-74363676D01*
X70419323Y-74360000D01*
X75154465Y-74360000D01*
X75257111Y-74428586D01*
X75427271Y-74499068D01*
X75607911Y-74535000D01*
X75792089Y-74535000D01*
X75972729Y-74499068D01*
X76142889Y-74428586D01*
X76296028Y-74326262D01*
X76426262Y-74196028D01*
X76528586Y-74042889D01*
X76599068Y-73872729D01*
X76635000Y-73692089D01*
X76635000Y-73507911D01*
X76599068Y-73327271D01*
X76528586Y-73157111D01*
X76426262Y-73003972D01*
X76296028Y-72873738D01*
X76198978Y-72808891D01*
X85716519Y-72808891D01*
X85813843Y-73083252D01*
X85962822Y-73333355D01*
X86157731Y-73549588D01*
X86391080Y-73723641D01*
X86653901Y-73848825D01*
X86801110Y-73893476D01*
X87031000Y-73772155D01*
X87031000Y-72579000D01*
X85837186Y-72579000D01*
X85716519Y-72808891D01*
X76198978Y-72808891D01*
X76142889Y-72771414D01*
X75972729Y-72700932D01*
X75792089Y-72665000D01*
X75607911Y-72665000D01*
X75427271Y-72700932D01*
X75257111Y-72771414D01*
X75154465Y-72840000D01*
X72751451Y-72840000D01*
X72815990Y-72743411D01*
X72927932Y-72473158D01*
X72985000Y-72186260D01*
X72985000Y-72095109D01*
X85716519Y-72095109D01*
X85837186Y-72325000D01*
X87031000Y-72325000D01*
X87031000Y-71131845D01*
X87285000Y-71131845D01*
X87285000Y-72325000D01*
X87305000Y-72325000D01*
X87305000Y-72579000D01*
X87285000Y-72579000D01*
X87285000Y-73772155D01*
X87514890Y-73893476D01*
X87662099Y-73848825D01*
X87924920Y-73723641D01*
X88158269Y-73549588D01*
X88353178Y-73333355D01*
X88422805Y-73216466D01*
X88544525Y-73398632D01*
X88751368Y-73605475D01*
X88994589Y-73767990D01*
X89264842Y-73879932D01*
X89551740Y-73937000D01*
X89844260Y-73937000D01*
X90131158Y-73879932D01*
X90401411Y-73767990D01*
X90644632Y-73605475D01*
X90776487Y-73473620D01*
X90798498Y-73546180D01*
X90857463Y-73656494D01*
X90936815Y-73753185D01*
X91033506Y-73832537D01*
X91143820Y-73891502D01*
X91263518Y-73927812D01*
X91388000Y-73940072D01*
X93088000Y-73940072D01*
X93212482Y-73927812D01*
X93332180Y-73891502D01*
X93442494Y-73832537D01*
X93539185Y-73753185D01*
X93618537Y-73656494D01*
X93677502Y-73546180D01*
X93713812Y-73426482D01*
X93726072Y-73302000D01*
X93726072Y-71602000D01*
X93713812Y-71477518D01*
X93677502Y-71357820D01*
X93618537Y-71247506D01*
X93539185Y-71150815D01*
X93442494Y-71071463D01*
X93332180Y-71012498D01*
X93212482Y-70976188D01*
X93088000Y-70963928D01*
X91388000Y-70963928D01*
X91263518Y-70976188D01*
X91143820Y-71012498D01*
X91033506Y-71071463D01*
X90936815Y-71150815D01*
X90857463Y-71247506D01*
X90798498Y-71357820D01*
X90776487Y-71430380D01*
X90644632Y-71298525D01*
X90401411Y-71136010D01*
X90131158Y-71024068D01*
X89844260Y-70967000D01*
X89551740Y-70967000D01*
X89264842Y-71024068D01*
X88994589Y-71136010D01*
X88751368Y-71298525D01*
X88544525Y-71505368D01*
X88422805Y-71687534D01*
X88353178Y-71570645D01*
X88158269Y-71354412D01*
X87924920Y-71180359D01*
X87662099Y-71055175D01*
X87514890Y-71010524D01*
X87285000Y-71131845D01*
X87031000Y-71131845D01*
X86801110Y-71010524D01*
X86653901Y-71055175D01*
X86391080Y-71180359D01*
X86157731Y-71354412D01*
X85962822Y-71570645D01*
X85813843Y-71820748D01*
X85716519Y-72095109D01*
X72985000Y-72095109D01*
X72985000Y-71893740D01*
X72927932Y-71606842D01*
X72867604Y-71461197D01*
X73001085Y-71327717D01*
X73034277Y-71309975D01*
X73150002Y-71215002D01*
X73173804Y-71185999D01*
X73711002Y-70648802D01*
X73740001Y-70625003D01*
X73834974Y-70509278D01*
X73905546Y-70377249D01*
X73949003Y-70233988D01*
X73960000Y-70122335D01*
X73963677Y-70085002D01*
X73960000Y-70047669D01*
X73960000Y-68952331D01*
X73963677Y-68914998D01*
X73955897Y-68836002D01*
X73949003Y-68766012D01*
X73905546Y-68622751D01*
X73834974Y-68490722D01*
X73740001Y-68374997D01*
X73711004Y-68351200D01*
X73405804Y-68046000D01*
X88209928Y-68046000D01*
X88209928Y-69746000D01*
X88222188Y-69870482D01*
X88258498Y-69990180D01*
X88317463Y-70100494D01*
X88396815Y-70197185D01*
X88493506Y-70276537D01*
X88603820Y-70335502D01*
X88723518Y-70371812D01*
X88848000Y-70384072D01*
X90548000Y-70384072D01*
X90672482Y-70371812D01*
X90792180Y-70335502D01*
X90902494Y-70276537D01*
X90999185Y-70197185D01*
X91078537Y-70100494D01*
X91137502Y-69990180D01*
X91173812Y-69870482D01*
X91186072Y-69746000D01*
X91186072Y-69050000D01*
X111411928Y-69050000D01*
X111411928Y-70750000D01*
X111424188Y-70874482D01*
X111460498Y-70994180D01*
X111519463Y-71104494D01*
X111598815Y-71201185D01*
X111695506Y-71280537D01*
X111805820Y-71339502D01*
X111878380Y-71361513D01*
X111746525Y-71493368D01*
X111584010Y-71736589D01*
X111472068Y-72006842D01*
X111415000Y-72293740D01*
X111415000Y-72586260D01*
X111472068Y-72873158D01*
X111584010Y-73143411D01*
X111746525Y-73386632D01*
X111953368Y-73593475D01*
X112127760Y-73710000D01*
X111953368Y-73826525D01*
X111746525Y-74033368D01*
X111584010Y-74276589D01*
X111472068Y-74546842D01*
X111415000Y-74833740D01*
X111415000Y-75126260D01*
X111472068Y-75413158D01*
X111584010Y-75683411D01*
X111746525Y-75926632D01*
X111953368Y-76133475D01*
X112196589Y-76295990D01*
X112466842Y-76407932D01*
X112753740Y-76465000D01*
X113046260Y-76465000D01*
X113333158Y-76407932D01*
X113603411Y-76295990D01*
X113846632Y-76133475D01*
X113865107Y-76115000D01*
X114133869Y-76115000D01*
X116663023Y-78644155D01*
X116610000Y-78910721D01*
X116610000Y-79331279D01*
X116692047Y-79743756D01*
X116852988Y-80132302D01*
X117086637Y-80481983D01*
X117384017Y-80779363D01*
X117733698Y-81013012D01*
X118122244Y-81173953D01*
X118534721Y-81256000D01*
X118955279Y-81256000D01*
X119367756Y-81173953D01*
X119756302Y-81013012D01*
X120105983Y-80779363D01*
X120403363Y-80481983D01*
X120637012Y-80132302D01*
X120797953Y-79743756D01*
X120880000Y-79331279D01*
X120880000Y-78910721D01*
X120797953Y-78498244D01*
X120637012Y-78109698D01*
X120403363Y-77760017D01*
X120105983Y-77462637D01*
X119756302Y-77228988D01*
X119367756Y-77068047D01*
X118955279Y-76986000D01*
X118534721Y-76986000D01*
X118268155Y-77039023D01*
X115317143Y-74088012D01*
X115187622Y-73981717D01*
X114990446Y-73876324D01*
X114776498Y-73811423D01*
X114554000Y-73789509D01*
X114331502Y-73811423D01*
X114220814Y-73845000D01*
X113865107Y-73845000D01*
X113846632Y-73826525D01*
X113672240Y-73710000D01*
X113846632Y-73593475D01*
X113865107Y-73575000D01*
X116660866Y-73575000D01*
X116610000Y-73830721D01*
X116610000Y-74251279D01*
X116692047Y-74663756D01*
X116852988Y-75052302D01*
X117086637Y-75401983D01*
X117384017Y-75699363D01*
X117733698Y-75933012D01*
X118122244Y-76093953D01*
X118534721Y-76176000D01*
X118955279Y-76176000D01*
X119367756Y-76093953D01*
X119756302Y-75933012D01*
X120105983Y-75699363D01*
X120403363Y-75401983D01*
X120637012Y-75052302D01*
X120797953Y-74663756D01*
X120880000Y-74251279D01*
X120880000Y-73830721D01*
X120797953Y-73418244D01*
X120637012Y-73029698D01*
X120403363Y-72680017D01*
X120105983Y-72382637D01*
X119756302Y-72148988D01*
X119367756Y-71988047D01*
X118955279Y-71906000D01*
X118534721Y-71906000D01*
X118268155Y-71959023D01*
X117985996Y-71676865D01*
X117950449Y-71633551D01*
X117777623Y-71491716D01*
X117580447Y-71386324D01*
X117366499Y-71321423D01*
X117199752Y-71305000D01*
X117199751Y-71305000D01*
X117144000Y-71299509D01*
X117088249Y-71305000D01*
X114058728Y-71305000D01*
X114104494Y-71280537D01*
X114201185Y-71201185D01*
X114280537Y-71104494D01*
X114317683Y-71035000D01*
X117861752Y-71035000D01*
X118028499Y-71018577D01*
X118089057Y-71000207D01*
X118122244Y-71013953D01*
X118534721Y-71096000D01*
X118955279Y-71096000D01*
X119367756Y-71013953D01*
X119756302Y-70853012D01*
X120105983Y-70619363D01*
X120403363Y-70321983D01*
X120637012Y-69972302D01*
X120797953Y-69583756D01*
X120880000Y-69171279D01*
X120880000Y-68750721D01*
X120797953Y-68338244D01*
X120637012Y-67949698D01*
X120403363Y-67600017D01*
X120105983Y-67302637D01*
X119756302Y-67068988D01*
X119367756Y-66908047D01*
X118955279Y-66826000D01*
X118534721Y-66826000D01*
X118122244Y-66908047D01*
X117733698Y-67068988D01*
X117384017Y-67302637D01*
X117086637Y-67600017D01*
X116852988Y-67949698D01*
X116692047Y-68338244D01*
X116610000Y-68750721D01*
X116610000Y-68765000D01*
X114317683Y-68765000D01*
X114280537Y-68695506D01*
X114201185Y-68598815D01*
X114104494Y-68519463D01*
X113994180Y-68460498D01*
X113874482Y-68424188D01*
X113750000Y-68411928D01*
X112050000Y-68411928D01*
X111925518Y-68424188D01*
X111805820Y-68460498D01*
X111695506Y-68519463D01*
X111598815Y-68598815D01*
X111519463Y-68695506D01*
X111460498Y-68805820D01*
X111424188Y-68925518D01*
X111411928Y-69050000D01*
X91186072Y-69050000D01*
X91186072Y-68046000D01*
X91173812Y-67921518D01*
X91137502Y-67801820D01*
X91078537Y-67691506D01*
X90999185Y-67594815D01*
X90902494Y-67515463D01*
X90792180Y-67456498D01*
X90672482Y-67420188D01*
X90548000Y-67407928D01*
X88848000Y-67407928D01*
X88723518Y-67420188D01*
X88603820Y-67456498D01*
X88493506Y-67515463D01*
X88396815Y-67594815D01*
X88317463Y-67691506D01*
X88258498Y-67801820D01*
X88222188Y-67921518D01*
X88209928Y-68046000D01*
X73405804Y-68046000D01*
X69898806Y-64539003D01*
X69875003Y-64509999D01*
X69759278Y-64415026D01*
X69627249Y-64344454D01*
X69483988Y-64300997D01*
X69372335Y-64290000D01*
X69372324Y-64290000D01*
X69335002Y-64286324D01*
X69297680Y-64290000D01*
X54687323Y-64290000D01*
X54650000Y-64286324D01*
X54612677Y-64290000D01*
X54612667Y-64290000D01*
X54501014Y-64300997D01*
X54357753Y-64344454D01*
X54225723Y-64415026D01*
X54142083Y-64483668D01*
X54109999Y-64509999D01*
X54086201Y-64538998D01*
X53363997Y-65261202D01*
X53334999Y-65285000D01*
X53311201Y-65313998D01*
X53311200Y-65313999D01*
X53240025Y-65400725D01*
X53169453Y-65532755D01*
X53154316Y-65582657D01*
X53141219Y-65625831D01*
X52866891Y-65528519D01*
X52637000Y-65649186D01*
X52637000Y-66843000D01*
X52657000Y-66843000D01*
X52657000Y-67097000D01*
X52637000Y-67097000D01*
X52637000Y-67117000D01*
X52383000Y-67117000D01*
X52383000Y-67097000D01*
X51189845Y-67097000D01*
X51068524Y-67326890D01*
X51113175Y-67474099D01*
X51238359Y-67736920D01*
X51412412Y-67970269D01*
X51628645Y-68165178D01*
X51745534Y-68234805D01*
X51563368Y-68356525D01*
X51356525Y-68563368D01*
X51194010Y-68806589D01*
X51082068Y-69076842D01*
X51025000Y-69363740D01*
X50958000Y-69363740D01*
X50958000Y-66613110D01*
X51068524Y-66613110D01*
X51189845Y-66843000D01*
X52383000Y-66843000D01*
X52383000Y-65649186D01*
X52153109Y-65528519D01*
X51878748Y-65625843D01*
X51628645Y-65774822D01*
X51412412Y-65969731D01*
X51238359Y-66203080D01*
X51113175Y-66465901D01*
X51068524Y-66613110D01*
X50958000Y-66613110D01*
X50958000Y-63228087D01*
X52873518Y-63228087D01*
X53085855Y-63591621D01*
X53540371Y-63829160D01*
X54032496Y-63973463D01*
X54543316Y-64018984D01*
X55053201Y-63963975D01*
X55542558Y-63810549D01*
X55952145Y-63591621D01*
X56164482Y-63228087D01*
X54519000Y-61582605D01*
X52873518Y-63228087D01*
X50958000Y-63228087D01*
X50958000Y-61427316D01*
X51903016Y-61427316D01*
X51958025Y-61937201D01*
X52111451Y-62426558D01*
X52330379Y-62836145D01*
X52693913Y-63048482D01*
X54339395Y-61403000D01*
X54698605Y-61403000D01*
X56344087Y-63048482D01*
X56707621Y-62836145D01*
X56945160Y-62381629D01*
X57089463Y-61889504D01*
X57134984Y-61378684D01*
X57079975Y-60868799D01*
X57066675Y-60826376D01*
X61758000Y-60826376D01*
X61758000Y-61979625D01*
X61778214Y-62184860D01*
X61858096Y-62448195D01*
X61987817Y-62690887D01*
X62162393Y-62903608D01*
X62375114Y-63078183D01*
X62617806Y-63207904D01*
X62881141Y-63287786D01*
X63155000Y-63314759D01*
X63428860Y-63287786D01*
X63692195Y-63207904D01*
X63934887Y-63078183D01*
X64147608Y-62903608D01*
X64322183Y-62690887D01*
X64426038Y-62496587D01*
X64452941Y-62562942D01*
X64603994Y-62792729D01*
X64796974Y-62988632D01*
X65024465Y-63143122D01*
X65277724Y-63250262D01*
X65351930Y-63265220D01*
X65568000Y-63142720D01*
X65568000Y-61530000D01*
X65548000Y-61530000D01*
X65548000Y-61276000D01*
X65568000Y-61276000D01*
X65568000Y-59663280D01*
X65822000Y-59663280D01*
X65822000Y-61276000D01*
X65842000Y-61276000D01*
X65842000Y-61530000D01*
X65822000Y-61530000D01*
X65822000Y-63142720D01*
X66038070Y-63265220D01*
X66112276Y-63250262D01*
X66365535Y-63143122D01*
X66593026Y-62988632D01*
X66786006Y-62792729D01*
X66937059Y-62562942D01*
X66963962Y-62496587D01*
X67067817Y-62690887D01*
X67242393Y-62903608D01*
X67455114Y-63078183D01*
X67697806Y-63207904D01*
X67961141Y-63287786D01*
X68235000Y-63314759D01*
X68508860Y-63287786D01*
X68772195Y-63207904D01*
X69014887Y-63078183D01*
X69227608Y-62903608D01*
X69402183Y-62690887D01*
X69505000Y-62498529D01*
X69607817Y-62690887D01*
X69782393Y-62903608D01*
X69995114Y-63078183D01*
X70237806Y-63207904D01*
X70501141Y-63287786D01*
X70775000Y-63314759D01*
X71048860Y-63287786D01*
X71312195Y-63207904D01*
X71554887Y-63078183D01*
X71767608Y-62903608D01*
X71942183Y-62690887D01*
X72045000Y-62498529D01*
X72147817Y-62690887D01*
X72322393Y-62903608D01*
X72535114Y-63078183D01*
X72777806Y-63207904D01*
X73041141Y-63287786D01*
X73315000Y-63314759D01*
X73588860Y-63287786D01*
X73852195Y-63207904D01*
X74094887Y-63078183D01*
X74307608Y-62903608D01*
X74482183Y-62690887D01*
X74585000Y-62498529D01*
X74687817Y-62690887D01*
X74862393Y-62903608D01*
X75075114Y-63078183D01*
X75317806Y-63207904D01*
X75581141Y-63287786D01*
X75855000Y-63314759D01*
X76128860Y-63287786D01*
X76392195Y-63207904D01*
X76634887Y-63078183D01*
X76847608Y-62903608D01*
X77022183Y-62690887D01*
X77125000Y-62498529D01*
X77227817Y-62690887D01*
X77402393Y-62903608D01*
X77615114Y-63078183D01*
X77857806Y-63207904D01*
X78121141Y-63287786D01*
X78395000Y-63314759D01*
X78668860Y-63287786D01*
X78932195Y-63207904D01*
X79174887Y-63078183D01*
X79387608Y-62903608D01*
X79562183Y-62690887D01*
X79665000Y-62498529D01*
X79767817Y-62690887D01*
X79942393Y-62903608D01*
X80155114Y-63078183D01*
X80397806Y-63207904D01*
X80661141Y-63287786D01*
X80935000Y-63314759D01*
X81208860Y-63287786D01*
X81472195Y-63207904D01*
X81714887Y-63078183D01*
X81927608Y-62903608D01*
X82102183Y-62690887D01*
X82231904Y-62448195D01*
X82311786Y-62184860D01*
X82332000Y-61979625D01*
X82332000Y-60826375D01*
X82311786Y-60621140D01*
X82231904Y-60357805D01*
X82102183Y-60115113D01*
X81927607Y-59902392D01*
X81714886Y-59727817D01*
X81472194Y-59598096D01*
X81208859Y-59518214D01*
X80935000Y-59491241D01*
X80661140Y-59518214D01*
X80397805Y-59598096D01*
X80155113Y-59727817D01*
X79942392Y-59902393D01*
X79767817Y-60115114D01*
X79665000Y-60307471D01*
X79562183Y-60115113D01*
X79387607Y-59902392D01*
X79174886Y-59727817D01*
X78932194Y-59598096D01*
X78668859Y-59518214D01*
X78395000Y-59491241D01*
X78121140Y-59518214D01*
X77857805Y-59598096D01*
X77615113Y-59727817D01*
X77402392Y-59902393D01*
X77227817Y-60115114D01*
X77125000Y-60307471D01*
X77022183Y-60115113D01*
X76847607Y-59902392D01*
X76634886Y-59727817D01*
X76392194Y-59598096D01*
X76128859Y-59518214D01*
X75855000Y-59491241D01*
X75581140Y-59518214D01*
X75317805Y-59598096D01*
X75075113Y-59727817D01*
X74862392Y-59902393D01*
X74687817Y-60115114D01*
X74585000Y-60307471D01*
X74482183Y-60115113D01*
X74307607Y-59902392D01*
X74094886Y-59727817D01*
X73852194Y-59598096D01*
X73588859Y-59518214D01*
X73315000Y-59491241D01*
X73041140Y-59518214D01*
X72777805Y-59598096D01*
X72535113Y-59727817D01*
X72322392Y-59902393D01*
X72147817Y-60115114D01*
X72045000Y-60307471D01*
X71942183Y-60115113D01*
X71767607Y-59902392D01*
X71554886Y-59727817D01*
X71312194Y-59598096D01*
X71048859Y-59518214D01*
X70775000Y-59491241D01*
X70501140Y-59518214D01*
X70237805Y-59598096D01*
X69995113Y-59727817D01*
X69782392Y-59902393D01*
X69607817Y-60115114D01*
X69505000Y-60307471D01*
X69402183Y-60115113D01*
X69227607Y-59902392D01*
X69014886Y-59727817D01*
X68772194Y-59598096D01*
X68508859Y-59518214D01*
X68235000Y-59491241D01*
X67961140Y-59518214D01*
X67697805Y-59598096D01*
X67455113Y-59727817D01*
X67242392Y-59902393D01*
X67067817Y-60115114D01*
X66963962Y-60309414D01*
X66937059Y-60243058D01*
X66786006Y-60013271D01*
X66593026Y-59817368D01*
X66365535Y-59662878D01*
X66112276Y-59555738D01*
X66038070Y-59540780D01*
X65822000Y-59663280D01*
X65568000Y-59663280D01*
X65351930Y-59540780D01*
X65277724Y-59555738D01*
X65024465Y-59662878D01*
X64796974Y-59817368D01*
X64603994Y-60013271D01*
X64452941Y-60243058D01*
X64426038Y-60309413D01*
X64322183Y-60115113D01*
X64147607Y-59902392D01*
X63934886Y-59727817D01*
X63692194Y-59598096D01*
X63428859Y-59518214D01*
X63155000Y-59491241D01*
X62881140Y-59518214D01*
X62617805Y-59598096D01*
X62375113Y-59727817D01*
X62162392Y-59902393D01*
X61987817Y-60115114D01*
X61858096Y-60357806D01*
X61778214Y-60621141D01*
X61758000Y-60826376D01*
X57066675Y-60826376D01*
X56926549Y-60379442D01*
X56707621Y-59969855D01*
X56344087Y-59757518D01*
X54698605Y-61403000D01*
X54339395Y-61403000D01*
X52693913Y-59757518D01*
X52330379Y-59969855D01*
X52092840Y-60424371D01*
X51948537Y-60916496D01*
X51903016Y-61427316D01*
X50958000Y-61427316D01*
X50958000Y-59577913D01*
X52873518Y-59577913D01*
X54519000Y-61223395D01*
X56164482Y-59577913D01*
X55952145Y-59214379D01*
X55497629Y-58976840D01*
X55005504Y-58832537D01*
X54494684Y-58787016D01*
X53984799Y-58842025D01*
X53495442Y-58995451D01*
X53085855Y-59214379D01*
X52873518Y-59577913D01*
X50958000Y-59577913D01*
X50958000Y-56427000D01*
X62392928Y-56427000D01*
X62392928Y-58127000D01*
X62405188Y-58251482D01*
X62441498Y-58371180D01*
X62500463Y-58481494D01*
X62579815Y-58578185D01*
X62676506Y-58657537D01*
X62786820Y-58716502D01*
X62906518Y-58752812D01*
X63031000Y-58765072D01*
X64731000Y-58765072D01*
X64855482Y-58752812D01*
X64975180Y-58716502D01*
X65085494Y-58657537D01*
X65182185Y-58578185D01*
X65261537Y-58481494D01*
X65320502Y-58371180D01*
X65344966Y-58290534D01*
X65420731Y-58374588D01*
X65654080Y-58548641D01*
X65916901Y-58673825D01*
X66064110Y-58718476D01*
X66294000Y-58597155D01*
X66294000Y-57404000D01*
X66274000Y-57404000D01*
X66274000Y-57150000D01*
X66294000Y-57150000D01*
X66294000Y-55956845D01*
X66548000Y-55956845D01*
X66548000Y-57150000D01*
X66568000Y-57150000D01*
X66568000Y-57404000D01*
X66548000Y-57404000D01*
X66548000Y-58597155D01*
X66777890Y-58718476D01*
X66925099Y-58673825D01*
X67187920Y-58548641D01*
X67421269Y-58374588D01*
X67616178Y-58158355D01*
X67685805Y-58041466D01*
X67807525Y-58223632D01*
X68014368Y-58430475D01*
X68257589Y-58592990D01*
X68527842Y-58704932D01*
X68814740Y-58762000D01*
X69107260Y-58762000D01*
X69394158Y-58704932D01*
X69664411Y-58592990D01*
X69907632Y-58430475D01*
X70114475Y-58223632D01*
X70231000Y-58049240D01*
X70347525Y-58223632D01*
X70554368Y-58430475D01*
X70797589Y-58592990D01*
X71067842Y-58704932D01*
X71354740Y-58762000D01*
X71647260Y-58762000D01*
X71934158Y-58704932D01*
X72204411Y-58592990D01*
X72447632Y-58430475D01*
X72654475Y-58223632D01*
X72771000Y-58049240D01*
X72887525Y-58223632D01*
X73094368Y-58430475D01*
X73337589Y-58592990D01*
X73607842Y-58704932D01*
X73894740Y-58762000D01*
X74187260Y-58762000D01*
X74474158Y-58704932D01*
X74744411Y-58592990D01*
X74987632Y-58430475D01*
X75194475Y-58223632D01*
X75311000Y-58049240D01*
X75427525Y-58223632D01*
X75634368Y-58430475D01*
X75877589Y-58592990D01*
X76147842Y-58704932D01*
X76434740Y-58762000D01*
X76727260Y-58762000D01*
X77014158Y-58704932D01*
X77284411Y-58592990D01*
X77527632Y-58430475D01*
X77734475Y-58223632D01*
X77851000Y-58049240D01*
X77967525Y-58223632D01*
X78174368Y-58430475D01*
X78417589Y-58592990D01*
X78687842Y-58704932D01*
X78974740Y-58762000D01*
X79267260Y-58762000D01*
X79554158Y-58704932D01*
X79824411Y-58592990D01*
X80067632Y-58430475D01*
X80274475Y-58223632D01*
X80391000Y-58049240D01*
X80507525Y-58223632D01*
X80714368Y-58430475D01*
X80957589Y-58592990D01*
X81227842Y-58704932D01*
X81514740Y-58762000D01*
X81807260Y-58762000D01*
X82094158Y-58704932D01*
X82364411Y-58592990D01*
X82607632Y-58430475D01*
X82739487Y-58298620D01*
X82761498Y-58371180D01*
X82820463Y-58481494D01*
X82899815Y-58578185D01*
X82996506Y-58657537D01*
X83106820Y-58716502D01*
X83226518Y-58752812D01*
X83351000Y-58765072D01*
X85051000Y-58765072D01*
X85175482Y-58752812D01*
X85295180Y-58716502D01*
X85405494Y-58657537D01*
X85502185Y-58578185D01*
X85581537Y-58481494D01*
X85640502Y-58371180D01*
X85662513Y-58298620D01*
X85794368Y-58430475D01*
X86006788Y-58572410D01*
X85079982Y-59499217D01*
X84999000Y-59491241D01*
X84725140Y-59518214D01*
X84461805Y-59598096D01*
X84219113Y-59727817D01*
X84006392Y-59902393D01*
X83831817Y-60115114D01*
X83702096Y-60357806D01*
X83622214Y-60621141D01*
X83602000Y-60826376D01*
X83602000Y-61979625D01*
X83622214Y-62184860D01*
X83702096Y-62448195D01*
X83831817Y-62690887D01*
X84006393Y-62903608D01*
X84219114Y-63078183D01*
X84461806Y-63207904D01*
X84725141Y-63287786D01*
X84999000Y-63314759D01*
X85272860Y-63287786D01*
X85536195Y-63207904D01*
X85778887Y-63078183D01*
X85991608Y-62903608D01*
X86166183Y-62690887D01*
X86269000Y-62498529D01*
X86371817Y-62690887D01*
X86546393Y-62903608D01*
X86759114Y-63078183D01*
X87001806Y-63207904D01*
X87265141Y-63287786D01*
X87539000Y-63314759D01*
X87812860Y-63287786D01*
X88076195Y-63207904D01*
X88318887Y-63078183D01*
X88531608Y-62903608D01*
X88706183Y-62690887D01*
X88809000Y-62498529D01*
X88911817Y-62690887D01*
X89086393Y-62903608D01*
X89299114Y-63078183D01*
X89541806Y-63207904D01*
X89805141Y-63287786D01*
X90079000Y-63314759D01*
X90352860Y-63287786D01*
X90616195Y-63207904D01*
X90858887Y-63078183D01*
X91071608Y-62903608D01*
X91246183Y-62690887D01*
X91349000Y-62498529D01*
X91451817Y-62690887D01*
X91626393Y-62903608D01*
X91839114Y-63078183D01*
X92081806Y-63207904D01*
X92345141Y-63287786D01*
X92619000Y-63314759D01*
X92892860Y-63287786D01*
X93156195Y-63207904D01*
X93398887Y-63078183D01*
X93611608Y-62903608D01*
X93786183Y-62690887D01*
X93889000Y-62498529D01*
X93991817Y-62690887D01*
X94166393Y-62903608D01*
X94379114Y-63078183D01*
X94621806Y-63207904D01*
X94885141Y-63287786D01*
X95159000Y-63314759D01*
X95432860Y-63287786D01*
X95696195Y-63207904D01*
X95938887Y-63078183D01*
X96151608Y-62903608D01*
X96326183Y-62690887D01*
X96429000Y-62498529D01*
X96531817Y-62690887D01*
X96706393Y-62903608D01*
X96919114Y-63078183D01*
X97161806Y-63207904D01*
X97425141Y-63287786D01*
X97699000Y-63314759D01*
X97972860Y-63287786D01*
X98236195Y-63207904D01*
X98478887Y-63078183D01*
X98691608Y-62903608D01*
X98866183Y-62690887D01*
X98969000Y-62498529D01*
X99071817Y-62690887D01*
X99246393Y-62903608D01*
X99459114Y-63078183D01*
X99701806Y-63207904D01*
X99965141Y-63287786D01*
X100239000Y-63314759D01*
X100512860Y-63287786D01*
X100776195Y-63207904D01*
X101018887Y-63078183D01*
X101231608Y-62903608D01*
X101406183Y-62690887D01*
X101509000Y-62498529D01*
X101611817Y-62690887D01*
X101786393Y-62903608D01*
X101999114Y-63078183D01*
X102241806Y-63207904D01*
X102505141Y-63287786D01*
X102779000Y-63314759D01*
X103052860Y-63287786D01*
X103316195Y-63207904D01*
X103558887Y-63078183D01*
X103771608Y-62903608D01*
X103946183Y-62690887D01*
X104075904Y-62448195D01*
X104155786Y-62184860D01*
X104176000Y-61979625D01*
X104176000Y-60828801D01*
X106023201Y-62676003D01*
X106046999Y-62705001D01*
X106075997Y-62728799D01*
X106162723Y-62799974D01*
X106230394Y-62836145D01*
X106294753Y-62870546D01*
X106438014Y-62914003D01*
X106549667Y-62925000D01*
X106549677Y-62925000D01*
X106587000Y-62928676D01*
X106624323Y-62925000D01*
X111377465Y-62925000D01*
X111480111Y-62993586D01*
X111650271Y-63064068D01*
X111830911Y-63100000D01*
X112015089Y-63100000D01*
X112195729Y-63064068D01*
X112365889Y-62993586D01*
X112519028Y-62891262D01*
X112649262Y-62761028D01*
X112751586Y-62607889D01*
X112822068Y-62437729D01*
X112858000Y-62257089D01*
X112858000Y-62072911D01*
X112822068Y-61892271D01*
X112751586Y-61722111D01*
X112649262Y-61568972D01*
X112519028Y-61438738D01*
X112365889Y-61336414D01*
X112195729Y-61265932D01*
X112015089Y-61230000D01*
X111830911Y-61230000D01*
X111650271Y-61265932D01*
X111480111Y-61336414D01*
X111377465Y-61405000D01*
X106901802Y-61405000D01*
X105692246Y-60195445D01*
X105790889Y-60154586D01*
X105944028Y-60052262D01*
X106074262Y-59922028D01*
X106176586Y-59768889D01*
X106247068Y-59598729D01*
X106283000Y-59418089D01*
X106283000Y-59233911D01*
X106247068Y-59053271D01*
X106176586Y-58883111D01*
X106074262Y-58729972D01*
X105944028Y-58599738D01*
X105790889Y-58497414D01*
X105620729Y-58426932D01*
X105499649Y-58402847D01*
X105211803Y-58115002D01*
X105188001Y-58085999D01*
X105072276Y-57991026D01*
X104940247Y-57920454D01*
X104796986Y-57876997D01*
X104685333Y-57866000D01*
X104685322Y-57866000D01*
X104648000Y-57862324D01*
X104610678Y-57866000D01*
X103344380Y-57866000D01*
X103408932Y-57710158D01*
X103466000Y-57423260D01*
X103466000Y-57130740D01*
X103408932Y-56843842D01*
X103296990Y-56573589D01*
X103134475Y-56330368D01*
X102927632Y-56123525D01*
X102684411Y-55961010D01*
X102414158Y-55849068D01*
X102127260Y-55792000D01*
X101834740Y-55792000D01*
X101547842Y-55849068D01*
X101277589Y-55961010D01*
X101034368Y-56123525D01*
X100827525Y-56330368D01*
X100711000Y-56504760D01*
X100594475Y-56330368D01*
X100387632Y-56123525D01*
X100144411Y-55961010D01*
X99874158Y-55849068D01*
X99587260Y-55792000D01*
X99294740Y-55792000D01*
X99007842Y-55849068D01*
X98737589Y-55961010D01*
X98494368Y-56123525D01*
X98287525Y-56330368D01*
X98171000Y-56504760D01*
X98054475Y-56330368D01*
X97847632Y-56123525D01*
X97604411Y-55961010D01*
X97334158Y-55849068D01*
X97047260Y-55792000D01*
X96754740Y-55792000D01*
X96467842Y-55849068D01*
X96197589Y-55961010D01*
X95954368Y-56123525D01*
X95747525Y-56330368D01*
X95631000Y-56504760D01*
X95514475Y-56330368D01*
X95307632Y-56123525D01*
X95064411Y-55961010D01*
X94794158Y-55849068D01*
X94507260Y-55792000D01*
X94214740Y-55792000D01*
X93927842Y-55849068D01*
X93657589Y-55961010D01*
X93414368Y-56123525D01*
X93207525Y-56330368D01*
X93091000Y-56504760D01*
X92974475Y-56330368D01*
X92767632Y-56123525D01*
X92524411Y-55961010D01*
X92254158Y-55849068D01*
X91967260Y-55792000D01*
X91674740Y-55792000D01*
X91387842Y-55849068D01*
X91117589Y-55961010D01*
X90874368Y-56123525D01*
X90667525Y-56330368D01*
X90551000Y-56504760D01*
X90434475Y-56330368D01*
X90227632Y-56123525D01*
X89984411Y-55961010D01*
X89714158Y-55849068D01*
X89427260Y-55792000D01*
X89134740Y-55792000D01*
X88847842Y-55849068D01*
X88577589Y-55961010D01*
X88334368Y-56123525D01*
X88127525Y-56330368D01*
X88011000Y-56504760D01*
X87894475Y-56330368D01*
X87687632Y-56123525D01*
X87444411Y-55961010D01*
X87174158Y-55849068D01*
X86887260Y-55792000D01*
X86594740Y-55792000D01*
X86307842Y-55849068D01*
X86037589Y-55961010D01*
X85794368Y-56123525D01*
X85662513Y-56255380D01*
X85640502Y-56182820D01*
X85581537Y-56072506D01*
X85502185Y-55975815D01*
X85405494Y-55896463D01*
X85295180Y-55837498D01*
X85175482Y-55801188D01*
X85051000Y-55788928D01*
X83351000Y-55788928D01*
X83226518Y-55801188D01*
X83106820Y-55837498D01*
X82996506Y-55896463D01*
X82899815Y-55975815D01*
X82820463Y-56072506D01*
X82761498Y-56182820D01*
X82739487Y-56255380D01*
X82607632Y-56123525D01*
X82364411Y-55961010D01*
X82094158Y-55849068D01*
X81807260Y-55792000D01*
X81514740Y-55792000D01*
X81227842Y-55849068D01*
X80957589Y-55961010D01*
X80714368Y-56123525D01*
X80507525Y-56330368D01*
X80391000Y-56504760D01*
X80274475Y-56330368D01*
X80067632Y-56123525D01*
X79824411Y-55961010D01*
X79554158Y-55849068D01*
X79267260Y-55792000D01*
X78974740Y-55792000D01*
X78687842Y-55849068D01*
X78417589Y-55961010D01*
X78174368Y-56123525D01*
X77967525Y-56330368D01*
X77851000Y-56504760D01*
X77734475Y-56330368D01*
X77527632Y-56123525D01*
X77284411Y-55961010D01*
X77014158Y-55849068D01*
X76727260Y-55792000D01*
X76434740Y-55792000D01*
X76147842Y-55849068D01*
X75877589Y-55961010D01*
X75634368Y-56123525D01*
X75427525Y-56330368D01*
X75311000Y-56504760D01*
X75194475Y-56330368D01*
X74987632Y-56123525D01*
X74744411Y-55961010D01*
X74474158Y-55849068D01*
X74187260Y-55792000D01*
X73894740Y-55792000D01*
X73607842Y-55849068D01*
X73337589Y-55961010D01*
X73094368Y-56123525D01*
X72887525Y-56330368D01*
X72771000Y-56504760D01*
X72654475Y-56330368D01*
X72447632Y-56123525D01*
X72204411Y-55961010D01*
X71934158Y-55849068D01*
X71647260Y-55792000D01*
X71354740Y-55792000D01*
X71067842Y-55849068D01*
X70797589Y-55961010D01*
X70554368Y-56123525D01*
X70347525Y-56330368D01*
X70231000Y-56504760D01*
X70114475Y-56330368D01*
X69907632Y-56123525D01*
X69664411Y-55961010D01*
X69394158Y-55849068D01*
X69107260Y-55792000D01*
X68814740Y-55792000D01*
X68527842Y-55849068D01*
X68257589Y-55961010D01*
X68014368Y-56123525D01*
X67807525Y-56330368D01*
X67685805Y-56512534D01*
X67616178Y-56395645D01*
X67421269Y-56179412D01*
X67187920Y-56005359D01*
X66925099Y-55880175D01*
X66777890Y-55835524D01*
X66548000Y-55956845D01*
X66294000Y-55956845D01*
X66064110Y-55835524D01*
X65916901Y-55880175D01*
X65654080Y-56005359D01*
X65420731Y-56179412D01*
X65344966Y-56263466D01*
X65320502Y-56182820D01*
X65261537Y-56072506D01*
X65182185Y-55975815D01*
X65085494Y-55896463D01*
X64975180Y-55837498D01*
X64855482Y-55801188D01*
X64731000Y-55788928D01*
X63031000Y-55788928D01*
X62906518Y-55801188D01*
X62786820Y-55837498D01*
X62676506Y-55896463D01*
X62579815Y-55975815D01*
X62500463Y-56072506D01*
X62441498Y-56182820D01*
X62405188Y-56302518D01*
X62392928Y-56427000D01*
X50958000Y-56427000D01*
X50958000Y-54710000D01*
X123290001Y-54710000D01*
X123290000Y-115290000D01*
G37*
%TD.AperFunction*%
D34*
X81788000Y-113030000D02*
X81808000Y-113030000D01*
X81808000Y-113284000D01*
X81788000Y-113284000D01*
X81788000Y-113304000D01*
X81534000Y-113304000D01*
X81534000Y-113284000D01*
X81514000Y-113284000D01*
X81514000Y-113030000D01*
X81534000Y-113030000D01*
X81534000Y-113010000D01*
X81788000Y-113010000D01*
X81788000Y-113030000D01*
%TA.AperFunction,Conductor*%
D35*
G36*
X81788000Y-113030000D02*
G01*
X81808000Y-113030000D01*
X81808000Y-113284000D01*
X81788000Y-113284000D01*
X81788000Y-113304000D01*
X81534000Y-113304000D01*
X81534000Y-113284000D01*
X81514000Y-113284000D01*
X81514000Y-113030000D01*
X81534000Y-113030000D01*
X81534000Y-113010000D01*
X81788000Y-113010000D01*
X81788000Y-113030000D01*
G37*
%TD.AperFunction*%
%TD*%
M02*
