G04 #@! TF.FileFunction,Paste,Top*
%FSLAX46Y46*%
G04 Gerber Fmt 4.6, Leading zero omitted, Abs format (unit mm)*
G04 Created by KiCad (PCBNEW 4.0.7) date 02/06/18 23:35:00*
%MOMM*%
%LPD*%
G01*
G04 APERTURE LIST*
%ADD10C,0.100000*%
%ADD11R,0.800000X0.600000*%
%ADD12R,1.500000X1.300000*%
%ADD13R,1.300000X1.500000*%
%ADD14R,0.800000X0.900000*%
%ADD15R,0.900000X0.800000*%
%ADD16R,1.143000X0.508000*%
%ADD17R,0.550000X1.600000*%
%ADD18R,1.600000X0.550000*%
%ADD19R,1.397000X0.431800*%
%ADD20R,1.200000X0.750000*%
%ADD21R,0.750000X1.200000*%
%ADD22R,1.300000X0.450000*%
%ADD23R,1.200000X0.900000*%
%ADD24R,0.900000X1.200000*%
G04 APERTURE END LIST*
D10*
D11*
X78900000Y-100600000D03*
X78900000Y-98900000D03*
D12*
X108850000Y-57000000D03*
X106150000Y-57000000D03*
D13*
X52070000Y-93425000D03*
X52070000Y-90725000D03*
D14*
X69650000Y-85400000D03*
X67750000Y-85400000D03*
X68700000Y-87400000D03*
D15*
X85200000Y-106100000D03*
X85200000Y-104200000D03*
X83200000Y-105150000D03*
D16*
X70550000Y-89660000D03*
X70550000Y-90930000D03*
X70550000Y-92200000D03*
X70550000Y-93470000D03*
X64200000Y-93470000D03*
X64200000Y-92200000D03*
X64200000Y-90930000D03*
X64200000Y-89660000D03*
D17*
X89287000Y-85920000D03*
X88487000Y-85920000D03*
X87687000Y-85920000D03*
X86887000Y-85920000D03*
X86087000Y-85920000D03*
X85287000Y-85920000D03*
X84487000Y-85920000D03*
X83687000Y-85920000D03*
D18*
X82237000Y-87370000D03*
X82237000Y-88170000D03*
X82237000Y-88970000D03*
X82237000Y-89770000D03*
X82237000Y-90570000D03*
X82237000Y-91370000D03*
X82237000Y-92170000D03*
X82237000Y-92970000D03*
D17*
X83687000Y-94420000D03*
X84487000Y-94420000D03*
X85287000Y-94420000D03*
X86087000Y-94420000D03*
X86887000Y-94420000D03*
X87687000Y-94420000D03*
X88487000Y-94420000D03*
X89287000Y-94420000D03*
D18*
X90737000Y-92970000D03*
X90737000Y-92170000D03*
X90737000Y-91370000D03*
X90737000Y-90570000D03*
X90737000Y-89770000D03*
X90737000Y-88970000D03*
X90737000Y-88170000D03*
X90737000Y-87370000D03*
D19*
X68453000Y-82829400D03*
X68453000Y-82194400D03*
X68453000Y-81534000D03*
X68453000Y-80899000D03*
X68453000Y-80238600D03*
X68453000Y-79590900D03*
X68453000Y-78943200D03*
X62865000Y-78943200D03*
X62865000Y-79590900D03*
X62865000Y-80238600D03*
X62865000Y-80899000D03*
X62865000Y-81546700D03*
X62865000Y-82194400D03*
X62865000Y-82842100D03*
D20*
X78850000Y-97600000D03*
X80750000Y-97600000D03*
D21*
X66800000Y-98200000D03*
X66800000Y-96300000D03*
D20*
X88800000Y-97500000D03*
X86900000Y-97500000D03*
X68650000Y-105500000D03*
X66750000Y-105500000D03*
D21*
X81100000Y-106200000D03*
X81100000Y-104300000D03*
X89400000Y-104200000D03*
X89400000Y-106100000D03*
D20*
X109300000Y-64300000D03*
X111200000Y-64300000D03*
X94600000Y-88600000D03*
X96500000Y-88600000D03*
X87500000Y-75300000D03*
X89400000Y-75300000D03*
X85300000Y-75300000D03*
X83400000Y-75300000D03*
D21*
X60100000Y-77100000D03*
X60100000Y-79000000D03*
D20*
X87698000Y-83826000D03*
X85798000Y-83826000D03*
X62098000Y-85926000D03*
X63998000Y-85926000D03*
X64000000Y-87400000D03*
X62100000Y-87400000D03*
X107100000Y-59400000D03*
X109000000Y-59400000D03*
X111150000Y-65950000D03*
X109250000Y-65950000D03*
D21*
X52070000Y-86934000D03*
X52070000Y-88834000D03*
X87400000Y-106100000D03*
X87400000Y-104200000D03*
X78900000Y-104100000D03*
X78900000Y-102200000D03*
D20*
X96500000Y-90100000D03*
X94600000Y-90100000D03*
D21*
X65600000Y-111250000D03*
X65600000Y-113150000D03*
D15*
X66800000Y-100400000D03*
X66800000Y-102300000D03*
X68800000Y-101350000D03*
D22*
X55500000Y-79000000D03*
X55500000Y-79650000D03*
X55500000Y-80300000D03*
X55500000Y-80950000D03*
X55500000Y-81600000D03*
D23*
X83000000Y-102100000D03*
X80800000Y-102100000D03*
D24*
X84700000Y-97400000D03*
X84700000Y-99600000D03*
X82600000Y-97400000D03*
X82600000Y-99600000D03*
D20*
X87700000Y-102100000D03*
X89600000Y-102100000D03*
X89400000Y-70650000D03*
X91300000Y-70650000D03*
M02*
