%TF.GenerationSoftware,KiCad,Pcbnew,(5.1.7)-1*%
%TF.CreationDate,2020-10-17T19:17:14+02:00*%
%TF.ProjectId,Atmega_328_breakout,41746d65-6761-45f3-9332-385f62726561,rev?*%
%TF.SameCoordinates,Original*%
%TF.FileFunction,Paste,Top*%
%TF.FilePolarity,Positive*%
%FSLAX46Y46*%
G04 Gerber Fmt 4.6, Leading zero omitted, Abs format (unit mm)*
G04 Created by KiCad (PCBNEW (5.1.7)-1) date 2020-10-17 19:17:14*
%MOMM*%
%LPD*%
G01*
G04 APERTURE LIST*
%ADD10R,0.900000X0.800000*%
%ADD11R,1.600000X0.550000*%
%ADD12R,0.550000X1.600000*%
%ADD13R,0.800000X0.900000*%
%ADD14R,1.300000X0.450000*%
G04 APERTURE END LIST*
%TO.C,U3*%
G36*
G01*
X69120000Y-89695000D02*
X69120000Y-89395000D01*
G75*
G02*
X69270000Y-89245000I150000J0D01*
G01*
X70920000Y-89245000D01*
G75*
G02*
X71070000Y-89395000I0J-150000D01*
G01*
X71070000Y-89695000D01*
G75*
G02*
X70920000Y-89845000I-150000J0D01*
G01*
X69270000Y-89845000D01*
G75*
G02*
X69120000Y-89695000I0J150000D01*
G01*
G37*
G36*
G01*
X69120000Y-90965000D02*
X69120000Y-90665000D01*
G75*
G02*
X69270000Y-90515000I150000J0D01*
G01*
X70920000Y-90515000D01*
G75*
G02*
X71070000Y-90665000I0J-150000D01*
G01*
X71070000Y-90965000D01*
G75*
G02*
X70920000Y-91115000I-150000J0D01*
G01*
X69270000Y-91115000D01*
G75*
G02*
X69120000Y-90965000I0J150000D01*
G01*
G37*
G36*
G01*
X69120000Y-92235000D02*
X69120000Y-91935000D01*
G75*
G02*
X69270000Y-91785000I150000J0D01*
G01*
X70920000Y-91785000D01*
G75*
G02*
X71070000Y-91935000I0J-150000D01*
G01*
X71070000Y-92235000D01*
G75*
G02*
X70920000Y-92385000I-150000J0D01*
G01*
X69270000Y-92385000D01*
G75*
G02*
X69120000Y-92235000I0J150000D01*
G01*
G37*
G36*
G01*
X69120000Y-93505000D02*
X69120000Y-93205000D01*
G75*
G02*
X69270000Y-93055000I150000J0D01*
G01*
X70920000Y-93055000D01*
G75*
G02*
X71070000Y-93205000I0J-150000D01*
G01*
X71070000Y-93505000D01*
G75*
G02*
X70920000Y-93655000I-150000J0D01*
G01*
X69270000Y-93655000D01*
G75*
G02*
X69120000Y-93505000I0J150000D01*
G01*
G37*
G36*
G01*
X64170000Y-93505000D02*
X64170000Y-93205000D01*
G75*
G02*
X64320000Y-93055000I150000J0D01*
G01*
X65970000Y-93055000D01*
G75*
G02*
X66120000Y-93205000I0J-150000D01*
G01*
X66120000Y-93505000D01*
G75*
G02*
X65970000Y-93655000I-150000J0D01*
G01*
X64320000Y-93655000D01*
G75*
G02*
X64170000Y-93505000I0J150000D01*
G01*
G37*
G36*
G01*
X64170000Y-92235000D02*
X64170000Y-91935000D01*
G75*
G02*
X64320000Y-91785000I150000J0D01*
G01*
X65970000Y-91785000D01*
G75*
G02*
X66120000Y-91935000I0J-150000D01*
G01*
X66120000Y-92235000D01*
G75*
G02*
X65970000Y-92385000I-150000J0D01*
G01*
X64320000Y-92385000D01*
G75*
G02*
X64170000Y-92235000I0J150000D01*
G01*
G37*
G36*
G01*
X64170000Y-90965000D02*
X64170000Y-90665000D01*
G75*
G02*
X64320000Y-90515000I150000J0D01*
G01*
X65970000Y-90515000D01*
G75*
G02*
X66120000Y-90665000I0J-150000D01*
G01*
X66120000Y-90965000D01*
G75*
G02*
X65970000Y-91115000I-150000J0D01*
G01*
X64320000Y-91115000D01*
G75*
G02*
X64170000Y-90965000I0J150000D01*
G01*
G37*
G36*
G01*
X64170000Y-89695000D02*
X64170000Y-89395000D01*
G75*
G02*
X64320000Y-89245000I150000J0D01*
G01*
X65970000Y-89245000D01*
G75*
G02*
X66120000Y-89395000I0J-150000D01*
G01*
X66120000Y-89695000D01*
G75*
G02*
X65970000Y-89845000I-150000J0D01*
G01*
X64320000Y-89845000D01*
G75*
G02*
X64170000Y-89695000I0J150000D01*
G01*
G37*
%TD*%
%TO.C,U6*%
G36*
G01*
X63375000Y-82700000D02*
X63375000Y-82900000D01*
G75*
G02*
X63275000Y-83000000I-100000J0D01*
G01*
X62000000Y-83000000D01*
G75*
G02*
X61900000Y-82900000I0J100000D01*
G01*
X61900000Y-82700000D01*
G75*
G02*
X62000000Y-82600000I100000J0D01*
G01*
X63275000Y-82600000D01*
G75*
G02*
X63375000Y-82700000I0J-100000D01*
G01*
G37*
G36*
G01*
X63375000Y-82050000D02*
X63375000Y-82250000D01*
G75*
G02*
X63275000Y-82350000I-100000J0D01*
G01*
X62000000Y-82350000D01*
G75*
G02*
X61900000Y-82250000I0J100000D01*
G01*
X61900000Y-82050000D01*
G75*
G02*
X62000000Y-81950000I100000J0D01*
G01*
X63275000Y-81950000D01*
G75*
G02*
X63375000Y-82050000I0J-100000D01*
G01*
G37*
G36*
G01*
X63375000Y-81400000D02*
X63375000Y-81600000D01*
G75*
G02*
X63275000Y-81700000I-100000J0D01*
G01*
X62000000Y-81700000D01*
G75*
G02*
X61900000Y-81600000I0J100000D01*
G01*
X61900000Y-81400000D01*
G75*
G02*
X62000000Y-81300000I100000J0D01*
G01*
X63275000Y-81300000D01*
G75*
G02*
X63375000Y-81400000I0J-100000D01*
G01*
G37*
G36*
G01*
X63375000Y-80750000D02*
X63375000Y-80950000D01*
G75*
G02*
X63275000Y-81050000I-100000J0D01*
G01*
X62000000Y-81050000D01*
G75*
G02*
X61900000Y-80950000I0J100000D01*
G01*
X61900000Y-80750000D01*
G75*
G02*
X62000000Y-80650000I100000J0D01*
G01*
X63275000Y-80650000D01*
G75*
G02*
X63375000Y-80750000I0J-100000D01*
G01*
G37*
G36*
G01*
X63375000Y-80100000D02*
X63375000Y-80300000D01*
G75*
G02*
X63275000Y-80400000I-100000J0D01*
G01*
X62000000Y-80400000D01*
G75*
G02*
X61900000Y-80300000I0J100000D01*
G01*
X61900000Y-80100000D01*
G75*
G02*
X62000000Y-80000000I100000J0D01*
G01*
X63275000Y-80000000D01*
G75*
G02*
X63375000Y-80100000I0J-100000D01*
G01*
G37*
G36*
G01*
X63375000Y-79450000D02*
X63375000Y-79650000D01*
G75*
G02*
X63275000Y-79750000I-100000J0D01*
G01*
X62000000Y-79750000D01*
G75*
G02*
X61900000Y-79650000I0J100000D01*
G01*
X61900000Y-79450000D01*
G75*
G02*
X62000000Y-79350000I100000J0D01*
G01*
X63275000Y-79350000D01*
G75*
G02*
X63375000Y-79450000I0J-100000D01*
G01*
G37*
G36*
G01*
X63375000Y-78800000D02*
X63375000Y-79000000D01*
G75*
G02*
X63275000Y-79100000I-100000J0D01*
G01*
X62000000Y-79100000D01*
G75*
G02*
X61900000Y-79000000I0J100000D01*
G01*
X61900000Y-78800000D01*
G75*
G02*
X62000000Y-78700000I100000J0D01*
G01*
X63275000Y-78700000D01*
G75*
G02*
X63375000Y-78800000I0J-100000D01*
G01*
G37*
G36*
G01*
X69100000Y-78800000D02*
X69100000Y-79000000D01*
G75*
G02*
X69000000Y-79100000I-100000J0D01*
G01*
X67725000Y-79100000D01*
G75*
G02*
X67625000Y-79000000I0J100000D01*
G01*
X67625000Y-78800000D01*
G75*
G02*
X67725000Y-78700000I100000J0D01*
G01*
X69000000Y-78700000D01*
G75*
G02*
X69100000Y-78800000I0J-100000D01*
G01*
G37*
G36*
G01*
X69100000Y-79450000D02*
X69100000Y-79650000D01*
G75*
G02*
X69000000Y-79750000I-100000J0D01*
G01*
X67725000Y-79750000D01*
G75*
G02*
X67625000Y-79650000I0J100000D01*
G01*
X67625000Y-79450000D01*
G75*
G02*
X67725000Y-79350000I100000J0D01*
G01*
X69000000Y-79350000D01*
G75*
G02*
X69100000Y-79450000I0J-100000D01*
G01*
G37*
G36*
G01*
X69100000Y-80100000D02*
X69100000Y-80300000D01*
G75*
G02*
X69000000Y-80400000I-100000J0D01*
G01*
X67725000Y-80400000D01*
G75*
G02*
X67625000Y-80300000I0J100000D01*
G01*
X67625000Y-80100000D01*
G75*
G02*
X67725000Y-80000000I100000J0D01*
G01*
X69000000Y-80000000D01*
G75*
G02*
X69100000Y-80100000I0J-100000D01*
G01*
G37*
G36*
G01*
X69100000Y-80750000D02*
X69100000Y-80950000D01*
G75*
G02*
X69000000Y-81050000I-100000J0D01*
G01*
X67725000Y-81050000D01*
G75*
G02*
X67625000Y-80950000I0J100000D01*
G01*
X67625000Y-80750000D01*
G75*
G02*
X67725000Y-80650000I100000J0D01*
G01*
X69000000Y-80650000D01*
G75*
G02*
X69100000Y-80750000I0J-100000D01*
G01*
G37*
G36*
G01*
X69100000Y-81400000D02*
X69100000Y-81600000D01*
G75*
G02*
X69000000Y-81700000I-100000J0D01*
G01*
X67725000Y-81700000D01*
G75*
G02*
X67625000Y-81600000I0J100000D01*
G01*
X67625000Y-81400000D01*
G75*
G02*
X67725000Y-81300000I100000J0D01*
G01*
X69000000Y-81300000D01*
G75*
G02*
X69100000Y-81400000I0J-100000D01*
G01*
G37*
G36*
G01*
X69100000Y-82050000D02*
X69100000Y-82250000D01*
G75*
G02*
X69000000Y-82350000I-100000J0D01*
G01*
X67725000Y-82350000D01*
G75*
G02*
X67625000Y-82250000I0J100000D01*
G01*
X67625000Y-82050000D01*
G75*
G02*
X67725000Y-81950000I100000J0D01*
G01*
X69000000Y-81950000D01*
G75*
G02*
X69100000Y-82050000I0J-100000D01*
G01*
G37*
G36*
G01*
X69100000Y-82700000D02*
X69100000Y-82900000D01*
G75*
G02*
X69000000Y-83000000I-100000J0D01*
G01*
X67725000Y-83000000D01*
G75*
G02*
X67625000Y-82900000I0J100000D01*
G01*
X67625000Y-82700000D01*
G75*
G02*
X67725000Y-82600000I100000J0D01*
G01*
X69000000Y-82600000D01*
G75*
G02*
X69100000Y-82700000I0J-100000D01*
G01*
G37*
%TD*%
D10*
%TO.C,U5*%
X83200000Y-105150000D03*
X85200000Y-104200000D03*
X85200000Y-106100000D03*
%TD*%
D11*
%TO.C,U4*%
X90737000Y-87370000D03*
X90737000Y-88170000D03*
X90737000Y-88970000D03*
X90737000Y-89770000D03*
X90737000Y-90570000D03*
X90737000Y-91370000D03*
X90737000Y-92170000D03*
X90737000Y-92970000D03*
D12*
X89287000Y-94420000D03*
X88487000Y-94420000D03*
X87687000Y-94420000D03*
X86887000Y-94420000D03*
X86087000Y-94420000D03*
X85287000Y-94420000D03*
X84487000Y-94420000D03*
X83687000Y-94420000D03*
D11*
X82237000Y-92970000D03*
X82237000Y-92170000D03*
X82237000Y-91370000D03*
X82237000Y-90570000D03*
X82237000Y-89770000D03*
X82237000Y-88970000D03*
X82237000Y-88170000D03*
X82237000Y-87370000D03*
D12*
X83687000Y-85920000D03*
X84487000Y-85920000D03*
X85287000Y-85920000D03*
X86087000Y-85920000D03*
X86887000Y-85920000D03*
X87687000Y-85920000D03*
X88487000Y-85920000D03*
X89287000Y-85920000D03*
%TD*%
D10*
%TO.C,U1*%
X68800000Y-101350000D03*
X66800000Y-102300000D03*
X66800000Y-100400000D03*
%TD*%
D13*
%TO.C,Q1*%
X68700000Y-87400000D03*
X67750000Y-85400000D03*
X69650000Y-85400000D03*
%TD*%
%TO.C,L3*%
G36*
G01*
X82362500Y-98850000D02*
X82837500Y-98850000D01*
G75*
G02*
X83075000Y-99087500I0J-237500D01*
G01*
X83075000Y-99662500D01*
G75*
G02*
X82837500Y-99900000I-237500J0D01*
G01*
X82362500Y-99900000D01*
G75*
G02*
X82125000Y-99662500I0J237500D01*
G01*
X82125000Y-99087500D01*
G75*
G02*
X82362500Y-98850000I237500J0D01*
G01*
G37*
G36*
G01*
X82362500Y-97100000D02*
X82837500Y-97100000D01*
G75*
G02*
X83075000Y-97337500I0J-237500D01*
G01*
X83075000Y-97912500D01*
G75*
G02*
X82837500Y-98150000I-237500J0D01*
G01*
X82362500Y-98150000D01*
G75*
G02*
X82125000Y-97912500I0J237500D01*
G01*
X82125000Y-97337500D01*
G75*
G02*
X82362500Y-97100000I237500J0D01*
G01*
G37*
%TD*%
%TO.C,L2*%
G36*
G01*
X84462500Y-98850000D02*
X84937500Y-98850000D01*
G75*
G02*
X85175000Y-99087500I0J-237500D01*
G01*
X85175000Y-99662500D01*
G75*
G02*
X84937500Y-99900000I-237500J0D01*
G01*
X84462500Y-99900000D01*
G75*
G02*
X84225000Y-99662500I0J237500D01*
G01*
X84225000Y-99087500D01*
G75*
G02*
X84462500Y-98850000I237500J0D01*
G01*
G37*
G36*
G01*
X84462500Y-97100000D02*
X84937500Y-97100000D01*
G75*
G02*
X85175000Y-97337500I0J-237500D01*
G01*
X85175000Y-97912500D01*
G75*
G02*
X84937500Y-98150000I-237500J0D01*
G01*
X84462500Y-98150000D01*
G75*
G02*
X84225000Y-97912500I0J237500D01*
G01*
X84225000Y-97337500D01*
G75*
G02*
X84462500Y-97100000I237500J0D01*
G01*
G37*
%TD*%
%TO.C,L1*%
G36*
G01*
X81550000Y-101862500D02*
X81550000Y-102337500D01*
G75*
G02*
X81312500Y-102575000I-237500J0D01*
G01*
X80737500Y-102575000D01*
G75*
G02*
X80500000Y-102337500I0J237500D01*
G01*
X80500000Y-101862500D01*
G75*
G02*
X80737500Y-101625000I237500J0D01*
G01*
X81312500Y-101625000D01*
G75*
G02*
X81550000Y-101862500I0J-237500D01*
G01*
G37*
G36*
G01*
X83300000Y-101862500D02*
X83300000Y-102337500D01*
G75*
G02*
X83062500Y-102575000I-237500J0D01*
G01*
X82487500Y-102575000D01*
G75*
G02*
X82250000Y-102337500I0J237500D01*
G01*
X82250000Y-101862500D01*
G75*
G02*
X82487500Y-101625000I237500J0D01*
G01*
X83062500Y-101625000D01*
G75*
G02*
X83300000Y-101862500I0J-237500D01*
G01*
G37*
%TD*%
D14*
%TO.C,J28*%
X55500000Y-81600000D03*
X55500000Y-80950000D03*
X55500000Y-80300000D03*
X55500000Y-79650000D03*
X55500000Y-79000000D03*
%TD*%
%TO.C,D4*%
G36*
G01*
X107050000Y-56549999D02*
X107050000Y-57450001D01*
G75*
G02*
X106800001Y-57700000I-249999J0D01*
G01*
X106149999Y-57700000D01*
G75*
G02*
X105900000Y-57450001I0J249999D01*
G01*
X105900000Y-56549999D01*
G75*
G02*
X106149999Y-56300000I249999J0D01*
G01*
X106800001Y-56300000D01*
G75*
G02*
X107050000Y-56549999I0J-249999D01*
G01*
G37*
G36*
G01*
X109100000Y-56549999D02*
X109100000Y-57450001D01*
G75*
G02*
X108850001Y-57700000I-249999J0D01*
G01*
X108199999Y-57700000D01*
G75*
G02*
X107950000Y-57450001I0J249999D01*
G01*
X107950000Y-56549999D01*
G75*
G02*
X108199999Y-56300000I249999J0D01*
G01*
X108850001Y-56300000D01*
G75*
G02*
X109100000Y-56549999I0J-249999D01*
G01*
G37*
%TD*%
%TO.C,D3*%
G36*
G01*
X52520001Y-91625000D02*
X51619999Y-91625000D01*
G75*
G02*
X51370000Y-91375001I0J249999D01*
G01*
X51370000Y-90724999D01*
G75*
G02*
X51619999Y-90475000I249999J0D01*
G01*
X52520001Y-90475000D01*
G75*
G02*
X52770000Y-90724999I0J-249999D01*
G01*
X52770000Y-91375001D01*
G75*
G02*
X52520001Y-91625000I-249999J0D01*
G01*
G37*
G36*
G01*
X52520001Y-93675000D02*
X51619999Y-93675000D01*
G75*
G02*
X51370000Y-93425001I0J249999D01*
G01*
X51370000Y-92774999D01*
G75*
G02*
X51619999Y-92525000I249999J0D01*
G01*
X52520001Y-92525000D01*
G75*
G02*
X52770000Y-92774999I0J-249999D01*
G01*
X52770000Y-93425001D01*
G75*
G02*
X52520001Y-93675000I-249999J0D01*
G01*
G37*
%TD*%
%TO.C,D2*%
G36*
G01*
X79156250Y-99400000D02*
X78643750Y-99400000D01*
G75*
G02*
X78425000Y-99181250I0J218750D01*
G01*
X78425000Y-98743750D01*
G75*
G02*
X78643750Y-98525000I218750J0D01*
G01*
X79156250Y-98525000D01*
G75*
G02*
X79375000Y-98743750I0J-218750D01*
G01*
X79375000Y-99181250D01*
G75*
G02*
X79156250Y-99400000I-218750J0D01*
G01*
G37*
G36*
G01*
X79156250Y-100975000D02*
X78643750Y-100975000D01*
G75*
G02*
X78425000Y-100756250I0J218750D01*
G01*
X78425000Y-100318750D01*
G75*
G02*
X78643750Y-100100000I218750J0D01*
G01*
X79156250Y-100100000D01*
G75*
G02*
X79375000Y-100318750I0J-218750D01*
G01*
X79375000Y-100756250D01*
G75*
G02*
X79156250Y-100975000I-218750J0D01*
G01*
G37*
%TD*%
%TO.C,C14*%
G36*
G01*
X59862500Y-78375000D02*
X60337500Y-78375000D01*
G75*
G02*
X60575000Y-78612500I0J-237500D01*
G01*
X60575000Y-79212500D01*
G75*
G02*
X60337500Y-79450000I-237500J0D01*
G01*
X59862500Y-79450000D01*
G75*
G02*
X59625000Y-79212500I0J237500D01*
G01*
X59625000Y-78612500D01*
G75*
G02*
X59862500Y-78375000I237500J0D01*
G01*
G37*
G36*
G01*
X59862500Y-76650000D02*
X60337500Y-76650000D01*
G75*
G02*
X60575000Y-76887500I0J-237500D01*
G01*
X60575000Y-77487500D01*
G75*
G02*
X60337500Y-77725000I-237500J0D01*
G01*
X59862500Y-77725000D01*
G75*
G02*
X59625000Y-77487500I0J237500D01*
G01*
X59625000Y-76887500D01*
G75*
G02*
X59862500Y-76650000I237500J0D01*
G01*
G37*
%TD*%
%TO.C,C13*%
G36*
G01*
X110575000Y-64537500D02*
X110575000Y-64062500D01*
G75*
G02*
X110812500Y-63825000I237500J0D01*
G01*
X111412500Y-63825000D01*
G75*
G02*
X111650000Y-64062500I0J-237500D01*
G01*
X111650000Y-64537500D01*
G75*
G02*
X111412500Y-64775000I-237500J0D01*
G01*
X110812500Y-64775000D01*
G75*
G02*
X110575000Y-64537500I0J237500D01*
G01*
G37*
G36*
G01*
X108850000Y-64537500D02*
X108850000Y-64062500D01*
G75*
G02*
X109087500Y-63825000I237500J0D01*
G01*
X109687500Y-63825000D01*
G75*
G02*
X109925000Y-64062500I0J-237500D01*
G01*
X109925000Y-64537500D01*
G75*
G02*
X109687500Y-64775000I-237500J0D01*
G01*
X109087500Y-64775000D01*
G75*
G02*
X108850000Y-64537500I0J237500D01*
G01*
G37*
%TD*%
%TO.C,C12*%
G36*
G01*
X84025000Y-75062500D02*
X84025000Y-75537500D01*
G75*
G02*
X83787500Y-75775000I-237500J0D01*
G01*
X83187500Y-75775000D01*
G75*
G02*
X82950000Y-75537500I0J237500D01*
G01*
X82950000Y-75062500D01*
G75*
G02*
X83187500Y-74825000I237500J0D01*
G01*
X83787500Y-74825000D01*
G75*
G02*
X84025000Y-75062500I0J-237500D01*
G01*
G37*
G36*
G01*
X85750000Y-75062500D02*
X85750000Y-75537500D01*
G75*
G02*
X85512500Y-75775000I-237500J0D01*
G01*
X84912500Y-75775000D01*
G75*
G02*
X84675000Y-75537500I0J237500D01*
G01*
X84675000Y-75062500D01*
G75*
G02*
X84912500Y-74825000I237500J0D01*
G01*
X85512500Y-74825000D01*
G75*
G02*
X85750000Y-75062500I0J-237500D01*
G01*
G37*
%TD*%
%TO.C,C11*%
G36*
G01*
X88775000Y-75537500D02*
X88775000Y-75062500D01*
G75*
G02*
X89012500Y-74825000I237500J0D01*
G01*
X89612500Y-74825000D01*
G75*
G02*
X89850000Y-75062500I0J-237500D01*
G01*
X89850000Y-75537500D01*
G75*
G02*
X89612500Y-75775000I-237500J0D01*
G01*
X89012500Y-75775000D01*
G75*
G02*
X88775000Y-75537500I0J237500D01*
G01*
G37*
G36*
G01*
X87050000Y-75537500D02*
X87050000Y-75062500D01*
G75*
G02*
X87287500Y-74825000I237500J0D01*
G01*
X87887500Y-74825000D01*
G75*
G02*
X88125000Y-75062500I0J-237500D01*
G01*
X88125000Y-75537500D01*
G75*
G02*
X87887500Y-75775000I-237500J0D01*
G01*
X87287500Y-75775000D01*
G75*
G02*
X87050000Y-75537500I0J237500D01*
G01*
G37*
%TD*%
%TO.C,C10*%
G36*
G01*
X90675000Y-71887500D02*
X90675000Y-71412500D01*
G75*
G02*
X90912500Y-71175000I237500J0D01*
G01*
X91512500Y-71175000D01*
G75*
G02*
X91750000Y-71412500I0J-237500D01*
G01*
X91750000Y-71887500D01*
G75*
G02*
X91512500Y-72125000I-237500J0D01*
G01*
X90912500Y-72125000D01*
G75*
G02*
X90675000Y-71887500I0J237500D01*
G01*
G37*
G36*
G01*
X88950000Y-71887500D02*
X88950000Y-71412500D01*
G75*
G02*
X89187500Y-71175000I237500J0D01*
G01*
X89787500Y-71175000D01*
G75*
G02*
X90025000Y-71412500I0J-237500D01*
G01*
X90025000Y-71887500D01*
G75*
G02*
X89787500Y-72125000I-237500J0D01*
G01*
X89187500Y-72125000D01*
G75*
G02*
X88950000Y-71887500I0J237500D01*
G01*
G37*
%TD*%
%TO.C,C9*%
G36*
G01*
X95875000Y-88837500D02*
X95875000Y-88362500D01*
G75*
G02*
X96112500Y-88125000I237500J0D01*
G01*
X96712500Y-88125000D01*
G75*
G02*
X96950000Y-88362500I0J-237500D01*
G01*
X96950000Y-88837500D01*
G75*
G02*
X96712500Y-89075000I-237500J0D01*
G01*
X96112500Y-89075000D01*
G75*
G02*
X95875000Y-88837500I0J237500D01*
G01*
G37*
G36*
G01*
X94150000Y-88837500D02*
X94150000Y-88362500D01*
G75*
G02*
X94387500Y-88125000I237500J0D01*
G01*
X94987500Y-88125000D01*
G75*
G02*
X95225000Y-88362500I0J-237500D01*
G01*
X95225000Y-88837500D01*
G75*
G02*
X94987500Y-89075000I-237500J0D01*
G01*
X94387500Y-89075000D01*
G75*
G02*
X94150000Y-88837500I0J237500D01*
G01*
G37*
%TD*%
%TO.C,C8*%
G36*
G01*
X88975000Y-102337500D02*
X88975000Y-101862500D01*
G75*
G02*
X89212500Y-101625000I237500J0D01*
G01*
X89812500Y-101625000D01*
G75*
G02*
X90050000Y-101862500I0J-237500D01*
G01*
X90050000Y-102337500D01*
G75*
G02*
X89812500Y-102575000I-237500J0D01*
G01*
X89212500Y-102575000D01*
G75*
G02*
X88975000Y-102337500I0J237500D01*
G01*
G37*
G36*
G01*
X87250000Y-102337500D02*
X87250000Y-101862500D01*
G75*
G02*
X87487500Y-101625000I237500J0D01*
G01*
X88087500Y-101625000D01*
G75*
G02*
X88325000Y-101862500I0J-237500D01*
G01*
X88325000Y-102337500D01*
G75*
G02*
X88087500Y-102575000I-237500J0D01*
G01*
X87487500Y-102575000D01*
G75*
G02*
X87250000Y-102337500I0J237500D01*
G01*
G37*
%TD*%
%TO.C,C7*%
G36*
G01*
X89162500Y-105475000D02*
X89637500Y-105475000D01*
G75*
G02*
X89875000Y-105712500I0J-237500D01*
G01*
X89875000Y-106312500D01*
G75*
G02*
X89637500Y-106550000I-237500J0D01*
G01*
X89162500Y-106550000D01*
G75*
G02*
X88925000Y-106312500I0J237500D01*
G01*
X88925000Y-105712500D01*
G75*
G02*
X89162500Y-105475000I237500J0D01*
G01*
G37*
G36*
G01*
X89162500Y-103750000D02*
X89637500Y-103750000D01*
G75*
G02*
X89875000Y-103987500I0J-237500D01*
G01*
X89875000Y-104587500D01*
G75*
G02*
X89637500Y-104825000I-237500J0D01*
G01*
X89162500Y-104825000D01*
G75*
G02*
X88925000Y-104587500I0J237500D01*
G01*
X88925000Y-103987500D01*
G75*
G02*
X89162500Y-103750000I237500J0D01*
G01*
G37*
%TD*%
%TO.C,C6*%
G36*
G01*
X81337500Y-104925000D02*
X80862500Y-104925000D01*
G75*
G02*
X80625000Y-104687500I0J237500D01*
G01*
X80625000Y-104087500D01*
G75*
G02*
X80862500Y-103850000I237500J0D01*
G01*
X81337500Y-103850000D01*
G75*
G02*
X81575000Y-104087500I0J-237500D01*
G01*
X81575000Y-104687500D01*
G75*
G02*
X81337500Y-104925000I-237500J0D01*
G01*
G37*
G36*
G01*
X81337500Y-106650000D02*
X80862500Y-106650000D01*
G75*
G02*
X80625000Y-106412500I0J237500D01*
G01*
X80625000Y-105812500D01*
G75*
G02*
X80862500Y-105575000I237500J0D01*
G01*
X81337500Y-105575000D01*
G75*
G02*
X81575000Y-105812500I0J-237500D01*
G01*
X81575000Y-106412500D01*
G75*
G02*
X81337500Y-106650000I-237500J0D01*
G01*
G37*
%TD*%
%TO.C,C5*%
G36*
G01*
X67375000Y-105262500D02*
X67375000Y-105737500D01*
G75*
G02*
X67137500Y-105975000I-237500J0D01*
G01*
X66537500Y-105975000D01*
G75*
G02*
X66300000Y-105737500I0J237500D01*
G01*
X66300000Y-105262500D01*
G75*
G02*
X66537500Y-105025000I237500J0D01*
G01*
X67137500Y-105025000D01*
G75*
G02*
X67375000Y-105262500I0J-237500D01*
G01*
G37*
G36*
G01*
X69100000Y-105262500D02*
X69100000Y-105737500D01*
G75*
G02*
X68862500Y-105975000I-237500J0D01*
G01*
X68262500Y-105975000D01*
G75*
G02*
X68025000Y-105737500I0J237500D01*
G01*
X68025000Y-105262500D01*
G75*
G02*
X68262500Y-105025000I237500J0D01*
G01*
X68862500Y-105025000D01*
G75*
G02*
X69100000Y-105262500I0J-237500D01*
G01*
G37*
%TD*%
%TO.C,C4*%
G36*
G01*
X87525000Y-97262500D02*
X87525000Y-97737500D01*
G75*
G02*
X87287500Y-97975000I-237500J0D01*
G01*
X86687500Y-97975000D01*
G75*
G02*
X86450000Y-97737500I0J237500D01*
G01*
X86450000Y-97262500D01*
G75*
G02*
X86687500Y-97025000I237500J0D01*
G01*
X87287500Y-97025000D01*
G75*
G02*
X87525000Y-97262500I0J-237500D01*
G01*
G37*
G36*
G01*
X89250000Y-97262500D02*
X89250000Y-97737500D01*
G75*
G02*
X89012500Y-97975000I-237500J0D01*
G01*
X88412500Y-97975000D01*
G75*
G02*
X88175000Y-97737500I0J237500D01*
G01*
X88175000Y-97262500D01*
G75*
G02*
X88412500Y-97025000I237500J0D01*
G01*
X89012500Y-97025000D01*
G75*
G02*
X89250000Y-97262500I0J-237500D01*
G01*
G37*
%TD*%
%TO.C,C3*%
G36*
G01*
X86423000Y-83588500D02*
X86423000Y-84063500D01*
G75*
G02*
X86185500Y-84301000I-237500J0D01*
G01*
X85585500Y-84301000D01*
G75*
G02*
X85348000Y-84063500I0J237500D01*
G01*
X85348000Y-83588500D01*
G75*
G02*
X85585500Y-83351000I237500J0D01*
G01*
X86185500Y-83351000D01*
G75*
G02*
X86423000Y-83588500I0J-237500D01*
G01*
G37*
G36*
G01*
X88148000Y-83588500D02*
X88148000Y-84063500D01*
G75*
G02*
X87910500Y-84301000I-237500J0D01*
G01*
X87310500Y-84301000D01*
G75*
G02*
X87073000Y-84063500I0J237500D01*
G01*
X87073000Y-83588500D01*
G75*
G02*
X87310500Y-83351000I237500J0D01*
G01*
X87910500Y-83351000D01*
G75*
G02*
X88148000Y-83588500I0J-237500D01*
G01*
G37*
%TD*%
%TO.C,C2*%
G36*
G01*
X67037500Y-96925000D02*
X66562500Y-96925000D01*
G75*
G02*
X66325000Y-96687500I0J237500D01*
G01*
X66325000Y-96087500D01*
G75*
G02*
X66562500Y-95850000I237500J0D01*
G01*
X67037500Y-95850000D01*
G75*
G02*
X67275000Y-96087500I0J-237500D01*
G01*
X67275000Y-96687500D01*
G75*
G02*
X67037500Y-96925000I-237500J0D01*
G01*
G37*
G36*
G01*
X67037500Y-98650000D02*
X66562500Y-98650000D01*
G75*
G02*
X66325000Y-98412500I0J237500D01*
G01*
X66325000Y-97812500D01*
G75*
G02*
X66562500Y-97575000I237500J0D01*
G01*
X67037500Y-97575000D01*
G75*
G02*
X67275000Y-97812500I0J-237500D01*
G01*
X67275000Y-98412500D01*
G75*
G02*
X67037500Y-98650000I-237500J0D01*
G01*
G37*
%TD*%
%TO.C,C1*%
G36*
G01*
X80125000Y-97581500D02*
X80125000Y-97106500D01*
G75*
G02*
X80362500Y-96869000I237500J0D01*
G01*
X80962500Y-96869000D01*
G75*
G02*
X81200000Y-97106500I0J-237500D01*
G01*
X81200000Y-97581500D01*
G75*
G02*
X80962500Y-97819000I-237500J0D01*
G01*
X80362500Y-97819000D01*
G75*
G02*
X80125000Y-97581500I0J237500D01*
G01*
G37*
G36*
G01*
X78400000Y-97581500D02*
X78400000Y-97106500D01*
G75*
G02*
X78637500Y-96869000I237500J0D01*
G01*
X79237500Y-96869000D01*
G75*
G02*
X79475000Y-97106500I0J-237500D01*
G01*
X79475000Y-97581500D01*
G75*
G02*
X79237500Y-97819000I-237500J0D01*
G01*
X78637500Y-97819000D01*
G75*
G02*
X78400000Y-97581500I0J237500D01*
G01*
G37*
%TD*%
%TO.C,R1*%
G36*
G01*
X61648000Y-86163500D02*
X61648000Y-85688500D01*
G75*
G02*
X61885500Y-85451000I237500J0D01*
G01*
X62385500Y-85451000D01*
G75*
G02*
X62623000Y-85688500I0J-237500D01*
G01*
X62623000Y-86163500D01*
G75*
G02*
X62385500Y-86401000I-237500J0D01*
G01*
X61885500Y-86401000D01*
G75*
G02*
X61648000Y-86163500I0J237500D01*
G01*
G37*
G36*
G01*
X63473000Y-86163500D02*
X63473000Y-85688500D01*
G75*
G02*
X63710500Y-85451000I237500J0D01*
G01*
X64210500Y-85451000D01*
G75*
G02*
X64448000Y-85688500I0J-237500D01*
G01*
X64448000Y-86163500D01*
G75*
G02*
X64210500Y-86401000I-237500J0D01*
G01*
X63710500Y-86401000D01*
G75*
G02*
X63473000Y-86163500I0J237500D01*
G01*
G37*
%TD*%
%TO.C,R2*%
G36*
G01*
X64450000Y-87162500D02*
X64450000Y-87637500D01*
G75*
G02*
X64212500Y-87875000I-237500J0D01*
G01*
X63712500Y-87875000D01*
G75*
G02*
X63475000Y-87637500I0J237500D01*
G01*
X63475000Y-87162500D01*
G75*
G02*
X63712500Y-86925000I237500J0D01*
G01*
X64212500Y-86925000D01*
G75*
G02*
X64450000Y-87162500I0J-237500D01*
G01*
G37*
G36*
G01*
X62625000Y-87162500D02*
X62625000Y-87637500D01*
G75*
G02*
X62387500Y-87875000I-237500J0D01*
G01*
X61887500Y-87875000D01*
G75*
G02*
X61650000Y-87637500I0J237500D01*
G01*
X61650000Y-87162500D01*
G75*
G02*
X61887500Y-86925000I237500J0D01*
G01*
X62387500Y-86925000D01*
G75*
G02*
X62625000Y-87162500I0J-237500D01*
G01*
G37*
%TD*%
%TO.C,R3*%
G36*
G01*
X87637500Y-104725000D02*
X87162500Y-104725000D01*
G75*
G02*
X86925000Y-104487500I0J237500D01*
G01*
X86925000Y-103987500D01*
G75*
G02*
X87162500Y-103750000I237500J0D01*
G01*
X87637500Y-103750000D01*
G75*
G02*
X87875000Y-103987500I0J-237500D01*
G01*
X87875000Y-104487500D01*
G75*
G02*
X87637500Y-104725000I-237500J0D01*
G01*
G37*
G36*
G01*
X87637500Y-106550000D02*
X87162500Y-106550000D01*
G75*
G02*
X86925000Y-106312500I0J237500D01*
G01*
X86925000Y-105812500D01*
G75*
G02*
X87162500Y-105575000I237500J0D01*
G01*
X87637500Y-105575000D01*
G75*
G02*
X87875000Y-105812500I0J-237500D01*
G01*
X87875000Y-106312500D01*
G75*
G02*
X87637500Y-106550000I-237500J0D01*
G01*
G37*
%TD*%
%TO.C,R4*%
G36*
G01*
X79137500Y-104550000D02*
X78662500Y-104550000D01*
G75*
G02*
X78425000Y-104312500I0J237500D01*
G01*
X78425000Y-103812500D01*
G75*
G02*
X78662500Y-103575000I237500J0D01*
G01*
X79137500Y-103575000D01*
G75*
G02*
X79375000Y-103812500I0J-237500D01*
G01*
X79375000Y-104312500D01*
G75*
G02*
X79137500Y-104550000I-237500J0D01*
G01*
G37*
G36*
G01*
X79137500Y-102725000D02*
X78662500Y-102725000D01*
G75*
G02*
X78425000Y-102487500I0J237500D01*
G01*
X78425000Y-101987500D01*
G75*
G02*
X78662500Y-101750000I237500J0D01*
G01*
X79137500Y-101750000D01*
G75*
G02*
X79375000Y-101987500I0J-237500D01*
G01*
X79375000Y-102487500D01*
G75*
G02*
X79137500Y-102725000I-237500J0D01*
G01*
G37*
%TD*%
%TO.C,R5*%
G36*
G01*
X51832500Y-86484000D02*
X52307500Y-86484000D01*
G75*
G02*
X52545000Y-86721500I0J-237500D01*
G01*
X52545000Y-87221500D01*
G75*
G02*
X52307500Y-87459000I-237500J0D01*
G01*
X51832500Y-87459000D01*
G75*
G02*
X51595000Y-87221500I0J237500D01*
G01*
X51595000Y-86721500D01*
G75*
G02*
X51832500Y-86484000I237500J0D01*
G01*
G37*
G36*
G01*
X51832500Y-88309000D02*
X52307500Y-88309000D01*
G75*
G02*
X52545000Y-88546500I0J-237500D01*
G01*
X52545000Y-89046500D01*
G75*
G02*
X52307500Y-89284000I-237500J0D01*
G01*
X51832500Y-89284000D01*
G75*
G02*
X51595000Y-89046500I0J237500D01*
G01*
X51595000Y-88546500D01*
G75*
G02*
X51832500Y-88309000I237500J0D01*
G01*
G37*
%TD*%
%TO.C,R6*%
G36*
G01*
X95125000Y-89862500D02*
X95125000Y-90337500D01*
G75*
G02*
X94887500Y-90575000I-237500J0D01*
G01*
X94387500Y-90575000D01*
G75*
G02*
X94150000Y-90337500I0J237500D01*
G01*
X94150000Y-89862500D01*
G75*
G02*
X94387500Y-89625000I237500J0D01*
G01*
X94887500Y-89625000D01*
G75*
G02*
X95125000Y-89862500I0J-237500D01*
G01*
G37*
G36*
G01*
X96950000Y-89862500D02*
X96950000Y-90337500D01*
G75*
G02*
X96712500Y-90575000I-237500J0D01*
G01*
X96212500Y-90575000D01*
G75*
G02*
X95975000Y-90337500I0J237500D01*
G01*
X95975000Y-89862500D01*
G75*
G02*
X96212500Y-89625000I237500J0D01*
G01*
X96712500Y-89625000D01*
G75*
G02*
X96950000Y-89862500I0J-237500D01*
G01*
G37*
%TD*%
%TO.C,R7*%
G36*
G01*
X65362500Y-112625000D02*
X65837500Y-112625000D01*
G75*
G02*
X66075000Y-112862500I0J-237500D01*
G01*
X66075000Y-113362500D01*
G75*
G02*
X65837500Y-113600000I-237500J0D01*
G01*
X65362500Y-113600000D01*
G75*
G02*
X65125000Y-113362500I0J237500D01*
G01*
X65125000Y-112862500D01*
G75*
G02*
X65362500Y-112625000I237500J0D01*
G01*
G37*
G36*
G01*
X65362500Y-110800000D02*
X65837500Y-110800000D01*
G75*
G02*
X66075000Y-111037500I0J-237500D01*
G01*
X66075000Y-111537500D01*
G75*
G02*
X65837500Y-111775000I-237500J0D01*
G01*
X65362500Y-111775000D01*
G75*
G02*
X65125000Y-111537500I0J237500D01*
G01*
X65125000Y-111037500D01*
G75*
G02*
X65362500Y-110800000I237500J0D01*
G01*
G37*
%TD*%
%TO.C,R8*%
G36*
G01*
X108475000Y-59637500D02*
X108475000Y-59162500D01*
G75*
G02*
X108712500Y-58925000I237500J0D01*
G01*
X109212500Y-58925000D01*
G75*
G02*
X109450000Y-59162500I0J-237500D01*
G01*
X109450000Y-59637500D01*
G75*
G02*
X109212500Y-59875000I-237500J0D01*
G01*
X108712500Y-59875000D01*
G75*
G02*
X108475000Y-59637500I0J237500D01*
G01*
G37*
G36*
G01*
X106650000Y-59637500D02*
X106650000Y-59162500D01*
G75*
G02*
X106887500Y-58925000I237500J0D01*
G01*
X107387500Y-58925000D01*
G75*
G02*
X107625000Y-59162500I0J-237500D01*
G01*
X107625000Y-59637500D01*
G75*
G02*
X107387500Y-59875000I-237500J0D01*
G01*
X106887500Y-59875000D01*
G75*
G02*
X106650000Y-59637500I0J237500D01*
G01*
G37*
%TD*%
%TO.C,R9*%
G36*
G01*
X111600000Y-65712500D02*
X111600000Y-66187500D01*
G75*
G02*
X111362500Y-66425000I-237500J0D01*
G01*
X110862500Y-66425000D01*
G75*
G02*
X110625000Y-66187500I0J237500D01*
G01*
X110625000Y-65712500D01*
G75*
G02*
X110862500Y-65475000I237500J0D01*
G01*
X111362500Y-65475000D01*
G75*
G02*
X111600000Y-65712500I0J-237500D01*
G01*
G37*
G36*
G01*
X109775000Y-65712500D02*
X109775000Y-66187500D01*
G75*
G02*
X109537500Y-66425000I-237500J0D01*
G01*
X109037500Y-66425000D01*
G75*
G02*
X108800000Y-66187500I0J237500D01*
G01*
X108800000Y-65712500D01*
G75*
G02*
X109037500Y-65475000I237500J0D01*
G01*
X109537500Y-65475000D01*
G75*
G02*
X109775000Y-65712500I0J-237500D01*
G01*
G37*
%TD*%
M02*
