G04 #@! TF.FileFunction,Copper,L1,Top,Signal*
%FSLAX46Y46*%
G04 Gerber Fmt 4.6, Leading zero omitted, Abs format (unit mm)*
G04 Created by KiCad (PCBNEW 4.0.7) date 02/06/18 23:35:00*
%MOMM*%
%LPD*%
G01*
G04 APERTURE LIST*
%ADD10C,0.100000*%
%ADD11R,1.700000X1.700000*%
%ADD12O,1.700000X1.700000*%
%ADD13C,3.000000*%
%ADD14R,3.000000X3.000000*%
%ADD15R,0.800000X0.600000*%
%ADD16C,1.500000*%
%ADD17R,1.500000X1.300000*%
%ADD18R,1.300000X1.500000*%
%ADD19R,0.800000X0.900000*%
%ADD20R,0.900000X0.800000*%
%ADD21R,1.143000X0.508000*%
%ADD22R,0.550000X1.600000*%
%ADD23R,1.600000X0.550000*%
%ADD24R,1.397000X0.431800*%
%ADD25C,1.524000*%
%ADD26R,1.200000X0.750000*%
%ADD27R,0.750000X1.200000*%
%ADD28R,1.300000X0.450000*%
%ADD29O,2.000000X1.450000*%
%ADD30O,1.800000X1.150000*%
%ADD31O,2.540000X2.032000*%
%ADD32R,1.800000X1.800000*%
%ADD33O,1.800000X1.800000*%
%ADD34R,1.200000X0.900000*%
%ADD35R,0.900000X1.200000*%
%ADD36C,0.700000*%
%ADD37C,0.500000*%
%ADD38C,2.000000*%
%ADD39C,4.800000*%
%ADD40R,4.800000X4.800000*%
%ADD41O,1.524000X2.540000*%
%ADD42C,3.937000*%
%ADD43C,0.600000*%
%ADD44C,0.350000*%
%ADD45C,0.250000*%
%ADD46C,1.000000*%
%ADD47C,0.160000*%
%ADD48C,0.254000*%
G04 APERTURE END LIST*
D10*
D11*
X110100000Y-103600000D03*
D12*
X112640000Y-103600000D03*
X110100000Y-106140000D03*
X112640000Y-106140000D03*
X110100000Y-108680000D03*
X112640000Y-108680000D03*
D13*
X118745000Y-104521000D03*
X118745000Y-99441000D03*
D14*
X118745000Y-109601000D03*
D13*
X118745000Y-94361000D03*
X118745000Y-89281000D03*
X118745000Y-84201000D03*
X118745000Y-79121000D03*
X118745000Y-74041000D03*
X118745000Y-68961000D03*
D15*
X78900000Y-100600000D03*
X78900000Y-98900000D03*
D11*
X71500000Y-69500000D03*
D12*
X71500000Y-72040000D03*
X68960000Y-69500000D03*
X68960000Y-72040000D03*
X66420000Y-69500000D03*
X66420000Y-72040000D03*
X63880000Y-69500000D03*
X63880000Y-72040000D03*
X61340000Y-69500000D03*
X61340000Y-72040000D03*
D16*
X88880000Y-79100000D03*
X84000000Y-79100000D03*
D17*
X108850000Y-57000000D03*
X106150000Y-57000000D03*
D18*
X52070000Y-93425000D03*
X52070000Y-90725000D03*
D11*
X86741000Y-113157000D03*
D12*
X84201000Y-113157000D03*
X81661000Y-113157000D03*
X79121000Y-113157000D03*
X76581000Y-113157000D03*
X74041000Y-113157000D03*
D11*
X89281000Y-113157000D03*
D12*
X91821000Y-113157000D03*
X94361000Y-113157000D03*
X96901000Y-113157000D03*
X99441000Y-113157000D03*
X101981000Y-113157000D03*
X104521000Y-113157000D03*
X107061000Y-113157000D03*
D11*
X63881000Y-57277000D03*
D12*
X66421000Y-57277000D03*
X68961000Y-57277000D03*
X71501000Y-57277000D03*
X74041000Y-57277000D03*
X76581000Y-57277000D03*
X79121000Y-57277000D03*
X81661000Y-57277000D03*
D11*
X84201000Y-57277000D03*
D12*
X86741000Y-57277000D03*
X89281000Y-57277000D03*
X91821000Y-57277000D03*
X94361000Y-57277000D03*
X96901000Y-57277000D03*
X99441000Y-57277000D03*
X101981000Y-57277000D03*
D19*
X69650000Y-85400000D03*
X67750000Y-85400000D03*
X68700000Y-87400000D03*
D20*
X85200000Y-106100000D03*
X85200000Y-104200000D03*
X83200000Y-105150000D03*
D21*
X70550000Y-89660000D03*
X70550000Y-90930000D03*
X70550000Y-92200000D03*
X70550000Y-93470000D03*
X64200000Y-93470000D03*
X64200000Y-92200000D03*
X64200000Y-90930000D03*
X64200000Y-89660000D03*
D22*
X89287000Y-85920000D03*
X88487000Y-85920000D03*
X87687000Y-85920000D03*
X86887000Y-85920000D03*
X86087000Y-85920000D03*
X85287000Y-85920000D03*
X84487000Y-85920000D03*
X83687000Y-85920000D03*
D23*
X82237000Y-87370000D03*
X82237000Y-88170000D03*
X82237000Y-88970000D03*
X82237000Y-89770000D03*
X82237000Y-90570000D03*
X82237000Y-91370000D03*
X82237000Y-92170000D03*
X82237000Y-92970000D03*
D22*
X83687000Y-94420000D03*
X84487000Y-94420000D03*
X85287000Y-94420000D03*
X86087000Y-94420000D03*
X86887000Y-94420000D03*
X87687000Y-94420000D03*
X88487000Y-94420000D03*
X89287000Y-94420000D03*
D23*
X90737000Y-92970000D03*
X90737000Y-92170000D03*
X90737000Y-91370000D03*
X90737000Y-90570000D03*
X90737000Y-89770000D03*
X90737000Y-88970000D03*
X90737000Y-88170000D03*
X90737000Y-87370000D03*
D24*
X68453000Y-82829400D03*
X68453000Y-82194400D03*
X68453000Y-81534000D03*
X68453000Y-80899000D03*
X68453000Y-80238600D03*
X68453000Y-79590900D03*
X68453000Y-78943200D03*
X62865000Y-78943200D03*
X62865000Y-79590900D03*
X62865000Y-80238600D03*
X62865000Y-80899000D03*
X62865000Y-81546700D03*
X62865000Y-82194400D03*
X62865000Y-82842100D03*
D25*
X69600000Y-107800000D03*
X69600000Y-111864000D03*
D11*
X93100000Y-67900000D03*
D12*
X90560000Y-67900000D03*
X88020000Y-67900000D03*
D26*
X78850000Y-97600000D03*
X80750000Y-97600000D03*
D27*
X66800000Y-98200000D03*
X66800000Y-96300000D03*
D26*
X88800000Y-97500000D03*
X86900000Y-97500000D03*
X68650000Y-105500000D03*
X66750000Y-105500000D03*
D27*
X81100000Y-106200000D03*
X81100000Y-104300000D03*
X89400000Y-104200000D03*
X89400000Y-106100000D03*
D26*
X109300000Y-64300000D03*
X111200000Y-64300000D03*
X94600000Y-88600000D03*
X96500000Y-88600000D03*
X87500000Y-75300000D03*
X89400000Y-75300000D03*
X85300000Y-75300000D03*
X83400000Y-75300000D03*
D27*
X60100000Y-77100000D03*
X60100000Y-79000000D03*
D26*
X87698000Y-83826000D03*
X85798000Y-83826000D03*
D11*
X90600000Y-65000000D03*
D26*
X62098000Y-85926000D03*
X63998000Y-85926000D03*
X64000000Y-87400000D03*
X62100000Y-87400000D03*
X107100000Y-59400000D03*
X109000000Y-59400000D03*
X111150000Y-65950000D03*
X109250000Y-65950000D03*
D27*
X52070000Y-86934000D03*
X52070000Y-88834000D03*
X87400000Y-106100000D03*
X87400000Y-104200000D03*
X78900000Y-104100000D03*
X78900000Y-102200000D03*
D26*
X96500000Y-90100000D03*
X94600000Y-90100000D03*
D27*
X65600000Y-111250000D03*
X65600000Y-113150000D03*
D20*
X66800000Y-100400000D03*
X66800000Y-102300000D03*
X68800000Y-101350000D03*
D28*
X55500000Y-79000000D03*
X55500000Y-79650000D03*
X55500000Y-80300000D03*
X55500000Y-80950000D03*
X55500000Y-81600000D03*
D29*
X55450000Y-76575000D03*
X55450000Y-84025000D03*
D30*
X51650000Y-76425000D03*
X51650000Y-84175000D03*
D11*
X112900000Y-69900000D03*
D12*
X112900000Y-72440000D03*
X112900000Y-74980000D03*
D31*
X71400000Y-101260000D03*
X71400000Y-103800000D03*
X71400000Y-98720000D03*
D11*
X109707158Y-96311198D03*
X112247158Y-96311198D03*
X99329158Y-96343198D03*
X101869158Y-96343198D03*
X109707158Y-91231198D03*
X112247158Y-91231198D03*
X109707158Y-93771198D03*
X112247158Y-93771198D03*
X99329158Y-93803198D03*
X101869158Y-93803198D03*
X99329158Y-91263198D03*
X101869158Y-91263198D03*
X99329158Y-88723198D03*
X101869158Y-88723198D03*
X99329158Y-86183198D03*
X101869158Y-86183198D03*
X99329158Y-83643198D03*
X101869158Y-83643198D03*
X99329158Y-81103198D03*
X101869158Y-81103198D03*
X109707158Y-81071198D03*
X112247158Y-81071198D03*
X109707158Y-98851198D03*
X112247158Y-98851198D03*
X99329158Y-98883198D03*
X101869158Y-98883198D03*
X109707158Y-83611198D03*
X112247158Y-83611198D03*
X109707158Y-86151198D03*
X112247158Y-86151198D03*
X109707158Y-88691198D03*
X112247158Y-88691198D03*
D32*
X57000000Y-88060000D03*
D33*
X57000000Y-90600000D03*
D34*
X83000000Y-102100000D03*
X80800000Y-102100000D03*
D35*
X84700000Y-97400000D03*
X84700000Y-99600000D03*
X82600000Y-97400000D03*
X82600000Y-99600000D03*
D26*
X87700000Y-102100000D03*
X89600000Y-102100000D03*
D36*
X86400000Y-73500000D03*
X60700000Y-94200000D03*
X86300000Y-107400000D03*
X83600000Y-107600000D03*
X67000000Y-92800000D03*
D37*
X60600000Y-87600000D03*
X60800000Y-84200000D03*
X61200000Y-77100000D03*
D36*
X96300000Y-85100000D03*
D37*
X89300000Y-83100000D03*
D36*
X105400000Y-65950000D03*
D38*
X63100000Y-109100000D03*
X63100000Y-113600000D03*
X56600000Y-109100000D03*
X56600000Y-113600000D03*
X114100000Y-62100000D03*
X114100000Y-57600000D03*
X120600000Y-62100000D03*
X120600000Y-57600000D03*
D39*
X56844000Y-100202000D03*
D40*
X62944000Y-100202000D03*
D39*
X59134000Y-105282000D03*
D41*
X102724000Y-109604000D03*
X100184000Y-109604000D03*
X97644000Y-109604000D03*
X90024000Y-109604000D03*
X92564000Y-109604000D03*
X95104000Y-109604000D03*
X84944000Y-109604000D03*
X82404000Y-109604000D03*
X79864000Y-109604000D03*
X74784000Y-109604000D03*
X72244000Y-109604000D03*
X102724000Y-61344000D03*
X100184000Y-61344000D03*
X97644000Y-61344000D03*
X95104000Y-61344000D03*
X92564000Y-61344000D03*
X90024000Y-61344000D03*
X87484000Y-61344000D03*
X84944000Y-61344000D03*
X80880000Y-61344000D03*
X78340000Y-61344000D03*
X75800000Y-61344000D03*
X73260000Y-61344000D03*
X70720000Y-61344000D03*
X68180000Y-61344000D03*
X65640000Y-61344000D03*
X63100000Y-61344000D03*
X77324000Y-109604000D03*
D42*
X105264000Y-104524000D03*
X105264000Y-76584000D03*
X54464000Y-61344000D03*
X53194000Y-109604000D03*
D26*
X89400000Y-70650000D03*
X91300000Y-70650000D03*
D11*
X55050000Y-72050000D03*
D12*
X52510000Y-72050000D03*
X55050000Y-69510000D03*
X52510000Y-69510000D03*
X55050000Y-66970000D03*
X52510000Y-66970000D03*
D43*
X86400000Y-75300000D03*
X80500000Y-99875001D03*
X95525065Y-98934467D03*
X70300000Y-106200000D03*
X100400000Y-101100000D03*
X90900000Y-103500000D03*
X84300000Y-89600000D03*
X75700000Y-89500000D03*
X77500000Y-104900000D03*
X87400000Y-108600000D03*
X86700000Y-110900000D03*
X101330056Y-102975447D03*
X91000000Y-106100000D03*
X83699999Y-87300000D03*
X69400000Y-84100000D03*
X87300000Y-91500008D03*
X81600000Y-98700000D03*
X87600000Y-82400000D03*
X97700000Y-87200000D03*
X83800000Y-100700000D03*
D37*
X88700000Y-91400000D03*
X74848000Y-91426000D03*
X89200000Y-90600006D03*
X75348000Y-90526000D03*
D43*
X85583997Y-93175010D03*
X96704026Y-97780279D03*
X88922583Y-93128048D03*
X97500000Y-97700000D03*
X75700000Y-73600000D03*
D37*
X89200000Y-88900000D03*
X70000000Y-80200000D03*
X88977830Y-87900000D03*
X69600000Y-79600000D03*
D43*
X105348000Y-59326000D03*
X91249922Y-100028807D03*
X83100000Y-96200000D03*
X86427641Y-96183968D03*
X115600000Y-95500000D03*
D37*
X75500000Y-103600000D03*
X73600000Y-92400000D03*
X69500000Y-80900000D03*
X89170000Y-89770000D03*
D43*
X69900000Y-113800000D03*
D44*
X82899002Y-97400000D02*
X82600000Y-97400000D01*
X84487000Y-95812002D02*
X82899002Y-97400000D01*
X84487000Y-94420000D02*
X84487000Y-95812002D01*
X82600000Y-97400000D02*
X80900000Y-97400000D01*
X80900000Y-97400000D02*
X80600000Y-97700000D01*
X89400000Y-70650000D02*
X89400000Y-69280000D01*
X89400000Y-69280000D02*
X88020000Y-67900000D01*
X87761000Y-84689000D02*
X88000000Y-84450000D01*
X87687000Y-84700000D02*
X87698000Y-84689000D01*
X87698000Y-84689000D02*
X87761000Y-84689000D01*
D45*
X87687000Y-85920000D02*
X87687000Y-84700000D01*
X87687000Y-84700000D02*
X87687000Y-83837000D01*
D44*
X86596998Y-84550000D02*
X87537000Y-84550000D01*
X87537000Y-84550000D02*
X87687000Y-84700000D01*
D45*
X86087000Y-85059998D02*
X86596998Y-84550000D01*
X86596998Y-84550000D02*
X86695998Y-84451000D01*
D44*
X88000000Y-83100000D02*
X88000000Y-83146998D01*
X88000000Y-83146998D02*
X86596998Y-84550000D01*
X89300000Y-83100000D02*
X88000000Y-83100000D01*
X89300000Y-83100000D02*
X88946447Y-83100000D01*
X88946447Y-83100000D02*
X88646447Y-83400000D01*
X89300000Y-83100000D02*
X88424000Y-83100000D01*
X88424000Y-83100000D02*
X87698000Y-83826000D01*
X61200000Y-77100000D02*
X60100000Y-77100000D01*
D45*
X66800000Y-100400000D02*
X66850000Y-100400000D01*
X66850000Y-100400000D02*
X67500000Y-101050000D01*
X67500000Y-101050000D02*
X67500000Y-101485002D01*
X67500000Y-101485002D02*
X68540998Y-102526000D01*
X68540998Y-102526000D02*
X70134000Y-102526000D01*
X70134000Y-102526000D02*
X71400000Y-101260000D01*
D46*
X66800000Y-100400000D02*
X66800000Y-98200000D01*
D45*
X66800000Y-98200000D02*
X66600000Y-98200000D01*
X62600000Y-94200000D02*
X60700000Y-94200000D01*
X66600000Y-98200000D02*
X62600000Y-94200000D01*
D44*
X96500000Y-88600000D02*
X96500000Y-85200000D01*
X96500000Y-85200000D02*
X96400000Y-85100000D01*
D46*
X83800000Y-107700000D02*
X83600000Y-107700000D01*
X83600000Y-107700000D02*
X82400000Y-106500000D01*
D45*
X58400000Y-82800000D02*
X57399000Y-81799000D01*
X57500000Y-82000000D02*
X57399000Y-82000000D01*
X57399000Y-81899000D02*
X57500000Y-82000000D01*
X57399000Y-81799000D02*
X57399000Y-81899000D01*
X60800000Y-84200000D02*
X60035000Y-84200000D01*
X60035000Y-84200000D02*
X57399000Y-81564000D01*
D44*
X62100000Y-87400000D02*
X60700000Y-87400000D01*
X60700000Y-87400000D02*
X60600000Y-87500000D01*
D45*
X85200000Y-106100000D02*
X85200000Y-106300000D01*
X85200000Y-106300000D02*
X86300000Y-107400000D01*
X81100000Y-106200000D02*
X81500000Y-106200000D01*
X81500000Y-106200000D02*
X82600000Y-107300000D01*
D46*
X65588000Y-61270000D02*
X66208000Y-61890000D01*
X65588000Y-61270000D02*
X65588000Y-60212000D01*
X66421000Y-59379000D02*
X66421000Y-57277000D01*
X65588000Y-60212000D02*
X66421000Y-59379000D01*
X66208000Y-62908000D02*
X66208000Y-69426000D01*
X66208000Y-61890000D02*
X66208000Y-62908000D01*
D44*
X87500000Y-75300000D02*
X86400000Y-75300000D01*
D46*
X85300000Y-75300000D02*
X86400000Y-75300000D01*
X87500000Y-75300000D02*
X85300000Y-75300000D01*
X66208000Y-67907998D02*
X66208000Y-69426000D01*
D44*
X78900000Y-98900000D02*
X79524999Y-98900000D01*
X79524999Y-98900000D02*
X80500000Y-99875001D01*
X95525065Y-98510203D02*
X95525065Y-98934467D01*
X95525065Y-92674935D02*
X95525065Y-98510203D01*
X96500000Y-91700000D02*
X95525065Y-92674935D01*
D45*
X89600000Y-102100000D02*
X89600000Y-104000000D01*
X89600000Y-104000000D02*
X89400000Y-104200000D01*
D44*
X69901185Y-95000000D02*
X69200000Y-95000000D01*
X69200000Y-95000000D02*
X66600000Y-92400000D01*
X71400000Y-100941185D02*
X73045010Y-99296175D01*
X71400000Y-101260000D02*
X71400000Y-100941185D01*
X73045010Y-99296175D02*
X73045010Y-98143825D01*
X73045010Y-98143825D02*
X69901185Y-95000000D01*
D45*
X64200000Y-93470000D02*
X65530000Y-93470000D01*
X65530000Y-93470000D02*
X66600000Y-92400000D01*
X68650000Y-105500000D02*
X69600000Y-105500000D01*
X69600000Y-105500000D02*
X70300000Y-106200000D01*
D44*
X100400000Y-103000000D02*
X100400000Y-101100000D01*
X110100000Y-108680000D02*
X106080000Y-108680000D01*
X106080000Y-108680000D02*
X100400000Y-103000000D01*
X62865000Y-82842100D02*
X61857900Y-82842100D01*
X61857900Y-82842100D02*
X60500000Y-84200000D01*
X60100000Y-77100000D02*
X60825000Y-77100000D01*
X60825000Y-77100000D02*
X61600000Y-77875000D01*
X55864000Y-81564000D02*
X56754649Y-81564000D01*
X56754649Y-81564000D02*
X57399000Y-81564000D01*
X57399000Y-82139000D02*
X57399000Y-82000000D01*
X57399000Y-82000000D02*
X57399000Y-81564000D01*
X57399000Y-82139000D02*
X57460000Y-82200000D01*
X59460000Y-84200000D02*
X60500000Y-84200000D01*
X57399000Y-82139000D02*
X59460000Y-84200000D01*
D45*
X86087000Y-85920000D02*
X86087000Y-85059998D01*
X86695998Y-84451000D02*
X86848000Y-84451000D01*
X86848000Y-84451000D02*
X87473000Y-83826000D01*
X87473000Y-83826000D02*
X87698000Y-83826000D01*
D44*
X89400000Y-104200000D02*
X90200000Y-104200000D01*
X90200000Y-104200000D02*
X90900000Y-103500000D01*
X85200000Y-106100000D02*
X85400000Y-106100000D01*
D45*
X87687000Y-83837000D02*
X87698000Y-83826000D01*
X65786000Y-61341000D02*
X65786000Y-57912000D01*
X65786000Y-57912000D02*
X66421000Y-57277000D01*
D44*
X63400000Y-108800000D02*
X63400000Y-109050000D01*
D45*
X63048000Y-61270000D02*
X63070000Y-61270000D01*
X63070000Y-61270000D02*
X65032999Y-63232999D01*
X65032999Y-63232999D02*
X65032999Y-68913997D01*
X65200000Y-69080998D02*
X65200000Y-72700000D01*
X65032999Y-68913997D02*
X65200000Y-69080998D01*
X65200000Y-72700000D02*
X73449990Y-80949990D01*
X73449990Y-80949990D02*
X73449990Y-87249990D01*
X73449990Y-87249990D02*
X75700000Y-89500000D01*
X63246000Y-61341000D02*
X63200000Y-61295000D01*
X63200000Y-61295000D02*
X63200000Y-57958000D01*
X63200000Y-57958000D02*
X63881000Y-57277000D01*
X86087000Y-93681418D02*
X86087000Y-94420000D01*
X86338664Y-93429754D02*
X86087000Y-93681418D01*
X86338664Y-91638664D02*
X86338664Y-93429754D01*
X84300000Y-89600000D02*
X86338664Y-91638664D01*
D44*
X86600000Y-97300996D02*
X86024002Y-96724998D01*
X85671273Y-96571273D02*
X85671273Y-95985727D01*
X85824998Y-96724998D02*
X85671273Y-96571273D01*
X86024002Y-96724998D02*
X85824998Y-96724998D01*
X85671273Y-95985727D02*
X86087000Y-95570000D01*
X86600000Y-97500000D02*
X86600000Y-97300996D01*
X86087000Y-95570000D02*
X86087000Y-94420000D01*
X85500000Y-96450000D02*
X85500000Y-96157000D01*
X84700000Y-97250000D02*
X85500000Y-96450000D01*
X84700000Y-97400000D02*
X84700000Y-97250000D01*
X85500000Y-96157000D02*
X86087000Y-95570000D01*
X69600000Y-107800000D02*
X70361999Y-107038001D01*
X70361999Y-107038001D02*
X72261999Y-107038001D01*
X72261999Y-107038001D02*
X73000000Y-106300000D01*
X73045010Y-104376175D02*
X73000000Y-104421185D01*
X73595020Y-102673815D02*
X73045010Y-103223825D01*
X73595021Y-97916003D02*
X73595020Y-102673815D01*
X69603499Y-93924481D02*
X73595021Y-97916003D01*
X69603499Y-91559001D02*
X69603499Y-93924481D01*
X73045010Y-103223825D02*
X73045010Y-104376175D01*
X70232500Y-90930000D02*
X69603499Y-91559001D01*
X78900000Y-104100000D02*
X78175000Y-104100000D01*
X77500000Y-104775000D02*
X77500000Y-104900000D01*
X78175000Y-104100000D02*
X77500000Y-104775000D01*
X77272000Y-109530000D02*
X77272000Y-108772000D01*
X77272000Y-108772000D02*
X73000000Y-104500000D01*
X73000000Y-104500000D02*
X73000000Y-104421185D01*
X73000000Y-106300000D02*
X73000000Y-104421185D01*
X118745000Y-99441000D02*
X116869999Y-101316001D01*
X116869999Y-101316001D02*
X116869999Y-106263003D01*
X116869999Y-106263003D02*
X108333002Y-114800000D01*
X108333002Y-114800000D02*
X88548998Y-114800000D01*
X88548998Y-114800000D02*
X87966001Y-114217003D01*
X87966001Y-114217003D02*
X87966001Y-110391003D01*
X87966001Y-110391003D02*
X84000000Y-106425002D01*
X84000000Y-106425002D02*
X84000000Y-105900000D01*
X84000000Y-105900000D02*
X83250000Y-105150000D01*
X83250000Y-105150000D02*
X83200000Y-105150000D01*
X70550000Y-90930000D02*
X70232500Y-90930000D01*
X78900000Y-104100000D02*
X80900000Y-104100000D01*
X80900000Y-104100000D02*
X81100000Y-104300000D01*
X83200000Y-105150000D02*
X81950000Y-105150000D01*
X81950000Y-105150000D02*
X81100000Y-104300000D01*
D45*
X70232500Y-90930000D02*
X68700000Y-89397500D01*
X68700000Y-89397500D02*
X68700000Y-88100000D01*
X68700000Y-88100000D02*
X68700000Y-87400000D01*
X68700000Y-87400000D02*
X68047500Y-87400000D01*
X68047500Y-87400000D02*
X64517500Y-90930000D01*
X64517500Y-90930000D02*
X64200000Y-90930000D01*
X87400000Y-106100000D02*
X87400000Y-108600000D01*
X76294000Y-111600000D02*
X86000000Y-111600000D01*
X86000000Y-111600000D02*
X86700000Y-110900000D01*
X74732000Y-110038000D02*
X76294000Y-111600000D01*
D44*
X118745000Y-89281000D02*
X116869999Y-91156001D01*
X116869999Y-91156001D02*
X116869999Y-96603359D01*
X116869999Y-96603359D02*
X111573358Y-101900000D01*
X111573358Y-101900000D02*
X102405503Y-101900000D01*
X102405503Y-101900000D02*
X101630055Y-102675448D01*
X101630055Y-102675448D02*
X101330056Y-102975447D01*
D45*
X74732000Y-109530000D02*
X74732000Y-110038000D01*
D44*
X89400000Y-106100000D02*
X91000000Y-106100000D01*
X85200000Y-104200000D02*
X85500000Y-104200000D01*
X85500000Y-104200000D02*
X87400000Y-106100000D01*
X89400000Y-106100000D02*
X87400000Y-106100000D01*
X111200000Y-64300000D02*
X110900000Y-64300000D01*
X110900000Y-64300000D02*
X109250000Y-65950000D01*
X111200000Y-64300000D02*
X110975000Y-64300000D01*
D45*
X114100000Y-62100000D02*
X120600000Y-62100000D01*
X114300000Y-62158000D02*
X112158000Y-64300000D01*
X79349989Y-86332989D02*
X79349989Y-71763600D01*
X79349989Y-71763600D02*
X87432000Y-63681589D01*
X81187000Y-88170000D02*
X79349989Y-86332989D01*
X82237000Y-88170000D02*
X81187000Y-88170000D01*
X87432000Y-62790000D02*
X87432000Y-61270000D01*
X87432000Y-63681589D02*
X87432000Y-62790000D01*
X111186000Y-64314000D02*
X111200000Y-64300000D01*
X112158000Y-64300000D02*
X111200000Y-64300000D01*
X87630000Y-61341000D02*
X87630000Y-58166000D01*
X87630000Y-58166000D02*
X86741000Y-57277000D01*
D47*
X83400000Y-75300000D02*
X83400000Y-78500000D01*
X83400000Y-78500000D02*
X84000000Y-79100000D01*
X83687000Y-81145000D02*
X84000000Y-80832000D01*
X84000000Y-80832000D02*
X84000000Y-79100000D01*
X83687000Y-85920000D02*
X83687000Y-81145000D01*
D45*
X57399000Y-78964000D02*
X58000000Y-78964000D01*
X56150000Y-78964000D02*
X57050000Y-78964000D01*
X58000000Y-78964000D02*
X59594000Y-78964000D01*
X57050000Y-78964000D02*
X58000000Y-78964000D01*
X69650000Y-85400000D02*
X69650000Y-85350000D01*
X69650000Y-85350000D02*
X67670301Y-83370301D01*
X67670301Y-83370301D02*
X66284801Y-83370301D01*
X66284801Y-83370301D02*
X63813500Y-80899000D01*
X63813500Y-80899000D02*
X62865000Y-80899000D01*
X62865000Y-80899000D02*
X61916500Y-80899000D01*
X61916500Y-80899000D02*
X60100000Y-79082500D01*
X60100000Y-79082500D02*
X60100000Y-79000000D01*
X59594000Y-78964000D02*
X59944000Y-79314000D01*
X71374000Y-61849000D02*
X70866000Y-61341000D01*
X70866000Y-57912000D02*
X71501000Y-57277000D01*
X70866000Y-61341000D02*
X70866000Y-57912000D01*
X82237000Y-92970000D02*
X81187000Y-92970000D01*
X81187000Y-92970000D02*
X75750011Y-87533011D01*
X71288000Y-64797998D02*
X70668000Y-64177998D01*
X75750011Y-87533011D02*
X75750011Y-78167013D01*
X75750011Y-78167013D02*
X70300000Y-72717002D01*
X70300000Y-72717002D02*
X70300000Y-70600000D01*
X70300000Y-70600000D02*
X71288000Y-69612000D01*
X71288000Y-69612000D02*
X71288000Y-64797998D01*
X70668000Y-64177998D02*
X70680002Y-64190000D01*
X70668000Y-61270000D02*
X70668000Y-64177998D01*
X70668000Y-61778000D02*
X70668000Y-61270000D01*
X68453000Y-82829400D02*
X67504500Y-82829400D01*
X67504500Y-82829400D02*
X63888501Y-79213401D01*
X53972000Y-73500000D02*
X53457999Y-72985999D01*
X63888501Y-79213401D02*
X63888501Y-78467299D01*
X63888501Y-78467299D02*
X58921202Y-73500000D01*
X58921202Y-73500000D02*
X53972000Y-73500000D01*
X53457999Y-72985999D02*
X52608000Y-72136000D01*
D44*
X91300000Y-70650000D02*
X91300000Y-69700000D01*
X91300000Y-69700000D02*
X93100000Y-67900000D01*
X111150000Y-65950000D02*
X120350000Y-65950000D01*
X120350000Y-65950000D02*
X122050000Y-67650000D01*
X122050000Y-67650000D02*
X122050000Y-91056000D01*
X122050000Y-91056000D02*
X118745000Y-94361000D01*
X52070000Y-86934000D02*
X53000000Y-86004000D01*
X53000000Y-86004000D02*
X53000000Y-72528000D01*
X53000000Y-72528000D02*
X52608000Y-72136000D01*
X87600000Y-82400000D02*
X91800000Y-82400000D01*
X91800000Y-82400000D02*
X93100000Y-81100000D01*
X93100000Y-81100000D02*
X93100000Y-67900000D01*
X83000000Y-102100000D02*
X83000000Y-101500000D01*
X83000000Y-101500000D02*
X83800000Y-100700000D01*
X86057000Y-87900000D02*
X86057000Y-89657000D01*
X87200000Y-91400008D02*
X87300000Y-91500008D01*
X86057000Y-89657000D02*
X87200000Y-90800000D01*
X87200000Y-90800000D02*
X87200000Y-91400008D01*
D45*
X83999998Y-87599999D02*
X83699999Y-87300000D01*
X87300000Y-90900001D02*
X83999998Y-87599999D01*
X87300000Y-91500008D02*
X87300000Y-90900001D01*
X68453000Y-82829400D02*
X68453000Y-83153000D01*
X68453000Y-83153000D02*
X69400000Y-84100000D01*
D44*
X81899999Y-98999999D02*
X81600000Y-98700000D01*
X83600000Y-100700000D02*
X81899999Y-98999999D01*
X85775736Y-100700000D02*
X83600000Y-100700000D01*
X86174000Y-83826000D02*
X87600000Y-82400000D01*
X85798000Y-83826000D02*
X86174000Y-83826000D01*
D45*
X96500000Y-90100000D02*
X96725000Y-90100000D01*
X96725000Y-90100000D02*
X97700000Y-89125000D01*
X97700000Y-89125000D02*
X97700000Y-88900000D01*
X97700000Y-88900000D02*
X97700000Y-87200000D01*
D44*
X84099999Y-100400001D02*
X83800000Y-100700000D01*
X84700000Y-99750000D02*
X84700000Y-99800000D01*
X84700000Y-99800000D02*
X84099999Y-100400001D01*
X84700000Y-99600000D02*
X84700000Y-99750000D01*
X84700000Y-99750000D02*
X85150000Y-99750000D01*
X87500000Y-102100000D02*
X87700000Y-102100000D01*
X85150000Y-99750000D02*
X87500000Y-102100000D01*
D46*
X83000000Y-101400000D02*
X83050000Y-101400000D01*
X83050000Y-101400000D02*
X84700000Y-99750000D01*
X83000000Y-102100000D02*
X83000000Y-101400000D01*
D44*
X84050000Y-99600000D02*
X84050000Y-100500000D01*
X84050000Y-100500000D02*
X84050000Y-101200000D01*
D46*
X83350000Y-100300000D02*
X83850000Y-100300000D01*
X83850000Y-100300000D02*
X84050000Y-100500000D01*
X83000000Y-102100000D02*
X83000000Y-100650000D01*
X83000000Y-100650000D02*
X83350000Y-100300000D01*
X84700000Y-99600000D02*
X82600000Y-99600000D01*
X84700000Y-99600000D02*
X84700000Y-100400000D01*
X84700000Y-100400000D02*
X83000000Y-102100000D01*
X82600000Y-99600000D02*
X82600000Y-101700000D01*
X82600000Y-101700000D02*
X83000000Y-102100000D01*
D44*
X82600000Y-99600000D02*
X84050000Y-99600000D01*
X84050000Y-101200000D02*
X84550000Y-100700000D01*
X84550000Y-100700000D02*
X85775736Y-100700000D01*
X84700000Y-99750000D02*
X85650000Y-100700000D01*
X83000000Y-102100000D02*
X83150000Y-102100000D01*
X83150000Y-102100000D02*
X84050000Y-101200000D01*
X85650000Y-100700000D02*
X85775736Y-100700000D01*
X86057000Y-87900000D02*
X85287000Y-87130000D01*
X85287000Y-87130000D02*
X85287000Y-85920000D01*
X86887000Y-85920000D02*
X86887000Y-87070000D01*
X86887000Y-87070000D02*
X86057000Y-87900000D01*
X83200000Y-102100000D02*
X83200000Y-100200000D01*
X83200000Y-100200000D02*
X82600000Y-99600000D01*
D45*
X85287000Y-85920000D02*
X85287000Y-84337000D01*
X85287000Y-84337000D02*
X85798000Y-83826000D01*
X83687000Y-94420000D02*
X82000590Y-94420000D01*
X82000590Y-94420000D02*
X75300000Y-87719410D01*
X75300000Y-87719410D02*
X75300000Y-80257002D01*
X75300000Y-80257002D02*
X67800000Y-72757002D01*
X67784999Y-72604001D02*
X67784999Y-71475999D01*
X67800000Y-72757002D02*
X67800000Y-72619002D01*
X67800000Y-72619002D02*
X67784999Y-72604001D01*
X67784999Y-71475999D02*
X67800000Y-71460998D01*
X67800000Y-71460998D02*
X67800000Y-70374000D01*
X67800000Y-70374000D02*
X67898001Y-70275999D01*
X67898001Y-70275999D02*
X68748000Y-69426000D01*
X68128000Y-64318000D02*
X68748000Y-64938000D01*
X68748000Y-64938000D02*
X68748000Y-69426000D01*
X68128000Y-64318000D02*
X68128000Y-61270000D01*
X68580000Y-69258000D02*
X68748000Y-69426000D01*
X68128000Y-61778000D02*
X68128000Y-61270000D01*
X68326000Y-61341000D02*
X68326000Y-61976000D01*
X68326000Y-61341000D02*
X68326000Y-57912000D01*
X68326000Y-57912000D02*
X68961000Y-57277000D01*
X73208000Y-61778000D02*
X73208000Y-61270000D01*
X73208000Y-70046000D02*
X73208000Y-61270000D01*
X71288000Y-71966000D02*
X73208000Y-70046000D01*
X76200022Y-76878022D02*
X72137999Y-72815999D01*
X82237000Y-92170000D02*
X81187000Y-92170000D01*
X72137999Y-72815999D02*
X71288000Y-71966000D01*
X81187000Y-92170000D02*
X76200022Y-87183022D01*
X76200022Y-87183022D02*
X76200022Y-76878022D01*
X73406000Y-61341000D02*
X73406000Y-57912000D01*
X73406000Y-57912000D02*
X74041000Y-57277000D01*
D44*
X106150000Y-57000000D02*
X106250000Y-57000000D01*
X106250000Y-57000000D02*
X108650000Y-59400000D01*
X108650000Y-59400000D02*
X109000000Y-59400000D01*
D45*
X52070000Y-90725000D02*
X52070000Y-88834000D01*
D44*
X89972000Y-109530000D02*
X89972000Y-109022000D01*
X89972000Y-109022000D02*
X91899956Y-107094044D01*
X91899956Y-107094044D02*
X91899956Y-100509901D01*
X91899956Y-100509901D02*
X91924932Y-100484925D01*
X91924932Y-100484925D02*
X91924932Y-99007932D01*
X91924932Y-99007932D02*
X88487000Y-95570000D01*
X88487000Y-95570000D02*
X88487000Y-94420000D01*
X92650011Y-102626827D02*
X92449967Y-102826871D01*
X92474943Y-99497110D02*
X92650011Y-99672178D01*
X92650011Y-99672178D02*
X92650011Y-102626827D01*
X92474943Y-98757943D02*
X92474943Y-99497110D01*
X89287000Y-95570000D02*
X92474943Y-98757943D01*
X92512000Y-107910000D02*
X92512000Y-109530000D01*
X92449967Y-102826871D02*
X92449967Y-107847967D01*
X92449967Y-107847967D02*
X92512000Y-107910000D01*
X89287000Y-94420000D02*
X89287000Y-95570000D01*
X95052000Y-109022000D02*
X92999978Y-106969978D01*
X93200022Y-102854649D02*
X93200022Y-99410358D01*
X92999978Y-103054693D02*
X93200022Y-102854649D01*
X95052000Y-109530000D02*
X95052000Y-109022000D01*
X93200022Y-99410358D02*
X93024954Y-99235290D01*
X92999978Y-106969978D02*
X92999978Y-103054693D01*
X90737000Y-93595000D02*
X90737000Y-92970000D01*
X93024954Y-95882954D02*
X90737000Y-93595000D01*
X93024954Y-99235290D02*
X93024954Y-95882954D01*
X97592000Y-109022000D02*
X97592000Y-109530000D01*
X93574965Y-99007468D02*
X93750033Y-99182536D01*
X93750033Y-105180033D02*
X97592000Y-109022000D01*
X93750033Y-99182536D02*
X93750033Y-105180033D01*
X90737000Y-92170000D02*
X91887000Y-92170000D01*
X91887000Y-92170000D02*
X93574965Y-93857965D01*
X93574965Y-93857965D02*
X93574965Y-99007468D01*
D45*
X63880000Y-69500000D02*
X62704999Y-70675001D01*
X62704999Y-70675001D02*
X62704999Y-72742001D01*
X62704999Y-72742001D02*
X64539008Y-74576010D01*
D44*
X91887000Y-91370000D02*
X90737000Y-91370000D01*
X94300044Y-98954714D02*
X94124976Y-98779646D01*
X100132000Y-109530000D02*
X100132000Y-107910000D01*
X94124976Y-93607976D02*
X91887000Y-91370000D01*
X94124976Y-98779646D02*
X94124976Y-93607976D01*
X100132000Y-107910000D02*
X94300044Y-102078044D01*
X94300044Y-102078044D02*
X94300044Y-98954714D01*
D45*
X88730000Y-91370000D02*
X88700000Y-91400000D01*
X90737000Y-91370000D02*
X88730000Y-91370000D01*
X65641601Y-74576011D02*
X64539008Y-74576010D01*
X70600000Y-79534410D02*
X65641601Y-74576011D01*
X70600000Y-87178000D02*
X70600000Y-79534410D01*
X74848000Y-91426000D02*
X70600000Y-87178000D01*
D44*
X91887000Y-90570000D02*
X94674987Y-93357987D01*
X94674987Y-98551824D02*
X94850055Y-98726892D01*
X102672000Y-109022000D02*
X102672000Y-109530000D01*
X90737000Y-90570000D02*
X91887000Y-90570000D01*
X94850055Y-98726892D02*
X94850055Y-101200055D01*
X94850055Y-101200055D02*
X102672000Y-109022000D01*
X94674987Y-93357987D02*
X94674987Y-98551824D01*
D45*
X89230006Y-90570000D02*
X89200000Y-90600006D01*
X90737000Y-90570000D02*
X89230006Y-90570000D01*
X75348000Y-90526000D02*
X71100000Y-86278000D01*
X71100000Y-86278000D02*
X71100000Y-79398000D01*
X71100000Y-79398000D02*
X64517999Y-72815999D01*
X64517999Y-72815999D02*
X63668000Y-71966000D01*
D44*
X85381990Y-93175010D02*
X85583997Y-93175010D01*
X85287000Y-93270000D02*
X85381990Y-93175010D01*
X85287000Y-94420000D02*
X85287000Y-93270000D01*
X104521000Y-109120004D02*
X96704026Y-101303030D01*
X104521000Y-113157000D02*
X104521000Y-109120004D01*
X96704026Y-101303030D02*
X96704026Y-98204543D01*
X96704026Y-98204543D02*
X96704026Y-97780279D01*
X97500000Y-98124264D02*
X97500000Y-97700000D01*
X97500000Y-100877833D02*
X97500000Y-98124264D01*
X107061000Y-110438833D02*
X97500000Y-100877833D01*
X107061000Y-113157000D02*
X107061000Y-110438833D01*
X88922583Y-93128048D02*
X88071952Y-93128048D01*
X88071952Y-93128048D02*
X87687000Y-93513000D01*
X87687000Y-93513000D02*
X87687000Y-94420000D01*
D45*
X76699999Y-74599999D02*
X75999999Y-73899999D01*
X81187000Y-91370000D02*
X76699999Y-86882999D01*
X82237000Y-91370000D02*
X81187000Y-91370000D01*
X75748000Y-61270000D02*
X75748000Y-73552000D01*
X75999999Y-73899999D02*
X75700000Y-73600000D01*
X76699999Y-86882999D02*
X76699999Y-74599999D01*
X75748000Y-73552000D02*
X75700000Y-73600000D01*
X75946000Y-61341000D02*
X75946000Y-57912000D01*
X75946000Y-57912000D02*
X76581000Y-57277000D01*
X90737000Y-88970000D02*
X91787000Y-88970000D01*
X91787000Y-88970000D02*
X93948000Y-86809000D01*
X93948000Y-86809000D02*
X93948000Y-84152000D01*
X93948000Y-84152000D02*
X102672000Y-75428000D01*
X102672000Y-75428000D02*
X102672000Y-62790000D01*
X102672000Y-62790000D02*
X102672000Y-61270000D01*
D44*
X89200000Y-88900000D02*
X90667000Y-88900000D01*
X90667000Y-88900000D02*
X90737000Y-88970000D01*
X68453000Y-80238600D02*
X69961400Y-80238600D01*
X69961400Y-80238600D02*
X70000000Y-80200000D01*
D45*
X68453000Y-80238600D02*
X67504500Y-80238600D01*
X60278001Y-70275999D02*
X61128000Y-69426000D01*
X67504500Y-80238600D02*
X59952999Y-72687099D01*
X59952999Y-72687099D02*
X59952999Y-70601001D01*
X59952999Y-70601001D02*
X60278001Y-70275999D01*
X102672000Y-61270000D02*
X102204000Y-61270000D01*
X102204000Y-61270000D02*
X102748000Y-61326000D01*
X102870000Y-61341000D02*
X102870000Y-58166000D01*
X102870000Y-58166000D02*
X101981000Y-57277000D01*
X68453000Y-79590900D02*
X67990900Y-79590900D01*
X67990900Y-79590900D02*
X67884101Y-79484101D01*
X67884101Y-79484101D02*
X67494499Y-79484101D01*
X67494499Y-79484101D02*
X67429499Y-79419101D01*
X67429499Y-79419101D02*
X67429499Y-79029499D01*
X67429499Y-79029499D02*
X61300000Y-72900000D01*
X61300000Y-72900000D02*
X61300000Y-72138000D01*
X61300000Y-72138000D02*
X61128000Y-71966000D01*
X90737000Y-88170000D02*
X91787000Y-88170000D01*
X91787000Y-88170000D02*
X92848000Y-87109000D01*
X92848000Y-87109000D02*
X92848000Y-84452000D01*
X92848000Y-84452000D02*
X100132000Y-77168000D01*
X100132000Y-77168000D02*
X100132000Y-62790000D01*
X100132000Y-62790000D02*
X100132000Y-61270000D01*
D44*
X90737000Y-88170000D02*
X89247830Y-88170000D01*
X89247830Y-88170000D02*
X88977830Y-87900000D01*
X68453000Y-79590900D02*
X69590900Y-79590900D01*
X69590900Y-79590900D02*
X69600000Y-79600000D01*
D45*
X100330000Y-61341000D02*
X100330000Y-58166000D01*
X100330000Y-58166000D02*
X99441000Y-57277000D01*
X57399000Y-79614000D02*
X58000000Y-79614000D01*
X58000000Y-79614000D02*
X58299000Y-79614000D01*
X56150000Y-79614000D02*
X57050000Y-79614000D01*
X57050000Y-79614000D02*
X58000000Y-79614000D01*
X58299000Y-79614000D02*
X58973999Y-80288999D01*
X61916500Y-81546700D02*
X62865000Y-81546700D01*
X58973999Y-80288999D02*
X60658799Y-80288999D01*
X60658799Y-80288999D02*
X61916500Y-81546700D01*
X57399000Y-80264000D02*
X57600000Y-80264000D01*
X57600000Y-80264000D02*
X58209002Y-80264000D01*
X56150000Y-80264000D02*
X57050000Y-80264000D01*
X57050000Y-80264000D02*
X57600000Y-80264000D01*
X58209002Y-80264000D02*
X59243999Y-81298997D01*
X59243999Y-81298997D02*
X59243999Y-82074001D01*
X59243999Y-82074001D02*
X59471197Y-82301199D01*
X59471197Y-82301199D02*
X62758201Y-82301199D01*
X62758201Y-82301199D02*
X62865000Y-82194400D01*
D44*
X51650000Y-84175000D02*
X51650000Y-76425000D01*
D45*
X53500011Y-83989000D02*
X56100000Y-83989000D01*
X53500011Y-76539000D02*
X53500011Y-83989000D01*
X56100000Y-76539000D02*
X53500011Y-76539000D01*
X70550000Y-92200000D02*
X71371500Y-92200000D01*
X71371500Y-92200000D02*
X71446501Y-92124999D01*
X71446501Y-92124999D02*
X71446501Y-88711499D01*
X71446501Y-88711499D02*
X68835002Y-86100000D01*
X68835002Y-86100000D02*
X68400000Y-86100000D01*
X67750000Y-85450000D02*
X67750000Y-85400000D01*
X68400000Y-86100000D02*
X67750000Y-85450000D01*
X64200000Y-92200000D02*
X63882500Y-92200000D01*
X63882500Y-92200000D02*
X63303499Y-91620999D01*
X63303499Y-91620999D02*
X63303499Y-88721501D01*
X64000000Y-88025000D02*
X64000000Y-87400000D01*
X63303499Y-88721501D02*
X64000000Y-88025000D01*
X64000000Y-87400000D02*
X64000000Y-85928000D01*
X64000000Y-85928000D02*
X63998000Y-85926000D01*
D44*
X107100000Y-59400000D02*
X105422000Y-59400000D01*
X105422000Y-59400000D02*
X105348000Y-59326000D01*
D45*
X78899978Y-71577200D02*
X84892000Y-65585178D01*
X78899978Y-86682978D02*
X78899978Y-71577200D01*
X81187000Y-88970000D02*
X78899978Y-86682978D01*
X82237000Y-88970000D02*
X81187000Y-88970000D01*
X84892000Y-62790000D02*
X84892000Y-61270000D01*
X84892000Y-65585178D02*
X84892000Y-62790000D01*
X85090000Y-61341000D02*
X85090000Y-58166000D01*
X85090000Y-58166000D02*
X84201000Y-57277000D01*
X63100000Y-113600000D02*
X56600000Y-113600000D01*
D44*
X65600000Y-111250000D02*
X65450000Y-111250000D01*
X65450000Y-111250000D02*
X63100000Y-113600000D01*
D45*
X63775000Y-113300000D02*
X63400000Y-113300000D01*
X65600000Y-111250000D02*
X65600000Y-111475000D01*
X89287000Y-85920000D02*
X89287000Y-85395000D01*
X89287000Y-85395000D02*
X89812000Y-84870000D01*
X89812000Y-84870000D02*
X90830000Y-84870000D01*
X90830000Y-84870000D02*
X96800000Y-78900000D01*
X96800000Y-78900000D02*
X96800000Y-63526000D01*
X96800000Y-63526000D02*
X95052000Y-61778000D01*
X95052000Y-61778000D02*
X95052000Y-61270000D01*
X95048000Y-61274000D02*
X95052000Y-61270000D01*
X95250000Y-61341000D02*
X95250000Y-58166000D01*
X95250000Y-58166000D02*
X94361000Y-57277000D01*
X92512000Y-61270000D02*
X92512000Y-61778000D01*
X92512000Y-61778000D02*
X96248000Y-65514000D01*
X88600000Y-85000000D02*
X88600000Y-85300000D01*
X96248000Y-65514000D02*
X96248000Y-78752000D01*
X96248000Y-78752000D02*
X92099989Y-82900011D01*
X92099989Y-82900011D02*
X90699989Y-82900011D01*
X90699989Y-82900011D02*
X88600000Y-85000000D01*
X88600000Y-85300000D02*
X88487000Y-85413000D01*
X88487000Y-85413000D02*
X88487000Y-85920000D01*
X92710000Y-61341000D02*
X92710000Y-58166000D01*
X92710000Y-58166000D02*
X91821000Y-57277000D01*
D47*
X89400000Y-75300000D02*
X89400000Y-78580000D01*
X89400000Y-78580000D02*
X88880000Y-79100000D01*
X88880000Y-79100000D02*
X84487000Y-83493000D01*
X84487000Y-83493000D02*
X84487000Y-85920000D01*
D45*
X79800000Y-84408000D02*
X79800000Y-71950000D01*
X79800000Y-71950000D02*
X89972000Y-61778000D01*
X82237000Y-87370000D02*
X82237000Y-86845000D01*
X82237000Y-86845000D02*
X79800000Y-84408000D01*
X89972000Y-61778000D02*
X89972000Y-61270000D01*
X90170000Y-61341000D02*
X90170000Y-58166000D01*
X90170000Y-58166000D02*
X89281000Y-57277000D01*
X82237000Y-89770000D02*
X81187000Y-89770000D01*
X80828000Y-62790000D02*
X80828000Y-61270000D01*
X81187000Y-89770000D02*
X78449967Y-87032967D01*
X80828000Y-69012767D02*
X80828000Y-62790000D01*
X78449967Y-71390800D02*
X80828000Y-69012767D01*
X78449967Y-87032967D02*
X78449967Y-71390800D01*
X81026000Y-61341000D02*
X81026000Y-57912000D01*
X81026000Y-57912000D02*
X81661000Y-57277000D01*
X78288000Y-62790000D02*
X78288000Y-61270000D01*
X81187000Y-90570000D02*
X77999956Y-87382956D01*
X77999956Y-87382956D02*
X77999956Y-71204400D01*
X77999956Y-71204400D02*
X78288000Y-70916356D01*
X78288000Y-70916356D02*
X78288000Y-62790000D01*
X82237000Y-90570000D02*
X81187000Y-90570000D01*
X78486000Y-61341000D02*
X78486000Y-57912000D01*
X78486000Y-57912000D02*
X79121000Y-57277000D01*
X90737000Y-87370000D02*
X90737000Y-85663000D01*
X90737000Y-85663000D02*
X97592000Y-78808000D01*
X97592000Y-78808000D02*
X97592000Y-63382000D01*
X97592000Y-63382000D02*
X97592000Y-61270000D01*
X97790000Y-61341000D02*
X97790000Y-58166000D01*
X97790000Y-58166000D02*
X96901000Y-57277000D01*
X62865000Y-79590900D02*
X62865000Y-80238600D01*
D44*
X89025000Y-97500000D02*
X91249922Y-99724922D01*
X88800000Y-97500000D02*
X89025000Y-97500000D01*
X91249922Y-99724922D02*
X91249922Y-100028807D01*
X82352000Y-109530000D02*
X82352000Y-109022000D01*
X82352000Y-109022000D02*
X78905002Y-105575002D01*
X78905002Y-105575002D02*
X77175998Y-105575002D01*
X76624999Y-105024003D02*
X76624999Y-99600001D01*
X76624999Y-99600001D02*
X78625000Y-97600000D01*
X77175998Y-105575002D02*
X76624999Y-105024003D01*
X78625000Y-97600000D02*
X78850000Y-97600000D01*
X82675736Y-96200000D02*
X83100000Y-96200000D01*
X80475000Y-96200000D02*
X82675736Y-96200000D01*
X79075000Y-97600000D02*
X80475000Y-96200000D01*
X78850000Y-97600000D02*
X79075000Y-97600000D01*
X86887000Y-95724609D02*
X86727640Y-95883969D01*
X86727640Y-95883969D02*
X86427641Y-96183968D01*
X86887000Y-95570000D02*
X86887000Y-95724609D01*
X86887000Y-94420000D02*
X86887000Y-95570000D01*
X115600000Y-87346000D02*
X115600000Y-95075736D01*
X118745000Y-84201000D02*
X115600000Y-87346000D01*
X115600000Y-95075736D02*
X115600000Y-95500000D01*
X88800000Y-97500000D02*
X88575000Y-97500000D01*
X88575000Y-97500000D02*
X86887000Y-95812000D01*
X86887000Y-95812000D02*
X86887000Y-95570000D01*
X68800000Y-101350000D02*
X68800000Y-97575000D01*
X68800000Y-97575000D02*
X67525000Y-96300000D01*
X67525000Y-96300000D02*
X66800000Y-96300000D01*
X66800000Y-96300000D02*
X70346000Y-96300000D01*
X70346000Y-96300000D02*
X71400000Y-97354000D01*
X71400000Y-97354000D02*
X71400000Y-98720000D01*
X66800000Y-96300000D02*
X65529498Y-96300000D01*
X65529498Y-96300000D02*
X57289498Y-88060000D01*
X57289498Y-88060000D02*
X57000000Y-88060000D01*
X57000000Y-88060000D02*
X58250000Y-88060000D01*
X58250000Y-88060000D02*
X60384000Y-85926000D01*
X60384000Y-85926000D02*
X61148000Y-85926000D01*
X61148000Y-85926000D02*
X62098000Y-85926000D01*
X66750000Y-105500000D02*
X66750000Y-109014000D01*
X66750000Y-109014000D02*
X69600000Y-111864000D01*
X66900000Y-105325000D02*
X66900000Y-105100000D01*
X67550000Y-103800000D02*
X67250000Y-103800000D01*
X67250000Y-103800000D02*
X66900000Y-104150000D01*
X66900000Y-104150000D02*
X66900000Y-105100000D01*
X71400000Y-103800000D02*
X67550000Y-103800000D01*
X67550000Y-103800000D02*
X66800000Y-103050000D01*
X66800000Y-103050000D02*
X66800000Y-102300000D01*
X75500000Y-103600000D02*
X75500000Y-94300000D01*
X75500000Y-94300000D02*
X73849999Y-92649999D01*
X73849999Y-92649999D02*
X73600000Y-92400000D01*
D45*
X65600000Y-113150000D02*
X66225000Y-113150000D01*
X66225000Y-113150000D02*
X67962001Y-114887001D01*
X67962001Y-114887001D02*
X72310999Y-114887001D01*
X72310999Y-114887001D02*
X73191001Y-114006999D01*
X73191001Y-114006999D02*
X74041000Y-113157000D01*
D44*
X94600000Y-90100000D02*
X94600000Y-88600000D01*
X92770000Y-89770000D02*
X93100000Y-90100000D01*
X93100000Y-90100000D02*
X94600000Y-90100000D01*
X92770000Y-89770000D02*
X90737000Y-89770000D01*
D45*
X69146447Y-80900000D02*
X69500000Y-80900000D01*
X67287942Y-80900000D02*
X69146447Y-80900000D01*
X56323001Y-69935059D02*
X67287942Y-80900000D01*
X56323001Y-68231001D02*
X56323001Y-69935059D01*
X55148000Y-67056000D02*
X56323001Y-68231001D01*
X90737000Y-89770000D02*
X89170000Y-89770000D01*
X90681000Y-89826000D02*
X90737000Y-89770000D01*
D44*
X64500000Y-108086998D02*
X64625001Y-108211999D01*
X62944000Y-100202000D02*
X64500000Y-101758000D01*
X64625001Y-108525001D02*
X69900000Y-113800000D01*
X64500000Y-101758000D02*
X64500000Y-108086998D01*
X64625001Y-108211999D02*
X64625001Y-108525001D01*
X118745000Y-105855000D02*
X109249989Y-115350011D01*
X109249989Y-115350011D02*
X87734011Y-115350011D01*
X87734011Y-115350011D02*
X86741000Y-114357000D01*
X118745000Y-104521000D02*
X118745000Y-105855000D01*
X86741000Y-114357000D02*
X86741000Y-113157000D01*
X57023000Y-90551000D02*
X57023000Y-94281000D01*
X57023000Y-94281000D02*
X62944000Y-100202000D01*
X80800000Y-102100000D02*
X79000000Y-102100000D01*
X79000000Y-102100000D02*
X78900000Y-102200000D01*
X80950000Y-102100000D02*
X80800000Y-102100000D01*
X81825010Y-102975010D02*
X80950000Y-102100000D01*
X85450010Y-102975010D02*
X81825010Y-102975010D01*
X86675000Y-104200000D02*
X85450010Y-102975010D01*
X87400000Y-104200000D02*
X86675000Y-104200000D01*
X78900000Y-100600000D02*
X78900000Y-102200000D01*
D48*
G36*
X81788000Y-113030000D02*
X81808000Y-113030000D01*
X81808000Y-113284000D01*
X81788000Y-113284000D01*
X81788000Y-114477155D01*
X82017890Y-114598476D01*
X82427924Y-114428645D01*
X82856183Y-114038358D01*
X82923298Y-113895447D01*
X83150946Y-114236147D01*
X83632715Y-114558054D01*
X84201000Y-114671093D01*
X84769285Y-114558054D01*
X85251054Y-114236147D01*
X85278850Y-114194548D01*
X85287838Y-114242317D01*
X85426910Y-114458441D01*
X85639110Y-114603431D01*
X85891000Y-114654440D01*
X85990165Y-114654440D01*
X85992658Y-114666974D01*
X86139676Y-114887001D01*
X86168244Y-114929756D01*
X86528488Y-115290000D01*
X72982802Y-115290000D01*
X73674592Y-114598210D01*
X74041000Y-114671093D01*
X74609285Y-114558054D01*
X75091054Y-114236147D01*
X75311000Y-113906974D01*
X75530946Y-114236147D01*
X76012715Y-114558054D01*
X76581000Y-114671093D01*
X77149285Y-114558054D01*
X77631054Y-114236147D01*
X77851000Y-113906974D01*
X78070946Y-114236147D01*
X78552715Y-114558054D01*
X79121000Y-114671093D01*
X79689285Y-114558054D01*
X80171054Y-114236147D01*
X80398702Y-113895447D01*
X80465817Y-114038358D01*
X80894076Y-114428645D01*
X81304110Y-114598476D01*
X81534000Y-114477155D01*
X81534000Y-113284000D01*
X81514000Y-113284000D01*
X81514000Y-113030000D01*
X81534000Y-113030000D01*
X81534000Y-113010000D01*
X81788000Y-113010000D01*
X81788000Y-113030000D01*
X81788000Y-113030000D01*
G37*
X81788000Y-113030000D02*
X81808000Y-113030000D01*
X81808000Y-113284000D01*
X81788000Y-113284000D01*
X81788000Y-114477155D01*
X82017890Y-114598476D01*
X82427924Y-114428645D01*
X82856183Y-114038358D01*
X82923298Y-113895447D01*
X83150946Y-114236147D01*
X83632715Y-114558054D01*
X84201000Y-114671093D01*
X84769285Y-114558054D01*
X85251054Y-114236147D01*
X85278850Y-114194548D01*
X85287838Y-114242317D01*
X85426910Y-114458441D01*
X85639110Y-114603431D01*
X85891000Y-114654440D01*
X85990165Y-114654440D01*
X85992658Y-114666974D01*
X86139676Y-114887001D01*
X86168244Y-114929756D01*
X86528488Y-115290000D01*
X72982802Y-115290000D01*
X73674592Y-114598210D01*
X74041000Y-114671093D01*
X74609285Y-114558054D01*
X75091054Y-114236147D01*
X75311000Y-113906974D01*
X75530946Y-114236147D01*
X76012715Y-114558054D01*
X76581000Y-114671093D01*
X77149285Y-114558054D01*
X77631054Y-114236147D01*
X77851000Y-113906974D01*
X78070946Y-114236147D01*
X78552715Y-114558054D01*
X79121000Y-114671093D01*
X79689285Y-114558054D01*
X80171054Y-114236147D01*
X80398702Y-113895447D01*
X80465817Y-114038358D01*
X80894076Y-114428645D01*
X81304110Y-114598476D01*
X81534000Y-114477155D01*
X81534000Y-113284000D01*
X81514000Y-113284000D01*
X81514000Y-113030000D01*
X81534000Y-113030000D01*
X81534000Y-113010000D01*
X81788000Y-113010000D01*
X81788000Y-113030000D01*
G36*
X123290000Y-115290000D02*
X110455512Y-115290000D01*
X115858762Y-109886750D01*
X116610000Y-109886750D01*
X116610000Y-111227309D01*
X116706673Y-111460698D01*
X116885301Y-111639327D01*
X117118690Y-111736000D01*
X118459250Y-111736000D01*
X118618000Y-111577250D01*
X118618000Y-109728000D01*
X118872000Y-109728000D01*
X118872000Y-111577250D01*
X119030750Y-111736000D01*
X120371310Y-111736000D01*
X120604699Y-111639327D01*
X120783327Y-111460698D01*
X120880000Y-111227309D01*
X120880000Y-109886750D01*
X120721250Y-109728000D01*
X118872000Y-109728000D01*
X118618000Y-109728000D01*
X116768750Y-109728000D01*
X116610000Y-109886750D01*
X115858762Y-109886750D01*
X116610000Y-109135513D01*
X116610000Y-109315250D01*
X116768750Y-109474000D01*
X118618000Y-109474000D01*
X118618000Y-107624750D01*
X118872000Y-107624750D01*
X118872000Y-109474000D01*
X120721250Y-109474000D01*
X120880000Y-109315250D01*
X120880000Y-107974691D01*
X120783327Y-107741302D01*
X120604699Y-107562673D01*
X120371310Y-107466000D01*
X119030750Y-107466000D01*
X118872000Y-107624750D01*
X118618000Y-107624750D01*
X118459250Y-107466000D01*
X118279513Y-107466000D01*
X119089212Y-106656301D01*
X119167815Y-106656370D01*
X119952800Y-106332020D01*
X120553909Y-105731959D01*
X120879628Y-104947541D01*
X120880370Y-104098185D01*
X120556020Y-103313200D01*
X119955959Y-102712091D01*
X119171541Y-102386372D01*
X118322185Y-102385630D01*
X117679999Y-102650977D01*
X117679999Y-101651513D01*
X117920946Y-101410566D01*
X118318459Y-101575628D01*
X119167815Y-101576370D01*
X119952800Y-101252020D01*
X120553909Y-100651959D01*
X120879628Y-99867541D01*
X120880370Y-99018185D01*
X120556020Y-98233200D01*
X119955959Y-97632091D01*
X119171541Y-97306372D01*
X118322185Y-97305630D01*
X117537200Y-97629980D01*
X116936091Y-98230041D01*
X116610372Y-99014459D01*
X116609630Y-99863815D01*
X116775423Y-100265064D01*
X116297243Y-100743245D01*
X116121657Y-101006027D01*
X116059999Y-101316001D01*
X116059999Y-105927490D01*
X113974852Y-108012637D01*
X113719147Y-107629946D01*
X113389974Y-107410000D01*
X113719147Y-107190054D01*
X114041054Y-106708285D01*
X114154093Y-106140000D01*
X114041054Y-105571715D01*
X113719147Y-105089946D01*
X113389974Y-104870000D01*
X113719147Y-104650054D01*
X114041054Y-104168285D01*
X114154093Y-103600000D01*
X114041054Y-103031715D01*
X113719147Y-102549946D01*
X113237378Y-102228039D01*
X112669093Y-102115000D01*
X112610907Y-102115000D01*
X112477292Y-102141578D01*
X117442756Y-97176115D01*
X117618342Y-96913332D01*
X117679999Y-96603359D01*
X117679999Y-96230516D01*
X118318459Y-96495628D01*
X119167815Y-96496370D01*
X119952800Y-96172020D01*
X120553909Y-95571959D01*
X120879628Y-94787541D01*
X120880370Y-93938185D01*
X120714577Y-93536936D01*
X122622757Y-91628756D01*
X122798343Y-91365973D01*
X122833178Y-91190841D01*
X122860000Y-91056000D01*
X122860000Y-67650000D01*
X122798342Y-67340026D01*
X122710549Y-67208635D01*
X122622756Y-67077243D01*
X120922756Y-65377244D01*
X120840736Y-65322440D01*
X120659974Y-65201658D01*
X120350000Y-65140000D01*
X112250027Y-65140000D01*
X112251441Y-65139090D01*
X112328678Y-65026050D01*
X112448839Y-65002148D01*
X112695401Y-64837401D01*
X113798064Y-63734738D01*
X114423795Y-63735284D01*
X115024943Y-63486894D01*
X115485278Y-63027363D01*
X115554773Y-62860000D01*
X119144953Y-62860000D01*
X119213106Y-63024943D01*
X119672637Y-63485278D01*
X120273352Y-63734716D01*
X120923795Y-63735284D01*
X121524943Y-63486894D01*
X121985278Y-63027363D01*
X122234716Y-62426648D01*
X122235284Y-61776205D01*
X121986894Y-61175057D01*
X121527363Y-60714722D01*
X120926648Y-60465284D01*
X120276205Y-60464716D01*
X119675057Y-60713106D01*
X119214722Y-61172637D01*
X119145227Y-61340000D01*
X115555047Y-61340000D01*
X115486894Y-61175057D01*
X115027363Y-60714722D01*
X114426648Y-60465284D01*
X113776205Y-60464716D01*
X113175057Y-60713106D01*
X112714722Y-61172637D01*
X112465284Y-61773352D01*
X112464716Y-62423795D01*
X112609354Y-62773844D01*
X112053517Y-63329681D01*
X112051890Y-63328569D01*
X111800000Y-63277560D01*
X110600000Y-63277560D01*
X110364683Y-63321838D01*
X110148559Y-63460910D01*
X110003569Y-63673110D01*
X109952560Y-63925000D01*
X109952560Y-64101927D01*
X109126928Y-64927560D01*
X108650000Y-64927560D01*
X108414683Y-64971838D01*
X108198559Y-65110910D01*
X108053569Y-65323110D01*
X108002560Y-65575000D01*
X108002560Y-66325000D01*
X108046838Y-66560317D01*
X108185910Y-66776441D01*
X108398110Y-66921431D01*
X108650000Y-66972440D01*
X109850000Y-66972440D01*
X110085317Y-66928162D01*
X110199978Y-66854380D01*
X110298110Y-66921431D01*
X110550000Y-66972440D01*
X111750000Y-66972440D01*
X111985317Y-66928162D01*
X112201441Y-66789090D01*
X112221317Y-66760000D01*
X120014488Y-66760000D01*
X121240000Y-67985513D01*
X121240000Y-90720487D01*
X119569054Y-92391434D01*
X119171541Y-92226372D01*
X118322185Y-92225630D01*
X117679999Y-92490977D01*
X117679999Y-91491513D01*
X117920946Y-91250566D01*
X118318459Y-91415628D01*
X119167815Y-91416370D01*
X119952800Y-91092020D01*
X120553909Y-90491959D01*
X120879628Y-89707541D01*
X120880370Y-88858185D01*
X120556020Y-88073200D01*
X119955959Y-87472091D01*
X119171541Y-87146372D01*
X118322185Y-87145630D01*
X117537200Y-87469980D01*
X116936091Y-88070041D01*
X116610372Y-88854459D01*
X116609630Y-89703815D01*
X116775423Y-90105064D01*
X116410000Y-90470488D01*
X116410000Y-87681512D01*
X117920946Y-86170566D01*
X118318459Y-86335628D01*
X119167815Y-86336370D01*
X119952800Y-86012020D01*
X120553909Y-85411959D01*
X120879628Y-84627541D01*
X120880370Y-83778185D01*
X120556020Y-82993200D01*
X119955959Y-82392091D01*
X119171541Y-82066372D01*
X118322185Y-82065630D01*
X117537200Y-82389980D01*
X116936091Y-82990041D01*
X116610372Y-83774459D01*
X116609630Y-84623815D01*
X116775423Y-85025064D01*
X115027244Y-86773244D01*
X114851658Y-87036026D01*
X114790000Y-87346000D01*
X114790000Y-95012559D01*
X114665162Y-95313201D01*
X114664838Y-95685167D01*
X114806883Y-96028943D01*
X115069673Y-96292192D01*
X115413201Y-96434838D01*
X115785167Y-96435162D01*
X115968388Y-96359457D01*
X113744598Y-98583247D01*
X113744598Y-98001198D01*
X113700320Y-97765881D01*
X113580143Y-97579121D01*
X113693589Y-97413088D01*
X113744598Y-97161198D01*
X113744598Y-95461198D01*
X113700320Y-95225881D01*
X113580143Y-95039121D01*
X113693589Y-94873088D01*
X113744598Y-94621198D01*
X113744598Y-92921198D01*
X113700320Y-92685881D01*
X113580143Y-92499121D01*
X113693589Y-92333088D01*
X113744598Y-92081198D01*
X113744598Y-90381198D01*
X113700320Y-90145881D01*
X113580143Y-89959121D01*
X113693589Y-89793088D01*
X113744598Y-89541198D01*
X113744598Y-87841198D01*
X113700320Y-87605881D01*
X113580143Y-87419121D01*
X113693589Y-87253088D01*
X113744598Y-87001198D01*
X113744598Y-85301198D01*
X113700320Y-85065881D01*
X113580143Y-84879121D01*
X113693589Y-84713088D01*
X113744598Y-84461198D01*
X113744598Y-82761198D01*
X113700320Y-82525881D01*
X113580143Y-82339121D01*
X113693589Y-82173088D01*
X113744598Y-81921198D01*
X113744598Y-80221198D01*
X113700320Y-79985881D01*
X113561248Y-79769757D01*
X113349048Y-79624767D01*
X113097158Y-79573758D01*
X111397158Y-79573758D01*
X111161841Y-79618036D01*
X110975081Y-79738213D01*
X110809048Y-79624767D01*
X110557158Y-79573758D01*
X108857158Y-79573758D01*
X108621841Y-79618036D01*
X108405717Y-79757108D01*
X108260727Y-79969308D01*
X108209718Y-80221198D01*
X108209718Y-81921198D01*
X108253996Y-82156515D01*
X108374173Y-82343275D01*
X108260727Y-82509308D01*
X108209718Y-82761198D01*
X108209718Y-84461198D01*
X108253996Y-84696515D01*
X108374173Y-84883275D01*
X108260727Y-85049308D01*
X108209718Y-85301198D01*
X108209718Y-87001198D01*
X108253996Y-87236515D01*
X108374173Y-87423275D01*
X108260727Y-87589308D01*
X108209718Y-87841198D01*
X108209718Y-89541198D01*
X108253996Y-89776515D01*
X108374173Y-89963275D01*
X108260727Y-90129308D01*
X108209718Y-90381198D01*
X108209718Y-92081198D01*
X108253996Y-92316515D01*
X108374173Y-92503275D01*
X108260727Y-92669308D01*
X108209718Y-92921198D01*
X108209718Y-94621198D01*
X108253996Y-94856515D01*
X108374173Y-95043275D01*
X108260727Y-95209308D01*
X108209718Y-95461198D01*
X108209718Y-97161198D01*
X108253996Y-97396515D01*
X108374173Y-97583275D01*
X108260727Y-97749308D01*
X108209718Y-98001198D01*
X108209718Y-99701198D01*
X108253996Y-99936515D01*
X108393068Y-100152639D01*
X108605268Y-100297629D01*
X108857158Y-100348638D01*
X110557158Y-100348638D01*
X110792475Y-100304360D01*
X110979235Y-100184183D01*
X111145268Y-100297629D01*
X111397158Y-100348638D01*
X111979208Y-100348638D01*
X111237846Y-101090000D01*
X102405503Y-101090000D01*
X102095529Y-101151658D01*
X101979864Y-101228943D01*
X101832746Y-101327244D01*
X101101974Y-102058017D01*
X100801113Y-102182330D01*
X100537864Y-102445120D01*
X100442488Y-102674809D01*
X98310000Y-100542321D01*
X98310000Y-100346383D01*
X98479158Y-100380638D01*
X100179158Y-100380638D01*
X100414475Y-100336360D01*
X100601235Y-100216183D01*
X100767268Y-100329629D01*
X101019158Y-100380638D01*
X102719158Y-100380638D01*
X102954475Y-100336360D01*
X103170599Y-100197288D01*
X103315589Y-99985088D01*
X103366598Y-99733198D01*
X103366598Y-98033198D01*
X103322320Y-97797881D01*
X103202143Y-97611121D01*
X103315589Y-97445088D01*
X103366598Y-97193198D01*
X103366598Y-95493198D01*
X103322320Y-95257881D01*
X103202143Y-95071121D01*
X103315589Y-94905088D01*
X103366598Y-94653198D01*
X103366598Y-92953198D01*
X103322320Y-92717881D01*
X103202143Y-92531121D01*
X103315589Y-92365088D01*
X103366598Y-92113198D01*
X103366598Y-90413198D01*
X103322320Y-90177881D01*
X103202143Y-89991121D01*
X103315589Y-89825088D01*
X103366598Y-89573198D01*
X103366598Y-87873198D01*
X103322320Y-87637881D01*
X103202143Y-87451121D01*
X103315589Y-87285088D01*
X103366598Y-87033198D01*
X103366598Y-85333198D01*
X103322320Y-85097881D01*
X103202143Y-84911121D01*
X103315589Y-84745088D01*
X103366598Y-84493198D01*
X103366598Y-82793198D01*
X103322320Y-82557881D01*
X103202143Y-82371121D01*
X103315589Y-82205088D01*
X103366598Y-81953198D01*
X103366598Y-80253198D01*
X103322320Y-80017881D01*
X103183248Y-79801757D01*
X102971048Y-79656767D01*
X102719158Y-79605758D01*
X101019158Y-79605758D01*
X100783841Y-79650036D01*
X100597081Y-79770213D01*
X100431048Y-79656767D01*
X100179158Y-79605758D01*
X99569044Y-79605758D01*
X99630987Y-79543815D01*
X116609630Y-79543815D01*
X116933980Y-80328800D01*
X117534041Y-80929909D01*
X118318459Y-81255628D01*
X119167815Y-81256370D01*
X119952800Y-80932020D01*
X120553909Y-80331959D01*
X120879628Y-79547541D01*
X120880370Y-78698185D01*
X120556020Y-77913200D01*
X119955959Y-77312091D01*
X119171541Y-76986372D01*
X118322185Y-76985630D01*
X117537200Y-77309980D01*
X116936091Y-77910041D01*
X116610372Y-78694459D01*
X116609630Y-79543815D01*
X99630987Y-79543815D01*
X100738520Y-78436282D01*
X103591323Y-78436282D01*
X103808252Y-78803730D01*
X104768518Y-79191853D01*
X105804216Y-79182955D01*
X106719748Y-78803730D01*
X106936677Y-78436282D01*
X105264000Y-76763605D01*
X103591323Y-78436282D01*
X100738520Y-78436282D01*
X102659811Y-76514991D01*
X102665045Y-77124216D01*
X103044270Y-78039748D01*
X103411718Y-78256677D01*
X105084395Y-76584000D01*
X105443605Y-76584000D01*
X107116282Y-78256677D01*
X107483730Y-78039748D01*
X107871853Y-77079482D01*
X107862955Y-76043784D01*
X107483730Y-75128252D01*
X107116282Y-74911323D01*
X105443605Y-76584000D01*
X105084395Y-76584000D01*
X105070253Y-76569858D01*
X105249858Y-76390253D01*
X105264000Y-76404395D01*
X106936677Y-74731718D01*
X106719748Y-74364270D01*
X105759482Y-73976147D01*
X104723784Y-73985045D01*
X103808252Y-74364270D01*
X103591324Y-74731716D01*
X103478544Y-74618936D01*
X103432000Y-74665480D01*
X103432000Y-72440000D01*
X111385907Y-72440000D01*
X111498946Y-73008285D01*
X111820853Y-73490054D01*
X112150026Y-73710000D01*
X111820853Y-73929946D01*
X111498946Y-74411715D01*
X111385907Y-74980000D01*
X111498946Y-75548285D01*
X111820853Y-76030054D01*
X112302622Y-76351961D01*
X112870907Y-76465000D01*
X112929093Y-76465000D01*
X113497378Y-76351961D01*
X113979147Y-76030054D01*
X114301054Y-75548285D01*
X114414093Y-74980000D01*
X114311418Y-74463815D01*
X116609630Y-74463815D01*
X116933980Y-75248800D01*
X117534041Y-75849909D01*
X118318459Y-76175628D01*
X119167815Y-76176370D01*
X119952800Y-75852020D01*
X120553909Y-75251959D01*
X120879628Y-74467541D01*
X120880370Y-73618185D01*
X120556020Y-72833200D01*
X119955959Y-72232091D01*
X119171541Y-71906372D01*
X118322185Y-71905630D01*
X117537200Y-72229980D01*
X116936091Y-72830041D01*
X116610372Y-73614459D01*
X116609630Y-74463815D01*
X114311418Y-74463815D01*
X114301054Y-74411715D01*
X113979147Y-73929946D01*
X113649974Y-73710000D01*
X113979147Y-73490054D01*
X114301054Y-73008285D01*
X114414093Y-72440000D01*
X114301054Y-71871715D01*
X113979147Y-71389946D01*
X113937548Y-71362150D01*
X113985317Y-71353162D01*
X114201441Y-71214090D01*
X114346431Y-71001890D01*
X114397440Y-70750000D01*
X114397440Y-69383815D01*
X116609630Y-69383815D01*
X116933980Y-70168800D01*
X117534041Y-70769909D01*
X118318459Y-71095628D01*
X119167815Y-71096370D01*
X119952800Y-70772020D01*
X120553909Y-70171959D01*
X120879628Y-69387541D01*
X120880370Y-68538185D01*
X120556020Y-67753200D01*
X119955959Y-67152091D01*
X119171541Y-66826372D01*
X118322185Y-66825630D01*
X117537200Y-67149980D01*
X116936091Y-67750041D01*
X116610372Y-68534459D01*
X116609630Y-69383815D01*
X114397440Y-69383815D01*
X114397440Y-69050000D01*
X114353162Y-68814683D01*
X114214090Y-68598559D01*
X114001890Y-68453569D01*
X113750000Y-68402560D01*
X112050000Y-68402560D01*
X111814683Y-68446838D01*
X111598559Y-68585910D01*
X111453569Y-68798110D01*
X111402560Y-69050000D01*
X111402560Y-70750000D01*
X111446838Y-70985317D01*
X111585910Y-71201441D01*
X111798110Y-71346431D01*
X111865541Y-71360086D01*
X111820853Y-71389946D01*
X111498946Y-71871715D01*
X111385907Y-72440000D01*
X103432000Y-72440000D01*
X103432000Y-66630912D01*
X104898693Y-66630912D01*
X104917173Y-66830620D01*
X105290925Y-66948357D01*
X105681282Y-66914103D01*
X105882827Y-66830620D01*
X105901307Y-66630912D01*
X105400000Y-66129605D01*
X104898693Y-66630912D01*
X103432000Y-66630912D01*
X103432000Y-65840925D01*
X104401643Y-65840925D01*
X104435897Y-66231282D01*
X104519380Y-66432827D01*
X104719088Y-66451307D01*
X105220395Y-65950000D01*
X105579605Y-65950000D01*
X106080912Y-66451307D01*
X106280620Y-66432827D01*
X106398357Y-66059075D01*
X106364103Y-65668718D01*
X106280620Y-65467173D01*
X106080912Y-65448693D01*
X105579605Y-65950000D01*
X105220395Y-65950000D01*
X104719088Y-65448693D01*
X104519380Y-65467173D01*
X104401643Y-65840925D01*
X103432000Y-65840925D01*
X103432000Y-65269088D01*
X104898693Y-65269088D01*
X105400000Y-65770395D01*
X105901307Y-65269088D01*
X105882827Y-65069380D01*
X105509075Y-64951643D01*
X105118718Y-64985897D01*
X104917173Y-65069380D01*
X104898693Y-65269088D01*
X103432000Y-65269088D01*
X103432000Y-63064125D01*
X103711828Y-62877149D01*
X104014660Y-62423930D01*
X104121000Y-61889321D01*
X104121000Y-60798679D01*
X104014660Y-60264070D01*
X103711828Y-59810851D01*
X103630000Y-59756175D01*
X103630000Y-59511167D01*
X104412838Y-59511167D01*
X104554883Y-59854943D01*
X104817673Y-60118192D01*
X105161201Y-60260838D01*
X105533167Y-60261162D01*
X105656989Y-60210000D01*
X106025331Y-60210000D01*
X106035910Y-60226441D01*
X106248110Y-60371431D01*
X106500000Y-60422440D01*
X107700000Y-60422440D01*
X107935317Y-60378162D01*
X108049978Y-60304380D01*
X108148110Y-60371431D01*
X108400000Y-60422440D01*
X109600000Y-60422440D01*
X109835317Y-60378162D01*
X110051441Y-60239090D01*
X110196431Y-60026890D01*
X110247440Y-59775000D01*
X110247440Y-59025000D01*
X110203162Y-58789683D01*
X110179256Y-58752532D01*
X113127073Y-58752532D01*
X113225736Y-59019387D01*
X113835461Y-59245908D01*
X114485460Y-59221856D01*
X114974264Y-59019387D01*
X115072927Y-58752532D01*
X119627073Y-58752532D01*
X119725736Y-59019387D01*
X120335461Y-59245908D01*
X120985460Y-59221856D01*
X121474264Y-59019387D01*
X121572927Y-58752532D01*
X120600000Y-57779605D01*
X119627073Y-58752532D01*
X115072927Y-58752532D01*
X114100000Y-57779605D01*
X113127073Y-58752532D01*
X110179256Y-58752532D01*
X110064090Y-58573559D01*
X109851890Y-58428569D01*
X109600000Y-58377560D01*
X108773073Y-58377560D01*
X107730974Y-57335461D01*
X112454092Y-57335461D01*
X112478144Y-57985460D01*
X112680613Y-58474264D01*
X112947468Y-58572927D01*
X113920395Y-57600000D01*
X114279605Y-57600000D01*
X115252532Y-58572927D01*
X115519387Y-58474264D01*
X115745908Y-57864539D01*
X115726331Y-57335461D01*
X118954092Y-57335461D01*
X118978144Y-57985460D01*
X119180613Y-58474264D01*
X119447468Y-58572927D01*
X120420395Y-57600000D01*
X120779605Y-57600000D01*
X121752532Y-58572927D01*
X122019387Y-58474264D01*
X122245908Y-57864539D01*
X122221856Y-57214540D01*
X122019387Y-56725736D01*
X121752532Y-56627073D01*
X120779605Y-57600000D01*
X120420395Y-57600000D01*
X119447468Y-56627073D01*
X119180613Y-56725736D01*
X118954092Y-57335461D01*
X115726331Y-57335461D01*
X115721856Y-57214540D01*
X115519387Y-56725736D01*
X115252532Y-56627073D01*
X114279605Y-57600000D01*
X113920395Y-57600000D01*
X112947468Y-56627073D01*
X112680613Y-56725736D01*
X112454092Y-57335461D01*
X107730974Y-57335461D01*
X107547440Y-57151928D01*
X107547440Y-56447468D01*
X113127073Y-56447468D01*
X114100000Y-57420395D01*
X115072927Y-56447468D01*
X119627073Y-56447468D01*
X120600000Y-57420395D01*
X121572927Y-56447468D01*
X121474264Y-56180613D01*
X120864539Y-55954092D01*
X120214540Y-55978144D01*
X119725736Y-56180613D01*
X119627073Y-56447468D01*
X115072927Y-56447468D01*
X114974264Y-56180613D01*
X114364539Y-55954092D01*
X113714540Y-55978144D01*
X113225736Y-56180613D01*
X113127073Y-56447468D01*
X107547440Y-56447468D01*
X107547440Y-56350000D01*
X107503162Y-56114683D01*
X107364090Y-55898559D01*
X107151890Y-55753569D01*
X106900000Y-55702560D01*
X105400000Y-55702560D01*
X105164683Y-55746838D01*
X104948559Y-55885910D01*
X104803569Y-56098110D01*
X104752560Y-56350000D01*
X104752560Y-57650000D01*
X104796838Y-57885317D01*
X104935910Y-58101441D01*
X105148110Y-58246431D01*
X105400000Y-58297440D01*
X106401928Y-58297440D01*
X106484891Y-58380403D01*
X106264683Y-58421838D01*
X106048559Y-58560910D01*
X106028683Y-58590000D01*
X105934421Y-58590000D01*
X105878327Y-58533808D01*
X105534799Y-58391162D01*
X105162833Y-58390838D01*
X104819057Y-58532883D01*
X104555808Y-58795673D01*
X104413162Y-59139201D01*
X104412838Y-59511167D01*
X103630000Y-59511167D01*
X103630000Y-58166000D01*
X103572148Y-57875161D01*
X103407401Y-57628599D01*
X103402771Y-57623969D01*
X103466000Y-57306093D01*
X103466000Y-57247907D01*
X103352961Y-56679622D01*
X103031054Y-56197853D01*
X102549285Y-55875946D01*
X101981000Y-55762907D01*
X101412715Y-55875946D01*
X100930946Y-56197853D01*
X100711000Y-56527026D01*
X100491054Y-56197853D01*
X100009285Y-55875946D01*
X99441000Y-55762907D01*
X98872715Y-55875946D01*
X98390946Y-56197853D01*
X98171000Y-56527026D01*
X97951054Y-56197853D01*
X97469285Y-55875946D01*
X96901000Y-55762907D01*
X96332715Y-55875946D01*
X95850946Y-56197853D01*
X95631000Y-56527026D01*
X95411054Y-56197853D01*
X94929285Y-55875946D01*
X94361000Y-55762907D01*
X93792715Y-55875946D01*
X93310946Y-56197853D01*
X93091000Y-56527026D01*
X92871054Y-56197853D01*
X92389285Y-55875946D01*
X91821000Y-55762907D01*
X91252715Y-55875946D01*
X90770946Y-56197853D01*
X90551000Y-56527026D01*
X90331054Y-56197853D01*
X89849285Y-55875946D01*
X89281000Y-55762907D01*
X88712715Y-55875946D01*
X88230946Y-56197853D01*
X88011000Y-56527026D01*
X87791054Y-56197853D01*
X87309285Y-55875946D01*
X86741000Y-55762907D01*
X86172715Y-55875946D01*
X85690946Y-56197853D01*
X85663150Y-56239452D01*
X85654162Y-56191683D01*
X85515090Y-55975559D01*
X85302890Y-55830569D01*
X85051000Y-55779560D01*
X83351000Y-55779560D01*
X83115683Y-55823838D01*
X82899559Y-55962910D01*
X82754569Y-56175110D01*
X82740914Y-56242541D01*
X82711054Y-56197853D01*
X82229285Y-55875946D01*
X81661000Y-55762907D01*
X81092715Y-55875946D01*
X80610946Y-56197853D01*
X80391000Y-56527026D01*
X80171054Y-56197853D01*
X79689285Y-55875946D01*
X79121000Y-55762907D01*
X78552715Y-55875946D01*
X78070946Y-56197853D01*
X77851000Y-56527026D01*
X77631054Y-56197853D01*
X77149285Y-55875946D01*
X76581000Y-55762907D01*
X76012715Y-55875946D01*
X75530946Y-56197853D01*
X75311000Y-56527026D01*
X75091054Y-56197853D01*
X74609285Y-55875946D01*
X74041000Y-55762907D01*
X73472715Y-55875946D01*
X72990946Y-56197853D01*
X72771000Y-56527026D01*
X72551054Y-56197853D01*
X72069285Y-55875946D01*
X71501000Y-55762907D01*
X70932715Y-55875946D01*
X70450946Y-56197853D01*
X70231000Y-56527026D01*
X70011054Y-56197853D01*
X69529285Y-55875946D01*
X68961000Y-55762907D01*
X68392715Y-55875946D01*
X67910946Y-56197853D01*
X67683298Y-56538553D01*
X67616183Y-56395642D01*
X67187924Y-56005355D01*
X66777890Y-55835524D01*
X66548000Y-55956845D01*
X66548000Y-57150000D01*
X66568000Y-57150000D01*
X66568000Y-57404000D01*
X66548000Y-57404000D01*
X66548000Y-58597155D01*
X66777890Y-58718476D01*
X67187924Y-58548645D01*
X67566000Y-58204091D01*
X67566000Y-59561067D01*
X67192172Y-59810851D01*
X66900670Y-60247113D01*
X66882059Y-60184059D01*
X66538026Y-59758370D01*
X66057277Y-59496740D01*
X65983070Y-59481780D01*
X65767000Y-59604280D01*
X65767000Y-61217000D01*
X65787000Y-61217000D01*
X65787000Y-61471000D01*
X65767000Y-61471000D01*
X65767000Y-61491000D01*
X65513000Y-61491000D01*
X65513000Y-61471000D01*
X65493000Y-61471000D01*
X65493000Y-61217000D01*
X65513000Y-61217000D01*
X65513000Y-59604280D01*
X65296930Y-59481780D01*
X65222723Y-59496740D01*
X64741974Y-59758370D01*
X64397941Y-60184059D01*
X64379330Y-60247113D01*
X64087828Y-59810851D01*
X63960000Y-59725439D01*
X63960000Y-58774440D01*
X64731000Y-58774440D01*
X64966317Y-58730162D01*
X65182441Y-58591090D01*
X65327431Y-58378890D01*
X65349301Y-58270893D01*
X65654076Y-58548645D01*
X66064110Y-58718476D01*
X66294000Y-58597155D01*
X66294000Y-57404000D01*
X66274000Y-57404000D01*
X66274000Y-57150000D01*
X66294000Y-57150000D01*
X66294000Y-55956845D01*
X66064110Y-55835524D01*
X65654076Y-56005355D01*
X65351063Y-56281501D01*
X65334162Y-56191683D01*
X65195090Y-55975559D01*
X64982890Y-55830569D01*
X64731000Y-55779560D01*
X63031000Y-55779560D01*
X62795683Y-55823838D01*
X62579559Y-55962910D01*
X62434569Y-56175110D01*
X62383560Y-56427000D01*
X62383560Y-58127000D01*
X62427838Y-58362317D01*
X62440000Y-58381217D01*
X62440000Y-59591803D01*
X62112172Y-59810851D01*
X61809340Y-60264070D01*
X61703000Y-60798679D01*
X61703000Y-61889321D01*
X61809340Y-62423930D01*
X62112172Y-62877149D01*
X62565391Y-63179981D01*
X63100000Y-63286321D01*
X63634609Y-63179981D01*
X63796804Y-63071606D01*
X64272999Y-63547801D01*
X64272999Y-68064079D01*
X63880000Y-67985907D01*
X63311715Y-68098946D01*
X62829946Y-68420853D01*
X62610000Y-68750026D01*
X62390054Y-68420853D01*
X61908285Y-68098946D01*
X61340000Y-67985907D01*
X60771715Y-68098946D01*
X60289946Y-68420853D01*
X59968039Y-68902622D01*
X59855000Y-69470907D01*
X59855000Y-69529093D01*
X59870779Y-69608419D01*
X59415598Y-70063600D01*
X59250851Y-70310162D01*
X59192999Y-70601001D01*
X59192999Y-71730255D01*
X57083001Y-69620257D01*
X57083001Y-68231001D01*
X57042422Y-68027000D01*
X57025149Y-67940161D01*
X56860402Y-67693600D01*
X56493201Y-67326399D01*
X56564093Y-66970000D01*
X56451054Y-66401715D01*
X56129147Y-65919946D01*
X55647378Y-65598039D01*
X55079093Y-65485000D01*
X55020907Y-65485000D01*
X54452622Y-65598039D01*
X53970853Y-65919946D01*
X53781655Y-66203101D01*
X53781645Y-66203076D01*
X53391358Y-65774817D01*
X52866892Y-65528514D01*
X52637000Y-65649181D01*
X52637000Y-66843000D01*
X52657000Y-66843000D01*
X52657000Y-67097000D01*
X52637000Y-67097000D01*
X52637000Y-67117000D01*
X52383000Y-67117000D01*
X52383000Y-67097000D01*
X51189845Y-67097000D01*
X51068524Y-67326890D01*
X51238355Y-67736924D01*
X51628642Y-68165183D01*
X51771553Y-68232298D01*
X51430853Y-68459946D01*
X51108946Y-68941715D01*
X50995907Y-69510000D01*
X51108946Y-70078285D01*
X51430853Y-70560054D01*
X51760026Y-70780000D01*
X51430853Y-70999946D01*
X51108946Y-71481715D01*
X50995907Y-72050000D01*
X51108946Y-72618285D01*
X51430853Y-73100054D01*
X51912622Y-73421961D01*
X52190000Y-73477135D01*
X52190000Y-75251785D01*
X52005072Y-75215000D01*
X51294928Y-75215000D01*
X50958000Y-75282019D01*
X50958000Y-66613110D01*
X51068524Y-66613110D01*
X51189845Y-66843000D01*
X52383000Y-66843000D01*
X52383000Y-65649181D01*
X52153108Y-65528514D01*
X51628642Y-65774817D01*
X51238355Y-66203076D01*
X51068524Y-66613110D01*
X50958000Y-66613110D01*
X50958000Y-63196282D01*
X52791323Y-63196282D01*
X53008252Y-63563730D01*
X53968518Y-63951853D01*
X55004216Y-63942955D01*
X55919748Y-63563730D01*
X56136677Y-63196282D01*
X54464000Y-61523605D01*
X52791323Y-63196282D01*
X50958000Y-63196282D01*
X50958000Y-60848518D01*
X51856147Y-60848518D01*
X51865045Y-61884216D01*
X52244270Y-62799748D01*
X52611718Y-63016677D01*
X54284395Y-61344000D01*
X54643605Y-61344000D01*
X56316282Y-63016677D01*
X56683730Y-62799748D01*
X57071853Y-61839482D01*
X57062955Y-60803784D01*
X56683730Y-59888252D01*
X56316282Y-59671323D01*
X54643605Y-61344000D01*
X54284395Y-61344000D01*
X52611718Y-59671323D01*
X52244270Y-59888252D01*
X51856147Y-60848518D01*
X50958000Y-60848518D01*
X50958000Y-59491718D01*
X52791323Y-59491718D01*
X54464000Y-61164395D01*
X56136677Y-59491718D01*
X55919748Y-59124270D01*
X54959482Y-58736147D01*
X53923784Y-58745045D01*
X53008252Y-59124270D01*
X52791323Y-59491718D01*
X50958000Y-59491718D01*
X50958000Y-54710000D01*
X123290000Y-54710000D01*
X123290000Y-115290000D01*
X123290000Y-115290000D01*
G37*
X123290000Y-115290000D02*
X110455512Y-115290000D01*
X115858762Y-109886750D01*
X116610000Y-109886750D01*
X116610000Y-111227309D01*
X116706673Y-111460698D01*
X116885301Y-111639327D01*
X117118690Y-111736000D01*
X118459250Y-111736000D01*
X118618000Y-111577250D01*
X118618000Y-109728000D01*
X118872000Y-109728000D01*
X118872000Y-111577250D01*
X119030750Y-111736000D01*
X120371310Y-111736000D01*
X120604699Y-111639327D01*
X120783327Y-111460698D01*
X120880000Y-111227309D01*
X120880000Y-109886750D01*
X120721250Y-109728000D01*
X118872000Y-109728000D01*
X118618000Y-109728000D01*
X116768750Y-109728000D01*
X116610000Y-109886750D01*
X115858762Y-109886750D01*
X116610000Y-109135513D01*
X116610000Y-109315250D01*
X116768750Y-109474000D01*
X118618000Y-109474000D01*
X118618000Y-107624750D01*
X118872000Y-107624750D01*
X118872000Y-109474000D01*
X120721250Y-109474000D01*
X120880000Y-109315250D01*
X120880000Y-107974691D01*
X120783327Y-107741302D01*
X120604699Y-107562673D01*
X120371310Y-107466000D01*
X119030750Y-107466000D01*
X118872000Y-107624750D01*
X118618000Y-107624750D01*
X118459250Y-107466000D01*
X118279513Y-107466000D01*
X119089212Y-106656301D01*
X119167815Y-106656370D01*
X119952800Y-106332020D01*
X120553909Y-105731959D01*
X120879628Y-104947541D01*
X120880370Y-104098185D01*
X120556020Y-103313200D01*
X119955959Y-102712091D01*
X119171541Y-102386372D01*
X118322185Y-102385630D01*
X117679999Y-102650977D01*
X117679999Y-101651513D01*
X117920946Y-101410566D01*
X118318459Y-101575628D01*
X119167815Y-101576370D01*
X119952800Y-101252020D01*
X120553909Y-100651959D01*
X120879628Y-99867541D01*
X120880370Y-99018185D01*
X120556020Y-98233200D01*
X119955959Y-97632091D01*
X119171541Y-97306372D01*
X118322185Y-97305630D01*
X117537200Y-97629980D01*
X116936091Y-98230041D01*
X116610372Y-99014459D01*
X116609630Y-99863815D01*
X116775423Y-100265064D01*
X116297243Y-100743245D01*
X116121657Y-101006027D01*
X116059999Y-101316001D01*
X116059999Y-105927490D01*
X113974852Y-108012637D01*
X113719147Y-107629946D01*
X113389974Y-107410000D01*
X113719147Y-107190054D01*
X114041054Y-106708285D01*
X114154093Y-106140000D01*
X114041054Y-105571715D01*
X113719147Y-105089946D01*
X113389974Y-104870000D01*
X113719147Y-104650054D01*
X114041054Y-104168285D01*
X114154093Y-103600000D01*
X114041054Y-103031715D01*
X113719147Y-102549946D01*
X113237378Y-102228039D01*
X112669093Y-102115000D01*
X112610907Y-102115000D01*
X112477292Y-102141578D01*
X117442756Y-97176115D01*
X117618342Y-96913332D01*
X117679999Y-96603359D01*
X117679999Y-96230516D01*
X118318459Y-96495628D01*
X119167815Y-96496370D01*
X119952800Y-96172020D01*
X120553909Y-95571959D01*
X120879628Y-94787541D01*
X120880370Y-93938185D01*
X120714577Y-93536936D01*
X122622757Y-91628756D01*
X122798343Y-91365973D01*
X122833178Y-91190841D01*
X122860000Y-91056000D01*
X122860000Y-67650000D01*
X122798342Y-67340026D01*
X122710549Y-67208635D01*
X122622756Y-67077243D01*
X120922756Y-65377244D01*
X120840736Y-65322440D01*
X120659974Y-65201658D01*
X120350000Y-65140000D01*
X112250027Y-65140000D01*
X112251441Y-65139090D01*
X112328678Y-65026050D01*
X112448839Y-65002148D01*
X112695401Y-64837401D01*
X113798064Y-63734738D01*
X114423795Y-63735284D01*
X115024943Y-63486894D01*
X115485278Y-63027363D01*
X115554773Y-62860000D01*
X119144953Y-62860000D01*
X119213106Y-63024943D01*
X119672637Y-63485278D01*
X120273352Y-63734716D01*
X120923795Y-63735284D01*
X121524943Y-63486894D01*
X121985278Y-63027363D01*
X122234716Y-62426648D01*
X122235284Y-61776205D01*
X121986894Y-61175057D01*
X121527363Y-60714722D01*
X120926648Y-60465284D01*
X120276205Y-60464716D01*
X119675057Y-60713106D01*
X119214722Y-61172637D01*
X119145227Y-61340000D01*
X115555047Y-61340000D01*
X115486894Y-61175057D01*
X115027363Y-60714722D01*
X114426648Y-60465284D01*
X113776205Y-60464716D01*
X113175057Y-60713106D01*
X112714722Y-61172637D01*
X112465284Y-61773352D01*
X112464716Y-62423795D01*
X112609354Y-62773844D01*
X112053517Y-63329681D01*
X112051890Y-63328569D01*
X111800000Y-63277560D01*
X110600000Y-63277560D01*
X110364683Y-63321838D01*
X110148559Y-63460910D01*
X110003569Y-63673110D01*
X109952560Y-63925000D01*
X109952560Y-64101927D01*
X109126928Y-64927560D01*
X108650000Y-64927560D01*
X108414683Y-64971838D01*
X108198559Y-65110910D01*
X108053569Y-65323110D01*
X108002560Y-65575000D01*
X108002560Y-66325000D01*
X108046838Y-66560317D01*
X108185910Y-66776441D01*
X108398110Y-66921431D01*
X108650000Y-66972440D01*
X109850000Y-66972440D01*
X110085317Y-66928162D01*
X110199978Y-66854380D01*
X110298110Y-66921431D01*
X110550000Y-66972440D01*
X111750000Y-66972440D01*
X111985317Y-66928162D01*
X112201441Y-66789090D01*
X112221317Y-66760000D01*
X120014488Y-66760000D01*
X121240000Y-67985513D01*
X121240000Y-90720487D01*
X119569054Y-92391434D01*
X119171541Y-92226372D01*
X118322185Y-92225630D01*
X117679999Y-92490977D01*
X117679999Y-91491513D01*
X117920946Y-91250566D01*
X118318459Y-91415628D01*
X119167815Y-91416370D01*
X119952800Y-91092020D01*
X120553909Y-90491959D01*
X120879628Y-89707541D01*
X120880370Y-88858185D01*
X120556020Y-88073200D01*
X119955959Y-87472091D01*
X119171541Y-87146372D01*
X118322185Y-87145630D01*
X117537200Y-87469980D01*
X116936091Y-88070041D01*
X116610372Y-88854459D01*
X116609630Y-89703815D01*
X116775423Y-90105064D01*
X116410000Y-90470488D01*
X116410000Y-87681512D01*
X117920946Y-86170566D01*
X118318459Y-86335628D01*
X119167815Y-86336370D01*
X119952800Y-86012020D01*
X120553909Y-85411959D01*
X120879628Y-84627541D01*
X120880370Y-83778185D01*
X120556020Y-82993200D01*
X119955959Y-82392091D01*
X119171541Y-82066372D01*
X118322185Y-82065630D01*
X117537200Y-82389980D01*
X116936091Y-82990041D01*
X116610372Y-83774459D01*
X116609630Y-84623815D01*
X116775423Y-85025064D01*
X115027244Y-86773244D01*
X114851658Y-87036026D01*
X114790000Y-87346000D01*
X114790000Y-95012559D01*
X114665162Y-95313201D01*
X114664838Y-95685167D01*
X114806883Y-96028943D01*
X115069673Y-96292192D01*
X115413201Y-96434838D01*
X115785167Y-96435162D01*
X115968388Y-96359457D01*
X113744598Y-98583247D01*
X113744598Y-98001198D01*
X113700320Y-97765881D01*
X113580143Y-97579121D01*
X113693589Y-97413088D01*
X113744598Y-97161198D01*
X113744598Y-95461198D01*
X113700320Y-95225881D01*
X113580143Y-95039121D01*
X113693589Y-94873088D01*
X113744598Y-94621198D01*
X113744598Y-92921198D01*
X113700320Y-92685881D01*
X113580143Y-92499121D01*
X113693589Y-92333088D01*
X113744598Y-92081198D01*
X113744598Y-90381198D01*
X113700320Y-90145881D01*
X113580143Y-89959121D01*
X113693589Y-89793088D01*
X113744598Y-89541198D01*
X113744598Y-87841198D01*
X113700320Y-87605881D01*
X113580143Y-87419121D01*
X113693589Y-87253088D01*
X113744598Y-87001198D01*
X113744598Y-85301198D01*
X113700320Y-85065881D01*
X113580143Y-84879121D01*
X113693589Y-84713088D01*
X113744598Y-84461198D01*
X113744598Y-82761198D01*
X113700320Y-82525881D01*
X113580143Y-82339121D01*
X113693589Y-82173088D01*
X113744598Y-81921198D01*
X113744598Y-80221198D01*
X113700320Y-79985881D01*
X113561248Y-79769757D01*
X113349048Y-79624767D01*
X113097158Y-79573758D01*
X111397158Y-79573758D01*
X111161841Y-79618036D01*
X110975081Y-79738213D01*
X110809048Y-79624767D01*
X110557158Y-79573758D01*
X108857158Y-79573758D01*
X108621841Y-79618036D01*
X108405717Y-79757108D01*
X108260727Y-79969308D01*
X108209718Y-80221198D01*
X108209718Y-81921198D01*
X108253996Y-82156515D01*
X108374173Y-82343275D01*
X108260727Y-82509308D01*
X108209718Y-82761198D01*
X108209718Y-84461198D01*
X108253996Y-84696515D01*
X108374173Y-84883275D01*
X108260727Y-85049308D01*
X108209718Y-85301198D01*
X108209718Y-87001198D01*
X108253996Y-87236515D01*
X108374173Y-87423275D01*
X108260727Y-87589308D01*
X108209718Y-87841198D01*
X108209718Y-89541198D01*
X108253996Y-89776515D01*
X108374173Y-89963275D01*
X108260727Y-90129308D01*
X108209718Y-90381198D01*
X108209718Y-92081198D01*
X108253996Y-92316515D01*
X108374173Y-92503275D01*
X108260727Y-92669308D01*
X108209718Y-92921198D01*
X108209718Y-94621198D01*
X108253996Y-94856515D01*
X108374173Y-95043275D01*
X108260727Y-95209308D01*
X108209718Y-95461198D01*
X108209718Y-97161198D01*
X108253996Y-97396515D01*
X108374173Y-97583275D01*
X108260727Y-97749308D01*
X108209718Y-98001198D01*
X108209718Y-99701198D01*
X108253996Y-99936515D01*
X108393068Y-100152639D01*
X108605268Y-100297629D01*
X108857158Y-100348638D01*
X110557158Y-100348638D01*
X110792475Y-100304360D01*
X110979235Y-100184183D01*
X111145268Y-100297629D01*
X111397158Y-100348638D01*
X111979208Y-100348638D01*
X111237846Y-101090000D01*
X102405503Y-101090000D01*
X102095529Y-101151658D01*
X101979864Y-101228943D01*
X101832746Y-101327244D01*
X101101974Y-102058017D01*
X100801113Y-102182330D01*
X100537864Y-102445120D01*
X100442488Y-102674809D01*
X98310000Y-100542321D01*
X98310000Y-100346383D01*
X98479158Y-100380638D01*
X100179158Y-100380638D01*
X100414475Y-100336360D01*
X100601235Y-100216183D01*
X100767268Y-100329629D01*
X101019158Y-100380638D01*
X102719158Y-100380638D01*
X102954475Y-100336360D01*
X103170599Y-100197288D01*
X103315589Y-99985088D01*
X103366598Y-99733198D01*
X103366598Y-98033198D01*
X103322320Y-97797881D01*
X103202143Y-97611121D01*
X103315589Y-97445088D01*
X103366598Y-97193198D01*
X103366598Y-95493198D01*
X103322320Y-95257881D01*
X103202143Y-95071121D01*
X103315589Y-94905088D01*
X103366598Y-94653198D01*
X103366598Y-92953198D01*
X103322320Y-92717881D01*
X103202143Y-92531121D01*
X103315589Y-92365088D01*
X103366598Y-92113198D01*
X103366598Y-90413198D01*
X103322320Y-90177881D01*
X103202143Y-89991121D01*
X103315589Y-89825088D01*
X103366598Y-89573198D01*
X103366598Y-87873198D01*
X103322320Y-87637881D01*
X103202143Y-87451121D01*
X103315589Y-87285088D01*
X103366598Y-87033198D01*
X103366598Y-85333198D01*
X103322320Y-85097881D01*
X103202143Y-84911121D01*
X103315589Y-84745088D01*
X103366598Y-84493198D01*
X103366598Y-82793198D01*
X103322320Y-82557881D01*
X103202143Y-82371121D01*
X103315589Y-82205088D01*
X103366598Y-81953198D01*
X103366598Y-80253198D01*
X103322320Y-80017881D01*
X103183248Y-79801757D01*
X102971048Y-79656767D01*
X102719158Y-79605758D01*
X101019158Y-79605758D01*
X100783841Y-79650036D01*
X100597081Y-79770213D01*
X100431048Y-79656767D01*
X100179158Y-79605758D01*
X99569044Y-79605758D01*
X99630987Y-79543815D01*
X116609630Y-79543815D01*
X116933980Y-80328800D01*
X117534041Y-80929909D01*
X118318459Y-81255628D01*
X119167815Y-81256370D01*
X119952800Y-80932020D01*
X120553909Y-80331959D01*
X120879628Y-79547541D01*
X120880370Y-78698185D01*
X120556020Y-77913200D01*
X119955959Y-77312091D01*
X119171541Y-76986372D01*
X118322185Y-76985630D01*
X117537200Y-77309980D01*
X116936091Y-77910041D01*
X116610372Y-78694459D01*
X116609630Y-79543815D01*
X99630987Y-79543815D01*
X100738520Y-78436282D01*
X103591323Y-78436282D01*
X103808252Y-78803730D01*
X104768518Y-79191853D01*
X105804216Y-79182955D01*
X106719748Y-78803730D01*
X106936677Y-78436282D01*
X105264000Y-76763605D01*
X103591323Y-78436282D01*
X100738520Y-78436282D01*
X102659811Y-76514991D01*
X102665045Y-77124216D01*
X103044270Y-78039748D01*
X103411718Y-78256677D01*
X105084395Y-76584000D01*
X105443605Y-76584000D01*
X107116282Y-78256677D01*
X107483730Y-78039748D01*
X107871853Y-77079482D01*
X107862955Y-76043784D01*
X107483730Y-75128252D01*
X107116282Y-74911323D01*
X105443605Y-76584000D01*
X105084395Y-76584000D01*
X105070253Y-76569858D01*
X105249858Y-76390253D01*
X105264000Y-76404395D01*
X106936677Y-74731718D01*
X106719748Y-74364270D01*
X105759482Y-73976147D01*
X104723784Y-73985045D01*
X103808252Y-74364270D01*
X103591324Y-74731716D01*
X103478544Y-74618936D01*
X103432000Y-74665480D01*
X103432000Y-72440000D01*
X111385907Y-72440000D01*
X111498946Y-73008285D01*
X111820853Y-73490054D01*
X112150026Y-73710000D01*
X111820853Y-73929946D01*
X111498946Y-74411715D01*
X111385907Y-74980000D01*
X111498946Y-75548285D01*
X111820853Y-76030054D01*
X112302622Y-76351961D01*
X112870907Y-76465000D01*
X112929093Y-76465000D01*
X113497378Y-76351961D01*
X113979147Y-76030054D01*
X114301054Y-75548285D01*
X114414093Y-74980000D01*
X114311418Y-74463815D01*
X116609630Y-74463815D01*
X116933980Y-75248800D01*
X117534041Y-75849909D01*
X118318459Y-76175628D01*
X119167815Y-76176370D01*
X119952800Y-75852020D01*
X120553909Y-75251959D01*
X120879628Y-74467541D01*
X120880370Y-73618185D01*
X120556020Y-72833200D01*
X119955959Y-72232091D01*
X119171541Y-71906372D01*
X118322185Y-71905630D01*
X117537200Y-72229980D01*
X116936091Y-72830041D01*
X116610372Y-73614459D01*
X116609630Y-74463815D01*
X114311418Y-74463815D01*
X114301054Y-74411715D01*
X113979147Y-73929946D01*
X113649974Y-73710000D01*
X113979147Y-73490054D01*
X114301054Y-73008285D01*
X114414093Y-72440000D01*
X114301054Y-71871715D01*
X113979147Y-71389946D01*
X113937548Y-71362150D01*
X113985317Y-71353162D01*
X114201441Y-71214090D01*
X114346431Y-71001890D01*
X114397440Y-70750000D01*
X114397440Y-69383815D01*
X116609630Y-69383815D01*
X116933980Y-70168800D01*
X117534041Y-70769909D01*
X118318459Y-71095628D01*
X119167815Y-71096370D01*
X119952800Y-70772020D01*
X120553909Y-70171959D01*
X120879628Y-69387541D01*
X120880370Y-68538185D01*
X120556020Y-67753200D01*
X119955959Y-67152091D01*
X119171541Y-66826372D01*
X118322185Y-66825630D01*
X117537200Y-67149980D01*
X116936091Y-67750041D01*
X116610372Y-68534459D01*
X116609630Y-69383815D01*
X114397440Y-69383815D01*
X114397440Y-69050000D01*
X114353162Y-68814683D01*
X114214090Y-68598559D01*
X114001890Y-68453569D01*
X113750000Y-68402560D01*
X112050000Y-68402560D01*
X111814683Y-68446838D01*
X111598559Y-68585910D01*
X111453569Y-68798110D01*
X111402560Y-69050000D01*
X111402560Y-70750000D01*
X111446838Y-70985317D01*
X111585910Y-71201441D01*
X111798110Y-71346431D01*
X111865541Y-71360086D01*
X111820853Y-71389946D01*
X111498946Y-71871715D01*
X111385907Y-72440000D01*
X103432000Y-72440000D01*
X103432000Y-66630912D01*
X104898693Y-66630912D01*
X104917173Y-66830620D01*
X105290925Y-66948357D01*
X105681282Y-66914103D01*
X105882827Y-66830620D01*
X105901307Y-66630912D01*
X105400000Y-66129605D01*
X104898693Y-66630912D01*
X103432000Y-66630912D01*
X103432000Y-65840925D01*
X104401643Y-65840925D01*
X104435897Y-66231282D01*
X104519380Y-66432827D01*
X104719088Y-66451307D01*
X105220395Y-65950000D01*
X105579605Y-65950000D01*
X106080912Y-66451307D01*
X106280620Y-66432827D01*
X106398357Y-66059075D01*
X106364103Y-65668718D01*
X106280620Y-65467173D01*
X106080912Y-65448693D01*
X105579605Y-65950000D01*
X105220395Y-65950000D01*
X104719088Y-65448693D01*
X104519380Y-65467173D01*
X104401643Y-65840925D01*
X103432000Y-65840925D01*
X103432000Y-65269088D01*
X104898693Y-65269088D01*
X105400000Y-65770395D01*
X105901307Y-65269088D01*
X105882827Y-65069380D01*
X105509075Y-64951643D01*
X105118718Y-64985897D01*
X104917173Y-65069380D01*
X104898693Y-65269088D01*
X103432000Y-65269088D01*
X103432000Y-63064125D01*
X103711828Y-62877149D01*
X104014660Y-62423930D01*
X104121000Y-61889321D01*
X104121000Y-60798679D01*
X104014660Y-60264070D01*
X103711828Y-59810851D01*
X103630000Y-59756175D01*
X103630000Y-59511167D01*
X104412838Y-59511167D01*
X104554883Y-59854943D01*
X104817673Y-60118192D01*
X105161201Y-60260838D01*
X105533167Y-60261162D01*
X105656989Y-60210000D01*
X106025331Y-60210000D01*
X106035910Y-60226441D01*
X106248110Y-60371431D01*
X106500000Y-60422440D01*
X107700000Y-60422440D01*
X107935317Y-60378162D01*
X108049978Y-60304380D01*
X108148110Y-60371431D01*
X108400000Y-60422440D01*
X109600000Y-60422440D01*
X109835317Y-60378162D01*
X110051441Y-60239090D01*
X110196431Y-60026890D01*
X110247440Y-59775000D01*
X110247440Y-59025000D01*
X110203162Y-58789683D01*
X110179256Y-58752532D01*
X113127073Y-58752532D01*
X113225736Y-59019387D01*
X113835461Y-59245908D01*
X114485460Y-59221856D01*
X114974264Y-59019387D01*
X115072927Y-58752532D01*
X119627073Y-58752532D01*
X119725736Y-59019387D01*
X120335461Y-59245908D01*
X120985460Y-59221856D01*
X121474264Y-59019387D01*
X121572927Y-58752532D01*
X120600000Y-57779605D01*
X119627073Y-58752532D01*
X115072927Y-58752532D01*
X114100000Y-57779605D01*
X113127073Y-58752532D01*
X110179256Y-58752532D01*
X110064090Y-58573559D01*
X109851890Y-58428569D01*
X109600000Y-58377560D01*
X108773073Y-58377560D01*
X107730974Y-57335461D01*
X112454092Y-57335461D01*
X112478144Y-57985460D01*
X112680613Y-58474264D01*
X112947468Y-58572927D01*
X113920395Y-57600000D01*
X114279605Y-57600000D01*
X115252532Y-58572927D01*
X115519387Y-58474264D01*
X115745908Y-57864539D01*
X115726331Y-57335461D01*
X118954092Y-57335461D01*
X118978144Y-57985460D01*
X119180613Y-58474264D01*
X119447468Y-58572927D01*
X120420395Y-57600000D01*
X120779605Y-57600000D01*
X121752532Y-58572927D01*
X122019387Y-58474264D01*
X122245908Y-57864539D01*
X122221856Y-57214540D01*
X122019387Y-56725736D01*
X121752532Y-56627073D01*
X120779605Y-57600000D01*
X120420395Y-57600000D01*
X119447468Y-56627073D01*
X119180613Y-56725736D01*
X118954092Y-57335461D01*
X115726331Y-57335461D01*
X115721856Y-57214540D01*
X115519387Y-56725736D01*
X115252532Y-56627073D01*
X114279605Y-57600000D01*
X113920395Y-57600000D01*
X112947468Y-56627073D01*
X112680613Y-56725736D01*
X112454092Y-57335461D01*
X107730974Y-57335461D01*
X107547440Y-57151928D01*
X107547440Y-56447468D01*
X113127073Y-56447468D01*
X114100000Y-57420395D01*
X115072927Y-56447468D01*
X119627073Y-56447468D01*
X120600000Y-57420395D01*
X121572927Y-56447468D01*
X121474264Y-56180613D01*
X120864539Y-55954092D01*
X120214540Y-55978144D01*
X119725736Y-56180613D01*
X119627073Y-56447468D01*
X115072927Y-56447468D01*
X114974264Y-56180613D01*
X114364539Y-55954092D01*
X113714540Y-55978144D01*
X113225736Y-56180613D01*
X113127073Y-56447468D01*
X107547440Y-56447468D01*
X107547440Y-56350000D01*
X107503162Y-56114683D01*
X107364090Y-55898559D01*
X107151890Y-55753569D01*
X106900000Y-55702560D01*
X105400000Y-55702560D01*
X105164683Y-55746838D01*
X104948559Y-55885910D01*
X104803569Y-56098110D01*
X104752560Y-56350000D01*
X104752560Y-57650000D01*
X104796838Y-57885317D01*
X104935910Y-58101441D01*
X105148110Y-58246431D01*
X105400000Y-58297440D01*
X106401928Y-58297440D01*
X106484891Y-58380403D01*
X106264683Y-58421838D01*
X106048559Y-58560910D01*
X106028683Y-58590000D01*
X105934421Y-58590000D01*
X105878327Y-58533808D01*
X105534799Y-58391162D01*
X105162833Y-58390838D01*
X104819057Y-58532883D01*
X104555808Y-58795673D01*
X104413162Y-59139201D01*
X104412838Y-59511167D01*
X103630000Y-59511167D01*
X103630000Y-58166000D01*
X103572148Y-57875161D01*
X103407401Y-57628599D01*
X103402771Y-57623969D01*
X103466000Y-57306093D01*
X103466000Y-57247907D01*
X103352961Y-56679622D01*
X103031054Y-56197853D01*
X102549285Y-55875946D01*
X101981000Y-55762907D01*
X101412715Y-55875946D01*
X100930946Y-56197853D01*
X100711000Y-56527026D01*
X100491054Y-56197853D01*
X100009285Y-55875946D01*
X99441000Y-55762907D01*
X98872715Y-55875946D01*
X98390946Y-56197853D01*
X98171000Y-56527026D01*
X97951054Y-56197853D01*
X97469285Y-55875946D01*
X96901000Y-55762907D01*
X96332715Y-55875946D01*
X95850946Y-56197853D01*
X95631000Y-56527026D01*
X95411054Y-56197853D01*
X94929285Y-55875946D01*
X94361000Y-55762907D01*
X93792715Y-55875946D01*
X93310946Y-56197853D01*
X93091000Y-56527026D01*
X92871054Y-56197853D01*
X92389285Y-55875946D01*
X91821000Y-55762907D01*
X91252715Y-55875946D01*
X90770946Y-56197853D01*
X90551000Y-56527026D01*
X90331054Y-56197853D01*
X89849285Y-55875946D01*
X89281000Y-55762907D01*
X88712715Y-55875946D01*
X88230946Y-56197853D01*
X88011000Y-56527026D01*
X87791054Y-56197853D01*
X87309285Y-55875946D01*
X86741000Y-55762907D01*
X86172715Y-55875946D01*
X85690946Y-56197853D01*
X85663150Y-56239452D01*
X85654162Y-56191683D01*
X85515090Y-55975559D01*
X85302890Y-55830569D01*
X85051000Y-55779560D01*
X83351000Y-55779560D01*
X83115683Y-55823838D01*
X82899559Y-55962910D01*
X82754569Y-56175110D01*
X82740914Y-56242541D01*
X82711054Y-56197853D01*
X82229285Y-55875946D01*
X81661000Y-55762907D01*
X81092715Y-55875946D01*
X80610946Y-56197853D01*
X80391000Y-56527026D01*
X80171054Y-56197853D01*
X79689285Y-55875946D01*
X79121000Y-55762907D01*
X78552715Y-55875946D01*
X78070946Y-56197853D01*
X77851000Y-56527026D01*
X77631054Y-56197853D01*
X77149285Y-55875946D01*
X76581000Y-55762907D01*
X76012715Y-55875946D01*
X75530946Y-56197853D01*
X75311000Y-56527026D01*
X75091054Y-56197853D01*
X74609285Y-55875946D01*
X74041000Y-55762907D01*
X73472715Y-55875946D01*
X72990946Y-56197853D01*
X72771000Y-56527026D01*
X72551054Y-56197853D01*
X72069285Y-55875946D01*
X71501000Y-55762907D01*
X70932715Y-55875946D01*
X70450946Y-56197853D01*
X70231000Y-56527026D01*
X70011054Y-56197853D01*
X69529285Y-55875946D01*
X68961000Y-55762907D01*
X68392715Y-55875946D01*
X67910946Y-56197853D01*
X67683298Y-56538553D01*
X67616183Y-56395642D01*
X67187924Y-56005355D01*
X66777890Y-55835524D01*
X66548000Y-55956845D01*
X66548000Y-57150000D01*
X66568000Y-57150000D01*
X66568000Y-57404000D01*
X66548000Y-57404000D01*
X66548000Y-58597155D01*
X66777890Y-58718476D01*
X67187924Y-58548645D01*
X67566000Y-58204091D01*
X67566000Y-59561067D01*
X67192172Y-59810851D01*
X66900670Y-60247113D01*
X66882059Y-60184059D01*
X66538026Y-59758370D01*
X66057277Y-59496740D01*
X65983070Y-59481780D01*
X65767000Y-59604280D01*
X65767000Y-61217000D01*
X65787000Y-61217000D01*
X65787000Y-61471000D01*
X65767000Y-61471000D01*
X65767000Y-61491000D01*
X65513000Y-61491000D01*
X65513000Y-61471000D01*
X65493000Y-61471000D01*
X65493000Y-61217000D01*
X65513000Y-61217000D01*
X65513000Y-59604280D01*
X65296930Y-59481780D01*
X65222723Y-59496740D01*
X64741974Y-59758370D01*
X64397941Y-60184059D01*
X64379330Y-60247113D01*
X64087828Y-59810851D01*
X63960000Y-59725439D01*
X63960000Y-58774440D01*
X64731000Y-58774440D01*
X64966317Y-58730162D01*
X65182441Y-58591090D01*
X65327431Y-58378890D01*
X65349301Y-58270893D01*
X65654076Y-58548645D01*
X66064110Y-58718476D01*
X66294000Y-58597155D01*
X66294000Y-57404000D01*
X66274000Y-57404000D01*
X66274000Y-57150000D01*
X66294000Y-57150000D01*
X66294000Y-55956845D01*
X66064110Y-55835524D01*
X65654076Y-56005355D01*
X65351063Y-56281501D01*
X65334162Y-56191683D01*
X65195090Y-55975559D01*
X64982890Y-55830569D01*
X64731000Y-55779560D01*
X63031000Y-55779560D01*
X62795683Y-55823838D01*
X62579559Y-55962910D01*
X62434569Y-56175110D01*
X62383560Y-56427000D01*
X62383560Y-58127000D01*
X62427838Y-58362317D01*
X62440000Y-58381217D01*
X62440000Y-59591803D01*
X62112172Y-59810851D01*
X61809340Y-60264070D01*
X61703000Y-60798679D01*
X61703000Y-61889321D01*
X61809340Y-62423930D01*
X62112172Y-62877149D01*
X62565391Y-63179981D01*
X63100000Y-63286321D01*
X63634609Y-63179981D01*
X63796804Y-63071606D01*
X64272999Y-63547801D01*
X64272999Y-68064079D01*
X63880000Y-67985907D01*
X63311715Y-68098946D01*
X62829946Y-68420853D01*
X62610000Y-68750026D01*
X62390054Y-68420853D01*
X61908285Y-68098946D01*
X61340000Y-67985907D01*
X60771715Y-68098946D01*
X60289946Y-68420853D01*
X59968039Y-68902622D01*
X59855000Y-69470907D01*
X59855000Y-69529093D01*
X59870779Y-69608419D01*
X59415598Y-70063600D01*
X59250851Y-70310162D01*
X59192999Y-70601001D01*
X59192999Y-71730255D01*
X57083001Y-69620257D01*
X57083001Y-68231001D01*
X57042422Y-68027000D01*
X57025149Y-67940161D01*
X56860402Y-67693600D01*
X56493201Y-67326399D01*
X56564093Y-66970000D01*
X56451054Y-66401715D01*
X56129147Y-65919946D01*
X55647378Y-65598039D01*
X55079093Y-65485000D01*
X55020907Y-65485000D01*
X54452622Y-65598039D01*
X53970853Y-65919946D01*
X53781655Y-66203101D01*
X53781645Y-66203076D01*
X53391358Y-65774817D01*
X52866892Y-65528514D01*
X52637000Y-65649181D01*
X52637000Y-66843000D01*
X52657000Y-66843000D01*
X52657000Y-67097000D01*
X52637000Y-67097000D01*
X52637000Y-67117000D01*
X52383000Y-67117000D01*
X52383000Y-67097000D01*
X51189845Y-67097000D01*
X51068524Y-67326890D01*
X51238355Y-67736924D01*
X51628642Y-68165183D01*
X51771553Y-68232298D01*
X51430853Y-68459946D01*
X51108946Y-68941715D01*
X50995907Y-69510000D01*
X51108946Y-70078285D01*
X51430853Y-70560054D01*
X51760026Y-70780000D01*
X51430853Y-70999946D01*
X51108946Y-71481715D01*
X50995907Y-72050000D01*
X51108946Y-72618285D01*
X51430853Y-73100054D01*
X51912622Y-73421961D01*
X52190000Y-73477135D01*
X52190000Y-75251785D01*
X52005072Y-75215000D01*
X51294928Y-75215000D01*
X50958000Y-75282019D01*
X50958000Y-66613110D01*
X51068524Y-66613110D01*
X51189845Y-66843000D01*
X52383000Y-66843000D01*
X52383000Y-65649181D01*
X52153108Y-65528514D01*
X51628642Y-65774817D01*
X51238355Y-66203076D01*
X51068524Y-66613110D01*
X50958000Y-66613110D01*
X50958000Y-63196282D01*
X52791323Y-63196282D01*
X53008252Y-63563730D01*
X53968518Y-63951853D01*
X55004216Y-63942955D01*
X55919748Y-63563730D01*
X56136677Y-63196282D01*
X54464000Y-61523605D01*
X52791323Y-63196282D01*
X50958000Y-63196282D01*
X50958000Y-60848518D01*
X51856147Y-60848518D01*
X51865045Y-61884216D01*
X52244270Y-62799748D01*
X52611718Y-63016677D01*
X54284395Y-61344000D01*
X54643605Y-61344000D01*
X56316282Y-63016677D01*
X56683730Y-62799748D01*
X57071853Y-61839482D01*
X57062955Y-60803784D01*
X56683730Y-59888252D01*
X56316282Y-59671323D01*
X54643605Y-61344000D01*
X54284395Y-61344000D01*
X52611718Y-59671323D01*
X52244270Y-59888252D01*
X51856147Y-60848518D01*
X50958000Y-60848518D01*
X50958000Y-59491718D01*
X52791323Y-59491718D01*
X54464000Y-61164395D01*
X56136677Y-59491718D01*
X55919748Y-59124270D01*
X54959482Y-58736147D01*
X53923784Y-58745045D01*
X53008252Y-59124270D01*
X52791323Y-59491718D01*
X50958000Y-59491718D01*
X50958000Y-54710000D01*
X123290000Y-54710000D01*
X123290000Y-115290000D01*
G36*
X58483999Y-81613799D02*
X58483999Y-82074001D01*
X58541851Y-82364840D01*
X58706598Y-82611402D01*
X58933795Y-82838600D01*
X59098542Y-82948679D01*
X59180358Y-83003347D01*
X59471197Y-83061199D01*
X62758201Y-83061199D01*
X62775590Y-83057740D01*
X63563500Y-83057740D01*
X63798817Y-83013462D01*
X64014941Y-82874390D01*
X64159931Y-82662190D01*
X64210940Y-82410300D01*
X64210940Y-82371242D01*
X65747400Y-83907702D01*
X65993961Y-84072449D01*
X66284801Y-84130301D01*
X67355499Y-84130301D01*
X67527758Y-84302560D01*
X67350000Y-84302560D01*
X67114683Y-84346838D01*
X66898559Y-84485910D01*
X66753569Y-84698110D01*
X66702560Y-84950000D01*
X66702560Y-85850000D01*
X66746838Y-86085317D01*
X66885910Y-86301441D01*
X67098110Y-86446431D01*
X67350000Y-86497440D01*
X67722638Y-86497440D01*
X67792765Y-86567567D01*
X67703569Y-86698110D01*
X67695321Y-86738838D01*
X67510099Y-86862599D01*
X65307064Y-89065634D01*
X65235590Y-88954559D01*
X65023390Y-88809569D01*
X64771500Y-88758560D01*
X64341242Y-88758560D01*
X64537401Y-88562401D01*
X64635366Y-88415785D01*
X64835317Y-88378162D01*
X65051441Y-88239090D01*
X65196431Y-88026890D01*
X65247440Y-87775000D01*
X65247440Y-87025000D01*
X65203162Y-86789683D01*
X65120457Y-86661155D01*
X65194431Y-86552890D01*
X65245440Y-86301000D01*
X65245440Y-85551000D01*
X65201162Y-85315683D01*
X65062090Y-85099559D01*
X64849890Y-84954569D01*
X64598000Y-84903560D01*
X63398000Y-84903560D01*
X63162683Y-84947838D01*
X63048022Y-85021620D01*
X62949890Y-84954569D01*
X62698000Y-84903560D01*
X61498000Y-84903560D01*
X61262683Y-84947838D01*
X61224880Y-84972163D01*
X61229925Y-84806702D01*
X60800000Y-84376777D01*
X60370075Y-84806702D01*
X60375860Y-84996442D01*
X60712930Y-85098128D01*
X61063257Y-85063083D01*
X61120319Y-85039447D01*
X61046559Y-85086910D01*
X61026683Y-85116000D01*
X60384000Y-85116000D01*
X60211897Y-85150234D01*
X60074027Y-85177657D01*
X59811244Y-85353243D01*
X58400048Y-86764440D01*
X58364090Y-86708559D01*
X58151890Y-86563569D01*
X57900000Y-86512560D01*
X56100000Y-86512560D01*
X55864683Y-86556838D01*
X55648559Y-86695910D01*
X55503569Y-86908110D01*
X55452560Y-87160000D01*
X55452560Y-88960000D01*
X55496838Y-89195317D01*
X55635910Y-89411441D01*
X55848110Y-89556431D01*
X55864344Y-89559719D01*
X55581845Y-89982509D01*
X55465000Y-90569928D01*
X55465000Y-90630072D01*
X55581845Y-91217491D01*
X55914591Y-91715481D01*
X56213000Y-91914871D01*
X56213000Y-94281000D01*
X56274658Y-94590974D01*
X56423518Y-94813758D01*
X56450244Y-94853756D01*
X59896560Y-98300073D01*
X59896560Y-102312393D01*
X59740347Y-102247528D01*
X59068550Y-102246942D01*
X59007721Y-102186113D01*
X59420010Y-101916600D01*
X59880072Y-100800287D01*
X59877919Y-99592891D01*
X59420010Y-98487400D01*
X59007719Y-98217886D01*
X57023605Y-100202000D01*
X57037748Y-100216143D01*
X56858143Y-100395748D01*
X56844000Y-100381605D01*
X54859886Y-102365719D01*
X55129400Y-102778010D01*
X56245713Y-103238072D01*
X56886755Y-103236929D01*
X56562553Y-103560566D01*
X56099528Y-104675653D01*
X56098474Y-105883050D01*
X56559552Y-106998943D01*
X57101958Y-107542296D01*
X56864539Y-107454092D01*
X56214540Y-107478144D01*
X55725736Y-107680613D01*
X55627073Y-107947468D01*
X56600000Y-108920395D01*
X56614143Y-108906253D01*
X56793748Y-109085858D01*
X56779605Y-109100000D01*
X57752532Y-110072927D01*
X58019387Y-109974264D01*
X58245908Y-109364539D01*
X58226331Y-108835461D01*
X61454092Y-108835461D01*
X61478144Y-109485460D01*
X61680613Y-109974264D01*
X61947468Y-110072927D01*
X62920395Y-109100000D01*
X61947468Y-108127073D01*
X61680613Y-108225736D01*
X61454092Y-108835461D01*
X58226331Y-108835461D01*
X58221856Y-108714540D01*
X58019387Y-108225736D01*
X57752534Y-108127074D01*
X57846130Y-108033478D01*
X58527653Y-108316472D01*
X59735050Y-108317526D01*
X60850943Y-107856448D01*
X61705447Y-107003434D01*
X62168472Y-105888347D01*
X62169526Y-104680950D01*
X61708448Y-103565057D01*
X61393381Y-103249440D01*
X63690000Y-103249440D01*
X63690000Y-107575005D01*
X63364539Y-107454092D01*
X62714540Y-107478144D01*
X62225736Y-107680613D01*
X62127073Y-107947468D01*
X63100000Y-108920395D01*
X63114143Y-108906253D01*
X63293748Y-109085858D01*
X63279605Y-109100000D01*
X64252532Y-110072927D01*
X64519387Y-109974264D01*
X64630275Y-109675787D01*
X64999482Y-110044994D01*
X64989683Y-110046838D01*
X64773559Y-110185910D01*
X64628569Y-110398110D01*
X64577560Y-110650000D01*
X64577560Y-110976927D01*
X63541509Y-112012978D01*
X63426648Y-111965284D01*
X62776205Y-111964716D01*
X62175057Y-112213106D01*
X61714722Y-112672637D01*
X61645227Y-112840000D01*
X58055047Y-112840000D01*
X57986894Y-112675057D01*
X57527363Y-112214722D01*
X56926648Y-111965284D01*
X56276205Y-111964716D01*
X55675057Y-112213106D01*
X55214722Y-112672637D01*
X54965284Y-113273352D01*
X54964716Y-113923795D01*
X55213106Y-114524943D01*
X55672637Y-114985278D01*
X56273352Y-115234716D01*
X56923795Y-115235284D01*
X57524943Y-114986894D01*
X57985278Y-114527363D01*
X58054773Y-114360000D01*
X61644953Y-114360000D01*
X61713106Y-114524943D01*
X62172637Y-114985278D01*
X62773352Y-115234716D01*
X63423795Y-115235284D01*
X64024943Y-114986894D01*
X64485278Y-114527363D01*
X64675638Y-114068924D01*
X64760910Y-114201441D01*
X64973110Y-114346431D01*
X65225000Y-114397440D01*
X65975000Y-114397440D01*
X66210317Y-114353162D01*
X66297354Y-114297156D01*
X67290198Y-115290000D01*
X50958000Y-115290000D01*
X50958000Y-111456282D01*
X51521323Y-111456282D01*
X51738252Y-111823730D01*
X52698518Y-112211853D01*
X53734216Y-112202955D01*
X54649748Y-111823730D01*
X54866677Y-111456282D01*
X53194000Y-109783605D01*
X51521323Y-111456282D01*
X50958000Y-111456282D01*
X50958000Y-111020469D01*
X50974270Y-111059748D01*
X51341718Y-111276677D01*
X53014395Y-109604000D01*
X53373605Y-109604000D01*
X55046282Y-111276677D01*
X55413730Y-111059748D01*
X55681019Y-110398441D01*
X55725736Y-110519387D01*
X56335461Y-110745908D01*
X56985460Y-110721856D01*
X57474264Y-110519387D01*
X57572927Y-110252532D01*
X62127073Y-110252532D01*
X62225736Y-110519387D01*
X62835461Y-110745908D01*
X63485460Y-110721856D01*
X63974264Y-110519387D01*
X64072927Y-110252532D01*
X63100000Y-109279605D01*
X62127073Y-110252532D01*
X57572927Y-110252532D01*
X56600000Y-109279605D01*
X56585858Y-109293748D01*
X56406253Y-109114143D01*
X56420395Y-109100000D01*
X55447468Y-108127073D01*
X55404663Y-108142899D01*
X55046282Y-107931323D01*
X53373605Y-109604000D01*
X53014395Y-109604000D01*
X51341718Y-107931323D01*
X50974270Y-108148252D01*
X50958000Y-108188506D01*
X50958000Y-107751718D01*
X51521323Y-107751718D01*
X53194000Y-109424395D01*
X54866677Y-107751718D01*
X54649748Y-107384270D01*
X53689482Y-106996147D01*
X52653784Y-107005045D01*
X51738252Y-107384270D01*
X51521323Y-107751718D01*
X50958000Y-107751718D01*
X50958000Y-99603713D01*
X53807928Y-99603713D01*
X53810081Y-100811109D01*
X54267990Y-101916600D01*
X54680281Y-102186114D01*
X56664395Y-100202000D01*
X54680281Y-98217886D01*
X54267990Y-98487400D01*
X53807928Y-99603713D01*
X50958000Y-99603713D01*
X50958000Y-98038281D01*
X54859886Y-98038281D01*
X56844000Y-100022395D01*
X58828114Y-98038281D01*
X58558600Y-97625990D01*
X57442287Y-97165928D01*
X56234891Y-97168081D01*
X55129400Y-97625990D01*
X54859886Y-98038281D01*
X50958000Y-98038281D01*
X50958000Y-91927869D01*
X51168110Y-92071431D01*
X51420000Y-92122440D01*
X52720000Y-92122440D01*
X52955317Y-92078162D01*
X53171441Y-91939090D01*
X53316431Y-91726890D01*
X53367440Y-91475000D01*
X53367440Y-89975000D01*
X53323162Y-89739683D01*
X53184090Y-89523559D01*
X53087648Y-89457663D01*
X53092440Y-89434000D01*
X53092440Y-88234000D01*
X53048162Y-87998683D01*
X52974380Y-87884022D01*
X53041431Y-87785890D01*
X53092440Y-87534000D01*
X53092440Y-87057072D01*
X53572757Y-86576756D01*
X53748343Y-86313973D01*
X53810000Y-86004000D01*
X53810000Y-84749000D01*
X54022500Y-84749000D01*
X54181303Y-84986665D01*
X54622519Y-85281476D01*
X55142968Y-85385000D01*
X55757032Y-85385000D01*
X56277481Y-85281476D01*
X56718697Y-84986665D01*
X57013508Y-84545449D01*
X57099541Y-84112930D01*
X59901872Y-84112930D01*
X59936917Y-84463257D01*
X60003558Y-84624140D01*
X60193298Y-84629925D01*
X60623223Y-84200000D01*
X60976777Y-84200000D01*
X61406702Y-84629925D01*
X61596442Y-84624140D01*
X61698128Y-84287070D01*
X61663083Y-83936743D01*
X61596442Y-83775860D01*
X61406702Y-83770075D01*
X60976777Y-84200000D01*
X60623223Y-84200000D01*
X60193298Y-83770075D01*
X60003558Y-83775860D01*
X59901872Y-84112930D01*
X57099541Y-84112930D01*
X57117032Y-84025000D01*
X57031161Y-83593298D01*
X60370075Y-83593298D01*
X60800000Y-84023223D01*
X61229925Y-83593298D01*
X61224140Y-83403558D01*
X60887070Y-83301872D01*
X60536743Y-83336917D01*
X60375860Y-83403558D01*
X60370075Y-83593298D01*
X57031161Y-83593298D01*
X57013508Y-83504551D01*
X56718697Y-83063335D01*
X56277481Y-82768524D01*
X55757032Y-82665000D01*
X55412180Y-82665000D01*
X55356215Y-82383646D01*
X55131856Y-82047867D01*
X54796077Y-81823508D01*
X54400000Y-81744723D01*
X54260011Y-81772569D01*
X54260011Y-81430788D01*
X54385910Y-81626441D01*
X54598110Y-81771431D01*
X54850000Y-81822440D01*
X56150000Y-81822440D01*
X56385317Y-81778162D01*
X56601441Y-81639090D01*
X56746431Y-81426890D01*
X56797440Y-81175000D01*
X56797440Y-81024000D01*
X57894200Y-81024000D01*
X58483999Y-81613799D01*
X58483999Y-81613799D01*
G37*
X58483999Y-81613799D02*
X58483999Y-82074001D01*
X58541851Y-82364840D01*
X58706598Y-82611402D01*
X58933795Y-82838600D01*
X59098542Y-82948679D01*
X59180358Y-83003347D01*
X59471197Y-83061199D01*
X62758201Y-83061199D01*
X62775590Y-83057740D01*
X63563500Y-83057740D01*
X63798817Y-83013462D01*
X64014941Y-82874390D01*
X64159931Y-82662190D01*
X64210940Y-82410300D01*
X64210940Y-82371242D01*
X65747400Y-83907702D01*
X65993961Y-84072449D01*
X66284801Y-84130301D01*
X67355499Y-84130301D01*
X67527758Y-84302560D01*
X67350000Y-84302560D01*
X67114683Y-84346838D01*
X66898559Y-84485910D01*
X66753569Y-84698110D01*
X66702560Y-84950000D01*
X66702560Y-85850000D01*
X66746838Y-86085317D01*
X66885910Y-86301441D01*
X67098110Y-86446431D01*
X67350000Y-86497440D01*
X67722638Y-86497440D01*
X67792765Y-86567567D01*
X67703569Y-86698110D01*
X67695321Y-86738838D01*
X67510099Y-86862599D01*
X65307064Y-89065634D01*
X65235590Y-88954559D01*
X65023390Y-88809569D01*
X64771500Y-88758560D01*
X64341242Y-88758560D01*
X64537401Y-88562401D01*
X64635366Y-88415785D01*
X64835317Y-88378162D01*
X65051441Y-88239090D01*
X65196431Y-88026890D01*
X65247440Y-87775000D01*
X65247440Y-87025000D01*
X65203162Y-86789683D01*
X65120457Y-86661155D01*
X65194431Y-86552890D01*
X65245440Y-86301000D01*
X65245440Y-85551000D01*
X65201162Y-85315683D01*
X65062090Y-85099559D01*
X64849890Y-84954569D01*
X64598000Y-84903560D01*
X63398000Y-84903560D01*
X63162683Y-84947838D01*
X63048022Y-85021620D01*
X62949890Y-84954569D01*
X62698000Y-84903560D01*
X61498000Y-84903560D01*
X61262683Y-84947838D01*
X61224880Y-84972163D01*
X61229925Y-84806702D01*
X60800000Y-84376777D01*
X60370075Y-84806702D01*
X60375860Y-84996442D01*
X60712930Y-85098128D01*
X61063257Y-85063083D01*
X61120319Y-85039447D01*
X61046559Y-85086910D01*
X61026683Y-85116000D01*
X60384000Y-85116000D01*
X60211897Y-85150234D01*
X60074027Y-85177657D01*
X59811244Y-85353243D01*
X58400048Y-86764440D01*
X58364090Y-86708559D01*
X58151890Y-86563569D01*
X57900000Y-86512560D01*
X56100000Y-86512560D01*
X55864683Y-86556838D01*
X55648559Y-86695910D01*
X55503569Y-86908110D01*
X55452560Y-87160000D01*
X55452560Y-88960000D01*
X55496838Y-89195317D01*
X55635910Y-89411441D01*
X55848110Y-89556431D01*
X55864344Y-89559719D01*
X55581845Y-89982509D01*
X55465000Y-90569928D01*
X55465000Y-90630072D01*
X55581845Y-91217491D01*
X55914591Y-91715481D01*
X56213000Y-91914871D01*
X56213000Y-94281000D01*
X56274658Y-94590974D01*
X56423518Y-94813758D01*
X56450244Y-94853756D01*
X59896560Y-98300073D01*
X59896560Y-102312393D01*
X59740347Y-102247528D01*
X59068550Y-102246942D01*
X59007721Y-102186113D01*
X59420010Y-101916600D01*
X59880072Y-100800287D01*
X59877919Y-99592891D01*
X59420010Y-98487400D01*
X59007719Y-98217886D01*
X57023605Y-100202000D01*
X57037748Y-100216143D01*
X56858143Y-100395748D01*
X56844000Y-100381605D01*
X54859886Y-102365719D01*
X55129400Y-102778010D01*
X56245713Y-103238072D01*
X56886755Y-103236929D01*
X56562553Y-103560566D01*
X56099528Y-104675653D01*
X56098474Y-105883050D01*
X56559552Y-106998943D01*
X57101958Y-107542296D01*
X56864539Y-107454092D01*
X56214540Y-107478144D01*
X55725736Y-107680613D01*
X55627073Y-107947468D01*
X56600000Y-108920395D01*
X56614143Y-108906253D01*
X56793748Y-109085858D01*
X56779605Y-109100000D01*
X57752532Y-110072927D01*
X58019387Y-109974264D01*
X58245908Y-109364539D01*
X58226331Y-108835461D01*
X61454092Y-108835461D01*
X61478144Y-109485460D01*
X61680613Y-109974264D01*
X61947468Y-110072927D01*
X62920395Y-109100000D01*
X61947468Y-108127073D01*
X61680613Y-108225736D01*
X61454092Y-108835461D01*
X58226331Y-108835461D01*
X58221856Y-108714540D01*
X58019387Y-108225736D01*
X57752534Y-108127074D01*
X57846130Y-108033478D01*
X58527653Y-108316472D01*
X59735050Y-108317526D01*
X60850943Y-107856448D01*
X61705447Y-107003434D01*
X62168472Y-105888347D01*
X62169526Y-104680950D01*
X61708448Y-103565057D01*
X61393381Y-103249440D01*
X63690000Y-103249440D01*
X63690000Y-107575005D01*
X63364539Y-107454092D01*
X62714540Y-107478144D01*
X62225736Y-107680613D01*
X62127073Y-107947468D01*
X63100000Y-108920395D01*
X63114143Y-108906253D01*
X63293748Y-109085858D01*
X63279605Y-109100000D01*
X64252532Y-110072927D01*
X64519387Y-109974264D01*
X64630275Y-109675787D01*
X64999482Y-110044994D01*
X64989683Y-110046838D01*
X64773559Y-110185910D01*
X64628569Y-110398110D01*
X64577560Y-110650000D01*
X64577560Y-110976927D01*
X63541509Y-112012978D01*
X63426648Y-111965284D01*
X62776205Y-111964716D01*
X62175057Y-112213106D01*
X61714722Y-112672637D01*
X61645227Y-112840000D01*
X58055047Y-112840000D01*
X57986894Y-112675057D01*
X57527363Y-112214722D01*
X56926648Y-111965284D01*
X56276205Y-111964716D01*
X55675057Y-112213106D01*
X55214722Y-112672637D01*
X54965284Y-113273352D01*
X54964716Y-113923795D01*
X55213106Y-114524943D01*
X55672637Y-114985278D01*
X56273352Y-115234716D01*
X56923795Y-115235284D01*
X57524943Y-114986894D01*
X57985278Y-114527363D01*
X58054773Y-114360000D01*
X61644953Y-114360000D01*
X61713106Y-114524943D01*
X62172637Y-114985278D01*
X62773352Y-115234716D01*
X63423795Y-115235284D01*
X64024943Y-114986894D01*
X64485278Y-114527363D01*
X64675638Y-114068924D01*
X64760910Y-114201441D01*
X64973110Y-114346431D01*
X65225000Y-114397440D01*
X65975000Y-114397440D01*
X66210317Y-114353162D01*
X66297354Y-114297156D01*
X67290198Y-115290000D01*
X50958000Y-115290000D01*
X50958000Y-111456282D01*
X51521323Y-111456282D01*
X51738252Y-111823730D01*
X52698518Y-112211853D01*
X53734216Y-112202955D01*
X54649748Y-111823730D01*
X54866677Y-111456282D01*
X53194000Y-109783605D01*
X51521323Y-111456282D01*
X50958000Y-111456282D01*
X50958000Y-111020469D01*
X50974270Y-111059748D01*
X51341718Y-111276677D01*
X53014395Y-109604000D01*
X53373605Y-109604000D01*
X55046282Y-111276677D01*
X55413730Y-111059748D01*
X55681019Y-110398441D01*
X55725736Y-110519387D01*
X56335461Y-110745908D01*
X56985460Y-110721856D01*
X57474264Y-110519387D01*
X57572927Y-110252532D01*
X62127073Y-110252532D01*
X62225736Y-110519387D01*
X62835461Y-110745908D01*
X63485460Y-110721856D01*
X63974264Y-110519387D01*
X64072927Y-110252532D01*
X63100000Y-109279605D01*
X62127073Y-110252532D01*
X57572927Y-110252532D01*
X56600000Y-109279605D01*
X56585858Y-109293748D01*
X56406253Y-109114143D01*
X56420395Y-109100000D01*
X55447468Y-108127073D01*
X55404663Y-108142899D01*
X55046282Y-107931323D01*
X53373605Y-109604000D01*
X53014395Y-109604000D01*
X51341718Y-107931323D01*
X50974270Y-108148252D01*
X50958000Y-108188506D01*
X50958000Y-107751718D01*
X51521323Y-107751718D01*
X53194000Y-109424395D01*
X54866677Y-107751718D01*
X54649748Y-107384270D01*
X53689482Y-106996147D01*
X52653784Y-107005045D01*
X51738252Y-107384270D01*
X51521323Y-107751718D01*
X50958000Y-107751718D01*
X50958000Y-99603713D01*
X53807928Y-99603713D01*
X53810081Y-100811109D01*
X54267990Y-101916600D01*
X54680281Y-102186114D01*
X56664395Y-100202000D01*
X54680281Y-98217886D01*
X54267990Y-98487400D01*
X53807928Y-99603713D01*
X50958000Y-99603713D01*
X50958000Y-98038281D01*
X54859886Y-98038281D01*
X56844000Y-100022395D01*
X58828114Y-98038281D01*
X58558600Y-97625990D01*
X57442287Y-97165928D01*
X56234891Y-97168081D01*
X55129400Y-97625990D01*
X54859886Y-98038281D01*
X50958000Y-98038281D01*
X50958000Y-91927869D01*
X51168110Y-92071431D01*
X51420000Y-92122440D01*
X52720000Y-92122440D01*
X52955317Y-92078162D01*
X53171441Y-91939090D01*
X53316431Y-91726890D01*
X53367440Y-91475000D01*
X53367440Y-89975000D01*
X53323162Y-89739683D01*
X53184090Y-89523559D01*
X53087648Y-89457663D01*
X53092440Y-89434000D01*
X53092440Y-88234000D01*
X53048162Y-87998683D01*
X52974380Y-87884022D01*
X53041431Y-87785890D01*
X53092440Y-87534000D01*
X53092440Y-87057072D01*
X53572757Y-86576756D01*
X53748343Y-86313973D01*
X53810000Y-86004000D01*
X53810000Y-84749000D01*
X54022500Y-84749000D01*
X54181303Y-84986665D01*
X54622519Y-85281476D01*
X55142968Y-85385000D01*
X55757032Y-85385000D01*
X56277481Y-85281476D01*
X56718697Y-84986665D01*
X57013508Y-84545449D01*
X57099541Y-84112930D01*
X59901872Y-84112930D01*
X59936917Y-84463257D01*
X60003558Y-84624140D01*
X60193298Y-84629925D01*
X60623223Y-84200000D01*
X60976777Y-84200000D01*
X61406702Y-84629925D01*
X61596442Y-84624140D01*
X61698128Y-84287070D01*
X61663083Y-83936743D01*
X61596442Y-83775860D01*
X61406702Y-83770075D01*
X60976777Y-84200000D01*
X60623223Y-84200000D01*
X60193298Y-83770075D01*
X60003558Y-83775860D01*
X59901872Y-84112930D01*
X57099541Y-84112930D01*
X57117032Y-84025000D01*
X57031161Y-83593298D01*
X60370075Y-83593298D01*
X60800000Y-84023223D01*
X61229925Y-83593298D01*
X61224140Y-83403558D01*
X60887070Y-83301872D01*
X60536743Y-83336917D01*
X60375860Y-83403558D01*
X60370075Y-83593298D01*
X57031161Y-83593298D01*
X57013508Y-83504551D01*
X56718697Y-83063335D01*
X56277481Y-82768524D01*
X55757032Y-82665000D01*
X55412180Y-82665000D01*
X55356215Y-82383646D01*
X55131856Y-82047867D01*
X54796077Y-81823508D01*
X54400000Y-81744723D01*
X54260011Y-81772569D01*
X54260011Y-81430788D01*
X54385910Y-81626441D01*
X54598110Y-81771431D01*
X54850000Y-81822440D01*
X56150000Y-81822440D01*
X56385317Y-81778162D01*
X56601441Y-81639090D01*
X56746431Y-81426890D01*
X56797440Y-81175000D01*
X56797440Y-81024000D01*
X57894200Y-81024000D01*
X58483999Y-81613799D01*
G36*
X69941246Y-104967433D02*
X70476869Y-105325325D01*
X71108679Y-105451000D01*
X71691321Y-105451000D01*
X72190000Y-105351806D01*
X72190000Y-105964487D01*
X71926487Y-106228001D01*
X70361999Y-106228001D01*
X70052025Y-106289659D01*
X69991787Y-106329909D01*
X69880910Y-106403995D01*
X69879100Y-106403243D01*
X69323339Y-106402758D01*
X68809697Y-106614990D01*
X68416371Y-107007630D01*
X68203243Y-107520900D01*
X68202758Y-108076661D01*
X68414990Y-108590303D01*
X68807630Y-108983629D01*
X69320900Y-109196757D01*
X69876661Y-109197242D01*
X70390303Y-108985010D01*
X70783629Y-108592370D01*
X70996757Y-108079100D01*
X70996959Y-107848001D01*
X71589690Y-107848001D01*
X71256172Y-108070851D01*
X70953340Y-108524070D01*
X70847000Y-109058679D01*
X70847000Y-110149321D01*
X70953340Y-110683930D01*
X71256172Y-111137149D01*
X71709391Y-111439981D01*
X72244000Y-111546321D01*
X72778609Y-111439981D01*
X73231828Y-111137149D01*
X73514000Y-110714850D01*
X73796172Y-111137149D01*
X74249391Y-111439981D01*
X74784000Y-111546321D01*
X75102221Y-111483023D01*
X75630519Y-112011321D01*
X75530946Y-112077853D01*
X75311000Y-112407026D01*
X75091054Y-112077853D01*
X74609285Y-111755946D01*
X74041000Y-111642907D01*
X73472715Y-111755946D01*
X72990946Y-112077853D01*
X72669039Y-112559622D01*
X72556000Y-113127907D01*
X72556000Y-113186093D01*
X72619229Y-113503969D01*
X71996197Y-114127001D01*
X70776621Y-114127001D01*
X70834838Y-113986799D01*
X70835162Y-113614833D01*
X70693117Y-113271057D01*
X70430951Y-113008433D01*
X70783629Y-112656370D01*
X70996757Y-112143100D01*
X70997242Y-111587339D01*
X70785010Y-111073697D01*
X70392370Y-110680371D01*
X69879100Y-110467243D01*
X69348292Y-110466780D01*
X67560000Y-108678488D01*
X67560000Y-106482926D01*
X67585317Y-106478162D01*
X67801441Y-106339090D01*
X67946431Y-106126890D01*
X67997440Y-105875000D01*
X67997440Y-105125000D01*
X67953162Y-104889683D01*
X67814090Y-104673559D01*
X67721068Y-104610000D01*
X69702417Y-104610000D01*
X69941246Y-104967433D01*
X69941246Y-104967433D01*
G37*
X69941246Y-104967433D02*
X70476869Y-105325325D01*
X71108679Y-105451000D01*
X71691321Y-105451000D01*
X72190000Y-105351806D01*
X72190000Y-105964487D01*
X71926487Y-106228001D01*
X70361999Y-106228001D01*
X70052025Y-106289659D01*
X69991787Y-106329909D01*
X69880910Y-106403995D01*
X69879100Y-106403243D01*
X69323339Y-106402758D01*
X68809697Y-106614990D01*
X68416371Y-107007630D01*
X68203243Y-107520900D01*
X68202758Y-108076661D01*
X68414990Y-108590303D01*
X68807630Y-108983629D01*
X69320900Y-109196757D01*
X69876661Y-109197242D01*
X70390303Y-108985010D01*
X70783629Y-108592370D01*
X70996757Y-108079100D01*
X70996959Y-107848001D01*
X71589690Y-107848001D01*
X71256172Y-108070851D01*
X70953340Y-108524070D01*
X70847000Y-109058679D01*
X70847000Y-110149321D01*
X70953340Y-110683930D01*
X71256172Y-111137149D01*
X71709391Y-111439981D01*
X72244000Y-111546321D01*
X72778609Y-111439981D01*
X73231828Y-111137149D01*
X73514000Y-110714850D01*
X73796172Y-111137149D01*
X74249391Y-111439981D01*
X74784000Y-111546321D01*
X75102221Y-111483023D01*
X75630519Y-112011321D01*
X75530946Y-112077853D01*
X75311000Y-112407026D01*
X75091054Y-112077853D01*
X74609285Y-111755946D01*
X74041000Y-111642907D01*
X73472715Y-111755946D01*
X72990946Y-112077853D01*
X72669039Y-112559622D01*
X72556000Y-113127907D01*
X72556000Y-113186093D01*
X72619229Y-113503969D01*
X71996197Y-114127001D01*
X70776621Y-114127001D01*
X70834838Y-113986799D01*
X70835162Y-113614833D01*
X70693117Y-113271057D01*
X70430951Y-113008433D01*
X70783629Y-112656370D01*
X70996757Y-112143100D01*
X70997242Y-111587339D01*
X70785010Y-111073697D01*
X70392370Y-110680371D01*
X69879100Y-110467243D01*
X69348292Y-110466780D01*
X67560000Y-108678488D01*
X67560000Y-106482926D01*
X67585317Y-106478162D01*
X67801441Y-106339090D01*
X67946431Y-106126890D01*
X67997440Y-105875000D01*
X67997440Y-105125000D01*
X67953162Y-104889683D01*
X67814090Y-104673559D01*
X67721068Y-104610000D01*
X69702417Y-104610000D01*
X69941246Y-104967433D01*
G36*
X108615000Y-103314250D02*
X108773750Y-103473000D01*
X109973000Y-103473000D01*
X109973000Y-103453000D01*
X110227000Y-103453000D01*
X110227000Y-103473000D01*
X110247000Y-103473000D01*
X110247000Y-103727000D01*
X110227000Y-103727000D01*
X110227000Y-106013000D01*
X110247000Y-106013000D01*
X110247000Y-106267000D01*
X110227000Y-106267000D01*
X110227000Y-108553000D01*
X110247000Y-108553000D01*
X110247000Y-108807000D01*
X110227000Y-108807000D01*
X110227000Y-110000819D01*
X110456892Y-110121486D01*
X110981358Y-109875183D01*
X111371645Y-109446924D01*
X111371655Y-109446899D01*
X111560853Y-109730054D01*
X111978424Y-110009065D01*
X108482584Y-113504906D01*
X108546000Y-113186093D01*
X108546000Y-113127907D01*
X108432961Y-112559622D01*
X108111054Y-112077853D01*
X107871000Y-111917454D01*
X107871000Y-110438833D01*
X107831251Y-110239000D01*
X107809343Y-110128860D01*
X107633757Y-109866077D01*
X106804570Y-109036890D01*
X108658524Y-109036890D01*
X108828355Y-109446924D01*
X109218642Y-109875183D01*
X109743108Y-110121486D01*
X109973000Y-110000819D01*
X109973000Y-108807000D01*
X108779845Y-108807000D01*
X108658524Y-109036890D01*
X106804570Y-109036890D01*
X104898417Y-107130737D01*
X105804216Y-107122955D01*
X106719748Y-106743730D01*
X106865474Y-106496890D01*
X108658524Y-106496890D01*
X108828355Y-106906924D01*
X109218642Y-107335183D01*
X109377954Y-107410000D01*
X109218642Y-107484817D01*
X108828355Y-107913076D01*
X108658524Y-108323110D01*
X108779845Y-108553000D01*
X109973000Y-108553000D01*
X109973000Y-106267000D01*
X108779845Y-106267000D01*
X108658524Y-106496890D01*
X106865474Y-106496890D01*
X106936677Y-106376282D01*
X105264000Y-104703605D01*
X105249858Y-104717748D01*
X105070253Y-104538143D01*
X105084395Y-104524000D01*
X105070253Y-104509858D01*
X105249858Y-104330253D01*
X105264000Y-104344395D01*
X105278143Y-104330253D01*
X105457748Y-104509858D01*
X105443605Y-104524000D01*
X107116282Y-106196677D01*
X107483730Y-105979748D01*
X107871853Y-105019482D01*
X107862955Y-103983784D01*
X107822349Y-103885750D01*
X108615000Y-103885750D01*
X108615000Y-104576310D01*
X108711673Y-104809699D01*
X108890302Y-104988327D01*
X109099878Y-105075136D01*
X108828355Y-105373076D01*
X108658524Y-105783110D01*
X108779845Y-106013000D01*
X109973000Y-106013000D01*
X109973000Y-103727000D01*
X108773750Y-103727000D01*
X108615000Y-103885750D01*
X107822349Y-103885750D01*
X107483730Y-103068252D01*
X107116284Y-102851324D01*
X107229064Y-102738544D01*
X107200520Y-102710000D01*
X108615000Y-102710000D01*
X108615000Y-103314250D01*
X108615000Y-103314250D01*
G37*
X108615000Y-103314250D02*
X108773750Y-103473000D01*
X109973000Y-103473000D01*
X109973000Y-103453000D01*
X110227000Y-103453000D01*
X110227000Y-103473000D01*
X110247000Y-103473000D01*
X110247000Y-103727000D01*
X110227000Y-103727000D01*
X110227000Y-106013000D01*
X110247000Y-106013000D01*
X110247000Y-106267000D01*
X110227000Y-106267000D01*
X110227000Y-108553000D01*
X110247000Y-108553000D01*
X110247000Y-108807000D01*
X110227000Y-108807000D01*
X110227000Y-110000819D01*
X110456892Y-110121486D01*
X110981358Y-109875183D01*
X111371645Y-109446924D01*
X111371655Y-109446899D01*
X111560853Y-109730054D01*
X111978424Y-110009065D01*
X108482584Y-113504906D01*
X108546000Y-113186093D01*
X108546000Y-113127907D01*
X108432961Y-112559622D01*
X108111054Y-112077853D01*
X107871000Y-111917454D01*
X107871000Y-110438833D01*
X107831251Y-110239000D01*
X107809343Y-110128860D01*
X107633757Y-109866077D01*
X106804570Y-109036890D01*
X108658524Y-109036890D01*
X108828355Y-109446924D01*
X109218642Y-109875183D01*
X109743108Y-110121486D01*
X109973000Y-110000819D01*
X109973000Y-108807000D01*
X108779845Y-108807000D01*
X108658524Y-109036890D01*
X106804570Y-109036890D01*
X104898417Y-107130737D01*
X105804216Y-107122955D01*
X106719748Y-106743730D01*
X106865474Y-106496890D01*
X108658524Y-106496890D01*
X108828355Y-106906924D01*
X109218642Y-107335183D01*
X109377954Y-107410000D01*
X109218642Y-107484817D01*
X108828355Y-107913076D01*
X108658524Y-108323110D01*
X108779845Y-108553000D01*
X109973000Y-108553000D01*
X109973000Y-106267000D01*
X108779845Y-106267000D01*
X108658524Y-106496890D01*
X106865474Y-106496890D01*
X106936677Y-106376282D01*
X105264000Y-104703605D01*
X105249858Y-104717748D01*
X105070253Y-104538143D01*
X105084395Y-104524000D01*
X105070253Y-104509858D01*
X105249858Y-104330253D01*
X105264000Y-104344395D01*
X105278143Y-104330253D01*
X105457748Y-104509858D01*
X105443605Y-104524000D01*
X107116282Y-106196677D01*
X107483730Y-105979748D01*
X107871853Y-105019482D01*
X107862955Y-103983784D01*
X107822349Y-103885750D01*
X108615000Y-103885750D01*
X108615000Y-104576310D01*
X108711673Y-104809699D01*
X108890302Y-104988327D01*
X109099878Y-105075136D01*
X108828355Y-105373076D01*
X108658524Y-105783110D01*
X108779845Y-106013000D01*
X109973000Y-106013000D01*
X109973000Y-103727000D01*
X108773750Y-103727000D01*
X108615000Y-103885750D01*
X107822349Y-103885750D01*
X107483730Y-103068252D01*
X107116284Y-102851324D01*
X107229064Y-102738544D01*
X107200520Y-102710000D01*
X108615000Y-102710000D01*
X108615000Y-103314250D01*
G36*
X73923095Y-91575897D02*
X73776810Y-91515154D01*
X73424735Y-91514847D01*
X73099343Y-91649296D01*
X72850171Y-91898033D01*
X72715154Y-92223190D01*
X72714847Y-92575265D01*
X72849296Y-92900657D01*
X73098033Y-93149829D01*
X73279788Y-93225300D01*
X74690000Y-94635513D01*
X74690000Y-103242941D01*
X74615154Y-103423190D01*
X74614847Y-103775265D01*
X74749296Y-104100657D01*
X74998033Y-104349829D01*
X75323190Y-104484846D01*
X75675265Y-104485153D01*
X75814999Y-104427416D01*
X75814999Y-105024003D01*
X75876657Y-105333977D01*
X76017677Y-105545027D01*
X76052243Y-105596759D01*
X76603241Y-106147758D01*
X76629007Y-106164974D01*
X76866024Y-106323344D01*
X77175998Y-106385002D01*
X78569490Y-106385002D01*
X80027866Y-107843379D01*
X79991000Y-107864280D01*
X79991000Y-109477000D01*
X80011000Y-109477000D01*
X80011000Y-109731000D01*
X79991000Y-109731000D01*
X79991000Y-109751000D01*
X79737000Y-109751000D01*
X79737000Y-109731000D01*
X79717000Y-109731000D01*
X79717000Y-109477000D01*
X79737000Y-109477000D01*
X79737000Y-107864280D01*
X79520930Y-107741780D01*
X79446723Y-107756740D01*
X78965974Y-108018370D01*
X78621941Y-108444059D01*
X78603330Y-108507113D01*
X78311828Y-108070851D01*
X77858609Y-107768019D01*
X77324000Y-107661679D01*
X77309981Y-107664468D01*
X73855010Y-104209498D01*
X73855010Y-103559337D01*
X74167777Y-103246571D01*
X74343363Y-102983788D01*
X74405020Y-102673815D01*
X74405021Y-97916003D01*
X74403207Y-97906883D01*
X74343364Y-97606030D01*
X74167778Y-97343247D01*
X71184177Y-94359647D01*
X71356817Y-94327162D01*
X71572941Y-94188090D01*
X71717931Y-93975890D01*
X71768940Y-93724000D01*
X71768940Y-93216000D01*
X71724662Y-92980683D01*
X71670582Y-92896640D01*
X71908901Y-92737401D01*
X71983902Y-92662400D01*
X72148649Y-92415839D01*
X72163729Y-92340026D01*
X72206501Y-92124999D01*
X72206501Y-89859303D01*
X73923095Y-91575897D01*
X73923095Y-91575897D01*
G37*
X73923095Y-91575897D02*
X73776810Y-91515154D01*
X73424735Y-91514847D01*
X73099343Y-91649296D01*
X72850171Y-91898033D01*
X72715154Y-92223190D01*
X72714847Y-92575265D01*
X72849296Y-92900657D01*
X73098033Y-93149829D01*
X73279788Y-93225300D01*
X74690000Y-94635513D01*
X74690000Y-103242941D01*
X74615154Y-103423190D01*
X74614847Y-103775265D01*
X74749296Y-104100657D01*
X74998033Y-104349829D01*
X75323190Y-104484846D01*
X75675265Y-104485153D01*
X75814999Y-104427416D01*
X75814999Y-105024003D01*
X75876657Y-105333977D01*
X76017677Y-105545027D01*
X76052243Y-105596759D01*
X76603241Y-106147758D01*
X76629007Y-106164974D01*
X76866024Y-106323344D01*
X77175998Y-106385002D01*
X78569490Y-106385002D01*
X80027866Y-107843379D01*
X79991000Y-107864280D01*
X79991000Y-109477000D01*
X80011000Y-109477000D01*
X80011000Y-109731000D01*
X79991000Y-109731000D01*
X79991000Y-109751000D01*
X79737000Y-109751000D01*
X79737000Y-109731000D01*
X79717000Y-109731000D01*
X79717000Y-109477000D01*
X79737000Y-109477000D01*
X79737000Y-107864280D01*
X79520930Y-107741780D01*
X79446723Y-107756740D01*
X78965974Y-108018370D01*
X78621941Y-108444059D01*
X78603330Y-108507113D01*
X78311828Y-108070851D01*
X77858609Y-107768019D01*
X77324000Y-107661679D01*
X77309981Y-107664468D01*
X73855010Y-104209498D01*
X73855010Y-103559337D01*
X74167777Y-103246571D01*
X74343363Y-102983788D01*
X74405020Y-102673815D01*
X74405021Y-97916003D01*
X74403207Y-97906883D01*
X74343364Y-97606030D01*
X74167778Y-97343247D01*
X71184177Y-94359647D01*
X71356817Y-94327162D01*
X71572941Y-94188090D01*
X71717931Y-93975890D01*
X71768940Y-93724000D01*
X71768940Y-93216000D01*
X71724662Y-92980683D01*
X71670582Y-92896640D01*
X71908901Y-92737401D01*
X71983902Y-92662400D01*
X72148649Y-92415839D01*
X72163729Y-92340026D01*
X72206501Y-92124999D01*
X72206501Y-89859303D01*
X73923095Y-91575897D01*
G36*
X80121838Y-105135317D02*
X80260910Y-105351441D01*
X80473110Y-105496431D01*
X80725000Y-105547440D01*
X81201927Y-105547440D01*
X81377244Y-105722757D01*
X81640027Y-105898343D01*
X81950000Y-105960000D01*
X82259243Y-105960000D01*
X82285910Y-106001441D01*
X82498110Y-106146431D01*
X82750000Y-106197440D01*
X83151927Y-106197440D01*
X83190000Y-106235513D01*
X83190000Y-106425002D01*
X83238555Y-106669102D01*
X83117173Y-106719380D01*
X83098693Y-106919088D01*
X83600000Y-107420395D01*
X83614143Y-107406253D01*
X83793748Y-107585858D01*
X83779605Y-107600000D01*
X83793748Y-107614143D01*
X83614143Y-107793748D01*
X83600000Y-107779605D01*
X83585858Y-107793748D01*
X83406253Y-107614143D01*
X83420395Y-107600000D01*
X82919088Y-107098693D01*
X82719380Y-107117173D01*
X82601643Y-107490925D01*
X82620404Y-107704724D01*
X82404000Y-107661679D01*
X82181458Y-107705945D01*
X79673603Y-105198091D01*
X79726441Y-105164090D01*
X79871431Y-104951890D01*
X79879914Y-104910000D01*
X80079442Y-104910000D01*
X80121838Y-105135317D01*
X80121838Y-105135317D01*
G37*
X80121838Y-105135317D02*
X80260910Y-105351441D01*
X80473110Y-105496431D01*
X80725000Y-105547440D01*
X81201927Y-105547440D01*
X81377244Y-105722757D01*
X81640027Y-105898343D01*
X81950000Y-105960000D01*
X82259243Y-105960000D01*
X82285910Y-106001441D01*
X82498110Y-106146431D01*
X82750000Y-106197440D01*
X83151927Y-106197440D01*
X83190000Y-106235513D01*
X83190000Y-106425002D01*
X83238555Y-106669102D01*
X83117173Y-106719380D01*
X83098693Y-106919088D01*
X83600000Y-107420395D01*
X83614143Y-107406253D01*
X83793748Y-107585858D01*
X83779605Y-107600000D01*
X83793748Y-107614143D01*
X83614143Y-107793748D01*
X83600000Y-107779605D01*
X83585858Y-107793748D01*
X83406253Y-107614143D01*
X83420395Y-107600000D01*
X82919088Y-107098693D01*
X82719380Y-107117173D01*
X82601643Y-107490925D01*
X82620404Y-107704724D01*
X82404000Y-107661679D01*
X82181458Y-107705945D01*
X79673603Y-105198091D01*
X79726441Y-105164090D01*
X79871431Y-104951890D01*
X79879914Y-104910000D01*
X80079442Y-104910000D01*
X80121838Y-105135317D01*
G36*
X84498110Y-105196431D02*
X84750000Y-105247440D01*
X85401928Y-105247440D01*
X86377560Y-106223073D01*
X86377560Y-106404408D01*
X86018718Y-106435897D01*
X85817173Y-106519380D01*
X85798693Y-106719088D01*
X86300000Y-107220395D01*
X86314143Y-107206253D01*
X86493748Y-107385858D01*
X86479605Y-107400000D01*
X86493748Y-107414143D01*
X86314200Y-107593690D01*
X84810000Y-106089490D01*
X84810000Y-105900000D01*
X84748342Y-105590026D01*
X84660549Y-105458635D01*
X84572756Y-105327243D01*
X84320778Y-105075265D01*
X84498110Y-105196431D01*
X84498110Y-105196431D01*
G37*
X84498110Y-105196431D02*
X84750000Y-105247440D01*
X85401928Y-105247440D01*
X86377560Y-106223073D01*
X86377560Y-106404408D01*
X86018718Y-106435897D01*
X85817173Y-106519380D01*
X85798693Y-106719088D01*
X86300000Y-107220395D01*
X86314143Y-107206253D01*
X86493748Y-107385858D01*
X86479605Y-107400000D01*
X86493748Y-107414143D01*
X86314200Y-107593690D01*
X84810000Y-106089490D01*
X84810000Y-105900000D01*
X84748342Y-105590026D01*
X84660549Y-105458635D01*
X84572756Y-105327243D01*
X84320778Y-105075265D01*
X84498110Y-105196431D01*
G36*
X85835910Y-98326441D02*
X86048110Y-98471431D01*
X86300000Y-98522440D01*
X87500000Y-98522440D01*
X87735317Y-98478162D01*
X87849978Y-98404380D01*
X87948110Y-98471431D01*
X88200000Y-98522440D01*
X88901928Y-98522440D01*
X90315003Y-99935515D01*
X90314760Y-100213974D01*
X90456805Y-100557750D01*
X90719595Y-100820999D01*
X91063123Y-100963645D01*
X91089956Y-100963668D01*
X91089956Y-105165078D01*
X90814833Y-105164838D01*
X90511917Y-105290000D01*
X90382926Y-105290000D01*
X90378162Y-105264683D01*
X90239090Y-105048559D01*
X90026890Y-104903569D01*
X89775000Y-104852560D01*
X89025000Y-104852560D01*
X88789683Y-104896838D01*
X88573559Y-105035910D01*
X88428569Y-105248110D01*
X88420086Y-105290000D01*
X88382926Y-105290000D01*
X88378162Y-105264683D01*
X88304380Y-105150022D01*
X88371431Y-105051890D01*
X88422440Y-104800000D01*
X88422440Y-103600000D01*
X88378162Y-103364683D01*
X88239090Y-103148559D01*
X88200864Y-103122440D01*
X88300000Y-103122440D01*
X88535317Y-103078162D01*
X88751441Y-102939090D01*
X88896431Y-102726890D01*
X88947440Y-102475000D01*
X88947440Y-101725000D01*
X88903162Y-101489683D01*
X88764090Y-101273559D01*
X88551890Y-101128569D01*
X88300000Y-101077560D01*
X87623073Y-101077560D01*
X85797440Y-99251928D01*
X85797440Y-99000000D01*
X85753162Y-98764683D01*
X85614090Y-98548559D01*
X85544289Y-98500866D01*
X85601441Y-98464090D01*
X85746431Y-98251890D01*
X85756367Y-98202827D01*
X85835910Y-98326441D01*
X85835910Y-98326441D01*
G37*
X85835910Y-98326441D02*
X86048110Y-98471431D01*
X86300000Y-98522440D01*
X87500000Y-98522440D01*
X87735317Y-98478162D01*
X87849978Y-98404380D01*
X87948110Y-98471431D01*
X88200000Y-98522440D01*
X88901928Y-98522440D01*
X90315003Y-99935515D01*
X90314760Y-100213974D01*
X90456805Y-100557750D01*
X90719595Y-100820999D01*
X91063123Y-100963645D01*
X91089956Y-100963668D01*
X91089956Y-105165078D01*
X90814833Y-105164838D01*
X90511917Y-105290000D01*
X90382926Y-105290000D01*
X90378162Y-105264683D01*
X90239090Y-105048559D01*
X90026890Y-104903569D01*
X89775000Y-104852560D01*
X89025000Y-104852560D01*
X88789683Y-104896838D01*
X88573559Y-105035910D01*
X88428569Y-105248110D01*
X88420086Y-105290000D01*
X88382926Y-105290000D01*
X88378162Y-105264683D01*
X88304380Y-105150022D01*
X88371431Y-105051890D01*
X88422440Y-104800000D01*
X88422440Y-103600000D01*
X88378162Y-103364683D01*
X88239090Y-103148559D01*
X88200864Y-103122440D01*
X88300000Y-103122440D01*
X88535317Y-103078162D01*
X88751441Y-102939090D01*
X88896431Y-102726890D01*
X88947440Y-102475000D01*
X88947440Y-101725000D01*
X88903162Y-101489683D01*
X88764090Y-101273559D01*
X88551890Y-101128569D01*
X88300000Y-101077560D01*
X87623073Y-101077560D01*
X85797440Y-99251928D01*
X85797440Y-99000000D01*
X85753162Y-98764683D01*
X85614090Y-98548559D01*
X85544289Y-98500866D01*
X85601441Y-98464090D01*
X85746431Y-98251890D01*
X85756367Y-98202827D01*
X85835910Y-98326441D01*
G36*
X79898110Y-98571431D02*
X80150000Y-98622440D01*
X80665067Y-98622440D01*
X80664838Y-98885167D01*
X80806883Y-99228943D01*
X81069673Y-99492192D01*
X81372372Y-99617884D01*
X81465000Y-99710512D01*
X81465000Y-101015723D01*
X81400000Y-101002560D01*
X80200000Y-101002560D01*
X79964683Y-101046838D01*
X79910666Y-101081597D01*
X79947440Y-100900000D01*
X79947440Y-100300000D01*
X79903162Y-100064683D01*
X79764090Y-99848559D01*
X79551890Y-99703569D01*
X79300000Y-99652560D01*
X78500000Y-99652560D01*
X78264683Y-99696838D01*
X78048559Y-99835910D01*
X77903569Y-100048110D01*
X77852560Y-100300000D01*
X77852560Y-100900000D01*
X77896838Y-101135317D01*
X77982745Y-101268821D01*
X77928569Y-101348110D01*
X77877560Y-101600000D01*
X77877560Y-102800000D01*
X77921838Y-103035317D01*
X77995620Y-103149978D01*
X77928569Y-103248110D01*
X77909387Y-103342834D01*
X77865026Y-103351658D01*
X77759517Y-103422157D01*
X77602243Y-103527244D01*
X77434999Y-103694488D01*
X77434999Y-99935513D01*
X78748073Y-98622440D01*
X79450000Y-98622440D01*
X79685317Y-98578162D01*
X79799978Y-98504380D01*
X79898110Y-98571431D01*
X79898110Y-98571431D01*
G37*
X79898110Y-98571431D02*
X80150000Y-98622440D01*
X80665067Y-98622440D01*
X80664838Y-98885167D01*
X80806883Y-99228943D01*
X81069673Y-99492192D01*
X81372372Y-99617884D01*
X81465000Y-99710512D01*
X81465000Y-101015723D01*
X81400000Y-101002560D01*
X80200000Y-101002560D01*
X79964683Y-101046838D01*
X79910666Y-101081597D01*
X79947440Y-100900000D01*
X79947440Y-100300000D01*
X79903162Y-100064683D01*
X79764090Y-99848559D01*
X79551890Y-99703569D01*
X79300000Y-99652560D01*
X78500000Y-99652560D01*
X78264683Y-99696838D01*
X78048559Y-99835910D01*
X77903569Y-100048110D01*
X77852560Y-100300000D01*
X77852560Y-100900000D01*
X77896838Y-101135317D01*
X77982745Y-101268821D01*
X77928569Y-101348110D01*
X77877560Y-101600000D01*
X77877560Y-102800000D01*
X77921838Y-103035317D01*
X77995620Y-103149978D01*
X77928569Y-103248110D01*
X77909387Y-103342834D01*
X77865026Y-103351658D01*
X77759517Y-103422157D01*
X77602243Y-103527244D01*
X77434999Y-103694488D01*
X77434999Y-99935513D01*
X78748073Y-98622440D01*
X79450000Y-98622440D01*
X79685317Y-98578162D01*
X79799978Y-98504380D01*
X79898110Y-98571431D01*
G36*
X69888764Y-102337630D02*
X70115781Y-102515946D01*
X69941246Y-102632567D01*
X69702417Y-102990000D01*
X67885513Y-102990000D01*
X67846595Y-102951082D01*
X67897440Y-102700000D01*
X67897440Y-102209319D01*
X68098110Y-102346431D01*
X68350000Y-102397440D01*
X69250000Y-102397440D01*
X69485317Y-102353162D01*
X69701441Y-102214090D01*
X69766086Y-102119479D01*
X69888764Y-102337630D01*
X69888764Y-102337630D01*
G37*
X69888764Y-102337630D02*
X70115781Y-102515946D01*
X69941246Y-102632567D01*
X69702417Y-102990000D01*
X67885513Y-102990000D01*
X67846595Y-102951082D01*
X67897440Y-102700000D01*
X67897440Y-102209319D01*
X68098110Y-102346431D01*
X68350000Y-102397440D01*
X69250000Y-102397440D01*
X69485317Y-102353162D01*
X69701441Y-102214090D01*
X69766086Y-102119479D01*
X69888764Y-102337630D01*
G36*
X64956742Y-96872757D02*
X65219525Y-97048343D01*
X65357395Y-97075766D01*
X65529498Y-97110000D01*
X65817074Y-97110000D01*
X65821838Y-97135317D01*
X65960910Y-97351441D01*
X66173110Y-97496431D01*
X66425000Y-97547440D01*
X67175000Y-97547440D01*
X67410317Y-97503162D01*
X67515175Y-97435688D01*
X67990000Y-97910513D01*
X67990000Y-100427069D01*
X67898559Y-100485910D01*
X67753569Y-100698110D01*
X67702560Y-100950000D01*
X67702560Y-101440681D01*
X67501890Y-101303569D01*
X67250000Y-101252560D01*
X66350000Y-101252560D01*
X66114683Y-101296838D01*
X65991440Y-101376143D01*
X65991440Y-97802000D01*
X65947162Y-97566683D01*
X65808090Y-97350559D01*
X65595890Y-97205569D01*
X65344000Y-97154560D01*
X61042073Y-97154560D01*
X58768425Y-94880912D01*
X60198693Y-94880912D01*
X60217173Y-95080620D01*
X60590925Y-95198357D01*
X60981282Y-95164103D01*
X61182827Y-95080620D01*
X61201307Y-94880912D01*
X60700000Y-94379605D01*
X60198693Y-94880912D01*
X58768425Y-94880912D01*
X57978438Y-94090925D01*
X59701643Y-94090925D01*
X59735897Y-94481282D01*
X59819380Y-94682827D01*
X60019088Y-94701307D01*
X60520395Y-94200000D01*
X60879605Y-94200000D01*
X61380912Y-94701307D01*
X61580620Y-94682827D01*
X61698357Y-94309075D01*
X61664103Y-93918718D01*
X61580620Y-93717173D01*
X61380912Y-93698693D01*
X60879605Y-94200000D01*
X60520395Y-94200000D01*
X60019088Y-93698693D01*
X59819380Y-93717173D01*
X59701643Y-94090925D01*
X57978438Y-94090925D01*
X57833000Y-93945488D01*
X57833000Y-93519088D01*
X60198693Y-93519088D01*
X60700000Y-94020395D01*
X61201307Y-93519088D01*
X61182827Y-93319380D01*
X60809075Y-93201643D01*
X60418718Y-93235897D01*
X60217173Y-93319380D01*
X60198693Y-93519088D01*
X57833000Y-93519088D01*
X57833000Y-91884135D01*
X58085409Y-91715481D01*
X58418155Y-91217491D01*
X58535000Y-90630072D01*
X58535000Y-90569928D01*
X58505473Y-90421488D01*
X64956742Y-96872757D01*
X64956742Y-96872757D01*
G37*
X64956742Y-96872757D02*
X65219525Y-97048343D01*
X65357395Y-97075766D01*
X65529498Y-97110000D01*
X65817074Y-97110000D01*
X65821838Y-97135317D01*
X65960910Y-97351441D01*
X66173110Y-97496431D01*
X66425000Y-97547440D01*
X67175000Y-97547440D01*
X67410317Y-97503162D01*
X67515175Y-97435688D01*
X67990000Y-97910513D01*
X67990000Y-100427069D01*
X67898559Y-100485910D01*
X67753569Y-100698110D01*
X67702560Y-100950000D01*
X67702560Y-101440681D01*
X67501890Y-101303569D01*
X67250000Y-101252560D01*
X66350000Y-101252560D01*
X66114683Y-101296838D01*
X65991440Y-101376143D01*
X65991440Y-97802000D01*
X65947162Y-97566683D01*
X65808090Y-97350559D01*
X65595890Y-97205569D01*
X65344000Y-97154560D01*
X61042073Y-97154560D01*
X58768425Y-94880912D01*
X60198693Y-94880912D01*
X60217173Y-95080620D01*
X60590925Y-95198357D01*
X60981282Y-95164103D01*
X61182827Y-95080620D01*
X61201307Y-94880912D01*
X60700000Y-94379605D01*
X60198693Y-94880912D01*
X58768425Y-94880912D01*
X57978438Y-94090925D01*
X59701643Y-94090925D01*
X59735897Y-94481282D01*
X59819380Y-94682827D01*
X60019088Y-94701307D01*
X60520395Y-94200000D01*
X60879605Y-94200000D01*
X61380912Y-94701307D01*
X61580620Y-94682827D01*
X61698357Y-94309075D01*
X61664103Y-93918718D01*
X61580620Y-93717173D01*
X61380912Y-93698693D01*
X60879605Y-94200000D01*
X60520395Y-94200000D01*
X60019088Y-93698693D01*
X59819380Y-93717173D01*
X59701643Y-94090925D01*
X57978438Y-94090925D01*
X57833000Y-93945488D01*
X57833000Y-93519088D01*
X60198693Y-93519088D01*
X60700000Y-94020395D01*
X61201307Y-93519088D01*
X61182827Y-93319380D01*
X60809075Y-93201643D01*
X60418718Y-93235897D01*
X60217173Y-93319380D01*
X60198693Y-93519088D01*
X57833000Y-93519088D01*
X57833000Y-91884135D01*
X58085409Y-91715481D01*
X58418155Y-91217491D01*
X58535000Y-90630072D01*
X58535000Y-90569928D01*
X58505473Y-90421488D01*
X64956742Y-96872757D01*
G36*
X71527000Y-101133000D02*
X71547000Y-101133000D01*
X71547000Y-101387000D01*
X71527000Y-101387000D01*
X71527000Y-101407000D01*
X71273000Y-101407000D01*
X71273000Y-101387000D01*
X71253000Y-101387000D01*
X71253000Y-101133000D01*
X71273000Y-101133000D01*
X71273000Y-101113000D01*
X71527000Y-101113000D01*
X71527000Y-101133000D01*
X71527000Y-101133000D01*
G37*
X71527000Y-101133000D02*
X71547000Y-101133000D01*
X71547000Y-101387000D01*
X71527000Y-101387000D01*
X71527000Y-101407000D01*
X71273000Y-101407000D01*
X71273000Y-101387000D01*
X71253000Y-101387000D01*
X71253000Y-101133000D01*
X71273000Y-101133000D01*
X71273000Y-101113000D01*
X71527000Y-101113000D01*
X71527000Y-101133000D01*
G36*
X97996173Y-89995275D02*
X97882727Y-90161308D01*
X97831718Y-90413198D01*
X97831718Y-92113198D01*
X97875996Y-92348515D01*
X97996173Y-92535275D01*
X97882727Y-92701308D01*
X97831718Y-92953198D01*
X97831718Y-94653198D01*
X97875996Y-94888515D01*
X97996173Y-95075275D01*
X97882727Y-95241308D01*
X97831718Y-95493198D01*
X97831718Y-96825338D01*
X97686799Y-96765162D01*
X97314833Y-96764838D01*
X97005009Y-96892854D01*
X96890825Y-96845441D01*
X96518859Y-96845117D01*
X96175083Y-96987162D01*
X95911834Y-97249952D01*
X95769188Y-97593480D01*
X95768864Y-97965446D01*
X95894026Y-98268362D01*
X95894026Y-101098514D01*
X95660055Y-100864543D01*
X95660055Y-98726892D01*
X95639278Y-98622440D01*
X95598398Y-98416919D01*
X95484987Y-98247187D01*
X95484987Y-93357987D01*
X95423329Y-93048013D01*
X95325744Y-92901967D01*
X95247743Y-92785230D01*
X93372512Y-90910000D01*
X93525331Y-90910000D01*
X93535910Y-90926441D01*
X93748110Y-91071431D01*
X94000000Y-91122440D01*
X95200000Y-91122440D01*
X95435317Y-91078162D01*
X95549978Y-91004380D01*
X95648110Y-91071431D01*
X95900000Y-91122440D01*
X97100000Y-91122440D01*
X97335317Y-91078162D01*
X97551441Y-90939090D01*
X97696431Y-90726890D01*
X97747440Y-90475000D01*
X97747440Y-90152362D01*
X97960290Y-89939512D01*
X97996173Y-89995275D01*
X97996173Y-89995275D01*
G37*
X97996173Y-89995275D02*
X97882727Y-90161308D01*
X97831718Y-90413198D01*
X97831718Y-92113198D01*
X97875996Y-92348515D01*
X97996173Y-92535275D01*
X97882727Y-92701308D01*
X97831718Y-92953198D01*
X97831718Y-94653198D01*
X97875996Y-94888515D01*
X97996173Y-95075275D01*
X97882727Y-95241308D01*
X97831718Y-95493198D01*
X97831718Y-96825338D01*
X97686799Y-96765162D01*
X97314833Y-96764838D01*
X97005009Y-96892854D01*
X96890825Y-96845441D01*
X96518859Y-96845117D01*
X96175083Y-96987162D01*
X95911834Y-97249952D01*
X95769188Y-97593480D01*
X95768864Y-97965446D01*
X95894026Y-98268362D01*
X95894026Y-101098514D01*
X95660055Y-100864543D01*
X95660055Y-98726892D01*
X95639278Y-98622440D01*
X95598398Y-98416919D01*
X95484987Y-98247187D01*
X95484987Y-93357987D01*
X95423329Y-93048013D01*
X95325744Y-92901967D01*
X95247743Y-92785230D01*
X93372512Y-90910000D01*
X93525331Y-90910000D01*
X93535910Y-90926441D01*
X93748110Y-91071431D01*
X94000000Y-91122440D01*
X95200000Y-91122440D01*
X95435317Y-91078162D01*
X95549978Y-91004380D01*
X95648110Y-91071431D01*
X95900000Y-91122440D01*
X97100000Y-91122440D01*
X97335317Y-91078162D01*
X97551441Y-90939090D01*
X97696431Y-90726890D01*
X97747440Y-90475000D01*
X97747440Y-90152362D01*
X97960290Y-89939512D01*
X97996173Y-89995275D01*
G36*
X67940000Y-89397500D02*
X67997852Y-89688339D01*
X68162599Y-89934901D01*
X69122343Y-90894645D01*
X69030743Y-90986245D01*
X68855157Y-91249027D01*
X68793499Y-91559001D01*
X68793499Y-93924481D01*
X68855157Y-94234455D01*
X68936584Y-94356318D01*
X69030743Y-94497237D01*
X70023506Y-95490000D01*
X67782926Y-95490000D01*
X67778162Y-95464683D01*
X67639090Y-95248559D01*
X67426890Y-95103569D01*
X67175000Y-95052560D01*
X66425000Y-95052560D01*
X66189683Y-95096838D01*
X65973559Y-95235910D01*
X65828569Y-95448110D01*
X65827652Y-95452641D01*
X63855923Y-93480912D01*
X66498693Y-93480912D01*
X66517173Y-93680620D01*
X66890925Y-93798357D01*
X67281282Y-93764103D01*
X67482827Y-93680620D01*
X67501307Y-93480912D01*
X67000000Y-92979605D01*
X66498693Y-93480912D01*
X63855923Y-93480912D01*
X63437841Y-93062831D01*
X63628500Y-93101440D01*
X64771500Y-93101440D01*
X65006817Y-93057162D01*
X65222941Y-92918090D01*
X65367931Y-92705890D01*
X65370961Y-92690925D01*
X66001643Y-92690925D01*
X66035897Y-93081282D01*
X66119380Y-93282827D01*
X66319088Y-93301307D01*
X66820395Y-92800000D01*
X67179605Y-92800000D01*
X67680912Y-93301307D01*
X67880620Y-93282827D01*
X67998357Y-92909075D01*
X67964103Y-92518718D01*
X67880620Y-92317173D01*
X67680912Y-92298693D01*
X67179605Y-92800000D01*
X66820395Y-92800000D01*
X66319088Y-92298693D01*
X66119380Y-92317173D01*
X66001643Y-92690925D01*
X65370961Y-92690925D01*
X65418940Y-92454000D01*
X65418940Y-92119088D01*
X66498693Y-92119088D01*
X67000000Y-92620395D01*
X67501307Y-92119088D01*
X67482827Y-91919380D01*
X67109075Y-91801643D01*
X66718718Y-91835897D01*
X66517173Y-91919380D01*
X66498693Y-92119088D01*
X65418940Y-92119088D01*
X65418940Y-91946000D01*
X65374662Y-91710683D01*
X65280334Y-91564093D01*
X65367931Y-91435890D01*
X65418940Y-91184000D01*
X65418940Y-91103362D01*
X67940000Y-88582302D01*
X67940000Y-89397500D01*
X67940000Y-89397500D01*
G37*
X67940000Y-89397500D02*
X67997852Y-89688339D01*
X68162599Y-89934901D01*
X69122343Y-90894645D01*
X69030743Y-90986245D01*
X68855157Y-91249027D01*
X68793499Y-91559001D01*
X68793499Y-93924481D01*
X68855157Y-94234455D01*
X68936584Y-94356318D01*
X69030743Y-94497237D01*
X70023506Y-95490000D01*
X67782926Y-95490000D01*
X67778162Y-95464683D01*
X67639090Y-95248559D01*
X67426890Y-95103569D01*
X67175000Y-95052560D01*
X66425000Y-95052560D01*
X66189683Y-95096838D01*
X65973559Y-95235910D01*
X65828569Y-95448110D01*
X65827652Y-95452641D01*
X63855923Y-93480912D01*
X66498693Y-93480912D01*
X66517173Y-93680620D01*
X66890925Y-93798357D01*
X67281282Y-93764103D01*
X67482827Y-93680620D01*
X67501307Y-93480912D01*
X67000000Y-92979605D01*
X66498693Y-93480912D01*
X63855923Y-93480912D01*
X63437841Y-93062831D01*
X63628500Y-93101440D01*
X64771500Y-93101440D01*
X65006817Y-93057162D01*
X65222941Y-92918090D01*
X65367931Y-92705890D01*
X65370961Y-92690925D01*
X66001643Y-92690925D01*
X66035897Y-93081282D01*
X66119380Y-93282827D01*
X66319088Y-93301307D01*
X66820395Y-92800000D01*
X67179605Y-92800000D01*
X67680912Y-93301307D01*
X67880620Y-93282827D01*
X67998357Y-92909075D01*
X67964103Y-92518718D01*
X67880620Y-92317173D01*
X67680912Y-92298693D01*
X67179605Y-92800000D01*
X66820395Y-92800000D01*
X66319088Y-92298693D01*
X66119380Y-92317173D01*
X66001643Y-92690925D01*
X65370961Y-92690925D01*
X65418940Y-92454000D01*
X65418940Y-92119088D01*
X66498693Y-92119088D01*
X67000000Y-92620395D01*
X67501307Y-92119088D01*
X67482827Y-91919380D01*
X67109075Y-91801643D01*
X66718718Y-91835897D01*
X66517173Y-91919380D01*
X66498693Y-92119088D01*
X65418940Y-92119088D01*
X65418940Y-91946000D01*
X65374662Y-91710683D01*
X65280334Y-91564093D01*
X65367931Y-91435890D01*
X65418940Y-91184000D01*
X65418940Y-91103362D01*
X67940000Y-88582302D01*
X67940000Y-89397500D01*
G36*
X61033910Y-86752441D02*
X61246110Y-86897431D01*
X61498000Y-86948440D01*
X62698000Y-86948440D01*
X62770839Y-86934734D01*
X62752560Y-87025000D01*
X62752560Y-87775000D01*
X62796838Y-88010317D01*
X62852844Y-88097354D01*
X62766098Y-88184100D01*
X62601351Y-88430662D01*
X62543499Y-88721501D01*
X62543499Y-91620999D01*
X62601351Y-91911838D01*
X62766098Y-92158400D01*
X62981060Y-92373362D01*
X62981060Y-92454000D01*
X63016301Y-92641291D01*
X58915261Y-88540251D01*
X59248810Y-88206702D01*
X60170075Y-88206702D01*
X60175860Y-88396442D01*
X60512930Y-88498128D01*
X60863257Y-88463083D01*
X61024140Y-88396442D01*
X61029925Y-88206702D01*
X60600000Y-87776777D01*
X60170075Y-88206702D01*
X59248810Y-88206702D01*
X59723762Y-87731751D01*
X59736917Y-87863257D01*
X59803558Y-88024140D01*
X59993298Y-88029925D01*
X60423223Y-87600000D01*
X60776777Y-87600000D01*
X61206702Y-88029925D01*
X61396442Y-88024140D01*
X61498128Y-87687070D01*
X61463083Y-87336743D01*
X61396442Y-87175860D01*
X61206702Y-87170075D01*
X60776777Y-87600000D01*
X60423223Y-87600000D01*
X60407667Y-87584444D01*
X60584444Y-87407667D01*
X60600000Y-87423223D01*
X61029925Y-86993298D01*
X61024140Y-86803558D01*
X60800198Y-86736000D01*
X61023331Y-86736000D01*
X61033910Y-86752441D01*
X61033910Y-86752441D01*
G37*
X61033910Y-86752441D02*
X61246110Y-86897431D01*
X61498000Y-86948440D01*
X62698000Y-86948440D01*
X62770839Y-86934734D01*
X62752560Y-87025000D01*
X62752560Y-87775000D01*
X62796838Y-88010317D01*
X62852844Y-88097354D01*
X62766098Y-88184100D01*
X62601351Y-88430662D01*
X62543499Y-88721501D01*
X62543499Y-91620999D01*
X62601351Y-91911838D01*
X62766098Y-92158400D01*
X62981060Y-92373362D01*
X62981060Y-92454000D01*
X63016301Y-92641291D01*
X58915261Y-88540251D01*
X59248810Y-88206702D01*
X60170075Y-88206702D01*
X60175860Y-88396442D01*
X60512930Y-88498128D01*
X60863257Y-88463083D01*
X61024140Y-88396442D01*
X61029925Y-88206702D01*
X60600000Y-87776777D01*
X60170075Y-88206702D01*
X59248810Y-88206702D01*
X59723762Y-87731751D01*
X59736917Y-87863257D01*
X59803558Y-88024140D01*
X59993298Y-88029925D01*
X60423223Y-87600000D01*
X60776777Y-87600000D01*
X61206702Y-88029925D01*
X61396442Y-88024140D01*
X61498128Y-87687070D01*
X61463083Y-87336743D01*
X61396442Y-87175860D01*
X61206702Y-87170075D01*
X60776777Y-87600000D01*
X60423223Y-87600000D01*
X60407667Y-87584444D01*
X60584444Y-87407667D01*
X60600000Y-87423223D01*
X61029925Y-86993298D01*
X61024140Y-86803558D01*
X60800198Y-86736000D01*
X61023331Y-86736000D01*
X61033910Y-86752441D01*
G36*
X97831718Y-81953198D02*
X97875996Y-82188515D01*
X97996173Y-82375275D01*
X97882727Y-82541308D01*
X97831718Y-82793198D01*
X97831718Y-84493198D01*
X97875996Y-84728515D01*
X97996173Y-84915275D01*
X97882727Y-85081308D01*
X97831718Y-85333198D01*
X97831718Y-86265114D01*
X97514833Y-86264838D01*
X97171057Y-86406883D01*
X96907808Y-86669673D01*
X96765162Y-87013201D01*
X96764838Y-87385167D01*
X96906883Y-87728943D01*
X96940000Y-87762118D01*
X96940000Y-88810198D01*
X96672638Y-89077560D01*
X95900000Y-89077560D01*
X95823766Y-89091904D01*
X95847440Y-88975000D01*
X95847440Y-88225000D01*
X95803162Y-87989683D01*
X95664090Y-87773559D01*
X95451890Y-87628569D01*
X95200000Y-87577560D01*
X94254243Y-87577560D01*
X94485402Y-87346401D01*
X94650148Y-87099839D01*
X94708000Y-86809000D01*
X94708000Y-85780912D01*
X95798693Y-85780912D01*
X95817173Y-85980620D01*
X96190925Y-86098357D01*
X96581282Y-86064103D01*
X96782827Y-85980620D01*
X96801307Y-85780912D01*
X96300000Y-85279605D01*
X95798693Y-85780912D01*
X94708000Y-85780912D01*
X94708000Y-84990925D01*
X95301643Y-84990925D01*
X95335897Y-85381282D01*
X95419380Y-85582827D01*
X95619088Y-85601307D01*
X96120395Y-85100000D01*
X96479605Y-85100000D01*
X96980912Y-85601307D01*
X97180620Y-85582827D01*
X97298357Y-85209075D01*
X97264103Y-84818718D01*
X97180620Y-84617173D01*
X96980912Y-84598693D01*
X96479605Y-85100000D01*
X96120395Y-85100000D01*
X95619088Y-84598693D01*
X95419380Y-84617173D01*
X95301643Y-84990925D01*
X94708000Y-84990925D01*
X94708000Y-84466802D01*
X94755714Y-84419088D01*
X95798693Y-84419088D01*
X96300000Y-84920395D01*
X96801307Y-84419088D01*
X96782827Y-84219380D01*
X96409075Y-84101643D01*
X96018718Y-84135897D01*
X95817173Y-84219380D01*
X95798693Y-84419088D01*
X94755714Y-84419088D01*
X97831718Y-81343084D01*
X97831718Y-81953198D01*
X97831718Y-81953198D01*
G37*
X97831718Y-81953198D02*
X97875996Y-82188515D01*
X97996173Y-82375275D01*
X97882727Y-82541308D01*
X97831718Y-82793198D01*
X97831718Y-84493198D01*
X97875996Y-84728515D01*
X97996173Y-84915275D01*
X97882727Y-85081308D01*
X97831718Y-85333198D01*
X97831718Y-86265114D01*
X97514833Y-86264838D01*
X97171057Y-86406883D01*
X96907808Y-86669673D01*
X96765162Y-87013201D01*
X96764838Y-87385167D01*
X96906883Y-87728943D01*
X96940000Y-87762118D01*
X96940000Y-88810198D01*
X96672638Y-89077560D01*
X95900000Y-89077560D01*
X95823766Y-89091904D01*
X95847440Y-88975000D01*
X95847440Y-88225000D01*
X95803162Y-87989683D01*
X95664090Y-87773559D01*
X95451890Y-87628569D01*
X95200000Y-87577560D01*
X94254243Y-87577560D01*
X94485402Y-87346401D01*
X94650148Y-87099839D01*
X94708000Y-86809000D01*
X94708000Y-85780912D01*
X95798693Y-85780912D01*
X95817173Y-85980620D01*
X96190925Y-86098357D01*
X96581282Y-86064103D01*
X96782827Y-85980620D01*
X96801307Y-85780912D01*
X96300000Y-85279605D01*
X95798693Y-85780912D01*
X94708000Y-85780912D01*
X94708000Y-84990925D01*
X95301643Y-84990925D01*
X95335897Y-85381282D01*
X95419380Y-85582827D01*
X95619088Y-85601307D01*
X96120395Y-85100000D01*
X96479605Y-85100000D01*
X96980912Y-85601307D01*
X97180620Y-85582827D01*
X97298357Y-85209075D01*
X97264103Y-84818718D01*
X97180620Y-84617173D01*
X96980912Y-84598693D01*
X96479605Y-85100000D01*
X96120395Y-85100000D01*
X95619088Y-84598693D01*
X95419380Y-84617173D01*
X95301643Y-84990925D01*
X94708000Y-84990925D01*
X94708000Y-84466802D01*
X94755714Y-84419088D01*
X95798693Y-84419088D01*
X96300000Y-84920395D01*
X96801307Y-84419088D01*
X96782827Y-84219380D01*
X96409075Y-84101643D01*
X96018718Y-84135897D01*
X95817173Y-84219380D01*
X95798693Y-84419088D01*
X94755714Y-84419088D01*
X97831718Y-81343084D01*
X97831718Y-81953198D01*
G36*
X91576172Y-62877149D02*
X92029391Y-63179981D01*
X92564000Y-63286321D01*
X92882221Y-63223023D01*
X95488000Y-65828802D01*
X95488000Y-78437198D01*
X93910000Y-80015198D01*
X93910000Y-69397440D01*
X93950000Y-69397440D01*
X94185317Y-69353162D01*
X94401441Y-69214090D01*
X94546431Y-69001890D01*
X94597440Y-68750000D01*
X94597440Y-67050000D01*
X94553162Y-66814683D01*
X94414090Y-66598559D01*
X94201890Y-66453569D01*
X93950000Y-66402560D01*
X92250000Y-66402560D01*
X92014683Y-66446838D01*
X91798559Y-66585910D01*
X91653569Y-66798110D01*
X91639914Y-66865541D01*
X91610054Y-66820853D01*
X91128285Y-66498946D01*
X91120714Y-66497440D01*
X91450000Y-66497440D01*
X91685317Y-66453162D01*
X91901441Y-66314090D01*
X92046431Y-66101890D01*
X92097440Y-65850000D01*
X92097440Y-64150000D01*
X92053162Y-63914683D01*
X91914090Y-63698559D01*
X91701890Y-63553569D01*
X91450000Y-63502560D01*
X89750000Y-63502560D01*
X89514683Y-63546838D01*
X89298559Y-63685910D01*
X89153569Y-63898110D01*
X89102560Y-64150000D01*
X89102560Y-65850000D01*
X89146838Y-66085317D01*
X89285910Y-66301441D01*
X89498110Y-66446431D01*
X89750000Y-66497440D01*
X89999286Y-66497440D01*
X89991715Y-66498946D01*
X89509946Y-66820853D01*
X89282298Y-67161553D01*
X89215183Y-67018642D01*
X88786924Y-66628355D01*
X88376890Y-66458524D01*
X88147000Y-66579845D01*
X88147000Y-67773000D01*
X88167000Y-67773000D01*
X88167000Y-68027000D01*
X88147000Y-68027000D01*
X88147000Y-69220155D01*
X88376890Y-69341476D01*
X88786924Y-69171645D01*
X89215183Y-68781358D01*
X89282298Y-68638447D01*
X89509946Y-68979147D01*
X89991715Y-69301054D01*
X90547370Y-69411581D01*
X90496804Y-69665794D01*
X90464683Y-69671838D01*
X90248559Y-69810910D01*
X90103569Y-70023110D01*
X90052560Y-70275000D01*
X90052560Y-71025000D01*
X90096838Y-71260317D01*
X90235910Y-71476441D01*
X90448110Y-71621431D01*
X90700000Y-71672440D01*
X91900000Y-71672440D01*
X92135317Y-71628162D01*
X92290000Y-71528626D01*
X92290000Y-80764487D01*
X91464488Y-81590000D01*
X88087441Y-81590000D01*
X87786799Y-81465162D01*
X87526227Y-81464935D01*
X88534832Y-80456330D01*
X88603298Y-80484759D01*
X89154285Y-80485240D01*
X89663515Y-80274831D01*
X90053461Y-79885564D01*
X90264759Y-79376702D01*
X90265240Y-78825715D01*
X90115000Y-78462105D01*
X90115000Y-76300801D01*
X90235317Y-76278162D01*
X90451441Y-76139090D01*
X90596431Y-75926890D01*
X90647440Y-75675000D01*
X90647440Y-74925000D01*
X90603162Y-74689683D01*
X90464090Y-74473559D01*
X90251890Y-74328569D01*
X90000000Y-74277560D01*
X88800000Y-74277560D01*
X88564683Y-74321838D01*
X88348559Y-74460910D01*
X88203569Y-74673110D01*
X88152560Y-74925000D01*
X88152560Y-75675000D01*
X88196838Y-75910317D01*
X88335910Y-76126441D01*
X88548110Y-76271431D01*
X88685000Y-76299152D01*
X88685000Y-77714829D01*
X88605715Y-77714760D01*
X88096485Y-77925169D01*
X87706539Y-78314436D01*
X87495241Y-78823298D01*
X87494760Y-79374285D01*
X87523938Y-79444900D01*
X84402000Y-82566838D01*
X84402000Y-81441162D01*
X84505581Y-81337581D01*
X84560185Y-81255861D01*
X84660574Y-81105619D01*
X84715000Y-80832000D01*
X84715000Y-80303141D01*
X84783515Y-80274831D01*
X85173461Y-79885564D01*
X85384759Y-79376702D01*
X85385240Y-78825715D01*
X85174831Y-78316485D01*
X84785564Y-77926539D01*
X84276702Y-77715241D01*
X84115000Y-77715100D01*
X84115000Y-76300801D01*
X84235317Y-76278162D01*
X84451441Y-76139090D01*
X84596431Y-75926890D01*
X84647440Y-75675000D01*
X84647440Y-74925000D01*
X84603162Y-74689683D01*
X84464090Y-74473559D01*
X84251890Y-74328569D01*
X84000000Y-74277560D01*
X82800000Y-74277560D01*
X82564683Y-74321838D01*
X82348559Y-74460910D01*
X82203569Y-74673110D01*
X82152560Y-74925000D01*
X82152560Y-75675000D01*
X82196838Y-75910317D01*
X82335910Y-76126441D01*
X82548110Y-76271431D01*
X82685000Y-76299152D01*
X82685000Y-78500000D01*
X82705886Y-78605001D01*
X82615241Y-78823298D01*
X82614760Y-79374285D01*
X82825169Y-79883515D01*
X83214436Y-80273461D01*
X83285000Y-80302762D01*
X83285000Y-80535838D01*
X83181419Y-80639419D01*
X83026426Y-80871381D01*
X82972000Y-81145000D01*
X82972000Y-84648548D01*
X82960559Y-84655910D01*
X82815569Y-84868110D01*
X82764560Y-85120000D01*
X82764560Y-86297758D01*
X80560000Y-84093198D01*
X80560000Y-74180912D01*
X85898693Y-74180912D01*
X85917173Y-74380620D01*
X86290925Y-74498357D01*
X86681282Y-74464103D01*
X86882827Y-74380620D01*
X86901307Y-74180912D01*
X86400000Y-73679605D01*
X85898693Y-74180912D01*
X80560000Y-74180912D01*
X80560000Y-73390925D01*
X85401643Y-73390925D01*
X85435897Y-73781282D01*
X85519380Y-73982827D01*
X85719088Y-74001307D01*
X86220395Y-73500000D01*
X86579605Y-73500000D01*
X87080912Y-74001307D01*
X87280620Y-73982827D01*
X87398357Y-73609075D01*
X87364103Y-73218718D01*
X87280620Y-73017173D01*
X87080912Y-72998693D01*
X86579605Y-73500000D01*
X86220395Y-73500000D01*
X85719088Y-72998693D01*
X85519380Y-73017173D01*
X85401643Y-73390925D01*
X80560000Y-73390925D01*
X80560000Y-72819088D01*
X85898693Y-72819088D01*
X86400000Y-73320395D01*
X86901307Y-72819088D01*
X86882827Y-72619380D01*
X86509075Y-72501643D01*
X86118718Y-72535897D01*
X85917173Y-72619380D01*
X85898693Y-72819088D01*
X80560000Y-72819088D01*
X80560000Y-72264802D01*
X84567910Y-68256892D01*
X86578514Y-68256892D01*
X86824817Y-68781358D01*
X87253076Y-69171645D01*
X87663110Y-69341476D01*
X87893000Y-69220155D01*
X87893000Y-68027000D01*
X86699181Y-68027000D01*
X86578514Y-68256892D01*
X84567910Y-68256892D01*
X85281694Y-67543108D01*
X86578514Y-67543108D01*
X86699181Y-67773000D01*
X87893000Y-67773000D01*
X87893000Y-66579845D01*
X87663110Y-66458524D01*
X87253076Y-66628355D01*
X86824817Y-67018642D01*
X86578514Y-67543108D01*
X85281694Y-67543108D01*
X89619034Y-63205768D01*
X90024000Y-63286321D01*
X90558609Y-63179981D01*
X91011828Y-62877149D01*
X91294000Y-62454850D01*
X91576172Y-62877149D01*
X91576172Y-62877149D01*
G37*
X91576172Y-62877149D02*
X92029391Y-63179981D01*
X92564000Y-63286321D01*
X92882221Y-63223023D01*
X95488000Y-65828802D01*
X95488000Y-78437198D01*
X93910000Y-80015198D01*
X93910000Y-69397440D01*
X93950000Y-69397440D01*
X94185317Y-69353162D01*
X94401441Y-69214090D01*
X94546431Y-69001890D01*
X94597440Y-68750000D01*
X94597440Y-67050000D01*
X94553162Y-66814683D01*
X94414090Y-66598559D01*
X94201890Y-66453569D01*
X93950000Y-66402560D01*
X92250000Y-66402560D01*
X92014683Y-66446838D01*
X91798559Y-66585910D01*
X91653569Y-66798110D01*
X91639914Y-66865541D01*
X91610054Y-66820853D01*
X91128285Y-66498946D01*
X91120714Y-66497440D01*
X91450000Y-66497440D01*
X91685317Y-66453162D01*
X91901441Y-66314090D01*
X92046431Y-66101890D01*
X92097440Y-65850000D01*
X92097440Y-64150000D01*
X92053162Y-63914683D01*
X91914090Y-63698559D01*
X91701890Y-63553569D01*
X91450000Y-63502560D01*
X89750000Y-63502560D01*
X89514683Y-63546838D01*
X89298559Y-63685910D01*
X89153569Y-63898110D01*
X89102560Y-64150000D01*
X89102560Y-65850000D01*
X89146838Y-66085317D01*
X89285910Y-66301441D01*
X89498110Y-66446431D01*
X89750000Y-66497440D01*
X89999286Y-66497440D01*
X89991715Y-66498946D01*
X89509946Y-66820853D01*
X89282298Y-67161553D01*
X89215183Y-67018642D01*
X88786924Y-66628355D01*
X88376890Y-66458524D01*
X88147000Y-66579845D01*
X88147000Y-67773000D01*
X88167000Y-67773000D01*
X88167000Y-68027000D01*
X88147000Y-68027000D01*
X88147000Y-69220155D01*
X88376890Y-69341476D01*
X88786924Y-69171645D01*
X89215183Y-68781358D01*
X89282298Y-68638447D01*
X89509946Y-68979147D01*
X89991715Y-69301054D01*
X90547370Y-69411581D01*
X90496804Y-69665794D01*
X90464683Y-69671838D01*
X90248559Y-69810910D01*
X90103569Y-70023110D01*
X90052560Y-70275000D01*
X90052560Y-71025000D01*
X90096838Y-71260317D01*
X90235910Y-71476441D01*
X90448110Y-71621431D01*
X90700000Y-71672440D01*
X91900000Y-71672440D01*
X92135317Y-71628162D01*
X92290000Y-71528626D01*
X92290000Y-80764487D01*
X91464488Y-81590000D01*
X88087441Y-81590000D01*
X87786799Y-81465162D01*
X87526227Y-81464935D01*
X88534832Y-80456330D01*
X88603298Y-80484759D01*
X89154285Y-80485240D01*
X89663515Y-80274831D01*
X90053461Y-79885564D01*
X90264759Y-79376702D01*
X90265240Y-78825715D01*
X90115000Y-78462105D01*
X90115000Y-76300801D01*
X90235317Y-76278162D01*
X90451441Y-76139090D01*
X90596431Y-75926890D01*
X90647440Y-75675000D01*
X90647440Y-74925000D01*
X90603162Y-74689683D01*
X90464090Y-74473559D01*
X90251890Y-74328569D01*
X90000000Y-74277560D01*
X88800000Y-74277560D01*
X88564683Y-74321838D01*
X88348559Y-74460910D01*
X88203569Y-74673110D01*
X88152560Y-74925000D01*
X88152560Y-75675000D01*
X88196838Y-75910317D01*
X88335910Y-76126441D01*
X88548110Y-76271431D01*
X88685000Y-76299152D01*
X88685000Y-77714829D01*
X88605715Y-77714760D01*
X88096485Y-77925169D01*
X87706539Y-78314436D01*
X87495241Y-78823298D01*
X87494760Y-79374285D01*
X87523938Y-79444900D01*
X84402000Y-82566838D01*
X84402000Y-81441162D01*
X84505581Y-81337581D01*
X84560185Y-81255861D01*
X84660574Y-81105619D01*
X84715000Y-80832000D01*
X84715000Y-80303141D01*
X84783515Y-80274831D01*
X85173461Y-79885564D01*
X85384759Y-79376702D01*
X85385240Y-78825715D01*
X85174831Y-78316485D01*
X84785564Y-77926539D01*
X84276702Y-77715241D01*
X84115000Y-77715100D01*
X84115000Y-76300801D01*
X84235317Y-76278162D01*
X84451441Y-76139090D01*
X84596431Y-75926890D01*
X84647440Y-75675000D01*
X84647440Y-74925000D01*
X84603162Y-74689683D01*
X84464090Y-74473559D01*
X84251890Y-74328569D01*
X84000000Y-74277560D01*
X82800000Y-74277560D01*
X82564683Y-74321838D01*
X82348559Y-74460910D01*
X82203569Y-74673110D01*
X82152560Y-74925000D01*
X82152560Y-75675000D01*
X82196838Y-75910317D01*
X82335910Y-76126441D01*
X82548110Y-76271431D01*
X82685000Y-76299152D01*
X82685000Y-78500000D01*
X82705886Y-78605001D01*
X82615241Y-78823298D01*
X82614760Y-79374285D01*
X82825169Y-79883515D01*
X83214436Y-80273461D01*
X83285000Y-80302762D01*
X83285000Y-80535838D01*
X83181419Y-80639419D01*
X83026426Y-80871381D01*
X82972000Y-81145000D01*
X82972000Y-84648548D01*
X82960559Y-84655910D01*
X82815569Y-84868110D01*
X82764560Y-85120000D01*
X82764560Y-86297758D01*
X80560000Y-84093198D01*
X80560000Y-74180912D01*
X85898693Y-74180912D01*
X85917173Y-74380620D01*
X86290925Y-74498357D01*
X86681282Y-74464103D01*
X86882827Y-74380620D01*
X86901307Y-74180912D01*
X86400000Y-73679605D01*
X85898693Y-74180912D01*
X80560000Y-74180912D01*
X80560000Y-73390925D01*
X85401643Y-73390925D01*
X85435897Y-73781282D01*
X85519380Y-73982827D01*
X85719088Y-74001307D01*
X86220395Y-73500000D01*
X86579605Y-73500000D01*
X87080912Y-74001307D01*
X87280620Y-73982827D01*
X87398357Y-73609075D01*
X87364103Y-73218718D01*
X87280620Y-73017173D01*
X87080912Y-72998693D01*
X86579605Y-73500000D01*
X86220395Y-73500000D01*
X85719088Y-72998693D01*
X85519380Y-73017173D01*
X85401643Y-73390925D01*
X80560000Y-73390925D01*
X80560000Y-72819088D01*
X85898693Y-72819088D01*
X86400000Y-73320395D01*
X86901307Y-72819088D01*
X86882827Y-72619380D01*
X86509075Y-72501643D01*
X86118718Y-72535897D01*
X85917173Y-72619380D01*
X85898693Y-72819088D01*
X80560000Y-72819088D01*
X80560000Y-72264802D01*
X84567910Y-68256892D01*
X86578514Y-68256892D01*
X86824817Y-68781358D01*
X87253076Y-69171645D01*
X87663110Y-69341476D01*
X87893000Y-69220155D01*
X87893000Y-68027000D01*
X86699181Y-68027000D01*
X86578514Y-68256892D01*
X84567910Y-68256892D01*
X85281694Y-67543108D01*
X86578514Y-67543108D01*
X86699181Y-67773000D01*
X87893000Y-67773000D01*
X87893000Y-66579845D01*
X87663110Y-66458524D01*
X87253076Y-66628355D01*
X86824817Y-67018642D01*
X86578514Y-67543108D01*
X85281694Y-67543108D01*
X89619034Y-63205768D01*
X90024000Y-63286321D01*
X90558609Y-63179981D01*
X91011828Y-62877149D01*
X91294000Y-62454850D01*
X91576172Y-62877149D01*
G36*
X88436917Y-83363257D02*
X88503558Y-83524140D01*
X88693298Y-83529925D01*
X89013223Y-83210000D01*
X89315198Y-83210000D01*
X88062599Y-84462599D01*
X88033501Y-84506147D01*
X87976683Y-84516838D01*
X87760559Y-84655910D01*
X87687116Y-84763397D01*
X87626090Y-84668559D01*
X87413890Y-84523569D01*
X87162000Y-84472560D01*
X86980991Y-84472560D01*
X86994431Y-84452890D01*
X87045440Y-84201000D01*
X87045440Y-84100072D01*
X87828083Y-83317429D01*
X88088083Y-83210000D01*
X88421586Y-83210000D01*
X88436917Y-83363257D01*
X88436917Y-83363257D01*
G37*
X88436917Y-83363257D02*
X88503558Y-83524140D01*
X88693298Y-83529925D01*
X89013223Y-83210000D01*
X89315198Y-83210000D01*
X88062599Y-84462599D01*
X88033501Y-84506147D01*
X87976683Y-84516838D01*
X87760559Y-84655910D01*
X87687116Y-84763397D01*
X87626090Y-84668559D01*
X87413890Y-84523569D01*
X87162000Y-84472560D01*
X86980991Y-84472560D01*
X86994431Y-84452890D01*
X87045440Y-84201000D01*
X87045440Y-84100072D01*
X87828083Y-83317429D01*
X88088083Y-83210000D01*
X88421586Y-83210000D01*
X88436917Y-83363257D01*
G36*
X53972000Y-74260000D02*
X58606400Y-74260000D01*
X60772135Y-76425735D01*
X60770075Y-76493298D01*
X61200000Y-76923223D01*
X61215557Y-76907667D01*
X61392334Y-77084444D01*
X61376777Y-77100000D01*
X61806702Y-77529925D01*
X61874265Y-77527865D01*
X62426260Y-78079860D01*
X62166500Y-78079860D01*
X61931183Y-78124138D01*
X61715059Y-78263210D01*
X61570069Y-78475410D01*
X61519060Y-78727300D01*
X61519060Y-79159100D01*
X61540118Y-79271013D01*
X61519060Y-79375000D01*
X61519060Y-79426758D01*
X61122440Y-79030138D01*
X61122440Y-78400000D01*
X61078162Y-78164683D01*
X60939090Y-77948559D01*
X60931557Y-77943412D01*
X61112930Y-77998128D01*
X61463257Y-77963083D01*
X61624140Y-77896442D01*
X61629925Y-77706702D01*
X61200000Y-77276777D01*
X60770075Y-77706702D01*
X60774010Y-77835765D01*
X60726890Y-77803569D01*
X60475000Y-77752560D01*
X59725000Y-77752560D01*
X59489683Y-77796838D01*
X59273559Y-77935910D01*
X59128569Y-78148110D01*
X59117251Y-78204000D01*
X56439110Y-78204000D01*
X56401890Y-78178569D01*
X56150000Y-78127560D01*
X55373877Y-78127560D01*
X55412180Y-77935000D01*
X55757032Y-77935000D01*
X56277481Y-77831476D01*
X56718697Y-77536665D01*
X57013508Y-77095449D01*
X57029922Y-77012930D01*
X60301872Y-77012930D01*
X60336917Y-77363257D01*
X60403558Y-77524140D01*
X60593298Y-77529925D01*
X61023223Y-77100000D01*
X60593298Y-76670075D01*
X60403558Y-76675860D01*
X60301872Y-77012930D01*
X57029922Y-77012930D01*
X57117032Y-76575000D01*
X57013508Y-76054551D01*
X56718697Y-75613335D01*
X56277481Y-75318524D01*
X55757032Y-75215000D01*
X55142968Y-75215000D01*
X54622519Y-75318524D01*
X54181303Y-75613335D01*
X54070609Y-75779000D01*
X53810000Y-75779000D01*
X53810000Y-74227776D01*
X53972000Y-74260000D01*
X53972000Y-74260000D01*
G37*
X53972000Y-74260000D02*
X58606400Y-74260000D01*
X60772135Y-76425735D01*
X60770075Y-76493298D01*
X61200000Y-76923223D01*
X61215557Y-76907667D01*
X61392334Y-77084444D01*
X61376777Y-77100000D01*
X61806702Y-77529925D01*
X61874265Y-77527865D01*
X62426260Y-78079860D01*
X62166500Y-78079860D01*
X61931183Y-78124138D01*
X61715059Y-78263210D01*
X61570069Y-78475410D01*
X61519060Y-78727300D01*
X61519060Y-79159100D01*
X61540118Y-79271013D01*
X61519060Y-79375000D01*
X61519060Y-79426758D01*
X61122440Y-79030138D01*
X61122440Y-78400000D01*
X61078162Y-78164683D01*
X60939090Y-77948559D01*
X60931557Y-77943412D01*
X61112930Y-77998128D01*
X61463257Y-77963083D01*
X61624140Y-77896442D01*
X61629925Y-77706702D01*
X61200000Y-77276777D01*
X60770075Y-77706702D01*
X60774010Y-77835765D01*
X60726890Y-77803569D01*
X60475000Y-77752560D01*
X59725000Y-77752560D01*
X59489683Y-77796838D01*
X59273559Y-77935910D01*
X59128569Y-78148110D01*
X59117251Y-78204000D01*
X56439110Y-78204000D01*
X56401890Y-78178569D01*
X56150000Y-78127560D01*
X55373877Y-78127560D01*
X55412180Y-77935000D01*
X55757032Y-77935000D01*
X56277481Y-77831476D01*
X56718697Y-77536665D01*
X57013508Y-77095449D01*
X57029922Y-77012930D01*
X60301872Y-77012930D01*
X60336917Y-77363257D01*
X60403558Y-77524140D01*
X60593298Y-77529925D01*
X61023223Y-77100000D01*
X60593298Y-76670075D01*
X60403558Y-76675860D01*
X60301872Y-77012930D01*
X57029922Y-77012930D01*
X57117032Y-76575000D01*
X57013508Y-76054551D01*
X56718697Y-75613335D01*
X56277481Y-75318524D01*
X55757032Y-75215000D01*
X55142968Y-75215000D01*
X54622519Y-75318524D01*
X54181303Y-75613335D01*
X54070609Y-75779000D01*
X53810000Y-75779000D01*
X53810000Y-74227776D01*
X53972000Y-74260000D01*
G36*
X67192172Y-62877149D02*
X67368000Y-62994634D01*
X67368000Y-64318000D01*
X67425852Y-64608839D01*
X67590599Y-64855401D01*
X67988000Y-65252802D01*
X67988000Y-68368699D01*
X67909946Y-68420853D01*
X67682298Y-68761553D01*
X67615183Y-68618642D01*
X67186924Y-68228355D01*
X66776890Y-68058524D01*
X66547000Y-68179845D01*
X66547000Y-69373000D01*
X66567000Y-69373000D01*
X66567000Y-69627000D01*
X66547000Y-69627000D01*
X66547000Y-71913000D01*
X66567000Y-71913000D01*
X66567000Y-72167000D01*
X66547000Y-72167000D01*
X66547000Y-72187000D01*
X66293000Y-72187000D01*
X66293000Y-72167000D01*
X66273000Y-72167000D01*
X66273000Y-71913000D01*
X66293000Y-71913000D01*
X66293000Y-69627000D01*
X66273000Y-69627000D01*
X66273000Y-69373000D01*
X66293000Y-69373000D01*
X66293000Y-68179845D01*
X66063110Y-68058524D01*
X65792999Y-68170401D01*
X65792999Y-63232999D01*
X65767002Y-63102304D01*
X65767002Y-63083721D01*
X65983070Y-63206220D01*
X66057277Y-63191260D01*
X66538026Y-62929630D01*
X66882059Y-62503941D01*
X66900670Y-62440887D01*
X67192172Y-62877149D01*
X67192172Y-62877149D01*
G37*
X67192172Y-62877149D02*
X67368000Y-62994634D01*
X67368000Y-64318000D01*
X67425852Y-64608839D01*
X67590599Y-64855401D01*
X67988000Y-65252802D01*
X67988000Y-68368699D01*
X67909946Y-68420853D01*
X67682298Y-68761553D01*
X67615183Y-68618642D01*
X67186924Y-68228355D01*
X66776890Y-68058524D01*
X66547000Y-68179845D01*
X66547000Y-69373000D01*
X66567000Y-69373000D01*
X66567000Y-69627000D01*
X66547000Y-69627000D01*
X66547000Y-71913000D01*
X66567000Y-71913000D01*
X66567000Y-72167000D01*
X66547000Y-72167000D01*
X66547000Y-72187000D01*
X66293000Y-72187000D01*
X66293000Y-72167000D01*
X66273000Y-72167000D01*
X66273000Y-71913000D01*
X66293000Y-71913000D01*
X66293000Y-69627000D01*
X66273000Y-69627000D01*
X66273000Y-69373000D01*
X66293000Y-69373000D01*
X66293000Y-68179845D01*
X66063110Y-68058524D01*
X65792999Y-68170401D01*
X65792999Y-63232999D01*
X65767002Y-63102304D01*
X65767002Y-63083721D01*
X65983070Y-63206220D01*
X66057277Y-63191260D01*
X66538026Y-62929630D01*
X66882059Y-62503941D01*
X66900670Y-62440887D01*
X67192172Y-62877149D01*
M02*
