M48
; DRILL file {KiCad (5.1.7)-1} date 10/17/20 19:17:08
; FORMAT={-:-/ absolute / inch / decimal}
; #@! TF.CreationDate,2020-10-17T19:17:08+02:00
; #@! TF.GenerationSoftware,Kicad,Pcbnew,(5.1.7)-1
FMAT,2
INCH
T1C0.0157
T2C0.0217
T3C0.0300
T4C0.0315
T5C0.0320
T6C0.0335
T7C0.0354
T8C0.0394
T9C0.0433
T10C0.0598
T11C0.1250
T12C0.0315
%
G90
G05
T1
X2.313Y-3.0374
X2.5Y-3.8051
X2.6083Y-3.7067
X2.7323Y-3.311
X2.7362Y-3.185
X2.7402Y-3.1339
X2.752Y-4.4803
X2.7559Y-3.1575
X2.7677Y-4.1811
X2.8976Y-3.6378
X2.9468Y-3.5994
X2.9665Y-3.564
X2.9724Y-4.0787
X2.9803Y-2.8976
X2.9803Y-3.5236
X3.0512Y-4.1299
X3.1693Y-3.9321
X3.2126Y-3.8858
X3.252Y-4.2244
X3.2717Y-3.7874
X3.2953Y-3.437
X3.2992Y-3.9646
X3.3189Y-3.5276
X3.3694Y-3.6683
X3.3917Y-4.2224
X3.4016Y-2.9646
X3.4027Y-3.7868
X3.4134Y-4.3661
X3.437Y-3.6024
X3.4409Y-4.2756
X3.4488Y-3.2441
X3.4921Y-3.5984
X3.5009Y-3.6665
X3.5031Y-3.4606
X3.5059Y-3.2717
X3.5106Y-3.5343
X3.5118Y-3.5
X3.5118Y-3.5669
X3.5787Y-4.0748
X3.5827Y-4.1772
X3.5925Y-3.9381
X3.7992Y-3.3819
X3.8072Y-3.8496
X3.8386Y-3.8465
X3.8465Y-3.4331
X3.9528Y-3.9803
X3.9894Y-4.0542
X4.1476Y-2.3357
X4.5512Y-3.7598
T3
X2.7402Y-4.2441
X2.7402Y-4.4041
T4
X2.811Y-3.8878
X2.811Y-3.9823
X2.811Y-4.0768
X3.3071Y-3.1142
X3.4992Y-3.1142
T5
X2.4843Y-2.4151
X2.5843Y-2.4151
X2.6843Y-2.4151
X2.7843Y-2.4151
X2.8443Y-4.3151
X2.8843Y-2.4151
X2.9443Y-4.3151
X2.9843Y-2.4151
X3.0443Y-4.3151
X3.0843Y-2.4151
X3.1443Y-4.3151
X3.1843Y-2.4151
X3.2443Y-4.3151
X3.3443Y-2.4151
X3.3443Y-4.3151
X3.4443Y-2.4151
X3.5443Y-2.4151
X3.5443Y-4.3151
X3.6443Y-2.4151
X3.6443Y-4.3151
X3.7443Y-2.4151
X3.7443Y-4.3151
X3.8443Y-2.4151
X3.8443Y-4.3151
X3.9443Y-2.4151
X3.9443Y-4.3151
X4.0443Y-2.4151
X4.0443Y-4.3151
T7
X2.2441Y-3.4669
X2.2441Y-3.5669
T8
X2.0673Y-2.6366
X2.0673Y-2.7366
X2.0673Y-2.8366
X2.1673Y-2.6366
X2.1673Y-2.7366
X2.1673Y-2.8366
X2.915Y-4.455
X3.015Y-4.455
X3.115Y-4.455
X3.215Y-4.455
X3.315Y-4.455
X3.415Y-4.455
X3.9106Y-3.393
X4.0106Y-3.393
X3.9106Y-3.593
X4.0106Y-3.593
X2.415Y-2.7362
X2.415Y-2.8362
X2.515Y-2.7362
X2.515Y-2.8362
X2.615Y-2.7362
X2.615Y-2.8362
X2.715Y-2.7362
X2.715Y-2.8362
X2.815Y-2.7362
X2.815Y-2.8362
X4.339Y-4.0776
X4.339Y-4.1776
X4.339Y-4.2776
X4.439Y-4.0776
X4.439Y-4.1776
X4.439Y-4.2776
X2.515Y-2.255
X2.615Y-2.255
X2.715Y-2.255
X2.815Y-2.255
X2.915Y-2.255
X3.015Y-2.255
X3.115Y-2.255
X3.215Y-2.255
X4.3192Y-3.4918
X4.4192Y-3.4918
X3.5138Y-4.4547
X3.6138Y-4.4547
X3.7138Y-4.4547
X3.8138Y-4.4547
X3.9138Y-4.4547
X4.0138Y-4.4547
X4.1138Y-4.4547
X4.2138Y-4.4547
X3.5669Y-2.5591
X3.4654Y-2.7126
X3.5654Y-2.7126
X3.6654Y-2.7126
X3.9106Y-3.493
X4.0106Y-3.493
X4.3192Y-3.2918
X4.4192Y-3.2918
X3.9106Y-3.793
X4.0106Y-3.793
X4.3192Y-3.5918
X4.4192Y-3.5918
X3.9106Y-3.893
X4.0106Y-3.893
X4.4449Y-2.752
X4.4449Y-2.852
X4.4449Y-2.952
X4.3192Y-3.7918
X4.4192Y-3.7918
X3.9106Y-3.293
X4.0106Y-3.293
X4.3192Y-3.8918
X4.4192Y-3.8918
X3.315Y-2.255
X3.415Y-2.255
X3.515Y-2.255
X3.615Y-2.255
X3.715Y-2.255
X3.815Y-2.255
X3.915Y-2.255
X4.015Y-2.255
X3.9106Y-3.693
X4.0106Y-3.693
X4.3192Y-3.1918
X4.4192Y-3.1918
X4.3192Y-3.3918
X4.4192Y-3.3918
X4.3192Y-3.6918
X4.4192Y-3.6918
X3.9106Y-3.193
X4.0106Y-3.193
T9
X2.2283Y-4.2953
X2.2283Y-4.4724
X2.4843Y-4.2953
X2.4843Y-4.4724
X4.4921Y-2.2677
X4.4921Y-2.4449
X4.748Y-2.2677
X4.748Y-2.4449
T10
X4.675Y-2.715
X4.675Y-2.915
X4.675Y-3.115
X4.675Y-3.315
X4.675Y-3.515
X4.675Y-3.715
X4.675Y-3.915
X4.675Y-4.115
X4.675Y-4.315
T11
X2.0943Y-4.3151
X2.1443Y-2.4151
X4.1443Y-3.0151
X4.1443Y-4.1151
T12
X2.1417Y-3.063
X2.1417Y-3.2598
T2
G00X2.0463Y-3.0089
M15
G01X2.0207Y-3.0089
M16
G05
G00X2.0463Y-3.314
M15
G01X2.0207Y-3.314
M16
G05
T6
G00X2.1939Y-3.0148
M15
G01X2.1722Y-3.0148
M16
G05
G00X2.1939Y-3.3081
M15
G01X2.1722Y-3.3081
M16
G05
T8
G00X2.2419Y-3.9056
M15
G01X2.2419Y-3.9843
M16
G05
G00X2.3206Y-4.13
M15
G01X2.3994Y-4.13
M16
G05
G00X2.4781Y-3.9056
M15
G01X2.4781Y-3.9843
M16
G05
T0
M30
